<?xml version="1.0" encoding="UTF-8"?>
<svg xmlns="http://www.w3.org/2000/svg" xmlns:xlink="http://www.w3.org/1999/xlink" width="1428pt" height="1605pt" viewBox="0 0 1428 1605" version="1.1">
<g id="surface174">
<rect x="0" y="0" width="1428" height="1605" style="fill:rgb(100%,100%,100%);fill-opacity:1;stroke:none;"/>
<path style="fill:none;stroke-width:0.75;stroke-linecap:round;stroke-linejoin:round;stroke:rgb(0%,0%,0%);stroke-opacity:1;stroke-miterlimit:10;" d="M 289.578125 535.355469 L 287.175781 539.71875 L 284.515625 542.964844 L 281.085938 545.585938 L 276.386719 548.058594 L 270.117188 550.769531 L 262.832031 553.675781 L 255.304688 556.628906 L 248.300781 559.476562 L 242.378906 562.140625 L 237.234375 564.820312 L 232.347656 567.773438 L 227.199219 571.265625 L 221.433594 575.46875 L 215.339844 580.179688 L 209.371094 585.113281 L 203.980469 589.972656 L 199.480469 594.550781 L 195.628906 598.988281 L 192.039062 603.503906 L 188.324219 608.324219 L 184.101562 613.667969 L 179.15625 619.652344 L 173.933594 625.941406 L 169.054688 632.082031 L 165.136719 637.632812 L 162.539062 642.300781 L 160.605469 646.414062 L 158.414062 650.457031 L 155.058594 654.921875 L 149.957031 660.117188 L 143.929688 665.699219 L 138.136719 671.144531 L 133.738281 675.941406 L 131.554688 679.699219 L 131.0625 682.585938 L 131.40625 684.890625 L 131.726562 686.914062 L 131.164062 688.949219 L 129.089844 691.296875 L 125.800781 694.3125 L 121.820312 698.339844 L 117.679688 703.742188 L 113.851562 710.671875 L 110.566406 718.523438 L 108.007812 726.488281 L 106.355469 733.761719 L 105.6875 739.746094 L 105.667969 744.664062 L 105.855469 748.949219 L 105.820312 753.03125 L 105.222656 757.238281 L 104.152344 761.488281 L 102.796875 765.601562 L 101.347656 769.386719 L 99.996094 772.660156 L 98.867188 775.394531 L 97.808594 778.15625 L 96.621094 781.675781 L 95.082031 786.679688 L 93.070312 793.617188 L 90.804688 801.828125 L 88.589844 810.378906 L 86.730469 818.328125 L 85.421875 824.964844 L 84.441406 830.46875 L 83.449219 835.242188 L 82.121094 839.695312 L 80.230469 844.160156 L 77.960938 848.726562 L 75.621094 853.402344 L 73.503906 858.210938 L 71.90625 863.171875 L 71.027344 868.242188 L 70.644531 873.175781 L 70.429688 877.664062 L 70.058594 881.40625 L 69.296875 884.273438 L 68.289062 886.847656 L 67.269531 889.898438 L 66.480469 894.183594 L 66.121094 900.191406 L 66.300781 907.3125 L 67.089844 914.660156 L 68.558594 921.351562 L 70.695312 926.703125 L 73.136719 930.859375 L 75.425781 934.171875 L 77.113281 936.992188 L 77.746094 939.667969 L 77.027344 942.453125 L 75.292969 945.246094 L 73.027344 947.835938 L 70.722656 950.027344 L 68.800781 951.710938 L 67.460938 953.171875 L 66.835938 954.785156 L 67.058594 956.929688 L 68.167969 959.867188 L 69.847656 963.40625 L 71.675781 967.234375 L 73.238281 971.046875 L 74.246094 974.65625 L 74.921875 978.394531 L 75.625 982.707031 L 76.699219 988.046875 L 78.496094 994.871094 L 81.222656 1003.359375 L 84.480469 1012.65625 L 87.730469 1021.636719 L 90.425781 1029.167969 L 92.171875 1034.4375 L 93.128906 1037.875 L 93.605469 1040.222656 L 93.914062 1042.21875 L 94.304688 1044.457031 L 94.84375 1046.972656 L 95.53125 1049.648438 L 96.375 1052.363281 L 97.382812 1055.050781 L 98.5625 1057.835938 L 99.933594 1060.878906 L 101.507812 1064.355469 L 103.292969 1068.425781 L 105.3125 1073.171875 L 107.617188 1078.3125 L 110.261719 1083.480469 L 113.308594 1088.300781 L 116.765625 1092.5625 L 120.507812 1096.679688 L 124.351562 1101.210938 L 128.121094 1106.730469 L 131.667969 1113.570312 L 134.9375 1121.152344 L 137.90625 1128.65625 L 140.539062 1135.269531 L 142.851562 1140.394531 L 144.964844 1144.300781 L 147.046875 1147.484375 L 149.257812 1150.433594 L 151.761719 1153.632812 L 154.65625 1157.453125 L 157.761719 1161.773438 L 160.839844 1166.351562 L 163.648438 1170.945312 L 166.015625 1175.332031 L 168.046875 1179.40625 L 169.914062 1183.070312 L 171.792969 1186.234375 L 173.851562 1188.917969 L 176.261719 1191.511719 L 179.1875 1194.527344 L 182.789062 1198.460938 L 187.164062 1203.648438 L 192.089844 1209.789062 L 197.28125 1216.40625 L 202.449219 1223.03125 L 207.300781 1229.1875 L 211.59375 1234.515625 L 215.269531 1239.070312 L 218.316406 1243.023438 L 220.726562 1246.53125 L 222.585938 1249.769531 L 224.394531 1252.875 L 226.753906 1255.996094 L 230.261719 1259.28125 L 235.46875 1262.824219 L 242.746094 1266.503906 L 252.417969 1270.164062 L 264.804688 1273.636719 L 279.941406 1276.738281 L 296.707031 1279.203125 L 313.703125 1280.75 L 329.519531 1281.097656 L 342.75 1279.960938 L 352.378906 1277.21875 L 358.941406 1273.390625 L 363.355469 1269.148438 L 366.542969 1265.167969 L 369.386719 1261.9375 L 372.59375 1259.183594 L 376.839844 1256.433594 L 382.800781 1253.222656 L 390.855469 1249.332031 L 400.246094 1245.523438 L 409.925781 1242.792969 L 418.84375 1242.152344 L 426.238281 1244.273438 L 432.488281 1248.5625 L 438.25 1254.082031 L 444.183594 1259.914062 L 450.953125 1265.128906 L 458.917969 1269.078125 L 467.222656 1272.207031 L 474.71875 1275.246094 L 480.25 1278.921875 L 483.058594 1283.800781 L 483.9375 1289.820312 L 484.082031 1296.757812 L 484.675781 1304.386719 L 486.738281 1312.453125 L 490.59375 1320.550781 L 496.390625 1328.246094 L 504.28125 1335.097656 L 514.328125 1340.75 L 526.257812 1345.128906 L 539.695312 1348.253906 L 554.277344 1350.132812 L 569.636719 1350.777344 L 585.34375 1350.21875 L 600.726562 1348.613281 L 615.058594 1346.140625 L 627.601562 1342.972656 L 637.835938 1339.316406 L 646.082031 1335.484375 L 652.855469 1331.816406 L 658.6875 1328.648438 L 664.105469 1326.210938 L 669.671875 1324.261719 L 675.964844 1322.460938 L 683.546875 1320.460938 L 692.753906 1317.988281 L 702.996094 1315.035156 L 713.433594 1311.664062 L 723.234375 1307.949219 L 731.5625 1303.949219 L 737.921875 1299.730469 L 743.101562 1295.339844 L 748.226562 1290.816406 L 754.425781 1286.207031 L 762.417969 1281.570312 L 771.289062 1277.027344 L 779.726562 1272.722656 L 786.414062 1268.785156 L 790.484375 1265.3125 L 792.855469 1262.199219 L 794.898438 1259.289062 L 797.972656 1256.425781 L 803.09375 1253.453125 L 809.828125 1250.164062 L 817.390625 1246.355469 L 824.984375 1241.816406 L 831.828125 1236.335938 L 837.390625 1229.855469 L 842.183594 1222.921875 L 846.992188 1216.226562 L 852.582031 1210.46875 L 859.46875 1206.136719 L 867.066406 1202.902344 L 874.519531 1200.230469 L 880.980469 1197.589844 L 885.832031 1194.554688 L 889.40625 1191.125 L 892.28125 1187.414062 L 895.027344 1183.53125 L 898.09375 1179.566406 L 901.425781 1175.550781 L 904.859375 1171.496094 L 908.214844 1167.417969 L 911.324219 1163.328125 L 914.089844 1159.222656 L 916.683594 1155.039062 L 919.367188 1150.699219 L 922.386719 1146.121094 L 925.886719 1141.292969 L 929.578125 1136.453125 L 933.058594 1131.90625 L 935.921875 1127.953125 L 937.878906 1124.753906 L 939.050781 1121.847656 L 939.667969 1118.632812 L 939.972656 1114.507812 L 940.160156 1109.058594 L 940.351562 1102.628906 L 940.625 1095.757812 L 941.070312 1088.976562 L 941.769531 1082.828125 L 942.78125 1077.695312 L 944.050781 1073.398438 L 945.496094 1069.605469 L 947.035156 1065.988281 L 948.5625 1062.292969 L 949.867188 1058.597656 L 950.71875 1055.054688 L 950.886719 1051.808594 L 950.269531 1048.964844 L 949.300781 1046.398438 L 948.539062 1043.925781 L 948.542969 1041.371094 L 949.714844 1038.574219 L 951.808594 1035.460938 L 954.414062 1031.984375 L 957.128906 1028.089844 L 959.539062 1023.71875 L 961.332031 1018.871094 L 962.566406 1013.730469 L 963.382812 1008.523438 L 963.929688 1003.480469 L 964.351562 998.804688 L 964.777344 994.585938 L 965.335938 990.882812 L 966.152344 987.753906 L 967.285156 985.179688 L 968.472656 982.835938 L 969.386719 980.3125 L 969.703125 977.207031 L 969.199219 973.222656 L 968.117188 968.511719 L 966.804688 963.339844 L 965.617188 957.964844 L 964.898438 952.65625 L 964.910156 947.609375 L 965.550781 942.796875 L 966.621094 938.128906 L 967.925781 933.507812 L 969.292969 928.789062 L 970.660156 923.585938 L 971.996094 917.457031 L 973.265625 909.964844 L 974.433594 900.953125 L 975.472656 891.390625 L 976.363281 882.546875 L 977.082031 875.679688 L 977.617188 871.625 L 977.996094 869.519531 L 978.253906 868.078125 L 978.429688 866.007812 L 978.566406 862.027344 L 978.691406 855.273438 L 978.828125 846.636719 L 978.988281 837.417969 L 979.1875 828.941406 L 979.417969 822.164062 L 979.644531 816.675781 L 979.804688 811.714844 L 979.839844 806.515625 L 979.703125 800.511719 L 979.402344 793.925781 L 978.960938 787.175781 L 978.398438 780.679688 L 977.730469 774.753906 L 976.957031 769.320312 L 976.070312 764.1875 L 975.070312 759.183594 L 973.945312 754.125 L 972.695312 748.871094 L 971.316406 743.480469 L 969.804688 738.050781 L 968.160156 732.683594 L 966.390625 727.476562 L 964.554688 722.53125 L 962.710938 717.941406 L 960.925781 713.804688 L 959.234375 710.148438 L 957.5625 706.722656 L 955.796875 703.207031 L 953.835938 699.28125 L 951.601562 694.714844 L 949.128906 689.667969 L 946.488281 684.382812 L 943.746094 679.109375 L 940.972656 674.097656 L 938.21875 669.53125 L 935.480469 665.308594 L 932.738281 661.265625 L 929.980469 657.238281 L 927.136719 653.089844 L 923.972656 648.824219 L 920.207031 644.472656 L 915.554688 640.070312 L 909.835938 635.625 L 903.261719 631.011719 L 896.140625 626.085938 L 888.789062 620.695312 L 881.316406 614.808594 L 873.050781 608.867188 L 863.121094 603.433594 L 850.65625 599.0625 L 834.785156 596.320312 L 815.234375 595.605469 L 794.082031 596.699219 L 774.019531 599.222656 L 757.71875 602.792969 L 747.070312 607.015625 L 740.777344 611.421875 L 736.75 615.535156 L 732.894531 618.871094 L 727.605469 621.136719 L 721.195312 622.824219 L 714.460938 624.621094 L 708.199219 627.210938 L 703.035156 631.105469 L 698.914062 636.164062 L 695.609375 642.066406 L 692.902344 648.496094 L 690.566406 655.140625 L 688.394531 661.703125 L 686.238281 667.96875 L 683.964844 673.742188 L 681.445312 678.832031 L 678.589844 683.105469 L 675.460938 686.691406 L 672.167969 689.785156 L 668.824219 692.582031 L 665.523438 695.277344 L 662.289062 698.121094 L 659.132812 701.363281 L 656.0625 705.246094 L 653.101562 709.960938 L 650.265625 715.421875 L 647.589844 721.484375 L 645.105469 727.992188 L 642.832031 734.804688 L 640.808594 741.726562 L 639.058594 748.40625 L 637.605469 754.441406 L 636.480469 759.4375 L 635.65625 763.164062 L 634.882812 766.03125 L 633.867188 768.628906 L 632.308594 771.535156 L 629.964844 775.230469 L 626.832031 779.785156 L 622.96875 785.175781 L 618.425781 791.367188 L 613.289062 798.257812 L 607.753906 805.46875 L 602.039062 812.539062 L 596.367188 819.015625 L 590.957031 824.433594 L 586.011719 828.546875 L 581.605469 831.953125 L 577.800781 835.449219 L 574.648438 839.835938 L 572.121094 845.523438 L 569.824219 851.355469 L 567.28125 855.785156 L 564.011719 857.261719 L 559.695312 854.726562 L 554.589844 849.085938 L 549.113281 841.734375 L 543.683594 834.0625 L 538.648438 827.199219 L 534.148438 821.167969 L 530.25 815.738281 L 527.03125 810.664062 L 524.554688 805.707031 L 522.851562 800.628906 L 521.730469 795.191406 L 520.953125 789.160156 L 520.28125 782.304688 L 519.492188 774.480469 L 518.398438 765.910156 L 516.835938 756.914062 L 514.632812 747.800781 L 511.722656 738.882812 L 508.429688 730.40625 L 505.191406 722.613281 L 502.441406 715.746094 L 500.464844 709.914062 L 499.019531 704.757812 L 497.71875 699.78125 L 496.171875 694.492188 L 493.996094 688.40625 L 490.917969 681.230469 L 487.148438 673.503906 L 483.011719 665.972656 L 478.832031 659.378906 L 474.871094 654.246094 L 471.15625 650.195312 L 467.648438 646.636719 L 464.308594 642.976562 L 461.132812 638.746094 L 458.25 633.996094 L 455.828125 628.898438 L 454.03125 623.632812 L 452.914062 618.34375 L 452.074219 613.109375 L 451.011719 607.972656 L 449.21875 602.980469 L 446.183594 598.183594 L 441.621094 593.644531 L 436.121094 589.53125 L 430.484375 586.023438 L 425.519531 583.304688 L 421.769531 581.414062 L 418.722656 579.816406 L 415.609375 577.824219 L 411.652344 574.761719 L 406.171875 570.171875 L 398.898438 564.507812 L 389.644531 558.445312 L 378.238281 552.65625 L 364.597656 547.671875 L 349.089844 543.433594 L 332.183594 539.738281 L 314.34375 536.378906 L 296.042969 533.15625 L 289.578125 535.355469 "/>
<path style="fill:none;stroke-width:0.75;stroke-linecap:round;stroke-linejoin:round;stroke:rgb(0%,0%,0%);stroke-opacity:1;stroke-miterlimit:10;" d="M 288.601562 534.914062 L 286.667969 539.5625 L 285.558594 543.457031 L 282.945312 546.449219 L 277.175781 548.527344 L 269.324219 550.308594 L 261.148438 552.550781 L 254.058594 555.769531 L 248.117188 559.488281 L 243.042969 562.992188 L 238.472656 565.78125 L 233.714844 568.285156 L 227.992188 571.160156 L 220.902344 574.90625 L 213.503906 579.429688 L 207.242188 584.480469 L 203.097656 589.796875 L 200.289062 595.039062 L 197.597656 599.855469 L 194.019531 604.0625 L 189.472656 608.160156 L 184.105469 612.824219 L 178.054688 618.730469 L 171.691406 626.136719 L 166.292969 633.625 L 163.351562 639.378906 L 163.582031 642.285156 L 164.519531 644.140625 L 162.917969 647.453125 L 156.621094 653.917969 L 147.796875 661.910156 L 139.71875 668.976562 L 134.914062 673.332031 L 132.988281 675.785156 L 132.808594 677.816406 L 133.304688 680.558594 L 133.628906 683.789062 L 132.984375 686.9375 L 130.835938 689.625 L 127.648438 692.195312 L 124.152344 695.179688 L 120.921875 699.027344 L 117.921875 703.910156 L 114.960938 709.933594 L 111.859375 717.199219 L 108.589844 725.558594 L 105.808594 733.914062 L 104.335938 740.90625 L 104.636719 745.636719 L 105.808594 749.007812 L 106.597656 752.367188 L 106.0625 756.695312 L 104.550781 761.53125 L 102.730469 766.035156 L 101.140625 769.601562 L 99.808594 772.496094 L 98.648438 775.199219 L 97.554688 778.195312 L 96.398438 781.957031 L 95.027344 786.957031 L 93.339844 793.484375 L 91.394531 801.160156 L 89.292969 809.410156 L 87.136719 817.679688 L 85.046875 825.414062 L 83.257812 832.089844 L 82.023438 837.191406 L 81.433594 840.519531 L 80.910156 843.15625 L 79.703125 846.484375 L 77.316406 851.515625 L 74.300781 857.683594 L 71.449219 864.042969 L 69.453125 869.777344 L 68.535156 874.597656 L 68.796875 878.34375 L 70.113281 881.023438 L 71.390625 883.28125 L 71.304688 885.9375 L 69.042969 889.652344 L 65.90625 894.511719 L 63.707031 900.441406 L 63.816406 907.277344 L 65.820312 914.441406 L 68.847656 921.246094 L 72.042969 927.007812 L 74.65625 931.265625 L 76.453125 934.40625 L 77.300781 937.03125 L 77.15625 939.628906 L 76.246094 942.257812 L 74.878906 944.855469 L 73.285156 947.363281 L 71.464844 949.738281 L 69.351562 951.941406 L 67.058594 953.945312 L 65.457031 955.8125 L 65.59375 957.609375 L 68.039062 959.492188 L 71.4375 961.90625 L 73.957031 965.363281 L 74.3125 970.140625 L 73.472656 975.53125 L 72.953125 980.589844 L 73.933594 984.710938 L 76.203125 988.707031 L 79.21875 993.742188 L 82.421875 1000.972656 L 85.351562 1010.941406 L 87.910156 1021.6875 L 90.074219 1030.621094 L 91.824219 1035.875 L 93.105469 1038.410156 L 93.859375 1039.90625 L 94.097656 1041.738281 L 94.136719 1044.058594 L 94.351562 1046.71875 L 95.039062 1049.582031 L 96.140625 1052.5 L 97.519531 1055.339844 L 99.039062 1058.046875 L 100.589844 1060.894531 L 102.066406 1064.238281 L 103.445312 1068.335938 L 104.953125 1073.03125 L 106.898438 1078.070312 L 109.582031 1083.203125 L 113.15625 1088.207031 L 117.167969 1092.988281 L 121.019531 1097.484375 L 124.3125 1101.78125 L 127.4375 1106.535156 L 131.003906 1112.554688 L 135.304688 1120.257812 L 139.46875 1128.519531 L 142.316406 1135.824219 L 143.164062 1141.0625 L 143.28125 1144.675781 L 144.425781 1147.511719 L 147.800781 1150.3125 L 152.410156 1153.4375 L 156.695312 1157.144531 L 159.5 1161.570312 L 161.273438 1166.390625 L 162.871094 1171.160156 L 164.945312 1175.511719 L 167.410156 1179.417969 L 169.96875 1182.914062 L 172.335938 1186.054688 L 174.355469 1188.925781 L 176.394531 1191.777344 L 178.945312 1194.898438 L 182.402344 1198.585938 L 186.730469 1203.175781 L 191.800781 1209.011719 L 197.394531 1216.164062 L 202.957031 1223.640625 L 207.855469 1230.171875 L 211.65625 1234.878906 L 214.710938 1238.417969 L 217.5625 1241.84375 L 220.605469 1245.910156 L 223.601562 1250.226562 L 226.160156 1254.113281 L 228.140625 1257.105469 L 230.40625 1259.554688 L 234.078125 1262.03125 L 240.265625 1265.105469 L 249.882812 1269.113281 L 262.988281 1273.492188 L 279.4375 1277.445312 L 298.5625 1280.277344 L 317.632812 1281.683594 L 333.390625 1281.460938 L 343.578125 1279.539062 L 349.925781 1276.425781 L 355.160156 1272.75 L 361.304688 1269.058594 L 367.515625 1265.523438 L 372.25 1262.21875 L 374.652344 1259.167969 L 376.625 1256.238281 L 380.753906 1253.242188 L 388.835938 1250.058594 L 399.488281 1246.816406 L 410.527344 1243.703125 L 420.125 1240.835938 L 427.8125 1238.058594 L 433.484375 1235.144531 L 437.019531 1231.867188 L 438.511719 1228.109375 L 438.859375 1224.234375 L 439.175781 1220.714844 L 440.296875 1217.878906 L 441.988281 1215.507812 L 443.742188 1213.242188 L 445.179688 1210.785156 L 446.382812 1208.089844 L 447.558594 1205.1875 L 448.859375 1202.089844 L 450.257812 1198.742188 L 451.664062 1195.078125 L 453.023438 1191.113281 L 454.347656 1187.183594 L 455.664062 1183.691406 L 457 1180.894531 L 458.347656 1178.421875 L 459.699219 1175.757812 L 461.042969 1172.441406 L 462.382812 1168.304688 L 463.71875 1163.242188 L 465.058594 1157.15625 L 466.40625 1150.011719 L 467.753906 1142.0625 L 469.097656 1133.640625 L 470.433594 1125.070312 L 471.769531 1116.714844 L 473.109375 1108.929688 L 474.453125 1102.039062 L 475.800781 1096.25 L 477.148438 1091.710938 L 478.488281 1088.492188 L 479.824219 1086.210938 L 481.164062 1084.398438 L 482.503906 1082.542969 L 483.847656 1080.003906 L 485.195312 1076.109375 L 486.539062 1070.417969 L 487.882812 1063.402344 L 489.222656 1055.757812 L 490.5625 1048.183594 L 491.902344 1041.308594 L 493.238281 1035.453125 L 494.582031 1030.867188 L 495.929688 1027.628906 L 497.277344 1025.144531 L 498.621094 1022.65625 L 499.957031 1019.585938 L 501.292969 1016.144531 L 502.632812 1012.722656 L 503.976562 1009.617188 L 505.324219 1006.710938 L 506.671875 1003.773438 L 508.011719 1000.644531 L 509.347656 997.386719 L 510.6875 994.109375 L 512.027344 990.886719 L 513.371094 987.59375 L 514.71875 984.058594 L 516.0625 980.1875 L 517.40625 976.199219 L 518.746094 972.390625 L 520.085938 969.054688 L 521.425781 966.339844 L 522.761719 963.832031 L 524.105469 960.960938 L 525.453125 957.28125 L 526.800781 952.820312 L 528.144531 947.738281 L 529.484375 942.238281 L 530.820312 936.753906 L 532.15625 931.761719 L 533.496094 927.589844 L 534.84375 923.898438 L 536.191406 920.203125 L 537.542969 916.050781 L 538.886719 911.210938 L 540.21875 905.488281 L 541.539062 898.828125 L 542.855469 891.714844 L 544.195312 884.753906 L 545.574219 878.417969 L 547.007812 872.621094 L 548.503906 867.136719 L 550.082031 861.742188 L 551.546875 856.175781 L 551.90625 850.046875 L 549.964844 842.925781 L 545.054688 834.675781 L 538.636719 826.3125 L 532.699219 819.128906 L 528.765625 814.015625 L 526.492188 810.214844 L 525.0625 806.554688 L 523.800781 802.054688 L 522.574219 796.480469 L 521.375 789.785156 L 520.199219 782.011719 L 519.003906 773.546875 L 517.734375 764.851562 L 516.316406 756.304688 L 514.585938 747.917969 L 512.359375 739.609375 L 509.449219 731.289062 L 505.851562 723.007812 L 502.230469 715.335938 L 499.441406 708.96875 L 498.03125 704.265625 L 497.339844 700.1875 L 496.425781 695.335938 L 494.519531 688.734375 L 491.574219 680.96875 L 487.742188 673.039062 L 483.226562 665.792969 L 478.53125 659.496094 L 474.222656 654.269531 L 470.691406 650.117188 L 467.65625 646.546875 L 464.667969 642.964844 L 461.421875 638.875 L 458.246094 634.25 L 455.613281 629.179688 L 453.859375 623.769531 L 452.738281 618.214844 L 451.855469 612.722656 L 450.824219 607.507812 L 449.234375 602.722656 L 446.636719 598.296875 L 442.566406 594.085938 L 436.847656 590.03125 L 430.472656 586.351562 L 424.734375 583.335938 L 420.570312 581.128906 L 417.574219 579.28125 L 414.996094 577.195312 L 412.027344 574.347656 L 407.617188 570.496094 L 400.65625 565.464844 L 390.40625 559.285156 L 377.609375 552.789062 L 363.367188 547.015625 L 348.496094 542.714844 L 332.632812 539.480469 L 315.113281 536.617188 L 295.277344 533.4375 L 288.601562 534.914062 "/>
<path style="fill:none;stroke-width:0.75;stroke-linecap:round;stroke-linejoin:round;stroke:rgb(0%,0%,0%);stroke-opacity:1;stroke-miterlimit:10;" d="M 764.632812 592.988281 L 761.371094 598.476562 L 756.640625 604.007812 L 751.164062 608.867188 L 745.5 612.542969 L 739.609375 615.359375 L 733.308594 617.871094 L 726.527344 620.492188 L 719.664062 623.171875 L 713.253906 625.738281 L 707.726562 628.171875 L 703.171875 631.03125 L 699.585938 635.027344 L 696.84375 640.65625 L 694.332031 647.542969 L 691.3125 655.097656 L 687.390625 662.707031 L 683.574219 669.671875 L 681.214844 675.269531 L 681.039062 679.078125 L 681.289062 681.863281 L 679.582031 684.703125 L 674.390625 688.378906 L 667.609375 692.519531 L 661.984375 696.46875 L 659.464844 699.765625 L 658.78125 702.679688 L 657.855469 705.671875 L 655.152344 709.203125 L 651.253906 713.742188 L 647.285156 719.757812 L 644.152344 727.417969 L 641.902344 735.746094 L 640.367188 743.453125 L 639.335938 749.582031 L 638.429688 754.394531 L 637.222656 758.480469 L 635.472656 762.308594 L 633.632812 765.890625 L 632.339844 769.125 L 631.886719 772.042969 L 631.253906 775.191406 L 629.070312 779.265625 L 624.433594 784.746094 L 618.253906 791.339844 L 611.902344 798.5625 L 606.417969 805.917969 L 601.550781 812.90625 L 596.722656 819.015625 L 591.527344 823.929688 L 586.289062 828.046875 L 581.515625 831.964844 L 577.585938 836.128906 L 574.417969 840.472656 L 571.804688 844.785156 L 569.496094 848.964844 L 567.046875 853.3125 L 563.960938 858.242188 L 559.972656 863.984375 L 555.710938 870.125 L 552.039062 876.066406 L 549.585938 881.359375 L 548.042969 886.085938 L 546.878906 890.480469 L 545.648438 894.753906 L 544.308594 899.0625 L 542.914062 903.558594 L 541.523438 908.390625 L 540.175781 913.613281 L 538.855469 918.898438 L 537.539062 923.828125 L 536.207031 928.113281 L 534.859375 932.027344 L 533.507812 935.964844 L 532.15625 940.226562 L 530.808594 944.683594 L 529.46875 949.113281 L 528.136719 953.328125 L 526.804688 957.339844 L 525.464844 961.191406 L 524.113281 964.9375 L 522.761719 968.601562 L 521.414062 972.199219 L 520.078125 975.746094 L 518.75 979.257812 L 517.417969 982.746094 L 516.066406 986.203125 L 514.707031 989.554688 L 513.359375 992.707031 L 512.027344 995.617188 L 510.699219 998.464844 L 509.367188 1001.476562 L 508.015625 1004.804688 L 506.65625 1008.253906 L 505.308594 1011.558594 L 503.972656 1014.515625 L 502.648438 1017.210938 L 501.3125 1019.804688 L 499.964844 1022.464844 L 498.605469 1025.347656 L 497.253906 1028.613281 L 495.921875 1032.4375 L 494.597656 1037.027344 L 493.261719 1042.597656 L 491.910156 1049.222656 L 490.550781 1056.359375 L 489.203125 1063.332031 L 487.871094 1069.558594 L 486.546875 1074.882812 L 485.214844 1079.246094 L 483.859375 1082.664062 L 482.496094 1085.429688 L 481.144531 1087.910156 L 479.820312 1090.445312 L 478.503906 1093.246094 L 477.167969 1096.503906 L 475.800781 1100.695312 L 474.425781 1107.449219 L 473.078125 1118.671875 L 471.777344 1135.3125 L 470.484375 1154.4375 L 469.148438 1172.160156 L 467.738281 1185.460938 L 466.3125 1194.878906 L 464.960938 1201.820312 L 463.730469 1207.546875 L 462.527344 1212.691406 L 461.230469 1217.734375 L 459.75 1223.09375 L 458.179688 1228.953125 L 456.648438 1235.429688 L 455.292969 1242.648438 L 454.417969 1250.539062 L 454.980469 1258.273438 L 458.121094 1264.835938 L 464.359375 1269.523438 L 471.78125 1272.898438 L 477.867188 1275.839844 L 480.800781 1279.144531 L 481.59375 1283.355469 L 481.964844 1288.929688 L 483.273438 1296.132812 L 485.433594 1304.429688 L 487.992188 1313.074219 L 490.824219 1321.394531 L 495.089844 1328.949219 L 502.273438 1335.359375 L 513.3125 1340.371094 L 526.957031 1344.214844 L 541.410156 1347.246094 L 555.324219 1349.683594 L 569.109375 1351.15625 L 583.632812 1351.15625 L 599.328125 1349.378906 L 614.929688 1346.296875 L 628.757812 1342.582031 L 639.535156 1338.816406 L 647.652344 1335.207031 L 653.90625 1331.875 L 659.066406 1328.917969 L 663.757812 1326.347656 L 668.582031 1324.164062 L 674.171875 1322.300781 L 681.351562 1320.425781 L 690.976562 1318.140625 L 703.304688 1315.164062 L 716.160156 1311.636719 L 726.765625 1307.808594 L 733.203125 1303.878906 L 737 1299.804688 L 740.542969 1295.480469 L 745.804688 1290.859375 L 753.0625 1286.101562 L 762.171875 1281.425781 L 772.621094 1276.996094 L 782.40625 1272.851562 L 789.167969 1268.972656 L 791.433594 1265.363281 L 791.375 1262.039062 L 792.0625 1259.039062 L 795.871094 1256.316406 L 802.371094 1253.566406 L 810.4375 1250.410156 L 818.949219 1246.515625 L 826.84375 1241.773438 L 833.058594 1236.128906 L 837.050781 1229.648438 L 840.308594 1222.863281 L 844.824219 1216.4375 L 851.976562 1210.90625 L 860.628906 1206.324219 L 869.019531 1202.625 L 875.757812 1199.683594 L 880.917969 1197.148438 L 884.953125 1194.617188 L 888.300781 1191.675781 L 891.394531 1188.03125 L 894.585938 1183.859375 L 898.214844 1179.4375 L 902.417969 1175.027344 L 906.519531 1170.804688 L 909.640625 1166.910156 L 911.269531 1163.394531 L 912.414062 1159.882812 L 914.445312 1155.898438 L 918.292969 1151.128906 L 923.082031 1145.890625 L 927.496094 1140.664062 L 930.570312 1135.859375 L 932.757812 1131.636719 L 934.867188 1128.085938 L 937.421875 1125.167969 L 939.800781 1122.335938 L 941.082031 1118.90625 L 940.714844 1114.359375 L 939.570312 1108.777344 L 938.878906 1102.40625 L 939.523438 1095.554688 L 941.03125 1088.792969 L 942.582031 1082.773438 L 943.574219 1077.933594 L 944.265625 1073.886719 L 945.136719 1070.050781 L 946.527344 1065.980469 L 948.210938 1061.863281 L 949.835938 1058.03125 L 951.058594 1054.734375 L 951.578125 1051.878906 L 951.105469 1049.296875 L 949.605469 1046.8125 L 948.023438 1044.265625 L 947.554688 1041.5 L 949.027344 1038.398438 L 951.746094 1035.019531 L 954.65625 1031.480469 L 956.953125 1027.828125 L 958.90625 1023.878906 L 961.054688 1019.382812 L 963.632812 1014.214844 L 965.707031 1008.710938 L 966.035156 1003.324219 L 964.007812 998.449219 L 961.527344 994.234375 L 961.117188 990.761719 L 964.394531 988.019531 L 969.292969 985.605469 L 972.851562 983.015625 L 972.898438 979.878906 L 970.472656 976.347656 L 967.414062 972.695312 L 965.25 969.050781 L 964.242188 964.902344 L 964.34375 959.578125 L 965.398438 952.792969 L 966.804688 945.738281 L 967.875 939.972656 L 968.121094 936.53125 L 967.917969 934.289062 L 967.855469 931.589844 L 968.523438 926.773438 L 970.308594 918.75 L 972.800781 908.667969 L 975.398438 898.234375 L 977.519531 888.945312 L 978.707031 881.453125 L 978.546875 876.183594 L 976.953125 873.25 L 975.214844 871.5 L 974.949219 869.460938 L 977.152344 865.925781 L 980.246094 860.742188 L 982.03125 854.03125 L 981.027344 846.039062 L 978.632812 837.570312 L 976.980469 829.570312 L 977.578125 822.742188 L 979.433594 816.855469 L 980.949219 811.4375 L 980.941406 806.050781 L 979.914062 800.390625 L 978.785156 794.183594 L 978.261719 787.335938 L 978.140625 780.433594 L 977.992188 774.253906 L 977.464844 769.28125 L 976.539062 764.890625 L 975.265625 760.171875 L 973.730469 754.496094 L 972.152344 748.316406 L 970.78125 742.347656 L 969.746094 737.136719 L 968.683594 732.507812 L 967.117188 728.089844 L 964.761719 723.597656 L 962.144531 718.988281 L 959.992188 714.304688 L 958.785156 709.625 L 957.984375 705.253906 L 956.808594 701.535156 L 954.671875 698.597656 L 951.792969 695.632812 L 948.605469 691.617188 L 945.488281 685.898438 L 942.675781 679.332031 L 940.367188 673.152344 L 938.609375 668.285156 L 936.867188 664.445312 L 934.472656 661.035156 L 930.941406 657.546875 L 926.585938 653.761719 L 921.914062 649.558594 L 917.390625 644.878906 L 913.347656 639.941406 L 910.066406 635.054688 L 907.289062 630.402344 L 902.566406 625.730469 L 892.90625 620.671875 L 877.117188 615.039062 L 861.242188 609.339844 L 853.117188 604.257812 L 856.136719 600.296875 L 855.886719 597.25 L 833.507812 594.726562 L 770.136719 592.351562 L 764.632812 592.988281 "/>
</g>
</svg>
