<?xml version="1.0" encoding="UTF-8"?>
<svg xmlns="http://www.w3.org/2000/svg" xmlns:xlink="http://www.w3.org/1999/xlink" width="1428pt" height="1605pt" viewBox="0 0 1428 1605" version="1.1">
<g id="surface179">
<rect x="0" y="0" width="1428" height="1605" style="fill:rgb(100%,100%,100%);fill-opacity:1;stroke:none;"/>
<path style="fill:none;stroke-width:0.75;stroke-linecap:round;stroke-linejoin:round;stroke:rgb(0%,0%,0%);stroke-opacity:1;stroke-miterlimit:10;" d="M 273.472656 523.386719 L 270.394531 526.894531 L 266.976562 530.953125 L 263.296875 535.332031 L 259.425781 539.789062 L 255.449219 544.109375 L 251.429688 548.140625 L 247.445312 551.761719 L 243.566406 554.84375 L 239.867188 557.261719 L 236.371094 558.984375 L 232.910156 560.371094 L 229.265625 561.867188 L 225.222656 563.925781 L 220.648438 566.894531 L 215.742188 570.660156 L 210.792969 575.007812 L 206.085938 579.714844 L 201.90625 584.570312 L 198.414062 589.378906 L 195.257812 594.058594 L 191.957031 598.558594 L 188.03125 602.828125 L 183.152344 606.859375 L 177.570312 610.859375 L 171.679688 615.078125 L 165.878906 619.769531 L 160.574219 625.1875 L 156.066406 631.453125 L 152.324219 638.15625 L 149.230469 644.757812 L 146.664062 650.722656 L 144.496094 655.628906 L 142.566406 659.554688 L 140.714844 662.707031 L 138.773438 665.28125 L 136.582031 667.476562 L 134.042969 669.515625 L 131.300781 671.65625 L 128.578125 674.179688 L 126.089844 677.359375 L 123.992188 681.367188 L 122.179688 685.933594 L 120.492188 690.679688 L 118.769531 695.226562 L 116.839844 699.203125 L 114.605469 702.351562 L 112.222656 704.953125 L 109.914062 707.398438 L 107.890625 710.09375 L 106.328125 713.347656 L 105.210938 717.121094 L 104.476562 721.273438 L 104.058594 725.683594 L 103.894531 730.210938 L 103.898438 734.792969 L 103.886719 739.644531 L 103.644531 745.039062 L 102.960938 751.257812 L 101.699219 758.445312 L 99.964844 766.265625 L 97.9375 774.238281 L 95.796875 781.898438 L 93.71875 788.773438 L 91.839844 794.519531 L 90.109375 799.289062 L 88.429688 803.375 L 86.703125 807.058594 L 84.878906 810.59375 L 83.066406 814.113281 L 81.425781 817.714844 L 80.105469 821.5 L 79.265625 825.566406 L 78.960938 829.96875 L 78.867188 834.558594 L 78.546875 839.15625 L 77.582031 843.570312 L 75.695312 847.660156 L 73.234375 851.492188 L 70.691406 855.179688 L 68.570312 858.839844 L 67.367188 862.585938 L 67.371094 866.5 L 68.046875 870.550781 L 68.648438 874.664062 L 68.429688 878.769531 L 66.882812 882.832031 L 64.457031 886.902344 L 61.835938 891.074219 L 59.707031 895.433594 L 58.753906 900.0625 L 59.441406 905.03125 L 61.34375 910.335938 L 63.8125 915.949219 L 66.1875 921.847656 L 67.941406 927.972656 L 68.976562 934.117188 L 69.316406 940.042969 L 68.988281 945.511719 L 68.003906 950.277344 L 66.496094 954.246094 L 64.984375 957.867188 L 64.09375 961.738281 L 64.449219 966.457031 L 66.46875 972.449219 L 69.734375 979.476562 L 73.617188 987.125 L 77.496094 994.988281 L 80.734375 1002.660156 L 82.878906 1009.804688 L 84.144531 1016.363281 L 84.917969 1022.359375 L 85.582031 1027.8125 L 86.527344 1032.738281 L 88.023438 1037.164062 L 89.90625 1041.171875 L 91.910156 1044.84375 L 93.757812 1048.261719 L 95.242188 1051.515625 L 96.429688 1054.714844 L 97.457031 1057.960938 L 98.457031 1061.367188 L 99.5625 1065.042969 L 100.890625 1069.035156 L 102.503906 1073.1875 L 104.453125 1077.289062 L 106.785156 1081.128906 L 109.539062 1084.601562 L 112.699219 1088.066406 L 116.234375 1091.980469 L 120.128906 1096.816406 L 124.347656 1103.039062 L 128.820312 1110.867188 L 133.28125 1119.539062 L 137.40625 1128.058594 L 140.882812 1135.410156 L 143.5 1140.871094 L 145.507812 1144.785156 L 147.246094 1147.777344 L 149.074219 1150.464844 L 151.34375 1153.46875 L 154.277344 1157.257812 L 157.605469 1161.667969 L 160.929688 1166.382812 L 163.855469 1171.09375 L 166.128906 1175.5625 L 168.066406 1179.878906 L 170.128906 1184.21875 L 172.769531 1188.757812 L 176.453125 1193.664062 L 181.445312 1199.058594 L 187.261719 1204.828125 L 193.226562 1210.796875 L 198.660156 1216.796875 L 203.066406 1222.671875 L 206.679688 1228.316406 L 209.910156 1233.648438 L 213.164062 1238.585938 L 216.855469 1243.035156 L 221.167969 1246.945312 L 225.402344 1250.398438 L 228.640625 1253.492188 L 229.953125 1256.347656 L 228.945312 1259.0625 L 227.308594 1261.726562 L 227.257812 1264.417969 L 231.011719 1267.226562 L 240.78125 1270.230469 L 257.914062 1273.402344 L 280.253906 1276.285156 L 304.769531 1278.304688 L 328.433594 1278.894531 L 348.75 1277.660156 L 365.367188 1274.882812 L 378.464844 1271.035156 L 388.222656 1266.578125 L 394.816406 1261.976562 L 398.59375 1257.65625 L 400.546875 1253.867188 L 401.832031 1250.835938 L 403.601562 1248.773438 L 406.757812 1247.882812 L 411.15625 1248.269531 L 416.398438 1250.019531 L 422.089844 1253.222656 L 427.828125 1257.964844 L 433.324219 1264.140625 L 438.742188 1270.878906 L 444.355469 1277.113281 L 450.4375 1281.785156 L 457.128906 1284.183594 L 464.0625 1285.042969 L 470.730469 1285.453125 L 476.632812 1286.503906 L 481.265625 1289.285156 L 484.296875 1294.5 L 486.046875 1301.339844 L 487.011719 1308.609375 L 487.691406 1315.109375 L 488.515625 1319.945312 L 489.710938 1323.40625 L 491.445312 1326.085938 L 493.878906 1328.574219 L 497.1875 1331.46875 L 501.515625 1335.183594 L 506.925781 1339.46875 L 513.476562 1343.898438 L 521.210938 1348.050781 L 530.21875 1351.542969 L 540.746094 1354.15625 L 553.074219 1355.71875 L 567.488281 1356.058594 L 584.273438 1354.996094 L 603.363281 1352.496094 L 623.277344 1349.015625 L 642.191406 1345.152344 L 658.277344 1341.5 L 669.714844 1338.652344 L 675.328125 1337.015625 L 676.585938 1336.234375 L 675.613281 1335.769531 L 674.542969 1335.074219 L 675.125 1333.714844 L 677.648438 1331.707031 L 682.042969 1329.160156 L 688.222656 1326.195312 L 696.113281 1322.929688 L 705.484375 1319.460938 L 715.5 1315.8125 L 725.175781 1311.992188 L 733.523438 1308 L 739.878906 1303.839844 L 744.851562 1299.546875 L 749.375 1295.136719 L 754.378906 1290.644531 L 760.792969 1286.097656 L 769.183594 1281.535156 L 778.621094 1277.0625 L 787.804688 1272.800781 L 795.4375 1268.871094 L 800.613281 1265.351562 L 803.988281 1262.152344 L 806.597656 1259.148438 L 809.492188 1256.214844 L 813.710938 1253.214844 L 819.929688 1250.039062 L 827.359375 1246.597656 L 834.835938 1242.820312 L 841.203125 1238.632812 L 845.609375 1234.015625 L 848.441406 1229.167969 L 850.394531 1224.351562 L 852.171875 1219.824219 L 854.464844 1215.84375 L 857.800781 1212.601562 L 862.042969 1210.019531 L 866.875 1207.964844 L 871.984375 1206.289062 L 877.074219 1204.859375 L 881.914062 1203.535156 L 886.28125 1202.1875 L 889.957031 1200.683594 L 892.71875 1198.882812 L 894.503906 1196.660156 L 895.820312 1193.941406 L 897.339844 1190.640625 L 899.722656 1186.691406 L 903.433594 1182.074219 L 908.132812 1177.015625 L 913.273438 1171.800781 L 918.308594 1166.714844 L 922.695312 1162.042969 L 926.058594 1157.964844 L 928.691406 1154.25 L 931.054688 1150.566406 L 933.617188 1146.570312 L 936.699219 1142.023438 L 940.054688 1137.054688 L 943.300781 1131.871094 L 946.050781 1126.699219 L 947.921875 1121.75 L 948.664062 1117.171875 L 948.535156 1112.863281 L 947.941406 1108.644531 L 947.269531 1104.34375 L 946.855469 1099.828125 L 946.75 1095.175781 L 946.9375 1090.496094 L 947.402344 1085.910156 L 948.132812 1081.539062 L 949.101562 1077.457031 L 950.226562 1073.601562 L 951.414062 1069.867188 L 952.570312 1066.148438 L 953.613281 1062.382812 L 954.480469 1058.667969 L 955.113281 1055.144531 L 955.46875 1051.949219 L 955.484375 1049.222656 L 955.203125 1046.964844 L 955.058594 1044.621094 L 955.570312 1041.5 L 957.257812 1036.90625 L 960.4375 1030.414062 L 964.558594 1022.675781 L 968.855469 1014.617188 L 972.570312 1007.15625 L 974.933594 1001.222656 L 975.457031 997.390625 L 974.703125 994.867188 L 973.507812 992.511719 L 972.710938 989.183594 L 972.933594 984.046875 L 973.960938 977.480469 L 975.367188 970.160156 L 976.722656 962.769531 L 977.597656 955.976562 L 977.707031 950.269531 L 977.300781 945.332031 L 976.769531 940.644531 L 976.5 935.695312 L 976.800781 930.066406 L 977.652344 923.71875 L 978.953125 916.714844 L 980.59375 909.121094 L 982.480469 900.992188 L 984.484375 892.4375 L 986.410156 883.753906 L 988.039062 875.289062 L 989.15625 867.378906 L 989.542969 860.375 L 989.078125 854.480469 L 988.007812 849.375 L 986.667969 844.601562 L 985.402344 839.703125 L 984.496094 834.332031 L 984.019531 828.585938 L 983.988281 822.671875 L 984.421875 816.796875 L 985.335938 811.171875 L 986.675781 805.929688 L 988.105469 800.902344 L 989.214844 795.855469 L 989.601562 790.546875 L 988.992188 784.816406 L 987.660156 778.839844 L 986.015625 772.859375 L 984.46875 767.121094 L 983.429688 761.882812 L 983.171875 757.324219 L 983.378906 753.359375 L 983.605469 749.847656 L 983.402344 746.632812 L 982.441406 743.589844 L 980.902344 740.625 L 979.09375 737.667969 L 977.316406 734.644531 L 975.875 731.480469 L 974.949219 728.085938 L 974.203125 724.300781 L 973.179688 719.945312 L 971.417969 714.84375 L 968.625 708.90625 L 965.144531 702.417969 L 961.496094 695.757812 L 958.195312 689.304688 L 955.753906 683.4375 L 954.484375 678.417969 L 953.875 674.042969 L 953.203125 669.992188 L 951.757812 665.945312 L 949.046875 661.667969 L 945.472656 657.265625 L 941.65625 652.921875 L 938.230469 648.832031 L 935.824219 645.175781 L 934.71875 642.050781 L 933.859375 639.152344 L 931.835938 636.082031 L 927.257812 632.4375 L 919.25 627.941406 L 909.082031 622.8125 L 898.5625 617.394531 L 889.488281 612.03125 L 883.667969 607.058594 L 881.929688 602.753906 L 881.226562 599.089844 L 877.539062 595.96875 L 866.847656 593.304688 L 846.554688 591.039062 L 819.765625 589.269531 L 791.007812 588.140625 L 764.816406 587.796875 L 745.71875 588.371094 L 736.828125 589.933594 L 735.621094 592.261719 L 738.15625 595.046875 L 740.492188 597.996094 L 739.511719 600.910156 L 735.363281 604.042969 L 729.027344 607.746094 L 721.476562 612.378906 L 713.691406 618.289062 L 706.472656 625.65625 L 699.953125 633.910156 L 694.105469 642.300781 L 688.894531 650.082031 L 684.273438 656.671875 L 680.179688 662.171875 L 676.527344 666.859375 L 673.246094 671.003906 L 670.246094 674.882812 L 667.449219 678.726562 L 664.726562 682.625 L 661.933594 686.628906 L 658.9375 690.785156 L 655.660156 695.125 L 652.25 699.601562 L 648.921875 704.148438 L 645.882812 708.703125 L 643.347656 713.199219 L 641.445312 717.597656 L 639.972656 721.953125 L 638.648438 726.34375 L 637.195312 730.863281 L 635.40625 735.550781 L 633.375 740.351562 L 631.28125 745.160156 L 629.296875 749.878906 L 627.597656 754.417969 L 626.289062 758.714844 L 625.207031 762.84375 L 624.117188 766.917969 L 622.785156 771.050781 L 620.976562 775.359375 L 618.519531 779.921875 L 615.480469 784.6875 L 611.972656 789.566406 L 608.121094 794.472656 L 604.039062 799.324219 L 599.804688 804.058594 L 595.476562 808.625 L 591.128906 812.960938 L 586.824219 817.011719 L 582.640625 820.757812 L 578.714844 824.332031 L 575.1875 827.902344 L 572.207031 831.640625 L 569.863281 835.621094 L 568.015625 839.550781 L 566.46875 843.042969 L 565.027344 845.703125 L 563.496094 847.148438 L 561.730469 847.097656 L 559.78125 845.71875 L 557.738281 843.285156 L 555.703125 840.070312 L 553.753906 836.339844 L 551.867188 832.292969 L 550.011719 828.132812 L 548.140625 824.039062 L 546.222656 820.210938 L 544.207031 816.777344 L 542.007812 813.621094 L 539.539062 810.566406 L 536.707031 807.429688 L 533.472656 804.011719 L 530.03125 800.007812 L 526.617188 795.085938 L 523.484375 788.914062 L 520.867188 781.167969 L 518.925781 771.726562 L 517.464844 761.339844 L 516.191406 750.957031 L 514.824219 741.546875 L 513.144531 733.832031 L 511.214844 727.652344 L 509.160156 722.601562 L 507.113281 718.289062 L 505.199219 714.3125 L 503.511719 710.3125 L 501.988281 706.050781 L 500.527344 701.324219 L 499.027344 695.925781 L 497.398438 689.761719 L 495.609375 683.144531 L 493.632812 676.507812 L 491.445312 670.269531 L 489.027344 664.859375 L 486.351562 660.550781 L 483.367188 657.019531 L 480.035156 653.796875 L 476.292969 650.40625 L 472.171875 646.46875 L 467.960938 641.992188 L 464.023438 637.0625 L 460.722656 631.785156 L 458.425781 626.25 L 457.328125 620.582031 L 456.949219 615.003906 L 456.640625 609.769531 L 455.753906 605.136719 L 453.792969 601.253906 L 450.839844 597.898438 L 447.125 594.742188 L 442.878906 591.464844 L 438.339844 587.734375 L 433.730469 583.335938 L 429.289062 578.460938 L 425.234375 573.398438 L 421.804688 568.449219 L 419.035156 563.84375 L 416.230469 559.558594 L 412.507812 555.519531 L 406.976562 551.632812 L 398.75 547.828125 L 387.414062 544.046875 L 374.433594 540.375 L 361.730469 536.921875 L 351.242188 533.808594 L 344.335938 531.132812 L 340.144531 528.914062 L 337.242188 527.171875 L 334.207031 525.910156 L 329.613281 525.140625 L 322.507812 524.863281 L 313.859375 525.058594 L 305.097656 525.683594 L 297.667969 526.707031 L 292.644531 528.050781 L 289.675781 529.457031 L 288.039062 530.625 L 287.027344 531.257812 L 285.921875 531.050781 L 284.171875 529.835938 L 281.851562 527.929688 L 279.199219 525.785156 L 276.460938 523.851562 L 273.871094 522.574219 L 273.472656 523.386719 "/>
<path style="fill:none;stroke-width:0.75;stroke-linecap:round;stroke-linejoin:round;stroke:rgb(0%,0%,0%);stroke-opacity:1;stroke-miterlimit:10;" d="M 273.566406 524.667969 L 270.328125 527.644531 L 266.863281 529.339844 L 263.210938 532.285156 L 259.410156 538.183594 L 255.511719 545.402344 L 251.578125 551.484375 L 247.652344 554.613281 L 243.765625 555.539062 L 239.9375 555.660156 L 236.183594 556.382812 L 232.503906 558.695312 L 228.78125 562.023438 L 224.882812 565.378906 L 220.707031 568.089844 L 216.265625 570.6875 L 211.625 574.007812 L 206.863281 578.632812 L 202.183594 584.164062 L 197.808594 589.945312 L 193.972656 595.320312 L 190.742188 599.792969 L 187.570312 603.488281 L 183.75 606.6875 L 178.773438 609.746094 L 172.941406 613.339844 L 166.757812 618.210938 L 160.707031 624.816406 L 155.222656 632.421875 L 150.722656 640.003906 L 147.617188 646.53125 L 146.089844 651.289062 L 145.34375 654.824219 L 144.339844 658.007812 L 142.292969 661.480469 L 139.410156 665.003906 L 136.148438 668.121094 L 132.917969 670.523438 L 129.960938 672.527344 L 127.46875 674.582031 L 125.636719 677.152344 L 124.515625 680.589844 L 123.566406 684.84375 L 122.101562 689.753906 L 119.652344 695.050781 L 116.589844 700.03125 L 113.503906 703.871094 L 110.894531 706.078125 L 108.859375 707.414062 L 107.417969 708.960938 L 106.578125 711.792969 L 106.261719 716.570312 L 106.0625 722.25 L 105.472656 727.367188 L 104.199219 730.941406 L 102.75 733.960938 L 101.835938 737.902344 L 101.929688 743.855469 L 102.492188 751.347656 L 102.75 759.527344 L 101.914062 767.535156 L 99.507812 774.730469 L 96.207031 781.304688 L 92.992188 787.65625 L 90.625 794.015625 L 88.992188 799.921875 L 87.765625 804.75 L 86.65625 808.109375 L 85.496094 810.574219 L 84.15625 812.953125 L 82.496094 816.058594 L 80.515625 820.453125 L 78.722656 825.667969 L 77.742188 830.992188 L 77.921875 835.84375 L 78.445312 840.132812 L 78.203125 843.910156 L 76.421875 847.269531 L 73.621094 850.503906 L 70.65625 853.953125 L 68.375 857.957031 L 67.394531 862.679688 L 67.367188 867.59375 L 67.703125 871.992188 L 67.886719 875.414062 L 67.660156 878.398438 L 66.835938 881.734375 L 65.3125 885.996094 L 63.359375 890.933594 L 61.320312 896.085938 L 59.550781 900.996094 L 58.453125 905.390625 L 58.640625 909.769531 L 60.773438 914.804688 L 65.039062 920.96875 L 69.71875 927.835938 L 72.613281 934.769531 L 72.167969 941.195312 L 69.398438 946.804688 L 65.972656 951.347656 L 63.539062 954.589844 L 63.308594 956.632812 L 64.664062 959.035156 L 66.527344 963.699219 L 68.117188 971.8125 L 69.800781 981.679688 L 72.234375 990.882812 L 75.820312 997.628906 L 79.902344 1002.65625 L 83.574219 1007.324219 L 85.917969 1013 L 86.390625 1020.503906 L 85.894531 1028.523438 L 85.695312 1035.214844 L 86.75 1039.277344 L 88.824219 1041.648438 L 91.363281 1043.816406 L 93.882812 1046.933594 L 96.082031 1050.808594 L 97.726562 1054.898438 L 98.574219 1058.671875 L 98.585938 1061.804688 L 98.519531 1064.800781 L 99.332031 1068.382812 L 101.671875 1072.984375 L 104.902344 1077.914062 L 108.070312 1082.199219 L 110.511719 1085.210938 L 112.652344 1087.699219 L 115.195312 1090.753906 L 118.84375 1095.476562 L 123.984375 1102.574219 L 129.71875 1111.234375 L 134.816406 1120.261719 L 138.371094 1128.597656 L 140.726562 1135.734375 L 142.542969 1141.289062 L 144.382812 1145.085938 L 146.457031 1147.742188 L 148.875 1150.082031 L 151.757812 1152.917969 L 155.109375 1156.847656 L 158.515625 1161.5625 L 161.445312 1166.527344 L 163.5625 1171.3125 L 165.296875 1175.863281 L 167.269531 1180.222656 L 169.976562 1184.472656 L 173.410156 1188.792969 L 177.4375 1193.398438 L 181.921875 1198.503906 L 186.75 1204.246094 L 191.863281 1210.429688 L 197.226562 1216.777344 L 202.722656 1223.027344 L 207.898438 1228.929688 L 212.210938 1234.242188 L 215.316406 1238.8125 L 217.621094 1242.804688 L 219.710938 1246.464844 L 222.1875 1250.050781 L 225.355469 1253.6875 L 228.394531 1257.058594 L 230.199219 1259.726562 L 230.296875 1261.492188 L 230.699219 1263.113281 L 234.066406 1265.59375 L 242.542969 1269.5625 L 256.300781 1274.144531 L 274.996094 1278.105469 L 298.308594 1280.199219 L 325.148438 1279.574219 L 351.449219 1276.929688 L 372.386719 1273.367188 L 384.53125 1269.761719 L 389.972656 1266.171875 L 392.207031 1262.449219 L 394.164062 1258.535156 L 396.601562 1254.730469 L 399.742188 1251.4375 L 403.796875 1249.058594 L 408.835938 1247.929688 L 414.351562 1248.164062 L 419.6875 1249.808594 L 424.296875 1252.542969 L 428.066406 1254.542969 L 430.976562 1253.613281 L 433.0625 1248.308594 L 434.554688 1240.191406 L 435.722656 1231.570312 L 436.835938 1224.761719 L 438.117188 1221.363281 L 439.515625 1220.144531 L 440.9375 1219.164062 L 442.296875 1216.925781 L 443.617188 1213.742188 L 444.925781 1210.375 L 446.257812 1207.410156 L 447.605469 1204.746094 L 448.960938 1202.089844 L 450.3125 1199.160156 L 451.652344 1195.707031 L 452.988281 1191.648438 L 454.320312 1186.925781 L 455.664062 1181.628906 L 457.007812 1176.355469 L 458.355469 1171.847656 L 459.699219 1168.582031 L 461.042969 1165.929688 L 462.382812 1163.019531 L 463.722656 1158.953125 L 465.0625 1153.167969 L 466.402344 1146.351562 L 467.746094 1139.519531 L 469.089844 1133.503906 L 470.429688 1128.433594 L 471.773438 1124.277344 L 473.117188 1120.914062 L 474.460938 1117.921875 L 475.800781 1114.800781 L 477.144531 1111.054688 L 478.484375 1106.386719 L 479.824219 1101.328125 L 481.164062 1096.617188 L 482.507812 1092.777344 L 483.851562 1089.464844 L 485.195312 1086.132812 L 486.539062 1082.359375 L 487.878906 1078.269531 L 489.222656 1074.113281 L 490.5625 1070.148438 L 491.902344 1066.492188 L 493.242188 1062.75 L 494.585938 1058.378906 L 495.925781 1053.035156 L 497.269531 1047.175781 L 498.613281 1041.433594 L 499.957031 1036.320312 L 501.300781 1031.800781 L 502.640625 1027.710938 L 503.980469 1023.878906 L 505.324219 1020.144531 L 506.664062 1016.414062 L 508.003906 1012.582031 L 509.347656 1008.621094 L 510.691406 1004.75 L 512.035156 1001.234375 L 513.378906 998.253906 L 514.71875 995.570312 L 516.0625 992.839844 L 517.402344 989.730469 L 518.742188 986.003906 L 520.082031 981.859375 L 521.421875 977.605469 L 522.765625 973.480469 L 524.113281 969.476562 L 525.457031 965.527344 L 526.796875 961.566406 L 528.136719 957.566406 L 529.476562 953.519531 L 530.820312 949.410156 L 532.167969 945.316406 L 533.515625 941.691406 L 534.851562 939.097656 L 536.175781 937.632812 L 537.5 935.640625 L 538.847656 931.019531 L 540.222656 922.324219 L 541.609375 910.789062 L 542.964844 898.308594 L 544.261719 886.777344 L 545.492188 877.683594 L 546.75 870.859375 L 548.15625 865.726562 L 549.777344 861.691406 L 551.414062 858.078125 L 552.824219 854.203125 L 553.765625 849.546875 L 554.097656 844.28125 L 553.707031 838.738281 L 552.472656 833.261719 L 550.386719 828.152344 L 547.9375 823.585938 L 545.714844 819.695312 L 544.09375 816.519531 L 542.570312 813.730469 L 540.410156 810.886719 L 537.121094 807.628906 L 533.125 803.851562 L 529.066406 799.515625 L 525.605469 794.585938 L 523.195312 788.929688 L 521.484375 782.011719 L 519.933594 773.207031 L 518.125 762.292969 L 516.152344 750.714844 L 514.246094 740.316406 L 512.5625 732.496094 L 511 726.863281 L 509.40625 722.574219 L 507.617188 718.789062 L 505.542969 714.820312 L 503.40625 710.5625 L 501.5 706.070312 L 500.027344 701.339844 L 498.804688 696.148438 L 497.558594 690.214844 L 496.046875 683.433594 L 494.183594 676.34375 L 491.917969 669.667969 L 489.195312 664.117188 L 486.015625 660.144531 L 482.570312 657.148438 L 479.101562 654.277344 L 475.777344 650.824219 L 472.46875 646.738281 L 468.976562 642.105469 L 465.210938 637.039062 L 461.535156 631.65625 L 458.421875 626.097656 L 456.355469 620.496094 L 455.585938 615 L 455.523438 609.8125 L 455.347656 605.152344 L 454.34375 601.164062 L 452.1875 597.683594 L 448.660156 594.464844 L 443.714844 591.269531 L 438.011719 587.839844 L 432.394531 583.914062 L 427.707031 579.238281 L 424.515625 573.730469 L 422.265625 568.019531 L 420.144531 562.921875 L 417.332031 558.984375 L 413.054688 555.726562 L 406.554688 552.386719 L 397.378906 548.429688 L 386.316406 544.101562 L 374.472656 539.871094 L 362.949219 536.195312 L 352.761719 533.402344 L 344.578125 531.285156 L 338.992188 529.503906 L 336.089844 527.808594 L 333.96875 526.28125 L 330.238281 525.097656 L 323.214844 524.410156 L 314.078125 524.320312 L 304.722656 524.898438 L 297.042969 526.230469 L 292.40625 528.253906 L 290.054688 530.34375 L 288.710938 531.734375 L 287.316406 531.847656 L 285.660156 530.894531 L 283.75 529.269531 L 281.601562 527.351562 L 279.230469 525.460938 L 276.660156 523.886719 L 273.910156 522.933594 L 273.566406 524.667969 "/>
<path style="fill:none;stroke-width:0.75;stroke-linecap:round;stroke-linejoin:round;stroke:rgb(0%,0%,0%);stroke-opacity:1;stroke-miterlimit:10;" d="M 754.191406 585.136719 L 752.335938 587.191406 L 747.710938 589.324219 L 743.332031 591.53125 L 741.394531 593.792969 L 740.890625 596.050781 L 740.011719 598.21875 L 737.328125 600.335938 L 732.988281 602.933594 L 727.515625 606.652344 L 721.386719 611.953125 L 714.859375 618.589844 L 708.132812 626.128906 L 701.410156 634.132812 L 694.886719 642.179688 L 688.773438 649.867188 L 683.28125 656.792969 L 678.605469 662.652344 L 674.871094 667.515625 L 672.1875 671.550781 L 670.496094 674.96875 L 669.023438 678.207031 L 666.832031 681.753906 L 663.269531 685.96875 L 658.839844 690.65625 L 654.347656 695.503906 L 650.589844 700.183594 L 648.097656 704.480469 L 646.367188 708.589844 L 644.613281 712.816406 L 642.289062 717.375 L 639.757812 722.101562 L 637.601562 726.746094 L 636.214844 731.148438 L 635.230469 735.464844 L 634.082031 739.953125 L 632.351562 744.769531 L 630.191406 749.742188 L 627.902344 754.613281 L 625.78125 759.128906 L 624.070312 763.132812 L 622.789062 766.902344 L 621.898438 770.8125 L 621.21875 775.15625 L 620.027344 779.847656 L 617.472656 784.703125 L 613.035156 789.578125 L 607.589844 794.4375 L 602.355469 799.292969 L 598.246094 804.113281 L 594.921875 808.792969 L 591.75 813.191406 L 588.089844 817.171875 L 583.546875 820.683594 L 578.730469 823.988281 L 574.5 827.441406 L 571.496094 831.300781 L 569.5 835.496094 L 568.078125 839.863281 L 566.851562 844.285156 L 565.671875 848.796875 L 564.457031 853.484375 L 563.136719 858.410156 L 561.746094 863.5625 L 560.328125 868.914062 L 558.9375 874.441406 L 557.609375 880.066406 L 556.316406 885.542969 L 555.011719 890.578125 L 553.667969 894.996094 L 552.296875 899.105469 L 550.929688 903.339844 L 549.585938 907.996094 L 548.257812 912.835938 L 546.929688 917.484375 L 545.59375 921.640625 L 544.25 925.296875 L 542.902344 928.53125 L 541.554688 931.40625 L 540.207031 934.023438 L 538.867188 936.582031 L 537.527344 939.3125 L 536.1875 942.382812 L 534.851562 945.679688 L 533.507812 949.023438 L 532.167969 952.300781 L 530.824219 955.621094 L 529.476562 959.164062 L 528.132812 963.074219 L 526.789062 967.382812 L 525.449219 972.082031 L 524.109375 977.179688 L 522.769531 982.613281 L 521.433594 988.128906 L 520.089844 993.417969 L 518.746094 998.230469 L 517.398438 1002.550781 L 516.054688 1006.429688 L 514.710938 1009.941406 L 513.371094 1013.289062 L 512.035156 1016.6875 L 510.695312 1020.300781 L 509.355469 1023.992188 L 508.011719 1027.558594 L 506.667969 1030.792969 L 505.320312 1033.605469 L 503.976562 1036.328125 L 502.632812 1039.402344 L 501.292969 1043.167969 L 499.957031 1047.597656 L 498.617188 1052.558594 L 497.277344 1057.953125 L 495.933594 1063.800781 L 494.585938 1070.148438 L 493.242188 1076.976562 L 491.898438 1083.996094 L 490.558594 1090.855469 L 489.21875 1097.191406 L 487.878906 1102.742188 L 486.542969 1107.597656 L 485.199219 1111.945312 L 483.855469 1115.933594 L 482.507812 1119.636719 L 481.160156 1123.085938 L 479.820312 1126.34375 L 478.484375 1129.554688 L 477.144531 1132.871094 L 475.804688 1136.390625 L 474.460938 1139.9375 L 473.117188 1143.277344 L 471.773438 1146.175781 L 470.429688 1148.539062 L 469.089844 1150.859375 L 467.746094 1153.78125 L 466.398438 1157.652344 L 465.058594 1161.632812 L 463.722656 1164.609375 L 462.398438 1165.957031 L 461.066406 1167.09375 L 459.691406 1169.949219 L 458.273438 1176.203125 L 456.898438 1186.605469 L 455.664062 1201.660156 L 454.683594 1221.875 L 454.128906 1246.574219 L 454.464844 1270.3125 L 456.234375 1286.464844 L 459.765625 1290.628906 L 464.59375 1287.332031 L 470.042969 1283.328125 L 475.46875 1283.914062 L 480.332031 1288.546875 L 484.125 1295.242188 L 486.5 1302.269531 L 487.765625 1308.980469 L 488.378906 1315 L 488.816406 1319.941406 L 489.503906 1323.585938 L 490.738281 1326.363281 L 492.785156 1328.855469 L 495.945312 1331.578125 L 500.65625 1334.753906 L 507.410156 1338.539062 L 516.285156 1342.96875 L 525.78125 1347.582031 L 533.996094 1351.800781 L 539.964844 1355.082031 L 546.472656 1357.050781 L 557.253906 1357.375 L 576.03125 1355.710938 L 604.304688 1352.019531 L 634.660156 1347.398438 L 657.449219 1343.246094 L 665.976562 1340.609375 L 665.308594 1339.167969 L 663.46875 1338.269531 L 666.523438 1337.34375 L 672.8125 1336.226562 L 678.726562 1334.855469 L 681.59375 1333.171875 L 682.484375 1331.164062 L 683.40625 1328.832031 L 686.363281 1326.171875 L 692.84375 1323.175781 L 702.265625 1319.832031 L 713.53125 1316.117188 L 725.398438 1312.042969 L 736.054688 1307.773438 L 743.542969 1303.507812 L 746.796875 1299.378906 L 748.296875 1295.261719 L 751.425781 1290.960938 L 758.640625 1286.355469 L 768.773438 1281.597656 L 779.742188 1276.90625 L 789.460938 1272.503906 L 796.351562 1268.570312 L 800.804688 1265.117188 L 803.722656 1262.128906 L 806.03125 1259.507812 L 808.8125 1256.871094 L 813.179688 1253.777344 L 819.808594 1249.9375 L 827.632812 1245.703125 L 835.167969 1241.582031 L 841.203125 1237.929688 L 845.691406 1234.453125 L 848.882812 1230.707031 L 851.019531 1226.242188 L 852.46875 1220.855469 L 854.070312 1215.359375 L 856.773438 1210.804688 L 861.226562 1207.976562 L 866.800781 1206.585938 L 872.546875 1206.074219 L 877.703125 1205.878906 L 882.203125 1205.421875 L 886.167969 1204.117188 L 889.667969 1201.589844 L 892.625 1198.277344 L 894.929688 1194.835938 L 896.460938 1191.910156 L 897.351562 1189.824219 L 898.710938 1187.621094 L 901.894531 1184.027344 L 907.683594 1178.253906 L 914.546875 1171.476562 L 920.363281 1165.371094 L 923.632812 1161.140625 L 925.3125 1158.117188 L 926.953125 1155.175781 L 929.761719 1151.40625 L 933.476562 1146.835938 L 937.484375 1141.71875 L 941.160156 1136.304688 L 944.015625 1130.871094 L 946.050781 1125.773438 L 947.382812 1121.386719 L 948.125 1117.871094 L 948.351562 1114.53125 L 948.113281 1110.445312 L 947.523438 1105.027344 L 946.902344 1098.984375 L 946.613281 1093.339844 L 946.925781 1088.867188 L 947.660156 1085.296875 L 948.539062 1082.085938 L 949.273438 1078.707031 L 949.71875 1074.761719 L 950.273438 1070.417969 L 951.472656 1065.976562 L 953.589844 1061.726562 L 955.820312 1057.859375 L 957.109375 1054.5625 L 956.730469 1051.917969 L 955.34375 1049.644531 L 953.945312 1047.371094 L 953.40625 1044.726562 L 954.113281 1041.332031 L 956.324219 1036.816406 L 960.292969 1030.816406 L 965.894531 1023.214844 L 971.484375 1014.964844 L 975.019531 1007.277344 L 975.171875 1001.128906 L 973.375 996.558594 L 971.757812 993.359375 L 971.921875 991.164062 L 973.304688 988.90625 L 974.8125 985.351562 L 975.601562 979.617188 L 975.828125 972.195312 L 975.898438 963.945312 L 976.21875 955.714844 L 977.023438 948.273438 L 977.84375 942.121094 L 978.046875 937.667969 L 977.285156 934.929688 L 976.363281 932.296875 L 976.371094 927.746094 L 978.054688 919.894531 L 980.75 909.871094 L 983.441406 899.441406 L 985.339844 890.03125 L 986.542969 881.742188 L 987.367188 874.332031 L 988.132812 867.558594 L 989.015625 861.234375 L 989.582031 855.34375 L 989.265625 849.917969 L 987.734375 844.90625 L 985.613281 839.910156 L 983.78125 834.457031 L 982.929688 828.261719 L 983.066406 821.839844 L 984.019531 815.894531 L 985.578125 810.914062 L 987.347656 806.507812 L 988.894531 802.054688 L 989.777344 796.9375 L 989.683594 790.773438 L 988.765625 784.097656 L 987.296875 777.671875 L 985.578125 772.074219 L 984.054688 767.144531 L 983.203125 762.519531 L 983.296875 757.953125 L 983.832031 753.582031 L 984.105469 749.652344 L 983.574219 746.320312 L 982.351562 743.410156 L 980.707031 740.652344 L 978.914062 737.78125 L 977.222656 734.609375 L 975.792969 731.234375 L 974.761719 727.84375 L 974.128906 724.472656 L 973.347656 720.617188 L 971.726562 715.632812 L 968.8125 709.144531 L 965.128906 701.867188 L 961.445312 694.789062 L 958.382812 688.679688 L 956.019531 683.460938 L 954.289062 678.851562 L 953.128906 674.554688 L 952.363281 670.320312 L 951.398438 666.03125 L 949.535156 661.597656 L 946.347656 657.015625 L 942.507812 652.542969 L 938.957031 648.523438 L 936.371094 645.171875 L 934.367188 642.242188 L 932.277344 639.367188 L 929.484375 636.222656 L 925.511719 632.585938 L 919.921875 628.28125 L 912.285156 623.125 L 902.527344 617.132812 L 892.046875 611.105469 L 882.605469 606.054688 L 875.773438 602.648438 L 872.324219 600.238281 L 872.832031 597.84375 L 875.300781 594.726562 L 867.425781 591.097656 L 834.34375 587.417969 L 761.179688 584.144531 L 754.191406 585.136719 "/>
</g>
</svg>
