<?xml version="1.0" encoding="UTF-8"?>
<svg xmlns="http://www.w3.org/2000/svg" xmlns:xlink="http://www.w3.org/1999/xlink" width="1428pt" height="1605pt" viewBox="0 0 1428 1605" version="1.1">
<g id="surface184">
<rect x="0" y="0" width="1428" height="1605" style="fill:rgb(100%,100%,100%);fill-opacity:1;stroke:none;"/>
<path style="fill:none;stroke-width:0.75;stroke-linecap:round;stroke-linejoin:round;stroke:rgb(0%,0%,0%);stroke-opacity:1;stroke-miterlimit:10;" d="M 301.433594 520.632812 L 288.988281 522.839844 L 277.972656 525.015625 L 268.253906 527.382812 L 259.695312 530.171875 L 252.175781 533.535156 L 245.617188 537.324219 L 239.949219 541.308594 L 235.105469 545.261719 L 231.023438 548.953125 L 227.566406 552.273438 L 224.347656 555.558594 L 220.90625 559.253906 L 216.789062 563.816406 L 211.671875 569.53125 L 205.75 576.078125 L 199.355469 582.980469 L 192.820312 589.753906 L 186.46875 595.921875 L 180.554688 601.160156 L 175.007812 605.769531 L 169.671875 610.203125 L 164.398438 614.921875 L 159.105469 620.261719 L 153.976562 626.09375 L 149.269531 632.160156 L 145.234375 638.214844 L 142.128906 644.003906 L 140.089844 649.324219 L 138.777344 654.101562 L 137.746094 658.3125 L 136.542969 661.933594 L 134.820312 664.984375 L 132.636719 667.660156 L 130.15625 670.207031 L 127.546875 672.871094 L 124.964844 675.902344 L 122.523438 679.511719 L 120.074219 683.792969 L 117.417969 688.816406 L 114.351562 694.640625 L 110.78125 701.269531 L 107.054688 708.445312 L 103.628906 715.84375 L 100.960938 723.144531 L 99.5 730.023438 L 99.503906 736.25 L 100.417969 741.941406 L 101.488281 747.296875 L 101.960938 752.527344 L 101.277344 757.773438 L 99.648438 762.949219 L 97.480469 767.898438 L 95.183594 772.472656 L 93.164062 776.515625 L 91.734375 779.941406 L 90.816406 782.921875 L 90.242188 785.683594 L 89.828125 788.464844 L 89.425781 791.441406 L 88.921875 794.578125 L 88.226562 797.785156 L 87.253906 800.980469 L 85.910156 804.070312 L 84.160156 807.015625 L 82.21875 809.988281 L 80.351562 813.191406 L 78.828125 816.851562 L 77.832031 821.101562 L 77.234375 825.765625 L 76.8125 830.601562 L 76.355469 835.355469 L 75.644531 839.785156 L 74.523438 843.714844 L 73.050781 847.308594 L 71.339844 850.808594 L 69.511719 854.457031 L 67.671875 858.429688 L 65.890625 862.640625 L 64.230469 866.9375 L 62.75 871.171875 L 61.515625 875.1875 L 60.554688 878.902344 L 59.792969 882.492188 L 59.121094 886.210938 L 58.429688 890.296875 L 57.675781 894.925781 L 57.050781 899.976562 L 56.796875 905.257812 L 57.167969 910.574219 L 58.414062 915.730469 L 60.640625 920.578125 L 63.382812 925.15625 L 66.027344 929.539062 L 67.960938 933.8125 L 68.582031 938.054688 L 67.511719 942.308594 L 65.339844 946.429688 L 62.894531 950.238281 L 61.003906 953.5625 L 60.300781 956.316406 L 60.679688 958.828125 L 61.832031 961.523438 L 63.460938 964.832031 L 65.257812 969.175781 L 67.007812 974.878906 L 68.792969 981.824219 L 70.785156 989.800781 L 73.148438 998.585938 L 75.976562 1007.894531 L 79.050781 1017.199219 L 82.082031 1025.894531 L 84.78125 1033.382812 L 86.851562 1039.066406 L 88.101562 1042.578125 L 88.710938 1044.488281 L 88.964844 1045.605469 L 89.140625 1046.734375 L 89.472656 1048.519531 L 90.035156 1050.984375 L 90.851562 1053.988281 L 91.953125 1057.382812 L 93.367188 1061.039062 L 95.117188 1064.839844 L 97.238281 1068.824219 L 99.765625 1073.054688 L 102.726562 1077.59375 L 106.125 1082.472656 L 109.820312 1087.546875 L 113.625 1092.644531 L 117.371094 1097.582031 L 120.871094 1102.183594 L 123.988281 1106.316406 L 126.710938 1110.035156 L 129.0625 1113.445312 L 131.066406 1116.640625 L 132.761719 1119.726562 L 134.25 1122.777344 L 135.65625 1125.867188 L 137.097656 1129.078125 L 138.695312 1132.480469 L 140.554688 1136.136719 L 142.726562 1140.058594 L 145.246094 1144.238281 L 148.160156 1148.675781 L 151.460938 1153.355469 L 154.996094 1158.246094 L 158.574219 1163.308594 L 162 1168.503906 L 165.085938 1173.789062 L 167.738281 1179.128906 L 170.257812 1184.488281 L 173.0625 1189.824219 L 176.550781 1195.105469 L 180.992188 1200.289062 L 186.09375 1205.320312 L 191.417969 1210.148438 L 196.527344 1214.710938 L 200.992188 1218.953125 L 204.503906 1222.855469 L 207.28125 1226.554688 L 209.671875 1230.222656 L 212.023438 1234.03125 L 214.609375 1238.117188 L 217.394531 1242.449219 L 220.277344 1246.957031 L 223.148438 1251.582031 L 225.898438 1256.253906 L 228.589844 1260.902344 L 231.941406 1265.457031 L 236.832031 1269.835938 L 244.144531 1273.964844 L 254.398438 1277.769531 L 266.621094 1281.160156 L 279.472656 1284.054688 L 291.625 1286.363281 L 301.730469 1287.996094 L 308.875 1288.902344 L 313.785156 1289.136719 L 317.605469 1288.773438 L 321.484375 1287.90625 L 326.570312 1286.613281 L 333.679688 1284.960938 L 342.324219 1282.9375 L 351.699219 1280.523438 L 360.980469 1277.6875 L 369.507812 1274.429688 L 377.179688 1270.863281 L 384.039062 1267.121094 L 390.136719 1263.347656 L 395.515625 1259.671875 L 400.238281 1256.300781 L 404.453125 1253.6875 L 408.316406 1252.351562 L 412 1252.816406 L 415.699219 1255.410156 L 419.785156 1259.699219 L 424.660156 1265.0625 L 430.738281 1270.875 L 438.421875 1276.511719 L 447.863281 1281.523438 L 458.183594 1286.152344 L 468.253906 1290.808594 L 476.933594 1295.898438 L 483.363281 1301.695312 L 487.777344 1307.917969 L 490.667969 1314.132812 L 492.546875 1319.914062 L 493.90625 1324.835938 L 495.226562 1328.644531 L 496.890625 1331.761719 L 499.253906 1334.785156 L 502.675781 1338.3125 L 507.589844 1342.722656 L 514.71875 1347.527344 L 524.871094 1352.015625 L 538.851562 1355.488281 L 557.457031 1357.234375 L 580.851562 1356.769531 L 606.589844 1354.496094 L 631.597656 1351.035156 L 652.792969 1347.007812 L 667.890625 1342.941406 L 677.847656 1338.996094 L 684.40625 1335.230469 L 689.328125 1331.710938 L 694.359375 1328.5 L 700.851562 1325.601562 L 708.515625 1322.792969 L 716.671875 1319.792969 L 724.628906 1316.308594 L 731.859375 1312.152344 L 738.480469 1307.46875 L 744.773438 1302.503906 L 751.011719 1297.488281 L 757.476562 1292.671875 L 764.359375 1288.230469 L 771.492188 1284.128906 L 778.621094 1280.28125 L 785.496094 1276.59375 L 791.917969 1272.992188 L 797.941406 1269.464844 L 803.667969 1266.007812 L 809.207031 1262.625 L 814.664062 1259.3125 L 820.121094 1256.0625 L 825.542969 1252.816406 L 830.875 1249.503906 L 836.058594 1246.058594 L 841.042969 1242.410156 L 845.828125 1238.539062 L 850.417969 1234.425781 L 854.824219 1230.054688 L 859.054688 1225.402344 L 863.15625 1220.5 L 867.363281 1215.53125 L 871.9375 1210.726562 L 877.15625 1206.316406 L 883.15625 1202.464844 L 889.585938 1199.050781 L 895.945312 1195.882812 L 901.753906 1192.769531 L 906.519531 1189.519531 L 909.925781 1186.003906 L 912.347656 1182.300781 L 914.335938 1178.546875 L 916.4375 1174.882812 L 919.074219 1171.40625 L 922.136719 1168.054688 L 925.390625 1164.734375 L 928.601562 1161.347656 L 931.53125 1157.789062 L 934.019531 1153.984375 L 936.179688 1149.941406 L 938.195312 1145.695312 L 940.253906 1141.269531 L 942.542969 1136.703125 L 945.160156 1132.015625 L 947.851562 1127.246094 L 950.273438 1122.425781 L 952.085938 1117.585938 L 953.046875 1112.757812 L 953.304688 1107.980469 L 953.117188 1103.296875 L 952.730469 1098.742188 L 952.402344 1094.359375 L 952.332031 1090.167969 L 952.582031 1086.113281 L 953.160156 1082.128906 L 954.078125 1078.136719 L 955.316406 1074.09375 L 956.726562 1070.039062 L 958.121094 1066.042969 L 959.324219 1062.171875 L 960.148438 1058.496094 L 960.515625 1055.023438 L 960.742188 1051.539062 L 961.242188 1047.78125 L 962.433594 1043.472656 L 964.59375 1038.4375 L 967.457031 1032.839844 L 970.613281 1026.929688 L 973.667969 1020.953125 L 976.207031 1015.171875 L 977.925781 1009.773438 L 978.886719 1004.753906 L 979.246094 1000.046875 L 979.164062 995.589844 L 978.820312 991.277344 L 978.460938 986.835938 L 978.359375 981.960938 L 978.773438 976.339844 L 979.984375 969.664062 L 982.09375 961.839844 L 984.59375 953.652344 L 986.804688 946.097656 L 988.0625 940.171875 L 987.902344 936.566406 L 986.71875 934.730469 L 985.121094 933.808594 L 983.714844 932.9375 L 983.105469 931.257812 L 983.703125 928.089844 L 985.160156 923.476562 L 986.9375 917.625 L 988.480469 910.75 L 989.386719 903.125 L 989.785156 895.21875 L 989.9375 887.5625 L 990.101562 880.679688 L 990.546875 875.09375 L 991.4375 871.121094 L 992.546875 868.257812 L 993.570312 865.769531 L 994.179688 862.9375 L 994.160156 859.179688 L 993.679688 854.484375 L 993.007812 848.972656 L 992.414062 842.773438 L 992.160156 836.007812 L 992.417969 828.753906 L 992.972656 820.847656 L 993.507812 812.078125 L 993.710938 802.226562 L 993.34375 791.234375 L 992.488281 779.65625 L 991.292969 768.207031 L 989.914062 757.585938 L 988.511719 748.511719 L 987.191406 741.464844 L 985.921875 736.046875 L 984.609375 731.632812 L 983.179688 727.601562 L 981.574219 723.4375 L 979.824219 719.078125 L 977.988281 714.558594 L 976.128906 709.929688 L 974.304688 705.226562 L 972.5625 700.507812 L 970.898438 695.882812 L 969.300781 691.480469 L 967.761719 687.417969 L 966.265625 683.820312 L 964.792969 680.738281 L 963.273438 677.949219 L 961.640625 675.148438 L 959.816406 672.03125 L 957.734375 668.375 L 955.339844 664.242188 L 952.59375 659.753906 L 949.441406 655.050781 L 945.839844 650.265625 L 941.796875 645.515625 L 937.496094 640.894531 L 933.183594 636.484375 L 929.101562 632.367188 L 925.414062 628.59375 L 921.980469 625.070312 L 918.582031 621.671875 L 915.007812 618.269531 L 911.035156 614.738281 L 906.53125 611.003906 L 901.667969 607.195312 L 896.707031 603.496094 L 891.902344 600.09375 L 887.433594 597.109375 L 883.179688 594.464844 L 878.953125 592.027344 L 874.546875 589.652344 L 869.777344 587.214844 L 864.472656 584.625 L 858.582031 582.035156 L 852.085938 579.648438 L 844.964844 577.667969 L 837.222656 576.234375 L 829 575.28125 L 820.464844 574.671875 L 811.78125 574.277344 L 803.121094 573.96875 L 794.683594 573.644531 L 786.835938 573.3125 L 779.96875 573.015625 L 774.476562 572.792969 L 770.59375 572.695312 L 767.847656 572.835938 L 765.609375 573.335938 L 763.238281 574.3125 L 760.105469 575.890625 L 755.78125 578.136719 L 750.695312 580.910156 L 745.472656 584.011719 L 740.757812 587.242188 L 737.007812 590.453125 L 733.980469 593.667969 L 731.253906 596.964844 L 728.421875 600.410156 L 725.054688 604.082031 L 720.855469 608.050781 L 715.957031 612.390625 L 710.601562 617.179688 L 705.039062 622.488281 L 699.46875 628.34375 L 693.960938 634.554688 L 688.53125 640.882812 L 683.210938 647.085938 L 678.019531 652.921875 L 673.015625 658.203125 L 668.417969 662.9375 L 664.476562 667.191406 L 661.4375 671.027344 L 659.453125 674.519531 L 658.261719 677.800781 L 657.488281 681.015625 L 656.773438 684.304688 L 655.75 687.8125 L 654.148438 691.625 L 652.109375 695.601562 L 649.859375 699.535156 L 647.636719 703.230469 L 645.628906 706.546875 L 643.796875 709.601562 L 642.070312 712.582031 L 640.359375 715.675781 L 638.59375 719.058594 L 636.71875 722.855469 L 634.824219 726.945312 L 633.027344 731.136719 L 631.449219 735.246094 L 630.160156 739.128906 L 629.042969 742.828125 L 627.925781 746.417969 L 626.644531 749.984375 L 625.027344 753.605469 L 622.945312 757.375 L 620.402344 761.425781 L 617.441406 765.910156 L 614.101562 770.96875 L 610.429688 776.746094 L 606.503906 783.261719 L 602.550781 790.003906 L 598.832031 796.332031 L 595.617188 801.613281 L 593.066406 805.40625 L 590.917969 808.117188 L 588.804688 810.351562 L 586.367188 812.714844 L 583.234375 815.8125 L 579.191406 820.011719 L 574.550781 824.675781 L 569.785156 828.933594 L 565.351562 831.902344 L 561.625 832.929688 L 558.628906 832.230469 L 556.292969 830.246094 L 554.550781 827.40625 L 553.332031 824.152344 L 552.519531 820.84375 L 551.792969 817.535156 L 550.785156 814.203125 L 549.125 810.832031 L 546.550781 807.34375 L 543.25 803.453125 L 539.515625 798.820312 L 535.644531 793.113281 L 531.929688 785.992188 L 528.609375 777.328125 L 525.714844 767.835938 L 523.21875 758.433594 L 521.101562 750.042969 L 519.316406 743.355469 L 517.769531 738.136719 L 516.355469 733.929688 L 514.960938 730.269531 L 513.476562 726.695312 L 511.820312 722.835938 L 510.035156 718.714844 L 508.179688 714.4375 L 506.328125 710.121094 L 504.535156 705.839844 L 502.835938 701.496094 L 501.261719 696.964844 L 499.839844 692.113281 L 498.601562 686.8125 L 497.511719 680.980469 L 496.292969 674.78125 L 494.613281 668.421875 L 492.128906 662.113281 L 488.640625 656.050781 L 484.496094 650.351562 L 480.171875 645.121094 L 476.152344 640.464844 L 472.921875 636.480469 L 470.789062 633.179688 L 469.417969 630.195312 L 468.300781 627.058594 L 466.929688 623.308594 L 464.886719 618.613281 L 462.101562 613.167969 L 458.601562 607.296875 L 454.402344 601.324219 L 449.523438 595.570312 L 444.097656 590.28125 L 438.683594 585.351562 L 433.941406 580.605469 L 430.546875 575.847656 L 428.914062 570.972656 L 428.472656 566.140625 L 428.402344 561.574219 L 427.878906 557.507812 L 426.089844 554.167969 L 422.484375 551.6875 L 417.625 549.789062 L 412.34375 548.089844 L 407.46875 546.21875 L 403.527344 543.878906 L 399.777344 541.121094 L 395.183594 538.078125 L 388.695312 534.886719 L 379.265625 531.675781 L 366.195312 528.578125 L 350.144531 525.703125 L 332.121094 523.167969 L 313.136719 521.078125 L 294.195312 519.546875 L 301.433594 520.632812 "/>
<path style="fill:none;stroke-width:0.75;stroke-linecap:round;stroke-linejoin:round;stroke:rgb(0%,0%,0%);stroke-opacity:1;stroke-miterlimit:10;" d="M 302.785156 520.507812 L 289.464844 522.753906 L 276.964844 525.292969 L 266.457031 527.910156 L 258.683594 530.480469 L 252.710938 533.242188 L 247.1875 536.527344 L 241.117188 540.535156 L 234.976562 544.953125 L 229.601562 549.339844 L 225.824219 553.253906 L 223.992188 556.46875 L 222.5 559.617188 L 219.25 563.539062 L 212.84375 568.847656 L 204.675781 575.257812 L 196.847656 582.238281 L 190.933594 589.304688 L 186.410156 596.058594 L 182.242188 602.144531 L 177.382812 607.191406 L 171.140625 611.078125 L 164.210938 614.644531 L 157.648438 618.976562 L 152.28125 624.832031 L 148.125 631.6875 L 144.980469 638.695312 L 142.648438 645.003906 L 140.917969 650.007812 L 139.511719 654.050781 L 138.132812 657.707031 L 136.535156 661.417969 L 134.648438 665.027344 L 132.4375 668.234375 L 129.921875 670.855469 L 127.261719 673.210938 L 124.671875 675.757812 L 122.355469 678.933594 L 120.378906 683.105469 L 118.222656 688.304688 L 115.222656 694.476562 L 111.011719 701.492188 L 106.421875 708.945312 L 102.582031 716.347656 L 100.359375 723.304688 L 99.574219 729.800781 L 99.785156 735.910156 L 100.539062 741.707031 L 101.398438 747.257812 L 101.902344 752.632812 L 101.585938 757.894531 L 100.144531 763.070312 L 97.914062 768.027344 L 95.371094 772.597656 L 93.011719 776.613281 L 91.230469 779.976562 L 90.117188 782.882812 L 89.664062 785.597656 L 89.78125 788.363281 L 90 791.265625 L 89.753906 794.375 L 88.652344 797.710938 L 86.953125 801.121094 L 85.097656 804.417969 L 83.511719 807.414062 L 82.46875 810.054688 L 81.566406 812.796875 L 80.234375 816.242188 L 78.160156 820.769531 L 75.988281 825.9375 L 74.628906 831.085938 L 74.664062 835.691406 L 75.457031 839.792969 L 76.054688 843.554688 L 75.507812 847.15625 L 73.203125 850.753906 L 69.859375 854.46875 L 66.527344 858.40625 L 64.0625 862.628906 L 62.515625 866.984375 L 61.726562 871.28125 L 61.550781 875.324219 L 61.75 878.996094 L 61.78125 882.515625 L 61.03125 886.1875 L 59.144531 890.253906 L 56.847656 894.753906 L 55.144531 899.671875 L 54.824219 904.945312 L 55.875 910.390625 L 58.085938 915.785156 L 61.242188 920.898438 L 64.964844 925.574219 L 68.207031 929.902344 L 69.746094 934.039062 L 68.777344 938.105469 L 66.152344 942.09375 L 63.121094 945.957031 L 60.945312 949.648438 L 60.523438 953.144531 L 61.34375 956.460938 L 62.519531 959.644531 L 63.378906 962.757812 L 64.03125 966.011719 L 64.785156 969.65625 L 65.90625 973.980469 L 67.527344 979.503906 L 69.746094 986.78125 L 72.660156 996.378906 L 76.246094 1008.328125 L 80.003906 1020.523438 L 83.320312 1030.332031 L 85.707031 1035.886719 L 87.1875 1038.386719 L 87.917969 1039.800781 L 88.089844 1041.722656 L 88.054688 1044.226562 L 88.203125 1047.019531 L 88.929688 1049.808594 L 90.445312 1052.378906 L 92.230469 1054.882812 L 93.585938 1057.546875 L 94.078125 1060.574219 L 94.316406 1064.046875 L 95.183594 1068.019531 L 97.550781 1072.539062 L 101.921875 1077.59375 L 107.257812 1082.902344 L 112.144531 1088.117188 L 115.539062 1092.972656 L 117.890625 1097.511719 L 120.003906 1101.867188 L 122.527344 1106.121094 L 125.390625 1110.175781 L 128.351562 1113.890625 L 131.175781 1117.121094 L 133.636719 1119.828125 L 135.582031 1122.351562 L 136.875 1125.140625 L 137.519531 1128.53125 L 138.0625 1132.40625 L 139.195312 1136.542969 L 141.429688 1140.75 L 144.585938 1144.960938 L 148.304688 1149.152344 L 152.238281 1153.285156 L 156.050781 1157.414062 L 159.53125 1161.890625 L 162.484375 1167.15625 L 164.828125 1173.445312 L 166.933594 1180.183594 L 169.285156 1186.597656 L 172.359375 1191.910156 L 176.484375 1195.691406 L 181.390625 1198.894531 L 186.644531 1202.8125 L 191.855469 1208.316406 L 196.714844 1214.566406 L 200.949219 1220.296875 L 204.375 1224.5625 L 207.179688 1227.722656 L 209.640625 1230.449219 L 212.039062 1233.421875 L 214.597656 1237.167969 L 217.335938 1241.617188 L 220.207031 1246.542969 L 223.175781 1251.714844 L 226.207031 1256.824219 L 229.261719 1261.554688 L 232.480469 1265.699219 L 236.726562 1269.453125 L 243.027344 1273.125 L 252.421875 1277.011719 L 265.335938 1281.230469 L 279.71875 1285.132812 L 292.925781 1287.871094 L 302.886719 1288.867188 L 309.875 1288.585938 L 314.765625 1287.75 L 318.417969 1287.082031 L 321.746094 1287.042969 L 325.816406 1287.070312 L 331.746094 1286.332031 L 340.242188 1284.230469 L 350.40625 1281.097656 L 360.917969 1277.492188 L 370.652344 1273.871094 L 379.183594 1270.289062 L 386.269531 1266.703125 L 391.667969 1263.0625 L 395.371094 1259.433594 L 398.335938 1256.316406 L 401.753906 1254.320312 L 406.488281 1253.878906 L 412.078125 1254.734375 L 417.738281 1256.449219 L 422.671875 1258.589844 L 426.308594 1260.5 L 428.882812 1260.660156 L 430.851562 1257.324219 L 432.585938 1249.558594 L 434.175781 1239.648438 L 435.636719 1230.691406 L 436.992188 1225.039062 L 438.285156 1222.097656 L 439.554688 1220.546875 L 440.847656 1219.050781 L 442.203125 1216.605469 L 443.585938 1213.488281 L 444.964844 1210.308594 L 446.308594 1207.507812 L 447.628906 1204.921875 L 448.949219 1202.226562 L 450.285156 1199.148438 L 451.632812 1195.589844 L 452.984375 1191.5 L 454.335938 1186.824219 L 455.679688 1181.628906 L 457.015625 1176.472656 L 458.351562 1172.019531 L 459.691406 1168.695312 L 461.039062 1165.929688 L 462.382812 1162.894531 L 463.726562 1158.773438 L 465.066406 1153.039062 L 466.402344 1146.335938 L 467.742188 1139.605469 L 469.085938 1133.628906 L 470.429688 1128.546875 L 471.777344 1124.339844 L 473.121094 1120.910156 L 474.460938 1117.851562 L 475.800781 1114.695312 L 477.144531 1110.960938 L 478.480469 1106.359375 L 479.820312 1101.386719 L 481.164062 1096.71875 L 482.507812 1092.84375 L 485.195312 1086.070312 L 486.539062 1082.300781 L 487.878906 1078.25 L 489.21875 1074.140625 L 490.5625 1070.191406 L 491.902344 1066.503906 L 493.246094 1062.714844 L 494.589844 1058.347656 L 495.929688 1053.082031 L 497.269531 1047.273438 L 498.609375 1041.445312 L 499.953125 1036.113281 L 501.296875 1031.644531 L 502.640625 1027.78125 L 503.984375 1024.101562 L 505.328125 1020.277344 L 506.667969 1016.335938 L 508.003906 1012.386719 L 509.347656 1008.527344 L 510.6875 1004.847656 L 512.03125 1001.417969 L 513.375 998.3125 L 514.71875 995.53125 L 516.0625 992.777344 L 517.40625 989.667969 L 518.746094 985.945312 L 520.085938 981.8125 L 521.425781 977.597656 L 522.765625 973.546875 L 524.109375 969.609375 L 525.449219 965.667969 L 526.792969 961.597656 L 528.136719 957.34375 L 529.480469 953.105469 L 530.824219 949.144531 L 532.164062 945.667969 L 533.5 942.605469 L 534.839844 939.820312 L 536.1875 937.183594 L 537.535156 934.332031 L 538.886719 930.011719 L 540.222656 922.75 L 541.546875 911.742188 L 542.871094 898.894531 L 544.210938 886.789062 L 545.582031 877.449219 L 546.964844 870.640625 L 548.324219 865.574219 L 549.636719 861.457031 L 550.890625 857.625 L 552.171875 853.921875 L 553.585938 850.332031 L 555.164062 846.8125 L 556.617188 843.265625 L 557.582031 839.574219 L 557.695312 835.628906 L 556.746094 831.386719 L 555.136719 827.082031 L 553.429688 823.023438 L 552.058594 819.457031 L 550.957031 816.320312 L 549.929688 813.484375 L 548.761719 810.777344 L 547.128906 807.835938 L 544.6875 804.246094 L 541.089844 799.605469 L 536.242188 793.585938 L 531.101562 786.195312 L 526.875 777.527344 L 524.410156 767.847656 L 523.101562 758.109375 L 521.984375 749.441406 L 520.324219 742.691406 L 518.242188 737.597656 L 516.097656 733.628906 L 514.242188 730.253906 L 512.902344 726.976562 L 511.800781 723.492188 L 510.539062 719.523438 L 508.820312 714.921875 L 506.75 709.957031 L 504.546875 705.019531 L 502.417969 700.496094 L 500.570312 696.574219 L 499.136719 692.648438 L 498.242188 687.902344 L 497.851562 681.796875 L 497.28125 674.847656 L 495.699219 667.847656 L 492.523438 661.429688 L 488.246094 655.632812 L 483.605469 650.335938 L 479.347656 645.425781 L 476.035156 640.828125 L 473.5 636.613281 L 471.378906 632.894531 L 469.398438 629.683594 L 467.566406 626.597656 L 465.976562 623.152344 L 464.59375 618.964844 L 462.890625 614.015625 L 460.203125 608.390625 L 455.875 602.171875 L 449.640625 595.539062 L 442.753906 589.089844 L 436.855469 583.519531 L 433.175781 579.28125 L 431.253906 575.835938 L 430.214844 572.40625 L 429.175781 568.207031 L 427.511719 562.804688 L 425.589844 557.1875 L 424.027344 552.6875 L 423.058594 550.230469 L 421.382812 549.125 L 417.324219 548.265625 L 409.890625 546.757812 L 400.867188 544.53125 L 392.726562 541.730469 L 387.953125 538.492188 L 387.441406 534.976562 L 385.78125 531.425781 L 375.996094 528.097656 L 353.941406 525.21875 L 326.875 522.882812 L 304.902344 521.144531 L 298.125 520.058594 L 302.785156 520.507812 "/>
<path style="fill:none;stroke-width:0.75;stroke-linecap:round;stroke-linejoin:round;stroke:rgb(0%,0%,0%);stroke-opacity:1;stroke-miterlimit:10;" d="M 787.035156 569.300781 L 781.175781 571.042969 L 775.472656 572.675781 L 770.671875 573.90625 L 767.28125 574.546875 L 764.832031 574.816406 L 762.605469 575.042969 L 759.96875 575.570312 L 756.578125 576.789062 L 752.175781 579.117188 L 746.6875 582.769531 L 740.863281 587.207031 L 735.640625 591.695312 L 731.972656 595.496094 L 730.320312 598.15625 L 729.261719 600.359375 L 726.90625 603.074219 L 721.9375 607.023438 L 715.414062 611.957031 L 708.972656 617.378906 L 703.84375 622.894531 L 699.601562 628.5 L 695.414062 634.292969 L 690.453125 640.367188 L 684.199219 646.726562 L 677.460938 653.023438 L 671.347656 658.816406 L 666.75 663.757812 L 663.582031 667.886719 L 661.53125 671.324219 L 660.261719 674.242188 L 659.394531 676.984375 L 658.550781 679.933594 L 657.339844 683.472656 L 655.5 687.808594 L 653.292969 692.464844 L 651.097656 696.789062 L 649.214844 700.296875 L 647.589844 703.226562 L 646.074219 705.976562 L 644.527344 708.894531 L 642.851562 712.0625 L 640.933594 715.496094 L 638.675781 719.214844 L 636.089844 723.203125 L 633.628906 727.3125 L 631.871094 731.359375 L 631.148438 735.203125 L 630.921875 738.917969 L 630.402344 742.609375 L 629.007812 746.371094 L 626.898438 750.167969 L 624.433594 753.9375 L 621.957031 757.617188 L 619.695312 761.25 L 617.355469 765.296875 L 614.515625 770.3125 L 610.894531 776.625 L 606.773438 783.632812 L 602.574219 790.511719 L 598.675781 796.546875 L 595.304688 801.558594 L 592.644531 805.492188 L 590.742188 808.386719 L 589.085938 810.660156 L 587.027344 812.832031 L 583.914062 815.414062 L 579.40625 818.78125 L 574.441406 822.734375 L 570.265625 826.933594 L 567.78125 831.132812 L 566.519531 835.507812 L 565.667969 840.316406 L 564.570312 845.769531 L 563.203125 851.851562 L 561.714844 858.488281 L 560.242188 865.597656 L 558.894531 873.003906 L 557.625 880.132812 L 556.355469 886.308594 L 555.027344 891.09375 L 553.660156 895.023438 L 552.28125 898.875 L 550.929688 903.253906 L 549.59375 908.023438 L 548.265625 912.878906 L 546.9375 917.507812 L 545.59375 921.660156 L 544.242188 925.3125 L 542.890625 928.507812 L 541.550781 931.3125 L 540.210938 933.925781 L 538.875 936.578125 L 537.535156 939.449219 L 536.191406 942.519531 L 534.847656 945.710938 L 533.503906 948.953125 L 532.160156 952.203125 L 530.816406 955.558594 L 529.476562 959.148438 L 528.132812 963.078125 L 526.792969 967.402344 L 525.453125 972.144531 L 524.113281 977.304688 L 522.769531 982.695312 L 521.429688 988.101562 L 520.085938 993.304688 L 518.742188 998.117188 L 517.398438 1002.5 L 516.054688 1006.449219 L 514.714844 1009.996094 L 513.375 1013.339844 L 512.035156 1016.722656 L 510.695312 1020.304688 L 509.351562 1023.964844 L 508.011719 1027.515625 L 506.667969 1030.753906 L 505.320312 1033.589844 L 503.976562 1036.347656 L 502.632812 1039.4375 L 501.296875 1043.195312 L 499.957031 1047.601562 L 498.617188 1052.550781 L 497.277344 1057.957031 L 495.929688 1063.824219 L 494.585938 1070.183594 L 493.242188 1077 L 491.898438 1083.992188 L 490.558594 1090.824219 L 489.21875 1097.148438 L 487.878906 1102.714844 L 486.542969 1107.59375 L 485.199219 1111.953125 L 483.851562 1115.929688 L 482.503906 1119.617188 L 481.160156 1123.078125 L 479.824219 1126.382812 L 478.492188 1129.625 L 477.15625 1132.902344 L 475.804688 1136.316406 L 474.441406 1139.882812 L 473.078125 1143.324219 L 471.746094 1146.277344 L 470.460938 1148.566406 L 469.171875 1150.734375 L 467.824219 1153.515625 L 466.390625 1157.355469 L 464.933594 1161.554688 L 463.542969 1165.132812 L 462.308594 1167.109375 L 461.25 1167.257812 L 460.117188 1168.371094 L 458.589844 1174.007812 L 456.542969 1186.707031 L 454.589844 1204.976562 L 453.542969 1226.308594 L 454.050781 1248.25 L 456.1875 1268.507812 L 459.859375 1284.835938 L 464.980469 1294.988281 L 471.304688 1297.914062 L 477.929688 1297.339844 L 483.785156 1298.199219 L 488.054688 1304.03125 L 490.886719 1312.855469 L 492.691406 1321.304688 L 493.878906 1326.792969 L 494.9375 1329.867188 L 496.375 1331.851562 L 498.691406 1334.074219 L 502.378906 1337.542969 L 507.828125 1342.03125 L 515.414062 1346.996094 L 525.597656 1351.84375 L 539.1875 1355.757812 L 557.078125 1357.867188 L 579.574219 1357.550781 L 604.636719 1355.210938 L 629.640625 1351.488281 L 651.960938 1347.039062 L 669.429688 1342.453125 L 681.710938 1338.101562 L 688.933594 1334.292969 L 691.765625 1331.234375 L 693.078125 1328.660156 L 696.292969 1326.179688 L 703.847656 1323.457031 L 714.257812 1320.285156 L 725.046875 1316.5 L 734.222656 1312.015625 L 741.652344 1307.074219 L 747.675781 1302.003906 L 752.632812 1297.125 L 756.992188 1292.679688 L 761.707031 1288.5625 L 767.851562 1284.585938 L 776.070312 1280.605469 L 785.273438 1276.644531 L 793.9375 1272.78125 L 800.878906 1269.082031 L 806.253906 1265.574219 L 810.574219 1262.28125 L 814.339844 1259.226562 L 818.078125 1256.367188 L 822.417969 1253.453125 L 828.007812 1250.164062 L 835.152344 1246.292969 L 842.722656 1242.070312 L 849.253906 1237.832031 L 853.664062 1233.824219 L 856.460938 1229.882812 L 858.546875 1225.757812 L 860.824219 1221.195312 L 864.117188 1216.070312 L 868.910156 1210.816406 L 875.625 1205.992188 L 884.253906 1202.003906 L 893.160156 1198.660156 L 900.289062 1195.621094 L 904.1875 1192.59375 L 905.808594 1189.492188 L 906.699219 1186.285156 L 908.410156 1182.9375 L 912.027344 1179.417969 L 916.742188 1175.648438 L 921.289062 1171.550781 L 924.683594 1167.15625 L 927.101562 1162.929688 L 929.011719 1159.445312 L 930.828125 1157.027344 L 932.722656 1155.003906 L 934.816406 1152.441406 L 937.234375 1148.421875 L 940.027344 1142.429688 L 943.027344 1135.59375 L 946.003906 1129.457031 L 948.710938 1125.097656 L 950.890625 1121.808594 L 952.269531 1118.417969 L 952.703125 1114.042969 L 952.554688 1108.945312 L 952.3125 1103.671875 L 952.351562 1098.675781 L 952.636719 1094.027344 L 953.015625 1089.710938 L 953.34375 1085.707031 L 953.554688 1081.960938 L 953.890625 1078.277344 L 954.6875 1074.417969 L 956.132812 1070.242188 L 957.867188 1065.980469 L 959.394531 1061.957031 L 960.34375 1058.386719 L 960.851562 1055.046875 L 961.1875 1051.621094 L 961.613281 1047.777344 L 962.414062 1043.289062 L 963.925781 1038.28125 L 966.515625 1032.980469 L 970.277344 1027.546875 L 974.285156 1021.890625 L 977.339844 1015.855469 L 978.59375 1009.433594 L 978.546875 1003.171875 L 978.039062 997.757812 L 977.910156 993.882812 L 978.707031 991.761719 L 979.828125 989.730469 L 980.382812 985.644531 L 979.851562 978.078125 L 979.203125 968.460938 L 979.789062 958.925781 L 982.46875 951.199219 L 986.160156 945.332031 L 989.3125 940.96875 L 990.359375 937.75 L 988.367188 935.351562 L 984.929688 933.554688 L 982.253906 932.1875 L 981.992188 930.929688 L 983.503906 928.894531 L 985.582031 925.046875 L 987.242188 918.71875 L 988.398438 910.65625 L 989.175781 901.964844 L 989.710938 893.742188 L 990.121094 886.84375 L 990.496094 881.097656 L 990.914062 876.082031 L 991.441406 871.496094 L 992.082031 867.484375 L 992.832031 864.3125 L 993.640625 862.03125 L 994.292969 859.8125 L 994.535156 856.609375 L 994.113281 851.367188 L 992.953125 843.523438 L 991.710938 834.441406 L 991.230469 825.949219 L 992.035156 819.226562 L 993.414062 812.789062 L 994.347656 804.5 L 994.070312 792.941406 L 992.859375 779.648438 L 991.253906 766.878906 L 989.699219 756.425781 L 988.273438 748.226562 L 986.964844 741.726562 L 985.761719 736.394531 L 984.617188 731.738281 L 983.386719 727.457031 L 981.875 723.308594 L 979.980469 719.078125 L 977.882812 714.695312 L 975.835938 710.121094 L 974.042969 705.351562 L 972.46875 700.527344 L 971.027344 695.84375 L 969.628906 691.472656 L 968.1875 687.554688 L 966.601562 683.996094 L 964.773438 680.664062 L 962.6875 677.441406 L 960.597656 674.328125 L 958.851562 671.335938 L 957.609375 668.425781 L 956.363281 665.257812 L 954.429688 661.429688 L 951.125 656.535156 L 946.101562 650.445312 L 940.351562 644.085938 L 935.195312 638.65625 L 931.585938 634.988281 L 929.003906 632.40625 L 926.558594 629.871094 L 923.515625 626.570312 L 919.8125 622.617188 L 915.535156 618.367188 L 910.773438 614.160156 L 905.667969 610.277344 L 900.542969 606.703125 L 895.777344 603.355469 L 891.621094 600.175781 L 887.816406 597.210938 L 883.992188 594.527344 L 879.824219 592.152344 L 875.179688 589.902344 L 869.980469 587.5625 L 864.152344 584.910156 L 857.6875 581.871094 L 850.882812 578.953125 L 844.097656 576.820312 L 837.511719 575.917969 L 830.527344 575.820312 L 822.355469 575.898438 L 812.566406 575.589844 L 802.179688 574.675781 L 792.578125 573 L 785.140625 570.425781 L 787.035156 569.300781 "/>
</g>
</svg>
