<?xml version="1.0" encoding="UTF-8"?>
<svg xmlns="http://www.w3.org/2000/svg" xmlns:xlink="http://www.w3.org/1999/xlink" width="1428pt" height="1605pt" viewBox="0 0 1428 1605" version="1.1">
<g id="surface189">
<rect x="0" y="0" width="1428" height="1605" style="fill:rgb(100%,100%,100%);fill-opacity:1;stroke:none;"/>
<path style="fill:none;stroke-width:0.75;stroke-linecap:round;stroke-linejoin:round;stroke:rgb(0%,0%,0%);stroke-opacity:1;stroke-miterlimit:10;" d="M 287.40625 508.621094 L 275.878906 513.113281 L 264.679688 517.292969 L 254.417969 521.144531 L 245.707031 524.648438 L 238.964844 527.820312 L 233.820312 530.824219 L 229.714844 533.859375 L 226.078125 537.121094 L 222.421875 540.773438 L 218.566406 544.878906 L 214.394531 549.464844 L 209.804688 554.554688 L 204.6875 560.1875 L 199.042969 566.304688 L 193.335938 572.566406 L 188.132812 578.535156 L 184.015625 583.796875 L 181.351562 588.042969 L 179.714844 591.484375 L 178.488281 594.460938 L 177.039062 597.3125 L 174.746094 600.371094 L 171.136719 603.984375 L 166.316406 608.507812 L 160.550781 614.300781 L 154.09375 621.730469 L 147.261719 630.894531 L 140.609375 640.835938 L 134.734375 650.339844 L 130.242188 658.183594 L 127.535156 663.488281 L 126.175781 666.746094 L 125.523438 668.78125 L 124.9375 670.433594 L 123.777344 672.53125 L 121.574219 675.714844 L 118.535156 679.855469 L 115.042969 684.644531 L 111.484375 689.761719 L 108.1875 694.96875 L 105.3125 700.292969 L 102.96875 705.835938 L 101.265625 711.703125 L 100.3125 717.996094 L 100.140625 724.714844 L 100.476562 731.453125 L 100.960938 737.714844 L 101.246094 742.988281 L 101.042969 746.984375 L 100.371094 750.265625 L 99.320312 753.601562 L 97.96875 757.757812 L 96.390625 763.296875 L 94.589844 769.925781 L 92.546875 777.136719 L 90.246094 784.417969 L 87.675781 791.269531 L 84.855469 797.28125 L 81.960938 802.46875 L 79.214844 806.941406 L 76.828125 810.816406 L 74.960938 814.238281 L 73.542969 817.496094 L 72.453125 820.914062 L 71.5625 824.816406 L 70.742188 829.527344 L 69.871094 835.261719 L 68.796875 841.808594 L 67.375 848.847656 L 65.449219 856.054688 L 62.964844 863.1875 L 60.203125 870.265625 L 57.546875 877.390625 L 55.367188 884.660156 L 54.042969 892.171875 L 53.851562 899.929688 L 54.683594 907.550781 L 56.339844 914.570312 L 58.617188 920.511719 L 61.257812 925.097656 L 63.789062 928.800781 L 65.675781 932.28125 L 66.394531 936.210938 L 65.617188 941.089844 L 63.851562 946.800781 L 61.800781 953.074219 L 60.171875 959.628906 L 59.679688 966.195312 L 60.8125 972.582031 L 63.203125 978.941406 L 66.265625 985.507812 L 69.417969 992.527344 L 72.179688 1000.117188 L 74.539062 1007.964844 L 76.582031 1015.640625 L 78.402344 1022.707031 L 80.089844 1028.738281 L 81.707031 1033.441406 L 83.207031 1037.050781 L 84.511719 1039.941406 L 85.542969 1042.488281 L 86.257812 1044.996094 L 86.753906 1047.507812 L 87.164062 1049.996094 L 87.625 1052.429688 L 88.253906 1054.816406 L 89.15625 1057.304688 L 90.410156 1060.082031 L 92.105469 1063.328125 L 94.332031 1067.230469 L 97.15625 1071.910156 L 100.554688 1077.257812 L 104.46875 1083.109375 L 108.863281 1089.292969 L 113.640625 1095.625 L 118.539062 1101.859375 L 123.25 1107.742188 L 127.472656 1113.003906 L 130.894531 1117.390625 L 133.316406 1120.761719 L 134.976562 1123.457031 L 136.207031 1125.9375 L 137.351562 1128.667969 L 138.703125 1132.007812 L 140.371094 1135.894531 L 142.429688 1140.160156 L 144.949219 1144.640625 L 147.992188 1149.164062 L 151.5625 1153.621094 L 155.375 1158.113281 L 159.074219 1162.800781 L 162.3125 1167.839844 L 164.875 1173.320312 L 167.117188 1179.082031 L 169.542969 1184.886719 L 172.652344 1190.503906 L 176.792969 1195.757812 L 181.6875 1200.664062 L 186.914062 1205.300781 L 192.039062 1209.742188 L 196.644531 1214.0625 L 200.417969 1218.320312 L 203.5625 1222.515625 L 206.402344 1226.640625 L 209.257812 1230.6875 L 212.355469 1234.660156 L 215.542969 1238.609375 L 218.574219 1242.613281 L 221.195312 1246.742188 L 223.164062 1251.066406 L 224.425781 1255.617188 L 225.738281 1260.265625 L 228.054688 1264.839844 L 232.335938 1269.175781 L 239.253906 1273.152344 L 248.382812 1276.902344 L 259.03125 1280.609375 L 270.488281 1284.460938 L 282.089844 1288.535156 L 293.265625 1292.488281 L 303.484375 1295.871094 L 312.207031 1298.234375 L 318.902344 1299.121094 L 323.292969 1298.28125 L 326.132812 1296.210938 L 328.425781 1293.605469 L 331.191406 1291.164062 L 335.230469 1289.40625 L 340.511719 1288.179688 L 346.796875 1287.152344 L 353.851562 1286.003906 L 361.4375 1284.402344 L 369.300781 1282.128906 L 377.117188 1279.359375 L 384.558594 1276.378906 L 391.277344 1273.476562 L 397.015625 1270.859375 L 401.792969 1268.488281 L 405.710938 1266.246094 L 408.867188 1264.023438 L 411.355469 1261.703125 L 413.320312 1259.308594 L 415.082031 1257.410156 L 417.007812 1256.714844 L 419.460938 1257.933594 L 422.71875 1261.492188 L 426.695312 1266.730469 L 431.222656 1272.71875 L 436.128906 1278.515625 L 441.269531 1283.390625 L 446.636719 1287.410156 L 452.253906 1290.859375 L 458.144531 1294 L 464.324219 1297.117188 L 470.746094 1300.46875 L 477.085938 1304.289062 L 482.945312 1308.808594 L 487.925781 1314.25 L 491.855469 1320.71875 L 495.488281 1327.847656 L 499.789062 1335.15625 L 505.738281 1342.148438 L 514.304688 1348.34375 L 526.230469 1353.3125 L 541.289062 1356.851562 L 559.027344 1358.828125 L 578.992188 1359.097656 L 600.492188 1357.664062 L 621.953125 1355.117188 L 641.558594 1352.179688 L 657.5 1349.585938 L 668.476562 1347.867188 L 675.230469 1346.789062 L 679.011719 1345.90625 L 681.066406 1344.78125 L 682.644531 1342.980469 L 684.832031 1340.199219 L 688.078125 1336.683594 L 692.660156 1332.820312 L 698.863281 1328.984375 L 706.796875 1325.472656 L 715.875 1322.210938 L 725.347656 1319.046875 L 734.453125 1315.816406 L 742.433594 1312.359375 L 748.75 1308.574219 L 753.699219 1304.617188 L 757.796875 1300.691406 L 761.558594 1297.011719 L 765.4375 1293.714844 L 769.683594 1290.679688 L 774.488281 1287.714844 L 780.035156 1284.621094 L 786.523438 1281.214844 L 793.976562 1277.375 L 801.777344 1273.289062 L 809.140625 1269.214844 L 815.285156 1265.421875 L 819.71875 1262.089844 L 823.097656 1259.089844 L 826.375 1256.203125 L 830.507812 1253.230469 L 836.15625 1249.988281 L 842.855469 1246.449219 L 849.847656 1242.613281 L 856.382812 1238.480469 L 861.710938 1234.058594 L 865.363281 1229.378906 L 868.042969 1224.59375 L 870.742188 1219.886719 L 874.441406 1215.449219 L 879.867188 1211.394531 L 886.636719 1207.59375 L 894.105469 1203.839844 L 901.625 1199.9375 L 908.554688 1195.6875 L 914.382812 1190.933594 L 919.207031 1185.710938 L 923.257812 1180.105469 L 926.765625 1174.191406 L 929.933594 1168.113281 L 932.808594 1162.277344 L 935.398438 1157.140625 L 937.710938 1153.171875 L 939.78125 1150.585938 L 941.71875 1148.585938 L 943.648438 1146.136719 L 945.703125 1142.199219 L 948.011719 1135.734375 L 950.65625 1126.074219 L 953.542969 1114.085938 L 956.535156 1101.007812 L 959.488281 1088.078125 L 962.304688 1076.285156 L 965.007812 1065.636719 L 967.664062 1055.886719 L 970.335938 1046.789062 L 973.089844 1038.101562 L 975.949219 1029.636719 L 978.796875 1021.460938 L 981.464844 1013.695312 L 983.796875 1006.464844 L 985.65625 999.839844 L 986.980469 993.714844 L 987.734375 987.929688 L 987.882812 982.335938 L 987.457031 976.792969 L 986.789062 971.285156 L 986.28125 965.8125 L 986.335938 960.371094 L 987.355469 954.972656 L 989.539062 949.671875 L 992.269531 944.765625 L 994.722656 940.621094 L 996.078125 937.589844 L 995.769531 935.859375 L 994.261719 934.933594 L 992.269531 934.148438 L 990.507812 932.824219 L 989.695312 930.304688 L 990.335938 926.089844 L 992.070312 920.386719 L 994.320312 913.574219 L 996.511719 906.035156 L 998.183594 898.140625 L 999.308594 890.253906 L 999.96875 882.722656 L 1000.25 875.898438 L 1000.238281 870.136719 L 1000.011719 865.496094 L 999.648438 860.921875 L 999.214844 855.0625 L 998.785156 846.570312 L 998.410156 834.546875 L 998.058594 819.859375 L 997.679688 803.832031 L 997.226562 787.785156 L 996.648438 772.875 L 995.929688 759.605469 L 995.054688 748.324219 L 994.015625 739.375 L 992.796875 733.109375 L 991.40625 729.601562 L 989.917969 727.894531 L 988.414062 726.761719 L 986.996094 724.972656 L 985.710938 721.597656 L 984.488281 716.882812 L 983.210938 711.371094 L 981.773438 705.601562 L 980.054688 700.117188 L 978.007812 695.335938 L 975.832031 691.1875 L 973.78125 687.476562 L 972.113281 684.015625 L 970.984375 680.640625 L 970.140625 677.328125 L 969.238281 674.082031 L 967.917969 670.902344 L 965.90625 667.757812 L 963.234375 664.433594 L 960 660.664062 L 956.3125 656.195312 L 952.277344 650.769531 L 947.988281 644.265625 L 943.527344 637.164062 L 938.984375 630.070312 L 934.429688 623.609375 L 929.953125 618.265625 L 925.664062 613.992188 L 921.675781 610.621094 L 918.105469 607.980469 L 915.066406 605.890625 L 912.554688 604.160156 L 910.074219 602.5 L 907.007812 600.597656 L 902.742188 598.140625 L 896.839844 594.90625 L 889.621094 591.03125 L 881.585938 586.746094 L 873.226562 582.277344 L 865.050781 577.851562 L 857.515625 573.683594 L 850.949219 569.960938 L 845.636719 566.84375 L 841.871094 564.507812 L 839.722656 563.066406 L 838.398438 562.414062 L 836.902344 562.378906 L 834.222656 562.804688 L 829.65625 563.523438 L 823.667969 564.367188 L 817.019531 565.167969 L 810.46875 565.757812 L 804.785156 565.96875 L 800.503906 565.703125 L 797.300781 565.160156 L 794.625 564.621094 L 791.921875 564.359375 L 788.777344 564.554688 L 785.292969 565.027344 L 781.695312 565.507812 L 778.222656 565.714844 L 775.097656 565.382812 L 772.480469 564.363281 L 770.207031 563.027344 L 768.03125 561.871094 L 765.714844 561.390625 L 763.050781 561.960938 L 759.953125 563.488281 L 756.375 565.75 L 752.261719 568.53125 L 747.605469 571.640625 L 742.5625 575.027344 L 737.328125 578.660156 L 732.101562 582.515625 L 727.070312 586.570312 L 722.382812 590.796875 L 717.957031 595.160156 L 713.660156 599.621094 L 709.355469 604.152344 L 704.945312 608.71875 L 700.449219 613.308594 L 695.925781 617.929688 L 691.429688 622.574219 L 687.015625 627.246094 L 682.746094 631.929688 L 678.71875 636.558594 L 675.042969 641.058594 L 671.824219 645.351562 L 669.117188 649.394531 L 666.792969 653.277344 L 664.660156 657.117188 L 662.539062 661.027344 L 660.246094 665.128906 L 657.625 669.5625 L 654.628906 674.546875 L 651.242188 680.320312 L 647.441406 687.121094 L 643.265625 695.054688 L 638.988281 703.722656 L 634.925781 712.585938 L 631.410156 721.105469 L 628.671875 728.84375 L 626.550781 735.722656 L 624.800781 741.773438 L 623.171875 747.011719 L 621.414062 751.464844 L 619.335938 755.21875 L 616.953125 758.617188 L 614.347656 762.078125 L 611.597656 766.011719 L 608.738281 770.753906 L 605.671875 776.328125 L 602.253906 782.679688 L 598.347656 789.761719 L 593.8125 797.515625 L 588.609375 805.75 L 583.101562 813.738281 L 577.765625 820.601562 L 573.070312 825.472656 L 569.308594 827.648438 L 566.101562 827.082031 L 562.898438 823.898438 L 559.132812 818.226562 L 554.441406 810.328125 L 549.164062 801.058594 L 543.824219 791.414062 L 538.953125 782.386719 L 535.070312 774.972656 L 532.535156 769.859375 L 531.050781 766.492188 L 530.15625 764.019531 L 529.386719 761.578125 L 528.371094 758.496094 L 527.105469 754.847656 L 525.671875 750.898438 L 524.167969 746.902344 L 522.671875 743.128906 L 521.257812 739.757812 L 518.632812 733.757812 L 517.378906 730.773438 L 516.128906 727.585938 L 514.863281 724.105469 L 513.558594 720.265625 L 512.1875 716 L 510.734375 711.238281 L 509.195312 705.972656 L 507.664062 700.414062 L 506.261719 694.84375 L 505.109375 689.53125 L 504.253906 684.675781 L 503.449219 680.144531 L 502.394531 675.746094 L 500.773438 671.265625 L 498.367188 666.546875 L 495.332031 661.59375 L 491.902344 656.441406 L 488.324219 651.140625 L 484.84375 645.730469 L 481.644531 640.253906 L 478.683594 634.765625 L 475.867188 629.324219 L 473.101562 623.976562 L 470.292969 618.769531 L 467.355469 613.695312 L 464.203125 608.730469 L 460.765625 603.863281 L 456.949219 599.066406 L 452.761719 594.332031 L 448.535156 589.660156 L 444.6875 585.066406 L 441.636719 580.5625 L 439.65625 576.144531 L 438.40625 571.761719 L 437.410156 567.34375 L 436.1875 562.820312 L 434.347656 558.175781 L 431.851562 553.554688 L 428.75 549.167969 L 425.097656 545.207031 L 420.941406 541.875 L 416.355469 539.289062 L 411.507812 537.214844 L 406.578125 535.335938 L 401.75 533.335938 L 397.097656 530.96875 L 392.25 528.289062 L 386.726562 525.417969 L 380.046875 522.484375 L 371.726562 519.605469 L 361.527344 516.902344 L 350.171875 514.46875 L 338.628906 512.382812 L 327.871094 510.730469 L 318.621094 509.554688 L 310.628906 508.761719 L 303.398438 508.214844 L 296.4375 507.78125 L 289.253906 507.324219 L 287.40625 508.621094 "/>
<path style="fill:none;stroke-width:0.75;stroke-linecap:round;stroke-linejoin:round;stroke:rgb(0%,0%,0%);stroke-opacity:1;stroke-miterlimit:10;" d="M 288.179688 508.289062 L 276.164062 513.144531 L 264.09375 517.628906 L 253.4375 521.53125 L 245.285156 524.753906 L 239.203125 527.589844 L 234.378906 530.433594 L 230.117188 533.609375 L 226.132812 537.152344 L 222.242188 541.03125 L 218.269531 545.207031 L 214.0625 549.675781 L 209.550781 554.53125 L 204.695312 559.902344 L 199.507812 565.835938 L 194.21875 572.035156 L 189.117188 578.132812 L 184.484375 583.785156 L 180.613281 588.753906 L 177.789062 592.828125 L 176.304688 595.804688 L 176.121094 597.703125 L 175.867188 599.460938 L 173.851562 602.261719 L 168.863281 607.03125 L 161.636719 613.695312 L 153.390625 621.945312 L 145.34375 631.460938 L 138.539062 641.726562 L 133.335938 651.4375 L 129.921875 659.082031 L 128.289062 663.648438 L 127.640625 666.0625 L 126.988281 667.742188 L 125.550781 669.867188 L 123.367188 672.65625 L 120.6875 676.085938 L 117.765625 680.128906 L 114.796875 684.734375 L 111.796875 689.734375 L 108.738281 694.933594 L 105.65625 700.195312 L 102.875 705.640625 L 100.773438 711.449219 L 99.746094 717.808594 L 99.980469 724.753906 L 100.859375 731.714844 L 101.578125 737.976562 L 101.511719 743.027344 L 100.828125 747.105469 L 99.882812 750.652344 L 98.941406 754.121094 L 97.933594 757.964844 L 96.695312 762.652344 L 95.066406 768.648438 L 92.933594 776.15625 L 90.386719 784.304688 L 87.558594 791.964844 L 84.597656 798.25 L 81.671875 803.257812 L 78.96875 807.324219 L 76.667969 810.789062 L 74.898438 813.984375 L 73.585938 817.171875 L 72.597656 820.609375 L 71.796875 824.550781 L 71 829.238281 L 70.019531 834.910156 L 68.707031 841.683594 L 67.058594 849.144531 L 65.117188 856.753906 L 62.910156 863.96875 L 60.511719 870.464844 L 58.109375 876.761719 L 55.917969 883.601562 L 54.175781 891.472656 L 53.226562 899.875 L 53.433594 908.066406 L 55.152344 915.292969 L 58.46875 921.015625 L 62.316406 925.488281 L 65.351562 929.171875 L 66.558594 932.53125 L 66.214844 936.089844 L 64.925781 940.390625 L 63.265625 945.816406 L 61.644531 952.167969 L 60.445312 959.101562 L 60.050781 966.265625 L 60.753906 973.363281 L 62.535156 980.261719 L 65.285156 986.875 L 68.8125 993.191406 L 72.558594 999.503906 L 75.890625 1006.179688 L 78.167969 1013.578125 L 79.039062 1021.769531 L 79.3125 1029.601562 L 80.085938 1035.621094 L 82.101562 1038.875 L 84.636719 1040.367188 L 86.617188 1041.597656 L 87.261719 1043.746094 L 86.992188 1046.660156 L 86.527344 1049.859375 L 86.597656 1052.859375 L 87.703125 1055.34375 L 89.488281 1057.617188 L 91.382812 1060.144531 L 92.988281 1063.308594 L 94.585938 1067.167969 L 96.640625 1071.6875 L 99.613281 1076.84375 L 103.785156 1082.59375 L 108.761719 1088.847656 L 113.972656 1095.496094 L 118.925781 1102.339844 L 123.441406 1108.765625 L 127.410156 1114.0625 L 130.75 1117.761719 L 133.433594 1120.335938 L 135.449219 1122.503906 L 136.789062 1124.980469 L 137.550781 1128.300781 L 138.246094 1132.28125 L 139.488281 1136.566406 L 141.738281 1140.847656 L 144.828125 1145.066406 L 148.417969 1149.203125 L 152.175781 1153.253906 L 155.804688 1157.296875 L 159.148438 1161.746094 L 162.082031 1167.121094 L 164.566406 1173.65625 L 166.949219 1180.554688 L 169.648438 1186.738281 L 173.007812 1191.460938 L 176.992188 1195.222656 L 181.484375 1198.847656 L 186.363281 1203.164062 L 191.457031 1208.679688 L 196.40625 1214.679688 L 200.800781 1220.140625 L 204.34375 1224.3125 L 207.21875 1227.53125 L 209.71875 1230.402344 L 212.140625 1233.542969 L 214.71875 1237.40625 L 217.453125 1241.863281 L 220.300781 1246.636719 L 223.164062 1251.464844 L 225.839844 1256.214844 L 228.074219 1260.761719 L 229.882812 1265.03125 L 232.335938 1269.066406 L 236.757812 1272.960938 L 244.480469 1276.792969 L 256.226562 1280.636719 L 270.289062 1284.496094 L 284.371094 1288.363281 L 296.535156 1292.15625 L 306.351562 1295.519531 L 313.757812 1298.03125 L 318.695312 1299.261719 L 321.394531 1298.921875 L 323.242188 1297.25 L 325.921875 1294.628906 L 330.640625 1291.484375 L 336.722656 1288.503906 L 343.019531 1286.425781 L 348.691406 1285.699219 L 354.140625 1285.660156 L 360.078125 1285.355469 L 367.214844 1283.832031 L 375.886719 1280.507812 L 384.929688 1276.277344 L 392.800781 1272.410156 L 398.363281 1269.84375 L 402.085938 1268.210938 L 404.824219 1266.808594 L 407.449219 1264.9375 L 410.585938 1262.175781 L 413.90625 1259.238281 L 416.851562 1257.109375 L 419.007812 1256.625 L 420.605469 1257.941406 L 422.019531 1261.054688 L 423.554688 1265.65625 L 425.207031 1270.230469 L 426.898438 1272.960938 L 428.542969 1272.035156 L 430.085938 1266.320312 L 431.53125 1257.457031 L 432.910156 1247.765625 L 434.25 1239.191406 L 435.570312 1232.117188 L 436.886719 1226.550781 L 438.207031 1222.496094 L 439.550781 1219.828125 L 440.902344 1217.929688 L 442.257812 1216.058594 L 443.601562 1213.644531 L 444.9375 1210.8125 L 446.273438 1207.863281 L 447.613281 1205.011719 L 448.957031 1202.132812 L 450.300781 1199 L 451.644531 1195.402344 L 452.988281 1191.199219 L 454.328125 1186.582031 L 455.671875 1181.8125 L 457.011719 1177.136719 L 458.355469 1172.707031 L 459.699219 1168.652344 L 461.039062 1165.105469 L 462.378906 1162.015625 L 463.71875 1158.585938 L 465.0625 1153.832031 L 466.402344 1147.191406 L 467.746094 1139.734375 L 469.089844 1132.949219 L 470.433594 1127.945312 L 471.777344 1124.347656 L 473.117188 1121.40625 L 474.457031 1118.363281 L 475.800781 1114.652344 L 477.140625 1110.40625 L 478.484375 1105.945312 L 479.824219 1101.535156 L 481.167969 1097.261719 L 482.507812 1093.164062 L 483.851562 1089.273438 L 485.195312 1085.601562 L 486.539062 1082.023438 L 487.878906 1078.386719 L 489.222656 1074.578125 L 490.5625 1070.589844 L 491.902344 1066.464844 L 493.242188 1062.207031 L 494.585938 1057.738281 L 495.929688 1052.949219 L 497.269531 1047.738281 L 498.613281 1042.101562 L 499.957031 1036.472656 L 501.296875 1031.386719 L 502.640625 1027.21875 L 503.984375 1023.691406 L 505.324219 1020.359375 L 506.667969 1016.785156 L 508.007812 1012.6875 L 509.347656 1008.421875 L 510.6875 1004.5 L 512.03125 1001.289062 L 513.375 998.523438 L 514.71875 995.800781 L 516.0625 992.78125 L 517.402344 989.425781 L 518.742188 985.777344 L 520.085938 981.871094 L 521.425781 977.761719 L 522.769531 973.578125 L 524.109375 969.464844 L 525.453125 965.519531 L 526.792969 961.640625 L 528.136719 957.667969 L 529.476562 953.449219 L 530.820312 948.984375 L 532.164062 944.875 L 533.507812 941.890625 L 534.847656 940.351562 L 536.191406 938.875 L 537.53125 935.636719 L 538.871094 929.289062 L 540.210938 920.386719 L 541.554688 909.957031 L 542.898438 899.027344 L 544.242188 888.539062 L 545.589844 879.082031 L 546.929688 871.160156 L 548.261719 865.105469 L 549.59375 860.554688 L 550.933594 856.972656 L 552.28125 853.824219 L 553.652344 850.640625 L 555.042969 847.246094 L 556.460938 843.515625 L 557.882812 839.398438 L 559.15625 835.105469 L 560.105469 830.902344 L 560.511719 826.878906 L 560.011719 822.4375 L 558.195312 816.804688 L 554.660156 809.203125 L 549.3125 799.347656 L 543.277344 788.902344 L 537.996094 780.027344 L 534.558594 774.296875 L 532.648438 770.949219 L 531.605469 768.652344 L 530.773438 766.070312 L 529.628906 762.230469 L 528.226562 757.640625 L 526.757812 753.175781 L 525.375 749.496094 L 524.066406 746.433594 L 522.777344 743.613281 L 521.460938 740.714844 L 520.121094 737.644531 L 518.761719 734.367188 L 517.394531 730.855469 L 516.027344 727.097656 L 514.675781 723.214844 L 513.347656 719.347656 L 512.050781 715.5625 L 510.757812 711.601562 L 509.425781 707.132812 L 508.019531 701.820312 L 506.53125 695.542969 L 505.09375 689.03125 L 503.867188 683.234375 L 502.929688 678.796875 L 501.984375 675.183594 L 500.652344 671.558594 L 498.621094 667.269531 L 495.921875 662.339844 L 492.660156 656.980469 L 488.941406 651.398438 L 484.929688 645.769531 L 481.003906 640.144531 L 477.605469 634.554688 L 475.011719 629.03125 L 472.90625 623.628906 L 470.816406 618.421875 L 468.261719 613.46875 L 464.902344 608.792969 L 460.925781 604.210938 L 456.640625 599.492188 L 452.347656 594.507812 L 448.300781 589.472656 L 444.742188 584.6875 L 441.855469 580.363281 L 439.609375 576.308594 L 437.925781 572.230469 L 436.714844 567.839844 L 435.8125 562.957031 L 434.714844 557.878906 L 432.839844 553.015625 L 429.757812 548.707031 L 425.652344 545.011719 L 420.847656 541.933594 L 415.683594 539.460938 L 410.476562 537.511719 L 405.527344 535.722656 L 401.121094 533.644531 L 397.320312 530.976562 L 393.300781 527.945312 L 388.027344 524.914062 L 380.707031 522.175781 L 371.589844 519.6875 L 361.183594 517.332031 L 349.984375 514.988281 L 338.554688 512.621094 L 327.632812 510.511719 L 318.015625 509.023438 L 310.203125 508.378906 L 303.492188 508.230469 L 296.898438 508.085938 L 289.417969 507.457031 L 288.179688 508.289062 "/>
<path style="fill:none;stroke-width:0.75;stroke-linecap:round;stroke-linejoin:round;stroke:rgb(0%,0%,0%);stroke-opacity:1;stroke-miterlimit:10;" d="M 836.851562 558.335938 L 835.296875 560.167969 L 834.125 562.105469 L 831.324219 564.199219 L 825.53125 566.355469 L 817.890625 567.882812 L 810.183594 567.933594 L 803.875 566.082031 L 799.175781 563.550781 L 795.980469 561.972656 L 794.027344 562.496094 L 792.4375 564.34375 L 790.175781 566.25 L 786.523438 567.203125 L 782.082031 567.148438 L 777.773438 566.269531 L 774.324219 564.804688 L 771.683594 563.160156 L 769.605469 561.796875 L 767.832031 561.160156 L 766.082031 561.5625 L 763.933594 562.738281 L 760.929688 564.277344 L 756.78125 565.910156 L 751.894531 567.945312 L 746.824219 570.824219 L 742.007812 574.800781 L 737.328125 579.300781 L 732.523438 583.5625 L 727.4375 587.066406 L 722.324219 590.296875 L 717.523438 593.988281 L 713.261719 598.667969 L 709.300781 603.972656 L 705.269531 609.335938 L 700.902344 614.300781 L 696.273438 618.855469 L 691.542969 623.113281 L 686.878906 627.183594 L 682.441406 631.191406 L 678.375 635.355469 L 674.820312 639.914062 L 671.859375 644.972656 L 669.3125 650.097656 L 666.941406 654.734375 L 664.558594 658.492188 L 662.203125 661.703125 L 659.953125 664.882812 L 657.808594 668.527344 L 655.355469 673.121094 L 652.089844 679.140625 L 647.714844 686.851562 L 642.789062 695.640625 L 638.09375 704.6875 L 634.234375 713.304688 L 631.207031 721.324219 L 628.84375 728.714844 L 626.972656 735.449219 L 625.394531 741.496094 L 623.761719 746.859375 L 621.691406 751.546875 L 618.96875 755.59375 L 615.980469 759.1875 L 613.277344 762.558594 L 611.203125 765.984375 L 609.285156 770.011719 L 606.835938 775.253906 L 603.332031 782.085938 L 598.835938 789.964844 L 593.570312 798.117188 L 587.820312 805.871094 L 582.132812 812.9375 L 577.121094 819.121094 L 573.257812 824.316406 L 570.417969 828.742188 L 568.347656 832.695312 L 566.777344 836.484375 L 565.46875 840.445312 L 564.273438 845.066406 L 563.066406 850.882812 L 561.753906 858.164062 L 560.375 866.152344 L 558.984375 873.832031 L 557.632812 880.402344 L 556.308594 885.925781 L 554.988281 890.679688 L 553.648438 894.953125 L 552.296875 899.066406 L 550.941406 903.351562 L 549.597656 908.023438 L 548.261719 912.847656 L 546.925781 917.476562 L 545.585938 921.628906 L 544.246094 925.296875 L 542.902344 928.539062 L 541.558594 931.414062 L 540.210938 934.015625 L 538.867188 936.5625 L 537.527344 939.296875 L 536.1875 942.402344 L 534.851562 945.730469 L 533.511719 949.070312 L 532.164062 952.277344 L 530.816406 955.523438 L 529.472656 959.046875 L 528.132812 963.035156 L 526.796875 967.472656 L 525.457031 972.277344 L 524.117188 977.367188 L 522.769531 982.628906 L 521.425781 987.933594 L 520.082031 993.152344 L 518.738281 998.121094 L 517.398438 1002.6875 L 516.058594 1006.675781 L 514.71875 1010.03125 L 513.378906 1013.128906 L 512.039062 1016.441406 L 510.691406 1020.28125 L 509.34375 1024.273438 L 508 1027.875 L 506.664062 1030.726562 L 505.324219 1033.242188 L 503.988281 1036.007812 L 502.644531 1039.480469 L 501.296875 1043.550781 L 499.949219 1047.964844 L 498.609375 1052.566406 L 497.269531 1057.582031 L 495.929688 1063.324219 L 494.589844 1069.976562 L 493.25 1077.175781 L 491.90625 1084.425781 L 490.5625 1091.230469 L 489.21875 1097.222656 L 487.875 1102.5 L 486.53125 1107.292969 L 485.191406 1111.785156 L 483.855469 1115.964844 L 482.515625 1119.769531 L 481.171875 1123.191406 L 479.828125 1126.386719 L 478.480469 1129.574219 L 477.132812 1132.910156 L 475.789062 1136.34375 L 474.453125 1139.773438 L 473.128906 1143.089844 L 471.800781 1146.195312 L 470.453125 1148.972656 L 469.082031 1151.40625 L 467.703125 1153.800781 L 466.347656 1156.558594 L 465.042969 1160.078125 L 463.800781 1164.429688 L 462.53125 1168.417969 L 461.121094 1170.511719 L 459.519531 1170.335938 L 457.9375 1172.132812 L 456.636719 1181.28125 L 455.800781 1201.191406 L 455.257812 1227.320312 L 454.746094 1253.140625 L 454.246094 1273.320312 L 454.730469 1287.300781 L 457.398438 1295.714844 L 462.960938 1299.53125 L 470.132812 1301.066406 L 477.128906 1302.96875 L 482.605469 1307.289062 L 486.996094 1313.664062 L 491.171875 1321.125 L 496.007812 1328.707031 L 502.121094 1335.640625 L 509.117188 1341.929688 L 516.347656 1347.773438 L 523.847656 1353.199219 L 534.402344 1357.515625 L 551.472656 1359.863281 L 576.839844 1359.679688 L 605.546875 1357.597656 L 630.953125 1354.539062 L 648.042969 1351.378906 L 658.296875 1348.734375 L 664.835938 1347.171875 L 670.265625 1346.945312 L 675.164062 1347.078125 L 679.601562 1346.296875 L 683.667969 1343.671875 L 687.5 1339.722656 L 691.25 1335.324219 L 695.074219 1331.351562 L 699.25 1328.40625 L 704.605469 1326.027344 L 712.089844 1323.476562 L 722.171875 1320.191406 L 733.382812 1316.289062 L 743.769531 1312.066406 L 751.75 1307.796875 L 757.222656 1303.71875 L 760.457031 1300.054688 L 761.96875 1296.941406 L 763.238281 1294.148438 L 765.980469 1291.347656 L 771.453125 1288.277344 L 779.019531 1284.867188 L 787.578125 1281.117188 L 796.121094 1277.054688 L 804.019531 1272.886719 L 810.734375 1268.867188 L 815.734375 1265.242188 L 818.832031 1262.164062 L 821.230469 1259.394531 L 824.488281 1256.597656 L 829.75 1253.496094 L 836.535156 1250.039062 L 843.960938 1246.242188 L 851.179688 1242.144531 L 857.472656 1237.910156 L 862.167969 1233.730469 L 864.945312 1229.707031 L 866.921875 1225.59375 L 869.574219 1221.042969 L 874.035156 1215.890625 L 880.0625 1210.660156 L 887.066406 1206.050781 L 894.480469 1202.519531 L 901.828125 1199.558594 L 908.644531 1196.429688 L 914.480469 1192.382812 L 919.050781 1186.917969 L 922.789062 1180.484375 L 926.300781 1173.789062 L 930.007812 1167.433594 L 933.566406 1161.703125 L 936.457031 1156.78125 L 938.328125 1152.820312 L 939.582031 1149.847656 L 940.800781 1147.847656 L 942.476562 1146.441406 L 944.757812 1143.808594 L 947.710938 1137.757812 L 951.277344 1126.914062 L 954.933594 1113.152344 L 958.03125 1099.15625 L 960.140625 1087.027344 L 961.714844 1076.527344 L 963.414062 1066.832031 L 965.90625 1057.117188 L 969.585938 1046.871094 L 973.757812 1036.835938 L 977.472656 1028.074219 L 980.015625 1021.210938 L 981.734375 1015.1875 L 983.214844 1008.511719 L 984.886719 1000.257812 L 986.527344 991.757812 L 987.75 984.910156 L 988.25 980.914062 L 988.0625 978.203125 L 987.308594 974.515625 L 986.238281 968.257812 L 985.609375 960.5625 L 986.308594 953.242188 L 988.875 947.710938 L 992.390625 943.796875 L 995.601562 940.9375 L 997.238281 938.558594 L 996.46875 936.261719 L 994.15625 934.261719 L 991.605469 932.941406 L 989.914062 932.355469 L 989.375 931.238281 L 990.085938 928.007812 L 991.996094 921.621094 L 994.492188 913.261719 L 996.820312 904.65625 L 998.398438 897.132812 L 999.316406 890.410156 L 999.84375 883.804688 L 1000.1875 876.847656 L 1000.339844 869.945312 L 1000.238281 863.722656 L 999.847656 858.476562 L 999.277344 853.214844 L 998.648438 846.605469 L 998.097656 837.324219 L 997.714844 824.417969 L 997.449219 808.394531 L 997.199219 790.128906 L 996.867188 770.878906 L 996.328125 753.457031 L 995.457031 741.0625 L 994.179688 735.734375 L 992.648438 734.925781 L 991.070312 734.925781 L 989.613281 732.824219 L 988.285156 728.867188 L 987.058594 724.082031 L 985.886719 719.320312 L 984.675781 714.695312 L 983.296875 710.132812 L 981.675781 705.582031 L 979.863281 701.039062 L 977.945312 696.527344 L 976.015625 692.070312 L 974.15625 687.707031 L 972.414062 683.574219 L 970.832031 679.839844 L 969.4375 676.597656 L 968.226562 673.707031 L 967.183594 670.96875 L 966.175781 668.160156 L 964.613281 664.980469 L 961.777344 661.117188 L 957.253906 656.328125 L 951.808594 650.660156 L 946.496094 644.234375 L 942.105469 637.242188 L 938.359375 630.1875 L 934.703125 623.640625 L 930.722656 618.074219 L 926.515625 613.554688 L 922.3125 610.046875 L 918.335938 607.511719 L 914.773438 605.835938 L 911.613281 604.550781 L 908.796875 603.105469 L 906.132812 601.046875 L 902.878906 598.296875 L 898.15625 594.886719 L 891.355469 590.875 L 882.949219 586.5 L 873.6875 582.03125 L 864.355469 577.734375 L 855.886719 573.828125 L 849.265625 570.523438 L 845.125 567.894531 L 842.691406 565.515625 L 840.839844 562.828125 L 838.449219 559.265625 L 836.851562 558.335938 "/>
</g>
</svg>
