<?xml version="1.0" encoding="UTF-8"?>
<svg xmlns="http://www.w3.org/2000/svg" xmlns:xlink="http://www.w3.org/1999/xlink" width="1428pt" height="1605pt" viewBox="0 0 1428 1605" version="1.1">
<g id="surface194">
<rect x="0" y="0" width="1428" height="1605" style="fill:rgb(100%,100%,100%);fill-opacity:1;stroke:none;"/>
<path style="fill:none;stroke-width:0.75;stroke-linecap:round;stroke-linejoin:round;stroke:rgb(0%,0%,0%);stroke-opacity:1;stroke-miterlimit:10;" d="M 257.554688 508.769531 L 250.074219 513.105469 L 243.152344 517.222656 L 236.949219 521.066406 L 231.621094 524.597656 L 227.257812 527.800781 L 223.660156 530.832031 L 220.542969 533.886719 L 217.632812 537.160156 L 214.707031 540.785156 L 211.773438 544.664062 L 208.894531 548.636719 L 206.132812 552.546875 L 203.554688 556.238281 L 201.167969 559.597656 L 198.777344 562.726562 L 196.125 565.773438 L 192.964844 568.882812 L 189.144531 572.179688 L 184.929688 575.671875 L 180.6875 579.347656 L 176.78125 583.195312 L 173.582031 587.203125 L 171.277344 591.359375 L 169.335938 595.695312 L 167.042969 600.242188 L 163.695312 605.039062 L 158.824219 610.109375 L 152.957031 615.417969 L 146.855469 620.917969 L 141.289062 626.566406 L 136.855469 632.308594 L 133.464844 638.050781 L 130.851562 643.691406 L 128.765625 649.121094 L 126.933594 654.238281 L 125.144531 658.976562 L 123.328125 663.390625 L 121.460938 667.574219 L 119.523438 671.625 L 117.488281 675.621094 L 115.304688 679.632812 L 112.933594 683.714844 L 110.328125 687.925781 L 107.445312 692.320312 L 104.324219 696.957031 L 101.367188 701.90625 L 99.066406 707.238281 L 97.917969 713.015625 L 98.199219 719.25 L 99.375 725.664062 L 100.6875 731.933594 L 101.390625 737.714844 L 100.929688 742.773438 L 99.53125 747.21875 L 97.621094 751.269531 L 95.625 755.132812 L 93.964844 759.015625 L 92.929688 763.101562 L 92.230469 767.449219 L 91.445312 772.09375 L 90.15625 777.066406 L 88.050781 782.355469 L 85.292969 787.800781 L 82.171875 793.207031 L 78.96875 798.375 L 75.964844 803.097656 L 73.394531 807.25 L 71.25 810.957031 L 69.488281 814.421875 L 68.050781 817.835938 L 66.894531 821.359375 L 66.015625 824.996094 L 65.417969 828.710938 L 65.109375 832.464844 L 65.089844 836.222656 L 65.324219 839.964844 L 65.574219 843.769531 L 65.5625 847.734375 L 65.003906 851.945312 L 63.703125 856.488281 L 61.8125 861.359375 L 59.554688 866.546875 L 57.171875 872.035156 L 54.875 877.792969 L 52.847656 883.691406 L 51.257812 889.601562 L 50.269531 895.382812 L 50.050781 900.890625 L 50.703125 906.027344 L 52.089844 910.851562 L 54.011719 915.464844 L 56.257812 919.960938 L 58.613281 924.421875 L 60.789062 928.847656 L 62.484375 933.222656 L 63.386719 937.527344 L 63.199219 941.746094 L 61.785156 945.878906 L 59.679688 949.996094 L 57.589844 954.175781 L 56.226562 958.5 L 56.097656 963.003906 L 56.910156 967.519531 L 58.179688 971.828125 L 59.417969 975.707031 L 60.265625 979.035156 L 60.90625 982.046875 L 61.652344 985.078125 L 62.820312 988.464844 L 64.71875 992.539062 L 67.519531 997.527344 L 70.820312 1003.234375 L 74.078125 1009.351562 L 76.75 1015.574219 L 78.433594 1021.621094 L 79.320312 1027.316406 L 79.730469 1032.503906 L 79.996094 1037.027344 L 80.445312 1040.734375 L 81.320312 1043.550781 L 82.519531 1045.734375 L 83.851562 1047.609375 L 85.121094 1049.519531 L 86.203125 1051.738281 L 87.179688 1054.328125 L 88.195312 1057.308594 L 89.394531 1060.679688 L 90.921875 1064.460938 L 92.890625 1068.640625 L 95.308594 1073.136719 L 98.152344 1077.855469 L 101.40625 1082.699219 L 105.019531 1087.578125 L 108.855469 1092.398438 L 112.753906 1097.078125 L 116.554688 1101.535156 L 120.136719 1105.738281 L 123.539062 1109.859375 L 126.839844 1114.132812 L 130.125 1118.777344 L 133.46875 1124.027344 L 136.941406 1130.003906 L 140.539062 1136.414062 L 144.257812 1142.863281 L 148.070312 1148.953125 L 151.945312 1154.382812 L 155.714844 1159.207031 L 159.195312 1163.582031 L 162.199219 1167.660156 L 164.53125 1171.59375 L 166.121094 1175.507812 L 167.328125 1179.417969 L 168.632812 1183.320312 L 170.507812 1187.207031 L 173.320312 1191.097656 L 177 1195.152344 L 181.363281 1199.542969 L 186.230469 1204.457031 L 191.414062 1210 L 196.683594 1215.964844 L 201.8125 1222.0625 L 206.5625 1228.011719 L 210.707031 1233.527344 L 214.089844 1238.410156 L 216.878906 1242.800781 L 219.320312 1246.925781 L 221.664062 1251.015625 L 224.167969 1255.257812 L 227.125 1259.71875 L 230.84375 1264.429688 L 235.628906 1269.414062 L 241.789062 1274.703125 L 249.558594 1280.25 L 258.886719 1285.710938 L 269.664062 1290.675781 L 281.769531 1294.71875 L 295 1297.496094 L 308.808594 1298.945312 L 322.574219 1299.074219 L 335.660156 1297.890625 L 347.4375 1295.402344 L 357.523438 1291.71875 L 366.492188 1287.371094 L 375.152344 1282.992188 L 384.324219 1279.214844 L 394.597656 1276.585938 L 405.660156 1275.304688 L 416.972656 1275.480469 L 428 1277.230469 L 438.292969 1280.582031 L 447.785156 1285.199219 L 456.496094 1290.667969 L 464.445312 1296.578125 L 471.65625 1302.503906 L 478.195312 1308.144531 L 484.324219 1313.628906 L 490.34375 1319.207031 L 496.570312 1325.117188 L 503.25 1331.496094 L 510.445312 1338.078125 L 518.152344 1344.488281 L 526.378906 1350.351562 L 535.125 1355.289062 L 544.289062 1359.023438 L 553.371094 1361.617188 L 561.757812 1363.230469 L 568.847656 1364.015625 L 574.171875 1364.164062 L 577.851562 1363.992188 L 580.148438 1363.847656 L 581.324219 1364.078125 L 581.773438 1364.902344 L 582.386719 1366.03125 L 584.195312 1367.054688 L 588.226562 1367.558594 L 595.503906 1367.125 L 606.621094 1365.453125 L 620.441406 1362.703125 L 635.378906 1359.144531 L 649.867188 1355.050781 L 662.667969 1350.664062 L 673.929688 1346.113281 L 684.132812 1341.496094 L 693.769531 1336.914062 L 703.324219 1332.464844 L 713.132812 1328.214844 L 722.929688 1324.082031 L 732.285156 1319.949219 L 740.78125 1315.699219 L 748.136719 1311.253906 L 754.65625 1306.667969 L 760.773438 1302.027344 L 766.929688 1297.421875 L 773.566406 1292.941406 L 780.953125 1288.648438 L 788.675781 1284.527344 L 796.152344 1280.539062 L 802.792969 1276.644531 L 808.199219 1272.824219 L 812.710938 1269.125 L 816.847656 1265.628906 L 821.132812 1262.40625 L 825.984375 1259.476562 L 831.410156 1256.636719 L 837.320312 1253.632812 L 843.621094 1250.203125 L 850.214844 1246.097656 L 857.015625 1241.144531 L 863.957031 1235.515625 L 870.980469 1229.476562 L 878.015625 1223.285156 L 885.003906 1217.171875 L 891.839844 1211.265625 L 898.417969 1205.648438 L 904.632812 1200.414062 L 910.378906 1195.65625 L 915.582031 1191.382812 L 920.316406 1187.289062 L 924.6875 1182.988281 L 928.800781 1178.09375 L 932.738281 1172.367188 L 936.453125 1166.121094 L 939.878906 1159.824219 L 942.9375 1153.933594 L 945.59375 1148.804688 L 947.953125 1144.347656 L 950.144531 1140.375 L 952.300781 1136.683594 L 954.558594 1133.085938 L 956.972656 1129.417969 L 959.289062 1125.664062 L 961.171875 1121.84375 L 962.28125 1117.976562 L 962.429688 1114.035156 L 961.980469 1109.8125 L 961.441406 1105.054688 L 961.316406 1099.507812 L 962.113281 1092.917969 L 964.132812 1085.207031 L 966.828125 1076.976562 L 969.449219 1069.019531 L 971.25 1062.113281 L 971.710938 1056.824219 L 971.226562 1052.839844 L 970.429688 1049.632812 L 969.945312 1046.671875 L 970.285156 1043.507812 L 971.484375 1040.007812 L 973.453125 1036.128906 L 976.113281 1031.820312 L 979.371094 1027.03125 L 983.078125 1021.746094 L 986.796875 1016.066406 L 990.035156 1010.132812 L 992.292969 1004.078125 L 993.214844 998.015625 L 993.066406 991.960938 L 992.246094 985.90625 L 991.171875 979.851562 L 990.25 973.78125 L 989.820312 967.726562 L 989.976562 961.867188 L 990.738281 956.421875 L 992.128906 951.597656 L 994.101562 947.558594 L 996.296875 944.242188 L 998.269531 941.53125 L 999.589844 939.304688 L 999.820312 937.441406 L 998.75 935.722656 L 997.066406 933.503906 L 995.679688 930.027344 L 995.503906 924.550781 L 997.144531 916.644531 L 999.9375 907.164062 L 1002.910156 897.292969 L 1005.085938 888.21875 L 1005.753906 880.882812 L 1005.222656 875.265625 L 1004.0625 871.113281 L 1002.84375 868.160156 L 1002.132812 866.15625 L 1002.335938 864.742188 L 1003.171875 863.160156 L 1004.210938 860.554688 L 1005.003906 856.0625 L 1005.226562 849.097656 L 1004.972656 840.105469 L 1004.449219 829.800781 L 1003.859375 818.894531 L 1003.417969 808.105469 L 1003.265625 798.011719 L 1003.320312 788.679688 L 1003.433594 780.035156 L 1003.464844 772.011719 L 1003.292969 764.554688 L 1002.910156 757.679688 L 1002.320312 751.410156 L 1001.546875 745.769531 L 1000.597656 740.753906 L 999.476562 736.214844 L 998.1875 731.976562 L 996.726562 727.855469 L 995.097656 723.683594 L 993.308594 719.316406 L 991.417969 714.800781 L 989.492188 710.230469 L 987.59375 705.6875 L 985.785156 701.242188 L 984.117188 696.914062 L 982.644531 692.691406 L 981.410156 688.574219 L 980.472656 684.558594 L 979.765625 680.625 L 978.78125 676.734375 L 976.902344 672.816406 L 973.503906 668.824219 L 968.261719 664.707031 L 961.984375 660.507812 L 955.773438 656.269531 L 950.734375 652.046875 L 947.957031 647.890625 L 948.058594 643.8125 L 949.652344 639.675781 L 950.863281 635.296875 L 949.820312 630.496094 L 945.25 625.175781 L 938.292969 619.542969 L 930.699219 613.875 L 924.210938 608.457031 L 920.058594 603.511719 L 917.386719 598.972656 L 914.828125 594.726562 L 911.019531 590.652344 L 904.582031 586.621094 L 894.785156 582.558594 L 883.402344 578.585938 L 872.847656 574.859375 L 865.53125 571.546875 L 862.976562 568.761719 L 863.164062 566.441406 L 863.1875 564.476562 L 860.144531 562.761719 L 851.128906 561.179688 L 834.382812 559.667969 L 812.738281 558.34375 L 790.171875 557.355469 L 770.664062 556.859375 L 757.253906 556.964844 L 749.234375 557.589844 L 744.96875 558.605469 L 742.816406 559.875 L 741.308594 561.328125 L 739.703125 563.089844 L 737.4375 565.328125 L 733.945312 568.226562 L 728.664062 571.960938 L 721.351562 576.613281 L 713.105469 581.886719 L 705.332031 587.398438 L 699.460938 592.757812 L 696.488281 597.65625 L 695.757812 602.070312 L 696.203125 606.058594 L 696.753906 609.675781 L 696.339844 612.976562 L 694.164062 616.046875 L 690.523438 619.074219 L 685.984375 622.289062 L 681.121094 625.910156 L 676.414062 630.105469 L 671.992188 634.839844 L 667.910156 640.023438 L 664.207031 645.566406 L 660.925781 651.382812 L 658.074219 657.351562 L 655.46875 663.269531 L 652.894531 668.890625 L 650.125 673.988281 L 647.007812 678.453125 L 643.679688 682.75 L 640.335938 687.46875 L 637.175781 693.199219 L 634.34375 700.347656 L 631.75 708.542969 L 629.257812 717.230469 L 626.71875 725.84375 L 623.992188 733.832031 L 620.996094 740.75 L 617.910156 746.652344 L 614.972656 751.707031 L 612.433594 756.089844 L 610.441406 759.984375 L 608.792969 763.652344 L 607.207031 767.371094 L 605.382812 771.414062 L 603.035156 776.058594 L 599.933594 781.488281 L 596.109375 787.523438 L 591.652344 793.894531 L 586.644531 800.324219 L 581.25 806.484375 L 575.890625 811.78125 L 571.058594 815.550781 L 567.25 817.140625 L 564.785156 816.121094 L 563.308594 812.9375 L 562.292969 808.28125 L 561.210938 802.820312 L 559.539062 797.242188 L 556.875 792.0625 L 553.339844 787.191406 L 549.175781 782.371094 L 544.636719 777.347656 L 539.957031 771.949219 L 535.390625 766.296875 L 531.171875 760.597656 L 527.554688 755.054688 L 524.773438 749.875 L 522.972656 745.191406 L 521.886719 740.878906 L 521.148438 736.75 L 520.382812 732.609375 L 519.300781 728.308594 L 517.933594 723.84375 L 516.382812 719.246094 L 514.757812 714.554688 L 513.160156 709.804688 L 511.679688 705.007812 L 510.332031 700.089844 L 509.097656 694.960938 L 507.972656 689.527344 L 506.921875 683.746094 L 505.808594 677.800781 L 504.46875 671.925781 L 502.734375 666.355469 L 500.5 661.269531 L 497.855469 656.597656 L 494.949219 652.21875 L 491.925781 648.007812 L 488.929688 643.84375 L 486.082031 639.621094 L 483.414062 635.351562 L 480.933594 631.066406 L 478.648438 626.792969 L 476.546875 622.574219 L 474.550781 618.453125 L 472.554688 614.476562 L 470.464844 610.695312 L 468.179688 607.164062 L 465.613281 603.890625 L 462.71875 600.78125 L 459.464844 597.703125 L 455.820312 594.519531 L 451.832031 591.121094 L 447.851562 587.5 L 444.316406 583.660156 L 441.652344 579.613281 L 440.136719 575.375 L 439.371094 570.984375 L 438.808594 566.480469 L 437.894531 561.902344 L 436.074219 557.292969 L 432.9375 552.710938 L 428.664062 548.269531 L 423.582031 544.089844 L 418.011719 540.300781 L 412.226562 536.980469 L 406.277344 533.96875 L 400.164062 531.070312 L 393.894531 528.078125 L 387.460938 524.785156 L 380.945312 521.09375 L 374.707031 517.300781 L 369.1875 513.820312 L 364.824219 511.050781 L 361.230469 509.285156 L 354.691406 508.335938 L 340.660156 507.894531 L 314.597656 507.660156 L 271.957031 507.324219 L 257.554688 508.769531 "/>
<path style="fill:none;stroke-width:0.75;stroke-linecap:round;stroke-linejoin:round;stroke:rgb(0%,0%,0%);stroke-opacity:1;stroke-miterlimit:10;" d="M 257.496094 508.335938 L 250.691406 513.136719 L 243.09375 517.574219 L 236.175781 521.476562 L 231.050781 524.753906 L 227.332031 527.660156 L 224.25 530.546875 L 221.171875 533.691406 L 217.996094 537.121094 L 214.75 540.785156 L 211.460938 544.648438 L 208.203125 548.640625 L 205.265625 552.59375 L 202.984375 556.324219 L 201.476562 559.695312 L 200 562.820312 L 197.589844 565.855469 L 193.601562 568.945312 L 188.617188 572.164062 L 183.53125 575.550781 L 179.234375 579.160156 L 176.347656 583.019531 L 174.351562 587.121094 L 172.449219 591.433594 L 169.976562 595.9375 L 166.808594 600.578125 L 162.941406 605.308594 L 158.382812 610.082031 L 153.195312 614.902344 L 147.65625 620.019531 L 142.113281 625.734375 L 136.925781 632.183594 L 132.542969 638.835938 L 129.433594 644.992188 L 127.851562 650.140625 L 127.15625 654.496094 L 126.496094 658.464844 L 125.007812 662.441406 L 122.164062 666.730469 L 118.75 671.253906 L 115.886719 675.832031 L 114.308594 680.300781 L 113.222656 684.578125 L 111.464844 688.609375 L 108.242188 692.40625 L 104.242188 696.3125 L 100.535156 700.742188 L 98.183594 706.117188 L 97.886719 712.65625 L 98.933594 719.773438 L 100.246094 726.679688 L 100.9375 732.753906 L 100.921875 738.027344 L 100.300781 742.691406 L 99.175781 746.941406 L 97.675781 750.960938 L 96.015625 754.910156 L 94.429688 758.9375 L 93.101562 763.164062 L 91.960938 767.601562 L 90.878906 772.242188 L 89.699219 777.066406 L 88.175781 782.097656 L 86.03125 787.351562 L 82.988281 792.847656 L 79.007812 798.503906 L 74.992188 803.8125 L 72.085938 808.15625 L 71.011719 811.199219 L 70.804688 813.675781 L 70.097656 816.597656 L 67.941406 820.679688 L 65.121094 825.453125 L 62.859375 830.164062 L 62.371094 834.050781 L 64.332031 836.671875 L 67.222656 838.871094 L 68.972656 841.800781 L 68.082031 846.289062 L 65.25 851.871094 L 61.742188 857.75 L 58.816406 863.125 L 57.375 867.507812 L 56.847656 871.589844 L 56.300781 876.363281 L 55.03125 882.5 L 53.242188 889.367188 L 51.371094 895.996094 L 49.84375 901.65625 L 49.101562 906.5 L 49.582031 910.898438 L 51.726562 915.234375 L 55.640625 919.785156 L 60.121094 924.441406 L 63.628906 929.007812 L 64.988281 933.332031 L 64.421875 937.472656 L 62.527344 941.542969 L 59.878906 945.652344 L 57.136719 949.894531 L 55.230469 954.242188 L 55.160156 958.652344 L 57.414062 963.070312 L 60.445312 967.414062 L 62.199219 971.605469 L 61.269531 975.566406 L 58.859375 979.28125 L 56.828125 982.734375 L 57.03125 985.921875 L 60.648438 988.921875 L 66.144531 992.214844 L 71.3125 996.351562 L 74.449219 1001.742188 L 75.851562 1008.121094 L 76.324219 1015.066406 L 76.582031 1022.125 L 76.953125 1028.777344 L 77.679688 1034.46875 L 78.992188 1038.652344 L 80.976562 1041.042969 L 83.082031 1042.441406 L 84.605469 1043.90625 L 85.070312 1046.242188 L 84.929688 1049.269531 L 84.871094 1052.53125 L 85.582031 1055.59375 L 87.488281 1058.179688 L 90.003906 1060.699219 L 92.285156 1063.730469 L 93.785156 1067.703125 L 95.09375 1072.433594 L 97.097656 1077.605469 L 100.433594 1082.910156 L 104.71875 1088.148438 L 109.320312 1093.152344 L 113.605469 1097.753906 L 117.125 1101.84375 L 120.148438 1105.636719 L 123.128906 1109.398438 L 126.417969 1113.421875 L 129.957031 1118 L 133.582031 1123.453125 L 137.164062 1129.925781 L 140.722656 1136.925781 L 144.3125 1143.800781 L 147.980469 1149.894531 L 151.75 1154.769531 L 155.46875 1158.835938 L 158.957031 1162.71875 L 162.050781 1166.90625 L 164.660156 1171.335938 L 166.730469 1175.804688 L 168.199219 1180.109375 L 169.144531 1184.089844 L 170.246094 1187.761719 L 172.316406 1191.171875 L 175.941406 1194.476562 L 180.800781 1198.234375 L 186.335938 1203.109375 L 192.039062 1209.5 L 197.566406 1216.710938 L 202.617188 1223.78125 L 206.890625 1229.761719 L 210.234375 1234.039062 L 213.0625 1237.417969 L 215.9375 1241.066406 L 219.238281 1245.808594 L 222.625 1251.175781 L 225.585938 1256.351562 L 227.859375 1260.761719 L 230.28125 1264.742188 L 233.933594 1268.839844 L 239.917969 1273.621094 L 248.921875 1279.398438 L 260.054688 1285.507812 L 272.015625 1291.050781 L 283.789062 1295.273438 L 295.476562 1298.042969 L 307.457031 1299.386719 L 320.105469 1299.324219 L 333.546875 1297.917969 L 346.863281 1295.394531 L 358.882812 1292.011719 L 368.820312 1288.066406 L 377.382812 1283.96875 L 385.671875 1280.152344 L 394.492188 1276.949219 L 403.488281 1274.253906 L 412.019531 1271.84375 L 419.445312 1269.503906 L 425.25 1266.90625 L 429.476562 1263.269531 L 432.296875 1257.707031 L 433.9375 1249.738281 L 434.824219 1240.574219 L 435.453125 1231.835938 L 436.308594 1225.136719 L 437.726562 1221.554688 L 439.476562 1219.976562 L 441.179688 1218.742188 L 442.546875 1216.5625 L 443.699219 1213.628906 L 444.835938 1210.507812 L 446.121094 1207.632812 L 447.527344 1204.910156 L 448.972656 1202.128906 L 450.390625 1199.058594 L 451.71875 1195.515625 L 452.996094 1191.4375 L 454.285156 1186.800781 L 455.621094 1181.675781 L 456.996094 1176.589844 L 458.371094 1172.167969 L 459.722656 1168.804688 L 461.054688 1165.949219 L 462.378906 1162.816406 L 463.707031 1158.609375 L 465.050781 1152.839844 L 466.402344 1146.167969 L 467.753906 1139.554688 L 469.097656 1133.765625 L 470.433594 1128.84375 L 471.769531 1124.636719 L 473.109375 1120.996094 L 474.453125 1117.726562 L 475.800781 1114.449219 L 477.148438 1110.730469 L 478.488281 1106.296875 L 479.828125 1101.523438 L 481.164062 1096.9375 L 482.503906 1092.925781 L 483.847656 1089.34375 L 485.191406 1085.898438 L 486.535156 1082.300781 L 487.878906 1078.355469 L 489.222656 1074.242188 L 490.566406 1070.230469 L 491.90625 1066.472656 L 493.246094 1062.628906 L 494.585938 1058.238281 L 495.925781 1053.007812 L 497.269531 1047.269531 L 498.613281 1041.503906 L 499.957031 1036.210938 L 501.296875 1031.730469 L 502.636719 1027.820312 L 503.980469 1024.089844 L 505.324219 1020.230469 L 506.667969 1016.273438 L 508.011719 1012.324219 L 509.351562 1008.496094 L 510.691406 1004.878906 L 512.03125 1001.511719 L 513.371094 998.414062 L 516.058594 992.6875 L 517.402344 989.539062 L 518.746094 985.890625 L 520.085938 981.875 L 521.429688 977.691406 L 522.769531 973.550781 L 524.109375 969.585938 L 525.453125 965.671875 L 526.792969 961.605469 L 528.132812 957.28125 L 529.476562 952.972656 L 530.820312 949.058594 L 532.164062 945.789062 L 533.511719 942.972656 L 534.855469 940.289062 L 536.195312 937.429688 L 537.527344 933.976562 L 538.859375 929.078125 L 540.199219 921.792969 L 541.554688 911.597656 L 542.914062 899.730469 L 544.265625 887.871094 L 545.597656 877.6875 L 546.902344 870.394531 L 548.214844 865.320312 L 549.5625 861.335938 L 550.972656 857.519531 L 552.386719 853.792969 L 553.734375 850.296875 L 554.972656 847.0625 L 556.183594 843.761719 L 557.472656 839.964844 L 558.9375 835.242188 L 560.597656 829.355469 L 562.097656 822.824219 L 562.984375 816.371094 L 562.929688 810.570312 L 562.0625 805.457031 L 560.652344 800.933594 L 558.941406 796.902344 L 557.046875 793.167969 L 554.503906 789.15625 L 550.695312 784.199219 L 545.3125 777.90625 L 539.277344 770.976562 L 533.800781 764.402344 L 529.832031 758.921875 L 527.1875 754.363281 L 525.421875 750.304688 L 524.070312 746.335938 L 522.769531 742.113281 L 521.4375 737.582031 L 520.09375 732.757812 L 518.742188 727.707031 L 517.390625 722.707031 L 516.046875 718.089844 L 514.714844 714.050781 L 513.386719 710.246094 L 512.050781 706.207031 L 510.699219 701.460938 L 509.328125 695.699219 L 507.96875 689.304688 L 506.660156 682.824219 L 505.40625 676.726562 L 504.089844 671.117188 L 502.554688 666.019531 L 500.660156 661.457031 L 498.285156 657.371094 L 495.480469 653.378906 L 492.316406 649 L 488.929688 643.960938 L 485.613281 638.71875 L 482.714844 633.925781 L 480.46875 630.03125 L 478.667969 626.71875 L 477 623.46875 L 475.148438 619.761719 L 472.886719 615.289062 L 470.355469 610.558594 L 467.78125 606.292969 L 465.308594 603.003906 L 462.6875 600.351562 L 459.585938 597.796875 L 455.8125 594.894531 L 451.722656 591.582031 L 447.824219 587.898438 L 444.613281 583.875 L 442.421875 579.566406 L 440.867188 575.109375 L 439.402344 570.652344 L 437.617188 566.300781 L 435.664062 561.992188 L 433.835938 557.617188 L 432.4375 553.066406 L 431.355469 548.316406 L 428.878906 543.730469 L 422.898438 539.757812 L 412.371094 536.683594 L 400.546875 534.117188 L 391.734375 531.507812 L 388.859375 528.421875 L 389.273438 524.917969 L 388.925781 521.179688 L 383.769531 517.390625 L 371.660156 513.769531 L 358.0625 510.726562 L 350.339844 508.699219 L 351.753906 507.949219 L 349.148438 507.972656 L 325.261719 508.082031 L 262.84375 507.589844 L 257.496094 508.335938 "/>
<path style="fill:none;stroke-width:0.75;stroke-linecap:round;stroke-linejoin:round;stroke:rgb(0%,0%,0%);stroke-opacity:1;stroke-miterlimit:10;" d="M 757.355469 555.910156 L 752.917969 557.484375 L 747.609375 558.886719 L 743.121094 560.269531 L 740.621094 561.785156 L 739.121094 563.507812 L 737.117188 565.507812 L 733.40625 567.90625 L 728.074219 571.089844 L 721.511719 575.519531 L 714.207031 581.382812 L 707.011719 587.863281 L 700.867188 593.890625 L 696.53125 598.648438 L 694.046875 602.394531 L 693.277344 605.65625 L 694.082031 608.957031 L 695.964844 612.65625 L 697.019531 616.46875 L 694.976562 619.945312 L 688.5 622.835938 L 679.960938 625.679688 L 672.65625 629.21875 L 668.957031 633.972656 L 667.542969 639.621094 L 666.167969 645.617188 L 663.132812 651.539062 L 658.996094 657.378906 L 654.855469 663.257812 L 651.570312 669.195312 L 648.992188 674.894531 L 646.726562 679.957031 L 644.367188 684.003906 L 641.597656 687.039062 L 638.386719 690.683594 L 634.789062 696.953125 L 630.941406 707.03125 L 627.382812 718.773438 L 624.742188 729.191406 L 623.355469 736.121094 L 622.347656 740.652344 L 620.550781 744.6875 L 617.160156 749.6875 L 612.894531 755.367188 L 608.84375 760.992188 L 606.101562 765.832031 L 605.304688 769.414062 L 605.316406 772.296875 L 604.546875 775.304688 L 601.78125 779.164062 L 597.273438 784.269531 L 591.648438 790.925781 L 585.5625 799.136719 L 579.824219 807.695312 L 575.257812 815.085938 L 572.441406 820.230469 L 570.875 823.785156 L 569.789062 826.839844 L 568.566406 830.300781 L 567.171875 834.417969 L 565.703125 839.25 L 564.269531 844.875 L 562.941406 851.304688 L 561.679688 858.363281 L 560.402344 865.824219 L 559.054688 873.394531 L 557.667969 880.503906 L 556.285156 886.527344 L 554.945312 891.078125 L 553.628906 894.804688 L 552.3125 898.585938 L 550.972656 903.09375 L 549.617188 908.074219 L 548.261719 913.042969 L 546.914062 917.601562 L 545.574219 921.691406 L 544.238281 925.320312 L 542.902344 928.503906 L 541.5625 931.304688 L 540.21875 933.914062 L 538.875 936.578125 L 537.53125 939.472656 L 536.1875 942.550781 L 534.84375 945.699219 L 533.5 948.839844 L 532.160156 952.066406 L 530.820312 955.496094 L 529.480469 959.234375 L 528.140625 963.28125 L 526.800781 967.625 L 525.453125 972.238281 L 524.109375 977.113281 L 522.761719 982.253906 L 521.417969 987.679688 L 520.082031 993.304688 L 518.75 998.671875 L 517.410156 1003.226562 L 516.066406 1006.640625 L 514.714844 1009.488281 L 513.367188 1012.578125 L 512.027344 1016.457031 L 510.6875 1020.707031 L 509.351562 1024.660156 L 508.011719 1027.832031 L 506.671875 1030.484375 L 505.328125 1033.054688 L 503.984375 1035.988281 L 502.636719 1039.609375 L 501.289062 1043.738281 L 499.949219 1048.078125 L 498.613281 1052.472656 L 497.277344 1057.285156 L 495.941406 1063.011719 L 494.589844 1069.941406 L 493.238281 1077.480469 L 491.890625 1084.816406 L 490.554688 1091.316406 L 489.222656 1097.058594 L 487.886719 1102.285156 L 486.542969 1107.199219 L 485.191406 1111.804688 L 483.839844 1116.042969 L 482.5 1119.859375 L 481.175781 1123.253906 L 479.847656 1126.402344 L 478.5 1129.53125 L 477.125 1132.816406 L 475.746094 1136.238281 L 474.410156 1139.726562 L 473.136719 1143.179688 L 471.867188 1146.402344 L 470.539062 1149.167969 L 469.097656 1151.386719 L 467.621094 1153.511719 L 466.203125 1156.136719 L 464.941406 1159.847656 L 463.871094 1164.789062 L 462.773438 1169.332031 L 461.363281 1171.402344 L 459.503906 1170.316406 L 457.617188 1170.980469 L 456.277344 1179.691406 L 455.832031 1200.421875 L 455.800781 1227.875 L 455.484375 1254.421875 L 454.566406 1274.011719 L 454.257812 1286.902344 L 456.140625 1294.910156 L 461.304688 1299.804688 L 468.835938 1303.074219 L 477.316406 1306.15625 L 485.328125 1310.488281 L 491.851562 1317.035156 L 497.433594 1324.914062 L 503.015625 1332.789062 L 509.402344 1339.585938 L 516.84375 1345.355469 L 525.460938 1350.40625 L 535.199219 1354.964844 L 545.324219 1358.871094 L 554.933594 1361.859375 L 563.214844 1363.738281 L 569.710938 1364.570312 L 574.058594 1364.484375 L 576.171875 1363.703125 L 577.070312 1362.8125 L 578.066406 1362.507812 L 580.460938 1363.472656 L 585.035156 1365.992188 L 590.453125 1368.71875 L 594.859375 1369.902344 L 597.402344 1368.320312 L 601.285156 1364.878906 L 610.71875 1361.023438 L 628.234375 1357.828125 L 649.621094 1354.921875 L 668.976562 1351.570312 L 681.839844 1347.234375 L 689.503906 1342.183594 L 694.699219 1336.882812 L 700.15625 1331.804688 L 708.007812 1327.296875 L 718.023438 1323.285156 L 729.371094 1319.578125 L 741.105469 1315.964844 L 751.773438 1312.121094 L 759.804688 1307.691406 L 764.316406 1302.503906 L 767.179688 1297.070312 L 770.953125 1292.070312 L 777.519531 1287.988281 L 786.039062 1284.480469 L 794.988281 1280.996094 L 803.085938 1277.121094 L 809.96875 1273.003906 L 815.507812 1268.929688 L 819.570312 1265.179688 L 822.285156 1261.960938 L 824.753906 1259.148438 L 828.34375 1256.53125 L 834.074219 1253.859375 L 841.613281 1250.738281 L 850.292969 1246.726562 L 859.375 1241.542969 L 867.820312 1235.5625 L 874.53125 1229.320312 L 878.925781 1223.242188 L 882.527344 1217.300781 L 887.378906 1211.347656 L 894.890625 1205.34375 L 903.910156 1199.601562 L 912.664062 1194.53125 L 919.367188 1190.550781 L 922.878906 1187.734375 L 924.636719 1184.84375 L 926.71875 1180.304688 L 930.632812 1173.152344 L 935.613281 1164.847656 L 940.332031 1157.464844 L 943.773438 1152.488281 L 946.195312 1149.085938 L 948.179688 1145.839844 L 950.199219 1141.671875 L 952.320312 1136.894531 L 954.511719 1132.160156 L 956.738281 1128.125 L 958.917969 1125.160156 L 960.792969 1122.523438 L 962.0625 1119.1875 L 962.527344 1114.457031 L 962.429688 1108.957031 L 962.128906 1103.648438 L 961.972656 1099.09375 L 962.3125 1094.277344 L 963.503906 1087.785156 L 965.722656 1078.800781 L 968.382812 1068.878906 L 970.738281 1060.175781 L 972.171875 1054.316406 L 972.660156 1050.832031 L 972.320312 1048.726562 L 971.277344 1047.015625 L 969.851562 1044.828125 L 969.183594 1041.828125 L 970.609375 1037.804688 L 974.910156 1032.660156 L 980.628906 1026.78125 L 985.738281 1020.664062 L 988.730469 1014.726562 L 990.089844 1009.054688 L 990.824219 1003.648438 L 991.683594 998.445312 L 992.460938 993.113281 L 992.707031 987.261719 L 992.136719 980.644531 L 991.078125 973.667969 L 990.03125 966.878906 L 989.484375 960.835938 L 989.851562 955.917969 L 991.234375 951.796875 L 993.648438 947.96875 L 996.890625 944.117188 L 999.824219 940.65625 L 1001.101562 938.175781 L 999.871094 936.976562 L 997.332031 936.160156 L 995.203125 934.535156 L 994.808594 931.097656 L 995.992188 925.636719 L 998.210938 918.128906 L 1000.925781 908.554688 L 1003.566406 897.285156 L 1005.445312 886.261719 L 1005.847656 877.816406 L 1004.425781 873.503906 L 1002.367188 871.722656 L 1001.230469 870.09375 L 1002.082031 866.914062 L 1003.972656 863.125 L 1005.464844 860.359375 L 1005.5 859.460938 L 1004.597656 858.226562 L 1003.65625 853.675781 L 1003.375 843.785156 L 1003.617188 830.378906 L 1004.046875 816.234375 L 1004.324219 804.125 L 1004.203125 795.914062 L 1003.820312 789.789062 L 1003.414062 783.019531 L 1003.144531 773.730469 L 1002.941406 763.5 L 1002.664062 754.757812 L 1002.199219 749.222656 L 1001.539062 745.765625 L 1000.695312 742.539062 L 999.675781 738.136719 L 998.425781 732.890625 L 996.878906 727.578125 L 995.003906 722.8125 L 992.972656 718.519531 L 990.992188 714.46875 L 989.269531 710.417969 L 987.910156 706.183594 L 986.566406 701.753906 L 984.789062 697.152344 L 982.378906 692.46875 L 980.128906 687.953125 L 979.085938 683.914062 L 979.75 680.511719 L 980.507812 677.3125 L 979.203125 673.75 L 974.351562 669.421875 L 967.1875 664.601562 L 959.613281 659.726562 L 953.539062 655.25 L 950.378906 651.457031 L 949.574219 648.019531 L 950.089844 644.453125 L 950.859375 640.371094 L 950.757812 635.746094 L 948.65625 630.640625 L 943.859375 625.148438 L 937.511719 619.457031 L 931.195312 613.773438 L 926.101562 608.308594 L 921.855469 603.191406 L 917.675781 598.550781 L 912.921875 594.449219 L 907.496094 590.691406 L 901.433594 587.015625 L 894.78125 583.164062 L 887.542969 578.996094 L 879.628906 574.84375 L 870.921875 571.152344 L 861.808594 568.261719 L 854.679688 566.058594 L 852.421875 564.328125 L 855.835938 562.863281 L 857.34375 561.539062 L 847.273438 560.242188 L 819.972656 558.898438 L 785.855469 557.558594 L 759.363281 556.316406 L 754.921875 555.257812 L 757.355469 555.910156 "/>
</g>
</svg>
