<?xml version="1.0" encoding="UTF-8"?>
<svg xmlns="http://www.w3.org/2000/svg" xmlns:xlink="http://www.w3.org/1999/xlink" width="1428pt" height="1605pt" viewBox="0 0 1428 1605" version="1.1">
<g id="surface199">
<rect x="0" y="0" width="1428" height="1605" style="fill:rgb(100%,100%,100%);fill-opacity:1;stroke:none;"/>
<path style="fill:none;stroke-width:0.75;stroke-linecap:round;stroke-linejoin:round;stroke:rgb(0%,0%,0%);stroke-opacity:1;stroke-miterlimit:10;" d="M 303.882812 489.46875 L 297.894531 492.753906 L 289.585938 495.710938 L 279.8125 498.628906 L 269.417969 501.792969 L 259.175781 505.417969 L 249.46875 509.375 L 240.605469 513.464844 L 232.886719 517.484375 L 226.617188 521.230469 L 221.945312 524.570312 L 218.425781 527.65625 L 215.464844 530.71875 L 212.464844 533.980469 L 208.988281 537.597656 L 205.25 541.46875 L 201.617188 545.414062 L 198.460938 549.257812 L 196.15625 552.828125 L 194.882812 556.015625 L 194.042969 558.972656 L 192.855469 561.914062 L 190.539062 565.0625 L 186.539062 568.601562 L 181.242188 572.625 L 175.269531 577.191406 L 169.242188 582.355469 L 163.78125 588.179688 L 159.347656 594.621094 L 155.761719 601.199219 L 152.683594 607.34375 L 149.773438 612.464844 L 146.761719 616.175781 L 143.65625 618.832031 L 140.535156 620.976562 L 137.472656 623.152344 L 134.546875 625.902344 L 131.8125 629.636719 L 129.234375 634.21875 L 126.746094 639.367188 L 124.289062 644.816406 L 121.8125 650.324219 L 119.304688 655.796875 L 116.761719 661.1875 L 114.179688 666.4375 L 111.558594 671.496094 L 108.90625 676.339844 L 106.28125 681.109375 L 103.753906 685.972656 L 101.394531 691.101562 L 99.269531 696.65625 L 97.425781 702.757812 L 95.894531 709.519531 L 94.714844 717.046875 L 93.925781 725.457031 L 93.515625 734.699219 L 93.300781 744.105469 L 93.039062 752.851562 L 92.5 760.117188 L 91.503906 765.332031 L 90.121094 768.980469 L 88.476562 771.816406 L 86.691406 774.574219 L 84.890625 778.007812 L 83.167969 782.636719 L 81.480469 788.078125 L 79.742188 793.726562 L 77.882812 798.976562 L 75.859375 803.382812 L 73.804688 807.113281 L 71.878906 810.492188 L 70.257812 813.847656 L 69.101562 817.511719 L 68.507812 821.695312 L 68.261719 826.207031 L 68.078125 830.730469 L 67.667969 834.96875 L 66.816406 838.695312 L 65.585938 842.015625 L 64.113281 845.121094 L 62.535156 848.199219 L 60.984375 851.441406 L 59.570312 854.992188 L 58.28125 858.789062 L 57.070312 862.722656 L 55.898438 866.6875 L 54.734375 870.628906 L 53.59375 874.691406 L 52.503906 879.085938 L 51.5 884.011719 L 50.605469 889.675781 L 49.886719 896.160156 L 49.535156 903.078125 L 49.777344 909.925781 L 50.832031 916.199219 L 52.800781 921.519531 L 55.21875 926.035156 L 57.496094 930.015625 L 59.046875 933.746094 L 59.273438 937.496094 L 57.84375 941.480469 L 55.425781 945.691406 L 52.945312 950.058594 L 51.332031 954.511719 L 51.257812 958.980469 L 52.394531 963.410156 L 54.15625 967.738281 L 55.960938 971.90625 L 57.226562 975.859375 L 57.585938 979.5625 L 57.539062 983.0625 L 57.796875 986.425781 L 59.078125 989.722656 L 61.859375 993.03125 L 65.644531 996.46875 L 69.710938 1000.15625 L 73.332031 1004.226562 L 75.777344 1008.800781 L 76.570312 1013.921875 L 76.230469 1019.300781 L 75.542969 1024.570312 L 75.277344 1029.359375 L 76.023438 1033.390625 L 77.601562 1036.757812 L 79.644531 1039.640625 L 81.777344 1042.222656 L 83.640625 1044.691406 L 84.941406 1047.195312 L 85.738281 1049.78125 L 86.164062 1052.453125 L 86.351562 1055.21875 L 86.449219 1058.078125 L 86.609375 1061.007812 L 87.003906 1063.964844 L 87.792969 1066.914062 L 89.140625 1069.824219 L 91.1875 1072.703125 L 93.933594 1075.773438 L 97.363281 1079.308594 L 101.453125 1083.578125 L 106.136719 1088.757812 L 111.171875 1094.640625 L 116.28125 1100.929688 L 121.179688 1107.328125 L 125.589844 1113.53125 L 129.335938 1119.335938 L 132.691406 1124.910156 L 136.039062 1130.523438 L 139.757812 1136.433594 L 144.109375 1142.820312 L 148.84375 1149.484375 L 153.578125 1156.144531 L 157.945312 1162.511719 L 161.5625 1168.296875 L 164.175781 1173.289062 L 166.011719 1177.546875 L 167.417969 1181.203125 L 168.738281 1184.386719 L 170.265625 1187.230469 L 172.066406 1189.886719 L 174.15625 1192.496094 L 176.546875 1195.210938 L 179.253906 1198.179688 L 182.289062 1201.53125 L 185.648438 1205.292969 L 189.316406 1209.46875 L 193.292969 1214.066406 L 197.523438 1219.042969 L 201.78125 1224.1875 L 205.804688 1229.226562 L 209.316406 1233.902344 L 212.058594 1237.941406 L 213.914062 1241.226562 L 215.414062 1244.203125 L 217.246094 1247.449219 L 220.09375 1251.550781 L 224.46875 1256.90625 L 230.175781 1263.179688 L 236.832031 1269.84375 L 244.070312 1276.375 L 251.511719 1282.242188 L 258.867188 1287.046875 L 266.175781 1290.894531 L 273.566406 1294.015625 L 281.171875 1296.632812 L 289.070312 1298.941406 L 297.210938 1300.949219 L 305.484375 1302.644531 L 313.796875 1304 L 322.046875 1304.992188 L 330.144531 1305.59375 L 338.0625 1305.765625 L 345.777344 1305.457031 L 353.273438 1304.617188 L 360.519531 1303.207031 L 367.496094 1301.21875 L 374.164062 1298.652344 L 380.484375 1295.507812 L 386.433594 1291.789062 L 392.019531 1287.5625 L 397.457031 1283.183594 L 402.996094 1279.066406 L 408.894531 1275.636719 L 415.308594 1273.242188 L 421.960938 1271.960938 L 428.464844 1271.792969 L 434.4375 1272.746094 L 439.492188 1274.828125 L 443.433594 1277.992188 L 446.765625 1282.019531 L 450.183594 1286.632812 L 454.375 1291.5625 L 459.824219 1296.5625 L 466.199219 1301.507812 L 472.960938 1306.292969 L 479.574219 1310.816406 L 485.496094 1314.984375 L 490.347656 1318.734375 L 494.371094 1322.179688 L 497.957031 1325.472656 L 501.503906 1328.769531 L 505.328125 1332.191406 L 509.402344 1335.730469 L 513.605469 1339.351562 L 517.832031 1343.015625 L 521.964844 1346.683594 L 525.996094 1350.328125 L 530.304688 1353.964844 L 535.371094 1357.609375 L 541.679688 1361.289062 L 549.558594 1364.964844 L 558.75 1368.371094 L 568.84375 1371.167969 L 579.429688 1373.023438 L 590.101562 1373.613281 L 600.542969 1372.726562 L 610.855469 1370.65625 L 621.234375 1367.824219 L 631.875 1364.640625 L 642.898438 1361.4375 L 654.097656 1358.183594 L 665.191406 1354.75 L 675.894531 1351.011719 L 685.921875 1346.84375 L 695.105469 1342.191406 L 703.75 1337.253906 L 712.277344 1332.296875 L 721.105469 1327.597656 L 730.511719 1323.339844 L 740.179688 1319.417969 L 749.648438 1315.648438 L 758.460938 1311.851562 L 766.152344 1307.839844 L 772.476562 1303.464844 L 778.015625 1298.730469 L 783.574219 1293.667969 L 789.9375 1288.3125 L 797.664062 1282.738281 L 806.304688 1277.144531 L 815.167969 1271.773438 L 823.558594 1266.863281 L 830.777344 1262.652344 L 836.414062 1259.261719 L 841.15625 1256.34375 L 845.96875 1253.433594 L 851.816406 1250.066406 L 859.347656 1245.902344 L 867.953125 1241.09375 L 876.710938 1235.914062 L 884.6875 1230.648438 L 890.960938 1225.5625 L 894.929688 1220.894531 L 897.300781 1216.679688 L 899.09375 1212.910156 L 901.347656 1209.585938 L 904.84375 1206.632812 L 909.394531 1203.761719 L 914.574219 1200.617188 L 919.949219 1196.84375 L 925.09375 1192.089844 L 929.675781 1186.144531 L 933.746094 1179.394531 L 937.453125 1172.367188 L 940.945312 1165.589844 L 944.34375 1159.484375 L 947.671875 1154.035156 L 950.921875 1149.109375 L 954.097656 1144.582031 L 957.191406 1140.328125 L 960.164062 1136.222656 L 962.859375 1132.183594 L 965.074219 1128.125 L 966.613281 1123.964844 L 967.375 1119.589844 L 967.597656 1114.742188 L 967.625 1109.136719 L 967.78125 1102.476562 L 968.410156 1094.476562 L 969.734375 1085.050781 L 971.550781 1074.949219 L 973.546875 1065.121094 L 975.414062 1056.527344 L 976.929688 1049.839844 L 978.230469 1044.617188 L 979.554688 1040.136719 L 981.128906 1035.679688 L 983.179688 1030.523438 L 985.835938 1024.191406 L 988.78125 1017.171875 L 991.597656 1010.203125 L 993.867188 1004.019531 L 995.277344 999.140625 L 995.953125 995.25 L 996.117188 991.824219 L 995.996094 988.335938 L 995.824219 984.253906 L 995.800781 979.199219 L 996.019531 973.386719 L 996.550781 967.175781 L 997.460938 960.925781 L 998.769531 954.960938 L 1000.296875 949.476562 L 1001.804688 944.628906 L 1003.0625 940.578125 L 1003.839844 937.484375 L 1003.996094 935.320312 L 1003.78125 933.292969 L 1003.542969 930.425781 L 1003.617188 925.746094 L 1004.257812 918.605469 L 1005.367188 909.664062 L 1006.738281 899.914062 L 1008.183594 890.339844 L 1009.503906 881.941406 L 1010.527344 875.371094 L 1011.171875 869.988281 L 1011.378906 864.816406 L 1011.085938 858.878906 L 1010.28125 851.5 L 1009.144531 843.214844 L 1007.890625 834.855469 L 1006.746094 827.253906 L 1005.925781 821.253906 L 1005.601562 817.375 L 1005.746094 814.9375 L 1006.269531 812.957031 L 1007.097656 810.441406 L 1008.125 806.648438 L 1009.207031 801.777344 L 1010.175781 796.269531 L 1010.859375 790.5625 L 1011.097656 785.105469 L 1010.792969 780.207031 L 1010.113281 775.710938 L 1009.304688 771.320312 L 1008.601562 766.757812 L 1008.1875 761.808594 L 1007.96875 756.628906 L 1007.808594 751.441406 L 1007.550781 746.484375 L 1007.050781 741.980469 L 1006.203125 738.078125 L 1005.050781 734.582031 L 1003.683594 731.214844 L 1002.1875 727.695312 L 1000.632812 723.777344 L 998.996094 719.332031 L 997.238281 714.261719 L 995.316406 708.480469 L 993.1875 701.886719 L 990.855469 694.519531 L 988.476562 686.941406 L 986.246094 679.839844 L 984.375 673.90625 L 982.953125 669.601562 L 981.664062 666.410156 L 980.089844 663.589844 L 977.816406 660.398438 L 974.417969 656.085938 L 969.667969 650.175781 L 964.09375 643.246094 L 958.410156 636.148438 L 953.335938 629.726562 L 949.394531 624.605469 L 946.367188 620.523438 L 943.847656 616.992188 L 941.425781 613.53125 L 938.691406 609.652344 L 935.316406 605.023438 L 931.296875 599.917969 L 926.703125 594.757812 L 921.601562 589.964844 L 916.117188 585.871094 L 910.53125 582.464844 L 905.1875 579.640625 L 900.414062 577.296875 L 896.550781 575.328125 L 893.757812 573.597656 L 891.53125 571.84375 L 889.1875 569.765625 L 886.046875 567.066406 L 881.582031 563.5625 L 875.847656 559.523438 L 869.058594 555.332031 L 861.421875 551.363281 L 853.148438 548.007812 L 844.460938 545.578125 L 835.613281 544.136719 L 826.867188 543.683594 L 818.488281 544.214844 L 810.6875 545.648438 L 803.429688 547.597656 L 796.621094 549.578125 L 790.175781 551.125 L 783.996094 551.757812 L 778.015625 551.191406 L 772.257812 549.871094 L 766.777344 548.425781 L 761.621094 547.480469 L 756.816406 547.535156 L 752.300781 548.546875 L 747.992188 550.339844 L 743.808594 552.742188 L 739.667969 555.582031 L 735.496094 558.699219 L 731.269531 562.007812 L 726.964844 565.4375 L 722.558594 568.925781 L 718.050781 572.421875 L 713.464844 575.957031 L 708.847656 579.582031 L 704.238281 583.347656 L 699.683594 587.304688 L 695.230469 591.457031 L 690.992188 595.617188 L 687.085938 599.546875 L 683.636719 603.019531 L 680.710938 605.890625 L 678.183594 608.449219 L 675.878906 611.074219 L 673.621094 614.140625 L 671.238281 618.035156 L 668.585938 623.003906 L 665.683594 628.746094 L 662.578125 634.839844 L 659.324219 640.851562 L 655.980469 646.433594 L 652.679688 651.558594 L 649.566406 656.28125 L 646.785156 660.65625 L 644.480469 664.738281 L 642.710938 668.621094 L 641.207031 672.523438 L 639.613281 676.710938 L 637.578125 681.445312 L 634.855469 686.898438 L 631.65625 692.871094 L 628.304688 699.070312 L 625.121094 705.214844 L 622.4375 711.011719 L 620.453125 716.273438 L 618.914062 721.242188 L 617.453125 726.246094 L 615.699219 731.625 L 613.367188 737.664062 L 610.496094 744.382812 L 607.207031 751.761719 L 603.621094 759.765625 L 599.867188 768.363281 L 596.054688 777.375 L 592.234375 785.988281 L 588.457031 793.246094 L 584.769531 798.179688 L 581.136719 800.035156 L 577.246094 798.90625 L 572.714844 795.078125 L 567.144531 788.851562 L 560.152344 780.515625 L 551.617188 770.511719 L 542.484375 759.808594 L 533.96875 749.527344 L 527.289062 740.78125 L 523.308594 734.367188 L 521.53125 729.796875 L 521.117188 726.25 L 521.21875 722.925781 L 520.992188 719.003906 L 519.804688 713.882812 L 517.847656 707.777344 L 515.535156 701.113281 L 513.265625 694.308594 L 511.351562 687.734375 L 509.753906 681.503906 L 508.335938 675.695312 L 506.960938 670.363281 L 505.496094 665.578125 L 503.832031 661.347656 L 501.980469 657.46875 L 499.980469 653.671875 L 497.867188 649.699219 L 495.679688 645.355469 L 493.441406 640.734375 L 491.167969 635.996094 L 488.875 631.304688 L 486.585938 626.828125 L 484.296875 622.667969 L 481.941406 618.738281 L 479.425781 614.886719 L 476.664062 610.96875 L 473.589844 606.867188 L 470.242188 602.609375 L 466.691406 598.25 L 463.003906 593.851562 L 459.242188 589.472656 L 455.488281 585.144531 L 451.871094 580.835938 L 448.535156 576.484375 L 445.625 572.027344 L 443.183594 567.414062 L 440.863281 562.605469 L 438.230469 557.578125 L 434.832031 552.300781 L 430.234375 546.75 L 424.140625 540.929688 L 416.890625 535.003906 L 408.960938 529.171875 L 400.84375 523.636719 L 392.898438 518.574219 L 385.007812 514.082031 L 376.933594 510.230469 L 368.4375 507.089844 L 359.273438 504.730469 L 349.378906 503.152344 L 339.375 502.023438 L 330.0625 500.953125 L 322.226562 499.535156 L 316.421875 497.484375 L 312.179688 494.984375 L 308.792969 492.324219 L 305.542969 489.804688 L 301.722656 487.710938 L 303.882812 489.46875 "/>
<path style="fill:none;stroke-width:0.75;stroke-linecap:round;stroke-linejoin:round;stroke:rgb(0%,0%,0%);stroke-opacity:1;stroke-miterlimit:10;" d="M 302.03125 492.179688 L 284.695312 496.933594 L 268.554688 501.246094 L 255.335938 505.351562 L 246.171875 509.441406 L 239.820312 513.488281 L 234.457031 517.414062 L 228.671875 521.152344 L 222.757812 524.699219 L 217.425781 528.066406 L 213.394531 531.261719 L 211.039062 534.335938 L 209.421875 537.449219 L 207.277344 540.800781 L 203.714844 544.53125 L 199.40625 548.527344 L 195.402344 552.609375 L 192.75 556.609375 L 192.054688 560.34375 L 192.074219 563.605469 L 191.128906 566.191406 L 187.9375 568.132812 L 182.839844 570.433594 L 176.601562 574.34375 L 169.945312 580.691406 L 163.503906 588.601562 L 157.878906 596.777344 L 153.675781 603.917969 L 151.214844 609.058594 L 149.683594 612.539062 L 147.992188 615.042969 L 145.300781 617.191406 L 141.792969 619.445312 L 137.917969 622.195312 L 134.117188 625.851562 L 130.765625 630.621094 L 127.980469 635.941406 L 125.820312 641.046875 L 124.226562 645.421875 L 122.703125 649.496094 L 120.640625 653.941406 L 117.632812 659.253906 L 114.089844 665.234375 L 110.605469 671.511719 L 107.785156 677.707031 L 105.996094 683.476562 L 104.625 688.582031 L 102.828125 692.796875 L 100.042969 696.175781 L 96.867188 699.816406 L 94.167969 705.089844 L 92.832031 713.359375 L 93.34375 725.234375 L 94.675781 738.300781 L 95.402344 749.371094 L 94.5 756.152344 L 92.515625 759.847656 L 90.394531 762.539062 L 88.855469 765.914062 L 87.773438 770.054688 L 86.789062 774.648438 L 85.5625 779.382812 L 83.839844 784.015625 L 81.769531 788.617188 L 79.613281 793.328125 L 77.566406 798.21875 L 75.644531 803.058594 L 73.8125 807.535156 L 72.035156 811.34375 L 70.328125 814.359375 L 68.933594 817.210938 L 68.132812 820.707031 L 68.0625 825.371094 L 68.265625 830.597656 L 68.121094 835.480469 L 67.175781 839.351562 L 65.628906 842.425781 L 63.839844 845.148438 L 62.167969 847.964844 L 60.871094 851.222656 L 59.773438 854.878906 L 58.601562 858.789062 L 57.160156 862.824219 L 55.625 866.894531 L 54.253906 870.921875 L 53.304688 874.832031 L 52.894531 878.675781 L 52.550781 883.054688 L 51.644531 888.699219 L 49.878906 896 L 48.191406 903.988281 L 47.851562 911.355469 L 49.71875 917.117188 L 53.027344 921.574219 L 56.613281 925.34375 L 59.304688 929.054688 L 60.199219 933.167969 L 59.425781 937.554688 L 57.363281 941.925781 L 54.503906 946.066406 L 51.71875 950.101562 L 49.984375 954.222656 L 50.273438 958.640625 L 53.035156 963.429688 L 56.605469 968.226562 L 58.800781 972.539062 L 58.148438 976.054688 L 56.0625 979.117188 L 54.664062 982.242188 L 55.582031 985.820312 L 58.507812 989.710938 L 62.632812 993.644531 L 67.148438 997.355469 L 71.296875 1000.714844 L 74.488281 1004.132812 L 76.171875 1008.164062 L 76.074219 1013.167969 L 75 1018.785156 L 74.011719 1024.453125 L 74.1875 1029.621094 L 76.191406 1033.867188 L 79.101562 1037.277344 L 81.582031 1040.054688 L 82.683594 1042.421875 L 82.925781 1044.605469 L 83.21875 1046.84375 L 84.21875 1049.320312 L 85.664062 1052.050781 L 87.039062 1055.003906 L 87.847656 1058.148438 L 87.785156 1061.417969 L 87.398438 1064.601562 L 87.4375 1067.453125 L 88.503906 1069.859375 L 90.597656 1072.1875 L 93.566406 1074.941406 L 97.261719 1078.617188 L 101.53125 1083.539062 L 106.214844 1089.320312 L 111.15625 1095.398438 L 116.183594 1101.320312 L 121.082031 1107.128906 L 125.625 1112.96875 L 129.660156 1118.953125 L 133.296875 1125.027344 L 136.730469 1131.097656 L 140.148438 1137.0625 L 143.722656 1142.886719 L 147.621094 1148.785156 L 151.980469 1155.019531 L 156.828125 1161.710938 L 161.632812 1168.371094 L 165.75 1174.371094 L 168.519531 1179.070312 L 169.554688 1182.105469 L 169.5 1184.15625 L 169.269531 1186.183594 L 169.6875 1188.914062 L 171.203125 1192.160156 L 174.191406 1195.503906 L 178.777344 1198.648438 L 184.144531 1201.777344 L 189.242188 1205.1875 L 193.023438 1209.183594 L 194.871094 1213.9375 L 195.957031 1219.136719 L 197.886719 1224.339844 L 201.816406 1229.1875 L 207.074219 1233.628906 L 212.546875 1237.691406 L 217.101562 1241.40625 L 219.910156 1244.847656 L 221.28125 1248.3125 L 221.8125 1252.15625 L 222.316406 1256.675781 L 224.464844 1261.984375 L 230.136719 1268.15625 L 240.414062 1275.101562 L 253.144531 1282.128906 L 265.378906 1288.394531 L 274.15625 1293.066406 L 277.722656 1295.613281 L 279.105469 1296.824219 L 282.535156 1297.792969 L 291.074219 1299.375 L 303.113281 1301.425781 L 315.890625 1303.558594 L 326.628906 1305.375 L 333.460938 1306.539062 L 338.132812 1306.894531 L 343.28125 1306.34375 L 350.851562 1304.847656 L 359.980469 1302.652344 L 369.105469 1300.066406 L 376.660156 1297.398438 L 381.65625 1294.84375 L 385.382812 1292.113281 L 389.703125 1288.804688 L 395.964844 1284.707031 L 403.421875 1280.359375 L 410.8125 1276.488281 L 417.101562 1273.535156 L 422.183594 1270.789062 L 426.183594 1267.246094 L 429.226562 1261.902344 L 431.453125 1254.207031 L 433.113281 1245.417969 L 434.457031 1237.253906 L 435.714844 1231.046875 L 436.957031 1226.601562 L 438.207031 1223.355469 L 439.496094 1220.734375 L 440.847656 1218.253906 L 442.234375 1215.773438 L 443.613281 1213.242188 L 444.960938 1210.609375 L 446.289062 1207.886719 L 447.613281 1205.097656 L 448.949219 1202.21875 L 450.292969 1199.105469 L 451.644531 1195.554688 L 452.992188 1191.386719 L 454.335938 1186.53125 L 455.671875 1181.433594 L 457.011719 1176.660156 L 458.351562 1172.628906 L 459.691406 1169.121094 L 461.035156 1165.757812 L 462.378906 1162.167969 L 463.722656 1158.015625 L 465.066406 1153.089844 L 466.410156 1147.222656 L 467.75 1140.449219 L 469.089844 1133.625 L 470.429688 1127.800781 L 471.773438 1123.71875 L 473.113281 1120.832031 L 474.457031 1118.273438 L 475.800781 1115.175781 L 477.140625 1110.941406 L 478.484375 1106.027344 L 479.824219 1101.15625 L 481.167969 1096.882812 L 482.511719 1093.105469 L 483.855469 1089.546875 L 485.195312 1085.9375 L 486.535156 1082.078125 L 487.875 1078.097656 L 489.214844 1074.207031 L 490.558594 1070.519531 L 491.902344 1066.785156 L 493.246094 1062.664062 L 494.589844 1057.910156 L 495.929688 1052.679688 L 497.273438 1047.230469 L 498.613281 1041.8125 L 499.953125 1036.65625 L 501.296875 1031.863281 L 502.640625 1027.507812 L 503.980469 1023.621094 L 505.320312 1020.015625 L 506.664062 1016.46875 L 508.003906 1012.746094 L 509.347656 1008.726562 L 510.695312 1004.722656 L 512.035156 1001.140625 L 513.378906 998.242188 L 514.71875 995.675781 L 516.058594 992.9375 L 517.398438 989.644531 L 518.742188 985.867188 L 520.085938 981.804688 L 521.425781 977.648438 L 522.769531 973.558594 L 524.109375 969.535156 L 525.453125 965.535156 L 526.796875 961.523438 L 528.136719 957.5 L 529.480469 953.457031 L 530.824219 949.394531 L 532.164062 945.394531 L 533.503906 941.859375 L 534.84375 939.265625 L 536.1875 937.679688 L 537.53125 935.511719 L 538.875 930.761719 L 540.21875 922.066406 L 541.558594 910.636719 L 542.902344 898.320312 L 544.242188 886.980469 L 545.582031 878.039062 L 546.921875 871.21875 L 548.265625 865.816406 L 549.609375 861.222656 L 550.953125 857.203125 L 552.296875 853.613281 L 553.636719 850.3125 L 554.96875 847.128906 L 556.304688 843.765625 L 557.644531 839.886719 L 559 835.226562 L 560.371094 829.761719 L 561.773438 823.546875 L 563.183594 816.683594 L 564.472656 809.546875 L 565.488281 802.574219 L 566.070312 796.199219 L 565.90625 790.570312 L 564.039062 784.65625 L 559.34375 777.144531 L 551.257812 767.242188 L 541.429688 756.296875 L 532.046875 746.1875 L 525.308594 738.789062 L 522.683594 735.207031 L 522.722656 733.457031 L 523.25 730.78125 L 522.566406 725.195312 L 520.859375 717.820312 L 518.804688 710.539062 L 516.933594 704.769531 L 515.25 700.046875 L 513.613281 695.433594 L 511.890625 689.984375 L 510.003906 683.132812 L 508.117188 675.785156 L 506.449219 669.230469 L 505.136719 664.402344 L 503.945312 660.847656 L 502.566406 657.773438 L 500.683594 654.375 L 498.121094 650.082031 L 495.273438 645.226562 L 492.664062 640.359375 L 490.65625 635.898438 L 488.960938 631.675781 L 487.113281 627.382812 L 484.765625 622.816406 L 482.015625 618.1875 L 479.070312 613.808594 L 476.148438 609.996094 L 473.367188 606.875 L 470.535156 603.828125 L 467.363281 600.058594 L 463.660156 595.027344 L 459.570312 589.273438 L 455.335938 583.601562 L 451.1875 578.816406 L 447.390625 575.394531 L 444.308594 572.492188 L 442.324219 568.949219 L 441.484375 563.921875 L 440.433594 557.910156 L 437.472656 551.738281 L 431.425781 546.039062 L 423.21875 540.699219 L 414.304688 535.410156 L 406.136719 529.871094 L 399.675781 523.933594 L 393.945312 518.117188 L 387.46875 513.105469 L 379.144531 509.410156 L 369.339844 506.859375 L 358.796875 505.109375 L 348.242188 503.816406 L 338.335938 502.652344 L 329.398438 501.359375 L 321.671875 499.6875 L 315.292969 497.496094 L 309.972656 495.015625 L 305.324219 492.589844 L 300.957031 490.542969 L 302.03125 492.179688 "/>
<path style="fill:none;stroke-width:0.75;stroke-linecap:round;stroke-linejoin:round;stroke:rgb(0%,0%,0%);stroke-opacity:1;stroke-miterlimit:10;" d="M 832.816406 542.714844 L 825.351562 543.953125 L 818.445312 544.988281 L 811.800781 546.199219 L 805.15625 547.820312 L 798.335938 549.535156 L 791.183594 550.878906 L 783.691406 551.488281 L 776.441406 551.34375 L 770.160156 550.519531 L 765.34375 549.179688 L 761.53125 547.835938 L 758.042969 547.082031 L 754.191406 547.515625 L 749.484375 549.511719 L 744.253906 552.578125 L 739.039062 556.015625 L 734.261719 559.265625 L 729.949219 562.367188 L 726.027344 565.511719 L 722.375 568.847656 L 718.730469 572.347656 L 714.800781 575.9375 L 710.28125 579.539062 L 705.019531 583.140625 L 699.441406 586.921875 L 694.117188 591.121094 L 689.535156 595.808594 L 685.84375 600.363281 L 683.121094 603.996094 L 681.296875 606.226562 L 679.730469 607.839844 L 677.648438 609.933594 L 674.503906 613.363281 L 670.714844 617.984375 L 666.941406 623.414062 L 663.832031 629.261719 L 661.769531 635.171875 L 660.050781 640.941406 L 657.691406 646.402344 L 654.050781 651.425781 L 649.828125 656.082031 L 646.070312 660.480469 L 643.558594 664.730469 L 642.011719 668.894531 L 640.894531 673.023438 L 639.660156 677.175781 L 637.863281 681.460938 L 635.417969 686.222656 L 632.328125 691.859375 L 628.699219 698.542969 L 625.042969 705.53125 L 621.964844 711.863281 L 619.878906 716.886719 L 618.453125 721.207031 L 617.164062 725.742188 L 615.5625 731.226562 L 613.527344 737.632812 L 611.007812 744.757812 L 607.953125 752.382812 L 604.34375 760.308594 L 600.28125 768.347656 L 595.878906 776.308594 L 591.277344 784.023438 L 586.679688 791.339844 L 582.304688 798.128906 L 578.351562 804.296875 L 574.945312 809.921875 L 572.195312 815.136719 L 570.214844 820.074219 L 569.011719 824.855469 L 568.214844 829.582031 L 567.347656 834.351562 L 566.0625 839.308594 L 564.5 844.777344 L 562.921875 851.136719 L 561.53125 858.554688 L 560.273438 866.398438 L 559.035156 873.832031 L 557.730469 880.210938 L 556.363281 885.648438 L 554.976562 890.441406 L 553.601562 894.894531 L 552.261719 899.269531 L 550.945312 903.675781 L 549.625 908.179688 L 548.285156 912.796875 L 546.933594 917.335938 L 545.578125 921.542969 L 544.230469 925.226562 L 542.890625 928.457031 L 541.554688 931.367188 L 540.214844 934.085938 L 538.878906 936.742188 L 537.535156 939.457031 L 536.191406 942.351562 L 534.847656 945.5 L 533.5 948.839844 L 532.15625 952.277344 L 530.816406 955.746094 L 529.476562 959.339844 L 528.136719 963.195312 L 526.796875 967.421875 L 525.457031 972.035156 L 524.113281 977.03125 L 522.769531 982.402344 L 521.425781 988.0625 L 520.082031 993.613281 L 518.738281 998.582031 L 517.398438 1002.644531 L 516.058594 1006.128906 L 514.71875 1009.507812 L 513.378906 1013.148438 L 512.035156 1016.957031 L 510.695312 1020.726562 L 509.351562 1024.253906 L 508.003906 1027.402344 L 506.660156 1030.332031 L 505.316406 1033.277344 L 503.980469 1036.429688 L 502.640625 1039.847656 L 501.300781 1043.546875 L 499.960938 1047.582031 L 498.613281 1052.144531 L 497.269531 1057.460938 L 495.925781 1063.660156 L 494.582031 1070.464844 L 493.242188 1077.507812 L 491.902344 1084.40625 L 490.5625 1090.859375 L 489.222656 1096.820312 L 487.882812 1102.320312 L 486.539062 1107.375 L 485.191406 1111.976562 L 483.847656 1116.109375 L 482.507812 1119.785156 L 481.167969 1123.144531 L 479.828125 1126.351562 L 478.484375 1129.570312 L 477.136719 1132.925781 L 475.789062 1136.367188 L 474.453125 1139.789062 L 473.128906 1143.101562 L 471.800781 1146.179688 L 470.453125 1148.914062 L 469.070312 1151.285156 L 467.6875 1153.703125 L 466.34375 1156.683594 L 465.070312 1160.5 L 463.816406 1164.519531 L 462.519531 1167.867188 L 461.109375 1169.671875 L 459.566406 1170.003906 L 458.03125 1172.679688 L 456.679688 1182.460938 L 455.660156 1202.28125 L 454.980469 1227.75 L 454.621094 1252.65625 L 454.667969 1272.03125 L 455.648438 1285.933594 L 458.207031 1295.652344 L 462.988281 1302.5 L 470.238281 1307.644531 L 478.667969 1311.761719 L 486.601562 1315.394531 L 492.703125 1318.984375 L 497.039062 1322.5 L 500.027344 1325.804688 L 502.148438 1328.835938 L 504.132812 1331.824219 L 506.785156 1335.074219 L 510.703125 1338.796875 L 515.738281 1342.835938 L 521.546875 1346.933594 L 527.785156 1350.835938 L 534.078125 1354.375 L 539.886719 1357.726562 L 544.644531 1361.144531 L 548.316406 1364.773438 L 552.984375 1368.246094 L 561.273438 1371.070312 L 574.808594 1372.84375 L 591.257812 1373.453125 L 607.296875 1372.882812 L 619.605469 1371.097656 L 626.167969 1368.183594 L 630.226562 1364.640625 L 636.339844 1361.078125 L 647.738281 1357.914062 L 662.40625 1354.824219 L 677.023438 1351.289062 L 688.945312 1346.941406 L 698.335938 1342.042969 L 706.050781 1337.007812 L 712.945312 1332.175781 L 719.90625 1327.628906 L 727.816406 1323.371094 L 737.5625 1319.421875 L 749.40625 1315.730469 L 761.121094 1312.046875 L 769.855469 1308.054688 L 773.847656 1303.53125 L 775.722656 1298.570312 L 779.203125 1293.351562 L 787.003906 1288.035156 L 797.828125 1282.691406 L 809.375 1277.375 L 819.339844 1272.136719 L 826.0625 1267.082031 L 830.441406 1262.511719 L 834.019531 1258.777344 L 838.171875 1256.027344 L 843.617188 1253.570312 L 850.914062 1250.507812 L 860.246094 1246.195312 L 870.269531 1241.011719 L 879.261719 1235.570312 L 885.902344 1230.398438 L 890.460938 1225.582031 L 893.613281 1221.113281 L 896.027344 1216.976562 L 898.34375 1213.160156 L 901.109375 1209.644531 L 904.839844 1206.40625 L 909.824219 1203.363281 L 915.433594 1200.183594 L 920.828125 1196.472656 L 925.363281 1191.921875 L 929.230469 1186.523438 L 932.835938 1180.351562 L 936.578125 1173.488281 L 940.714844 1166.121094 L 944.882812 1158.914062 L 948.582031 1152.652344 L 951.480469 1147.867188 L 953.953125 1144.128906 L 956.554688 1140.746094 L 959.632812 1137.152344 L 962.78125 1133.195312 L 965.382812 1128.839844 L 966.988281 1124.066406 L 967.71875 1118.929688 L 967.851562 1113.515625 L 967.667969 1107.898438 L 967.480469 1102.019531 L 967.753906 1095.261719 L 968.992188 1086.863281 L 971.4375 1076.496094 L 974.320312 1065.53125 L 976.605469 1055.777344 L 977.582031 1048.574219 L 977.828125 1043.421875 L 978.226562 1039.351562 L 979.667969 1035.40625 L 982.722656 1030.769531 L 986.609375 1025.226562 L 990.238281 1018.71875 L 992.742188 1011.371094 L 994.1875 1004.085938 L 994.886719 997.953125 L 995.132812 993.714844 L 995.203125 990.707031 L 995.359375 987.917969 L 995.800781 984.488281 L 996.410156 980.179688 L 997.003906 974.917969 L 997.398438 968.628906 L 997.527344 961.410156 L 997.855469 954.101562 L 998.960938 947.722656 L 1001.144531 943.042969 L 1003.570312 939.878906 L 1005.125 937.789062 L 1005.03125 936.265625 L 1003.90625 934.449219 L 1002.710938 931.421875 L 1002.398438 926.246094 L 1003.613281 918.382812 L 1005.714844 908.8125 L 1007.742188 898.910156 L 1008.964844 889.847656 L 1009.570312 882 L 1009.96875 875.550781 L 1010.460938 870.425781 L 1010.902344 865.550781 L 1011.042969 859.605469 L 1010.679688 851.695312 L 1009.863281 842.664062 L 1008.695312 833.792969 L 1007.273438 826.363281 L 1005.777344 821.28125 L 1004.660156 817.976562 L 1004.453125 815.503906 L 1005.476562 813.023438 L 1007.214844 810.121094 L 1008.953125 806.492188 L 1010.113281 801.9375 L 1010.699219 796.679688 L 1010.855469 791.046875 L 1010.726562 785.375 L 1010.433594 779.953125 L 1009.992188 774.910156 L 1009.398438 770.339844 L 1008.683594 766.234375 L 1008.035156 762.203125 L 1007.6875 757.757812 L 1007.757812 752.585938 L 1007.871094 747.078125 L 1007.546875 741.800781 L 1006.441406 737.207031 L 1004.808594 733.296875 L 1003.042969 729.957031 L 1001.535156 727.074219 L 1000.523438 724.402344 L 999.605469 721.140625 L 998.222656 716.367188 L 995.980469 709.496094 L 993.175781 701.296875 L 990.273438 692.878906 L 987.671875 685.207031 L 985.511719 678.660156 L 983.863281 673.46875 L 982.796875 669.867188 L 982.210938 667.769531 L 981.285156 665.800781 L 979.015625 662.273438 L 974.738281 656.0625 L 969.128906 648.316406 L 963.183594 640.757812 L 957.757812 634.71875 L 953.109375 629.96875 L 949.339844 625.890625 L 946.453125 621.953125 L 944.082031 617.945312 L 941.75 613.742188 L 938.992188 609.214844 L 935.453125 604.308594 L 931.199219 599.269531 L 926.429688 594.410156 L 921.320312 590 L 916.046875 586.097656 L 910.78125 582.71875 L 905.683594 579.859375 L 900.929688 577.429688 L 896.683594 575.320312 L 893.121094 573.429688 L 890.304688 571.613281 L 887.859375 569.589844 L 885.308594 567.046875 L 882.15625 563.773438 L 877.78125 559.972656 L 871.546875 555.957031 L 863.070312 551.992188 L 853.035156 548.164062 L 842.375 544.53125 L 832.035156 541.136719 L 832.816406 542.714844 "/>
</g>
</svg>
