<?xml version="1.0" encoding="UTF-8"?>
<svg xmlns="http://www.w3.org/2000/svg" xmlns:xlink="http://www.w3.org/1999/xlink" width="1428pt" height="1605pt" viewBox="0 0 1428 1605" version="1.1">
<g id="surface204">
<rect x="0" y="0" width="1428" height="1605" style="fill:rgb(100%,100%,100%);fill-opacity:1;stroke:none;"/>
<path style="fill:none;stroke-width:0.75;stroke-linecap:round;stroke-linejoin:round;stroke:rgb(0%,0%,0%);stroke-opacity:1;stroke-miterlimit:10;" d="M 285.554688 489.578125 L 282.894531 492.8125 L 276.226562 495.527344 L 266.96875 498.242188 L 256.550781 501.484375 L 246.242188 505.605469 L 236.707031 510.277344 L 228.449219 515.011719 L 221.980469 519.316406 L 217.578125 522.828125 L 214.621094 525.722656 L 212.257812 528.292969 L 209.625 530.851562 L 205.875 533.691406 L 200.496094 537.035156 L 194.359375 540.777344 L 188.679688 544.730469 L 184.671875 548.699219 L 183.128906 552.523438 L 183.167969 556.167969 L 183.496094 559.609375 L 182.804688 562.839844 L 180.132812 565.886719 L 175.84375 568.96875 L 170.652344 572.355469 L 165.257812 576.304688 L 160.367188 581.082031 L 156.507812 586.800781 L 153.511719 592.964844 L 151.035156 598.917969 L 148.726562 604.019531 L 146.292969 607.824219 L 143.636719 610.765625 L 140.703125 613.480469 L 137.4375 616.613281 L 133.796875 620.804688 L 129.789062 626.457031 L 125.691406 633.054688 L 121.851562 639.84375 L 118.613281 646.070312 L 116.195312 651.207031 L 114.324219 655.609375 L 112.605469 659.871094 L 110.640625 664.570312 L 108.144531 670.125 L 105.238281 676.28125 L 102.160156 682.613281 L 99.144531 688.695312 L 96.421875 694.101562 L 94.191406 698.578125 L 92.5 702.566406 L 91.363281 706.679688 L 90.792969 711.523438 L 90.761719 717.546875 L 91.0625 724.5 L 91.453125 731.984375 L 91.6875 739.578125 L 91.519531 746.882812 L 90.765625 753.570312 L 89.472656 759.691406 L 87.757812 765.378906 L 85.726562 770.773438 L 83.480469 776.007812 L 81.089844 781.265625 L 78.601562 786.714844 L 76.074219 792.542969 L 73.570312 798.863281 L 71.152344 805.574219 L 68.898438 812.511719 L 66.878906 819.511719 L 65.171875 826.40625 L 63.785156 833.070312 L 62.515625 839.5 L 61.09375 845.722656 L 59.253906 851.761719 L 56.847656 857.648438 L 54.175781 863.371094 L 51.664062 868.914062 L 49.726562 874.265625 L 48.789062 879.410156 L 49.078125 884.324219 L 50.054688 888.9375 L 50.984375 893.171875 L 51.140625 896.941406 L 50.035156 900.207031 L 48.191406 903.078125 L 46.382812 905.714844 L 45.382812 908.257812 L 45.75 910.859375 L 47.222656 913.628906 L 49.324219 916.671875 L 51.585938 920.09375 L 53.53125 924.007812 L 54.777344 928.449219 L 55.285156 933.179688 L 55.121094 937.898438 L 54.328125 942.304688 L 53.019531 946.210938 L 51.460938 949.894531 L 49.988281 953.753906 L 48.917969 958.183594 L 48.523438 963.445312 L 48.875 969.273438 L 49.976562 975.265625 L 51.847656 981.015625 L 54.5 986.125 L 57.863281 990.328125 L 61.542969 993.894531 L 65.070312 997.238281 L 67.972656 1000.773438 L 69.902344 1004.808594 L 71.039062 1009.289062 L 71.691406 1014.0625 L 72.164062 1018.972656 L 72.761719 1023.867188 L 73.722656 1028.589844 L 74.96875 1032.988281 L 76.359375 1036.90625 L 77.742188 1040.183594 L 79 1042.757812 L 80.097656 1044.945312 L 81.019531 1047.15625 L 81.753906 1049.804688 L 82.34375 1053.203125 L 83.027344 1057.304688 L 84.089844 1061.964844 L 85.820312 1067.042969 L 88.507812 1072.398438 L 92.320312 1077.882812 L 96.917969 1083.308594 L 101.839844 1088.492188 L 106.632812 1093.246094 L 110.929688 1097.460938 L 114.777344 1101.320312 L 118.3125 1105.097656 L 121.671875 1109.046875 L 125.003906 1113.445312 L 128.425781 1118.484375 L 132.027344 1124.105469 L 135.871094 1130.1875 L 140.027344 1136.601562 L 144.507812 1143.210938 L 149.109375 1149.839844 L 153.570312 1156.285156 L 157.625 1162.355469 L 161.070312 1167.894531 L 163.921875 1172.878906 L 166.25 1177.324219 L 168.128906 1181.25 L 169.621094 1184.667969 L 170.839844 1187.621094 L 172.035156 1190.253906 L 173.5 1192.746094 L 175.519531 1195.273438 L 178.304688 1198 L 181.75 1201.066406 L 185.667969 1204.609375 L 189.867188 1208.761719 L 194.171875 1213.664062 L 198.398438 1219.347656 L 202.421875 1225.453125 L 206.121094 1231.527344 L 209.386719 1237.117188 L 212.195312 1241.925781 L 214.964844 1246.351562 L 218.203125 1250.941406 L 222.425781 1256.25 L 227.988281 1262.640625 L 234.648438 1269.671875 L 242 1276.695312 L 249.648438 1283.082031 L 257.183594 1288.179688 L 264.277344 1291.574219 L 270.84375 1293.707031 L 276.871094 1295.242188 L 282.347656 1296.835938 L 287.492188 1298.960938 L 293.464844 1301.332031 L 301.664062 1303.46875 L 313.496094 1304.890625 L 329.714844 1305.246094 L 348.515625 1304.695312 L 367.457031 1303.515625 L 384.089844 1301.992188 L 395.976562 1300.40625 L 401.515625 1298.9375 L 402.519531 1297.324219 L 401.640625 1295.207031 L 401.53125 1292.21875 L 404.222656 1288.160156 L 409.238281 1283.460938 L 415.472656 1278.722656 L 421.828125 1274.542969 L 427.191406 1271.519531 L 430.890625 1270.191406 L 433.910156 1270.882812 L 437.671875 1273.851562 L 443.589844 1279.371094 L 452.582031 1287.4375 L 463.582031 1296.96875 L 475.027344 1306.632812 L 485.351562 1315.078125 L 493.378906 1321.304688 L 499.449219 1325.6875 L 504.292969 1328.9375 L 508.632812 1331.765625 L 513.195312 1334.878906 L 518.53125 1338.835938 L 524.484375 1343.527344 L 530.71875 1348.703125 L 536.902344 1354.09375 L 542.875 1359.433594 L 549.152344 1364.4375 L 556.429688 1368.808594 L 565.390625 1372.253906 L 576.722656 1374.476562 L 590.695312 1375.277344 L 605.867188 1374.820312 L 620.386719 1373.351562 L 632.386719 1371.125 L 640.648438 1368.375 L 646.507812 1365.210938 L 651.9375 1361.730469 L 658.90625 1358.03125 L 668.800781 1354.199219 L 680.597656 1350.308594 L 692.691406 1346.433594 L 703.472656 1342.648438 L 711.328125 1339.023438 L 715.308594 1335.609375 L 717.0625 1332.355469 L 718.902344 1329.199219 L 723.136719 1326.066406 L 731.402344 1322.882812 L 742.636719 1319.570312 L 755.097656 1316.039062 L 767.042969 1312.203125 L 776.742188 1307.976562 L 783.03125 1303.316406 L 787.0625 1298.382812 L 790.574219 1293.382812 L 795.296875 1288.515625 L 802.429688 1283.953125 L 811.023438 1279.710938 L 819.601562 1275.769531 L 826.683594 1272.109375 L 831.230469 1268.707031 L 833.960938 1265.503906 L 836.035156 1262.441406 L 838.621094 1259.457031 L 842.878906 1256.492188 L 849.601562 1253.449219 L 858.117188 1250.109375 L 867.386719 1246.222656 L 876.363281 1241.539062 L 884.214844 1235.910156 L 890.957031 1229.640625 L 896.808594 1223.136719 L 901.984375 1216.804688 L 906.707031 1211.058594 L 911.160156 1206.203125 L 915.355469 1202.144531 L 919.285156 1198.683594 L 922.921875 1195.632812 L 926.261719 1192.792969 L 929.375 1189.984375 L 932.324219 1187.027344 L 935.195312 1183.746094 L 938.023438 1180.023438 L 940.738281 1175.980469 L 943.238281 1171.800781 L 945.40625 1167.675781 L 947.148438 1163.78125 L 948.417969 1160.257812 L 949.449219 1157.015625 L 950.539062 1153.929688 L 951.992188 1150.855469 L 954.035156 1147.679688 L 956.640625 1144.328125 L 959.710938 1140.746094 L 963.15625 1136.875 L 966.820312 1132.6875 L 970.320312 1128.238281 L 973.210938 1123.613281 L 975.054688 1118.902344 L 975.40625 1114.183594 L 974.070312 1109.492188 L 971.859375 1104.667969 L 969.828125 1099.492188 L 969.035156 1093.75 L 970.210938 1087.320312 L 972.832031 1080.457031 L 976.046875 1073.503906 L 979.007812 1066.800781 L 980.863281 1060.699219 L 981.066406 1055.453125 L 980.300781 1050.972656 L 979.535156 1047.082031 L 979.753906 1043.609375 L 981.628906 1040.34375 L 984.640625 1036.941406 L 987.960938 1033.027344 L 990.761719 1028.226562 L 992.449219 1022.320312 L 993.335938 1015.730469 L 993.964844 1009.03125 L 994.886719 1002.800781 L 996.644531 997.617188 L 999.550781 993.847656 L 1003.027344 991.050781 L 1006.261719 988.578125 L 1008.433594 985.777344 L 1008.972656 982.148438 L 1008.234375 977.800781 L 1006.804688 972.980469 L 1005.273438 967.945312 L 1004.234375 962.953125 L 1004.109375 958.199219 L 1004.683594 953.648438 L 1005.566406 949.214844 L 1006.382812 944.808594 L 1006.847656 940.285156 L 1007.121094 935.269531 L 1007.464844 929.332031 L 1008.140625 922.046875 L 1009.316406 913.136719 L 1010.800781 902.957031 L 1012.304688 892.019531 L 1013.53125 880.835938 L 1014.199219 869.917969 L 1014.128906 859.609375 L 1013.605469 849.554688 L 1013.023438 839.238281 L 1012.78125 828.140625 L 1013.160156 815.984375 L 1013.976562 803.484375 L 1014.929688 791.59375 L 1015.714844 781.273438 L 1016.039062 773.476562 L 1015.695312 768.769531 L 1014.894531 766.15625 L 1013.9375 764.246094 L 1013.132812 761.648438 L 1012.695312 757.339844 L 1012.464844 751.726562 L 1012.195312 745.585938 L 1011.640625 739.695312 L 1010.617188 734.644531 L 1009.214844 730.3125 L 1007.582031 726.40625 L 1005.875 722.621094 L 1004.242188 718.664062 L 1002.800781 714.316406 L 1001.527344 709.746094 L 1000.359375 705.195312 L 999.230469 700.910156 L 998.085938 697.042969 L 996.84375 693.375 L 995.433594 689.582031 L 993.777344 685.351562 L 991.816406 680.457031 L 989.558594 675.042969 L 987.035156 669.355469 L 984.261719 663.628906 L 981.273438 658.109375 L 978.101562 652.96875 L 974.820312 648.132812 L 971.511719 643.460938 L 968.253906 638.816406 L 965.117188 634.082031 L 962.0625 629.242188 L 959.042969 624.320312 L 956 619.328125 L 952.890625 614.277344 L 949.632812 609.199219 L 946.066406 604.171875 L 942.007812 599.292969 L 937.265625 594.65625 L 931.785156 590.328125 L 926.039062 586.277344 L 920.625 582.449219 L 916.144531 578.785156 L 913 575.25 L 910.832031 571.921875 L 909.078125 568.890625 L 907.175781 566.261719 L 904.570312 564.121094 L 900.898438 562.511719 L 896.613281 561.183594 L 892.363281 559.832031 L 888.800781 558.152344 L 886.292969 555.914062 L 884.039062 553.191406 L 880.957031 550.128906 L 875.960938 546.882812 L 867.972656 543.597656 L 856.195312 540.507812 L 841.011719 538.160156 L 823.09375 537.1875 L 803.117188 538.226562 L 781.96875 541.613281 L 761.382812 546.550781 L 743.308594 551.949219 L 729.6875 556.707031 L 721.816406 560.035156 L 718.335938 562.3125 L 717.238281 564.207031 L 716.503906 566.390625 L 714.125 569.539062 L 708.664062 574.105469 L 701.007812 579.644531 L 692.628906 585.503906 L 684.984375 591.019531 L 679.273438 595.660156 L 675.605469 599.382812 L 673.824219 602.269531 L 673.761719 604.402344 L 675.261719 605.867188 L 677.988281 606.828125 L 680.890625 607.757812 L 682.757812 609.222656 L 682.363281 611.773438 L 678.886719 615.824219 L 673.085938 621.203125 L 666.117188 627.578125 L 659.128906 634.636719 L 653.085938 642.03125 L 648.164062 649.324219 L 644.34375 656.066406 L 641.601562 661.800781 L 639.917969 666.078125 L 639.164062 668.691406 L 638.78125 670.464844 L 638.089844 672.476562 L 636.417969 675.796875 L 633.320312 681.191406 L 629.230469 688.164062 L 624.8125 695.90625 L 620.730469 703.605469 L 617.492188 710.628906 L 615.015625 717.082031 L 613.0625 723.246094 L 611.402344 729.402344 L 609.792969 735.835938 L 608.027344 742.734375 L 605.976562 749.925781 L 603.535156 757.15625 L 600.609375 764.15625 L 597.136719 770.652344 L 593.277344 776.320312 L 589.234375 780.8125 L 585.210938 783.789062 L 581.421875 784.910156 L 578.011719 783.972656 L 574.957031 781.359375 L 572.164062 777.597656 L 569.554688 773.210938 L 567.023438 768.6875 L 564.375 764.320312 L 561.402344 760.367188 L 557.890625 757.09375 L 553.699219 754.578125 L 548.972656 752.242188 L 543.917969 749.339844 L 538.757812 745.109375 L 533.703125 738.808594 L 528.953125 730.019531 L 524.648438 719.652344 L 520.914062 708.957031 L 517.871094 699.179688 L 515.589844 691.277344 L 513.875 685.011719 L 512.480469 679.863281 L 511.15625 675.296875 L 509.644531 670.789062 L 507.761719 665.910156 L 505.578125 660.640625 L 503.230469 655.058594 L 500.84375 649.246094 L 498.507812 643.28125 L 496.097656 637.285156 L 493.433594 631.367188 L 490.339844 625.644531 L 486.726562 620.222656 L 482.851562 615.125 L 479.0625 610.367188 L 475.703125 605.957031 L 473.117188 601.914062 L 471.496094 598.214844 L 470.394531 594.722656 L 469.21875 591.261719 L 467.371094 587.667969 L 464.4375 583.820312 L 460.742188 579.832031 L 456.792969 575.871094 L 453.097656 572.105469 L 450.164062 568.703125 L 448.269531 565.730469 L 446.753906 562.875 L 444.722656 559.714844 L 441.285156 555.84375 L 435.867188 550.996094 L 429.1875 545.546875 L 422.289062 540.027344 L 416.207031 534.957031 L 411.679688 530.730469 L 408.191406 527.175781 L 404.929688 523.992188 L 401.070312 520.863281 L 395.800781 517.488281 L 388.535156 513.660156 L 379.632812 509.558594 L 369.675781 505.476562 L 359.261719 501.6875 L 348.757812 498.410156 L 337.648438 495.542969 L 325.199219 492.921875 L 310.675781 490.382812 L 293.351562 487.746094 L 285.554688 489.578125 "/>
<path style="fill:none;stroke-width:0.75;stroke-linecap:round;stroke-linejoin:round;stroke:rgb(0%,0%,0%);stroke-opacity:1;stroke-miterlimit:10;" d="M 286 492.269531 L 271.558594 496.773438 L 256.800781 500.984375 L 243.65625 505.300781 L 233.625 510 L 226.574219 514.789062 L 221.941406 519.242188 L 219.0625 523.035156 L 216.824219 526.210938 L 214 528.925781 L 209.699219 531.347656 L 204.34375 533.765625 L 198.679688 536.5 L 193.457031 539.859375 L 189.28125 544.023438 L 186.207031 548.601562 L 184.136719 553.0625 L 182.902344 556.972656 L 182.0625 560.316406 L 181.101562 563.164062 L 179.53125 565.667969 L 177 568.253906 L 173.199219 571.425781 L 167.804688 575.6875 L 160.90625 581.304688 L 154.171875 587.625 L 149.671875 593.765625 L 148.699219 599.027344 L 149.433594 603.453125 L 149.28125 607.261719 L 146.335938 610.699219 L 141.488281 614.03125 L 136.308594 617.535156 L 132.054688 621.484375 L 128.644531 626.066406 L 125.679688 631.464844 L 122.761719 637.863281 L 119.609375 645.195312 L 116.472656 652.457031 L 113.730469 658.398438 L 111.625 662.242188 L 109.886719 665.101562 L 108.109375 668.558594 L 105.960938 673.792969 L 103.390625 680.402344 L 100.414062 687.570312 L 97.050781 694.484375 L 93.480469 700.46875 L 90.519531 705.378906 L 89.132812 709.207031 L 89.898438 712.195312 L 91.785156 715.605469 L 93.367188 720.949219 L 93.550781 729.171875 L 92.554688 738.953125 L 90.945312 748.40625 L 89.207031 756.03125 L 87.570312 761.945312 L 86.191406 766.652344 L 85.230469 770.65625 L 84.660156 774.503906 L 83.675781 778.894531 L 81.285156 784.566406 L 76.953125 791.941406 L 71.945312 800.152344 L 67.984375 808.023438 L 66.304688 814.667969 L 66.234375 820.375 L 66.628906 825.722656 L 66.328125 831.296875 L 64.5 837.53125 L 61.585938 844.332031 L 58.335938 851.453125 L 55.402344 858.605469 L 53 865.277344 L 51.234375 870.910156 L 50.175781 875.175781 L 49.710938 878.746094 L 49.679688 882.527344 L 49.914062 887.167969 L 50.195312 892.292969 L 50.296875 897.28125 L 49.992188 901.496094 L 49.140625 904.5 L 47.929688 906.605469 L 46.636719 908.316406 L 45.605469 910.113281 L 45.421875 912.386719 L 46.726562 915.507812 L 49.84375 919.691406 L 53.746094 924.566406 L 57.085938 929.605469 L 58.507812 934.289062 L 57.148438 938.246094 L 54.078125 941.773438 L 50.851562 945.324219 L 48.746094 949.277344 L 47.917969 953.703125 L 48.238281 958.597656 L 49.5 963.925781 L 51.175781 969.503906 L 52.667969 975.101562 L 53.585938 980.527344 L 54.402344 985.636719 L 55.8125 990.316406 L 58.507812 994.453125 L 62.828125 998.015625 L 67.664062 1001.3125 L 71.558594 1004.746094 L 73.429688 1008.648438 L 73.691406 1013.109375 L 73.132812 1018.136719 L 72.476562 1023.660156 L 72.195312 1029.199219 L 72.679688 1034.183594 L 74.328125 1038.035156 L 77.265625 1040.429688 L 80.488281 1042.035156 L 82.714844 1043.773438 L 83.058594 1046.359375 L 82.207031 1049.75 L 81.242188 1053.691406 L 81.105469 1057.976562 L 82.183594 1062.527344 L 84.730469 1067.308594 L 88.820312 1072.28125 L 93.835938 1077.398438 L 98.984375 1082.625 L 103.480469 1087.914062 L 106.8125 1093.167969 L 109.585938 1098.078125 L 112.699219 1102.28125 L 116.777344 1105.617188 L 121.410156 1108.777344 L 125.925781 1112.660156 L 129.808594 1117.917969 L 133.21875 1124.1875 L 136.480469 1130.863281 L 139.910156 1137.335938 L 143.757812 1143.199219 L 147.96875 1148.863281 L 152.410156 1154.929688 L 156.921875 1161.75 L 161.230469 1168.59375 L 165.023438 1174.46875 L 168.011719 1178.667969 L 169.960938 1181.625 L 170.648438 1184.054688 L 170.113281 1186.5625 L 169.414062 1189.265625 L 169.871094 1192.160156 L 172.792969 1195.253906 L 178.824219 1198.53125 L 185.882812 1201.964844 L 191.203125 1205.503906 L 192.9375 1209.183594 L 192.875 1213.3125 L 193.707031 1218.292969 L 197.4375 1224.332031 L 203.300781 1230.925781 L 209.84375 1237.398438 L 215.617188 1243.058594 L 219.539062 1247.519531 L 222.023438 1251.519531 L 223.867188 1256.089844 L 225.96875 1261.980469 L 229.652344 1268.800781 L 236.355469 1275.882812 L 246.789062 1282.574219 L 258.753906 1288.304688 L 269.347656 1292.527344 L 276.359375 1294.921875 L 280.398438 1296.082031 L 282.789062 1296.835938 L 284.84375 1298.011719 L 288.144531 1300.148438 L 295.292969 1302.675781 L 309.148438 1304.742188 L 330.988281 1305.671875 L 355.71875 1305.511719 L 376.652344 1304.480469 L 388.773438 1302.800781 L 393.730469 1300.679688 L 394.84375 1298.316406 L 395.421875 1295.914062 L 398.082031 1293.625 L 402.59375 1291.382812 L 408.039062 1289.082031 L 413.589844 1286.441406 L 418.832031 1282.546875 L 423.449219 1276.316406 L 427.207031 1267.167969 L 430.167969 1256.5 L 432.480469 1246.207031 L 434.28125 1237.808594 L 435.730469 1231.351562 L 436.988281 1226.492188 L 438.207031 1222.898438 L 439.511719 1220.222656 L 440.886719 1218.035156 L 442.269531 1215.894531 L 443.621094 1213.457031 L 444.945312 1210.757812 L 446.269531 1207.9375 L 447.605469 1205.089844 L 448.949219 1202.121094 L 450.296875 1198.902344 L 451.648438 1195.304688 L 452.992188 1191.234375 L 454.335938 1186.753906 L 455.671875 1181.964844 L 457.011719 1177.03125 L 458.351562 1172.367188 L 459.691406 1168.4375 L 461.035156 1165.464844 L 462.378906 1162.609375 L 463.722656 1158.785156 L 465.066406 1153.226562 L 466.410156 1146.519531 L 467.75 1139.582031 L 469.089844 1133.339844 L 470.429688 1128.460938 L 471.769531 1124.632812 L 473.113281 1121.300781 L 474.457031 1117.976562 L 475.796875 1114.4375 L 477.140625 1110.535156 L 478.484375 1106.1875 L 479.828125 1101.609375 L 481.171875 1097.089844 L 482.511719 1092.910156 L 483.851562 1089.246094 L 485.1875 1085.839844 L 486.53125 1082.308594 L 487.875 1078.398438 L 489.222656 1074.28125 L 490.566406 1070.246094 L 491.910156 1066.457031 L 493.246094 1062.59375 L 494.585938 1058.203125 L 495.925781 1052.992188 L 497.269531 1047.28125 L 498.609375 1041.546875 L 499.953125 1036.253906 L 501.296875 1031.742188 L 502.640625 1027.789062 L 503.984375 1024.035156 L 505.324219 1020.191406 L 506.667969 1016.273438 L 508.007812 1012.367188 L 509.347656 1008.558594 L 510.6875 1004.914062 L 512.03125 1001.496094 L 513.375 998.367188 L 514.71875 995.519531 L 516.0625 992.695312 L 517.40625 989.566406 L 518.746094 985.894531 L 520.082031 981.847656 L 521.421875 977.679688 L 522.765625 973.589844 L 524.109375 969.574219 L 525.453125 965.554688 L 526.796875 961.484375 L 528.140625 957.398438 L 529.480469 953.34375 L 530.820312 949.375 L 532.160156 945.582031 L 533.503906 942.226562 L 534.84375 939.621094 L 536.183594 937.71875 L 537.527344 935.136719 L 538.871094 930.136719 L 540.21875 921.554688 L 541.5625 910.472656 L 542.90625 898.554688 L 544.246094 887.445312 L 545.574219 878.445312 L 546.90625 871.398438 L 548.25 865.796875 L 549.613281 861.167969 L 550.980469 857.199219 L 552.320312 853.613281 L 553.628906 850.179688 L 554.929688 846.8125 L 556.261719 843.46875 L 557.644531 840.019531 L 559.058594 836.027344 L 560.464844 830.972656 L 561.820312 824.332031 L 563.085938 815.796875 L 564.214844 805.886719 L 565.160156 795.324219 L 565.800781 784.828125 L 565.742188 775.078125 L 564.523438 766.753906 L 561.820312 760.347656 L 557.917969 755.675781 L 553.234375 752.371094 L 548.203125 750.070312 L 543.1875 748.207031 L 538.347656 745.421875 L 533.792969 740.148438 L 529.582031 731.390625 L 525.644531 720.449219 L 521.867188 709.203125 L 518.214844 699.21875 L 515.007812 690.839844 L 512.636719 684.109375 L 511.332031 678.949219 L 510.664062 674.78125 L 510.027344 670.910156 L 508.824219 666.632812 L 506.640625 661.441406 L 503.792969 655.523438 L 500.785156 649.265625 L 497.996094 643 L 495.359375 636.878906 L 492.683594 631.011719 L 489.816406 625.472656 L 486.75 620.25 L 483.503906 615.296875 L 480.09375 610.566406 L 476.613281 606.042969 L 473.402344 601.832031 L 470.867188 598.066406 L 469.238281 594.773438 L 468.066406 591.589844 L 466.714844 588.039062 L 464.671875 583.824219 L 461.882812 579.351562 L 458.414062 575.203125 L 454.40625 571.804688 L 450.347656 568.941406 L 446.808594 566.238281 L 444.351562 563.324219 L 443.140625 559.878906 L 441.6875 555.765625 L 438.097656 550.90625 L 431.199219 545.355469 L 422.761719 539.691406 L 415.269531 534.621094 L 410.53125 530.65625 L 407.617188 527.460938 L 404.910156 524.5 L 400.789062 521.238281 L 394.269531 517.320312 L 386.855469 513.148438 L 380.675781 509.3125 L 377.019531 506.246094 L 373.769531 503.742188 L 367.96875 501.445312 L 357.097656 499.042969 L 340.4375 496.464844 L 317.707031 493.6875 L 288.636719 490.6875 L 286 492.269531 "/>
<path style="fill:none;stroke-width:0.75;stroke-linecap:round;stroke-linejoin:round;stroke:rgb(0%,0%,0%);stroke-opacity:1;stroke-miterlimit:10;" d="M 794.09375 534.320312 L 776.421875 540.996094 L 756.710938 547.632812 L 739.902344 553.300781 L 729.671875 557.328125 L 724.636719 560.058594 L 722.136719 562.089844 L 719.875 564.003906 L 716.910156 566.335938 L 712.648438 569.609375 L 706.730469 574.160156 L 699.722656 579.605469 L 692.425781 585.386719 L 685.640625 590.941406 L 680.070312 595.777344 L 676.046875 599.699219 L 673.816406 602.578125 L 673.511719 604.390625 L 674.84375 605.523438 L 677.417969 606.464844 L 680.632812 607.675781 L 683.0625 609.480469 L 683.082031 612.171875 L 679.558594 615.980469 L 673.386719 620.925781 L 665.960938 626.96875 L 658.667969 634.0625 L 652.640625 642.011719 L 647.949219 649.972656 L 644.398438 656.949219 L 641.808594 662.175781 L 640.050781 665.828125 L 639.015625 668.316406 L 638.488281 670.15625 L 637.855469 672.285156 L 636.40625 675.742188 L 633.625 681.25 L 629.8125 688.292969 L 625.46875 696.042969 L 621.097656 703.664062 L 617.160156 710.539062 L 613.996094 716.875 L 611.898438 723.101562 L 610.953125 729.546875 L 610.40625 736.21875 L 609.285156 743.042969 L 606.882812 749.933594 L 603.5 756.757812 L 599.703125 763.367188 L 596.046875 769.621094 L 592.914062 775.425781 L 589.980469 780.851562 L 586.726562 786.023438 L 582.863281 791.039062 L 578.984375 795.9375 L 575.90625 800.71875 L 574.1875 805.40625 L 573.347656 810.066406 L 572.648438 814.769531 L 571.519531 819.574219 L 570.019531 824.464844 L 568.375 829.414062 L 566.820312 834.402344 L 565.507812 839.46875 L 564.339844 844.945312 L 563.148438 851.238281 L 561.808594 858.554688 L 560.375 866.300781 L 558.945312 873.683594 L 557.59375 880.089844 L 556.292969 885.613281 L 554.996094 890.515625 L 553.667969 895.050781 L 552.316406 899.390625 L 550.953125 903.6875 L 549.59375 908.097656 L 548.25 912.699219 L 546.917969 917.273438 L 545.585938 921.535156 L 544.246094 925.261719 L 542.902344 928.503906 L 541.558594 931.398438 L 540.214844 934.074219 L 538.871094 936.691406 L 537.53125 939.417969 L 536.1875 942.382812 L 534.84375 945.5625 L 533.503906 948.878906 L 532.160156 952.273438 L 530.820312 955.710938 L 529.480469 959.289062 L 528.140625 963.140625 L 526.796875 967.382812 L 525.453125 972.039062 L 524.109375 977.121094 L 522.765625 982.578125 L 521.421875 988.152344 L 520.082031 993.523438 L 518.742188 998.378906 L 517.402344 1002.515625 L 516.0625 1006.160156 L 514.722656 1009.660156 L 513.378906 1013.285156 L 512.03125 1016.972656 L 510.683594 1020.59375 L 509.34375 1024.042969 L 508.003906 1027.3125 L 506.667969 1030.441406 L 505.328125 1033.472656 L 503.984375 1036.542969 L 502.644531 1039.800781 L 501.300781 1043.40625 L 499.953125 1047.496094 L 498.605469 1052.195312 L 497.265625 1057.613281 L 495.925781 1063.789062 L 494.589844 1070.484375 L 493.253906 1077.382812 L 491.90625 1084.203125 L 490.558594 1090.757812 L 489.214844 1096.882812 L 487.875 1102.453125 L 486.535156 1107.476562 L 485.195312 1111.992188 L 483.855469 1116.046875 L 482.507812 1119.703125 L 481.160156 1123.089844 L 479.820312 1126.363281 L 478.488281 1129.644531 L 477.160156 1132.972656 L 475.820312 1136.351562 L 474.457031 1139.761719 L 473.085938 1143.082031 L 471.730469 1146.167969 L 470.40625 1148.875 L 469.121094 1151.191406 L 467.828125 1153.636719 L 466.472656 1156.878906 L 465.023438 1161.1875 L 463.570312 1165.292969 L 462.246094 1167.53125 L 461.105469 1167.226562 L 459.96875 1167.648438 L 458.585938 1173.046875 L 456.847656 1186.433594 L 455.160156 1205.84375 L 454.070312 1228.078125 L 454.117188 1249.921875 L 455.5625 1268.582031 L 457.527344 1282.871094 L 458.851562 1292.003906 L 458.976562 1295.90625 L 459.757812 1297.320312 L 463.652344 1299.6875 L 472.199219 1305.488281 L 483.230469 1313.28125 L 493.652344 1320.664062 L 501.089844 1325.808594 L 506.003906 1329.167969 L 509.574219 1331.789062 L 512.976562 1334.703125 L 517.210938 1338.703125 L 522.597656 1343.574219 L 529.269531 1348.863281 L 537.128906 1354.171875 L 545.109375 1359.3125 L 551.90625 1364.164062 L 556.976562 1368.554688 L 562.839844 1372.152344 L 572.765625 1374.585938 L 588.769531 1375.578125 L 607.769531 1375.226562 L 625.414062 1373.734375 L 637.347656 1371.296875 L 641.046875 1368.136719 L 641.253906 1364.597656 L 644.53125 1361.050781 L 655.535156 1357.746094 L 671.246094 1354.5 L 686.746094 1351.015625 L 698.097656 1347.089844 L 705.367188 1342.917969 L 709.617188 1338.796875 L 711.914062 1335.011719 L 713.492188 1331.769531 L 716.273438 1328.898438 L 722.351562 1326.144531 L 732.984375 1323.257812 L 746.023438 1320.074219 L 758.480469 1316.4375 L 768.03125 1312.25 L 775.019531 1307.664062 L 780.449219 1302.875 L 785.269531 1298.066406 L 790.207031 1293.320312 L 795.929688 1288.691406 L 803.105469 1284.234375 L 811.9375 1279.996094 L 820.8125 1275.972656 L 827.636719 1272.144531 L 831.046875 1268.515625 L 832.53125 1265.136719 L 834.285156 1262.070312 L 838.046875 1259.324219 L 843.726562 1256.65625 L 850.761719 1253.761719 L 858.636719 1250.371094 L 866.96875 1246.347656 L 875.410156 1241.582031 L 883.613281 1235.960938 L 891.230469 1229.511719 L 897.898438 1222.785156 L 903.253906 1216.457031 L 907.152344 1211.054688 L 910.347656 1206.488281 L 913.816406 1202.5 L 918.226562 1198.875 L 923.011719 1195.558594 L 927.292969 1192.527344 L 930.429688 1189.71875 L 932.753906 1186.917969 L 934.820312 1183.871094 L 937.203125 1180.328125 L 940.242188 1176.152344 L 943.417969 1171.691406 L 945.984375 1167.414062 L 947.441406 1163.664062 L 948.238281 1160.34375 L 949.070312 1157.226562 L 950.472656 1154.117188 L 952.375 1150.929688 L 954.5625 1147.605469 L 956.808594 1144.085938 L 959.039062 1140.335938 L 961.738281 1136.453125 L 965.542969 1132.550781 L 970.628906 1128.675781 L 975.359375 1124.570312 L 977.644531 1119.902344 L 976.148438 1114.488281 L 972.574219 1108.726562 L 969.378906 1103.167969 L 968.460938 1098.179688 L 969.507812 1093.378906 L 971.660156 1088.214844 L 974.050781 1082.125 L 976.003906 1074.820312 L 977.621094 1067.085938 L 979.199219 1059.976562 L 980.867188 1054.3125 L 982.15625 1049.976562 L 982.433594 1046.625 L 981.449219 1043.863281 L 980.460938 1041.105469 L 981.109375 1037.714844 L 984.472656 1033.214844 L 989.40625 1027.796875 L 994.214844 1021.800781 L 997.191406 1015.585938 L 997.277344 1009.464844 L 995.957031 1003.652344 L 995.359375 998.324219 L 997.058594 993.652344 L 1000.464844 989.757812 L 1004.433594 986.742188 L 1007.921875 984.554688 L 1010.316406 982.527344 L 1011.097656 979.84375 L 1009.753906 975.675781 L 1006.246094 969.566406 L 1002.460938 962.535156 L 1000.757812 955.960938 L 1002.652344 950.917969 L 1006.277344 947.242188 L 1008.914062 944.464844 L 1008.65625 941.949219 L 1006.835938 938.429688 L 1005.59375 932.472656 L 1006.511719 923.167969 L 1008.996094 911.617188 L 1011.886719 899.453125 L 1014.03125 888.289062 L 1014.601562 879.21875 L 1014.035156 871.226562 L 1013.101562 862.761719 L 1012.449219 852.605469 L 1012.292969 840.832031 L 1012.71875 827.847656 L 1013.734375 814.210938 L 1014.921875 801.0625 L 1015.777344 789.699219 L 1015.921875 781.082031 L 1015.507812 774.878906 L 1014.828125 770.425781 L 1014.164062 767.0625 L 1013.738281 764.128906 L 1013.488281 760.957031 L 1013.289062 756.886719 L 1013.007812 751.503906 L 1012.507812 745.464844 L 1011.644531 739.671875 L 1010.34375 734.804688 L 1008.769531 730.632812 L 1007.148438 726.6875 L 1005.667969 722.601562 L 1004.328125 718.359375 L 1003.085938 714.03125 L 1001.886719 709.699219 L 1000.691406 705.429688 L 999.425781 701.242188 L 998.011719 697.15625 L 996.417969 693.15625 L 994.761719 689.125 L 993.195312 684.910156 L 991.785156 680.386719 L 990.242188 675.492188 L 988.199219 670.179688 L 985.273438 664.414062 L 981.308594 658.257812 L 976.992188 652.203125 L 973.226562 646.851562 L 970.621094 642.578125 L 968.605469 638.859375 L 966.324219 634.949219 L 963.144531 630.277344 L 959.402344 624.992188 L 955.660156 619.425781 L 952.335938 613.871094 L 949.195312 608.496094 L 945.851562 603.441406 L 941.917969 598.839844 L 937.144531 594.761719 L 931.851562 590.957031 L 926.480469 587.109375 L 921.445312 583.003906 L 916.9375 578.8125 L 913.105469 574.804688 L 910.039062 571.226562 L 907.582031 568.222656 L 905.519531 565.90625 L 903.617188 564.308594 L 901.554688 563.117188 L 898.980469 561.933594 L 895.554688 560.363281 L 891.082031 558.121094 L 885.972656 555.402344 L 880.796875 552.507812 L 875.976562 549.699219 L 871.398438 547.003906 L 866.808594 544.410156 L 861.210938 541.878906 L 850.613281 539.324219 L 830.300781 536.625 L 795.539062 533.675781 L 794.09375 534.320312 "/>
</g>
</svg>
