<?xml version="1.0" encoding="UTF-8"?>
<svg xmlns="http://www.w3.org/2000/svg" xmlns:xlink="http://www.w3.org/1999/xlink" width="1428pt" height="1605pt" viewBox="0 0 1428 1605" version="1.1">
<g id="surface209">
<rect x="0" y="0" width="1428" height="1605" style="fill:rgb(100%,100%,100%);fill-opacity:1;stroke:none;"/>
<path style="fill:none;stroke-width:0.75;stroke-linecap:round;stroke-linejoin:round;stroke:rgb(0%,0%,0%);stroke-opacity:1;stroke-miterlimit:10;" d="M 250.339844 482.09375 L 246.128906 485.808594 L 242.589844 489.195312 L 239.175781 492.554688 L 235.332031 496.1875 L 230.621094 500.328125 L 225.09375 504.90625 L 218.933594 509.773438 L 212.304688 514.789062 L 205.402344 519.855469 L 198.484375 525.066406 L 191.828125 530.5625 L 185.707031 536.488281 L 180.40625 542.980469 L 176.078125 550.058594 L 172.441406 557.25 L 169.085938 563.949219 L 165.613281 569.5625 L 161.753906 573.691406 L 157.777344 576.730469 L 154.09375 579.28125 L 151.105469 581.945312 L 149.066406 585.222656 L 147.585938 589.210938 L 146.125 593.902344 L 144.136719 599.296875 L 141.074219 605.390625 L 136.613281 612.097656 L 131.3125 619.027344 L 125.9375 625.707031 L 121.257812 631.660156 L 117.847656 636.582031 L 115.433594 640.800781 L 113.542969 644.8125 L 111.707031 649.113281 L 109.445312 654.199219 L 106.429688 660.433594 L 102.894531 667.628906 L 99.214844 675.480469 L 95.761719 683.671875 L 92.859375 691.882812 L 90.625 699.75 L 89.109375 706.914062 L 88.378906 713.003906 L 88.417969 717.835938 L 88.898438 721.960938 L 89.425781 726.101562 L 89.605469 730.988281 L 89.039062 737.355469 L 87.457031 745.628906 L 85.121094 755.082031 L 82.425781 764.683594 L 79.761719 773.398438 L 77.429688 780.441406 L 75.332031 785.980469 L 73.28125 790.429688 L 71.085938 794.191406 L 68.640625 797.65625 L 66.175781 801.101562 L 64.003906 804.773438 L 62.4375 808.933594 L 61.796875 813.832031 L 62.238281 819.605469 L 63.320312 825.957031 L 64.445312 832.46875 L 65.019531 838.726562 L 64.582031 844.394531 L 63.238281 849.457031 L 61.234375 853.988281 L 58.808594 858.046875 L 56.207031 861.703125 L 53.65625 865.03125 L 51.300781 868.167969 L 49.273438 871.257812 L 47.707031 874.445312 L 46.683594 877.863281 L 46.101562 881.625 L 45.808594 885.816406 L 45.652344 890.542969 L 45.523438 895.847656 L 45.441406 901.558594 L 45.472656 907.457031 L 45.675781 913.324219 L 46.105469 918.933594 L 46.78125 924.183594 L 47.53125 929.417969 L 48.136719 935.09375 L 48.375 941.671875 L 48.136719 949.421875 L 47.695312 957.867188 L 47.445312 966.335938 L 47.761719 974.164062 L 49.035156 980.679688 L 51.492188 985.46875 L 54.742188 989.164062 L 58.242188 992.640625 L 61.445312 996.78125 L 63.9375 1002.214844 L 65.808594 1008.589844 L 67.285156 1015.292969 L 68.585938 1021.722656 L 69.886719 1027.390625 L 71.175781 1032.265625 L 72.40625 1036.441406 L 73.511719 1039.996094 L 74.449219 1043.027344 L 75.183594 1045.628906 L 75.828125 1047.929688 L 76.503906 1050.078125 L 77.351562 1052.210938 L 78.488281 1054.46875 L 79.960938 1057.011719 L 81.804688 1059.992188 L 84.058594 1063.566406 L 86.734375 1067.824219 L 89.761719 1072.601562 L 93.050781 1077.671875 L 96.511719 1082.804688 L 100.054688 1087.777344 L 103.609375 1092.414062 L 107.226562 1096.792969 L 110.96875 1101.046875 L 114.910156 1105.308594 L 119.089844 1109.703125 L 123.433594 1114.308594 L 127.824219 1119.199219 L 132.167969 1124.445312 L 136.347656 1130.113281 L 140.3125 1136.234375 L 144.1875 1142.679688 L 148.152344 1149.28125 L 152.386719 1155.867188 L 156.949219 1162.257812 L 161.425781 1168.238281 L 165.273438 1173.585938 L 167.960938 1178.078125 L 169.15625 1181.585938 L 169.34375 1184.363281 L 169.21875 1186.765625 L 169.472656 1189.140625 L 170.800781 1191.835938 L 173.679688 1195.144531 L 177.742188 1199.097656 L 182.398438 1203.65625 L 187.074219 1208.792969 L 191.328125 1214.457031 L 195.308594 1220.527344 L 199.308594 1226.851562 L 203.625 1233.292969 L 208.464844 1239.714844 L 213.671875 1246.019531 L 219.007812 1252.101562 L 224.226562 1257.878906 L 229.09375 1263.25 L 233.410156 1268.144531 L 237.152344 1272.617188 L 240.339844 1276.734375 L 243 1280.574219 L 245.277344 1284.199219 L 247.839844 1287.671875 L 251.480469 1291.042969 L 256.992188 1294.363281 L 265.167969 1297.691406 L 276.394531 1301.035156 L 289.410156 1304.277344 L 302.5625 1307.246094 L 314.1875 1309.777344 L 323.007812 1311.746094 L 329.320312 1313.1875 L 333.804688 1314.171875 L 337.144531 1314.769531 L 339.949219 1315.054688 L 342.546875 1315.105469 L 345.191406 1314.992188 L 348.144531 1314.800781 L 351.664062 1314.605469 L 355.929688 1314.445312 L 360.859375 1314.199219 L 366.289062 1313.71875 L 372.0625 1312.84375 L 378.019531 1311.457031 L 383.980469 1309.566406 L 389.769531 1307.21875 L 395.210938 1304.457031 L 400.125 1301.332031 L 404.445312 1297.898438 L 408.53125 1294.285156 L 412.859375 1290.625 L 417.90625 1287.058594 L 423.96875 1283.765625 L 430.671875 1281.0625 L 437.453125 1279.316406 L 443.761719 1278.882812 L 449.164062 1280.007812 L 453.671875 1282.433594 L 457.429688 1285.78125 L 460.570312 1289.667969 L 463.234375 1293.722656 L 465.632812 1297.675781 L 468.292969 1301.691406 L 471.816406 1306.058594 L 476.808594 1311.050781 L 483.644531 1316.863281 L 491.828125 1323.367188 L 500.621094 1330.332031 L 509.300781 1337.539062 L 517.375 1344.761719 L 525.289062 1351.746094 L 533.722656 1358.238281 L 543.359375 1363.976562 L 554.878906 1368.707031 L 568.648438 1372.214844 L 583.761719 1374.464844 L 598.992188 1375.472656 L 613.125 1375.242188 L 625.246094 1373.835938 L 635.714844 1371.46875 L 645.199219 1368.40625 L 654.367188 1364.902344 L 663.894531 1361.230469 L 674.195312 1357.585938 L 684.695312 1353.972656 L 694.566406 1350.320312 L 702.976562 1346.570312 L 709.398438 1342.699219 L 714.472656 1338.820312 L 719.140625 1335.074219 L 724.339844 1331.617188 L 730.785156 1328.535156 L 738.300781 1325.675781 L 746.480469 1322.824219 L 754.921875 1319.765625 L 763.222656 1316.292969 L 771.078125 1312.246094 L 778.59375 1307.714844 L 785.96875 1302.839844 L 793.402344 1297.765625 L 801.039062 1292.621094 L 808.769531 1287.464844 L 816.433594 1282.355469 L 823.863281 1277.332031 L 830.941406 1272.449219 L 837.71875 1267.785156 L 844.300781 1263.40625 L 850.789062 1259.394531 L 857.285156 1255.824219 L 863.871094 1252.683594 L 870.550781 1249.632812 L 877.320312 1246.230469 L 884.164062 1242.042969 L 891.046875 1236.777344 L 897.847656 1230.648438 L 904.417969 1224.019531 L 910.601562 1217.246094 L 916.257812 1210.679688 L 921.269531 1204.617188 L 925.664062 1199.109375 L 929.5 1194.132812 L 932.832031 1189.683594 L 935.773438 1185.667969 L 938.585938 1181.699219 L 941.582031 1177.328125 L 945.078125 1172.09375 L 949.269531 1165.679688 L 953.90625 1158.34375 L 958.613281 1150.492188 L 963.019531 1142.519531 L 966.761719 1134.835938 L 969.554688 1127.75 L 971.488281 1121.238281 L 972.730469 1115.199219 L 973.460938 1109.515625 L 973.855469 1104.078125 L 974.097656 1098.722656 L 974.382812 1093.28125 L 974.898438 1087.582031 L 975.835938 1081.460938 L 977.324219 1074.800781 L 979.246094 1067.734375 L 981.425781 1060.449219 L 983.6875 1053.140625 L 985.886719 1046 L 988.019531 1039.269531 L 990.117188 1033.183594 L 992.214844 1027.996094 L 994.324219 1023.855469 L 996.40625 1020.566406 L 998.390625 1017.835938 L 1000.226562 1015.382812 L 1001.84375 1012.910156 L 1003.203125 1010.175781 L 1004.3125 1007.082031 L 1005.203125 1003.566406 L 1005.898438 999.578125 L 1006.449219 995.054688 L 1006.960938 989.957031 L 1007.558594 984.226562 L 1008.367188 977.828125 L 1009.46875 970.808594 L 1010.746094 963.597656 L 1012.027344 956.726562 L 1013.15625 950.71875 L 1013.960938 946.101562 L 1014.328125 943.175781 L 1014.347656 941.304688 L 1014.160156 939.613281 L 1013.894531 937.242188 L 1013.675781 933.511719 L 1013.5625 928.539062 L 1013.589844 922.632812 L 1013.792969 916.113281 L 1014.214844 909.28125 L 1014.855469 902.371094 L 1015.566406 895.289062 L 1016.15625 887.855469 L 1016.445312 879.898438 L 1016.320312 871.269531 L 1015.945312 862 L 1015.566406 852.136719 L 1015.429688 841.738281 L 1015.714844 830.929688 L 1016.363281 820.085938 L 1017.261719 809.644531 L 1018.292969 800.046875 L 1019.335938 791.734375 L 1020.269531 784.996094 L 1020.949219 779.503906 L 1021.207031 774.792969 L 1020.894531 770.386719 L 1019.925781 765.863281 L 1018.480469 760.996094 L 1016.820312 755.613281 L 1015.199219 749.535156 L 1013.808594 742.660156 L 1012.585938 735.195312 L 1011.402344 727.414062 L 1010.125 719.589844 L 1008.625 712.003906 L 1006.820312 704.894531 L 1004.808594 698.371094 L 1002.734375 692.507812 L 1000.734375 687.378906 L 998.914062 682.996094 L 997.167969 679.082031 L 995.359375 675.308594 L 993.339844 671.339844 L 990.96875 666.839844 L 988.152344 661.574219 L 985 655.699219 L 981.675781 649.484375 L 978.34375 643.183594 L 975.15625 637.046875 L 972.222656 631.269531 L 969.644531 626.035156 L 967.523438 621.53125 L 965.875 617.824219 L 964.359375 614.5625 L 962.539062 611.285156 L 959.988281 607.523438 L 956.277344 602.820312 L 951.171875 596.902344 L 945.253906 590.273438 L 939.296875 583.628906 L 934.078125 577.671875 L 930.179688 572.914062 L 927.375 569.152344 L 925.238281 566.007812 L 923.347656 563.097656 L 921.273438 560.035156 L 918.628906 556.53125 L 915.167969 552.679688 L 910.671875 548.667969 L 904.925781 544.675781 L 897.859375 540.851562 L 889.976562 537.203125 L 881.921875 533.695312 L 874.34375 530.300781 L 867.730469 527.015625 L 861.945312 523.964844 L 856.695312 521.308594 L 851.6875 519.199219 L 846.625 517.796875 L 841.222656 517.214844 L 835.238281 517.375 L 828.429688 518.15625 L 820.554688 519.445312 L 811.476562 521.15625 L 801.457031 523.335938 L 790.859375 526.082031 L 780.046875 529.480469 L 769.351562 533.558594 L 758.957031 538.136719 L 749.007812 542.972656 L 739.660156 547.816406 L 731.0625 552.429688 L 723.296875 556.675781 L 716.183594 560.808594 L 709.476562 565.203125 L 702.925781 570.21875 L 696.355469 576.117188 L 689.871094 582.738281 L 683.640625 589.816406 L 677.835938 597.082031 L 672.628906 604.265625 L 668.128906 611.136719 L 664.191406 617.550781 L 660.609375 623.410156 L 657.167969 628.601562 L 653.695312 633.113281 L 650.175781 637.300781 L 646.617188 641.613281 L 643.03125 646.492188 L 639.429688 652.308594 L 635.769531 659.058594 L 632.007812 666.660156 L 628.097656 675.039062 L 623.996094 684.105469 L 619.703125 693.671875 L 615.441406 703.132812 L 611.480469 711.78125 L 608.089844 718.902344 L 605.46875 724.050781 L 603.53125 727.835938 L 602.117188 731.136719 L 601.070312 734.835938 L 600.234375 739.589844 L 599.464844 745.222656 L 598.617188 751.332031 L 597.554688 757.53125 L 596.132812 763.417969 L 594.273438 768.613281 L 592.140625 772.796875 L 589.960938 775.660156 L 587.960938 776.894531 L 586.289062 776.308594 L 584.8125 774.175781 L 583.320312 770.886719 L 581.605469 766.828125 L 579.449219 762.398438 L 576.695312 757.945312 L 573.367188 753.65625 L 569.542969 749.679688 L 565.289062 746.160156 L 560.699219 743.183594 L 555.9375 740.570312 L 551.179688 738.070312 L 546.613281 735.445312 L 542.378906 732.484375 L 538.519531 729.136719 L 535.039062 725.390625 L 531.933594 721.234375 L 529.214844 716.648438 L 526.875 711.640625 L 524.839844 706.261719 L 523.035156 700.578125 L 521.375 694.65625 L 519.785156 688.582031 L 518.222656 682.480469 L 516.648438 676.492188 L 515.027344 670.757812 L 513.320312 665.421875 L 511.511719 660.59375 L 509.671875 656.277344 L 507.890625 652.457031 L 506.265625 649.097656 L 504.839844 646.132812 L 503.492188 643.28125 L 502.066406 640.214844 L 500.398438 636.597656 L 498.359375 632.214844 L 495.960938 627.269531 L 493.25 622.074219 L 490.265625 616.945312 L 487.0625 612.195312 L 483.695312 608.058594 L 480.332031 604.414062 L 477.144531 601.074219 L 474.308594 597.832031 L 471.949219 594.527344 L 469.972656 591.089844 L 468.21875 587.492188 L 466.539062 583.703125 L 464.777344 579.699219 L 462.75 575.492188 L 460.28125 571.109375 L 457.179688 566.574219 L 453.265625 561.914062 L 448.449219 557.15625 L 443.039062 552.363281 L 437.425781 547.601562 L 432.011719 542.945312 L 427.117188 538.449219 L 422.75 534.144531 L 418.847656 530.054688 L 415.34375 526.191406 L 412.171875 522.582031 L 409.1875 519.199219 L 405.9375 515.839844 L 401.890625 512.253906 L 396.523438 508.1875 L 389.554688 503.542969 L 381.726562 498.789062 L 374.039062 494.535156 L 367.488281 491.394531 L 362.765625 489.796875 L 359.335938 489.398438 L 356.371094 489.671875 L 353.027344 490.082031 L 348.46875 490.109375 L 342.027344 489.363281 L 333.6875 488.082031 L 323.597656 486.636719 L 311.914062 485.40625 L 298.878906 484.65625 L 285.144531 484.191406 L 271.457031 483.699219 L 258.5625 482.867188 L 247.210938 481.390625 L 250.339844 482.09375 "/>
<path style="fill:none;stroke-width:0.75;stroke-linecap:round;stroke-linejoin:round;stroke:rgb(0%,0%,0%);stroke-opacity:1;stroke-miterlimit:10;" d="M 282.492188 491.535156 L 276.898438 493.066406 L 270.996094 494.503906 L 265.402344 495.886719 L 260.585938 497.238281 L 256.449219 498.574219 L 252.738281 499.898438 L 249.203125 501.222656 L 245.628906 502.546875 L 241.964844 503.855469 L 238.179688 505.125 L 234.253906 506.375 L 230.132812 507.78125 L 225.765625 509.550781 L 221.089844 511.902344 L 216.089844 514.910156 L 210.921875 518.105469 L 205.769531 520.875 L 200.78125 522.890625 L 195.933594 524.925781 L 191.148438 528.03125 L 186.363281 533.265625 L 181.554688 541.179688 L 176.921875 550.367188 L 172.707031 558.925781 L 169.0625 565.382812 L 165.722656 569.960938 L 162.328125 573.320312 L 158.523438 576.113281 L 154.175781 578.910156 L 150.085938 581.925781 L 147.285156 585.289062 L 146.398438 589.132812 L 146.398438 593.597656 L 145.84375 598.835938 L 143.308594 604.996094 L 137.90625 612.066406 L 131 619.421875 L 124.496094 626.273438 L 119.894531 632.023438 L 116.976562 636.832031 L 115.121094 641.046875 L 113.695312 645.023438 L 112.125 649.128906 L 110.085938 653.820312 L 107.300781 659.582031 L 103.640625 666.730469 L 99.511719 674.929688 L 95.472656 683.671875 L 92.070312 692.460938 L 89.738281 700.785156 L 88.449219 708.105469 L 88.066406 713.882812 L 88.402344 717.863281 L 89.097656 721 L 89.761719 724.53125 L 89.992188 729.699219 L 89.453125 737.332031 L 88.074219 746.582031 L 85.851562 756.195312 L 82.859375 765.105469 L 79.519531 773.042969 L 76.332031 779.9375 L 73.804688 785.710938 L 72.238281 790.382812 L 71.140625 794.292969 L 69.820312 797.882812 L 67.785156 801.523438 L 65.347656 805.371094 L 63.035156 809.511719 L 61.359375 814.046875 L 60.726562 819.058594 L 61.09375 824.636719 L 62.292969 830.859375 L 64.058594 837.679688 L 65.636719 844.578125 L 66.164062 850.910156 L 64.78125 856.03125 L 61.015625 859.535156 L 55.933594 861.949219 L 51.007812 864.050781 L 47.699219 866.601562 L 46.972656 870.148438 L 47.8125 874.332031 L 48.695312 878.578125 L 48.453125 882.46875 L 47.304688 886.253906 L 45.816406 890.359375 L 44.554688 895.199219 L 43.976562 901.019531 L 44.117188 907.355469 L 44.898438 913.574219 L 46.191406 919.203125 L 47.636719 924.460938 L 48.824219 929.730469 L 49.339844 935.398438 L 48.933594 941.78125 L 48.003906 948.941406 L 47.113281 956.867188 L 46.753906 965.414062 L 47.160156 973.871094 L 48.488281 981.386719 L 50.90625 987.109375 L 54.414062 990.597656 L 58.378906 993.050781 L 62.011719 996.074219 L 64.699219 1000.890625 L 66.542969 1007.1875 L 67.8125 1014.265625 L 68.785156 1021.433594 L 69.703125 1028.042969 L 70.65625 1033.707031 L 71.707031 1038.082031 L 72.882812 1040.992188 L 74.109375 1042.921875 L 75.289062 1044.519531 L 76.324219 1046.429688 L 77.160156 1049.113281 L 77.929688 1052.25 L 78.804688 1055.339844 L 79.949219 1058.03125 L 81.476562 1060.597656 L 83.492188 1063.476562 L 86.101562 1067.097656 L 89.34375 1071.738281 L 92.996094 1077.085938 L 96.761719 1082.664062 L 100.417969 1088.066406 L 103.976562 1093.125 L 107.515625 1097.746094 L 111.109375 1101.828125 L 114.832031 1105.394531 L 118.777344 1108.941406 L 123.03125 1113.09375 L 127.617188 1118.300781 L 132.304688 1124.320312 L 136.800781 1130.738281 L 140.816406 1137.140625 L 144.222656 1143.230469 L 147.535156 1149.179688 L 151.449219 1155.277344 L 156.375 1161.679688 L 161.617188 1168.039062 L 166.207031 1173.871094 L 169.175781 1178.6875 L 169.925781 1182.179688 L 169.351562 1184.707031 L 168.714844 1186.785156 L 169.0625 1188.898438 L 170.582031 1191.359375 L 173.246094 1194.441406 L 177.023438 1198.414062 L 181.789062 1203.433594 L 187.039062 1209.207031 L 192.164062 1215.332031 L 196.5625 1221.402344 L 199.914062 1227.144531 L 203.035156 1232.808594 L 207.019531 1238.769531 L 212.605469 1245.269531 L 219.113281 1251.96875 L 225.492188 1258.390625 L 230.699219 1264.058594 L 234.054688 1268.664062 L 236.339844 1272.550781 L 238.691406 1276.230469 L 241.980469 1280.09375 L 245.976562 1284.058594 L 250.171875 1287.925781 L 254.0625 1291.492188 L 257.605469 1294.640625 L 262.613281 1297.582031 L 271.359375 1300.605469 L 285.175781 1303.886719 L 301.613281 1307.167969 L 317.28125 1310.070312 L 328.789062 1312.214844 L 333.867188 1313.375 L 334.757812 1313.886719 L 334.824219 1314.238281 L 336.722656 1314.785156 L 340.308594 1315.375 L 344.738281 1315.734375 L 349.160156 1315.589844 L 352.976562 1314.796875 L 356.59375 1313.738281 L 360.65625 1312.9375 L 365.648438 1312.722656 L 371.40625 1312.699219 L 377.597656 1312.277344 L 383.894531 1310.878906 L 389.996094 1308.125 L 395.6875 1304.492188 L 400.789062 1300.664062 L 405.199219 1297.1875 L 409.144531 1294.0625 L 412.929688 1291.160156 L 416.867188 1288.34375 L 421.105469 1285.351562 L 425.199219 1281.390625 L 428.550781 1275.535156 L 430.738281 1267.230469 L 432.046875 1257.417969 L 432.9375 1247.40625 L 433.871094 1238.5 L 435.1875 1231.699219 L 436.765625 1226.753906 L 438.351562 1223.105469 L 439.761719 1220.238281 L 441.03125 1217.832031 L 442.242188 1215.628906 L 443.492188 1213.351562 L 444.839844 1210.800781 L 446.25 1208.023438 L 447.65625 1205.121094 L 449.015625 1202.15625 L 450.335938 1198.984375 L 451.644531 1195.417969 L 452.957031 1191.269531 L 454.300781 1186.472656 L 455.664062 1181.460938 L 457.023438 1176.792969 L 458.367188 1172.867188 L 459.703125 1169.40625 L 461.035156 1165.980469 L 462.371094 1162.148438 L 463.714844 1157.578125 L 465.0625 1152.328125 L 466.410156 1146.574219 L 467.753906 1140.515625 L 469.09375 1134.503906 L 470.429688 1128.925781 L 471.769531 1124.175781 L 473.113281 1120.472656 L 474.457031 1117.414062 L 475.800781 1114.417969 L 477.144531 1110.910156 L 478.488281 1106.523438 L 479.824219 1101.667969 L 481.164062 1096.960938 L 482.507812 1092.871094 L 483.851562 1089.253906 L 485.191406 1085.820312 L 486.535156 1082.28125 L 487.878906 1078.425781 L 489.21875 1074.371094 L 490.5625 1070.316406 L 491.902344 1066.378906 L 493.246094 1062.378906 L 494.589844 1058.046875 L 495.929688 1053.128906 L 497.273438 1047.507812 L 498.613281 1041.660156 L 499.953125 1036.207031 L 501.296875 1031.609375 L 502.636719 1027.671875 L 503.980469 1024.042969 L 505.324219 1020.363281 L 506.664062 1016.378906 L 508.007812 1012.28125 L 509.351562 1008.359375 L 510.691406 1004.828125 L 512.035156 1001.621094 L 513.375 998.605469 L 514.71875 995.632812 L 516.058594 992.582031 L 517.402344 989.335938 L 518.742188 985.800781 L 520.085938 981.914062 L 521.425781 977.792969 L 522.765625 973.597656 L 524.109375 969.488281 L 525.453125 965.558594 L 526.796875 961.664062 L 528.140625 957.585938 L 529.480469 953.230469 L 530.816406 948.933594 L 532.15625 945.148438 L 533.5 942.332031 L 534.851562 940.601562 L 536.203125 938.738281 L 537.542969 935.199219 L 538.871094 928.839844 L 540.195312 920.132812 L 541.527344 909.960938 L 542.878906 899.210938 L 544.253906 888.71875 L 545.632812 879.171875 L 546.976562 871.210938 L 548.269531 865.265625 L 549.546875 860.855469 L 550.847656 857.289062 L 552.226562 853.871094 L 553.691406 850.109375 L 555.15625 846.308594 L 556.496094 842.996094 L 557.644531 840.375 L 558.742188 837.449219 L 559.992188 832.914062 L 561.589844 825.46875 L 563.554688 814.265625 L 565.199219 800.289062 L 565.652344 784.976562 L 564.289062 769.726562 L 561.480469 755.773438 L 557.835938 744.308594 L 553.976562 736.523438 L 550.363281 733.070312 L 546.921875 732.441406 L 543.417969 732.578125 L 539.625 731.433594 L 535.460938 727.546875 L 531.421875 721.816406 L 528.15625 715.746094 L 526.09375 710.476562 L 524.84375 705.75 L 523.8125 700.96875 L 522.40625 695.519531 L 520.230469 689.042969 L 517.730469 682.125 L 515.554688 675.597656 L 514.167969 670.09375 L 513.265625 665.4375 L 512.351562 661.253906 L 510.929688 657.167969 L 508.703125 652.933594 L 506.113281 648.808594 L 503.8125 645.183594 L 502.261719 642.289062 L 501.226562 639.710938 L 500.285156 636.871094 L 499.03125 633.191406 L 497.113281 628.308594 L 494.46875 622.695312 L 491.089844 617.039062 L 487.074219 611.910156 L 482.847656 607.414062 L 478.921875 603.546875 L 475.8125 600.296875 L 473.835938 597.574219 L 472.519531 594.972656 L 471.199219 591.996094 L 469.339844 588.289062 L 467.007812 584.007812 L 464.398438 579.441406 L 461.71875 574.882812 L 459.089844 570.542969 L 456.335938 566.320312 L 453.199219 562.035156 L 449.445312 557.550781 L 444.972656 552.867188 L 439.699219 548.039062 L 433.539062 543.097656 L 426.636719 538.132812 L 420.019531 533.34375 L 414.933594 528.96875 L 412.230469 525.246094 L 411.222656 522.375 L 410.828125 520.558594 L 409.960938 519.996094 L 407.875 520.667969 L 405.164062 521.679688 L 402.765625 521.914062 L 401.308594 520.566406 L 400.230469 518.003906 L 398.679688 514.894531 L 395.792969 511.914062 L 391.078125 509.578125 L 385.527344 507.8125 L 380.488281 506.394531 L 376.976562 505.113281 L 374.652344 503.875 L 372.824219 502.601562 L 370.8125 501.21875 L 368.050781 499.703125 L 364.40625 498.242188 L 359.875 497.070312 L 354.636719 496.355469 L 349.617188 495.945312 L 345.9375 495.617188 L 344.722656 495.136719 L 345.519531 494.339844 L 341.644531 493.289062 L 324.835938 492.105469 L 286.835938 490.902344 L 282.492188 491.535156 "/>
<path style="fill:none;stroke-width:0.75;stroke-linecap:round;stroke-linejoin:round;stroke:rgb(0%,0%,0%);stroke-opacity:1;stroke-miterlimit:10;" d="M 790.085938 528.980469 L 787.011719 530.582031 L 782.644531 532.167969 L 776.527344 533.785156 L 768.585938 535.488281 L 760.292969 537.316406 L 753.488281 539.308594 L 749.285156 541.574219 L 745.847656 544.472656 L 740.609375 548.414062 L 731.925781 553.554688 L 721.925781 558.9375 L 713.652344 563.339844 L 709.238281 565.9375 L 707.105469 567.507812 L 704.738281 569.226562 L 700.25 572.089844 L 694.246094 576.355469 L 687.949219 582.097656 L 682.332031 589.246094 L 677.390625 597.125 L 672.875 604.914062 L 668.582031 611.941406 L 664.492188 618.160156 L 660.628906 623.664062 L 657.015625 628.558594 L 653.636719 632.984375 L 650.324219 637.246094 L 646.863281 641.691406 L 643.113281 646.628906 L 639.222656 652.21875 L 635.421875 658.570312 L 631.839844 665.808594 L 628.273438 674.074219 L 624.421875 683.5 L 620.105469 693.972656 L 615.625 704.347656 L 611.402344 713.234375 L 607.804688 719.613281 L 604.96875 724.050781 L 602.988281 727.496094 L 601.855469 730.8125 L 601.226562 734.519531 L 600.675781 739.039062 L 599.847656 744.640625 L 598.742188 750.929688 L 597.429688 757.355469 L 595.980469 763.359375 L 594.425781 768.472656 L 592.601562 772.578125 L 590.300781 775.648438 L 587.421875 777.832031 L 584.335938 780.046875 L 581.519531 783.378906 L 579.335938 788.554688 L 577.671875 794.78125 L 576.289062 800.886719 L 574.996094 806 L 573.722656 810.425781 L 572.4375 814.765625 L 571.109375 819.476562 L 569.753906 824.441406 L 568.394531 829.402344 L 567.046875 834.21875 L 565.707031 839.234375 L 564.371094 844.90625 L 563.03125 851.535156 L 561.683594 858.8125 L 560.339844 866.273438 L 559 873.457031 L 557.660156 879.976562 L 556.324219 885.753906 L 554.984375 890.78125 L 553.636719 895.140625 L 552.289062 899.1875 L 550.941406 903.371094 L 549.605469 907.992188 L 548.269531 912.8125 L 546.933594 917.460938 L 545.585938 921.636719 L 544.238281 925.308594 L 542.890625 928.511719 L 541.550781 931.320312 L 540.214844 933.9375 L 538.878906 936.605469 L 537.535156 939.496094 L 536.191406 942.570312 L 534.84375 945.710938 L 533.5 948.855469 L 532.15625 952.074219 L 530.816406 955.472656 L 529.476562 959.164062 L 528.140625 963.226562 L 526.800781 967.628906 L 525.457031 972.316406 L 524.113281 977.238281 L 522.761719 982.378906 L 521.417969 987.738281 L 520.082031 993.226562 L 518.746094 998.46875 L 517.410156 1003.003906 L 516.0625 1006.566406 L 514.714844 1009.625 L 513.367188 1012.824219 L 512.027344 1016.621094 L 510.691406 1020.675781 L 509.355469 1024.460938 L 508.011719 1027.601562 L 506.667969 1030.351562 L 505.320312 1033.125 L 503.976562 1036.265625 L 502.632812 1039.804688 L 501.292969 1043.683594 L 499.953125 1047.859375 L 498.617188 1052.34375 L 497.277344 1057.375 L 495.933594 1063.261719 L 494.589844 1070.144531 L 493.242188 1077.503906 L 491.894531 1084.667969 L 490.558594 1091.109375 L 489.222656 1096.886719 L 487.886719 1102.222656 L 486.539062 1107.269531 L 485.191406 1111.960938 L 483.84375 1116.167969 L 482.503906 1119.820312 L 481.167969 1123.117188 L 479.828125 1126.300781 L 478.492188 1129.578125 L 477.148438 1132.953125 L 475.800781 1136.371094 L 474.453125 1139.777344 L 473.105469 1143.070312 L 471.761719 1146.140625 L 470.425781 1148.882812 L 469.101562 1151.292969 L 467.773438 1153.789062 L 466.421875 1156.882812 L 465.046875 1160.816406 L 463.679688 1164.675781 L 462.351562 1167.277344 L 461.085938 1168.121094 L 459.785156 1169.5625 L 458.332031 1174.640625 L 456.703125 1185.734375 L 455.238281 1202.511719 L 454.375 1223.972656 L 454.484375 1248.480469 L 455.652344 1271.882812 L 457.890625 1289.386719 L 461.136719 1297.785156 L 465.007812 1300.140625 L 469.03125 1301.101562 L 472.925781 1304.375 L 477.136719 1309.929688 L 482.300781 1316.808594 L 489.042969 1324.050781 L 497.761719 1330.917969 L 507.90625 1337.5625 L 518.683594 1344.363281 L 529.332031 1351.519531 L 539.175781 1358.480469 L 547.578125 1364.5 L 554.527344 1369.023438 L 562.605469 1372.179688 L 575.035156 1374.28125 L 593.609375 1375.527344 L 614.417969 1375.675781 L 632.113281 1374.375 L 642.871094 1371.488281 L 648.886719 1367.710938 L 653.878906 1363.941406 L 660.851562 1360.839844 L 669.96875 1358.035156 L 680.699219 1354.914062 L 692.363281 1351.03125 L 703.707031 1346.636719 L 713.335938 1342.148438 L 719.863281 1337.988281 L 722.628906 1334.46875 L 723.925781 1331.464844 L 726.785156 1328.75 L 733.464844 1326.09375 L 743.132812 1323.277344 L 754.179688 1320.074219 L 765.113281 1316.320312 L 774.902344 1312.074219 L 782.644531 1307.4375 L 787.90625 1302.542969 L 792.207031 1297.554688 L 797.558594 1292.65625 L 805.382812 1287.945312 L 814.800781 1283.179688 L 824.351562 1278.027344 L 832.835938 1272.351562 L 840.09375 1266.746094 L 846.234375 1261.984375 L 851.460938 1258.59375 L 856.414062 1256.070312 L 861.824219 1253.65625 L 868.433594 1250.597656 L 876.613281 1246.355469 L 885.285156 1241.3125 L 892.996094 1236.066406 L 898.777344 1231 L 903.570312 1225.582031 L 908.792969 1219.070312 L 915.367188 1211.109375 L 922.207031 1202.929688 L 927.742188 1196.152344 L 930.898438 1191.910156 L 932.625 1189.359375 L 934.371094 1187.171875 L 937.269531 1184.164062 L 941.117188 1179.75 L 945.394531 1173.492188 L 949.675781 1165.265625 L 953.945312 1156.191406 L 958.277344 1147.703125 L 962.671875 1140.851562 L 966.796875 1135.140625 L 970.234375 1129.691406 L 972.558594 1123.632812 L 973.527344 1116.421875 L 973.5625 1108.886719 L 973.25 1102.191406 L 973.117188 1097.105469 L 973.433594 1092.859375 L 974.394531 1088.285156 L 976.09375 1082.484375 L 978.171875 1075.625 L 980.152344 1068.132812 L 981.71875 1060.417969 L 983.1875 1052.804688 L 985.03125 1045.59375 L 987.546875 1039.046875 L 990.347656 1033.210938 L 992.875 1028.097656 L 994.738281 1023.714844 L 996.234375 1020.082031 L 997.820312 1017.230469 L 999.820312 1015.082031 L 1001.957031 1013.191406 L 1003.820312 1011 L 1004.992188 1007.957031 L 1005.253906 1003.738281 L 1005.1875 998.871094 L 1005.574219 994.113281 L 1006.917969 989.894531 L 1008.601562 985.386719 L 1009.742188 979.4375 L 1009.777344 971.390625 L 1009.46875 962.613281 L 1009.921875 954.96875 L 1011.828125 949.820312 L 1014.320312 946.519531 L 1016.121094 943.925781 L 1016.308594 941.144531 L 1015.308594 938.292969 L 1013.886719 935.734375 L 1012.722656 933.5625 L 1012.101562 930.734375 L 1012.222656 925.929688 L 1013.164062 918.308594 L 1014.554688 908.949219 L 1015.894531 899.402344 L 1016.707031 891.234375 L 1016.664062 885.394531 L 1016.136719 880.4375 L 1015.660156 874.316406 L 1015.628906 865.488281 L 1015.851562 854.429688 L 1015.992188 842.121094 L 1015.855469 829.53125 L 1015.800781 817.558594 L 1016.316406 807.089844 L 1017.703125 798.742188 L 1019.492188 792.089844 L 1021.007812 786.4375 L 1021.71875 781.167969 L 1021.628906 775.984375 L 1020.890625 770.652344 L 1019.660156 765.035156 L 1018.148438 759.355469 L 1016.589844 753.921875 L 1015.164062 748.878906 L 1013.859375 743.691406 L 1012.609375 737.664062 L 1011.351562 730.089844 L 1010.027344 720.679688 L 1008.574219 710.792969 L 1006.945312 702.1875 L 1005.09375 696.125 L 1003.058594 691.871094 L 1000.890625 688.191406 L 998.667969 684.113281 L 996.542969 679.722656 L 994.695312 675.371094 L 993.167969 671.261719 L 991.503906 666.980469 L 989.121094 661.972656 L 985.652344 655.890625 L 981.609375 649.230469 L 977.71875 642.691406 L 974.546875 636.828125 L 972.003906 631.550781 L 969.832031 626.613281 L 967.804688 621.847656 L 965.839844 617.359375 L 963.898438 613.339844 L 961.921875 609.964844 L 959.769531 607.183594 L 956.875 603.992188 L 952.574219 599.15625 L 946.53125 591.949219 L 939.742188 583.726562 L 933.535156 576.355469 L 928.945312 571.25 L 925.867188 567.964844 L 923.902344 565.601562 L 922.621094 563.351562 L 921.457031 560.777344 L 919.820312 557.535156 L 917.136719 553.433594 L 912.957031 548.824219 L 906.855469 544.207031 L 898.429688 540.023438 L 887.332031 536.464844 L 873.234375 533.675781 L 855.976562 531.71875 L 836.128906 530.378906 L 814.414062 529.378906 L 791.578125 528.4375 L 790.085938 528.980469 "/>
</g>
</svg>
