<?xml version="1.0" encoding="UTF-8"?>
<svg xmlns="http://www.w3.org/2000/svg" xmlns:xlink="http://www.w3.org/1999/xlink" width="1428pt" height="1605pt" viewBox="0 0 1428 1605" version="1.1">
<g id="surface214">
<rect x="0" y="0" width="1428" height="1605" style="fill:rgb(100%,100%,100%);fill-opacity:1;stroke:none;"/>
<path style="fill:none;stroke-width:0.75;stroke-linecap:round;stroke-linejoin:round;stroke:rgb(0%,0%,0%);stroke-opacity:1;stroke-miterlimit:10;" d="M 309.527344 473.808594 L 281.628906 478.042969 L 258.507812 481.867188 L 240.46875 485.675781 L 227.804688 489.859375 L 220.417969 494.675781 L 216.632812 499.84375 L 214.375 504.945312 L 211.574219 509.574219 L 206.664062 513.457031 L 200.085938 516.90625 L 192.785156 520.375 L 185.707031 524.320312 L 179.792969 529.203125 L 175.738281 535.277344 L 173.210938 542.039062 L 171.636719 548.773438 L 170.433594 554.777344 L 169.097656 559.523438 L 167.414062 563.214844 L 165.253906 566.242188 L 162.480469 568.992188 L 159.03125 571.804688 L 155.136719 574.859375 L 151.097656 578.285156 L 147.214844 582.214844 L 143.792969 586.785156 L 141.015625 592.054688 L 138.59375 597.828125 L 136.128906 603.824219 L 133.207031 609.773438 L 129.597656 615.453125 L 125.691406 620.828125 L 122.054688 625.910156 L 119.246094 630.707031 L 117.640625 635.234375 L 116.832031 639.472656 L 116.234375 643.417969 L 115.253906 647.054688 L 113.296875 650.367188 L 109.996094 653.410156 L 105.871094 656.488281 L 101.660156 659.976562 L 98.109375 664.242188 L 95.742188 669.519531 L 94.242188 675.433594 L 93.085938 681.484375 L 91.738281 687.152344 L 89.820312 692.101562 L 87.570312 696.679688 L 85.359375 701.414062 L 83.574219 706.820312 L 82.589844 713.425781 L 82.632812 721.5625 L 83.261719 730.792969 L 83.882812 740.503906 L 83.902344 750.066406 L 82.871094 758.953125 L 80.972656 766.992188 L 78.527344 774.101562 L 75.867188 780.207031 L 73.277344 785.316406 L 70.847656 789.835938 L 68.640625 794.265625 L 66.695312 799.101562 L 65.070312 804.84375 L 63.769531 811.8125 L 62.628906 819.621094 L 61.4375 827.695312 L 59.980469 835.46875 L 58.121094 842.464844 L 56.007812 848.542969 L 53.847656 853.675781 L 51.867188 857.808594 L 50.21875 861.011719 L 48.875 863.757812 L 47.746094 866.625 L 46.738281 870.1875 L 45.765625 875.023438 L 44.777344 881.472656 L 43.878906 888.894531 L 43.210938 896.421875 L 42.921875 903.175781 L 43.082031 908.539062 L 43.5 912.914062 L 43.921875 916.964844 L 44.082031 921.339844 L 43.808594 926.542969 L 43.238281 932.390625 L 42.601562 938.550781 L 42.125 944.675781 L 42.035156 950.425781 L 42.5 955.578125 L 43.476562 960.375 L 44.867188 965.183594 L 46.578125 970.363281 L 48.527344 976.148438 L 50.738281 982.265625 L 53.246094 988.316406 L 56.097656 993.894531 L 59.257812 998.722656 L 62.4375 1003.003906 L 65.269531 1007.046875 L 67.390625 1011.183594 L 68.441406 1015.722656 L 68.253906 1020.847656 L 67.4375 1026.1875 L 66.808594 1031.230469 L 67.175781 1035.460938 L 69.066406 1038.53125 L 71.871094 1040.710938 L 74.707031 1042.429688 L 76.683594 1044.121094 L 77.195312 1046.15625 L 76.777344 1048.671875 L 76.246094 1051.75 L 76.417969 1055.464844 L 78.113281 1059.898438 L 81.835938 1065.039062 L 86.824219 1070.539062 L 92.015625 1075.957031 L 96.332031 1080.851562 L 99.023438 1084.914062 L 100.582031 1088.332031 L 101.835938 1091.433594 L 103.597656 1094.539062 L 106.488281 1097.90625 L 110.332031 1101.558594 L 114.769531 1105.460938 L 119.433594 1109.578125 L 123.953125 1113.871094 L 128.015625 1118.289062 L 131.527344 1122.753906 L 134.441406 1127.167969 L 136.71875 1131.4375 L 138.421875 1135.53125 L 140.066406 1139.667969 L 142.265625 1144.132812 L 145.640625 1149.203125 L 150.546875 1155.039062 L 156.328125 1161.3125 L 162.058594 1167.574219 L 166.8125 1173.375 L 169.671875 1178.261719 L 170.089844 1181.9375 L 169.019531 1184.707031 L 167.796875 1187.023438 L 167.75 1189.34375 L 169.835938 1192.035156 L 173.523438 1195.132812 L 177.898438 1198.582031 L 182.054688 1202.324219 L 185.300781 1206.3125 L 187.851562 1210.515625 L 190.140625 1214.90625 L 192.601562 1219.460938 L 195.667969 1224.15625 L 199.636719 1228.976562 L 204.253906 1233.992188 L 209.132812 1239.277344 L 213.878906 1244.914062 L 218.222656 1250.933594 L 222.390625 1257.152344 L 226.722656 1263.351562 L 231.566406 1269.296875 L 237.113281 1274.8125 L 242.949219 1279.9375 L 248.507812 1284.746094 L 253.222656 1289.324219 L 256.527344 1293.753906 L 258.457031 1298.074219 L 261.449219 1302.160156 L 268.554688 1305.847656 L 282.808594 1308.960938 L 305.902344 1311.335938 L 334.121094 1312.765625 L 362.382812 1313.042969 L 385.621094 1311.96875 L 400.078125 1309.445312 L 407.296875 1305.804688 L 410.125 1301.5 L 411.425781 1296.976562 L 414.054688 1292.683594 L 420.148438 1289.09375 L 428.964844 1286.804688 L 439.042969 1286.4375 L 448.921875 1288.609375 L 457.515625 1293.664062 L 465.210938 1300.804688 L 472.78125 1308.953125 L 480.984375 1317.027344 L 490.335938 1324.191406 L 500.339844 1330.554688 L 510.25 1336.472656 L 519.316406 1342.285156 L 526.789062 1348.351562 L 532.4375 1354.855469 L 538.074219 1361.328125 L 546.039062 1367.136719 L 558.652344 1371.652344 L 577.273438 1374.394531 L 599.3125 1375.480469 L 621.203125 1375.179688 L 639.382812 1373.769531 L 651.28125 1371.503906 L 658.324219 1368.578125 L 662.925781 1365.179688 L 667.511719 1361.492188 L 674.5 1357.699219 L 685.472656 1353.953125 L 698.625 1350.261719 L 711.328125 1346.609375 L 720.933594 1342.96875 L 725.675781 1339.332031 L 727.28125 1335.746094 L 728.347656 1332.265625 L 731.46875 1328.953125 L 738.546875 1325.824219 L 748.699219 1322.746094 L 760.351562 1319.546875 L 771.925781 1316.058594 L 781.851562 1312.105469 L 789.035156 1307.585938 L 794.359375 1302.683594 L 799.183594 1297.648438 L 804.878906 1292.730469 L 812.386719 1288.136719 L 820.988281 1283.898438 L 829.542969 1280.003906 L 836.90625 1276.4375 L 842.296875 1273.152344 L 846.328125 1269.984375 L 849.964844 1266.738281 L 854.183594 1263.210938 L 859.949219 1259.207031 L 867.886719 1254.582031 L 877.246094 1249.402344 L 886.9375 1243.792969 L 895.863281 1237.867188 L 903.191406 1231.75 L 909.144531 1225.53125 L 914.191406 1219.300781 L 918.816406 1213.160156 L 923.390625 1207.179688 L 927.886719 1201.421875 L 932.164062 1195.921875 L 936.097656 1190.726562 L 939.542969 1185.875 L 942.449219 1181.371094 L 945.058594 1177.03125 L 947.695312 1172.640625 L 950.675781 1167.972656 L 954.222656 1162.824219 L 958.152344 1157.042969 L 962.175781 1150.5 L 966.011719 1143.054688 L 969.371094 1134.582031 L 972.058594 1125.046875 L 974.238281 1114.871094 L 976.167969 1104.582031 L 978.105469 1094.703125 L 980.230469 1085.660156 L 982.453125 1077.5 L 984.601562 1070.15625 L 986.503906 1063.574219 L 988.054688 1057.660156 L 989.390625 1052.1875 L 990.714844 1046.894531 L 992.21875 1041.511719 L 994.105469 1035.78125 L 996.496094 1029.535156 L 999.226562 1023 L 1002.050781 1016.503906 L 1004.726562 1010.371094 L 1007.039062 1004.816406 L 1008.886719 999.621094 L 1010.203125 994.464844 L 1010.90625 989.019531 L 1011.003906 983.054688 L 1010.78125 976.734375 L 1010.605469 970.308594 L 1010.839844 964.042969 L 1011.84375 958.1875 L 1013.8125 952.984375 L 1016.265625 948.605469 L 1018.550781 945.21875 L 1020.023438 942.972656 L 1020.222656 941.828125 L 1019.488281 940.921875 L 1018.347656 939.195312 L 1017.328125 935.578125 L 1016.855469 929.355469 L 1016.898438 921.183594 L 1017.316406 912.054688 L 1017.972656 902.976562 L 1018.726562 894.9375 L 1019.464844 888.550781 L 1020.15625 882.839844 L 1020.804688 876.449219 L 1021.402344 868.007812 L 1021.925781 856.5 L 1022.242188 842.269531 L 1022.199219 826.003906 L 1021.644531 808.390625 L 1020.484375 790.152344 L 1018.851562 772.148438 L 1016.925781 755.269531 L 1014.902344 740.414062 L 1012.964844 728.472656 L 1011.257812 719.992188 L 1009.765625 714.117188 L 1008.421875 709.652344 L 1007.160156 705.390625 L 1005.921875 700.40625 L 1004.628906 694.851562 L 1003.210938 689.136719 L 1001.597656 683.691406 L 999.734375 678.824219 L 997.6875 674.433594 L 995.535156 670.3125 L 993.359375 666.25 L 991.246094 662.039062 L 989.269531 657.554688 L 987.445312 653 L 985.78125 648.667969 L 984.289062 644.84375 L 982.960938 641.714844 L 981.703125 639.027344 L 980.421875 636.425781 L 979.003906 633.546875 L 977.378906 630.136719 L 975.570312 626.335938 L 973.632812 622.390625 L 971.613281 618.542969 L 969.570312 615.039062 L 967.511719 611.964844 L 965.277344 608.804688 L 962.664062 604.882812 L 959.46875 599.519531 L 955.558594 592.300781 L 951.082031 583.828125 L 946.253906 574.964844 L 941.292969 566.566406 L 936.367188 559.320312 L 931.453125 553.234375 L 926.480469 548.140625 L 921.382812 543.871094 L 916.089844 540.257812 L 910.628906 537.171875 L 905.4375 534.625 L 901.046875 532.675781 L 898 531.375 L 896.59375 530.726562 L 896.234375 530.542969 L 896.089844 530.582031 L 895.332031 530.609375 L 893.328125 530.429688 L 890.253906 530.003906 L 886.488281 529.34375 L 882.402344 528.464844 L 878.371094 527.371094 L 874.621094 526.027344 L 870.753906 524.21875 L 866.214844 521.671875 L 860.460938 518.128906 L 853.140625 513.53125 L 844.703125 508.6875 L 835.789062 504.605469 L 827.054688 502.300781 L 819.042969 502.496094 L 811.933594 504.703125 L 805.789062 508.152344 L 800.691406 512.066406 L 796.710938 515.667969 L 793.832031 518.269531 L 791.710938 519.535156 L 789.910156 519.230469 L 787.992188 517.101562 L 785.605469 513.171875 L 782.746094 508.496094 L 779.480469 504.378906 L 775.886719 502.140625 L 772 502.773438 L 767.679688 506.035156 L 762.746094 511.347656 L 757.019531 518.15625 L 750.320312 525.886719 L 742.601562 533.996094 L 734.324219 542.015625 L 726.09375 549.496094 L 718.503906 555.992188 L 712.007812 561.203125 L 706.472656 565.410156 L 701.617188 569.046875 L 697.164062 572.546875 L 692.894531 576.246094 L 688.851562 580.125 L 685.140625 584.058594 L 681.855469 587.9375 L 679.101562 591.636719 L 676.917969 595.078125 L 675.085938 598.289062 L 673.324219 601.335938 L 671.351562 604.289062 L 668.941406 607.226562 L 666.097656 610.289062 L 662.875 613.617188 L 659.335938 617.375 L 655.550781 621.648438 L 651.667969 626.320312 L 647.851562 631.214844 L 644.269531 636.15625 L 641.085938 640.964844 L 638.410156 645.511719 L 636.148438 649.832031 L 634.136719 654.019531 L 632.230469 658.152344 L 630.308594 662.3125 L 628.378906 666.542969 L 626.496094 670.875 L 624.707031 675.34375 L 623.042969 679.949219 L 621.464844 684.582031 L 619.921875 689.097656 L 618.351562 693.363281 L 616.707031 697.226562 L 614.945312 700.601562 L 613.09375 703.59375 L 611.195312 706.363281 L 609.289062 709.058594 L 607.417969 711.851562 L 605.59375 714.925781 L 603.828125 718.476562 L 602.128906 722.699219 L 600.511719 727.707031 L 598.992188 733.332031 L 597.59375 739.316406 L 596.328125 745.414062 L 595.222656 751.375 L 594.226562 756.863281 L 593.03125 761.242188 L 591.257812 763.785156 L 588.535156 763.773438 L 584.605469 760.808594 L 579.722656 755.769531 L 574.261719 749.859375 L 568.597656 744.28125 L 563.042969 739.953125 L 557.671875 736.625 L 552.496094 733.761719 L 547.523438 730.832031 L 542.773438 727.296875 L 538.28125 722.796875 L 534.230469 717.675781 L 530.824219 712.449219 L 528.269531 707.628906 L 526.679688 703.59375 L 525.773438 700.117188 L 525.164062 696.832031 L 524.480469 693.367188 L 523.425781 689.4375 L 522.039062 685.097656 L 520.453125 680.46875 L 518.796875 675.683594 L 517.195312 670.875 L 515.738281 666.15625 L 514.34375 661.585938 L 512.890625 657.203125 L 511.261719 653.0625 L 509.378906 649.183594 L 507.363281 645.554688 L 505.390625 642.148438 L 503.628906 638.9375 L 502.195312 635.867188 L 501.015625 632.816406 L 499.953125 629.628906 L 498.882812 626.160156 L 497.667969 622.261719 L 496.191406 617.886719 L 494.328125 613.394531 L 491.964844 609.257812 L 488.988281 605.929688 L 485.371094 603.660156 L 481.425781 601.765625 L 477.550781 599.355469 L 474.152344 595.527344 L 471.480469 589.660156 L 469.183594 582.257812 L 466.757812 574.105469 L 463.707031 565.980469 L 459.535156 558.667969 L 453.949219 552.746094 L 447.519531 547.96875 L 441.03125 543.878906 L 435.257812 540.027344 L 430.746094 536.042969 L 427.074219 531.859375 L 423.582031 527.496094 L 419.613281 522.96875 L 414.667969 518.316406 L 408.902344 513.679688 L 402.632812 509.210938 L 396.171875 505.070312 L 389.84375 501.417969 L 383.753906 498.332031 L 377.179688 495.585938 L 369.183594 492.878906 L 358.832031 489.898438 L 345.730469 486.433594 L 331.609375 482.605469 L 318.734375 478.644531 L 309.375 474.757812 L 305.796875 471.167969 L 309.527344 473.808594 "/>
<path style="fill:none;stroke-width:0.75;stroke-linecap:round;stroke-linejoin:round;stroke:rgb(0%,0%,0%);stroke-opacity:1;stroke-miterlimit:10;" d="M 309.625 473.636719 L 283.371094 478.015625 L 257.597656 482.074219 L 237.453125 486.035156 L 226.507812 490.101562 L 222.035156 494.441406 L 219.734375 499.199219 L 216.113281 504.40625 L 210.957031 509.574219 L 204.871094 514.101562 L 198.410156 517.609375 L 191.996094 520.667969 L 186.003906 524.078125 L 180.804688 528.640625 L 176.699219 534.847656 L 173.625 541.949219 L 171.4375 548.886719 L 169.949219 554.800781 L 168.734375 559.625 L 167.324219 563.488281 L 165.320312 566.5625 L 162.652344 569.191406 L 159.324219 571.742188 L 155.335938 574.59375 L 150.832031 578.054688 L 146.492188 582.152344 L 143.136719 586.847656 L 141.222656 592.078125 L 139.804688 597.714844 L 137.5625 603.601562 L 133.601562 609.589844 L 128.65625 615.496094 L 123.871094 621.148438 L 120.386719 626.359375 L 118.960938 631.011719 L 118.808594 635.21875 L 118.753906 639.152344 L 117.8125 642.953125 L 115.789062 646.644531 L 112.675781 650.222656 L 108.597656 653.703125 L 104.222656 657.195312 L 100.34375 660.84375 L 97.757812 664.785156 L 96.875 669.160156 L 96.582031 674.113281 L 95.363281 679.804688 L 92.226562 686.222656 L 88.214844 692.746094 L 84.886719 698.597656 L 83.402344 703.300781 L 83.382812 707.652344 L 84.058594 712.742188 L 84.660156 719.671875 L 84.59375 729.101562 L 83.929688 739.949219 L 82.917969 750.703125 L 81.742188 760.113281 L 80.320312 768.042969 L 78.519531 774.636719 L 76.257812 780.085938 L 73.707031 784.792969 L 71.113281 789.230469 L 68.707031 793.855469 L 66.683594 799.078125 L 65.015625 805.0625 L 63.640625 811.917969 L 62.460938 819.632812 L 61.289062 827.703125 L 59.917969 835.503906 L 58.199219 842.507812 L 56.214844 848.585938 L 54.117188 853.710938 L 52.050781 857.847656 L 50.15625 861.074219 L 48.539062 863.859375 L 47.296875 866.773438 L 46.464844 870.34375 L 45.859375 874.941406 L 45.246094 880.886719 L 44.457031 888.273438 L 43.621094 896.246094 L 42.949219 903.722656 L 42.640625 909.609375 L 42.820312 913.304688 L 43.289062 916.148438 L 43.757812 919.957031 L 43.984375 925.992188 L 43.902344 933.269531 L 43.476562 940.246094 L 42.753906 945.761719 L 42.082031 950.191406 L 41.867188 954.296875 L 42.535156 958.84375 L 44.316406 964.382812 L 46.75 970.636719 L 49.203125 977.121094 L 51.234375 983.386719 L 53.199219 989.148438 L 55.667969 994.164062 L 58.972656 998.316406 L 62.589844 1002.035156 L 65.769531 1005.878906 L 67.761719 1010.40625 L 68.105469 1015.945312 L 67.480469 1021.878906 L 66.84375 1027.359375 L 66.980469 1031.730469 L 67.972656 1035.121094 L 69.734375 1037.847656 L 72.078125 1040.191406 L 74.492188 1042.320312 L 76.371094 1044.367188 L 77.113281 1046.46875 L 76.46875 1048.789062 L 75.582031 1051.613281 L 75.957031 1055.25 L 78.648438 1059.886719 L 82.925781 1065.175781 L 87.628906 1070.644531 L 91.785156 1075.878906 L 95.261719 1080.675781 L 98.128906 1084.878906 L 100.488281 1088.425781 L 102.578125 1091.550781 L 104.679688 1094.574219 L 107.0625 1097.820312 L 109.984375 1101.519531 L 113.644531 1105.5625 L 118.210938 1109.75 L 123.648438 1113.9375 L 129.015625 1118.148438 L 133.167969 1122.464844 L 135.328125 1126.925781 L 136.222656 1131.445312 L 136.964844 1135.902344 L 138.664062 1140.175781 L 142.105469 1144.277344 L 146.824219 1148.71875 L 152.039062 1154.15625 L 157.054688 1160.914062 L 161.542969 1168.054688 L 165.257812 1174.324219 L 168.003906 1178.789062 L 169.753906 1181.824219 L 170.515625 1184.140625 L 170.3125 1186.433594 L 169.402344 1189.242188 L 169.039062 1192.425781 L 170.722656 1195.679688 L 175.359375 1198.800781 L 181.449219 1202.039062 L 186.902344 1205.753906 L 190.164062 1210.171875 L 191.820312 1215.054688 L 193 1220.035156 L 194.828125 1224.746094 L 198.160156 1228.996094 L 202.777344 1233.296875 L 208.1875 1238.332031 L 213.890625 1244.539062 L 219.410156 1251.378906 L 224.257812 1258.058594 L 228.164062 1263.976562 L 231.699219 1269.277344 L 235.660156 1274.296875 L 240.832031 1279.367188 L 247.503906 1284.679688 L 253.984375 1289.871094 L 258.078125 1294.449219 L 258.820312 1298.101562 L 260.214844 1301.253906 L 267.492188 1304.542969 L 284.339844 1308.320312 L 308.242188 1311.90625 L 335.136719 1314.347656 L 360.960938 1314.703125 L 382.269531 1312.410156 L 398.09375 1308.492188 L 408.085938 1304.351562 L 412.5 1301.023438 L 414.03125 1298.019531 L 415.980469 1294.484375 L 420.804688 1289.789062 L 427.625 1284.214844 L 434.710938 1278.269531 L 440.339844 1272.46875 L 443.300781 1267.308594 L 444.394531 1263.25 L 444.933594 1260.738281 L 445.964844 1259.769531 L 447.433594 1258.507812 L 449.011719 1254.652344 L 450.445312 1246.523438 L 451.746094 1234.855469 L 452.988281 1220.992188 L 454.253906 1206.28125 L 455.601562 1192.066406 L 456.996094 1179.710938 L 458.386719 1170.578125 L 459.734375 1165.503906 L 461.054688 1163.183594 L 462.371094 1161.792969 L 463.703125 1159.847656 L 465.050781 1157.234375 L 466.402344 1154.1875 L 467.753906 1150.941406 L 469.097656 1147.679688 L 470.4375 1144.414062 L 471.773438 1141.09375 L 473.113281 1137.699219 L 474.457031 1134.292969 L 475.800781 1130.945312 L 477.140625 1127.703125 L 478.480469 1124.453125 L 479.824219 1121.046875 L 481.164062 1117.34375 L 482.507812 1113.242188 L 483.855469 1108.832031 L 485.195312 1104.242188 L 486.539062 1099.542969 L 487.878906 1094.535156 L 489.21875 1088.957031 L 490.558594 1082.644531 L 491.902344 1075.832031 L 493.242188 1068.859375 L 494.585938 1062.066406 L 495.929688 1055.761719 L 497.273438 1050.171875 L 498.617188 1045.503906 L 499.957031 1041.828125 L 501.296875 1038.742188 L 502.636719 1035.710938 L 503.980469 1032.3125 L 505.320312 1028.566406 L 506.660156 1024.597656 L 508.003906 1020.539062 L 509.351562 1016.527344 L 510.695312 1012.777344 L 512.039062 1009.507812 L 513.378906 1006.796875 L 514.714844 1004.113281 L 516.054688 1000.78125 L 517.394531 996.324219 L 518.742188 991.042969 L 520.085938 985.433594 L 521.429688 979.921875 L 522.773438 974.65625 L 524.113281 969.699219 L 525.453125 965.128906 L 526.792969 960.96875 L 528.132812 957.105469 L 529.476562 953.375 L 530.820312 949.652344 L 532.164062 945.953125 L 533.507812 942.320312 L 534.847656 938.789062 L 536.191406 935.394531 L 537.53125 932.160156 L 538.871094 929.113281 L 540.214844 926.238281 L 541.558594 923.371094 L 542.898438 920.304688 L 544.234375 916.894531 L 545.574219 913.191406 L 546.917969 909.3125 L 548.269531 905.351562 L 549.621094 901.34375 L 550.964844 897.300781 L 552.300781 893.242188 L 553.621094 889.117188 L 554.945312 884.5625 L 556.292969 879.148438 L 557.671875 872.601562 L 559.054688 865.238281 L 560.398438 857.535156 L 561.683594 849.921875 L 562.949219 842.671875 L 564.253906 836.027344 L 565.65625 830.21875 L 567.167969 825.34375 L 568.652344 820.941406 L 569.933594 816.40625 L 570.917969 811.167969 L 571.914062 804.804688 L 573.308594 796.921875 L 575.316406 787.378906 L 577.394531 777.0625 L 578.824219 767.109375 L 578.878906 758.664062 L 577.101562 752.542969 L 574.066406 748.292969 L 570.609375 745.152344 L 567.332031 742.441406 L 563.855469 739.875 L 559.570312 737.261719 L 554.089844 734.40625 L 547.949219 731.160156 L 541.914062 727.371094 L 536.742188 722.886719 L 533.007812 717.691406 L 530.511719 712.308594 L 528.851562 707.390625 L 527.664062 703.402344 L 526.667969 700.046875 L 525.609375 696.84375 L 524.308594 693.375 L 522.835938 689.550781 L 521.335938 685.351562 L 519.945312 680.753906 L 518.75 675.792969 L 517.605469 670.714844 L 516.308594 665.828125 L 514.707031 661.351562 L 512.886719 657.207031 L 510.96875 653.238281 L 509.066406 649.335938 L 507.226562 645.550781 L 505.457031 641.988281 L 503.789062 638.742188 L 502.25 635.84375 L 500.898438 633.007812 L 499.808594 629.878906 L 498.972656 626.199219 L 498.039062 622.097656 L 496.574219 617.800781 L 494.277344 613.539062 L 491.351562 609.542969 L 488.117188 606.035156 L 484.910156 603.246094 L 481.941406 601.183594 L 478.972656 598.96875 L 475.65625 595.5 L 471.792969 589.980469 L 467.839844 582.847656 L 464.410156 574.84375 L 461.84375 566.675781 L 459.386719 558.898438 L 456.023438 552.027344 L 450.730469 546.582031 L 443.035156 542.820312 L 434.6875 539.953125 L 427.984375 536.921875 L 424.476562 532.925781 L 422.699219 528.148438 L 420.449219 523.019531 L 416.035156 517.921875 L 409.882812 513.074219 L 402.9375 508.632812 L 396.136719 504.773438 L 390.101562 501.574219 L 384.101562 498.773438 L 377.089844 496.03125 L 368.226562 493.058594 L 357.566406 489.796875 L 345.378906 486.253906 L 332.222656 482.457031 L 319.78125 478.570312 L 310.027344 474.773438 L 304.9375 471.257812 L 309.625 473.636719 "/>
<path style="fill:none;stroke-width:0.75;stroke-linecap:round;stroke-linejoin:round;stroke:rgb(0%,0%,0%);stroke-opacity:1;stroke-miterlimit:10;" d="M 777.242188 528.355469 L 772.253906 531.15625 L 765.257812 534.269531 L 757.664062 537.152344 L 750.679688 539.410156 L 744.761719 541.203125 L 740.175781 542.839844 L 736.953125 544.59375 L 734.238281 546.644531 L 730.9375 549.140625 L 726.339844 552.144531 L 721.222656 555.335938 L 716.738281 558.304688 L 713.707031 560.746094 L 711.601562 562.792969 L 709.566406 564.691406 L 706.941406 566.65625 L 703.8125 568.769531 L 700.457031 571.101562 L 697.15625 573.714844 L 694.078125 576.65625 L 690.945312 579.953125 L 687.367188 583.621094 L 683.160156 587.617188 L 679 591.648438 L 675.769531 595.363281 L 674.027344 598.527344 L 673.058594 601.332031 L 671.816406 604.085938 L 669.511719 607.050781 L 666.351562 610.328125 L 662.796875 613.992188 L 659.234375 618.023438 L 655.808594 622.074219 L 652.59375 625.722656 L 649.664062 628.542969 L 647.101562 630.339844 L 644.960938 631.84375 L 643.3125 634.007812 L 642.125 637.515625 L 641.027344 641.914062 L 639.550781 646.460938 L 637.378906 650.589844 L 634.757812 654.371094 L 632.074219 658.039062 L 629.65625 661.808594 L 627.59375 665.828125 L 625.917969 670.234375 L 624.605469 675.085938 L 623.453125 680.160156 L 622.210938 685.15625 L 620.617188 689.78125 L 618.535156 693.804688 L 616.257812 697.273438 L 614.199219 700.300781 L 612.628906 703.03125 L 611.289062 705.734375 L 609.789062 708.710938 L 607.851562 712.160156 L 605.664062 715.890625 L 603.53125 719.621094 L 601.703125 723.199219 L 600.222656 727.027344 L 599.074219 731.644531 L 598.175781 737.429688 L 597.1875 744.089844 L 595.6875 751.183594 L 593.265625 758.253906 L 589.734375 764.949219 L 585.789062 771.34375 L 582.363281 777.609375 L 580.132812 783.851562 L 578.777344 789.921875 L 577.722656 795.617188 L 576.519531 800.800781 L 575.15625 805.613281 L 573.75 810.273438 L 572.386719 814.957031 L 571.0625 819.6875 L 569.746094 824.429688 L 568.410156 829.195312 L 567.0625 834.128906 L 565.707031 839.398438 L 564.359375 845.179688 L 563.023438 851.585938 L 561.6875 858.519531 L 560.351562 865.824219 L 559.007812 873.261719 L 557.65625 880.304688 L 556.308594 886.34375 L 554.96875 891.011719 L 553.632812 894.875 L 552.296875 898.75 L 550.957031 903.238281 L 549.609375 908.125 L 548.265625 913.003906 L 546.921875 917.519531 L 545.578125 921.605469 L 544.238281 925.265625 L 542.898438 928.492188 L 541.558594 931.332031 L 540.21875 933.964844 L 538.878906 936.621094 L 537.53125 939.476562 L 536.183594 942.511719 L 534.839844 945.644531 L 533.5 948.832031 L 532.164062 952.121094 L 530.828125 955.578125 L 529.484375 959.269531 L 528.140625 963.242188 L 526.792969 967.539062 L 525.449219 972.1875 L 524.105469 977.148438 L 522.765625 982.371094 L 521.425781 987.796875 L 520.085938 993.308594 L 518.75 998.535156 L 517.40625 1003.035156 L 516.058594 1006.554688 L 514.710938 1009.578125 L 513.367188 1012.769531 L 512.027344 1016.597656 L 510.691406 1020.699219 L 509.355469 1024.507812 L 508.011719 1027.636719 L 506.667969 1030.351562 L 505.320312 1033.101562 L 503.976562 1036.246094 L 502.632812 1039.800781 L 501.292969 1043.699219 L 499.953125 1047.878906 L 498.617188 1052.339844 L 497.277344 1057.339844 L 495.933594 1063.210938 L 494.589844 1070.113281 L 493.242188 1077.511719 L 491.894531 1084.710938 L 490.558594 1091.15625 L 489.222656 1096.921875 L 487.882812 1102.226562 L 486.539062 1107.242188 L 485.191406 1111.914062 L 483.847656 1116.136719 L 482.507812 1119.851562 L 481.167969 1123.199219 L 479.828125 1126.363281 L 478.484375 1129.53125 L 477.136719 1132.84375 L 475.789062 1136.28125 L 474.453125 1139.769531 L 473.128906 1143.21875 L 471.804688 1146.386719 L 470.449219 1149.007812 L 469.058594 1151.015625 L 467.671875 1153.148438 L 466.347656 1156.363281 L 465.109375 1161.117188 L 463.878906 1165.921875 L 462.542969 1168.792969 L 461.03125 1168.71875 L 459.453125 1168.492188 L 457.960938 1171.878906 L 456.707031 1182.628906 L 455.800781 1202.875 L 455.207031 1228.207031 L 454.835938 1252.601562 L 454.710938 1271.191406 L 455.25 1283.8125 L 456.964844 1291.476562 L 460.199219 1295.449219 L 464.558594 1298.019531 L 469.484375 1301.730469 L 474.628906 1308.382812 L 480.539062 1316.75 L 487.976562 1324.859375 L 497.355469 1331.25 L 507.671875 1336.519531 L 517.5625 1341.765625 L 526.054688 1347.824219 L 533.71875 1354.410156 L 541.511719 1360.976562 L 550.386719 1366.960938 L 561.332031 1371.84375 L 575.464844 1375.207031 L 593.9375 1376.664062 L 616.738281 1376.015625 L 639.191406 1373.816406 L 655.460938 1370.792969 L 661.789062 1367.578125 L 662.773438 1364.335938 L 665.089844 1361.121094 L 673.683594 1357.949219 L 686.546875 1354.667969 L 699.925781 1351.082031 L 710.777344 1347.078125 L 718.808594 1342.859375 L 724.445312 1338.71875 L 728.09375 1334.941406 L 730.433594 1331.722656 L 733.214844 1328.886719 L 738.449219 1326.171875 L 747.472656 1323.328125 L 758.90625 1320.132812 L 770.695312 1316.394531 L 781.113281 1311.996094 L 789.726562 1307.15625 L 796.433594 1302.1875 L 801.398438 1297.351562 L 805.832031 1292.738281 L 811.222656 1288.378906 L 818.59375 1284.300781 L 827.179688 1280.4375 L 835.765625 1276.703125 L 843.132812 1273.011719 L 848.441406 1269.320312 L 852.351562 1265.738281 L 855.898438 1262.40625 L 860.097656 1259.3125 L 865.863281 1255.796875 L 874.078125 1251.035156 L 885.03125 1244.546875 L 896.582031 1237.222656 L 905.980469 1230.292969 L 911.339844 1224.621094 L 914.226562 1219.617188 L 917.066406 1214.320312 L 921.675781 1208.058594 L 927.453125 1201.304688 L 933.195312 1194.816406 L 937.691406 1189.347656 L 940.179688 1185.351562 L 941.667969 1182.058594 L 943.597656 1178.386719 L 947.015625 1173.535156 L 951.324219 1167.839844 L 955.511719 1161.910156 L 958.847656 1156.152344 L 961.714844 1150.167969 L 964.761719 1143.363281 L 968.417969 1135.277344 L 972.171875 1126.03125 L 975.285156 1115.886719 L 977.246094 1105.164062 L 978.480469 1094.441406 L 979.640625 1084.363281 L 981.386719 1075.566406 L 984.089844 1068.511719 L 987.007812 1062.910156 L 989.113281 1058.292969 L 989.769531 1054.109375 L 989.921875 1049.507812 L 990.898438 1043.554688 L 993.617188 1035.753906 L 997.296875 1027.308594 L 1000.742188 1019.855469 L 1003.0625 1014.542969 L 1004.589844 1010.582031 L 1005.953125 1006.691406 L 1007.628906 1001.851562 L 1009.402344 996.039062 L 1010.910156 989.492188 L 1011.773438 982.4375 L 1011.78125 975.183594 L 1011.386719 968.328125 L 1011.195312 962.539062 L 1011.710938 958.21875 L 1013.007812 954.726562 L 1015.054688 951.160156 L 1017.667969 946.9375 L 1020.054688 942.746094 L 1021.28125 939.601562 L 1020.730469 938.082031 L 1019.074219 937.09375 L 1017.320312 935.101562 L 1016.285156 930.882812 L 1016.039062 924.414062 L 1016.472656 915.984375 L 1017.472656 905.875 L 1018.875 894.652344 L 1020.277344 884.015625 L 1021.222656 875.941406 L 1021.425781 871.480469 L 1021.222656 867.933594 L 1021.128906 861.65625 L 1021.472656 849.8125 L 1021.878906 832.722656 L 1021.800781 811.503906 L 1020.832031 787.726562 L 1019.167969 764.757812 L 1017.128906 746.40625 L 1015.015625 735.328125 L 1012.96875 729.542969 L 1011.097656 725.902344 L 1009.503906 721.269531 L 1008.242188 713.460938 L 1007.164062 704.175781 L 1006.066406 696.078125 L 1004.78125 691.070312 L 1003.28125 688.035156 L 1001.570312 685.09375 L 999.667969 680.828125 L 997.625 675.636719 L 995.503906 670.375 L 993.367188 665.703125 L 991.277344 661.480469 L 989.285156 657.363281 L 987.441406 653.109375 L 985.761719 648.875 L 984.25 644.910156 L 982.917969 641.46875 L 981.734375 638.679688 L 980.554688 636.203125 L 979.179688 633.582031 L 977.484375 630.453125 L 975.519531 626.828125 L 973.386719 622.828125 L 971.203125 618.609375 L 969.136719 614.539062 L 967.355469 611.023438 L 965.863281 608.199219 L 963.96875 605.066406 L 960.796875 600.339844 L 955.789062 593.164062 L 949.550781 584.34375 L 943.003906 575.105469 L 937.050781 566.683594 L 932.390625 560.019531 L 928.84375 554.9375 L 926 550.976562 L 923.355469 547.707031 L 919.949219 544.796875 L 914.714844 541.929688 L 907.089844 538.941406 L 898.511719 536.199219 L 890.910156 534.214844 L 885.394531 533.308594 L 879.746094 533.035156 L 870.914062 532.769531 L 856.445312 532.03125 L 836.273438 530.902344 L 810.917969 529.617188 L 780.917969 528.417969 L 777.242188 528.355469 "/>
<path style="fill:none;stroke-width:0.75;stroke-linecap:round;stroke-linejoin:round;stroke:rgb(0%,0%,0%);stroke-opacity:1;stroke-miterlimit:10;" d="M 925.417969 539.472656 L 923.925781 542.15625 L 923.742188 547.523438 L 925.035156 550.210938 L 927.480469 552.894531 L 931.664062 558.261719 L 936.019531 558.261719 L 938.246094 555.578125 L 937.710938 552.894531 L 935.730469 550.210938 L 932.972656 544.839844 L 930.800781 542.15625 L 928.597656 542.15625 L 926.148438 539.472656 L 925.417969 539.472656 "/>
</g>
</svg>
