<?xml version="1.0" encoding="UTF-8"?>
<svg xmlns="http://www.w3.org/2000/svg" xmlns:xlink="http://www.w3.org/1999/xlink" width="1428pt" height="1605pt" viewBox="0 0 1428 1605" version="1.1">
<g id="surface219">
<rect x="0" y="0" width="1428" height="1605" style="fill:rgb(100%,100%,100%);fill-opacity:1;stroke:none;"/>
<path style="fill:none;stroke-width:0.75;stroke-linecap:round;stroke-linejoin:round;stroke:rgb(0%,0%,0%);stroke-opacity:1;stroke-miterlimit:10;" d="M 815.003906 454.484375 L 813.246094 457.890625 L 810.957031 461.175781 L 807.789062 464.449219 L 803.390625 467.808594 L 797.59375 471.316406 L 790.902344 474.84375 L 784.003906 478.230469 L 777.582031 481.304688 L 772.320312 483.902344 L 768.648438 485.949219 L 765.984375 487.769531 L 763.5 489.78125 L 760.355469 492.394531 L 755.96875 495.917969 L 750.765625 500.1875 L 745.414062 504.929688 L 740.59375 509.871094 L 736.96875 514.738281 L 734.988281 519.320312 L 734.160156 523.683594 L 733.769531 527.953125 L 733.097656 532.265625 L 731.421875 536.746094 L 728.269531 541.460938 L 724.121094 546.214844 L 719.703125 550.75 L 715.730469 554.808594 L 712.710938 558.222656 L 710.257812 561.203125 L 707.753906 564.054688 L 704.597656 567.085938 L 700.179688 570.601562 L 694.117188 574.820312 L 686.976562 579.625 L 679.535156 584.820312 L 672.59375 590.203125 L 666.941406 595.574219 L 663.109375 600.757812 L 660.640625 605.691406 L 658.8125 610.324219 L 656.910156 614.617188 L 654.363281 618.582031 L 651.191406 622.445312 L 647.558594 626.5 L 643.636719 631.023438 L 639.585938 636.308594 L 635.570312 642.527344 L 631.714844 649.421875 L 628.144531 656.621094 L 624.984375 663.753906 L 622.304688 670.523438 L 619.988281 676.933594 L 617.863281 683.054688 L 615.769531 688.964844 L 613.527344 694.742188 L 611.023438 700.457031 L 608.316406 706.179688 L 605.515625 711.984375 L 602.726562 717.933594 L 600.058594 724.105469 L 597.574219 730.457031 L 595.125 736.5 L 592.523438 741.640625 L 589.574219 745.285156 L 586.117188 746.976562 L 582.113281 746.824219 L 577.550781 745.078125 L 572.429688 741.980469 L 566.738281 737.785156 L 560.527344 732.75 L 554.066406 727.175781 L 547.6875 721.378906 L 541.71875 715.671875 L 536.492188 710.367188 L 532.265625 705.691406 L 529.015625 701.519531 L 526.660156 697.636719 L 525.109375 693.828125 L 524.25 689.925781 L 523.867188 685.964844 L 523.726562 682.011719 L 523.589844 678.15625 L 523.214844 674.464844 L 522.425781 670.988281 L 521.230469 667.660156 L 519.703125 664.378906 L 517.917969 661.046875 L 515.945312 657.578125 L 513.863281 653.984375 L 511.75 650.28125 L 509.691406 646.496094 L 507.765625 642.644531 L 506.015625 638.734375 L 504.34375 634.6875 L 502.621094 630.40625 L 500.710938 625.785156 L 498.484375 620.738281 L 495.851562 615.230469 L 492.921875 609.542969 L 489.847656 604.019531 L 486.777344 599.007812 L 483.84375 594.726562 L 481.058594 590.917969 L 478.410156 587.191406 L 475.882812 583.15625 L 473.46875 578.425781 L 471.128906 572.75 L 468.757812 566.453125 L 466.222656 560 L 463.394531 553.859375 L 460.140625 548.488281 L 456.355469 544.203125 L 452.019531 540.695312 L 447.125 537.515625 L 441.679688 534.199219 L 435.71875 530.398438 L 429.445312 526.167969 L 423.09375 521.675781 L 416.898438 517.078125 L 411.101562 512.542969 L 405.800781 508.191406 L 400.535156 503.992188 L 394.710938 499.875 L 387.722656 495.773438 L 379.113281 491.660156 L 368.960938 487.695312 L 357.472656 484.070312 L 344.863281 480.992188 L 331.339844 478.652344 L 317.148438 477.214844 L 302.660156 476.652344 L 288.277344 476.894531 L 274.40625 477.878906 L 261.449219 479.53125 L 249.742188 481.792969 L 239.351562 484.597656 L 230.277344 487.886719 L 222.519531 491.605469 L 216 495.695312 L 210.3125 500.109375 L 204.96875 504.800781 L 199.484375 509.71875 L 193.367188 514.820312 L 186.355469 520.046875 L 179.097656 525.289062 L 172.457031 530.425781 L 167.300781 535.339844 L 164.5 539.910156 L 164.515625 544.070312 L 166.203125 547.972656 L 168.007812 551.828125 L 168.378906 555.84375 L 166.171875 560.164062 L 161.875 564.703125 L 156.378906 569.320312 L 150.570312 573.859375 L 145.347656 578.179688 L 141.40625 582.171875 L 138.660156 585.890625 L 136.832031 589.429688 L 135.644531 592.882812 L 134.832031 596.34375 L 134.1875 599.867188 L 133.527344 603.519531 L 132.660156 607.351562 L 131.398438 611.425781 L 129.59375 615.769531 L 127.269531 620.320312 L 124.480469 624.980469 L 121.292969 629.65625 L 117.765625 634.25 L 113.992188 638.675781 L 110.167969 642.859375 L 106.535156 646.734375 L 103.324219 650.234375 L 100.6875 653.367188 L 98.488281 656.445312 L 96.5 659.851562 L 94.503906 663.96875 L 92.277344 669.179688 L 89.691406 675.722656 L 86.949219 683.203125 L 84.351562 691.082031 L 82.191406 698.8125 L 80.761719 705.855469 L 80.257812 711.820312 L 80.429688 716.902344 L 80.925781 721.457031 L 81.390625 725.832031 L 81.546875 730.335938 L 81.367188 735.109375 L 80.90625 740.242188 L 80.210938 745.828125 L 79.328125 751.964844 L 78.277344 758.6875 L 76.984375 765.78125 L 75.335938 772.980469 L 73.230469 780.011719 L 70.550781 786.605469 L 67.292969 792.5625 L 63.816406 797.964844 L 60.585938 802.96875 L 58.058594 807.71875 L 56.570312 812.351562 L 55.949219 816.933594 L 55.882812 821.496094 L 56.078125 826.085938 L 56.222656 830.746094 L 56.070312 835.496094 L 55.546875 840.277344 L 54.640625 845.015625 L 53.328125 849.636719 L 51.628906 854.105469 L 49.6875 858.558594 L 47.6875 863.171875 L 45.808594 868.132812 L 44.238281 873.613281 L 43.117188 879.714844 L 42.433594 886.214844 L 42.140625 892.800781 L 42.183594 899.179688 L 42.515625 905.035156 L 43.054688 910.171875 L 43.59375 914.804688 L 43.894531 919.253906 L 43.714844 923.839844 L 42.910156 928.816406 L 41.71875 934.167969 L 40.457031 939.816406 L 39.457031 945.671875 L 39.042969 951.660156 L 39.476562 957.710938 L 40.761719 963.832031 L 42.835938 970.042969 L 45.628906 976.371094 L 49.089844 982.839844 L 53.066406 989.4375 L 57.117188 996.054688 L 60.707031 1002.550781 L 63.304688 1008.785156 L 64.566406 1014.628906 L 64.851562 1020.035156 L 64.699219 1024.953125 L 64.652344 1029.351562 L 65.253906 1033.191406 L 66.855469 1036.460938 L 69.082031 1039.300781 L 71.363281 1041.878906 L 73.136719 1044.363281 L 74.019531 1046.917969 L 74.371094 1049.667969 L 74.75 1052.730469 L 75.691406 1056.222656 L 77.75 1060.261719 L 81.273438 1064.898438 L 85.820312 1069.925781 L 90.753906 1075.066406 L 95.425781 1080.039062 L 99.207031 1084.566406 L 101.667969 1088.464844 L 103.28125 1091.902344 L 104.734375 1095.140625 L 106.710938 1098.433594 L 109.714844 1101.980469 L 113.5 1105.703125 L 117.644531 1109.460938 L 121.71875 1113.117188 L 125.292969 1116.527344 L 128.054688 1119.605469 L 130.136719 1122.46875 L 131.785156 1125.296875 L 133.246094 1128.261719 L 134.765625 1131.535156 L 136.59375 1135.269531 L 138.949219 1139.503906 L 142.066406 1144.257812 L 146.167969 1149.558594 L 151.324219 1155.359375 L 156.953125 1161.390625 L 162.320312 1167.332031 L 166.6875 1172.851562 L 169.320312 1177.617188 L 169.792969 1181.417969 L 168.949219 1184.472656 L 167.949219 1187.109375 L 167.949219 1189.664062 L 169.8125 1192.410156 L 173.171875 1195.421875 L 177.378906 1198.726562 L 181.769531 1202.34375 L 185.683594 1206.296875 L 188.65625 1210.589844 L 190.96875 1215.125 L 193.101562 1219.796875 L 195.519531 1224.484375 L 198.703125 1229.082031 L 202.914062 1233.484375 L 207.609375 1237.652344 L 212.023438 1241.550781 L 215.398438 1245.148438 L 217.234375 1248.449219 L 218.074219 1251.59375 L 218.710938 1254.757812 L 219.9375 1258.113281 L 222.5625 1261.839844 L 227.082031 1266.050781 L 232.867188 1270.621094 L 238.984375 1275.375 L 244.503906 1280.125 L 248.503906 1284.695312 L 250.507812 1288.953125 L 251.863281 1292.988281 L 254.371094 1296.953125 L 259.828125 1300.988281 L 269.496094 1305.175781 L 282.417969 1309.324219 L 297.101562 1313.175781 L 312.046875 1316.480469 L 325.761719 1318.980469 L 337.078125 1320.503906 L 346.160156 1321.199219 L 353.507812 1321.300781 L 359.613281 1321.042969 L 364.929688 1320.605469 L 369.722656 1319.9375 L 374.210938 1318.945312 L 378.617188 1317.523438 L 383.160156 1315.574219 L 388.03125 1313.042969 L 393.300781 1310.054688 L 399.023438 1306.785156 L 405.234375 1303.417969 L 411.988281 1300.117188 L 419.285156 1297.085938 L 426.929688 1294.625 L 434.691406 1293.058594 L 442.335938 1292.710938 L 449.660156 1293.800781 L 456.582031 1296.109375 L 463.042969 1299.320312 L 468.992188 1303.109375 L 474.371094 1307.160156 L 479.175781 1311.195312 L 483.542969 1315.128906 L 487.667969 1318.929688 L 491.738281 1322.558594 L 495.945312 1325.976562 L 500.457031 1329.191406 L 505.398438 1332.382812 L 510.867188 1335.769531 L 516.972656 1339.574219 L 523.707031 1343.941406 L 530.640625 1348.738281 L 537.234375 1353.734375 L 542.953125 1358.71875 L 547.253906 1363.472656 L 550.070312 1367.785156 L 553.199219 1371.460938 L 558.894531 1374.304688 L 569.429688 1376.132812 L 586.195312 1376.816406 L 607.152344 1376.460938 L 629.390625 1375.246094 L 649.996094 1373.335938 L 666.070312 1370.90625 L 675.582031 1368.125 L 680.046875 1365.144531 L 681.863281 1362.109375 L 683.4375 1359.175781 L 687.164062 1356.480469 L 694.695312 1354.117188 L 704.71875 1351.90625 L 715.164062 1349.605469 L 723.976562 1346.972656 L 729.660156 1343.84375 L 733.035156 1340.308594 L 735.5 1336.542969 L 738.4375 1332.710938 L 743.25 1328.980469 L 750.890625 1325.476562 L 760.605469 1322.140625 L 771.195312 1318.878906 L 781.464844 1315.585938 L 790.21875 1312.167969 L 796.621094 1308.554688 L 801.238281 1304.816406 L 805 1301.0625 L 808.832031 1297.390625 L 813.472656 1293.882812 L 818.921875 1290.515625 L 825 1287.238281 L 831.519531 1284.007812 L 838.296875 1280.769531 L 845.160156 1277.476562 L 851.964844 1274.070312 L 858.574219 1270.5 L 864.851562 1266.703125 L 870.671875 1262.628906 L 875.972656 1258.230469 L 881.042969 1253.53125 L 886.246094 1248.566406 L 891.941406 1243.363281 L 898.355469 1237.980469 L 905.167969 1232.542969 L 911.914062 1227.203125 L 918.128906 1222.113281 L 923.347656 1217.417969 L 927.242188 1213.222656 L 930.003906 1209.421875 L 931.964844 1205.878906 L 933.453125 1202.441406 L 934.765625 1198.992188 L 936.074219 1195.539062 L 937.527344 1192.109375 L 939.261719 1188.734375 L 941.425781 1185.453125 L 944.101562 1182.265625 L 947.121094 1179.085938 L 950.269531 1175.789062 L 953.316406 1172.257812 L 956.042969 1168.378906 L 958.292969 1164.078125 L 960.195312 1159.484375 L 961.953125 1154.777344 L 963.761719 1150.125 L 965.773438 1145.652344 L 967.941406 1141.257812 L 970.175781 1136.777344 L 972.375 1132.0625 L 974.453125 1126.945312 L 976.328125 1121.332031 L 978 1115.339844 L 979.476562 1109.148438 L 980.777344 1102.9375 L 981.910156 1096.890625 L 982.910156 1091.125 L 983.878906 1085.574219 L 984.945312 1080.105469 L 986.238281 1074.589844 L 987.835938 1068.921875 L 989.679688 1063.101562 L 991.664062 1057.148438 L 993.691406 1051.089844 L 995.648438 1044.945312 L 997.472656 1038.78125 L 999.207031 1032.832031 L 1000.941406 1027.378906 L 1002.753906 1022.703125 L 1004.691406 1018.960938 L 1006.640625 1015.828125 L 1008.453125 1012.855469 L 1009.976562 1009.597656 L 1011.066406 1005.601562 L 1011.636719 1000.546875 L 1011.898438 994.574219 L 1012.128906 987.949219 L 1012.597656 980.933594 L 1013.585938 973.796875 L 1015.25 966.777344 L 1017.292969 960.054688 L 1019.296875 953.769531 L 1020.839844 948.078125 L 1021.621094 943.042969 L 1021.824219 938.34375 L 1021.746094 933.578125 L 1021.683594 928.335938 L 1021.9375 922.21875 L 1022.703125 914.886719 L 1023.789062 906.308594 L 1024.902344 896.523438 L 1025.746094 885.570312 L 1026.03125 873.480469 L 1025.589844 860.414062 L 1024.746094 846.949219 L 1023.960938 833.796875 L 1023.683594 821.648438 L 1024.246094 811.042969 L 1025.484375 801.894531 L 1027.105469 793.945312 L 1028.820312 786.949219 L 1030.34375 780.644531 L 1031.414062 774.785156 L 1031.921875 769.121094 L 1031.792969 763.402344 L 1030.953125 757.371094 L 1029.359375 750.84375 L 1027.144531 743.863281 L 1024.476562 736.542969 L 1021.523438 728.980469 L 1018.453125 721.285156 L 1015.425781 713.585938 L 1012.542969 706.074219 L 1009.90625 698.953125 L 1007.609375 692.441406 L 1005.746094 686.742188 L 1004.359375 681.980469 L 1003.242188 677.910156 L 1002.132812 674.199219 L 1000.773438 670.515625 L 998.972656 666.59375 L 996.808594 662.429688 L 994.433594 658.089844 L 992 653.628906 L 989.660156 649.113281 L 987.527344 644.601562 L 985.582031 640.128906 L 983.773438 635.714844 L 982.046875 631.386719 L 980.339844 627.179688 L 978.601562 623.085938 L 976.75 618.996094 L 974.703125 614.773438 L 972.371094 610.277344 L 969.71875 605.40625 L 966.878906 600.1875 L 964.027344 594.6875 L 961.34375 588.972656 L 959 583.105469 L 957.101562 577.171875 L 955.441406 571.304688 L 953.734375 565.667969 L 951.699219 560.417969 L 949.121094 555.675781 L 946.058594 551.398438 L 942.636719 547.515625 L 938.976562 543.953125 L 935.210938 540.628906 L 931.410156 537.46875 L 927.464844 534.398438 L 923.203125 531.339844 L 918.460938 528.21875 L 913.082031 524.957031 L 907.019531 521.492188 L 900.757812 517.847656 L 894.902344 514.054688 L 890.0625 510.152344 L 886.648438 506.203125 L 884.304688 502.375 L 882.480469 498.867188 L 880.632812 495.878906 L 878.203125 493.605469 L 874.820312 492.164062 L 870.800781 491.308594 L 866.628906 490.71875 L 862.800781 490.070312 L 859.804688 489.03125 L 857.917969 487.367188 L 856.609375 485.179688 L 855.128906 482.65625 L 852.730469 479.992188 L 848.988281 477.339844 L 844.722656 474.71875 L 841.074219 472.117188 L 839.1875 469.519531 L 840.203125 466.914062 L 844.40625 464.28125 L 848.671875 461.601562 L 849.035156 458.84375 L 841.515625 455.980469 L 822.136719 452.988281 L 815.003906 454.484375 "/>
<path style="fill:none;stroke-width:0.75;stroke-linecap:round;stroke-linejoin:round;stroke:rgb(0%,0%,0%);stroke-opacity:1;stroke-miterlimit:10;" d="M 290.609375 473.464844 L 287.515625 475.871094 L 279.667969 477.78125 L 267.910156 479.992188 L 253.378906 483.054688 L 238.320312 486.632812 L 225.269531 490.164062 L 216.761719 493.078125 L 214.144531 495.132812 L 214.046875 497.363281 L 211.902344 501.125 L 204.429688 507.304688 L 193.40625 514.957031 L 181.886719 522.664062 L 172.929688 529 L 168.710938 533.027344 L 167.945312 535.652344 L 168.464844 538.265625 L 168.507812 541.933594 L 167.890625 546.496094 L 166.835938 551.484375 L 165.550781 556.421875 L 164.097656 560.957031 L 161.902344 565.195312 L 158.226562 569.359375 L 152.6875 573.609375 L 146.292969 577.894531 L 140.394531 582.097656 L 136.34375 586.101562 L 135.027344 589.824219 L 135.445312 593.296875 L 136.136719 596.574219 L 135.925781 599.746094 L 134.796875 603.019531 L 133.023438 606.632812 L 130.882812 610.824219 L 128.597656 615.707031 L 126.207031 620.878906 L 123.695312 625.820312 L 121.03125 630.15625 L 118.136719 634.074219 L 114.914062 637.910156 L 111.265625 642 L 107.214844 646.519531 L 103.222656 651.007812 L 99.878906 654.855469 L 97.578125 657.691406 L 95.964844 660.164062 L 94.5 663.171875 L 92.648438 667.617188 L 90.054688 674.101562 L 87.101562 682.050781 L 84.351562 690.601562 L 82.273438 698.972656 L 80.933594 706.722656 L 80.292969 713.492188 L 80.3125 718.921875 L 80.875 722.867188 L 81.550781 726.035156 L 81.8125 729.34375 L 81.308594 733.539062 L 80.316406 738.699219 L 79.273438 744.730469 L 78.617188 751.546875 L 78.554688 758.984375 L 78.363281 766.617188 L 77.074219 773.949219 L 74.050781 780.597656 L 69.910156 786.652344 L 65.589844 792.320312 L 62.023438 797.808594 L 59.882812 803.230469 L 58.777344 808.371094 L 58.066406 812.914062 L 57.230469 816.714844 L 56.34375 820.277344 L 55.609375 824.28125 L 55.234375 829.386719 L 55.308594 835.910156 L 55.414062 842.703125 L 55.011719 848.269531 L 53.726562 851.59375 L 51.789062 853.609375 L 49.589844 855.726562 L 47.527344 859.375 L 45.886719 865.519531 L 44.59375 873.3125 L 43.453125 881.464844 L 42.367188 888.886719 L 41.546875 895.34375 L 41.273438 900.8125 L 41.839844 905.261719 L 43.308594 908.839844 L 44.871094 912.347656 L 45.492188 916.753906 L 44.460938 922.710938 L 42.371094 929.621094 L 40.136719 936.5625 L 38.679688 942.625 L 38.644531 947.238281 L 39.628906 951.1875 L 40.949219 955.617188 L 42.125 961.386719 L 43.421875 968.28125 L 45.300781 975.808594 L 48.222656 983.476562 L 52.390625 990.84375 L 56.972656 997.695312 L 60.886719 1003.855469 L 63.3125 1009.238281 L 64.453125 1014.09375 L 64.792969 1018.75 L 64.796875 1023.53125 L 64.914062 1028.613281 L 65.480469 1033.558594 L 66.808594 1037.773438 L 69.027344 1040.835938 L 71.566406 1043 L 73.683594 1044.699219 L 74.625 1046.363281 L 74.058594 1048.398438 L 73.253906 1051.128906 L 73.890625 1054.851562 L 77.152344 1059.730469 L 82.25 1065.332031 L 87.890625 1071.09375 L 92.78125 1076.445312 L 95.996094 1080.949219 L 98.035156 1084.742188 L 99.757812 1088.089844 L 101.867188 1091.25 L 104.449219 1094.425781 L 107.441406 1097.820312 L 110.769531 1101.625 L 114.347656 1105.917969 L 118 1110.269531 L 121.527344 1114.125 L 124.753906 1117.109375 L 127.59375 1119.527344 L 129.980469 1121.851562 L 131.847656 1124.5625 L 133.238281 1127.996094 L 134.578125 1131.894531 L 136.394531 1135.871094 L 139.105469 1139.675781 L 142.664062 1143.644531 L 146.90625 1148.253906 L 151.664062 1153.992188 L 156.710938 1161.039062 L 161.53125 1168.382812 L 165.527344 1174.707031 L 168.257812 1179.054688 L 169.789062 1181.882812 L 170.335938 1183.992188 L 170.105469 1186.1875 L 169.464844 1189.070312 L 169.398438 1192.421875 L 171.050781 1195.824219 L 175.140625 1198.984375 L 180.691406 1202.125 L 186.300781 1205.605469 L 190.5625 1209.78125 L 192.585938 1214.835938 L 193.496094 1220.265625 L 194.917969 1225.398438 L 198.066406 1229.730469 L 202.480469 1233.46875 L 207.28125 1237.003906 L 211.582031 1240.714844 L 214.726562 1244.847656 L 216.910156 1249.042969 L 218.550781 1252.808594 L 220.054688 1255.820312 L 221.757812 1258.449219 L 223.988281 1261.238281 L 227.0625 1264.734375 L 231.195312 1269.300781 L 236.117188 1274.582031 L 241.4375 1280.046875 L 246.789062 1285.230469 L 251.863281 1289.980469 L 256.355469 1294.222656 L 259.972656 1297.875 L 262.921875 1300.96875 L 267.441406 1303.980469 L 276.277344 1307.496094 L 291.125 1311.859375 L 309.46875 1316.421875 L 327.761719 1320.296875 L 342.4375 1322.589844 L 351.015625 1322.746094 L 355.3125 1321.542969 L 358.21875 1320.097656 L 362.070312 1319.265625 L 366.980469 1318.871094 L 372.503906 1318.488281 L 378.203125 1317.6875 L 383.742188 1316.128906 L 389.242188 1313.84375 L 394.941406 1310.945312 L 400.964844 1307.574219 L 407.039062 1303.960938 L 412.777344 1300.359375 L 417.796875 1297.023438 L 421.855469 1294.125 L 425.230469 1291.523438 L 428.339844 1288.984375 L 431.484375 1286.324219 L 434.511719 1283.488281 L 437.160156 1280.453125 L 439.164062 1277.207031 L 440.378906 1273.769531 L 441.152344 1270.316406 L 441.957031 1267.074219 L 443.152344 1264.199219 L 444.65625 1261.582031 L 446.277344 1259.050781 L 447.828125 1256.441406 L 449.164062 1253.285156 L 450.371094 1247.945312 L 451.574219 1238.496094 L 452.875 1223.875 L 454.257812 1206.464844 L 455.667969 1189.523438 L 457.0625 1176.300781 L 458.40625 1169.0625 L 459.714844 1166.109375 L 461.019531 1164.757812 L 462.351562 1162.824219 L 463.703125 1160.128906 L 465.066406 1157.011719 L 466.417969 1153.792969 L 467.761719 1150.71875 L 469.09375 1147.707031 L 470.425781 1144.578125 L 471.765625 1141.21875 L 473.109375 1137.710938 L 474.457031 1134.203125 L 475.800781 1130.828125 L 477.144531 1127.667969 L 478.484375 1124.53125 L 479.824219 1121.15625 L 481.167969 1117.351562 L 482.507812 1113.175781 L 483.851562 1108.75 L 485.195312 1104.199219 L 486.535156 1099.566406 L 487.878906 1094.628906 L 489.21875 1089.085938 L 490.558594 1082.753906 L 491.902344 1075.882812 L 493.246094 1068.839844 L 494.585938 1061.988281 L 495.929688 1055.664062 L 497.273438 1050.074219 L 498.613281 1045.398438 L 499.957031 1041.714844 L 501.296875 1038.660156 L 502.640625 1035.773438 L 503.980469 1032.585938 L 505.324219 1028.777344 L 506.664062 1024.582031 L 508.007812 1020.363281 L 509.347656 1016.429688 L 510.691406 1012.832031 L 512.03125 1009.554688 L 513.375 1006.582031 L 514.714844 1003.808594 L 516.058594 1000.746094 L 517.402344 996.824219 L 518.742188 991.664062 L 520.085938 985.707031 L 521.429688 979.589844 L 522.769531 973.945312 L 524.109375 969.238281 L 525.453125 965.203125 L 526.792969 961.398438 L 528.136719 957.480469 L 529.476562 953.476562 L 530.820312 949.503906 L 532.164062 945.6875 L 533.503906 942.117188 L 534.84375 938.753906 L 536.1875 935.527344 L 537.53125 932.375 L 538.875 929.273438 L 540.21875 926.210938 L 541.558594 923.171875 L 542.898438 920.113281 L 544.234375 916.90625 L 545.578125 913.398438 L 546.921875 909.492188 L 548.273438 905.328125 L 549.617188 901.117188 L 550.957031 897.066406 L 552.285156 893.257812 L 553.617188 889.3125 L 554.957031 884.726562 L 556.320312 879.117188 L 557.6875 872.601562 L 559.042969 865.40625 L 560.371094 857.765625 L 561.660156 849.957031 L 562.953125 842.421875 L 564.292969 835.65625 L 565.714844 830.003906 L 567.15625 825.1875 L 568.554688 820.792969 L 569.828125 816.398438 L 570.953125 811.535156 L 572.113281 805.539062 L 573.523438 797.703125 L 575.300781 787.667969 L 577.078125 776.492188 L 578.371094 765.59375 L 578.703125 756.382812 L 577.746094 749.882812 L 575.78125 745.5625 L 573.234375 742.503906 L 570.398438 739.847656 L 567.007812 736.996094 L 562.648438 733.402344 L 556.910156 728.53125 L 549.675781 722.136719 L 542.003906 715.179688 L 535.242188 708.90625 L 530.445312 704.242188 L 527.472656 700.796875 L 525.890625 697.851562 L 525.265625 694.683594 L 525.167969 690.769531 L 525.191406 686.363281 L 524.929688 681.914062 L 524.097656 677.789062 L 522.828125 674.039062 L 521.375 670.632812 L 519.984375 667.535156 L 518.820312 664.664062 L 517.730469 661.695312 L 516.46875 658.25 L 514.839844 654.097656 L 512.863281 649.585938 L 510.601562 645.21875 L 508.117188 641.488281 L 505.515625 638.640625 L 503.058594 635.9375 L 501.035156 632.378906 L 499.621094 627.265625 L 498.4375 621.027344 L 496.988281 614.394531 L 494.761719 608.082031 L 491.445312 602.671875 L 487.433594 598.160156 L 483.320312 594.386719 L 479.617188 591.144531 L 476.519531 587.953125 L 474.164062 584.273438 L 472.675781 579.558594 L 471.980469 573.484375 L 471.175781 566.59375 L 469.171875 559.636719 L 465.203125 553.261719 L 459.851562 547.695312 L 454.03125 543.050781 L 448.660156 539.453125 L 444.382812 536.859375 L 440.722656 534.585938 L 436.933594 531.800781 L 432.378906 527.875 L 426.839844 523.015625 L 420.222656 517.644531 L 412.417969 512.183594 L 403.601562 507.007812 L 395.042969 502.347656 L 388.300781 498.386719 L 384.21875 495.207031 L 380.875 492.476562 L 375.640625 489.757812 L 365.898438 486.621094 L 349.984375 482.785156 L 330.066406 478.601562 L 309.28125 474.578125 L 290.765625 471.222656 L 290.609375 473.464844 "/>
<path style="fill:none;stroke-width:0.75;stroke-linecap:round;stroke-linejoin:round;stroke:rgb(0%,0%,0%);stroke-opacity:1;stroke-miterlimit:10;" d="M 777.675781 528.378906 L 771.691406 531.253906 L 764.746094 534.285156 L 757.625 537.078125 L 751.03125 539.332031 L 745.296875 541.148438 L 740.675781 542.734375 L 737.242188 544.28125 L 734.4375 545.988281 L 731.527344 548.035156 L 727.921875 550.578125 L 723.578125 553.628906 L 718.597656 557.15625 L 713.074219 561.136719 L 707.179688 565.488281 L 701.316406 569.929688 L 695.960938 574.121094 L 691.4375 577.839844 L 687.417969 581.332031 L 683.421875 584.949219 L 679.082031 588.988281 L 674.488281 593.460938 L 669.839844 598.3125 L 665.292969 603.503906 L 660.835938 609.003906 L 656.421875 614.804688 L 651.996094 620.882812 L 647.550781 627.167969 L 643.277344 633.347656 L 639.398438 639.058594 L 636.085938 644.085938 L 633.21875 648.863281 L 630.609375 653.96875 L 628.117188 659.8125 L 625.714844 666.113281 L 623.421875 672.40625 L 621.253906 678.230469 L 619.179688 683.320312 L 616.980469 688.15625 L 614.390625 693.414062 L 611.257812 699.542969 L 607.886719 706.085938 L 604.695312 712.359375 L 602 717.902344 L 599.71875 723.152344 L 597.683594 728.769531 L 595.738281 735.1875 L 593.859375 741.992188 L 592.054688 748.554688 L 590.332031 754.234375 L 588.699219 758.617188 L 587.160156 762.148438 L 585.722656 765.484375 L 584.382812 769.1875 L 583.101562 773.425781 L 581.824219 778.261719 L 580.507812 783.699219 L 579.160156 789.480469 L 577.796875 795.277344 L 576.4375 800.761719 L 575.089844 805.710938 L 573.753906 810.316406 L 572.421875 814.871094 L 571.082031 819.597656 L 569.742188 824.449219 L 568.398438 829.316406 L 567.054688 834.160156 L 565.710938 839.273438 L 564.367188 845.03125 L 563.027344 851.664062 L 561.683594 858.886719 L 560.34375 866.261719 L 559 873.363281 L 557.660156 879.835938 L 556.320312 885.613281 L 554.980469 890.703125 L 553.636719 895.175781 L 552.292969 899.335938 L 550.949219 903.542969 L 549.605469 908.0625 L 548.261719 912.738281 L 546.921875 917.324219 L 545.582031 921.566406 L 544.242188 925.273438 L 542.902344 928.503906 L 541.558594 931.386719 L 540.214844 934.046875 L 538.871094 936.65625 L 537.527344 939.398438 L 536.183594 942.410156 L 534.84375 945.625 L 533.503906 948.925781 L 532.164062 952.242188 L 530.824219 955.644531 L 529.480469 959.238281 L 528.136719 963.136719 L 526.792969 967.425781 L 525.449219 972.121094 L 524.105469 977.214844 L 522.765625 982.648438 L 521.429688 988.148438 L 520.089844 993.386719 L 518.746094 998.109375 L 517.402344 1002.363281 L 516.058594 1006.277344 L 514.714844 1009.957031 L 513.371094 1013.492188 L 512.03125 1016.949219 L 510.691406 1020.402344 L 509.351562 1023.890625 L 508.007812 1027.320312 L 506.667969 1030.566406 L 505.324219 1033.566406 L 503.980469 1036.523438 L 502.636719 1039.695312 L 501.296875 1043.308594 L 499.953125 1047.472656 L 498.609375 1052.25 L 497.269531 1057.710938 L 495.929688 1063.867188 L 494.589844 1070.503906 L 493.25 1077.351562 L 491.90625 1084.15625 L 490.558594 1090.722656 L 489.214844 1096.871094 L 487.875 1102.460938 L 486.535156 1107.492188 L 485.195312 1112 L 483.855469 1116.023438 L 482.511719 1119.679688 L 481.167969 1123.089844 L 479.828125 1126.382812 L 478.484375 1129.660156 L 477.140625 1132.972656 L 475.796875 1136.347656 L 474.457031 1139.78125 L 473.117188 1143.113281 L 471.773438 1146.140625 L 470.433594 1148.761719 L 469.089844 1151.226562 L 467.75 1153.878906 L 466.410156 1157.066406 L 465.070312 1160.894531 L 463.730469 1164.5 L 462.382812 1166.78125 L 461.019531 1167.386719 L 459.632812 1168.914062 L 458.203125 1174.710938 L 456.765625 1187.203125 L 455.519531 1205.140625 L 454.703125 1226.359375 L 454.519531 1248.65625 L 455.042969 1269.714844 L 456.296875 1287.1875 L 458.316406 1298.726562 L 461.109375 1303.046875 L 464.597656 1303.109375 L 468.667969 1302.941406 L 473.199219 1305.621094 L 477.980469 1310.417969 L 482.78125 1315.667969 L 487.421875 1320.027344 L 491.9375 1323.484375 L 496.414062 1326.363281 L 500.945312 1328.976562 L 505.652344 1331.65625 L 510.828125 1334.777344 L 516.816406 1338.71875 L 523.730469 1343.6875 L 530.828125 1349.1875 L 537.160156 1354.550781 L 542.050781 1359.257812 L 545.992188 1363.386719 L 549.757812 1367.167969 L 554.242188 1370.734375 L 560.804688 1373.871094 L 570.933594 1376.265625 L 586.109375 1377.605469 L 606.820312 1377.65625 L 629.566406 1376.46875 L 649.855469 1374.171875 L 664.21875 1370.953125 L 673.308594 1367.296875 L 678.808594 1363.746094 L 682.367188 1360.734375 L 685.519531 1358.289062 L 689.769531 1356.320312 L 696.207031 1354.6875 L 704.246094 1353.027344 L 712.878906 1350.914062 L 721.105469 1347.933594 L 728.101562 1343.867188 L 733.746094 1339.304688 L 738.101562 1335.039062 L 741.464844 1331.652344 L 745.078125 1328.859375 L 750.421875 1326.160156 L 758.515625 1323.148438 L 768.546875 1319.777344 L 779.242188 1316.089844 L 789.335938 1312.128906 L 797.734375 1307.980469 L 804.113281 1303.894531 L 808.324219 1300.164062 L 810.558594 1296.972656 L 812.367188 1294.113281 L 815.628906 1291.277344 L 821.703125 1288.195312 L 829.820312 1284.796875 L 838.675781 1281.0625 L 847.136719 1277.015625 L 854.742188 1272.898438 L 861.191406 1269 L 866.195312 1265.609375 L 869.757812 1262.8125 L 873.082031 1259.871094 L 877.667969 1255.839844 L 884.535156 1250.109375 L 892.738281 1243.378906 L 900.851562 1236.683594 L 907.726562 1230.855469 L 913.355469 1225.886719 L 918.023438 1221.566406 L 922.003906 1217.6875 L 925.535156 1214.039062 L 928.652344 1210.414062 L 931.34375 1206.613281 L 933.617188 1202.527344 L 935.519531 1198.429688 L 937.117188 1194.691406 L 938.496094 1191.5625 L 939.890625 1188.761719 L 941.550781 1185.902344 L 943.679688 1182.671875 L 946.257812 1179.15625 L 949.207031 1175.515625 L 952.453125 1171.917969 L 955.867188 1168.4375 L 959.058594 1164.722656 L 961.582031 1160.324219 L 963.160156 1155.015625 L 964.203125 1149.414062 L 965.277344 1144.359375 L 966.855469 1140.414062 L 968.925781 1137.007812 L 971.386719 1133.304688 L 974.117188 1128.453125 L 976.945312 1121.945312 L 979.4375 1114.601562 L 981.09375 1107.582031 L 981.621094 1101.734375 L 981.546875 1096.722656 L 981.597656 1091.890625 L 982.363281 1086.707031 L 983.855469 1081.089844 L 985.941406 1075.0625 L 988.445312 1068.695312 L 991.019531 1062.230469 L 993.28125 1055.945312 L 994.835938 1050.128906 L 995.519531 1044.925781 L 996.015625 1039.914062 L 997.242188 1034.539062 L 999.792969 1028.484375 L 1003.027344 1022.441406 L 1005.996094 1017.339844 L 1007.972656 1013.816406 L 1009.109375 1011.320312 L 1009.785156 1009.011719 L 1010.328125 1006.136719 L 1010.859375 1002.296875 L 1011.449219 997.183594 L 1012.175781 990.488281 L 1013.09375 982.152344 L 1014.234375 973.074219 L 1015.601562 964.40625 L 1017.175781 957.089844 L 1018.777344 951.246094 L 1020.191406 946.785156 L 1021.253906 943.46875 L 1021.957031 940.410156 L 1022.347656 936.5625 L 1022.46875 930.878906 L 1022.414062 922.730469 L 1022.488281 913.125 L 1023.058594 903.5 L 1024.292969 894.792969 L 1025.621094 886.003906 L 1026.292969 875.652344 L 1025.804688 862.75 L 1024.714844 848.316406 L 1023.824219 833.882812 L 1023.769531 820.738281 L 1024.484375 809.285156 L 1025.734375 799.699219 L 1027.277344 792.15625 L 1028.871094 786.582031 L 1030.289062 781.871094 L 1031.292969 776.667969 L 1031.691406 770.03125 L 1031.46875 762.683594 L 1030.648438 755.761719 L 1029.253906 750.039062 L 1027.3125 744.828125 L 1024.855469 739.082031 L 1021.917969 731.75 L 1018.585938 722.273438 L 1015.191406 712.039062 L 1012.117188 702.9375 L 1009.652344 696.34375 L 1007.714844 691.617188 L 1006.121094 687.613281 L 1004.710938 683.417969 L 1003.367188 679.015625 L 1001.984375 674.617188 L 1000.472656 670.386719 L 998.761719 666.28125 L 996.804688 662.195312 L 994.535156 658.039062 L 991.976562 653.730469 L 989.429688 649.285156 L 987.273438 644.734375 L 985.738281 640.132812 L 984.457031 635.574219 L 982.910156 631.164062 L 980.726562 626.976562 L 978.144531 622.925781 L 975.542969 618.890625 L 973.3125 614.753906 L 971.671875 610.398438 L 970.242188 605.710938 L 968.476562 600.585938 L 965.949219 594.980469 L 962.652344 589.148438 L 958.703125 583.398438 L 954.226562 578 L 949.421875 572.96875 L 944.511719 568.269531 L 939.675781 563.84375 L 934.929688 559.597656 L 930.238281 555.414062 L 925.574219 551.179688 L 921 546.859375 L 916.929688 542.789062 L 913.863281 539.375 L 911.558594 536.90625 L 906.753906 535.128906 L 895.433594 533.664062 L 874.753906 532.203125 L 846.527344 530.761719 L 813.742188 529.425781 L 779.371094 528.285156 L 777.675781 528.378906 "/>
<path style="fill:none;stroke-width:0.75;stroke-linecap:round;stroke-linejoin:round;stroke:rgb(0%,0%,0%);stroke-opacity:1;stroke-miterlimit:10;" d="M 909.421875 522.613281 L 907.445312 528.101562 L 908.679688 534.066406 L 913.808594 539.429688 L 918.460938 543.269531 L 922.839844 546.539062 L 927.214844 550.054688 L 932.269531 554.691406 L 935.953125 559.75 L 940.972656 564.453125 L 944.921875 567.394531 L 948.4375 568.109375 L 951.929688 565.828125 L 952.535156 560.855469 L 950.980469 555.589844 L 949.683594 551.058594 L 948.410156 547.613281 L 947.292969 544.945312 L 943.160156 542.492188 L 934.667969 539.53125 L 927.546875 535.570312 L 925.066406 531.761719 L 924.039062 528.585938 L 923.175781 526.015625 L 919.320312 524.082031 L 910.832031 522.738281 L 909.421875 522.613281 "/>
</g>
</svg>
