<?xml version="1.0" encoding="UTF-8"?>
<svg xmlns="http://www.w3.org/2000/svg" xmlns:xlink="http://www.w3.org/1999/xlink" width="1428pt" height="1605pt" viewBox="0 0 1428 1605" version="1.1">
<g id="surface224">
<rect x="0" y="0" width="1428" height="1605" style="fill:rgb(100%,100%,100%);fill-opacity:1;stroke:none;"/>
<path style="fill:none;stroke-width:0.75;stroke-linecap:round;stroke-linejoin:round;stroke:rgb(0%,0%,0%);stroke-opacity:1;stroke-miterlimit:10;" d="M 822.148438 431.847656 L 815.871094 435.355469 L 807.769531 438.984375 L 799.210938 442.824219 L 791.570312 446.960938 L 785.878906 451.445312 L 781.792969 456.183594 L 778.621094 461.042969 L 775.679688 465.878906 L 772.277344 470.5625 L 767.914062 474.976562 L 762.832031 479.082031 L 757.457031 482.867188 L 752.214844 486.316406 L 747.464844 489.441406 L 743.273438 492.402344 L 739.640625 495.390625 L 736.566406 498.589844 L 734.046875 502.195312 L 732.042969 506.332031 L 730.382812 510.902344 L 728.855469 515.742188 L 727.238281 520.695312 L 725.371094 525.621094 L 723.238281 530.492188 L 720.871094 535.300781 L 718.304688 540.046875 L 715.566406 544.722656 L 712.675781 549.324219 L 709.597656 553.8125 L 706.285156 558.160156 L 702.6875 562.332031 L 698.753906 566.289062 L 694.445312 570.050781 L 689.738281 573.8125 L 684.625 577.832031 L 679.085938 582.363281 L 673.15625 587.574219 L 667.039062 593.324219 L 660.980469 599.402344 L 655.226562 605.585938 L 650.019531 611.65625 L 645.539062 617.445312 L 641.679688 623.003906 L 638.265625 628.414062 L 635.128906 633.773438 L 632.125 639.167969 L 629.257812 644.636719 L 626.574219 650.207031 L 624.109375 655.914062 L 621.90625 661.785156 L 619.96875 667.839844 L 618.152344 674.054688 L 616.277344 680.394531 L 614.160156 686.816406 L 611.621094 693.289062 L 608.5625 699.761719 L 605.234375 706.117188 L 601.960938 712.226562 L 599.070312 717.96875 L 596.800781 723.222656 L 595.042969 727.929688 L 593.589844 732.050781 L 592.238281 735.539062 L 590.785156 738.347656 L 589.027344 740.410156 L 586.773438 741.578125 L 583.832031 741.675781 L 580.011719 740.523438 L 575.199219 738.035156 L 569.632812 734.464844 L 563.628906 730.15625 L 557.496094 725.449219 L 551.558594 720.679688 L 546.078125 716.117188 L 541.128906 711.722656 L 536.742188 707.390625 L 532.945312 703.003906 L 529.753906 698.480469 L 527.132812 693.824219 L 525.039062 689.078125 L 523.425781 684.265625 L 522.246094 679.433594 L 521.429688 674.613281 L 520.789062 669.878906 L 520.113281 665.3125 L 519.1875 660.996094 L 517.804688 657.007812 L 515.832031 653.378906 L 513.457031 649.964844 L 510.964844 646.5625 L 508.628906 642.984375 L 506.664062 639.074219 L 505.046875 634.871094 L 503.6875 630.449219 L 502.503906 625.894531 L 501.410156 621.28125 L 500.3125 616.6875 L 499.074219 612.128906 L 497.566406 607.632812 L 495.644531 603.207031 L 493.222656 598.851562 L 490.421875 594.496094 L 487.410156 590.046875 L 484.363281 585.414062 L 481.449219 580.503906 L 478.785156 575.261719 L 476.234375 569.777344 L 473.605469 564.171875 L 470.703125 558.570312 L 467.339844 553.101562 L 463.40625 547.871094 L 459.136719 542.949219 L 454.851562 538.390625 L 450.867188 534.25 L 447.378906 530.550781 L 444.066406 527.171875 L 440.480469 523.964844 L 436.179688 520.78125 L 430.714844 517.460938 L 423.859375 513.90625 L 416.28125 510.171875 L 408.863281 506.371094 L 402.5 502.601562 L 397.773438 498.960938 L 394.085938 495.476562 L 390.546875 492.164062 L 386.253906 489.03125 L 380.3125 486.101562 L 372.207031 483.382812 L 362.914062 480.902344 L 353.796875 478.6875 L 346.21875 476.765625 L 341.53125 475.15625 L 340.386719 473.902344 L 340.570312 473.054688 L 339.144531 472.691406 L 333.191406 472.875 L 320.683594 473.65625 L 303.265625 475.003906 L 283.492188 476.867188 L 263.910156 479.195312 L 247.078125 481.945312 L 234.882812 485.050781 L 226.542969 488.417969 L 220.621094 491.945312 L 215.679688 495.53125 L 210.539062 499.085938 L 205.105469 502.597656 L 199.550781 506.078125 L 194.046875 509.53125 L 188.761719 512.96875 L 183.871094 516.402344 L 179.539062 519.894531 L 175.941406 523.519531 L 173.246094 527.347656 L 171.507812 531.441406 L 170.3125 535.859375 L 169.128906 540.648438 L 167.429688 545.859375 L 164.679688 551.542969 L 160.539062 557.675781 L 155.402344 563.976562 L 149.855469 570.09375 L 144.480469 575.671875 L 139.867188 580.363281 L 136.460938 583.957031 L 134.183594 586.835938 L 132.820312 589.539062 L 132.15625 592.59375 L 131.957031 596.414062 L 131.886719 600.914062 L 131.597656 605.894531 L 130.730469 611.15625 L 128.9375 616.492188 L 126.007812 621.707031 L 122.332031 626.585938 L 118.441406 630.917969 L 114.867188 634.5 L 112.011719 637.210938 L 109.746094 639.300781 L 107.8125 641.109375 L 105.953125 642.988281 L 103.902344 645.269531 L 101.480469 648.230469 L 98.777344 651.824219 L 95.972656 655.945312 L 93.234375 660.480469 L 90.734375 665.316406 L 88.597656 670.355469 L 86.789062 675.574219 L 85.230469 680.953125 L 83.84375 686.484375 L 82.558594 692.1875 L 81.386719 698.183594 L 80.347656 704.632812 L 79.457031 711.683594 L 78.742188 719.496094 L 78.195312 728.105469 L 77.707031 737.101562 L 77.136719 745.957031 L 76.347656 754.144531 L 75.242188 761.253906 L 73.855469 767.328125 L 72.261719 772.53125 L 70.535156 777.023438 L 68.75 780.964844 L 66.972656 784.515625 L 65.210938 787.816406 L 63.476562 791.003906 L 61.769531 794.21875 L 60.097656 797.574219 L 58.515625 801.082031 L 57.078125 804.734375 L 55.84375 808.523438 L 54.867188 812.433594 L 54.183594 816.453125 L 53.730469 820.53125 L 53.417969 824.609375 L 53.152344 828.628906 L 52.851562 832.539062 L 52.433594 836.335938 L 51.886719 840.253906 L 51.203125 844.585938 L 50.386719 849.617188 L 49.429688 855.558594 L 48.308594 862.277344 L 47.007812 869.5625 L 45.496094 877.203125 L 43.753906 884.980469 L 41.816406 892.648438 L 39.9375 899.8125 L 38.429688 906.046875 L 37.609375 910.917969 L 37.683594 914.164062 L 38.4375 916.191406 L 39.566406 917.558594 L 40.75 918.839844 L 41.675781 920.601562 L 42.089844 923.292969 L 42.015625 926.902344 L 41.53125 931.3125 L 40.71875 936.390625 L 39.65625 942.015625 L 38.5 948.078125 L 37.6875 954.527344 L 37.734375 961.332031 L 39.144531 968.449219 L 42.230469 975.84375 L 46.5 983.421875 L 51.261719 991.085938 L 55.820312 998.742188 L 59.488281 1006.289062 L 61.773438 1013.613281 L 63.019531 1020.546875 L 63.769531 1026.910156 L 64.570312 1032.515625 L 65.851562 1037.25 L 67.566406 1041.289062 L 69.550781 1044.882812 L 71.640625 1048.269531 L 73.679688 1051.699219 L 75.550781 1055.359375 L 77.335938 1059.203125 L 79.164062 1063.128906 L 81.171875 1067.03125 L 83.488281 1070.804688 L 86.1875 1074.378906 L 89.152344 1077.796875 L 92.195312 1081.121094 L 95.144531 1084.429688 L 97.878906 1087.777344 L 100.515625 1091.195312 L 103.230469 1094.695312 L 106.195312 1098.289062 L 109.585938 1102 L 113.488281 1105.8125 L 117.597656 1109.625 L 121.527344 1113.308594 L 124.878906 1116.742188 L 127.382812 1119.839844 L 129.261719 1122.722656 L 130.855469 1125.570312 L 132.503906 1128.542969 L 134.550781 1131.820312 L 137.242188 1135.527344 L 140.4375 1139.625 L 143.90625 1144.042969 L 147.421875 1148.703125 L 150.78125 1153.515625 L 153.917969 1158.355469 L 156.804688 1163.082031 L 159.40625 1167.558594 L 161.691406 1171.644531 L 163.648438 1175.246094 L 165.332031 1178.4375 L 166.824219 1181.332031 L 168.191406 1184.046875 L 169.519531 1186.699219 L 170.890625 1189.402344 L 172.445312 1192.273438 L 174.328125 1195.4375 L 176.6875 1199.015625 L 179.625 1203.074219 L 183.019531 1207.511719 L 186.699219 1212.171875 L 190.496094 1216.902344 L 194.234375 1221.542969 L 197.792969 1225.996094 L 201.199219 1230.359375 L 204.542969 1234.785156 L 207.894531 1239.421875 L 211.332031 1244.382812 L 214.902344 1249.597656 L 218.640625 1254.960938 L 222.585938 1260.367188 L 226.78125 1265.710938 L 231.203125 1270.878906 L 235.609375 1275.746094 L 239.703125 1280.195312 L 243.175781 1284.09375 L 245.730469 1287.316406 L 247.230469 1289.824219 L 248.226562 1291.867188 L 249.425781 1293.792969 L 251.546875 1295.9375 L 255.160156 1298.558594 L 260.308594 1301.59375 L 266.882812 1304.90625 L 274.789062 1308.355469 L 283.921875 1311.792969 L 294.136719 1315.082031 L 305.089844 1318.050781 L 316.398438 1320.539062 L 327.675781 1322.375 L 338.617188 1323.417969 L 349.238281 1323.632812 L 359.621094 1323 L 369.871094 1321.507812 L 380.070312 1319.148438 L 390.246094 1315.953125 L 400.105469 1312.148438 L 409.292969 1308.015625 L 417.453125 1303.832031 L 424.21875 1299.875 L 429.445312 1296.433594 L 433.820312 1293.84375 L 438.253906 1292.453125 L 443.640625 1292.605469 L 450.601562 1294.515625 L 458.613281 1297.859375 L 466.863281 1302.175781 L 474.539062 1307 L 480.832031 1311.878906 L 485.28125 1316.449219 L 488.824219 1320.765625 L 492.753906 1324.980469 L 498.355469 1329.253906 L 506.445312 1333.707031 L 515.917969 1338.3125 L 525.203125 1343.011719 L 532.726562 1347.753906 L 536.914062 1352.480469 L 537.070312 1357.109375 L 536.039062 1361.488281 L 537.550781 1365.445312 L 545.332031 1368.804688 L 561.886719 1371.417969 L 584.855469 1373.222656 L 610.667969 1374.179688 L 635.742188 1374.253906 L 656.5 1373.414062 L 670.359375 1371.644531 L 678.695312 1369.074219 L 683.878906 1365.847656 L 688.285156 1362.121094 L 694.273438 1358.046875 L 703.554688 1353.757812 L 715.140625 1349.351562 L 727.382812 1344.898438 L 738.632812 1340.476562 L 747.660156 1336.140625 L 754.90625 1331.867188 L 761.238281 1327.601562 L 767.519531 1323.292969 L 774.621094 1318.894531 L 783.128906 1314.378906 L 792.582031 1309.792969 L 802.230469 1305.210938 L 811.339844 1300.710938 L 819.355469 1296.347656 L 826.472656 1292.136719 L 833.078125 1288.066406 L 839.550781 1284.144531 L 846.285156 1280.355469 L 853.511719 1276.703125 L 860.90625 1273.152344 L 867.988281 1269.671875 L 874.285156 1266.234375 L 879.320312 1262.796875 L 882.84375 1259.324219 L 885.476562 1255.703125 L 888.078125 1251.816406 L 891.492188 1247.546875 L 896.332031 1242.816406 L 902.242188 1237.722656 L 908.632812 1232.398438 L 914.910156 1226.988281 L 920.484375 1221.625 L 924.9375 1216.390625 L 928.605469 1211.148438 L 932.003906 1205.695312 L 935.640625 1199.839844 L 939.886719 1193.460938 L 944.546875 1186.773438 L 949.277344 1180.070312 L 953.746094 1173.640625 L 957.609375 1167.777344 L 960.621094 1162.695312 L 962.882812 1158.261719 L 964.597656 1154.273438 L 965.960938 1150.523438 L 967.164062 1146.835938 L 968.335938 1143.179688 L 969.605469 1139.550781 L 971.089844 1135.953125 L 972.914062 1132.386719 L 975.132812 1128.839844 L 977.539062 1125.242188 L 979.851562 1121.515625 L 981.800781 1117.574219 L 983.101562 1113.335938 L 983.601562 1108.738281 L 983.621094 1103.800781 L 983.605469 1098.566406 L 984 1093.066406 L 985.128906 1087.359375 L 986.832031 1081.527344 L 988.832031 1075.671875 L 990.847656 1069.890625 L 992.601562 1064.28125 L 993.902344 1058.921875 L 994.914062 1053.765625 L 995.878906 1048.746094 L 997.050781 1043.792969 L 998.605469 1038.859375 L 1000.480469 1034.007812 L 1002.53125 1029.3125 L 1004.628906 1024.855469 L 1006.632812 1020.714844 L 1008.441406 1016.925781 L 1010.054688 1013.332031 L 1011.519531 1009.734375 L 1012.867188 1005.9375 L 1014.140625 1001.738281 L 1015.351562 996.984375 L 1016.457031 991.703125 L 1017.386719 985.964844 L 1018.074219 979.84375 L 1018.5 973.445312 L 1018.839844 967.003906 L 1019.316406 960.792969 L 1020.148438 955.078125 L 1021.5625 950.132812 L 1023.648438 946.160156 L 1025.984375 943.117188 L 1028.011719 940.894531 L 1029.175781 939.378906 L 1029.097656 938.34375 L 1028.074219 937.0625 L 1026.585938 934.683594 L 1025.105469 930.355469 L 1024.105469 923.234375 L 1023.941406 912.769531 L 1024.453125 899.582031 L 1025.363281 884.613281 L 1026.390625 868.78125 L 1027.257812 853.019531 L 1027.777344 838.09375 L 1028.136719 824.152344 L 1028.621094 811.167969 L 1029.515625 799.128906 L 1030.976562 788.011719 L 1032.648438 777.773438 L 1034.042969 768.363281 L 1034.675781 759.738281 L 1034.0625 751.851562 L 1031.902344 744.625 L 1028.601562 737.859375 L 1024.765625 731.328125 L 1020.976562 724.796875 L 1017.726562 718.105469 L 1015.039062 711.371094 L 1012.828125 704.769531 L 1011.007812 698.484375 L 1009.5 692.699219 L 1008.214844 687.53125 L 1007.058594 682.875 L 1005.9375 678.554688 L 1004.761719 674.40625 L 1003.457031 670.28125 L 1002.007812 666.128906 L 1000.421875 661.921875 L 998.707031 657.628906 L 996.867188 653.222656 L 994.921875 648.699219 L 992.960938 644.109375 L 991.089844 639.53125 L 989.40625 635.035156 L 988.011719 630.703125 L 986.953125 626.582031 L 986.015625 622.644531 L 984.933594 618.835938 L 983.429688 615.101562 L 981.316406 611.367188 L 978.726562 607.5 L 975.871094 603.339844 L 972.96875 598.726562 L 970.234375 593.507812 L 967.804688 587.582031 L 965.515625 581.082031 L 963.128906 574.207031 L 960.410156 567.140625 L 957.160156 560.066406 L 953.351562 553.128906 L 948.992188 546.453125 L 944.09375 540.167969 L 938.671875 534.40625 L 932.78125 529.257812 L 926.65625 524.644531 L 920.585938 520.453125 L 914.847656 516.574219 L 909.726562 512.890625 L 905.421875 509.304688 L 901.792969 505.785156 L 898.621094 502.324219 L 895.6875 498.910156 L 892.757812 495.527344 L 889.582031 492.179688 L 885.894531 488.871094 L 881.4375 485.59375 L 875.941406 482.359375 L 869.414062 479.167969 L 862.945312 476.042969 L 857.882812 473.015625 L 855.585938 470.113281 L 856.855469 467.332031 L 860.296875 464.519531 L 863.960938 461.496094 L 865.902344 458.078125 L 864.171875 454.085938 L 857.507812 449.410156 L 847.417969 444.28125 L 836.09375 438.996094 L 825.722656 433.859375 L 818.5 429.179688 L 822.148438 431.847656 "/>
<path style="fill:none;stroke-width:0.75;stroke-linecap:round;stroke-linejoin:round;stroke:rgb(0%,0%,0%);stroke-opacity:1;stroke-miterlimit:10;" d="M 278.390625 473.507812 L 263.125 478.207031 L 246.09375 482.570312 L 231.75 486.507812 L 223.355469 489.96875 L 219.386719 493.066406 L 217.136719 495.949219 L 213.890625 498.757812 L 207.722656 501.65625 L 199.859375 504.859375 L 192.308594 508.585938 L 186.640625 512.941406 L 182.675781 517.53125 L 179.792969 521.84375 L 177.359375 525.367188 L 174.886719 527.863281 L 172.371094 530.175781 L 169.949219 533.421875 L 167.699219 538.417969 L 165.476562 544.777344 L 163.089844 551.804688 L 160.347656 558.800781 L 157.035156 565.203125 L 152.871094 570.9375 L 147.542969 576.070312 L 141.0625 580.640625 L 134.652344 584.601562 L 129.839844 587.898438 L 128.15625 590.472656 L 130.378906 592.441406 L 134.277344 594.636719 L 136.859375 598.074219 L 135.894531 603.449219 L 132.148438 610.152344 L 127.15625 617.269531 L 122.4375 623.875 L 119.171875 629.210938 L 117.082031 633.1875 L 115.550781 635.875 L 113.945312 637.351562 L 111.789062 637.867188 L 109.144531 638.421875 L 106.21875 640.1875 L 103.21875 643.972656 L 100.28125 649.058594 L 97.542969 654.371094 L 95.136719 658.816406 L 93.136719 661.746094 L 91.375 664.222656 L 89.621094 667.742188 L 87.707031 673.359375 L 85.714844 680.414062 L 83.773438 687.800781 L 82.027344 694.414062 L 80.601562 699.578125 L 79.558594 704.292969 L 78.960938 709.980469 L 78.796875 717.675781 L 78.796875 726.898438 L 78.625 736.769531 L 77.953125 746.417969 L 76.570312 755.101562 L 74.773438 762.582031 L 72.988281 768.746094 L 71.527344 773.570312 L 70.289062 777.386719 L 69.046875 780.621094 L 67.589844 783.6875 L 65.769531 786.933594 L 63.71875 790.382812 L 61.644531 793.984375 L 59.746094 797.683594 L 58.179688 801.429688 L 56.917969 805.164062 L 55.875 808.839844 L 54.992188 812.433594 L 54.265625 816.054688 L 53.699219 819.851562 L 53.3125 823.972656 L 53.082031 828.484375 L 52.890625 833.140625 L 52.605469 837.625 L 52.105469 841.714844 L 51.382812 845.632812 L 50.457031 849.703125 L 49.351562 854.253906 L 48.078125 859.625 L 46.671875 866.21875 L 45.15625 874.445312 L 43.5625 884.394531 L 41.96875 894.800781 L 40.460938 904.078125 L 39.125 910.632812 L 38.066406 913.460938 L 37.511719 913.898438 L 37.699219 913.878906 L 38.753906 914.945312 L 40.289062 917.15625 L 41.777344 920.203125 L 42.707031 923.757812 L 42.695312 927.585938 L 41.917969 931.753906 L 40.683594 936.394531 L 39.300781 941.648438 L 38.101562 947.601562 L 37.484375 954.152344 L 37.878906 961.132812 L 39.585938 968.398438 L 42.453125 975.867188 L 46.21875 983.464844 L 50.601562 991.121094 L 55.257812 998.765625 L 59.488281 1006.308594 L 62.523438 1013.667969 L 63.863281 1020.726562 L 64.125 1027.28125 L 64.191406 1033.105469 L 64.964844 1037.96875 L 67.035156 1041.769531 L 69.820312 1044.898438 L 72.4375 1047.871094 L 74.234375 1051.117188 L 75.488281 1054.691406 L 76.707031 1058.558594 L 78.402344 1062.6875 L 80.917969 1067 L 83.933594 1071.257812 L 86.972656 1075.191406 L 89.671875 1078.597656 L 92.132812 1081.613281 L 94.570312 1084.449219 L 97.199219 1087.3125 L 100.179688 1090.398438 L 103.441406 1093.785156 L 106.847656 1097.535156 L 110.277344 1101.707031 L 113.632812 1106.253906 L 117.003906 1110.742188 L 120.511719 1114.625 L 124.1875 1117.539062 L 127.683594 1119.824219 L 130.554688 1121.988281 L 132.359375 1124.554688 L 132.957031 1127.882812 L 133.429688 1131.777344 L 135.164062 1135.882812 L 139.085938 1139.941406 L 144.292969 1144.03125 L 149.425781 1148.316406 L 153.128906 1152.960938 L 154.570312 1158.03125 L 155.023438 1163.195312 L 156.300781 1168.023438 L 159.65625 1172.183594 L 164.144531 1175.726562 L 168.269531 1178.808594 L 170.535156 1181.582031 L 170.042969 1184.1875 L 168.324219 1186.722656 L 167.496094 1189.28125 L 169.160156 1191.960938 L 172.804688 1194.929688 L 177.394531 1198.363281 L 181.890625 1202.4375 L 185.492188 1207.230469 L 188.351562 1212.433594 L 190.847656 1217.632812 L 193.367188 1222.410156 L 196.234375 1226.511719 L 199.535156 1230.296875 L 203.300781 1234.277344 L 207.503906 1238.851562 L 211.921875 1243.9375 L 216.289062 1249.339844 L 220.335938 1254.855469 L 223.882812 1260.320312 L 227.148438 1265.683594 L 230.4375 1270.925781 L 233.992188 1275.984375 L 237.746094 1280.667969 L 241.554688 1284.753906 L 245.289062 1288.011719 L 248.742188 1290.332031 L 251.460938 1292.046875 L 252.933594 1293.617188 L 253.050781 1295.4375 L 253.289062 1297.679688 L 255.535156 1300.453125 L 261.664062 1303.875 L 272.730469 1307.933594 L 286.441406 1312.160156 L 299.671875 1315.949219 L 310.078125 1318.835938 L 318.375 1320.867188 L 326.058594 1322.21875 L 334.625 1323.074219 L 345.164062 1323.523438 L 357.164062 1323.367188 L 369.703125 1322.320312 L 381.867188 1320.101562 L 392.886719 1316.582031 L 402.570312 1312.269531 L 410.867188 1307.824219 L 417.75 1303.78125 L 423.257812 1300.167969 L 427.441406 1296.890625 L 430.355469 1293.851562 L 432.132812 1290.964844 L 433.21875 1288.203125 L 434.140625 1285.566406 L 435.308594 1283.003906 L 436.710938 1280.363281 L 438.210938 1277.453125 L 439.679688 1274.082031 L 441.027344 1270.21875 L 442.289062 1266.453125 L 443.550781 1263.542969 L 444.871094 1261.894531 L 446.234375 1260.558594 L 447.617188 1258.242188 L 448.988281 1253.652344 L 450.332031 1245.816406 L 451.65625 1235.042969 L 452.980469 1221.960938 L 454.3125 1207.363281 L 455.660156 1192.730469 L 457.007812 1179.699219 L 458.359375 1169.910156 L 459.703125 1164.449219 L 461.042969 1162.1875 L 462.378906 1161.4375 L 463.71875 1160.515625 L 465.0625 1158.136719 L 466.40625 1154.664062 L 467.75 1150.867188 L 469.089844 1147.355469 L 470.433594 1144.117188 L 471.773438 1140.996094 L 473.113281 1137.820312 L 474.457031 1134.480469 L 475.800781 1131.039062 L 477.144531 1127.625 L 478.484375 1124.300781 L 479.828125 1120.945312 L 481.167969 1117.386719 L 482.511719 1113.449219 L 483.851562 1109.027344 L 485.195312 1104.230469 L 486.535156 1099.234375 L 487.875 1094.148438 L 489.21875 1088.808594 L 490.558594 1082.996094 L 491.902344 1076.480469 L 493.246094 1069.210938 L 494.589844 1061.832031 L 495.929688 1055.160156 L 497.273438 1049.8125 L 498.613281 1045.589844 L 499.953125 1042.082031 L 501.296875 1038.886719 L 502.636719 1035.660156 L 503.980469 1032.265625 L 505.324219 1028.644531 L 506.667969 1024.714844 L 508.007812 1020.492188 L 509.347656 1016.316406 L 510.691406 1012.601562 L 512.03125 1009.617188 L 513.375 1006.992188 L 514.714844 1004.210938 L 516.058594 1000.75 L 517.402344 996.25 L 518.742188 990.996094 L 520.085938 985.433594 L 521.425781 979.949219 L 522.769531 974.683594 L 524.113281 969.710938 L 525.453125 965.117188 L 526.796875 960.933594 L 528.136719 957.058594 L 529.476562 953.332031 L 530.820312 949.644531 L 532.160156 945.980469 L 533.503906 942.375 L 534.847656 938.851562 L 536.1875 935.433594 L 537.53125 932.160156 L 538.875 929.0625 L 540.214844 926.152344 L 541.558594 923.285156 L 542.898438 920.296875 L 544.242188 917.011719 L 545.582031 913.324219 L 546.921875 909.34375 L 548.261719 905.246094 L 549.605469 901.203125 L 550.953125 897.316406 L 552.300781 893.386719 L 553.640625 889.15625 L 554.976562 884.378906 L 556.304688 878.9375 L 557.640625 872.738281 L 558.988281 865.691406 L 560.355469 857.835938 L 561.722656 849.765625 L 563.066406 842.207031 L 564.371094 835.71875 L 565.664062 830.191406 L 566.976562 825.363281 L 568.347656 820.960938 L 569.78125 816.625 L 571.21875 811.644531 L 572.566406 805.210938 L 573.773438 796.804688 L 574.9375 787.011719 L 576.183594 776.691406 L 577.644531 766.714844 L 579.257812 757.808594 L 580.179688 750.148438 L 579.375 743.773438 L 576.113281 738.625 L 570.898438 734.253906 L 564.53125 730.109375 L 557.820312 725.644531 L 551.453125 720.5 L 545.65625 715.058594 L 540.539062 709.902344 L 536.21875 705.597656 L 532.738281 702.441406 L 529.914062 699.628906 L 527.503906 696.070312 L 525.320312 690.992188 L 523.433594 684.902344 L 521.980469 678.632812 L 521.09375 673.011719 L 520.78125 668.613281 L 520.542969 664.996094 L 519.765625 661.472656 L 518.007812 657.523438 L 515.554688 653.339844 L 512.875 649.285156 L 510.445312 645.726562 L 508.589844 642.839844 L 507.105469 640.023438 L 505.648438 636.492188 L 503.980469 631.703125 L 502.246094 626.101562 L 500.714844 620.371094 L 499.636719 615.207031 L 499.089844 611.070312 L 498.4375 607.507812 L 496.867188 603.835938 L 493.832031 599.539062 L 489.902344 594.746094 L 485.90625 589.757812 L 482.6875 584.863281 L 480.785156 580.25 L 479.589844 575.695312 L 478.199219 570.851562 L 475.707031 565.390625 L 471.535156 559.144531 L 466.410156 552.648438 L 461.386719 546.617188 L 457.285156 541.589844 L 453.996094 537.46875 L 451.171875 533.984375 L 448.46875 530.867188 L 445.515625 527.867188 L 441.800781 524.777344 L 436.773438 521.421875 L 430.136719 517.675781 L 422.558594 513.691406 L 414.957031 509.6875 L 408.246094 505.886719 L 403.054688 502.433594 L 398.890625 499.203125 L 394.972656 495.984375 L 390.613281 492.644531 L 385.480469 489.265625 L 379.332031 486.007812 L 371.929688 483.011719 L 363.308594 480.414062 L 354.644531 478.25 L 347.410156 476.53125 L 342.644531 475.257812 L 339.769531 474.386719 L 337.78125 473.859375 L 335.6875 473.609375 L 332.117188 473.558594 L 324.226562 473.519531 L 308.796875 473.28125 L 282.609375 472.628906 L 278.390625 473.507812 "/>
<path style="fill:none;stroke-width:0.75;stroke-linecap:round;stroke-linejoin:round;stroke:rgb(0%,0%,0%);stroke-opacity:1;stroke-miterlimit:10;" d="M 777.3125 528.382812 L 772.15625 531.210938 L 765.21875 534.222656 L 757.703125 537.074219 L 750.675781 539.496094 L 744.65625 541.472656 L 740.035156 543.066406 L 737.003906 544.359375 L 734.960938 545.480469 L 733.109375 546.582031 L 730.777344 547.828125 L 727.773438 549.445312 L 724.03125 551.664062 L 719.480469 554.71875 L 714.03125 558.824219 L 707.488281 564.109375 L 699.632812 570.679688 L 690.445312 578.535156 L 680.699219 587.238281 L 671.382812 596.246094 L 663.289062 605.035156 L 656.535156 613.183594 L 651.058594 620.304688 L 646.765625 626.113281 L 643.457031 630.800781 L 640.914062 634.679688 L 638.90625 638.058594 L 637.210938 641.207031 L 635.585938 644.257812 L 633.785156 647.289062 L 631.664062 650.402344 L 629.472656 653.699219 L 627.5625 657.300781 L 626.15625 661.273438 L 625.003906 665.519531 L 623.726562 669.898438 L 622.050781 674.285156 L 620.105469 678.554688 L 618.109375 682.609375 L 616.289062 686.34375 L 614.773438 689.742188 L 613.292969 693.191406 L 611.476562 697.175781 L 609.089844 701.976562 L 606.375 707.113281 L 603.703125 711.914062 L 601.378906 715.859375 L 599.40625 719.109375 L 597.734375 721.992188 L 596.300781 724.832031 L 595.042969 727.882812 L 593.859375 731.136719 L 592.636719 734.511719 L 591.304688 738.007812 L 589.902344 741.925781 L 588.496094 746.644531 L 587.140625 752.394531 L 585.820312 758.84375 L 584.507812 765.5 L 583.179688 771.964844 L 581.832031 778.175781 L 580.476562 784.144531 L 579.125 789.894531 L 577.78125 795.429688 L 576.441406 800.71875 L 575.105469 805.710938 L 573.765625 810.394531 L 572.425781 814.929688 L 571.082031 819.507812 L 569.742188 824.292969 L 568.398438 829.265625 L 567.050781 834.386719 L 565.710938 839.648438 L 564.367188 845.222656 L 563.027344 851.335938 L 561.683594 858.207031 L 560.34375 865.871094 L 559.003906 873.617188 L 557.664062 880.558594 L 556.320312 886.058594 L 554.976562 890.539062 L 553.632812 894.6875 L 552.289062 899.042969 L 550.945312 903.621094 L 549.605469 908.285156 L 548.265625 912.902344 L 546.925781 917.347656 L 545.585938 921.492188 L 544.246094 925.214844 L 542.902344 928.445312 L 541.554688 931.320312 L 540.210938 934.039062 L 538.867188 936.765625 L 537.527344 939.566406 L 536.191406 942.472656 L 534.851562 945.523438 L 533.507812 948.726562 L 532.164062 952.097656 L 530.820312 955.636719 L 529.476562 959.367188 L 528.132812 963.324219 L 526.789062 967.5625 L 525.449219 972.128906 L 524.113281 977.046875 L 522.773438 982.339844 L 521.429688 987.953125 L 520.085938 993.507812 L 518.742188 998.535156 L 517.398438 1002.714844 L 516.054688 1006.28125 L 514.714844 1009.59375 L 513.375 1013.023438 L 512.035156 1016.808594 L 510.695312 1020.707031 L 509.351562 1024.351562 L 508.007812 1027.484375 L 506.667969 1030.3125 L 505.324219 1033.167969 L 503.980469 1036.324219 L 502.636719 1039.820312 L 501.292969 1043.65625 L 499.953125 1047.824219 L 498.613281 1052.359375 L 497.277344 1057.460938 L 495.933594 1063.363281 L 494.589844 1070.175781 L 493.242188 1077.4375 L 491.898438 1084.558594 L 490.558594 1091.066406 L 489.21875 1096.949219 L 487.878906 1102.328125 L 486.539062 1107.285156 L 485.195312 1111.847656 L 483.851562 1116.011719 L 482.507812 1119.78125 L 481.171875 1123.1875 L 479.832031 1126.398438 L 478.484375 1129.609375 L 477.132812 1132.96875 L 475.78125 1136.402344 L 474.445312 1139.785156 L 473.132812 1143.007812 L 471.820312 1146.03125 L 470.476562 1148.835938 L 469.082031 1151.453125 L 467.671875 1154.066406 L 466.300781 1156.90625 L 465.015625 1160.210938 L 463.835938 1164.003906 L 462.625 1167.480469 L 461.222656 1169.636719 L 459.542969 1170.378906 L 457.835938 1173.289062 L 456.429688 1182.851562 L 455.566406 1201.957031 L 455.1875 1227.039062 L 455.140625 1252.925781 L 455.28125 1274.445312 L 455.632812 1287.839844 L 456.886719 1295.054688 L 459.910156 1299.441406 L 465.242188 1303.769531 L 472.09375 1308.417969 L 479.347656 1313.183594 L 486.070312 1317.851562 L 492.027344 1322.230469 L 497.171875 1326.136719 L 501.613281 1329.496094 L 506.097656 1332.746094 L 511.519531 1336.441406 L 518.777344 1341.136719 L 528.097656 1347.085938 L 536.988281 1353.34375 L 542.289062 1358.660156 L 542.34375 1362.195312 L 541.585938 1364.695312 L 545.957031 1367.320312 L 559.808594 1370.8125 L 581.132812 1374.265625 L 606.324219 1376.359375 L 631.960938 1376.132812 L 655.3125 1374.03125 L 673.824219 1370.855469 L 684.945312 1367.414062 L 687.644531 1364.3125 L 687.015625 1361.402344 L 689.6875 1358.34375 L 700.300781 1354.835938 L 715.621094 1350.738281 L 730.445312 1345.949219 L 740.789062 1340.5 L 747.640625 1334.96875 L 753.203125 1330.058594 L 759.332031 1326.257812 L 766.445312 1323.101562 L 774.601562 1319.910156 L 783.855469 1315.992188 L 794.042969 1310.917969 L 804.101562 1305.273438 L 812.746094 1299.902344 L 819.171875 1295.433594 L 824.492188 1291.648438 L 830.304688 1288.117188 L 837.769531 1284.480469 L 846.378906 1280.714844 L 855.1875 1276.855469 L 863.25 1272.957031 L 869.816406 1269.085938 L 874.859375 1265.449219 L 878.535156 1262.261719 L 881.148438 1259.585938 L 883.59375 1256.835938 L 886.898438 1253.253906 L 891.792969 1248.332031 L 897.734375 1242.574219 L 903.875 1236.726562 L 909.53125 1231.371094 L 914.664062 1226.425781 L 919.414062 1221.632812 L 923.910156 1216.738281 L 928.257812 1211.539062 L 932.464844 1206 L 936.5 1200.136719 L 940.390625 1193.957031 L 944.320312 1187.460938 L 948.527344 1180.621094 L 953.09375 1173.546875 L 957.515625 1166.816406 L 961.152344 1161.128906 L 963.542969 1156.953125 L 964.957031 1153.835938 L 965.863281 1151.082031 L 966.722656 1148.011719 L 967.90625 1144.140625 L 969.441406 1139.816406 L 971.257812 1135.59375 L 973.28125 1131.878906 L 975.417969 1128.503906 L 977.5625 1125.152344 L 979.609375 1121.5625 L 981.414062 1117.671875 L 982.828125 1113.480469 L 983.707031 1108.984375 L 983.992188 1104.171875 L 984.03125 1098.992188 L 984.257812 1093.386719 L 985.027344 1087.351562 L 986.371094 1081.140625 L 988.238281 1075.0625 L 990.5 1069.367188 L 992.761719 1064.058594 L 994.558594 1059.070312 L 995.578125 1054.3125 L 996.152344 1049.574219 L 996.78125 1044.613281 L 997.949219 1039.1875 L 999.976562 1033.25 L 1002.5 1027.511719 L 1004.972656 1022.878906 L 1006.976562 1019.90625 L 1008.585938 1017.738281 L 1009.988281 1015.171875 L 1011.355469 1011.304688 L 1012.714844 1006.472656 L 1014.066406 1001.300781 L 1015.382812 996.277344 L 1016.582031 991.300781 L 1017.558594 986.113281 L 1018.203125 980.460938 L 1018.484375 974.195312 L 1018.671875 967.578125 L 1019.09375 960.96875 L 1020.039062 954.730469 L 1021.539062 949.226562 L 1023.578125 944.820312 L 1026.027344 941.753906 L 1028.324219 939.78125 L 1029.792969 938.542969 L 1029.757812 937.675781 L 1027.90625 936.734375 L 1025.351562 934.949219 L 1023.566406 931.460938 L 1023.605469 925.46875 L 1024.804688 916.355469 L 1026.089844 903.550781 L 1026.628906 886.972656 L 1026.617188 868.453125 L 1026.511719 850.316406 L 1026.6875 834.421875 L 1027.253906 820.796875 L 1028.257812 809.015625 L 1029.738281 798.644531 L 1031.628906 789.210938 L 1033.441406 780.074219 L 1034.578125 770.550781 L 1034.566406 760.296875 L 1033.429688 750.371094 L 1031.300781 742.183594 L 1028.363281 736.582031 L 1024.941406 732.214844 L 1021.40625 727.171875 L 1018.074219 720.082031 L 1015.101562 711.707031 L 1012.589844 703.339844 L 1010.652344 696.285156 L 1009.320312 691.40625 L 1008.335938 687.835938 L 1007.363281 684.289062 L 1006.144531 679.800781 L 1004.734375 674.71875 L 1003.269531 669.714844 L 1001.84375 665.3125 L 1000.390625 661.367188 L 998.816406 657.582031 L 997.011719 653.648438 L 994.945312 649.34375 L 992.824219 644.726562 L 990.929688 639.929688 L 989.453125 635.097656 L 988.285156 630.394531 L 987.234375 625.992188 L 986.097656 621.984375 L 984.65625 618.167969 L 982.671875 614.246094 L 980 610.015625 L 976.84375 605.550781 L 973.488281 600.992188 L 970.226562 596.496094 L 967.28125 592.1875 L 964.652344 588.101562 L 962.289062 584.257812 L 960.09375 580.6875 L 957.824219 577.507812 L 955.214844 574.867188 L 952.058594 572.777344 L 948.40625 570.765625 L 944.382812 568.226562 L 940.09375 564.722656 L 935.535156 560.453125 L 930.695312 555.769531 L 925.550781 551.035156 L 920.257812 546.582031 L 915.640625 542.636719 L 912.695312 539.398438 L 911.445312 536.992188 L 907.972656 535.183594 L 897.398438 533.664062 L 876.253906 532.179688 L 846.820312 530.746094 L 812.804688 529.425781 L 777.910156 528.300781 L 777.3125 528.382812 "/>
<path style="fill:none;stroke-width:0.75;stroke-linecap:round;stroke-linejoin:round;stroke:rgb(0%,0%,0%);stroke-opacity:1;stroke-miterlimit:10;" d="M 909.527344 515.363281 L 907.582031 517.769531 L 907.574219 520.175781 L 909.855469 522.652344 L 913.296875 525.441406 L 916.082031 528.855469 L 915.671875 532.78125 L 915.636719 536.902344 L 919.578125 540.730469 L 927.984375 544.34375 L 935.710938 548.164062 L 939.832031 552.308594 L 941.726562 557.121094 L 942.707031 562.359375 L 944.722656 566.964844 L 948.054688 570.621094 L 952.304688 573.582031 L 955.628906 575.902344 L 957.714844 577.625 L 959.003906 578.476562 L 961.105469 578.046875 L 963.097656 576.25 L 963.148438 573.488281 L 961.585938 570.332031 L 960.308594 566.917969 L 959.738281 562.96875 L 960.582031 558.039062 L 958.835938 551.945312 L 952.320312 545.230469 L 945.011719 538.640625 L 937.164062 532.480469 L 933.488281 527.464844 L 930.050781 523.597656 L 923.53125 520.359375 L 916.058594 517.261719 L 909.617188 514.371094 L 909.527344 515.363281 "/>
</g>
</svg>
