<?xml version="1.0" encoding="UTF-8"?>
<svg xmlns="http://www.w3.org/2000/svg" xmlns:xlink="http://www.w3.org/1999/xlink" width="1428pt" height="1605pt" viewBox="0 0 1428 1605" version="1.1">
<g id="surface229">
<rect x="0" y="0" width="1428" height="1605" style="fill:rgb(100%,100%,100%);fill-opacity:1;stroke:none;"/>
<path style="fill:none;stroke-width:0.75;stroke-linecap:round;stroke-linejoin:round;stroke:rgb(0%,0%,0%);stroke-opacity:1;stroke-miterlimit:10;" d="M 796.289062 410.539062 L 789.984375 415.335938 L 784.390625 421.628906 L 779.355469 428.582031 L 774.734375 435.351562 L 770.425781 441.28125 L 766.527344 446.414062 L 763.171875 450.964844 L 760.503906 455.160156 L 758.589844 459.175781 L 757.222656 463.042969 L 756.128906 466.746094 L 755.03125 470.277344 L 753.652344 473.617188 L 751.769531 476.785156 L 749.359375 479.875 L 746.453125 483.007812 L 743.082031 486.3125 L 739.3125 489.882812 L 735.34375 493.730469 L 731.414062 497.839844 L 727.761719 502.191406 L 724.621094 506.773438 L 722.160156 511.550781 L 720.234375 516.429688 L 718.628906 521.285156 L 717.128906 526 L 715.550781 530.5 L 713.816406 534.882812 L 711.882812 539.28125 L 709.714844 543.835938 L 707.265625 548.628906 L 704.527344 553.523438 L 701.492188 558.324219 L 698.152344 562.839844 L 694.5 566.878906 L 690.535156 570.324219 L 686.300781 573.359375 L 681.847656 576.238281 L 677.230469 579.226562 L 672.511719 582.535156 L 667.78125 586.230469 L 663.148438 590.332031 L 658.710938 594.855469 L 654.578125 599.824219 L 650.796875 605.238281 L 647.207031 610.988281 L 643.589844 616.964844 L 639.738281 623.035156 L 635.535156 629.070312 L 631.296875 634.890625 L 627.445312 640.304688 L 624.394531 645.117188 L 622.425781 649.269531 L 621.210938 653.175781 L 620.296875 657.390625 L 619.21875 662.460938 L 617.511719 668.929688 L 614.84375 677.109375 L 611.425781 686.398438 L 607.59375 695.941406 L 603.6875 704.902344 L 600.011719 712.609375 L 596.707031 719.109375 L 593.878906 724.621094 L 591.636719 729.363281 L 590.085938 733.558594 L 589.203125 737.308594 L 588.460938 740.25 L 587.203125 741.890625 L 584.773438 741.75 L 580.707031 739.523438 L 575.289062 735.648438 L 569 730.738281 L 562.316406 725.417969 L 555.671875 720.183594 L 549.320312 715.074219 L 543.472656 710.019531 L 538.34375 704.929688 L 534.140625 699.738281 L 530.992188 694.398438 L 528.699219 689.023438 L 526.972656 683.761719 L 525.527344 678.769531 L 524.128906 674.148438 L 522.738281 669.835938 L 521.363281 665.734375 L 520.007812 661.738281 L 518.6875 657.742188 L 517.398438 653.679688 L 516.121094 649.652344 L 514.816406 645.800781 L 513.457031 642.261719 L 512.027344 639.117188 L 510.578125 636.226562 L 509.167969 633.390625 L 507.863281 630.410156 L 506.691406 627.125 L 505.546875 623.554688 L 504.285156 619.757812 L 502.765625 615.785156 L 500.84375 611.695312 L 498.445312 607.539062 L 495.757812 603.34375 L 493.039062 599.125 L 490.546875 594.902344 L 488.460938 590.671875 L 486.679688 586.347656 L 485.035156 581.824219 L 483.351562 576.992188 L 481.457031 571.742188 L 479.175781 566.023438 L 476.304688 560 L 472.640625 553.902344 L 467.984375 547.953125 L 462.324219 542.367188 L 456.398438 537.363281 L 451.148438 533.136719 L 447.515625 529.902344 L 446.054688 527.738281 L 445.820312 526.234375 L 445.488281 524.855469 L 443.742188 523.0625 L 439.253906 520.324219 L 431.277344 516.304688 L 421.371094 511.453125 L 411.667969 506.425781 L 404.300781 501.878906 L 400.683594 498.28125 L 399.351562 495.394531 L 398.128906 492.78125 L 394.832031 490.023438 L 387.285156 486.695312 L 374.03125 482.554688 L 356.554688 478.128906 L 337.0625 474.125 L 317.765625 471.253906 L 300.480469 470.0625 L 285.480469 470.433594 L 272.648438 472.082031 L 261.867188 474.726562 L 253.023438 478.085938 L 245.886719 481.882812 L 239.789062 485.84375 L 233.957031 489.714844 L 227.617188 493.238281 L 220.226562 496.246094 L 212.226562 499.007812 L 204.289062 501.875 L 197.097656 505.214844 L 191.171875 509.265625 L 186.402344 513.757812 L 182.535156 518.308594 L 179.308594 522.527344 L 176.460938 526.03125 L 173.777344 528.621094 L 171.242188 530.847656 L 168.878906 533.453125 L 166.710938 537.1875 L 164.71875 542.550781 L 162.6875 549.082031 L 160.359375 556.09375 L 157.472656 562.886719 L 153.765625 568.769531 L 149.128906 573.242188 L 144.046875 576.613281 L 139.152344 579.398438 L 135.078125 582.097656 L 132.25 585.1875 L 130.210938 588.984375 L 128.3125 593.753906 L 125.890625 599.78125 L 122.464844 607.160156 L 118.285156 615.28125 L 113.785156 623.367188 L 109.390625 630.636719 L 105.535156 636.300781 L 102.507812 639.941406 L 100.011719 642.566406 L 97.605469 645.554688 L 94.859375 650.273438 L 91.46875 657.675781 L 87.707031 667.003906 L 83.96875 677.089844 L 80.671875 686.753906 L 78.210938 694.824219 L 76.867188 700.542969 L 76.398438 704.835938 L 76.429688 709.039062 L 76.59375 714.5 L 76.5625 722.167969 L 76.195312 731.425781 L 75.402344 741.269531 L 74.09375 750.699219 L 72.21875 758.949219 L 69.898438 766.246094 L 67.285156 773.046875 L 64.546875 779.824219 L 61.84375 787.042969 L 59.304688 795.089844 L 56.925781 804.066406 L 54.675781 813.992188 L 52.519531 824.894531 L 50.433594 836.621094 L 48.445312 848.332031 L 46.585938 859.019531 L 44.882812 867.664062 L 43.375 873.257812 L 42.09375 875.34375 L 41.082031 875.675781 L 40.375 876.554688 L 40.015625 880.292969 L 39.992188 888.46875 L 40.050781 899.761719 L 39.886719 912.128906 L 39.199219 923.527344 L 37.808594 932.378906 L 36.054688 938.984375 L 34.40625 944.121094 L 33.328125 948.5625 L 33.285156 953.078125 L 34.589844 958.238281 L 36.917969 963.800781 L 39.789062 969.328125 L 42.714844 974.371094 L 45.3125 978.617188 L 47.566406 982.253906 L 49.554688 985.605469 L 51.363281 988.988281 L 53.070312 992.71875 L 54.742188 997.070312 L 56.390625 1002.09375 L 58.023438 1007.796875 L 59.628906 1014.183594 L 61.230469 1021.183594 L 62.898438 1028.40625 L 64.71875 1035.390625 L 66.78125 1041.675781 L 69.136719 1046.917969 L 71.699219 1051.292969 L 74.34375 1055.089844 L 76.953125 1058.605469 L 79.40625 1062.132812 L 81.636719 1065.917969 L 83.8125 1069.984375 L 86.152344 1074.300781 L 88.882812 1078.839844 L 92.167969 1083.554688 L 95.941406 1088.359375 L 100.066406 1093.148438 L 104.417969 1097.816406 L 108.867188 1102.261719 L 113.28125 1106.402344 L 117.492188 1110.230469 L 121.320312 1113.761719 L 124.601562 1117.003906 L 127.222656 1120.003906 L 129.347656 1122.886719 L 131.195312 1125.804688 L 132.992188 1128.914062 L 134.96875 1132.367188 L 137.28125 1136.253906 L 139.867188 1140.421875 L 142.59375 1144.660156 L 145.328125 1148.746094 L 147.980469 1152.542969 L 150.628906 1156.195312 L 153.382812 1159.925781 L 156.359375 1163.953125 L 159.605469 1168.414062 L 162.890625 1173.082031 L 165.910156 1177.644531 L 168.359375 1181.789062 L 169.945312 1185.199219 L 170.53125 1187.710938 L 170.667969 1189.726562 L 171.066406 1191.789062 L 172.457031 1194.445312 L 175.332031 1198.097656 L 179.332031 1202.5625 L 183.878906 1207.511719 L 188.386719 1212.609375 L 192.277344 1217.535156 L 195.167969 1222.042969 L 197.457031 1226.253906 L 199.746094 1230.371094 L 202.632812 1234.605469 L 206.535156 1239.125 L 211.140625 1243.949219 L 215.945312 1249.066406 L 220.460938 1254.453125 L 224.316406 1260.066406 L 227.648438 1265.726562 L 230.71875 1271.222656 L 233.785156 1276.351562 L 237.121094 1280.898438 L 240.882812 1284.753906 L 244.835938 1288.203125 L 248.65625 1291.617188 L 252.007812 1295.378906 L 254.871094 1299.746094 L 258.496094 1304.46875 L 264.4375 1309.175781 L 274.257812 1313.496094 L 289.515625 1317.066406 L 311.089844 1319.539062 L 337.132812 1320.714844 L 365.121094 1320.417969 L 392.527344 1318.476562 L 417.1875 1314.957031 L 438.355469 1310.9375 L 455.652344 1307.738281 L 468.691406 1306.679688 L 477.425781 1308.691406 L 483.164062 1313.191406 L 487.554688 1319.195312 L 492.234375 1325.726562 L 498.847656 1331.8125 L 508.40625 1336.734375 L 519.347656 1340.816406 L 529.480469 1344.640625 L 536.613281 1348.792969 L 539.441406 1353.667969 L 540.230469 1358.960938 L 542.136719 1364.175781 L 548.328125 1368.820312 L 561.953125 1372.402344 L 584.785156 1374.539062 L 613.003906 1375.320312 L 641.402344 1374.945312 L 664.777344 1373.613281 L 679.359375 1371.507812 L 687.15625 1368.757812 L 691.621094 1365.484375 L 696.195312 1361.800781 L 703.570312 1357.8125 L 713.355469 1353.613281 L 724.402344 1349.273438 L 735.566406 1344.878906 L 745.6875 1340.5 L 753.972656 1336.199219 L 760.992188 1331.9375 L 767.675781 1327.65625 L 774.949219 1323.289062 L 783.472656 1318.804688 L 792.859375 1314.242188 L 802.460938 1309.664062 L 811.625 1305.140625 L 819.699219 1300.726562 L 826.289062 1296.476562 L 832.03125 1292.351562 L 837.804688 1288.308594 L 844.5 1284.292969 L 852.671875 1280.28125 L 861.582031 1276.339844 L 870.152344 1272.5625 L 877.316406 1269.03125 L 882.308594 1265.789062 L 885.582031 1262.6875 L 887.898438 1259.523438 L 890.023438 1256.101562 L 892.710938 1252.21875 L 896.539062 1247.722656 L 901.324219 1242.65625 L 906.691406 1237.113281 L 912.269531 1231.179688 L 917.742188 1224.953125 L 923.015625 1218.546875 L 928.058594 1212.089844 L 932.835938 1205.699219 L 937.308594 1199.503906 L 941.460938 1193.578125 L 945.332031 1187.835938 L 948.984375 1182.144531 L 952.480469 1176.367188 L 955.847656 1170.425781 L 959.023438 1164.457031 L 961.914062 1158.648438 L 964.429688 1153.191406 L 966.53125 1148.21875 L 968.398438 1143.625 L 970.269531 1139.257812 L 972.375 1134.960938 L 974.949219 1130.574219 L 978.101562 1125.996094 L 981.425781 1121.367188 L 984.394531 1116.878906 L 986.476562 1112.71875 L 987.320312 1109.003906 L 987.242188 1105.515625 L 986.746094 1101.953125 L 986.332031 1098.023438 L 986.488281 1093.425781 L 987.566406 1087.976562 L 989.296875 1081.929688 L 991.269531 1075.65625 L 993.066406 1069.53125 L 994.359375 1063.863281 L 995.214844 1058.742188 L 995.773438 1054.195312 L 996.1875 1050.25 L 996.613281 1046.9375 L 997.210938 1044.164062 L 998.226562 1041.386719 L 999.917969 1037.933594 L 1002.542969 1033.140625 L 1006.210938 1026.566406 L 1010.414062 1018.703125 L 1014.496094 1010.261719 L 1017.804688 1001.964844 L 1019.855469 994.363281 L 1020.859375 987.398438 L 1021.214844 980.84375 L 1021.300781 974.480469 L 1021.511719 968.078125 L 1022.128906 961.570312 L 1023.042969 955.484375 L 1024.027344 950.503906 L 1024.859375 947.304688 L 1025.390625 946.019531 L 1025.707031 944.59375 L 1025.964844 940.417969 L 1026.328125 930.882812 L 1026.949219 913.382812 L 1027.929688 886.699219 L 1029.148438 855.164062 L 1030.429688 824.5 L 1031.597656 800.421875 L 1032.523438 787.054688 L 1033.261719 782.144531 L 1033.910156 781.828125 L 1034.582031 782.253906 L 1035.324219 780.324219 L 1036.027344 775.964844 L 1036.527344 769.863281 L 1036.660156 762.703125 L 1036.269531 755.171875 L 1035.238281 747.859375 L 1033.632812 740.980469 L 1031.566406 734.65625 L 1029.15625 729.011719 L 1026.503906 724.058594 L 1023.6875 719.402344 L 1020.78125 714.542969 L 1017.847656 708.984375 L 1014.960938 702.222656 L 1012.1875 694.007812 L 1009.617188 685.082031 L 1007.335938 676.4375 L 1005.429688 669.0625 L 1003.941406 663.664062 L 1002.753906 659.816406 L 1001.703125 656.820312 L 1000.632812 653.960938 L 999.417969 650.683594 L 998.066406 647.023438 L 996.636719 643.167969 L 995.167969 639.296875 L 993.714844 635.59375 L 992.316406 632.183594 L 990.972656 628.945312 L 989.667969 625.6875 L 988.394531 622.234375 L 987.136719 618.460938 L 985.875 614.5 L 984.589844 610.558594 L 983.253906 606.835938 L 981.851562 603.527344 L 980.359375 600.746094 L 978.773438 598.203125 L 977.101562 595.53125 L 975.34375 592.355469 L 973.511719 588.414062 L 971.667969 583.886719 L 969.886719 579.066406 L 968.242188 574.253906 L 966.773438 569.671875 L 965.421875 565.289062 L 964.101562 561.011719 L 962.71875 556.734375 L 961.1875 552.363281 L 959.390625 547.835938 L 957.117188 543.25 L 954.121094 538.742188 L 950.167969 534.453125 L 945.117188 530.453125 L 939.242188 526.605469 L 932.921875 522.710938 L 926.535156 518.566406 L 920.460938 513.972656 L 914.9375 508.796875 L 909.660156 503.171875 L 904.179688 497.289062 L 898.046875 491.347656 L 891.054688 485.546875 L 883.921875 480.113281 L 877.59375 475.273438 L 873.027344 471.261719 L 870.886719 468.210938 L 870.660156 465.867188 L 871.558594 463.890625 L 872.785156 461.933594 L 873.542969 459.652344 L 873.210938 456.769531 L 871.871094 453.296875 L 869.792969 449.304688 L 867.226562 444.871094 L 864.394531 440.097656 L 861.355469 435.15625 L 858.136719 430.246094 L 854.75 425.570312 L 851.214844 421.324219 L 847.515625 417.691406 L 843.433594 414.78125 L 838.726562 412.695312 L 833.140625 411.523438 L 826.539062 411.273438 L 819.28125 411.558594 L 811.835938 411.90625 L 804.675781 411.832031 L 798.277344 410.863281 L 796.289062 410.539062 "/>
<path style="fill:none;stroke-width:0.75;stroke-linecap:round;stroke-linejoin:round;stroke:rgb(0%,0%,0%);stroke-opacity:1;stroke-miterlimit:10;" d="M 286.140625 469.113281 L 276.261719 471.894531 L 265.503906 474.996094 L 255.035156 478.476562 L 245.8125 482.316406 L 238.003906 486.230469 L 231.585938 489.855469 L 226.324219 492.953125 L 221.207031 495.765625 L 215.023438 498.660156 L 207 501.925781 L 198.105469 505.585938 L 189.761719 509.589844 L 183.367188 513.882812 L 179.871094 518.339844 L 178.335938 522.515625 L 177.367188 525.886719 L 175.800781 528.1875 L 173.46875 530.25 L 170.4375 533.160156 L 166.875 537.714844 L 163.328125 543.519531 L 160.433594 549.894531 L 158.566406 556.226562 L 157.050781 562.25 L 154.941406 567.785156 L 151.296875 572.636719 L 145.628906 576.683594 L 139.253906 580.011719 L 133.941406 582.757812 L 130.953125 585.21875 L 129.484375 588.269531 L 128.21875 592.945312 L 126.082031 599.886719 L 122.949219 608.167969 L 118.9375 616.484375 L 114.25 623.761719 L 109.40625 629.871094 L 105.015625 634.925781 L 101.679688 639.027344 L 99.703125 642.457031 L 98.179688 646.183594 L 95.90625 651.339844 L 92.066406 658.695312 L 87.402344 667.519531 L 83.050781 676.734375 L 79.914062 685.398438 L 77.980469 693.222656 L 77 700.082031 L 76.730469 705.835938 L 76.894531 710.609375 L 77.082031 715.492188 L 76.847656 721.835938 L 75.902344 730.507812 L 74.527344 740.523438 L 73.15625 750.414062 L 72.046875 759.042969 L 70.789062 766.566406 L 68.789062 773.460938 L 65.667969 780.195312 L 61.902344 787.1875 L 58.179688 794.851562 L 55.1875 803.597656 L 53.382812 813.703125 L 52.328125 824.925781 L 51.363281 836.882812 L 49.949219 848.988281 L 48.019531 859.824219 L 45.636719 867.75 L 42.976562 871.769531 L 40.613281 873.410156 L 39.234375 874.832031 L 39.285156 877.855469 L 40.234375 882.886719 L 41.316406 889.992188 L 41.753906 899.230469 L 40.988281 910.359375 L 39.28125 921.914062 L 37.109375 932.121094 L 34.949219 939.683594 L 33.308594 945.144531 L 32.710938 949.519531 L 33.503906 953.691406 L 35.371094 957.980469 L 37.828125 962.59375 L 40.390625 967.714844 L 42.683594 973.382812 L 44.785156 978.984375 L 46.890625 983.753906 L 49.125 987.183594 L 51.367188 989.84375 L 53.433594 992.574219 L 55.1875 996.101562 L 56.699219 1000.746094 L 58.097656 1006.703125 L 59.496094 1014.003906 L 60.980469 1021.988281 L 62.640625 1029.816406 L 64.554688 1036.648438 L 66.777344 1041.910156 L 69.238281 1046.089844 L 71.835938 1049.945312 L 74.46875 1054.066406 L 77.039062 1058.382812 L 79.449219 1062.648438 L 81.652344 1066.703125 L 83.816406 1070.644531 L 86.15625 1074.65625 L 88.867188 1078.871094 L 92.015625 1083.296875 L 95.648438 1087.898438 L 99.804688 1092.648438 L 104.449219 1097.480469 L 109.234375 1102.234375 L 113.71875 1106.722656 L 117.582031 1110.769531 L 120.949219 1114.316406 L 124.046875 1117.328125 L 127.03125 1119.839844 L 129.785156 1122.203125 L 132.105469 1124.855469 L 133.800781 1128.21875 L 134.859375 1132.542969 L 136.042969 1137.28125 L 138.296875 1141.703125 L 142.15625 1145.300781 L 146.542969 1148.402344 L 149.964844 1151.558594 L 151.476562 1155.214844 L 152.273438 1159.398438 L 154.097656 1164.019531 L 158.136719 1168.945312 L 163.363281 1173.851562 L 168.1875 1178.347656 L 171.023438 1182.058594 L 170.894531 1184.757812 L 169.214844 1186.886719 L 168 1189.042969 L 168.855469 1191.71875 L 171.683594 1194.96875 L 175.976562 1198.738281 L 181.136719 1202.964844 L 186.210938 1207.507812 L 190.160156 1212.21875 L 192.316406 1216.957031 L 193.496094 1221.65625 L 194.878906 1226.261719 L 197.65625 1230.714844 L 202.542969 1235.019531 L 208.421875 1239.363281 L 213.707031 1243.992188 L 217.273438 1249.074219 L 219.8125 1254.484375 L 222.484375 1260.019531 L 226.140625 1265.5 L 230.453125 1270.816406 L 234.800781 1275.886719 L 238.558594 1280.625 L 241.371094 1284.960938 L 243.941406 1288.933594 L 247.238281 1292.589844 L 251.863281 1296.035156 L 256.957031 1299.554688 L 261.296875 1303.476562 L 264.652344 1307.992188 L 270.816406 1312.691406 L 284.566406 1317.007812 L 308.917969 1320.398438 L 339.792969 1322.34375 L 371.335938 1322.328125 L 397.703125 1319.839844 L 414.582031 1314.65625 L 423.84375 1307.679688 L 428.898438 1300.101562 L 432.582031 1292.953125 L 435.464844 1286.605469 L 437.539062 1281.261719 L 438.867188 1277.019531 L 439.789062 1273.519531 L 440.703125 1270.304688 L 441.925781 1267.027344 L 443.390625 1263.863281 L 444.949219 1261.101562 L 446.445312 1259.035156 L 447.769531 1257.519531 L 448.992188 1254.640625 L 450.226562 1248.039062 L 451.558594 1236.210938 L 452.960938 1221.03125 L 454.359375 1205.230469 L 455.710938 1191.15625 L 457.027344 1179.648438 L 458.34375 1171.171875 L 459.675781 1165.917969 L 461.027344 1163.023438 L 462.382812 1161.351562 L 463.734375 1159.769531 L 465.074219 1157.390625 L 466.40625 1154.34375 L 467.738281 1151 L 469.082031 1147.664062 L 470.429688 1144.367188 L 471.777344 1141.058594 L 473.121094 1137.707031 L 474.464844 1134.332031 L 475.804688 1130.976562 L 477.140625 1127.664062 L 478.480469 1124.402344 L 479.820312 1121.03125 L 481.164062 1117.367188 L 482.507812 1113.273438 L 483.855469 1108.84375 L 485.199219 1104.238281 L 486.539062 1099.53125 L 487.878906 1094.527344 L 489.21875 1088.953125 L 490.558594 1082.644531 L 491.898438 1075.832031 L 493.242188 1068.859375 L 494.585938 1062.066406 L 495.929688 1055.769531 L 497.277344 1050.183594 L 498.621094 1045.511719 L 499.957031 1041.824219 L 501.292969 1038.726562 L 502.632812 1035.691406 L 503.976562 1032.3125 L 505.320312 1028.582031 L 506.667969 1024.613281 L 508.011719 1020.527344 L 509.351562 1016.511719 L 510.691406 1012.773438 L 512.035156 1009.519531 L 513.375 1006.804688 L 514.714844 1004.109375 L 516.054688 1000.773438 L 517.398438 996.316406 L 518.742188 991.039062 L 520.085938 985.433594 L 521.429688 979.925781 L 522.773438 974.65625 L 524.113281 969.699219 L 525.453125 965.128906 L 526.792969 960.976562 L 528.132812 957.117188 L 529.472656 953.382812 L 530.816406 949.652344 L 532.164062 945.933594 L 533.511719 942.285156 L 534.851562 938.757812 L 536.191406 935.382812 L 537.53125 932.195312 L 538.867188 929.195312 L 540.210938 926.289062 L 541.550781 923.34375 L 542.898438 920.230469 L 544.242188 916.859375 L 545.589844 913.226562 L 546.929688 909.367188 L 548.269531 905.335938 L 549.601562 901.246094 L 550.941406 897.242188 L 552.289062 893.363281 L 553.636719 889.28125 L 554.984375 884.578125 L 556.324219 878.933594 L 557.65625 872.449219 L 558.992188 865.328125 L 560.339844 857.765625 L 561.691406 850.019531 L 563.046875 842.535156 L 564.386719 835.8125 L 565.703125 830.183594 L 567.015625 825.375 L 568.355469 820.953125 L 569.738281 816.464844 L 571.128906 811.394531 L 572.5 805.214844 L 573.808594 797.394531 L 575.046875 787.632812 L 576.324219 776.550781 L 577.78125 765.015625 L 579.273438 753.847656 L 579.5 743.753906 L 576.875 735.414062 L 570.464844 729.21875 L 561.917969 724.449219 L 553.535156 720.109375 L 547.117188 715.386719 L 542.457031 710.269531 L 538.847656 704.917969 L 535.578125 699.511719 L 532.152344 694.1875 L 528.890625 688.980469 L 526.324219 683.890625 L 524.792969 678.933594 L 523.894531 674.183594 L 523.027344 669.726562 L 521.75 665.613281 L 520.183594 661.691406 L 518.609375 657.777344 L 517.230469 653.742188 L 515.996094 649.695312 L 514.796875 645.8125 L 513.503906 642.269531 L 512.058594 639.160156 L 510.566406 636.3125 L 509.183594 633.464844 L 508.015625 630.414062 L 506.902344 627.082031 L 505.628906 623.441406 L 504.039062 619.503906 L 502.207031 615.417969 L 500.265625 611.371094 L 498.34375 607.554688 L 496.488281 604.03125 L 494.40625 600.359375 L 491.722656 595.980469 L 488.296875 590.578125 L 484.949219 584.84375 L 482.742188 579.722656 L 482.289062 575.800781 L 482.394531 572.230469 L 481.421875 567.820312 L 478.152344 561.734375 L 473.046875 554.582031 L 466.988281 547.351562 L 460.863281 541.019531 L 455.453125 536.324219 L 451.15625 533.015625 L 448.273438 530.601562 L 446.871094 528.632812 L 446.078125 526.792969 L 444.796875 524.820312 L 442.09375 522.453125 L 437.738281 519.539062 L 431.671875 515.925781 L 424.003906 511.582031 L 415.523438 506.886719 L 407.183594 502.328125 L 399.945312 498.394531 L 394.570312 495.378906 L 391.070312 492.78125 L 389.257812 489.902344 L 388.074219 486.253906 L 382.914062 482.1875 L 368.292969 478.269531 L 341.496094 474.949219 L 310.851562 472.277344 L 287.464844 470.199219 L 282.425781 468.652344 L 286.140625 469.113281 "/>
<path style="fill:none;stroke-width:0.75;stroke-linecap:round;stroke-linejoin:round;stroke:rgb(0%,0%,0%);stroke-opacity:1;stroke-miterlimit:10;" d="M 776.984375 528.441406 L 772.539062 530.953125 L 765.523438 534.128906 L 757.667969 537.234375 L 750.464844 539.695312 L 744.453125 541.5625 L 739.925781 543.054688 L 736.996094 544.351562 L 735.027344 545.542969 L 733.199219 546.6875 L 730.820312 547.890625 L 727.75 549.417969 L 723.984375 551.566406 L 719.488281 554.613281 L 714.085938 558.707031 L 707.5625 563.960938 L 699.710938 570.492188 L 690.519531 578.316406 L 680.75 587.042969 L 671.367188 596.1875 L 663.171875 605.242188 L 656.332031 613.644531 L 650.855469 620.8125 L 646.695312 626.359375 L 643.574219 630.675781 L 641.152344 634.335938 L 639.121094 637.820312 L 637.28125 641.1875 L 635.453125 644.398438 L 633.515625 647.449219 L 631.523438 650.472656 L 629.582031 653.644531 L 627.800781 657.132812 L 626.246094 661.058594 L 624.835938 665.339844 L 623.453125 669.84375 L 621.984375 674.425781 L 620.359375 678.871094 L 618.53125 682.953125 L 616.492188 686.511719 L 614.414062 689.640625 L 612.539062 692.503906 L 611.019531 695.230469 L 609.773438 697.890625 L 608.636719 700.519531 L 607.453125 703.164062 L 606.109375 705.847656 L 604.667969 708.558594 L 603.230469 711.265625 L 601.875 713.945312 L 600.574219 716.601562 L 599.28125 719.246094 L 597.949219 721.894531 L 596.589844 724.636719 L 595.230469 727.570312 L 593.882812 730.777344 L 592.546875 734.292969 L 591.210938 738.140625 L 589.871094 742.351562 L 588.527344 747.027344 L 587.179688 752.289062 L 585.835938 758.253906 L 584.5 764.925781 L 583.164062 771.886719 L 581.824219 778.605469 L 580.476562 784.667969 L 579.128906 790.183594 L 577.78125 795.390625 L 576.441406 800.476562 L 575.105469 805.464844 L 573.769531 810.335938 L 572.429688 815.085938 L 571.082031 819.765625 L 569.734375 824.433594 L 568.390625 829.167969 L 567.050781 834.097656 L 565.707031 839.371094 L 564.367188 845.136719 L 563.03125 851.492188 L 561.691406 858.386719 L 560.347656 865.722656 L 559.003906 873.292969 L 557.65625 880.492188 L 556.3125 886.609375 L 554.972656 891.203125 L 553.632812 894.898438 L 552.292969 898.601562 L 550.953125 902.992188 L 549.613281 907.898438 L 548.269531 912.917969 L 546.925781 917.664062 L 545.578125 921.824219 L 544.234375 925.410156 L 542.890625 928.519531 L 541.554688 931.273438 L 540.21875 933.871094 L 538.878906 936.546875 L 537.535156 939.464844 L 536.1875 942.5625 L 534.839844 945.71875 L 533.5 948.851562 L 532.160156 952.058594 L 530.820312 955.480469 L 529.484375 959.222656 L 528.140625 963.289062 L 526.796875 967.640625 L 525.453125 972.246094 L 524.109375 977.089844 L 522.761719 982.203125 L 521.421875 987.632812 L 520.082031 993.316406 L 518.746094 998.753906 L 517.410156 1003.328125 L 516.0625 1006.679688 L 514.714844 1009.433594 L 513.367188 1012.464844 L 512.027344 1016.386719 L 510.6875 1020.722656 L 509.351562 1024.742188 L 508.011719 1027.914062 L 506.667969 1030.511719 L 505.328125 1033.019531 L 503.980469 1035.921875 L 502.636719 1039.566406 L 501.292969 1043.746094 L 499.949219 1048.128906 L 498.609375 1052.515625 L 497.273438 1057.289062 L 495.933594 1062.972656 L 494.59375 1069.867188 L 493.246094 1077.398438 L 491.902344 1084.773438 L 490.558594 1091.363281 L 489.214844 1097.183594 L 487.875 1102.410156 L 486.535156 1107.222656 L 485.195312 1111.753906 L 483.855469 1115.980469 L 482.515625 1119.820312 L 481.171875 1123.253906 L 479.828125 1126.429688 L 478.480469 1129.554688 L 477.132812 1132.792969 L 475.789062 1136.167969 L 474.453125 1139.664062 L 473.128906 1143.214844 L 471.800781 1146.546875 L 470.457031 1149.328125 L 469.085938 1151.402344 L 467.707031 1153.328125 L 466.351562 1155.832031 L 465.035156 1159.644531 L 463.773438 1164.96875 L 462.5 1169.902344 L 461.128906 1172.015625 L 459.621094 1170.425781 L 458.097656 1170.382812 L 456.71875 1178.683594 L 455.628906 1199.667969 L 454.886719 1227.820312 L 454.519531 1255.171875 L 454.65625 1275.414062 L 455.785156 1288.875 L 458.484375 1297.558594 L 463.121094 1303.308594 L 469.222656 1307.378906 L 476.101562 1310.882812 L 483.074219 1314.929688 L 489.585938 1320.253906 L 495.613281 1326.15625 L 501.265625 1331.558594 L 506.828125 1335.742188 L 513.292969 1339.371094 L 521.839844 1343.464844 L 532.851562 1348.722656 L 543.535156 1354.597656 L 550.296875 1360.214844 L 551.222656 1364.882812 L 551.042969 1368.59375 L 556.144531 1371.515625 L 572.929688 1373.820312 L 604.644531 1375.527344 L 641.953125 1376.117188 L 672.375 1374.921875 L 686.855469 1371.625 L 690.078125 1367.285156 L 690.148438 1363.308594 L 693.652344 1360.65625 L 701.097656 1358.527344 L 711.46875 1355.679688 L 723.636719 1351.222656 L 736.042969 1345.691406 L 747.011719 1339.984375 L 755.351562 1334.820312 L 761.851562 1330.289062 L 767.789062 1326.3125 L 774.441406 1322.8125 L 782.730469 1319.613281 L 792.199219 1316.128906 L 802.042969 1311.6875 L 811.503906 1305.925781 L 820.039062 1299.765625 L 827.148438 1294.445312 L 832.671875 1290.8125 L 837.769531 1288.128906 L 843.925781 1285.257812 L 852.125 1281.375 L 861.355469 1276.886719 L 870.082031 1272.5 L 877.089844 1268.761719 L 882.367188 1265.527344 L 886.210938 1262.488281 L 888.914062 1259.335938 L 890.863281 1255.820312 L 892.808594 1251.941406 L 895.597656 1247.757812 L 899.859375 1243.257812 L 905.375 1238.144531 L 911.710938 1232.046875 L 918.382812 1224.824219 L 924.726562 1217.242188 L 930.035156 1210.292969 L 933.855469 1204.675781 L 936.753906 1199.917969 L 939.554688 1195.246094 L 943.09375 1189.882812 L 947.867188 1183.316406 L 953.097656 1176.074219 L 957.6875 1168.9375 L 960.8125 1162.5625 L 962.773438 1157.128906 L 964.152344 1152.679688 L 965.480469 1149.105469 L 967.089844 1145.65625 L 969.273438 1141.414062 L 972.203125 1135.800781 L 975.585938 1129.609375 L 979.015625 1123.964844 L 982.113281 1119.695312 L 984.640625 1116.441406 L 986.386719 1113.546875 L 987.140625 1110.359375 L 986.871094 1106.394531 L 986.195312 1101.902344 L 985.917969 1097.300781 L 986.621094 1092.855469 L 988.050781 1088.136719 L 989.753906 1082.570312 L 991.34375 1075.859375 L 992.761719 1068.882812 L 994.015625 1062.820312 L 995.109375 1058.480469 L 995.980469 1055.199219 L 996.550781 1051.949219 L 996.828125 1047.960938 L 997.160156 1043.507812 L 997.972656 1039.121094 L 999.6875 1035.328125 L 1002.574219 1032.285156 L 1006.277344 1028.582031 L 1010.28125 1022.449219 L 1014.109375 1012.828125 L 1017.421875 1001.648438 L 1019.921875 991.550781 L 1021.402344 984.480469 L 1022.035156 979.507812 L 1022.085938 974.980469 L 1021.835938 969.601562 L 1021.609375 963.484375 L 1021.75 957.085938 L 1022.59375 950.859375 L 1024.28125 945.367188 L 1026.152344 941.597656 L 1027.355469 940.625 L 1027.324219 941.949219 L 1026.65625 938.691406 L 1026.234375 922.378906 L 1026.742188 888.332031 L 1028.058594 847.015625 L 1029.863281 812.675781 L 1031.816406 795.757812 L 1033.527344 791.460938 L 1034.582031 791.183594 L 1034.738281 788.074219 L 1034.398438 782.273438 L 1034.148438 775.6875 L 1034.554688 770.207031 L 1035.902344 767 L 1037.328125 764.257812 L 1037.65625 759.441406 L 1036.105469 750.929688 L 1033.375 740.789062 L 1030.542969 732 L 1028.390625 726.695312 L 1026.566406 723.632812 L 1024.417969 720.734375 L 1021.484375 716.285156 L 1018.074219 710.085938 L 1014.675781 702.308594 L 1011.699219 693.285156 L 1009.191406 683.925781 L 1007.128906 675.292969 L 1005.480469 668.449219 L 1004.183594 664.046875 L 1003.078125 661.113281 L 1001.96875 658.261719 L 1000.703125 654.453125 L 999.308594 650.042969 L 997.84375 645.734375 L 996.378906 642.066406 L 994.964844 638.898438 L 993.65625 635.929688 L 992.476562 632.910156 L 991.34375 629.796875 L 990.140625 626.605469 L 988.753906 623.34375 L 987.054688 619.972656 L 984.84375 616.273438 L 981.902344 611.984375 L 978.210938 607.027344 L 974.496094 602.066406 L 971.675781 597.96875 L 970.308594 595.246094 L 969.546875 593.046875 L 968.183594 590.175781 L 965.332031 585.828125 L 961.339844 580.789062 L 956.886719 576.230469 L 952.511719 572.992188 L 948.269531 570.613281 L 944.089844 568.296875 L 939.898438 565.253906 L 935.597656 560.941406 L 930.976562 555.84375 L 925.789062 550.703125 L 920.078125 546.140625 L 914.988281 542.324219 L 911.964844 539.304688 L 911.277344 537.0625 L 908.601562 535.335938 L 898.441406 533.800781 L 876.941406 532.210938 L 846.757812 530.664062 L 812.191406 529.34375 L 777.523438 528.433594 L 776.984375 528.441406 "/>
<path style="fill:none;stroke-width:0.75;stroke-linecap:round;stroke-linejoin:round;stroke:rgb(0%,0%,0%);stroke-opacity:1;stroke-miterlimit:10;" d="M 579.800781 534.238281 L 577.121094 536.726562 L 577.117188 539.097656 L 579.804688 541.332031 L 585.171875 543.804688 L 590.539062 547.21875 L 590.53125 551.382812 L 582.492188 555.855469 L 577.113281 559.878906 L 571.75 563.785156 L 577.132812 567.242188 L 595.886719 569.820312 L 598.601562 572.082031 L 598.585938 574.257812 L 595.925781 576.214844 L 587.773438 577.960938 L 585.382812 579.90625 L 584.882812 581.949219 L 588.074219 583.925781 L 595.8125 585.957031 L 598.617188 588.972656 L 598.578125 593.324219 L 593.234375 598.433594 L 593.214844 603.414062 L 590.539062 607.5 L 595.914062 610.089844 L 611.996094 610.355469 L 617.382812 608.78125 L 620.058594 606.8125 L 622.75 604.6875 L 630.800781 601.996094 L 636.144531 598.085938 L 630.855469 593.464844 L 630.679688 589.179688 L 633.636719 585.984375 L 638.738281 583.292969 L 644.257812 580.363281 L 644.214844 577.144531 L 646.890625 573.527344 L 641.546875 569.355469 L 641.523438 564.949219 L 633.480469 560.753906 L 622.75 557.636719 L 620.0625 555.167969 L 620.046875 553 L 622.777344 551.113281 L 649.554688 549.355469 L 652.28125 547.101562 L 652.273438 544.203125 L 646.871094 541.023438 L 633.550781 538.160156 L 628.042969 535.59375 L 579.832031 533.359375 L 579.800781 534.238281 "/>
</g>
</svg>
