<?xml version="1.0" encoding="UTF-8"?>
<svg xmlns="http://www.w3.org/2000/svg" xmlns:xlink="http://www.w3.org/1999/xlink" width="1428pt" height="1605pt" viewBox="0 0 1428 1605" version="1.1">
<g id="surface234">
<rect x="0" y="0" width="1428" height="1605" style="fill:rgb(100%,100%,100%);fill-opacity:1;stroke:none;"/>
<path style="fill:none;stroke-width:0.75;stroke-linecap:round;stroke-linejoin:round;stroke:rgb(0%,0%,0%);stroke-opacity:1;stroke-miterlimit:10;" d="M 770.015625 384.261719 L 764.9375 386.007812 L 760.101562 387.3125 L 755.796875 388.558594 L 752.320312 390.109375 L 749.871094 392.320312 L 748.21875 395.40625 L 747.035156 399.550781 L 745.996094 404.953125 L 744.769531 411.789062 L 743.128906 420.085938 L 741.226562 429.203125 L 739.324219 438.316406 L 737.667969 446.625 L 736.523438 453.308594 L 736.050781 457.808594 L 736.074219 460.59375 L 736.328125 462.378906 L 736.539062 463.878906 L 736.441406 465.808594 L 735.832031 468.707031 L 734.734375 472.375 L 733.238281 476.441406 L 731.433594 480.53125 L 729.402344 484.261719 L 727.242188 487.386719 L 725.058594 490.140625 L 722.96875 492.878906 L 721.085938 495.960938 L 719.523438 499.746094 L 718.339844 504.457031 L 717.382812 509.804688 L 716.441406 515.355469 L 715.304688 520.683594 L 713.765625 525.359375 L 711.683594 529.085938 L 709.167969 532.082031 L 706.410156 534.703125 L 703.585938 537.296875 L 700.886719 540.210938 L 698.441406 543.707031 L 696.183594 547.664062 L 693.992188 551.855469 L 691.746094 556.074219 L 689.328125 560.101562 L 686.640625 563.769531 L 683.695312 567.125 L 680.515625 570.257812 L 677.132812 573.269531 L 673.578125 576.253906 L 669.90625 579.222656 L 666.273438 581.875 L 662.871094 583.8125 L 659.882812 584.65625 L 657.492188 584.015625 L 655.847656 581.632812 L 654.921875 577.792969 L 654.640625 572.914062 L 654.941406 567.410156 L 655.746094 561.703125 L 656.9375 556.148438 L 658.160156 550.867188 L 658.992188 545.929688 L 659.03125 541.390625 L 657.859375 537.320312 L 655.230469 533.738281 L 651.539062 530.515625 L 647.347656 527.46875 L 643.214844 524.425781 L 639.699219 521.214844 L 637.171875 517.722656 L 635.222656 514.136719 L 633.257812 510.695312 L 630.679688 507.652344 L 626.890625 505.253906 L 621.53125 503.695312 L 615.214844 502.953125 L 608.796875 502.953125 L 603.125 503.609375 L 599.054688 504.851562 L 597.160156 506.59375 L 596.882812 508.726562 L 597.386719 511.140625 L 597.828125 513.714844 L 597.378906 516.339844 L 595.410156 518.914062 L 592.152344 521.40625 L 588.058594 523.792969 L 583.574219 526.058594 L 579.144531 528.183594 L 575.152344 530.167969 L 571.714844 532.09375 L 568.890625 534.066406 L 566.730469 536.183594 L 565.289062 538.550781 L 564.59375 541.242188 L 564.539062 544.246094 L 565.007812 547.507812 L 565.867188 550.988281 L 566.996094 554.644531 L 568.257812 558.417969 L 569.507812 562.203125 L 570.597656 565.886719 L 571.375 569.347656 L 571.699219 572.476562 L 571.460938 575.175781 L 570.769531 577.453125 L 569.785156 579.347656 L 568.667969 580.886719 L 567.566406 582.109375 L 566.660156 583.113281 L 566.199219 584.285156 L 566.441406 586.085938 L 567.652344 588.960938 L 570.097656 593.371094 L 573.964844 599.507812 L 579.148438 606.53125 L 585.476562 613.339844 L 592.765625 618.828125 L 600.84375 621.890625 L 609.429688 621.839844 L 617.886719 619.644531 L 625.46875 616.683594 L 631.4375 614.339844 L 635.050781 613.988281 L 635.832031 616.609375 L 634.363281 621.542969 L 631.476562 627.734375 L 628.015625 634.128906 L 624.824219 639.660156 L 622.539062 643.574219 L 621 646.351562 L 619.847656 648.757812 L 618.722656 651.570312 L 617.257812 655.570312 L 615.199219 661.308594 L 612.683594 668.445312 L 609.953125 676.425781 L 607.253906 684.691406 L 604.824219 692.679688 L 602.8125 699.933594 L 600.992188 706.390625 L 599.046875 712.089844 L 596.65625 717.074219 L 593.503906 721.382812 L 589.367188 725.003906 L 584.414062 727.742188 L 578.910156 729.351562 L 573.125 729.585938 L 567.324219 728.195312 L 561.734375 725.046875 L 556.464844 720.441406 L 551.570312 714.796875 L 547.121094 708.523438 L 543.179688 702.035156 L 539.789062 695.707031 L 536.890625 689.773438 L 534.410156 684.414062 L 532.265625 679.832031 L 530.375 676.207031 L 528.664062 673.585938 L 527.066406 671.421875 L 525.507812 669.019531 L 523.921875 665.683594 L 522.238281 660.722656 L 520.402344 653.695312 L 518.375 645.171875 L 516.128906 635.992188 L 513.644531 626.980469 L 510.890625 618.96875 L 507.867188 612.566406 L 504.675781 607.476562 L 501.433594 603.179688 L 498.269531 599.15625 L 495.300781 594.886719 L 492.628906 589.992188 L 490.21875 584.640625 L 488.007812 579.132812 L 485.941406 573.785156 L 483.957031 568.898438 L 481.972656 564.671875 L 479.84375 560.898438 L 477.402344 557.257812 L 474.480469 553.425781 L 470.914062 549.09375 L 466.570312 544.035156 L 461.503906 538.40625 L 455.808594 532.460938 L 449.566406 526.453125 L 442.878906 520.636719 L 435.859375 515.222656 L 428.742188 510.253906 L 421.800781 505.742188 L 415.292969 501.683594 L 409.484375 498.085938 L 404.566406 494.929688 L 400.414062 492.109375 L 396.820312 489.503906 L 393.589844 486.980469 L 390.515625 484.414062 L 387.363281 481.734375 L 383.738281 479.0625 L 379.207031 476.589844 L 373.34375 474.492188 L 365.714844 472.957031 L 356.113281 472.078125 L 345.230469 471.636719 L 333.980469 471.316406 L 323.277344 470.816406 L 314.035156 469.824219 L 306.867188 468.183594 L 301.1875 466.328125 L 296.101562 464.839844 L 290.726562 464.308594 L 284.167969 465.320312 L 275.789062 468.246094 L 265.929688 472.652344 L 255.191406 477.886719 L 244.164062 483.300781 L 233.449219 488.253906 L 223.523438 492.269531 L 214.46875 495.589844 L 206.238281 498.625 L 198.796875 501.789062 L 192.113281 505.503906 L 186.140625 510.039062 L 180.824219 515.140625 L 176.101562 520.425781 L 171.921875 525.492188 L 168.214844 529.957031 L 164.917969 533.570312 L 161.925781 536.644531 L 159.132812 539.644531 L 156.429688 543.03125 L 153.703125 547.257812 L 150.871094 552.605469 L 147.976562 558.609375 L 145.082031 564.628906 L 142.261719 570.015625 L 139.578125 574.125 L 137.054688 576.585938 L 134.558594 578.140625 L 131.902344 579.792969 L 128.90625 582.5625 L 125.386719 587.460938 L 121.21875 595.167969 L 116.515625 605.046875 L 111.4375 616.125 L 106.152344 627.441406 L 100.824219 638.019531 L 95.617188 647.183594 L 90.671875 655.417969 L 86.125 663.496094 L 82.113281 672.199219 L 78.78125 682.292969 L 76.207031 694.269531 L 74.269531 707.464844 L 72.785156 720.925781 L 71.574219 733.707031 L 70.464844 744.855469 L 69.304688 753.675781 L 68.066406 760.507812 L 66.753906 765.945312 L 65.363281 770.578125 L 63.902344 775.007812 L 62.375 779.699219 L 60.773438 784.660156 L 59.101562 789.757812 L 57.355469 794.871094 L 55.535156 799.882812 L 53.65625 804.707031 L 51.824219 809.40625 L 50.15625 814.09375 L 48.773438 818.875 L 47.804688 823.855469 L 47.300781 829.183594 L 47.054688 835.148438 L 46.78125 842.085938 L 46.210938 850.320312 L 45.066406 860.1875 L 43.171875 871.75 L 40.753906 883.984375 L 38.15625 895.605469 L 35.707031 905.328125 L 33.742188 911.859375 L 32.515625 914.40625 L 31.933594 914.148438 L 31.832031 912.75 L 32.03125 911.882812 L 32.367188 913.21875 L 32.691406 917.925781 L 32.984375 925.207031 L 33.253906 933.761719 L 33.503906 942.292969 L 33.738281 949.503906 L 33.980469 954.445312 L 34.292969 957.550781 L 34.761719 959.597656 L 35.460938 961.375 L 36.472656 963.660156 L 37.859375 967.054688 L 39.601562 971.460938 L 41.667969 976.601562 L 44.023438 982.199219 L 46.632812 987.976562 L 49.464844 993.730469 L 52.457031 999.570312 L 55.558594 1005.6875 L 58.703125 1012.257812 L 61.835938 1019.476562 L 64.894531 1027.398438 L 67.792969 1035.59375 L 70.445312 1043.5 L 72.757812 1050.5625 L 74.640625 1056.21875 L 76.0625 1060.113281 L 77.191406 1062.675781 L 78.25 1064.542969 L 79.457031 1066.34375 L 81.042969 1068.710938 L 83.171875 1072.113281 L 85.8125 1076.371094 L 88.882812 1081.148438 L 92.300781 1086.097656 L 95.972656 1090.882812 L 99.828125 1095.238281 L 103.800781 1099.183594 L 107.828125 1102.824219 L 111.851562 1106.265625 L 115.8125 1109.601562 L 119.640625 1112.914062 L 123.222656 1116.199219 L 126.433594 1119.421875 L 129.152344 1122.554688 L 131.25 1125.566406 L 132.703125 1128.476562 L 133.835938 1131.480469 L 135.082031 1134.824219 L 136.859375 1138.753906 L 139.597656 1143.511719 L 143.554688 1149.226562 L 148.339844 1155.554688 L 153.394531 1162.035156 L 158.160156 1168.210938 L 162.082031 1173.617188 L 164.769531 1177.929688 L 166.484375 1181.332031 L 167.664062 1184.144531 L 168.730469 1186.683594 L 170.121094 1189.269531 L 172.164062 1192.164062 L 174.78125 1195.417969 L 177.792969 1199.035156 L 181.015625 1203.007812 L 184.273438 1207.335938 L 187.417969 1211.992188 L 190.441406 1216.820312 L 193.367188 1221.644531 L 196.214844 1226.289062 L 199.015625 1230.570312 L 201.800781 1234.386719 L 204.660156 1237.929688 L 207.695312 1241.472656 L 211.003906 1245.28125 L 214.695312 1249.621094 L 218.808594 1254.679688 L 223.160156 1260.308594 L 227.515625 1266.277344 L 231.628906 1272.351562 L 235.265625 1278.308594 L 238.328125 1283.953125 L 241.292969 1289.277344 L 244.773438 1294.324219 L 249.394531 1299.121094 L 255.773438 1303.707031 L 264.324219 1308.105469 L 274.671875 1312.3125 L 286.238281 1316.304688 L 298.441406 1320.070312 L 310.703125 1323.585938 L 322.523438 1326.816406 L 333.738281 1329.625 L 344.257812 1331.859375 L 353.996094 1333.367188 L 362.871094 1333.996094 L 370.855469 1333.628906 L 378.191406 1332.300781 L 385.1875 1330.097656 L 392.148438 1327.089844 L 399.378906 1323.359375 L 407.121094 1319.058594 L 415.347656 1314.652344 L 423.964844 1310.683594 L 432.886719 1307.695312 L 442.015625 1306.230469 L 451.277344 1306.664062 L 460.65625 1308.746094 L 470.148438 1312.058594 L 479.757812 1316.183594 L 489.480469 1320.703125 L 499.238281 1325.28125 L 508.628906 1329.894531 L 517.167969 1334.59375 L 524.371094 1339.441406 L 529.757812 1344.484375 L 533.210938 1349.730469 L 536.046875 1355 L 539.957031 1360.054688 L 546.628906 1364.664062 L 557.742188 1368.597656 L 574.367188 1371.648438 L 595.117188 1373.75 L 617.976562 1374.855469 L 640.9375 1374.921875 L 661.992188 1373.914062 L 679.566406 1371.839844 L 693.855469 1368.898438 L 705.488281 1365.359375 L 715.085938 1361.472656 L 723.289062 1357.496094 L 730.640625 1353.640625 L 737.363281 1349.917969 L 743.613281 1346.296875 L 749.527344 1342.738281 L 755.257812 1339.207031 L 760.976562 1335.660156 L 766.964844 1331.984375 L 773.535156 1328.074219 L 781 1323.804688 L 789.671875 1319.0625 L 799.707031 1313.789062 L 810.644531 1308.160156 L 821.871094 1302.414062 L 832.773438 1296.785156 L 842.734375 1291.5 L 851.265625 1286.757812 L 858.386719 1282.550781 L 864.246094 1278.84375 L 868.984375 1275.589844 L 872.746094 1272.738281 L 875.730469 1270.207031 L 878.328125 1267.707031 L 880.976562 1264.898438 L 884.117188 1261.457031 L 888.195312 1257.039062 L 893.496094 1251.441406 L 899.726562 1244.953125 L 906.433594 1237.980469 L 913.167969 1230.933594 L 919.484375 1224.234375 L 925.027344 1218.191406 L 929.8125 1212.761719 L 933.949219 1207.804688 L 937.542969 1203.1875 L 940.710938 1198.761719 L 943.570312 1194.382812 L 946.292969 1189.867188 L 949.0625 1185.007812 L 952.066406 1179.621094 L 955.484375 1173.5 L 959.429688 1166.515625 L 963.714844 1158.816406 L 968.078125 1150.601562 L 972.257812 1142.085938 L 975.996094 1133.472656 L 979.097656 1124.9375 L 981.679688 1116.511719 L 983.921875 1108.195312 L 986.007812 1099.988281 L 988.121094 1091.890625 L 990.382812 1083.929688 L 992.6875 1076.257812 L 994.863281 1069.054688 L 996.738281 1062.5 L 998.148438 1056.773438 L 998.992188 1051.988281 L 999.488281 1047.96875 L 999.925781 1044.472656 L 1000.59375 1041.257812 L 1001.777344 1038.074219 L 1003.675781 1034.722656 L 1006.136719 1031.140625 L 1008.910156 1027.3125 L 1011.753906 1023.210938 L 1014.410156 1018.820312 L 1016.691406 1014.152344 L 1018.59375 1009.351562 L 1020.171875 1004.601562 L 1021.464844 1000.082031 L 1022.535156 995.96875 L 1023.414062 992.378906 L 1024.121094 989.152344 L 1024.65625 986.070312 L 1025.023438 982.902344 L 1025.226562 979.433594 L 1025.285156 975.488281 L 1025.28125 971.132812 L 1025.304688 966.480469 L 1025.457031 961.644531 L 1025.832031 956.746094 L 1026.488281 951.882812 L 1027.347656 947.105469 L 1028.292969 942.453125 L 1029.210938 937.960938 L 1029.984375 933.671875 L 1030.53125 929.511719 L 1030.894531 925.015625 L 1031.148438 919.59375 L 1031.375 912.679688 L 1031.648438 903.6875 L 1032.007812 892.339844 L 1032.378906 879.550781 L 1032.636719 866.53125 L 1032.667969 854.488281 L 1032.355469 844.632812 L 1031.652344 837.824219 L 1030.765625 833.5 L 1029.976562 830.742188 L 1029.558594 828.636719 L 1029.796875 826.273438 L 1030.863281 822.859375 L 1032.523438 818.121094 L 1034.445312 811.917969 L 1036.289062 804.097656 L 1037.722656 794.523438 L 1038.476562 783.238281 L 1038.589844 771.070312 L 1038.164062 759.042969 L 1037.304688 748.175781 L 1036.121094 739.492188 L 1034.699219 733.660156 L 1033.066406 729.960938 L 1031.238281 727.316406 L 1029.226562 724.652344 L 1027.042969 720.890625 L 1024.710938 715.246094 L 1022.289062 708.082031 L 1019.839844 700.050781 L 1017.421875 691.804688 L 1015.109375 683.996094 L 1012.949219 677.136719 L 1010.925781 671.175781 L 1009.023438 665.929688 L 1007.210938 661.199219 L 1005.464844 656.804688 L 1003.765625 652.574219 L 1002.125 648.410156 L 1000.546875 644.238281 L 999.050781 639.988281 L 997.644531 635.582031 L 996.335938 630.984375 L 995.089844 626.285156 L 993.867188 621.621094 L 992.628906 617.125 L 991.335938 612.921875 L 989.953125 609.09375 L 988.46875 605.472656 L 986.867188 601.839844 L 985.148438 597.976562 L 983.292969 593.660156 L 981.289062 588.722656 L 979.117188 583.199219 L 976.734375 577.175781 L 974.113281 570.738281 L 971.222656 563.976562 L 968.054688 557.007812 L 964.726562 550.097656 L 961.378906 543.542969 L 958.15625 537.648438 L 955.195312 532.710938 L 952.578125 528.910156 L 950.101562 525.964844 L 947.519531 523.484375 L 944.558594 521.0625 L 940.972656 518.304688 L 936.585938 514.921875 L 931.632812 511.046875 L 926.425781 506.929688 L 921.285156 502.808594 L 916.53125 498.933594 L 912.410156 495.480469 L 908.871094 492.375 L 905.792969 489.472656 L 903.054688 486.636719 L 900.53125 483.726562 L 898.117188 480.597656 L 895.777344 477.089844 L 893.484375 473.039062 L 891.21875 468.292969 L 888.960938 462.679688 L 886.675781 456.140625 L 884.292969 448.980469 L 881.722656 441.613281 L 878.886719 434.441406 L 875.699219 427.875 L 872.101562 422.210938 L 868.164062 417.328125 L 863.980469 412.992188 L 859.644531 408.96875 L 855.25 405.023438 L 850.890625 401 L 846.660156 397.054688 L 842.644531 393.417969 L 838.929688 390.316406 L 835.605469 387.980469 L 832.710938 386.574219 L 830.066406 385.996094 L 827.449219 386.070312 L 824.632812 386.625 L 821.386719 387.488281 L 817.558594 388.503906 L 813.289062 389.566406 L 808.785156 390.585938 L 804.253906 391.464844 L 799.90625 392.117188 L 795.917969 392.476562 L 792.304688 392.589844 L 789.046875 392.527344 L 786.128906 392.363281 L 783.527344 392.171875 L 781.207031 391.960938 L 779.035156 391.460938 L 776.851562 390.351562 L 774.503906 388.296875 L 771.839844 384.972656 L 770.015625 384.261719 "/>
<path style="fill:none;stroke-width:0.75;stroke-linecap:round;stroke-linejoin:round;stroke:rgb(0%,0%,0%);stroke-opacity:1;stroke-miterlimit:10;" d="M 275.269531 464.480469 L 262.246094 471.058594 L 248.691406 477.660156 L 237.863281 483.722656 L 231.835938 488.8125 L 227.894531 492.964844 L 222.128906 496.320312 L 211.878906 499.117188 L 199.417969 501.902344 L 188.265625 505.304688 L 181.097656 509.761719 L 177.226562 514.9375 L 175.105469 520.289062 L 173.207031 525.292969 L 170.335938 529.554688 L 166.703125 533.257812 L 162.871094 536.726562 L 159.296875 540.257812 L 156.035156 544.035156 L 153.039062 548.203125 L 150.265625 552.859375 L 147.652344 557.871094 L 145.125 563.046875 L 142.625 568.195312 L 140.074219 573.082031 L 137.378906 577.246094 L 134.4375 580.1875 L 131.195312 581.796875 L 127.808594 583.535156 L 124.484375 587.273438 L 121.308594 594.351562 L 117.886719 604.074219 L 113.707031 615.234375 L 108.246094 626.621094 L 101.328125 637.25 L 94.078125 647.058594 L 87.972656 656.203125 L 84.050781 664.917969 L 81.664062 673.777344 L 79.757812 683.445312 L 77.507812 694.390625 L 75.089844 706.363281 L 72.917969 718.929688 L 71.304688 731.589844 L 70.121094 743.617188 L 69.117188 754.203125 L 68.054688 762.558594 L 66.753906 768.210938 L 65.296875 772.027344 L 63.824219 775.199219 L 62.429688 778.742188 L 61.019531 782.949219 L 59.457031 787.925781 L 57.636719 793.6875 L 55.636719 799.828125 L 53.585938 805.835938 L 51.601562 811.207031 L 49.816406 815.621094 L 48.398438 819.496094 L 47.53125 823.445312 L 47.28125 828.046875 L 47.269531 833.789062 L 47.003906 841.136719 L 46.105469 850.378906 L 44.6875 861.085938 L 42.96875 872.667969 L 41.179688 884.519531 L 39.445312 895.894531 L 37.515625 905.433594 L 35.03125 911.628906 L 31.917969 913.585938 L 29.199219 912.898438 L 28.183594 911.777344 L 29.703125 912.097656 L 32.691406 914.363281 L 35.613281 918.75 L 36.941406 925.421875 L 35.699219 934.160156 L 33.214844 943.183594 L 31.375 950.324219 L 31.566406 954.085938 L 33.199219 955.722656 L 35.1875 957.160156 L 36.660156 959.929688 L 37.660156 963.917969 L 38.453125 968.605469 L 39.308594 973.542969 L 40.546875 978.519531 L 42.484375 983.394531 L 45.453125 988.023438 L 49.550781 992.417969 L 53.980469 997.25 L 57.726562 1003.335938 L 60.09375 1011.199219 L 61.699219 1020.164062 L 63.46875 1029.246094 L 66.09375 1037.597656 L 69.300781 1044.902344 L 72.566406 1050.96875 L 75.371094 1055.609375 L 77.320312 1058.796875 L 78.5 1061.117188 L 79.125 1063.324219 L 79.472656 1066.03125 L 80.125 1069.324219 L 81.726562 1073.148438 L 84.71875 1077.429688 L 88.6875 1081.949219 L 93.007812 1086.457031 L 97.0625 1090.695312 L 100.433594 1094.515625 L 103.507812 1098.15625 L 106.882812 1101.941406 L 110.976562 1106.074219 L 115.496094 1110.230469 L 119.980469 1113.9375 L 124.011719 1116.882812 L 127.390625 1119.355469 L 129.984375 1121.78125 L 131.644531 1124.59375 L 132.402344 1128.085938 L 132.964844 1132 L 134.207031 1135.929688 L 136.757812 1139.660156 L 140.257812 1143.660156 L 144.101562 1148.574219 L 147.84375 1154.789062 L 151.722656 1161.625 L 156.132812 1168.128906 L 161.226562 1173.550781 L 166.195312 1177.933594 L 169.980469 1181.5 L 171.527344 1184.484375 L 170.375 1187.117188 L 168.417969 1189.613281 L 168.148438 1192.175781 L 171.304688 1195.023438 L 176.640625 1198.355469 L 182.152344 1202.371094 L 186.265625 1207.175781 L 189.113281 1212.429688 L 191.246094 1217.691406 L 193.222656 1222.527344 L 195.507812 1226.628906 L 198.191406 1230.207031 L 201.273438 1233.617188 L 204.71875 1237.164062 L 208.328125 1241.007812 L 211.871094 1245.28125 L 215.203125 1250.058594 L 218.507812 1255.261719 L 222.054688 1260.761719 L 226.113281 1266.4375 L 230.804688 1272.171875 L 235.648438 1277.90625 L 240.007812 1283.589844 L 243.484375 1289.160156 L 246.589844 1294.496094 L 250.058594 1299.476562 L 254.664062 1304.003906 L 261.289062 1308.175781 L 270.851562 1312.128906 L 283.792969 1315.96875 L 298.65625 1319.703125 L 313.503906 1323.308594 L 326.410156 1326.769531 L 336.078125 1329.988281 L 343.824219 1332.582031 L 351.605469 1334.097656 L 360.816406 1334.214844 L 370.636719 1333.183594 L 379.679688 1331.394531 L 386.964844 1329.175781 L 393.121094 1326.59375 L 399.183594 1323.652344 L 406.175781 1320.363281 L 414.664062 1316.640625 L 423.300781 1312.035156 L 430.269531 1306.003906 L 434.28125 1298.328125 L 436.101562 1290.082031 L 437.023438 1282.640625 L 438.101562 1277.0625 L 439.4375 1273.035156 L 440.894531 1269.921875 L 442.347656 1267.074219 L 443.6875 1264.046875 L 444.960938 1261.160156 L 446.234375 1258.9375 L 447.566406 1257.402344 L 448.9375 1254.617188 L 450.3125 1248.148438 L 451.667969 1236.402344 L 453.003906 1221.121094 L 454.332031 1204.890625 L 455.660156 1190.289062 L 457 1179.335938 L 458.347656 1171.769531 L 459.695312 1166.777344 L 461.039062 1163.546875 L 462.382812 1161.3125 L 463.726562 1159.308594 L 465.066406 1156.925781 L 466.40625 1154.144531 L 467.746094 1151.078125 L 469.085938 1147.84375 L 470.429688 1144.5 L 471.773438 1141.09375 L 473.113281 1137.675781 L 474.457031 1134.28125 L 475.800781 1130.941406 L 477.144531 1127.65625 L 478.484375 1124.417969 L 479.828125 1121.0625 L 481.167969 1117.414062 L 482.507812 1113.332031 L 483.847656 1108.878906 L 485.191406 1104.167969 L 486.535156 1099.304688 L 487.878906 1094.335938 L 489.222656 1088.996094 L 490.566406 1082.964844 L 491.90625 1076.070312 L 493.246094 1068.800781 L 494.585938 1061.808594 L 495.925781 1055.617188 L 497.269531 1050.28125 L 498.609375 1045.726562 L 499.953125 1041.886719 L 501.296875 1038.625 L 502.640625 1035.585938 L 503.984375 1032.34375 L 505.324219 1028.597656 L 506.667969 1024.527344 L 508.007812 1020.4375 L 509.347656 1016.582031 L 510.6875 1013 L 512.03125 1009.695312 L 513.375 1006.652344 L 514.71875 1003.78125 L 516.0625 1000.613281 L 517.40625 996.589844 L 518.746094 991.375 L 520.082031 985.476562 L 521.421875 979.621094 L 522.765625 974.382812 L 524.109375 969.699219 L 525.453125 965.355469 L 526.796875 961.183594 L 528.140625 957.140625 L 529.480469 953.242188 L 530.820312 949.484375 L 532.160156 945.871094 L 533.503906 942.363281 L 534.84375 938.921875 L 536.1875 935.519531 L 537.527344 932.210938 L 538.871094 929.070312 L 540.214844 926.128906 L 541.558594 923.253906 L 542.902344 920.265625 L 544.242188 916.988281 L 545.578125 913.304688 L 546.917969 909.339844 L 548.261719 905.289062 L 549.609375 901.292969 L 550.957031 897.320312 L 552.300781 893.28125 L 553.636719 889.070312 L 554.964844 884.4375 L 556.300781 879.113281 L 557.652344 872.820312 L 559.019531 865.4375 L 560.382812 857.488281 L 561.710938 849.640625 L 562.988281 842.457031 L 564.273438 836.054688 L 565.636719 830.4375 L 567.113281 825.53125 L 568.59375 820.972656 L 569.929688 816.320312 L 571.035156 811.140625 L 572.09375 804.996094 L 573.351562 797.453125 L 575.054688 788.078125 L 577.226562 776.75 L 579.042969 764.605469 L 579.460938 753.097656 L 577.734375 743.414062 L 574.28125 735.75 L 569.828125 730.03125 L 565.007812 726.03125 L 560.117188 722.914062 L 555.375 719.679688 L 550.992188 715.328125 L 547.128906 709.21875 L 543.679688 702.109375 L 540.496094 695.109375 L 537.453125 689.125 L 534.625 684.210938 L 532.113281 680.222656 L 530 676.980469 L 528.242188 674.171875 L 526.761719 671.457031 L 525.488281 668.503906 L 524.296875 664.933594 L 522.914062 660.222656 L 521.015625 653.8125 L 518.410156 645.445312 L 515.441406 636.101562 L 512.59375 627.078125 L 510.199219 619.390625 L 508.035156 613 L 505.734375 607.597656 L 502.921875 602.878906 L 499.382812 598.542969 L 495.488281 594.289062 L 491.746094 589.824219 L 488.601562 584.941406 L 486.210938 579.773438 L 484.652344 574.53125 L 483.851562 569.414062 L 483.152344 564.578125 L 481.746094 560.171875 L 479.023438 556.253906 L 475.160156 552.554688 L 470.546875 548.734375 L 465.554688 544.4375 L 460.472656 539.398438 L 455.179688 533.675781 L 449.460938 527.402344 L 443.171875 520.800781 L 436.449219 514.414062 L 429.507812 508.867188 L 422.5625 504.601562 L 415.824219 501.335938 L 409.511719 498.601562 L 403.847656 495.9375 L 399.003906 492.984375 L 395.035156 489.84375 L 391.9375 486.714844 L 389.628906 483.78125 L 387.59375 481.125 L 385.226562 478.800781 L 381.878906 476.839844 L 376.761719 475.1875 L 369.042969 473.757812 L 357.902344 472.464844 L 343.273438 471.253906 L 328.171875 470.207031 L 316.367188 469.429688 L 310.4375 468.964844 L 308.144531 468.605469 L 306.050781 468.085938 L 301.414062 467.21875 L 294.332031 466.121094 L 285.597656 464.984375 L 276.007812 464.007812 L 275.269531 464.480469 "/>
<path style="fill:none;stroke-width:0.75;stroke-linecap:round;stroke-linejoin:round;stroke:rgb(0%,0%,0%);stroke-opacity:1;stroke-miterlimit:10;" d="M 777.503906 528.375 L 771.929688 531.128906 L 765.019531 534.195312 L 757.695312 537.125 L 750.792969 539.570312 L 744.808594 541.527344 L 740.15625 543.089844 L 737.054688 544.367188 L 734.9375 545.488281 L 733.042969 546.597656 L 730.71875 547.847656 L 727.753906 549.457031 L 724.046875 551.660156 L 719.496094 554.683594 L 713.996094 558.75 L 707.390625 563.996094 L 699.515625 570.558594 L 690.382812 578.441406 L 680.734375 587.203125 L 671.484375 596.273438 L 663.394531 605.125 L 656.59375 613.316406 L 651.070312 620.441406 L 646.765625 626.210938 L 643.46875 630.839844 L 640.933594 634.660156 L 638.914062 638.003906 L 637.171875 641.167969 L 635.503906 644.246094 L 633.714844 647.296875 L 631.675781 650.390625 L 629.574219 653.65625 L 627.675781 657.238281 L 626.152344 661.234375 L 624.851562 665.523438 L 623.542969 669.9375 L 622.039062 674.324219 L 620.332031 678.585938 L 618.46875 682.636719 L 616.484375 686.402344 L 614.429688 689.835938 L 612.335938 693.039062 L 610.25 696.160156 L 608.21875 699.316406 L 606.304688 702.535156 L 604.582031 705.820312 L 603.097656 709.164062 L 601.789062 712.503906 L 600.5625 715.757812 L 599.316406 718.855469 L 597.988281 721.761719 L 596.605469 724.621094 L 595.21875 727.617188 L 593.863281 730.894531 L 592.535156 734.460938 L 591.210938 738.273438 L 589.875 742.347656 L 588.53125 746.894531 L 587.183594 752.167969 L 585.839844 758.320312 L 584.5 765.039062 L 583.160156 771.917969 L 581.820312 778.539062 L 580.472656 784.585938 L 579.128906 790.144531 L 577.785156 795.398438 L 576.445312 800.496094 L 575.105469 805.472656 L 573.769531 810.328125 L 572.425781 815.070312 L 571.082031 819.75 L 569.738281 824.421875 L 568.394531 829.15625 L 567.050781 834.09375 L 565.710938 839.386719 L 564.367188 845.191406 L 563.03125 851.605469 L 561.691406 858.535156 L 560.347656 865.820312 L 559.003906 873.242188 L 557.65625 880.273438 L 556.3125 886.332031 L 554.972656 891.046875 L 553.632812 894.957031 L 552.292969 898.816406 L 550.953125 903.210938 L 549.609375 908.007812 L 548.269531 912.886719 L 546.925781 917.535156 L 545.582031 921.695312 L 544.238281 925.347656 L 542.894531 928.527344 L 541.554688 931.308594 L 540.214844 933.898438 L 538.875 936.542969 L 537.53125 939.433594 L 536.191406 942.535156 L 534.847656 945.746094 L 533.507812 948.980469 L 532.160156 952.1875 L 530.816406 955.496094 L 529.472656 959.082031 L 528.132812 963.082031 L 526.796875 967.488281 L 525.457031 972.265625 L 524.113281 977.351562 L 522.769531 982.625 L 521.425781 987.9375 L 520.082031 993.15625 L 518.738281 998.117188 L 517.398438 1002.675781 L 516.058594 1006.664062 L 514.71875 1010.039062 L 513.378906 1013.152344 L 512.039062 1016.460938 L 510.691406 1020.265625 L 509.347656 1024.222656 L 508.003906 1027.835938 L 506.660156 1030.765625 L 505.320312 1033.351562 L 503.984375 1036.101562 L 502.640625 1039.429688 L 501.300781 1043.34375 L 499.957031 1047.769531 L 498.613281 1052.625 L 497.269531 1057.859375 L 495.925781 1063.585938 L 494.585938 1069.945312 L 493.242188 1076.964844 L 491.902344 1084.207031 L 490.5625 1091.121094 L 489.222656 1097.265625 L 487.882812 1102.671875 L 486.539062 1107.484375 L 485.195312 1111.847656 L 483.847656 1115.890625 L 482.503906 1119.644531 L 481.160156 1123.125 L 479.824219 1126.378906 L 478.488281 1129.5625 L 477.148438 1132.871094 L 475.800781 1136.410156 L 474.449219 1139.964844 L 473.105469 1143.238281 L 471.773438 1146.03125 L 470.445312 1148.554688 L 469.109375 1151.113281 L 467.753906 1154.015625 L 466.382812 1157.425781 L 465.019531 1160.941406 L 463.703125 1164.007812 L 462.445312 1166.308594 L 461.164062 1168.460938 L 459.738281 1171.320312 L 458.125 1175.996094 L 456.566406 1184.6875 L 455.363281 1199.847656 L 454.765625 1222.671875 L 454.792969 1249.289062 L 455.40625 1274.5625 L 456.566406 1293.359375 L 458.160156 1302.171875 L 459.796875 1303.976562 L 461 1303.367188 L 461.671875 1304.078125 L 463.167969 1306.351562 L 467.199219 1309.574219 L 474.789062 1313.203125 L 484.183594 1317.082031 L 492.917969 1321.140625 L 499.253906 1325.328125 L 504.289062 1329.707031 L 509.832031 1334.363281 L 517.6875 1339.375 L 528.703125 1344.75 L 539.863281 1350.179688 L 547.179688 1355.269531 L 548.367188 1359.738281 L 547.902344 1363.75 L 551.964844 1367.570312 L 565.203125 1371.320312 L 586.191406 1374.492188 L 611.976562 1376.441406 L 639.617188 1376.503906 L 666.136719 1374.335938 L 688.496094 1370.796875 L 703.640625 1367.050781 L 709.996094 1363.976562 L 711.960938 1361.277344 L 715.417969 1358.371094 L 724.570312 1354.816406 L 736.878906 1350.761719 L 748.125 1346.496094 L 755.105469 1342.289062 L 758.691406 1338.300781 L 760.777344 1334.667969 L 763.25 1331.519531 L 767.804688 1328.796875 L 775.320312 1325.632812 L 786.472656 1320.972656 L 801.242188 1314.203125 L 816.804688 1306.519531 L 829.636719 1299.566406 L 837.316406 1294.570312 L 841.820312 1291.035156 L 846.222656 1288.042969 L 852.828125 1284.828125 L 860.894531 1281.261719 L 868.90625 1277.375 L 875.347656 1273.199219 L 879.152344 1268.855469 L 881.074219 1264.835938 L 882.304688 1261.71875 L 883.941406 1259.742188 L 886.660156 1257.707031 L 891.035156 1254.0625 L 897.378906 1247.746094 L 904.976562 1239.675781 L 912.851562 1231.246094 L 920.164062 1223.621094 L 926.582031 1216.96875 L 931.90625 1211.222656 L 935.9375 1206.3125 L 938.628906 1202.140625 L 940.511719 1198.472656 L 942.269531 1195.050781 L 944.488281 1191.527344 L 947.382812 1187.246094 L 951.0625 1181.445312 L 955.542969 1173.699219 L 960.414062 1164.8125 L 965.15625 1155.902344 L 969.261719 1148.089844 L 972.410156 1141.972656 L 975.066406 1136.097656 L 977.902344 1128.484375 L 981.328125 1117.921875 L 984.785156 1106.265625 L 987.457031 1096.132812 L 988.84375 1089.328125 L 989.667969 1084.460938 L 990.972656 1079.328125 L 993.472656 1072.3125 L 996.570312 1064.144531 L 999.355469 1056.144531 L 1000.914062 1049.632812 L 1000.707031 1045.515625 L 999.707031 1043.101562 L 999.269531 1041.28125 L 1000.414062 1039.109375 L 1002.882812 1036.238281 L 1006.078125 1032.488281 L 1009.457031 1027.796875 L 1012.625 1022.640625 L 1015.230469 1017.625 L 1017.035156 1013.210938 L 1018.277344 1009.214844 L 1019.3125 1005.3125 L 1020.488281 1001.171875 L 1022.035156 996.613281 L 1023.6875 992.070312 L 1025.054688 988.117188 L 1025.828125 985.128906 L 1025.996094 982.574219 L 1025.636719 979.722656 L 1024.886719 976.015625 L 1024.105469 971.605469 L 1023.730469 966.820312 L 1024.179688 961.996094 L 1025.675781 957.335938 L 1027.574219 952.507812 L 1029.027344 947.050781 L 1029.4375 940.835938 L 1029.238281 935.011719 L 1029.117188 931.0625 L 1029.585938 929.710938 L 1030.4375 928.632812 L 1031.292969 924.761719 L 1031.84375 915.878906 L 1032.109375 903.230469 L 1032.183594 888.917969 L 1032.167969 875.050781 L 1032.132812 863.332031 L 1032.109375 853.871094 L 1032.089844 846.371094 L 1032.050781 840.519531 L 1031.8125 835.890625 L 1031.171875 832.035156 L 1030.082031 828.535156 L 1029.191406 825.066406 L 1029.304688 821.339844 L 1030.960938 817.015625 L 1033.617188 811.601562 L 1036.464844 804.5625 L 1038.679688 795.359375 L 1039.644531 783.808594 L 1039.507812 771.117188 L 1038.613281 758.84375 L 1037.269531 748.300781 L 1035.699219 739.851562 L 1034.089844 733.613281 L 1032.570312 729.507812 L 1031.039062 726.625 L 1029.328125 723.859375 L 1027.308594 720.265625 L 1025.023438 715.511719 L 1022.539062 709.425781 L 1019.933594 701.835938 L 1017.296875 692.839844 L 1014.785156 683.59375 L 1012.582031 675.523438 L 1010.785156 669.636719 L 1009.203125 665.308594 L 1007.582031 661.484375 L 1005.726562 657.355469 L 1003.757812 653 L 1001.855469 648.730469 L 1000.210938 644.863281 L 998.9375 641.609375 L 997.847656 638.785156 L 996.683594 636.105469 L 995.238281 633.332031 L 993.550781 630.410156 L 991.710938 627.328125 L 989.761719 624.046875 L 987.53125 620.433594 L 984.800781 616.324219 L 981.472656 611.667969 L 977.921875 606.816406 L 974.640625 602.226562 L 972.121094 598.359375 L 970.628906 595.457031 L 969.496094 592.875 L 967.832031 589.75 L 964.976562 585.523438 L 961.191406 580.824219 L 956.984375 576.585938 L 952.753906 573.453125 L 948.527344 570.914062 L 944.234375 568.175781 L 939.804688 564.628906 L 935.226562 560.386719 L 930.488281 555.761719 L 925.570312 551.050781 L 920.601562 546.558594 L 916.230469 542.546875 L 913.226562 539.285156 L 911.496094 536.929688 L 907.425781 535.203125 L 896.53125 533.738281 L 875.625 532.234375 L 846.746094 530.742188 L 813.242188 529.398438 L 778.457031 528.335938 L 777.503906 528.375 "/>
<path style="fill:none;stroke-width:0.75;stroke-linecap:round;stroke-linejoin:round;stroke:rgb(0%,0%,0%);stroke-opacity:1;stroke-miterlimit:10;" d="M 609.398438 500.378906 L 600.273438 505.101562 L 591.78125 508.035156 L 587.429688 510.394531 L 587.800781 512.570312 L 592.347656 514.5 L 599.339844 516.183594 L 604.757812 518.066406 L 604.40625 520.394531 L 596.1875 522.570312 L 582.375 525.09375 L 571.84375 528.082031 L 570.433594 531.179688 L 568.980469 533.339844 L 566.21875 535.019531 L 564.027344 537.007812 L 564.039062 539.308594 L 566.175781 541.097656 L 569.394531 542.667969 L 571.742188 544.910156 L 569.773438 549.132812 L 565.65625 554.652344 L 562.585938 560.167969 L 562.191406 564.484375 L 566.929688 567.585938 L 573.359375 569.914062 L 577.140625 571.984375 L 577.132812 574.222656 L 573.414062 576.25 L 567.382812 577.851562 L 563.921875 579.917969 L 563.8125 582.253906 L 566.226562 584.296875 L 569.289062 585.851562 L 571.265625 587.726562 L 571.378906 589.925781 L 569.367188 592.464844 L 567.15625 596.53125 L 571.453125 603.859375 L 585.820312 614.085938 L 598.910156 620.433594 L 605.3125 622.835938 L 608.628906 622.710938 L 613.660156 621.046875 L 622.082031 618.03125 L 631.28125 614.207031 L 637.628906 609.988281 L 638.539062 605.085938 L 636.679688 600.375 L 636.34375 596.511719 L 640.574219 593.894531 L 647.257812 592.355469 L 653.527344 591.027344 L 656.976562 589.003906 L 657.015625 586.011719 L 655.722656 582.746094 L 655.660156 579.761719 L 657.257812 576.242188 L 656.074219 571.628906 L 653.601562 566.613281 L 652.605469 562.074219 L 653.671875 558.066406 L 657.679688 553.058594 L 663.859375 546.097656 L 665.183594 539.710938 L 659.257812 535.597656 L 651.480469 533.15625 L 647.300781 531.246094 L 645.828125 528.734375 L 645.105469 525.234375 L 643.253906 520.890625 L 638.902344 516.863281 L 633.425781 513.492188 L 629.164062 510.597656 L 627.371094 508.128906 L 625.5 506.484375 L 622.945312 505.058594 L 619.621094 503.125 L 614.867188 500.78125 L 609.382812 498.683594 L 609.398438 500.378906 "/>
</g>
</svg>
