<?xml version="1.0" encoding="UTF-8"?>
<svg xmlns="http://www.w3.org/2000/svg" xmlns:xlink="http://www.w3.org/1999/xlink" width="1428pt" height="1605pt" viewBox="0 0 1428 1605" version="1.1">
<g id="surface239">
<rect x="0" y="0" width="1428" height="1605" style="fill:rgb(100%,100%,100%);fill-opacity:1;stroke:none;"/>
<path style="fill:none;stroke-width:0.75;stroke-linecap:round;stroke-linejoin:round;stroke:rgb(0%,0%,0%);stroke-opacity:1;stroke-miterlimit:10;" d="M 755.996094 342.578125 L 749.753906 346.605469 L 745.664062 350.171875 L 742.921875 353.390625 L 740.714844 356.367188 L 738.226562 359.207031 L 734.890625 362.054688 L 731.089844 365.183594 L 727.441406 368.917969 L 724.578125 373.5625 L 723.113281 379.4375 L 723.4375 386.6875 L 725 394.792969 L 727.003906 403.066406 L 728.664062 410.824219 L 729.191406 417.382812 L 728.046875 422.265625 L 725.734375 425.882812 L 723.007812 428.851562 L 720.617188 431.792969 L 719.324219 435.324219 L 719.632812 439.910156 L 721.0625 445.421875 L 722.898438 451.558594 L 724.40625 458.039062 L 724.867188 464.566406 L 723.773438 470.90625 L 721.480469 477.039062 L 718.574219 482.992188 L 715.628906 488.804688 L 713.222656 494.503906 L 711.769531 500.105469 L 711.015625 505.5625 L 710.539062 510.800781 L 709.921875 515.757812 L 708.742188 520.367188 L 706.691406 524.582031 L 703.878906 528.46875 L 700.53125 532.121094 L 696.871094 535.632812 L 693.121094 539.089844 L 689.476562 542.507812 L 686.042969 545.578125 L 682.894531 547.921875 L 680.101562 549.152344 L 677.742188 548.882812 L 675.8125 546.875 L 673.953125 543.453125 L 671.738281 539.082031 L 668.722656 534.226562 L 664.476562 529.359375 L 658.785156 524.832031 L 652.339844 520.554688 L 646.050781 516.339844 L 640.824219 511.976562 L 637.578125 507.273438 L 636.84375 502.117188 L 637.632812 496.730469 L 638.582031 491.414062 L 638.324219 486.476562 L 635.496094 482.230469 L 629.199219 478.9375 L 620.433594 476.714844 L 610.65625 475.640625 L 601.34375 475.796875 L 593.953125 477.253906 L 589.535156 480.015625 L 587.484375 483.773438 L 586.777344 488.140625 L 586.390625 492.730469 L 585.296875 497.152344 L 582.769531 501.101562 L 579.265625 504.558594 L 575.542969 507.585938 L 572.347656 510.253906 L 570.441406 512.617188 L 570.308594 514.75 L 571.40625 516.734375 L 572.917969 518.667969 L 574.039062 520.640625 L 573.949219 522.753906 L 572.089844 525.066406 L 568.894531 527.550781 L 565.042969 530.140625 L 561.21875 532.777344 L 558.097656 535.402344 L 556.207031 537.984375 L 555.472656 540.617188 L 555.648438 543.425781 L 556.5 546.527344 L 557.796875 550.058594 L 559.300781 554.0625 L 560.796875 558.308594 L 562.070312 562.496094 L 562.90625 566.3125 L 563.089844 569.460938 L 562.515625 571.765625 L 561.496094 573.59375 L 560.4375 575.453125 L 559.765625 577.84375 L 559.890625 581.265625 L 561.117188 586.0625 L 563.292969 591.960938 L 566.15625 598.515625 L 569.4375 605.296875 L 572.875 611.863281 L 576.269531 617.828125 L 579.648438 622.996094 L 583.109375 627.214844 L 586.746094 630.335938 L 590.652344 632.214844 L 594.878906 632.804688 L 599.300781 632.484375 L 603.742188 631.746094 L 608.035156 631.070312 L 612.007812 630.949219 L 615.5 631.765625 L 618.363281 633.515625 L 620.46875 636.09375 L 621.675781 639.394531 L 621.855469 643.320312 L 620.949219 647.742188 L 619.253906 652.472656 L 617.144531 657.308594 L 614.988281 662.042969 L 613.171875 666.46875 L 611.941406 670.46875 L 611.078125 674.289062 L 610.242188 678.257812 L 609.085938 682.703125 L 607.277344 687.964844 L 604.535156 694.207031 L 600.875 700.945312 L 596.371094 707.542969 L 591.105469 713.355469 L 585.15625 717.734375 L 578.648438 720.191406 L 571.90625 720.824219 L 565.292969 719.875 L 559.175781 717.59375 L 553.925781 714.230469 L 549.796875 710.027344 L 546.617188 705.214844 L 544.097656 700.023438 L 541.960938 694.683594 L 539.917969 689.425781 L 537.746094 684.425781 L 535.472656 679.667969 L 533.1875 675.09375 L 530.976562 670.632812 L 528.933594 666.222656 L 527.128906 661.820312 L 525.578125 657.484375 L 524.28125 653.300781 L 523.234375 649.351562 L 522.433594 645.71875 L 521.847656 642.421875 L 521.28125 639.222656 L 520.5 635.828125 L 519.277344 631.933594 L 517.382812 627.238281 L 514.664062 621.542969 L 511.28125 615.019531 L 507.472656 607.941406 L 503.484375 600.578125 L 499.554688 593.203125 L 495.867188 586.054688 L 492.382812 579.238281 L 489.015625 572.84375 L 485.664062 566.941406 L 482.242188 561.617188 L 478.675781 556.910156 L 474.988281 552.691406 L 471.214844 548.796875 L 467.402344 545.070312 L 463.589844 541.335938 L 459.789062 537.460938 L 455.921875 533.394531 L 451.871094 529.113281 L 447.523438 524.59375 L 442.769531 519.816406 L 437.539062 514.78125 L 431.945312 509.589844 L 426.132812 504.367188 L 420.257812 499.246094 L 414.472656 494.351562 L 408.871094 489.78125 L 403.355469 485.554688 L 397.777344 481.644531 L 391.972656 478.046875 L 385.796875 474.742188 L 379.003906 471.746094 L 370.992188 469.21875 L 361.058594 467.339844 L 348.515625 466.296875 L 332.660156 466.28125 L 313.25 467.398438 L 291.8125 469.460938 L 270.324219 472.203125 L 250.761719 475.359375 L 235.101562 478.664062 L 224.703125 481.917969 L 218.480469 485.175781 L 214.726562 488.5625 L 211.734375 492.191406 L 207.800781 496.191406 L 201.675781 500.625 L 193.949219 505.351562 L 185.667969 510.175781 L 177.878906 514.894531 L 171.628906 519.320312 L 167.625 523.355469 L 165.199219 527.339844 L 163.34375 531.726562 L 161.058594 536.949219 L 157.335938 543.464844 L 151.496094 551.492188 L 144.1875 560.394531 L 136.394531 569.316406 L 129.089844 577.394531 L 123.261719 583.777344 L 119.648438 587.871094 L 118.023438 590.144531 L 117.933594 591.34375 L 118.917969 592.210938 L 120.515625 593.476562 L 122.277344 595.722656 L 123.804688 598.839844 L 124.707031 602.558594 L 124.59375 606.597656 L 123.078125 610.695312 L 119.9375 614.636719 L 115.613281 618.492188 L 110.71875 622.394531 L 105.855469 626.476562 L 101.640625 630.871094 L 98.515625 635.644531 L 96.273438 640.613281 L 94.539062 645.519531 L 92.9375 650.109375 L 91.09375 654.132812 L 88.742188 657.453125 L 86.039062 660.386719 L 83.25 663.371094 L 80.632812 666.84375 L 78.453125 671.238281 L 76.894531 676.84375 L 75.839844 683.367188 L 75.09375 690.363281 L 74.460938 697.390625 L 73.746094 704.007812 L 72.808594 709.882812 L 71.730469 715.125 L 70.652344 719.957031 L 69.707031 724.601562 L 69.03125 729.273438 L 68.714844 734.15625 L 68.625 739.242188 L 68.574219 744.476562 L 68.382812 749.820312 L 67.867188 755.214844 L 66.898438 760.609375 L 65.570312 765.933594 L 64.027344 771.109375 L 62.417969 776.070312 L 60.890625 780.738281 L 59.554688 785.0625 L 58.351562 789.128906 L 57.195312 793.039062 L 55.992188 796.894531 L 54.652344 800.808594 L 53.121094 804.867188 L 51.511719 809.109375 L 49.976562 813.558594 L 48.667969 818.234375 L 47.734375 823.160156 L 47.265625 828.339844 L 47.082031 833.699219 L 46.941406 839.148438 L 46.589844 844.59375 L 45.792969 849.945312 L 44.402344 855.15625 L 42.648438 860.34375 L 40.867188 865.679688 L 39.394531 871.320312 L 38.5625 877.433594 L 38.601562 884.164062 L 39.300781 891.570312 L 40.355469 899.679688 L 41.453125 908.53125 L 42.285156 918.160156 L 42.609375 928.496094 L 42.453125 939.058594 L 41.902344 949.253906 L 41.058594 958.5 L 40.011719 966.207031 L 38.875 971.957031 L 37.871094 975.980469 L 37.234375 978.679688 L 37.203125 980.460938 L 38.015625 981.714844 L 39.820312 982.804688 L 42.410156 983.890625 L 45.480469 985.082031 L 48.722656 986.5 L 51.839844 988.257812 L 54.566406 990.433594 L 56.792969 992.957031 L 58.441406 995.707031 L 59.441406 998.585938 L 59.714844 1001.472656 L 59.277344 1004.320312 L 58.464844 1007.3125 L 57.703125 1010.691406 L 57.414062 1014.699219 L 58.023438 1019.582031 L 59.804688 1025.460938 L 62.472656 1031.964844 L 65.578125 1038.609375 L 68.6875 1044.910156 L 71.359375 1050.375 L 73.269531 1054.664062 L 74.570312 1058.019531 L 75.527344 1060.824219 L 76.410156 1063.464844 L 77.484375 1066.332031 L 78.996094 1069.726562 L 81.105469 1073.671875 L 83.960938 1078.101562 L 87.691406 1082.957031 L 92.449219 1088.175781 L 98.25 1093.667969 L 104.65625 1099.234375 L 111.109375 1104.648438 L 117.042969 1109.679688 L 121.902344 1114.105469 L 125.292969 1117.773438 L 127.496094 1120.855469 L 128.957031 1123.605469 L 130.125 1126.269531 L 131.449219 1129.101562 L 133.273438 1132.300781 L 135.5625 1135.890625 L 138.179688 1139.847656 L 140.980469 1144.148438 L 143.832031 1148.769531 L 146.617188 1153.652344 L 149.308594 1158.644531 L 151.902344 1163.550781 L 154.386719 1168.1875 L 156.761719 1172.367188 L 159.042969 1175.972656 L 161.34375 1179.199219 L 163.800781 1182.324219 L 166.558594 1185.613281 L 169.753906 1189.335938 L 173.46875 1193.710938 L 177.605469 1198.71875 L 182.003906 1204.285156 L 186.507812 1210.335938 L 190.964844 1216.800781 L 195.261719 1223.582031 L 199.46875 1230.511719 L 203.695312 1237.398438 L 208.054688 1244.050781 L 212.65625 1250.277344 L 217.546875 1255.949219 L 222.484375 1261.175781 L 227.15625 1266.128906 L 231.25 1270.988281 L 234.453125 1275.917969 L 236.632812 1281.042969 L 238.351562 1286.261719 L 240.347656 1291.433594 L 243.371094 1296.402344 L 248.15625 1301.019531 L 255.195312 1305.1875 L 263.980469 1308.976562 L 273.75 1312.511719 L 283.738281 1315.921875 L 293.195312 1319.324219 L 301.550781 1322.792969 L 309.027344 1326.179688 L 316.054688 1329.277344 L 323.046875 1331.890625 L 330.425781 1333.8125 L 338.558594 1334.875 L 347.539062 1335.03125 L 357.417969 1334.257812 L 368.238281 1332.539062 L 380.039062 1329.855469 L 392.816406 1326.292969 L 406.355469 1322.335938 L 420.382812 1318.570312 L 434.640625 1315.585938 L 448.859375 1313.96875 L 462.730469 1314.132812 L 475.777344 1315.8125 L 487.46875 1318.566406 L 497.292969 1321.960938 L 504.71875 1325.554688 L 509.511719 1329 L 512.542969 1332.316406 L 514.976562 1335.621094 L 517.972656 1339.015625 L 522.691406 1342.621094 L 529.875 1346.492188 L 538.601562 1350.515625 L 547.542969 1354.507812 L 555.363281 1358.304688 L 560.730469 1361.730469 L 562.777344 1364.664062 L 562.53125 1367.160156 L 561.5 1369.320312 L 561.175781 1371.261719 L 563.058594 1373.078125 L 568.308594 1374.84375 L 576.730469 1376.488281 L 587.785156 1377.902344 L 600.933594 1378.976562 L 615.640625 1379.605469 L 631.332031 1379.695312 L 647.265625 1379.234375 L 662.667969 1378.214844 L 676.761719 1376.640625 L 688.773438 1374.503906 L 698.199219 1371.824219 L 705.640625 1368.691406 L 711.96875 1365.214844 L 718.054688 1361.492188 L 724.78125 1357.632812 L 732.75 1353.738281 L 741.519531 1349.871094 L 750.382812 1346.089844 L 758.636719 1342.453125 L 765.570312 1339.019531 L 770.738281 1335.8125 L 774.742188 1332.738281 L 778.4375 1329.671875 L 782.691406 1326.484375 L 788.359375 1323.050781 L 796.011719 1319.289062 L 805.050781 1315.320312 L 814.582031 1311.320312 L 823.71875 1307.453125 L 831.574219 1303.890625 L 837.523438 1300.742188 L 842.027344 1297.855469 L 845.808594 1295.007812 L 849.601562 1291.984375 L 854.128906 1288.566406 L 859.914062 1284.582031 L 866.636719 1280.050781 L 873.773438 1275.027344 L 880.800781 1269.578125 L 887.195312 1263.757812 L 892.558594 1257.65625 L 897.015625 1251.457031 L 900.816406 1245.378906 L 904.214844 1239.628906 L 907.460938 1234.421875 L 910.796875 1229.855469 L 914.453125 1225.5625 L 918.648438 1221.066406 L 923.601562 1215.886719 L 929.53125 1209.542969 L 936.511719 1201.746094 L 944.019531 1192.992188 L 951.382812 1183.96875 L 957.925781 1175.355469 L 962.980469 1167.839844 L 966.09375 1161.90625 L 967.707031 1157.238281 L 968.480469 1153.308594 L 969.074219 1149.605469 L 970.152344 1145.601562 L 972.203125 1140.867188 L 975.035156 1135.34375 L 978.273438 1129.046875 L 981.5625 1122.011719 L 984.53125 1114.257812 L 986.902344 1105.886719 L 988.746094 1097.289062 L 990.222656 1088.933594 L 991.492188 1081.285156 L 992.714844 1074.808594 L 994.015625 1069.804688 L 995.421875 1065.894531 L 996.914062 1062.542969 L 998.488281 1059.207031 L 1000.128906 1055.34375 L 1001.832031 1050.574219 L 1003.601562 1045.136719 L 1005.441406 1039.4375 L 1007.359375 1033.882812 L 1009.363281 1028.875 L 1011.449219 1024.691406 L 1013.578125 1021.125 L 1015.699219 1017.847656 L 1017.769531 1014.527344 L 1019.738281 1010.832031 L 1021.550781 1006.519531 L 1023.128906 1001.703125 L 1024.386719 996.585938 L 1025.238281 991.359375 L 1025.601562 986.230469 L 1025.441406 981.34375 L 1024.953125 976.644531 L 1024.382812 972.027344 L 1023.976562 967.378906 L 1023.980469 962.597656 L 1024.578125 957.605469 L 1025.679688 952.480469 L 1027.144531 947.34375 L 1028.824219 942.304688 L 1030.5625 937.480469 L 1032.234375 932.945312 L 1033.757812 928.617188 L 1035.070312 924.367188 L 1036.109375 920.082031 L 1036.816406 915.628906 L 1037.140625 910.917969 L 1037.089844 905.960938 L 1036.683594 900.792969 L 1035.949219 895.449219 L 1034.902344 889.972656 L 1033.617188 884.332031 L 1032.328125 878.230469 L 1031.324219 871.292969 L 1030.898438 863.152344 L 1031.335938 853.441406 L 1032.800781 842.007812 L 1034.996094 829.535156 L 1037.492188 816.929688 L 1039.871094 805.09375 L 1041.710938 794.925781 L 1042.679688 787.046875 L 1042.855469 780.941406 L 1042.40625 775.808594 L 1041.492188 770.855469 L 1040.292969 765.28125 L 1038.941406 758.523438 L 1037.476562 750.953125 L 1035.894531 743.183594 L 1034.210938 735.820312 L 1032.417969 729.476562 L 1030.542969 724.566406 L 1028.632812 720.71875 L 1026.757812 717.378906 L 1024.980469 713.980469 L 1023.371094 709.96875 L 1021.96875 704.925781 L 1020.710938 699.046875 L 1019.503906 692.675781 L 1018.261719 686.148438 L 1016.890625 679.8125 L 1015.332031 673.929688 L 1013.621094 668.484375 L 1011.816406 663.375 L 1009.984375 658.507812 L 1008.1875 653.785156 L 1006.472656 649.089844 L 1004.828125 644.21875 L 1003.234375 638.949219 L 1001.664062 633.058594 L 1000.097656 626.320312 L 998.507812 618.605469 L 996.875 610.128906 L 995.179688 601.195312 L 993.398438 592.109375 L 991.507812 583.183594 L 989.476562 574.6875 L 987.238281 566.746094 L 984.714844 559.464844 L 981.824219 552.933594 L 978.488281 547.253906 L 974.648438 542.441406 L 970.308594 538.21875 L 965.496094 534.21875 L 960.242188 530.089844 L 954.570312 525.464844 L 948.550781 520.113281 L 942.433594 514.3125 L 936.507812 508.460938 L 931.066406 502.96875 L 926.402344 498.230469 L 922.699219 494.523438 L 919.738281 491.589844 L 917.1875 489.042969 L 914.710938 486.496094 L 911.988281 483.558594 L 908.785156 479.929688 L 905.25 475.617188 L 901.628906 470.714844 L 898.175781 465.320312 L 895.136719 459.519531 L 892.667969 453.429688 L 890.597656 447.222656 L 888.648438 441.097656 L 886.554688 435.25 L 884.050781 429.875 L 880.960938 425.105469 L 877.5 420.820312 L 873.96875 416.832031 L 870.683594 412.964844 L 867.953125 409.027344 L 865.96875 404.890625 L 864.507812 400.621094 L 863.238281 396.332031 L 861.820312 392.140625 L 859.921875 388.167969 L 857.300781 384.496094 L 854.097656 381.101562 L 850.539062 377.941406 L 846.859375 374.960938 L 843.289062 372.109375 L 839.992188 369.371094 L 836.828125 366.820312 L 833.59375 364.574219 L 830.085938 362.75 L 826.089844 361.453125 L 821.53125 360.71875 L 816.808594 360.285156 L 812.453125 359.800781 L 808.996094 358.925781 L 806.964844 357.3125 L 806.308594 354.722656 L 804.648438 351.367188 L 799.027344 347.554688 L 786.492188 343.605469 L 764.078125 339.832031 L 755.996094 342.578125 "/>
<path style="fill:none;stroke-width:0.75;stroke-linecap:round;stroke-linejoin:round;stroke:rgb(0%,0%,0%);stroke-opacity:1;stroke-miterlimit:10;" d="M 272.25 465.148438 L 258.609375 470.175781 L 246.066406 474.746094 L 236.023438 479.128906 L 229.324219 483.484375 L 224.589844 487.488281 L 219.886719 490.707031 L 213.714844 492.949219 L 206.261719 494.988281 L 198.140625 497.859375 L 189.976562 502.585938 L 182.40625 509.625 L 176.164062 517.195312 L 172 522.949219 L 170.214844 525.375 L 169.242188 526.335938 L 167.058594 528.53125 L 162.191406 534.015625 L 155.359375 542.230469 L 147.835938 551.976562 L 140.882812 562.046875 L 135.421875 571.332031 L 130.941406 579.089844 L 126.585938 584.671875 L 121.859375 587.734375 L 117.75 589.128906 L 115.59375 590.007812 L 116.308594 591.328125 L 119.0625 593.289062 L 122.582031 595.894531 L 125.59375 599.152344 L 127.019531 602.992188 L 126.480469 607.074219 L 123.800781 610.992188 L 119.050781 614.480469 L 113.371094 617.886719 L 108.160156 621.695312 L 104.476562 626.246094 L 102.035156 631.28125 L 100.210938 636.382812 L 98.382812 641.148438 L 96.0625 645.296875 L 93.328125 649.101562 L 90.394531 652.972656 L 87.460938 657.195312 L 84.707031 661.527344 L 82.289062 665.597656 L 80.367188 669.042969 L 79.019531 671.785156 L 77.988281 674.925781 L 76.929688 679.859375 L 75.601562 687.453125 L 74.179688 696.492188 L 72.929688 705.230469 L 72.054688 712.289062 L 71.441406 717.71875 L 70.910156 721.941406 L 70.277344 725.367188 L 69.445312 728.472656 L 68.640625 731.984375 L 68.175781 736.679688 L 68.230469 743.023438 L 68.417969 750.144531 L 68.207031 756.855469 L 67.222656 762.269531 L 65.652344 766.699219 L 63.839844 770.765625 L 62.121094 775.09375 L 60.75 780.078125 L 59.621094 785.234375 L 58.535156 789.863281 L 57.339844 793.5 L 56.007812 796.660156 L 54.554688 800.09375 L 53.011719 804.355469 L 51.460938 809.214844 L 50.015625 814.238281 L 48.773438 818.988281 L 47.828125 823.230469 L 47.191406 827.492188 L 46.875 832.492188 L 46.8125 838.683594 L 46.703125 845.421875 L 46.175781 851.804688 L 44.863281 856.914062 L 42.621094 860.3125 L 40.195312 863.472656 L 38.5625 868.324219 L 38.398438 876.152344 L 39.21875 885.601562 L 40.246094 894.652344 L 40.871094 901.894531 L 41.160156 908.308594 L 41.351562 915.472656 L 41.6875 924.972656 L 42.261719 937.601562 L 42.660156 951.023438 L 42.316406 962.121094 L 40.890625 968.648438 L 38.902344 971.90625 L 37.085938 974.074219 L 36.082031 976.847656 L 36.109375 979.980469 L 37.289062 982.746094 L 39.75 984.410156 L 43.414062 984.585938 L 47.402344 984.269531 L 50.648438 984.789062 L 52.414062 987.089844 L 53.351562 990.515625 L 54.460938 994.027344 L 56.425781 996.816406 L 58.746094 999.074219 L 60.601562 1001.21875 L 61.1875 1003.6875 L 60.054688 1006.820312 L 58.203125 1010.625 L 57 1015.03125 L 57.488281 1019.972656 L 59.390625 1025.410156 L 62.109375 1031.300781 L 65.042969 1037.617188 L 67.730469 1044.207031 L 70.273438 1050.488281 L 72.917969 1055.761719 L 75.734375 1059.535156 L 78.09375 1062.171875 L 79.207031 1064.238281 L 78.664062 1066.273438 L 77.617188 1068.679688 L 77.609375 1071.84375 L 80.179688 1076.140625 L 86.246094 1081.773438 L 94.195312 1088.234375 L 101.789062 1094.839844 L 107.351562 1100.980469 L 111.46875 1106.375 L 115.285156 1110.800781 L 119.628906 1114.175781 L 124.105469 1116.863281 L 128 1119.355469 L 130.601562 1122.140625 L 131.523438 1125.566406 L 131.6875 1129.402344 L 132.339844 1133.28125 L 134.402344 1136.9375 L 137.53125 1140.527344 L 141.046875 1144.316406 L 144.378906 1148.511719 L 147.355469 1153.066406 L 149.902344 1157.867188 L 151.953125 1162.8125 L 153.558594 1167.761719 L 155.277344 1172.492188 L 157.796875 1176.75 L 161.511719 1180.363281 L 165.691406 1183.507812 L 169.320312 1186.441406 L 171.699219 1189.441406 L 173.433594 1192.839844 L 175.453125 1196.992188 L 178.679688 1202.257812 L 183.722656 1208.847656 L 189.925781 1216.402344 L 196.324219 1224.433594 L 202.09375 1232.449219 L 207.027344 1239.953125 L 211.058594 1246.464844 L 214.125 1251.496094 L 216.367188 1254.90625 L 218.707031 1257.953125 L 222.269531 1262.234375 L 227.734375 1268.8125 L 233.980469 1276.558594 L 239.453125 1283.804688 L 242.996094 1289.269531 L 245.089844 1293.277344 L 246.617188 1296.542969 L 248.464844 1299.785156 L 251.617188 1303.550781 L 257.429688 1307.710938 L 267.363281 1311.984375 L 281.882812 1316.101562 L 297.445312 1319.953125 L 309.523438 1323.449219 L 314.996094 1326.523438 L 316.386719 1329.183594 L 317.644531 1331.46875 L 322.703125 1333.398438 L 334.171875 1334.921875 L 349.332031 1335.613281 L 364.132812 1334.964844 L 375.5 1332.699219 L 384.273438 1329.414062 L 392.265625 1325.945312 L 400.847656 1322.945312 L 409.601562 1320.40625 L 417.652344 1318.15625 L 424.136719 1316.003906 L 428.460938 1313.679688 L 431.101562 1310.480469 L 432.828125 1305.605469 L 434.269531 1298.609375 L 435.609375 1290.464844 L 436.898438 1282.488281 L 438.191406 1276.007812 L 439.527344 1271.917969 L 440.898438 1269.46875 L 442.269531 1267.472656 L 443.617188 1264.984375 L 444.945312 1261.945312 L 446.273438 1258.53125 L 447.605469 1254.902344 L 448.945312 1251.167969 L 450.292969 1247.421875 L 451.644531 1243.753906 L 452.996094 1240.238281 L 454.34375 1236.851562 L 455.683594 1233.558594 L 457.007812 1230.304688 L 458.332031 1227.019531 L 459.671875 1223.625 L 461.035156 1220.09375 L 462.40625 1216.574219 L 463.765625 1213.269531 L 465.089844 1210.386719 L 466.375 1207.964844 L 467.664062 1205.414062 L 469.015625 1201.992188 L 470.464844 1197.214844 L 471.921875 1191.6875 L 473.28125 1186.277344 L 474.472656 1181.660156 L 475.601562 1177.757812 L 476.816406 1174.3125 L 478.269531 1171.054688 L 480.066406 1167.738281 L 482.183594 1164.207031 L 484.535156 1160.324219 L 487.039062 1156.003906 L 489.519531 1151.359375 L 491.78125 1146.558594 L 493.636719 1141.761719 L 494.976562 1137.144531 L 496.023438 1132.894531 L 497.085938 1129.199219 L 498.394531 1126.132812 L 499.875 1123.28125 L 501.367188 1120.117188 L 502.753906 1116.28125 L 504.054688 1112.148438 L 505.320312 1108.261719 L 506.605469 1105.167969 L 507.953125 1102.941406 L 509.335938 1099.710938 L 510.714844 1093.148438 L 512.0625 1081.71875 L 513.386719 1067.1875 L 514.707031 1052.117188 L 516.046875 1038.589844 L 517.394531 1026.667969 L 518.746094 1015.9375 L 520.09375 1005.96875 L 521.433594 996.503906 L 522.769531 987.953125 L 524.105469 980.898438 L 525.445312 975.617188 L 526.789062 971.210938 L 528.136719 966.480469 L 529.484375 960.570312 L 530.828125 953.976562 L 532.167969 947.523438 L 533.507812 942.046875 L 534.839844 938.109375 L 536.175781 935.175781 L 537.519531 932.441406 L 538.875 929.304688 L 540.226562 925.980469 L 541.574219 922.878906 L 542.902344 920.289062 L 544.226562 918 L 545.554688 915.679688 L 546.902344 912.996094 L 548.28125 909.757812 L 549.660156 906.351562 L 551.003906 903.3125 L 552.292969 900.976562 L 553.566406 898.890625 L 554.871094 896.402344 L 556.253906 892.871094 L 557.730469 887.4375 L 559.203125 878.4375 L 560.523438 863.996094 L 561.625 843.503906 L 562.699219 821.359375 L 563.992188 803.230469 L 565.667969 793.070312 L 567.484375 788.054688 L 569.121094 783.652344 L 570.242188 775.335938 L 570.535156 760.28125 L 569.734375 742.464844 L 567.589844 727.578125 L 564.070312 719.769531 L 559.996094 717.074219 L 556.402344 715.992188 L 554.015625 713.6875 L 552.3125 709.953125 L 550.464844 705.25 L 547.636719 700.039062 L 543.359375 694.714844 L 538.609375 689.449219 L 534.722656 684.34375 L 532.65625 679.480469 L 531.796875 674.847656 L 531.152344 670.40625 L 529.953125 666.109375 L 528.3125 661.917969 L 526.570312 657.789062 L 525.0625 653.675781 L 524 649.570312 L 523.09375 645.597656 L 521.921875 641.925781 L 520.214844 638.628906 L 518.289062 635.40625 L 516.609375 631.867188 L 515.636719 627.621094 L 515.484375 622.347656 L 514.832031 616.035156 L 512.011719 608.753906 L 506.03125 600.671875 L 498.613281 592.4375 L 492.171875 584.804688 L 488.488281 578.328125 L 486.847656 572.769531 L 485.910156 567.683594 L 484.332031 562.628906 L 481.117188 557.324219 L 476.640625 552.148438 L 471.613281 547.625 L 466.679688 544.101562 L 462.164062 541.132812 L 458.316406 538.082031 L 455.226562 534.433594 L 452.351562 530.144531 L 449 525.292969 L 444.472656 519.953125 L 438.347656 514.261719 L 431.3125 508.570312 L 424.324219 503.292969 L 418.175781 498.714844 L 412.988281 494.609375 L 408.714844 490.609375 L 405.105469 486.453125 L 401.105469 482.230469 L 395.464844 478.109375 L 386.917969 474.273438 L 375.113281 470.941406 L 363.265625 468.503906 L 355.492188 467.40625 L 353.222656 467.761719 L 347.183594 468.382812 L 325.421875 467.765625 L 275.980469 464.402344 L 272.25 465.148438 "/>
<path style="fill:none;stroke-width:0.75;stroke-linecap:round;stroke-linejoin:round;stroke:rgb(0%,0%,0%);stroke-opacity:1;stroke-miterlimit:10;" d="M 716.738281 504.523438 L 713.792969 506.328125 L 710.9375 508.546875 L 709.3125 511.171875 L 709.589844 514.148438 L 710.542969 517.234375 L 710.480469 520.144531 L 708.15625 522.730469 L 704.136719 525.40625 L 699.4375 528.71875 L 695.078125 533.214844 L 691.808594 539.078125 L 689.335938 544.992188 L 687.089844 549.265625 L 684.613281 550.660156 L 681.859375 549.734375 L 678.886719 547.496094 L 675.753906 544.78125 L 672.523438 541.761719 L 669.265625 538.4375 L 666.042969 534.808594 L 662.851562 531 L 659.378906 527.625 L 655.234375 525.429688 L 650.191406 524.960938 L 644.648438 526.011719 L 639.164062 528.203125 L 634.285156 531.132812 L 630.445312 534.464844 L 627.550781 538.03125 L 625.382812 541.714844 L 623.703125 545.421875 L 622.199219 549.132812 L 620.554688 552.863281 L 618.515625 556.621094 L 616.125 560.421875 L 613.492188 564.28125 L 610.742188 568.210938 L 607.972656 572.222656 L 605.230469 576.292969 L 602.554688 580.402344 L 599.957031 584.519531 L 597.355469 588.601562 L 594.652344 592.59375 L 591.816406 596.464844 L 589.085938 600.222656 L 586.777344 603.90625 L 585.195312 607.535156 L 584.546875 611.136719 L 584.582031 614.714844 L 584.953125 618.257812 L 585.410156 621.757812 L 586.148438 625.164062 L 587.460938 628.417969 L 589.640625 631.460938 L 592.898438 634.109375 L 597.117188 635.660156 L 602.078125 635.28125 L 607.496094 632.652344 L 612.738281 629.511719 L 617.089844 628.109375 L 619.996094 630.085938 L 621.515625 634.621094 L 621.855469 640.28125 L 621.226562 645.628906 L 619.875 649.636719 L 618.164062 652.910156 L 616.484375 656.453125 L 615.136719 660.984375 L 614.007812 666.039062 L 612.886719 670.878906 L 611.597656 674.976562 L 610.078125 678.75 L 608.289062 682.839844 L 606.207031 687.894531 L 603.765625 694.226562 L 600.820312 700.8125 L 597.195312 706.304688 L 592.808594 709.988281 L 587.953125 713.636719 L 583.023438 719.667969 L 578.40625 730.492188 L 574.4375 747.246094 L 571.269531 765.988281 L 568.996094 781.511719 L 567.621094 790.269531 L 566.757812 795.421875 L 565.917969 801.804688 L 564.734375 813.25 L 563.269531 829.628906 L 561.6875 849.804688 L 560.167969 872.648438 L 558.828125 896.632812 L 557.605469 918.644531 L 556.382812 935.167969 L 555.070312 944.027344 L 553.691406 948.394531 L 552.285156 952.78125 L 550.898438 961.695312 L 549.5625 978.128906 L 548.257812 999.007812 L 546.949219 1019.75 L 545.609375 1036.660156 L 544.25 1049.621094 L 542.890625 1059.417969 L 541.542969 1066.789062 L 540.203125 1072.304688 L 538.871094 1076.5 L 537.535156 1079.910156 L 536.195312 1083.019531 L 534.851562 1086.171875 L 533.503906 1089.652344 L 532.160156 1093.660156 L 530.820312 1097.972656 L 529.476562 1102.277344 L 528.136719 1106.316406 L 526.792969 1110.070312 L 525.453125 1113.59375 L 524.109375 1116.921875 L 522.769531 1120.109375 L 521.425781 1123.175781 L 520.085938 1126.15625 L 518.742188 1129.121094 L 517.402344 1132.304688 L 516.0625 1135.992188 L 514.71875 1140.460938 L 513.375 1145.832031 L 512.03125 1151.597656 L 510.6875 1157.089844 L 509.34375 1161.796875 L 508.003906 1165.800781 L 506.664062 1169.339844 L 505.324219 1172.644531 L 503.988281 1175.875 L 502.648438 1179.1875 L 501.300781 1182.726562 L 499.949219 1186.628906 L 498.601562 1190.96875 L 497.257812 1195.800781 L 495.929688 1201.109375 L 494.605469 1206.570312 L 493.265625 1211.773438 L 491.90625 1216.398438 L 490.539062 1220.449219 L 489.179688 1224.011719 L 487.855469 1227.167969 L 486.570312 1230.070312 L 485.273438 1233.160156 L 483.902344 1236.945312 L 482.433594 1241.960938 L 480.972656 1248.839844 L 479.671875 1258.25 L 478.671875 1270.847656 L 478.214844 1286.570312 L 478.917969 1302.421875 L 481.5 1314.675781 L 486.292969 1320.730469 L 492.136719 1322.507812 L 497.496094 1323.058594 L 501.269531 1324.832031 L 504.144531 1327.882812 L 507.246094 1331.671875 L 511.691406 1335.664062 L 518.230469 1339.4375 L 526.066406 1343.039062 L 534.03125 1346.636719 L 541.175781 1350.355469 L 547.4375 1354.140625 L 552.972656 1357.886719 L 557.839844 1361.488281 L 561.683594 1364.828125 L 564.046875 1367.773438 L 564.476562 1370.199219 L 563.09375 1372.027344 L 562.347656 1373.386719 L 565.265625 1374.464844 L 574.015625 1375.425781 L 587.277344 1376.40625 L 602.863281 1377.519531 L 618.589844 1378.886719 L 632.835938 1380.449219 L 646.234375 1381.421875 L 659.984375 1380.847656 L 674.726562 1378.121094 L 688.910156 1374.082031 L 700.421875 1369.933594 L 707.855469 1366.59375 L 712.632812 1363.871094 L 716.875 1361.304688 L 722.710938 1358.425781 L 731.5625 1354.894531 L 742.019531 1350.875 L 751.984375 1346.671875 L 759.804688 1342.550781 L 765.652344 1338.636719 L 770.164062 1335.035156 L 773.972656 1331.84375 L 777.742188 1329.082031 L 782.253906 1326.429688 L 788.328125 1323.484375 L 796.453125 1319.949219 L 805.824219 1315.972656 L 815.296875 1311.804688 L 823.898438 1307.679688 L 831.320312 1303.742188 L 837.414062 1300.117188 L 842.03125 1296.925781 L 845.300781 1294.203125 L 848.441406 1291.621094 L 852.960938 1288.761719 L 859.839844 1285.269531 L 868 1281.027344 L 875.851562 1275.972656 L 882.152344 1270.117188 L 887.125 1263.722656 L 891.335938 1257.121094 L 895.367188 1250.636719 L 899.640625 1244.570312 L 903.984375 1239.054688 L 908.082031 1234.199219 L 911.738281 1229.996094 L 915.265625 1225.992188 L 919.101562 1221.628906 L 923.683594 1216.335938 L 929.332031 1209.703125 L 935.917969 1201.917969 L 943.203125 1193.328125 L 950.820312 1184.328125 L 957.894531 1175.546875 L 963.425781 1167.671875 L 966.714844 1161.230469 L 968.246094 1156.085938 L 968.800781 1151.941406 L 969.152344 1148.5 L 969.996094 1145.382812 L 971.621094 1141.914062 L 974.242188 1137.328125 L 977.878906 1131.0625 L 981.847656 1123.328125 L 985.289062 1114.53125 L 987.570312 1105.121094 L 988.933594 1095.746094 L 989.851562 1087.089844 L 990.792969 1079.839844 L 992.128906 1074.445312 L 993.808594 1070.402344 L 995.683594 1066.972656 L 997.601562 1063.507812 L 999.410156 1059.746094 L 1000.957031 1055.515625 L 1002.089844 1050.65625 L 1002.8125 1045.097656 L 1003.714844 1039.222656 L 1005.539062 1033.496094 L 1008.722656 1028.351562 L 1012.476562 1023.972656 L 1015.695312 1020.5 L 1017.578125 1017.910156 L 1018.484375 1015.519531 L 1019.078125 1012.492188 L 1020.023438 1007.996094 L 1021.746094 1001.605469 L 1023.769531 994.597656 L 1025.390625 988.671875 L 1026.074219 984.960938 L 1025.984375 982.355469 L 1025.460938 979.191406 L 1024.824219 974.242188 L 1024.28125 968.023438 L 1024.027344 961.5 L 1024.257812 955.636719 L 1025.109375 951.082031 L 1026.503906 947.265625 L 1028.308594 943.296875 L 1030.371094 938.535156 L 1032.488281 933.28125 L 1034.425781 928.085938 L 1035.960938 923.488281 L 1036.910156 919.78125 L 1037.242188 916.265625 L 1036.988281 911.988281 L 1036.222656 906.324219 L 1035.269531 899.933594 L 1034.515625 893.820312 L 1034.222656 888.683594 L 1034.171875 884.058594 L 1034.027344 879.1875 L 1033.449219 873.3125 L 1032.308594 865.734375 L 1031.304688 855.933594 L 1031.339844 843.441406 L 1033.042969 828.304688 L 1035.914062 812.621094 L 1039.171875 798.988281 L 1042.039062 790.023438 L 1043.855469 787.105469 L 1044.464844 786.765625 L 1043.828125 784.3125 L 1042.046875 776.398438 L 1039.714844 765.066406 L 1037.574219 753.714844 L 1036.164062 745.035156 L 1035.242188 738.878906 L 1034.386719 734.414062 L 1033.164062 730.789062 L 1031.289062 727.277344 L 1029.023438 723.597656 L 1026.769531 719.582031 L 1024.84375 715.070312 L 1023.234375 709.933594 L 1021.839844 704.054688 L 1020.558594 697.433594 L 1019.328125 690.578125 L 1018.085938 684.121094 L 1016.769531 678.695312 L 1015.328125 674.625 L 1013.773438 671.035156 L 1012.125 666.730469 L 1010.398438 660.875 L 1008.582031 654.011719 L 1006.660156 647.027344 L 1004.613281 640.808594 L 1002.488281 635.90625 L 1000.585938 631.492188 L 999.269531 626.40625 L 998.699219 619.8125 L 998.222656 612.222656 L 996.980469 604.46875 L 994.390625 597.320312 L 990.976562 591.25 L 987.539062 586.652344 L 984.882812 583.929688 L 983.222656 582.941406 L 980.457031 581.410156 L 973.90625 576.507812 L 962.03125 566.542969 L 947.914062 554.359375 L 935.773438 543.910156 L 928.769531 538.199219 L 925.757812 536.339844 L 924.523438 536.480469 L 922.847656 536.769531 L 919.09375 535.796875 L 913.933594 533.898438 L 908.609375 531.851562 L 904.074219 530.265625 L 900.074219 529.074219 L 896.058594 528.042969 L 891.484375 526.941406 L 886 525.597656 L 880.085938 524.109375 L 874.421875 522.621094 L 869.511719 521.25 L 865.15625 519.96875 L 860.984375 518.695312 L 856.714844 517.375 L 852.46875 516.015625 L 848.464844 514.644531 L 844.921875 513.285156 L 841.761719 511.949219 L 837.6875 510.621094 L 831.113281 509.277344 L 820.074219 507.902344 L 801.152344 506.558594 L 770.5625 505.320312 L 724.519531 504.265625 L 716.738281 504.523438 "/>
<path style="fill:none;stroke-width:0.75;stroke-linecap:round;stroke-linejoin:round;stroke:rgb(0%,0%,0%);stroke-opacity:1;stroke-miterlimit:10;" d="M 587.523438 488.4375 L 583.5 494.929688 L 581.523438 501.148438 L 577.078125 505.628906 L 572.042969 508.230469 L 569.015625 510.371094 L 569.871094 513.40625 L 573.570312 517 L 574.507812 520.046875 L 572.3125 523.074219 L 567.015625 527.355469 L 557.820312 533.808594 L 555.496094 538.976562 L 557.628906 542.46875 L 559.023438 545.054688 L 559.976562 547.445312 L 559.335938 549.871094 L 557.425781 552.878906 L 555.773438 557.261719 L 557.449219 563.539062 L 561.820312 569.703125 L 563.355469 575.070312 L 559.320312 579.730469 L 558.523438 584.59375 L 559.984375 590.230469 L 562.417969 596.84375 L 565.058594 603.046875 L 567.488281 607.730469 L 570.363281 612.023438 L 573.140625 615.683594 L 576.886719 617.003906 L 581.640625 614.734375 L 583.359375 610.625 L 584.472656 606.992188 L 585.699219 603.972656 L 587.078125 600.953125 L 589.714844 596.96875 L 593.617188 592.132812 L 597.46875 587.253906 L 600.199219 582.972656 L 602.574219 579.003906 L 605.121094 575.039062 L 607.953125 570.992188 L 610.902344 566.875 L 613.347656 562.851562 L 615.980469 559.019531 L 618.261719 555.652344 L 619.5625 552.871094 L 620.582031 550.035156 L 622.070312 546.675781 L 623.519531 542.960938 L 624.726562 539.5 L 625.84375 536.820312 L 627.820312 534.667969 L 631.425781 532.421875 L 635.589844 530.210938 L 638.921875 528.320312 L 641.347656 526.703125 L 644.941406 524.738281 L 649.269531 522.261719 L 652.394531 519.011719 L 650.859375 514.351562 L 645.863281 509.863281 L 641.078125 506.628906 L 638.75 505.015625 L 635.96875 503.761719 L 634.082031 501.871094 L 632.710938 499.359375 L 631.941406 496.410156 L 632.398438 493.117188 L 620.320312 490.089844 L 590.632812 487.710938 L 587.523438 488.4375 "/>
<path style="fill:none;stroke-width:0.75;stroke-linecap:round;stroke-linejoin:round;stroke:rgb(0%,0%,0%);stroke-opacity:1;stroke-miterlimit:10;" d="M 755.757812 341.972656 L 750.207031 346.660156 L 745.699219 350.382812 L 742.53125 353.777344 L 740.375 356.960938 L 738.539062 359.929688 L 735.671875 362.933594 L 731.472656 365.617188 L 726.574219 367.78125 L 723.4375 370.695312 L 722.636719 376.039062 L 723.90625 385.070312 L 726.1875 396.800781 L 728.253906 407.757812 L 729.070312 414.945312 L 728.445312 419.148438 L 726.820312 421.523438 L 724.769531 423.003906 L 722.78125 424.550781 L 721.132812 427.898438 L 720.144531 434.359375 L 720.316406 442.535156 L 721.375 449.722656 L 722.765625 454.367188 L 723.78125 459.242188 L 723.84375 464.628906 L 722.664062 469.9375 L 720.828125 475.058594 L 719.226562 480.332031 L 718.90625 485.609375 L 721.730469 489.023438 L 730.199219 490.492188 L 744.867188 490.445312 L 765.066406 489.601562 L 787.242188 489.53125 L 806.332031 490.324219 L 819.0625 491.628906 L 829.25 493.078125 L 838.988281 494.5625 L 849.4375 496.042969 L 861.554688 497.453125 L 875.675781 498.375 L 890.765625 498.40625 L 902.273438 497.597656 L 909.871094 496.355469 L 914.492188 494.945312 L 916.578125 492.855469 L 915.933594 489.261719 L 912.71875 483.917969 L 908.667969 478.65625 L 904.394531 474.5 L 900.347656 471.390625 L 897.574219 466.96875 L 895.785156 460.808594 L 894.207031 453.34375 L 891.964844 445.746094 L 888.957031 439.511719 L 885.457031 435.269531 L 882.308594 430.75 L 879.992188 425.90625 L 877.828125 421.21875 L 874.953125 417.003906 L 871.183594 413.191406 L 867.589844 409.839844 L 865.183594 406.863281 L 863.648438 403.648438 L 862.292969 400.265625 L 860.402344 396.742188 L 857.3125 392.210938 L 852.640625 386.082031 L 846.464844 378.40625 L 840.183594 370.972656 L 834.550781 365.144531 L 829.9375 361.839844 L 826.0625 360.914062 L 822.015625 361.160156 L 817.210938 361.265625 L 812.640625 360.574219 L 809.058594 359.128906 L 806.945312 357.101562 L 806.007812 354.53125 L 804.339844 351.320312 L 798.894531 347.453125 L 785.320312 343.429688 L 765.375 339.828125 L 755.757812 341.972656 "/>
</g>
</svg>
