<?xml version="1.0" encoding="UTF-8"?>
<svg xmlns="http://www.w3.org/2000/svg" xmlns:xlink="http://www.w3.org/1999/xlink" width="1428pt" height="1605pt" viewBox="0 0 1428 1605" version="1.1">
<g id="surface244">
<rect x="0" y="0" width="1428" height="1605" style="fill:rgb(100%,100%,100%);fill-opacity:1;stroke:none;"/>
<path style="fill:none;stroke-width:0.75;stroke-linecap:round;stroke-linejoin:round;stroke:rgb(0%,0%,0%);stroke-opacity:1;stroke-miterlimit:10;" d="M 783.644531 313.554688 L 778.867188 317.28125 L 771.671875 322.265625 L 763.058594 327.652344 L 754.03125 332.601562 L 745.441406 336.488281 L 737.566406 339.621094 L 730.546875 342.519531 L 724.507812 345.714844 L 719.585938 349.738281 L 715.859375 354.972656 L 713.167969 361.230469 L 711.308594 368.179688 L 710.0625 375.484375 L 709.222656 382.820312 L 708.597656 389.933594 L 708.101562 396.941406 L 707.660156 404.03125 L 707.210938 411.398438 L 706.6875 419.246094 L 706.046875 427.714844 L 705.367188 436.761719 L 704.757812 446.285156 L 704.324219 456.191406 L 704.175781 466.386719 L 704.332031 476.734375 L 704.480469 486.941406 L 704.21875 496.679688 L 703.148438 505.609375 L 700.875 513.40625 L 697.101562 519.734375 L 691.957031 524.261719 L 685.679688 526.660156 L 678.507812 526.601562 L 670.671875 523.75 L 662.527344 518.015625 L 654.875 510.285156 L 648.628906 501.667969 L 644.703125 493.289062 L 644.015625 486.269531 L 646.96875 481.410156 L 651.957031 478.273438 L 656.851562 476.101562 L 659.53125 474.132812 L 657.875 471.609375 L 650.453125 468.050781 L 638.597656 464.082031 L 624.332031 460.601562 L 609.675781 458.507812 L 596.65625 458.699219 L 586.835938 461.777344 L 579.953125 467.148438 L 575.292969 473.914062 L 572.136719 481.183594 L 569.761719 488.058594 L 567.597656 493.847656 L 565.617188 498.628906 L 563.941406 502.695312 L 562.6875 506.320312 L 561.972656 509.792969 L 561.84375 513.332031 L 562.015625 516.902344 L 562.140625 520.40625 L 561.863281 523.75 L 560.824219 526.828125 L 558.808594 529.59375 L 556.144531 532.183594 L 553.296875 534.792969 L 550.730469 537.601562 L 548.90625 540.796875 L 548.164062 544.5 L 548.320312 548.546875 L 549.058594 552.707031 L 550.074219 556.75 L 551.046875 560.441406 L 551.738281 563.628906 L 552.171875 566.492188 L 552.449219 569.277344 L 552.660156 572.246094 L 552.894531 575.613281 L 553.191406 579.480469 L 553.585938 583.902344 L 554.105469 588.945312 L 554.789062 594.671875 L 555.742188 601.074219 L 557.394531 607.867188 L 560.253906 614.695312 L 564.824219 621.203125 L 571.609375 627.039062 L 580.8125 631.933594 L 591.378906 635.980469 L 601.953125 639.359375 L 611.183594 642.257812 L 617.707031 644.851562 L 620.558594 647.339844 L 620.320312 649.972656 L 617.96875 653.011719 L 614.476562 656.71875 L 610.8125 661.363281 L 607.773438 667.082031 L 605.414062 673.523438 L 603.613281 680.207031 L 602.246094 686.65625 L 601.191406 692.390625 L 600.292969 697.050781 L 599.296875 700.742188 L 597.917969 703.683594 L 595.878906 706.097656 L 592.894531 708.203125 L 588.785156 710.117188 L 583.8125 711.5625 L 578.34375 712.15625 L 572.738281 711.515625 L 567.367188 709.257812 L 562.519531 705.183594 L 558.175781 699.8125 L 554.25 693.851562 L 550.652344 688.003906 L 547.285156 682.972656 L 544.089844 679.25 L 541.085938 676.488281 L 538.328125 674.140625 L 535.867188 671.644531 L 533.75 668.449219 L 532.007812 664.148438 L 530.558594 658.9375 L 529.285156 653.164062 L 528.089844 647.171875 L 526.859375 641.304688 L 525.515625 635.84375 L 524.09375 630.792969 L 522.65625 626.105469 L 521.269531 621.710938 L 519.996094 617.558594 L 518.863281 613.609375 L 517.753906 609.882812 L 516.511719 606.421875 L 514.988281 603.273438 L 513.023438 600.472656 L 510.523438 597.996094 L 507.613281 595.574219 L 504.484375 592.859375 L 501.3125 589.515625 L 498.292969 585.203125 L 495.527344 579.710938 L 492.804688 573.367188 L 489.84375 566.632812 L 486.355469 559.96875 L 482.050781 553.832031 L 476.800781 548.582031 L 471.097656 544.152344 L 465.59375 540.386719 L 460.9375 537.113281 L 457.777344 534.167969 L 456.441406 531.378906 L 455.984375 528.554688 L 455.128906 525.480469 L 452.605469 521.960938 L 447.566406 517.875 L 440.851562 513.457031 L 433.726562 509.03125 L 427.457031 504.914062 L 423.304688 501.429688 L 422.058594 498.769531 L 422.550781 496.582031 L 423.132812 494.398438 L 422.160156 491.738281 L 417.984375 488.125 L 409.292969 483.304688 L 396.089844 477.921875 L 378.714844 472.84375 L 357.5 468.941406 L 332.789062 467.078125 L 305.257812 467.835938 L 276.960938 470.652344 L 250.28125 474.671875 L 227.613281 479.046875 L 211.347656 482.914062 L 203.042969 485.652344 L 200.925781 487.539062 L 202.390625 489.066406 L 204.835938 490.734375 L 205.648438 493.046875 L 202.878906 496.367188 L 197.160156 500.503906 L 189.78125 505.144531 L 182.027344 509.96875 L 175.1875 514.652344 L 170.210938 518.96875 L 166.726562 523.03125 L 164.019531 527.042969 L 161.382812 531.210938 L 158.101562 535.734375 L 153.691406 540.742188 L 148.523438 546.066406 L 143.195312 551.464844 L 138.296875 556.6875 L 134.425781 561.496094 L 131.984375 565.753906 L 130.585938 569.746094 L 129.65625 573.875 L 128.625 578.535156 L 126.910156 584.128906 L 124.097656 590.90625 L 120.417969 598.519531 L 116.253906 606.476562 L 111.992188 614.28125 L 108.027344 621.445312 L 104.644531 627.601562 L 101.75 632.90625 L 99.160156 637.632812 L 96.675781 642.074219 L 94.109375 646.507812 L 91.335938 651.144531 L 88.476562 655.898438 L 85.707031 660.628906 L 83.214844 665.171875 L 81.183594 669.382812 L 79.726562 673.152344 L 78.703125 676.570312 L 77.90625 679.765625 L 77.125 682.875 L 76.152344 686.03125 L 74.847656 689.394531 L 73.335938 693.246094 L 71.808594 697.90625 L 70.457031 703.683594 L 69.472656 710.894531 L 68.972656 719.621094 L 68.78125 729.070312 L 68.648438 738.21875 L 68.316406 746.042969 L 67.597656 751.804688 L 66.542969 755.90625 L 65.261719 759.035156 L 63.867188 761.871094 L 62.464844 765.109375 L 61.140625 769.25 L 59.875 774.101562 L 58.621094 779.285156 L 57.324219 784.429688 L 55.9375 789.160156 L 54.441406 793.199219 L 52.882812 796.6875 L 51.339844 799.867188 L 49.890625 802.976562 L 48.613281 806.253906 L 47.558594 809.914062 L 46.6875 814.054688 L 45.941406 818.742188 L 45.25 824.046875 L 44.554688 830.03125 L 43.804688 836.714844 L 43.015625 843.890625 L 42.214844 851.296875 L 41.421875 858.671875 L 40.667969 865.757812 L 39.984375 872.371094 L 39.390625 878.671875 L 38.917969 884.894531 L 38.59375 891.277344 L 38.445312 898.054688 L 38.488281 905.417969 L 38.714844 913.332031 L 39.089844 921.722656 L 39.59375 930.503906 L 40.199219 939.597656 L 40.894531 948.871094 L 41.726562 957.992188 L 42.761719 966.566406 L 44.054688 974.214844 L 45.671875 980.546875 L 47.632812 985.308594 L 49.808594 988.773438 L 52.027344 991.34375 L 54.125 993.421875 L 55.933594 995.417969 L 57.308594 997.640625 L 58.234375 1000.0625 L 58.722656 1002.558594 L 58.789062 1005 L 58.441406 1007.269531 L 57.738281 1009.300781 L 56.914062 1011.265625 L 56.242188 1013.386719 L 56.003906 1015.898438 L 56.472656 1019.027344 L 57.832031 1022.917969 L 59.882812 1027.390625 L 62.332031 1032.171875 L 64.882812 1037 L 67.242188 1041.609375 L 69.171875 1045.777344 L 70.648438 1049.488281 L 71.695312 1052.773438 L 72.34375 1055.664062 L 72.625 1058.1875 L 72.621094 1060.421875 L 72.648438 1062.621094 L 73.074219 1065.085938 L 74.269531 1068.117188 L 76.597656 1072.011719 L 80.308594 1076.960938 L 85.144531 1082.691406 L 90.726562 1088.820312 L 96.671875 1094.964844 L 102.605469 1100.742188 L 108.199219 1105.871094 L 113.375 1110.449219 L 118.109375 1114.6875 L 122.382812 1118.789062 L 126.179688 1122.914062 L 129.542969 1127.105469 L 132.527344 1131.359375 L 135.175781 1135.675781 L 137.546875 1140.054688 L 139.703125 1144.492188 L 141.769531 1148.980469 L 143.886719 1153.507812 L 146.191406 1158.066406 L 148.824219 1162.640625 L 151.859375 1167.199219 L 155.109375 1171.601562 L 158.324219 1175.695312 L 161.25 1179.324219 L 163.636719 1182.324219 L 165.339844 1184.632812 L 166.628906 1186.5625 L 167.886719 1188.511719 L 169.488281 1190.878906 L 171.808594 1194.074219 L 175.109375 1198.371094 L 179.148438 1203.558594 L 183.558594 1209.304688 L 187.976562 1215.269531 L 192.046875 1221.121094 L 195.507812 1226.597656 L 198.546875 1231.714844 L 201.453125 1236.5625 L 204.53125 1241.226562 L 208.066406 1245.796875 L 212.246094 1250.355469 L 216.84375 1254.976562 L 221.519531 1259.722656 L 225.929688 1264.65625 L 229.738281 1269.847656 L 232.757812 1275.324219 L 235.417969 1280.988281 L 238.289062 1286.71875 L 241.957031 1292.382812 L 246.988281 1297.851562 L 253.816406 1303.03125 L 262.234375 1307.957031 L 271.898438 1312.691406 L 282.453125 1317.304688 L 293.550781 1321.859375 L 304.878906 1326.371094 L 316.3125 1330.632812 L 327.773438 1334.382812 L 339.167969 1337.363281 L 350.425781 1339.316406 L 361.449219 1340.046875 L 372.132812 1339.652344 L 382.363281 1338.292969 L 392.03125 1336.132812 L 401.019531 1333.328125 L 409.257812 1330.054688 L 416.839844 1326.503906 L 423.898438 1322.878906 L 430.574219 1319.382812 L 437 1316.214844 L 443.308594 1313.570312 L 449.621094 1311.621094 L 456.054688 1310.535156 L 462.730469 1310.484375 L 469.761719 1311.625 L 477.210938 1314.046875 L 484.90625 1317.480469 L 492.621094 1321.582031 L 500.132812 1326 L 507.207031 1330.382812 L 513.671875 1334.441406 L 519.570312 1338.097656 L 524.988281 1341.335938 L 530.03125 1344.132812 L 534.78125 1346.46875 L 539.292969 1348.363281 L 543.414062 1349.972656 L 546.957031 1351.480469 L 549.71875 1353.078125 L 551.683594 1354.9375 L 553.546875 1357.152344 L 556.171875 1359.800781 L 560.429688 1362.957031 L 567.191406 1366.695312 L 577.058594 1370.992188 L 589.578125 1375.398438 L 604.042969 1379.367188 L 619.734375 1382.351562 L 635.9375 1383.804688 L 651.992188 1383.347656 L 667.449219 1381.308594 L 681.90625 1378.191406 L 694.957031 1374.5 L 706.210938 1370.730469 L 715.433594 1367.28125 L 723.085938 1364.09375 L 729.800781 1361.007812 L 736.210938 1357.863281 L 742.945312 1354.488281 L 750.449219 1350.78125 L 758.429688 1346.847656 L 766.390625 1342.847656 L 773.84375 1338.941406 L 780.308594 1335.285156 L 785.492188 1331.992188 L 789.875 1328.949219 L 794.136719 1325.992188 L 798.964844 1322.953125 L 805.035156 1319.667969 L 812.78125 1316.027344 L 821.644531 1312.132812 L 830.816406 1308.136719 L 839.492188 1304.203125 L 846.863281 1300.480469 L 852.355469 1297.078125 L 856.347656 1293.90625 L 859.4375 1290.828125 L 862.242188 1287.707031 L 865.359375 1284.40625 L 869.242188 1280.828125 L 873.671875 1277.042969 L 878.273438 1273.164062 L 882.664062 1269.304688 L 886.476562 1265.578125 L 889.460938 1262.039062 L 891.90625 1258.535156 L 894.234375 1254.851562 L 896.867188 1250.773438 L 900.226562 1246.09375 L 904.59375 1240.683594 L 909.664062 1234.800781 L 915.003906 1228.785156 L 920.175781 1222.972656 L 924.734375 1217.707031 L 928.394531 1213.195312 L 931.453125 1209.113281 L 934.371094 1204.996094 L 937.589844 1200.386719 L 941.5625 1194.828125 L 946.574219 1188.042969 L 952.203125 1180.527344 L 957.855469 1172.960938 L 962.945312 1166.015625 L 966.878906 1160.378906 L 969.261719 1156.496094 L 970.476562 1153.871094 L 971.101562 1151.785156 L 971.710938 1149.519531 L 972.882812 1146.34375 L 975.035156 1141.714844 L 977.917969 1135.820312 L 981.128906 1129.015625 L 984.257812 1121.660156 L 986.972656 1114.082031 L 989.261719 1106.496094 L 991.179688 1099.082031 L 992.789062 1092.015625 L 994.144531 1085.476562 L 995.339844 1079.554688 L 996.554688 1073.953125 L 997.996094 1068.285156 L 999.871094 1062.15625 L 1002.394531 1055.1875 L 1005.675781 1047.136719 L 1009.433594 1038.382812 L 1013.289062 1029.457031 L 1016.867188 1020.886719 L 1019.785156 1013.210938 L 1021.773438 1006.828125 L 1022.972656 1001.628906 L 1023.632812 997.382812 L 1024 993.851562 L 1024.324219 990.800781 L 1024.796875 987.96875 L 1025.421875 984.988281 L 1026.148438 981.464844 L 1026.925781 976.996094 L 1027.699219 971.195312 L 1028.449219 963.851562 L 1029.246094 955.523438 L 1030.191406 946.964844 L 1031.378906 938.925781 L 1032.910156 932.152344 L 1034.828125 927.148438 L 1036.976562 923.402344 L 1039.136719 920.148438 L 1041.097656 916.625 L 1042.640625 912.070312 L 1043.609375 905.980469 L 1044.027344 898.890625 L 1043.976562 891.589844 L 1043.542969 884.871094 L 1042.796875 879.527344 L 1041.832031 875.980469 L 1040.75 873.183594 L 1039.667969 869.710938 L 1038.695312 864.152344 L 1037.949219 855.082031 L 1037.503906 841.625 L 1037.316406 825.097656 L 1037.3125 807.351562 L 1037.414062 790.246094 L 1037.546875 775.632812 L 1037.632812 764.855469 L 1037.578125 757.171875 L 1037.292969 751.332031 L 1036.683594 746.082031 L 1035.660156 740.167969 L 1034.195312 732.664062 L 1032.53125 723.941406 L 1030.988281 714.703125 L 1029.867188 705.65625 L 1029.484375 697.496094 L 1030.027344 690.78125 L 1031.1875 685.445312 L 1032.539062 681.273438 L 1033.648438 678.054688 L 1034.082031 675.578125 L 1033.535156 673.613281 L 1032.160156 671.890625 L 1030.242188 670.113281 L 1028.054688 668 L 1025.878906 665.261719 L 1023.953125 661.71875 L 1022.335938 657.648438 L 1021.042969 653.433594 L 1020.09375 649.453125 L 1019.511719 646.097656 L 1019.289062 643.597656 L 1019.339844 641.589844 L 1019.554688 639.558594 L 1019.828125 636.984375 L 1020.042969 633.476562 L 1020.070312 629.171875 L 1019.761719 624.320312 L 1018.976562 619.175781 L 1017.574219 613.992188 L 1015.472656 608.960938 L 1012.847656 603.984375 L 1009.925781 598.890625 L 1006.9375 593.515625 L 1004.125 587.699219 L 1001.636719 581.335938 L 999.347656 574.597656 L 997.058594 567.722656 L 994.566406 560.953125 L 991.667969 554.519531 L 988.21875 548.605469 L 984.308594 543.128906 L 980.085938 537.957031 L 975.6875 532.941406 L 971.273438 527.949219 L 966.945312 522.902344 L 962.691406 517.960938 L 958.46875 513.347656 L 954.21875 509.292969 L 949.902344 506.015625 L 945.484375 503.628906 L 941 501.789062 L 936.507812 500.042969 L 932.0625 497.9375 L 927.714844 495.019531 L 923.523438 490.980469 L 919.539062 486.105469 L 915.820312 480.835938 L 912.421875 475.601562 L 909.394531 470.839844 L 906.773438 466.871094 L 904.53125 463.5625 L 902.609375 460.679688 L 900.964844 457.976562 L 899.542969 455.210938 L 898.28125 452.171875 L 897.070312 448.792969 L 895.796875 445.03125 L 894.335938 440.851562 L 892.570312 436.210938 L 890.441406 431.113281 L 888.089844 425.722656 L 885.722656 420.242188 L 883.542969 414.882812 L 881.75 409.839844 L 880.453125 405.25 L 879.367188 400.921875 L 878.105469 396.59375 L 876.289062 392.011719 L 873.535156 386.914062 L 869.582031 381.136719 L 864.636719 374.933594 L 859.027344 368.65625 L 853.082031 362.664062 L 847.132812 357.308594 L 841.441406 352.839844 L 836.003906 349.097656 L 830.761719 345.8125 L 825.652344 342.71875 L 820.601562 339.550781 L 815.597656 336.125 L 810.78125 332.570312 L 806.34375 329.085938 L 802.46875 325.890625 L 799.34375 323.1875 L 797.015625 321.097656 L 794.945312 319.402344 L 792.453125 317.804688 L 788.859375 316 L 783.476562 313.683594 L 783.644531 313.554688 "/>
<path style="fill:none;stroke-width:0.75;stroke-linecap:round;stroke-linejoin:round;stroke:rgb(0%,0%,0%);stroke-opacity:1;stroke-miterlimit:10;" d="M 258.503906 465.242188 L 246.625 470.144531 L 236.402344 474.65625 L 227.558594 478.820312 L 219.929688 482.65625 L 213.796875 486.03125 L 209.550781 488.796875 L 207.265625 490.859375 L 205.714844 492.4375 L 203.363281 493.8125 L 199.066406 495.359375 L 193.273438 497.835938 L 186.835938 502.085938 L 180.582031 508.507812 L 175.207031 515.691406 L 171.378906 521.785156 L 169.351562 525.5 L 167.707031 527.863281 L 164.605469 530.472656 L 158.808594 534.550781 L 151.464844 539.824219 L 144.308594 545.652344 L 139.085938 551.382812 L 136.914062 556.527344 L 136.417969 561.226562 L 135.585938 565.765625 L 133 570.386719 L 129.542969 575.066406 L 126.683594 579.734375 L 125.355469 584.449219 L 124.386719 589.804688 L 122.0625 596.53125 L 117.292969 604.996094 L 111.417969 614.140625 L 106.398438 622.542969 L 103.617188 629.113281 L 102.148438 634.085938 L 100.480469 638.023438 L 97.523438 641.507812 L 93.816406 645.175781 L 90.324219 649.6875 L 87.757812 655.414062 L 85.886719 661.617188 L 84.230469 667.265625 L 82.3125 671.335938 L 79.882812 673.285156 L 77.550781 674.476562 L 76.15625 676.753906 L 76.191406 681.355469 L 76.742188 687.0625 L 76.554688 692.058594 L 74.777344 695.175781 L 72.132812 697.847656 L 69.753906 702.167969 L 68.507812 709.621094 L 68.207031 719.226562 L 68.410156 729.398438 L 68.695312 738.730469 L 68.742188 746.550781 L 68.238281 752.371094 L 67.007812 756.007812 L 65.332031 758.472656 L 63.628906 761.089844 L 62.207031 764.867188 L 61.011719 769.582031 L 59.871094 774.699219 L 58.628906 779.6875 L 57.183594 784.160156 L 55.660156 788.304688 L 54.246094 792.449219 L 53.058594 796.789062 L 51.933594 800.984375 L 50.636719 804.554688 L 49.027344 807.242188 L 47.339844 809.660156 L 45.902344 812.640625 L 44.964844 816.871094 L 44.476562 822.460938 L 44.304688 829.375 L 44.28125 837.433594 L 44.113281 845.828125 L 43.453125 853.609375 L 42.101562 860.09375 L 40.425781 865.667969 L 38.929688 870.984375 L 38.121094 876.710938 L 38.304688 883.335938 L 38.992188 890.71875 L 39.503906 898.554688 L 39.351562 906.574219 L 38.84375 914.652344 L 38.488281 922.695312 L 38.6875 930.691406 L 39.445312 938.902344 L 40.667969 947.664062 L 42.230469 957.089844 L 43.878906 966.394531 L 45.328125 974.5625 L 46.398438 980.839844 L 47.347656 985.492188 L 48.542969 989.054688 L 50.273438 991.957031 L 52.492188 994.320312 L 55.078125 996.15625 L 57.824219 997.566406 L 60.199219 998.917969 L 61.574219 1000.65625 L 61.332031 1003.222656 L 59.191406 1006.808594 L 56.242188 1010.648438 L 53.90625 1013.726562 L 53.300781 1015.390625 L 54.3125 1016.457031 L 56.503906 1018.09375 L 59.40625 1021.222656 L 62.367188 1025.707031 L 64.6875 1031.160156 L 65.90625 1037.109375 L 66.535156 1042.796875 L 67.316406 1047.382812 L 68.789062 1050.339844 L 70.644531 1052.351562 L 72.371094 1054.414062 L 73.542969 1057.253906 L 74.109375 1060.527344 L 74.121094 1063.625 L 73.757812 1066.148438 L 73.761719 1068.566406 L 75.015625 1071.554688 L 78.40625 1075.792969 L 84.371094 1081.683594 L 91.582031 1088.535156 L 98.261719 1095.371094 L 103.179688 1101.402344 L 107.253906 1106.542969 L 111.957031 1110.894531 L 118.167969 1114.628906 L 124.457031 1118.210938 L 128.816406 1122.179688 L 130.007812 1126.875 L 129.894531 1131.882812 L 131.117188 1136.589844 L 135.453125 1140.578125 L 141.214844 1144.222656 L 145.875 1148.109375 L 147.59375 1152.65625 L 147.394531 1157.679688 L 146.992188 1162.855469 L 148.117188 1167.84375 L 151.925781 1172.351562 L 157.320312 1176.222656 L 162.632812 1179.335938 L 166.460938 1181.6875 L 168.425781 1183.730469 L 168.414062 1186.027344 L 166.753906 1188.976562 L 165.582031 1192.3125 L 167.480469 1195.601562 L 173.96875 1198.628906 L 182.34375 1202.074219 L 188.84375 1206.816406 L 190.886719 1213.390625 L 190.589844 1220.898438 L 191.265625 1228.082031 L 195.289062 1233.960938 L 201.332031 1238.613281 L 207.152344 1242.382812 L 211.050781 1245.652344 L 213.550781 1248.921875 L 215.722656 1252.722656 L 218.648438 1257.582031 L 223.082031 1263.792969 L 228.527344 1270.664062 L 234.167969 1277.277344 L 239.207031 1282.914062 L 242.953125 1287.761719 L 244.726562 1292.203125 L 244.707031 1296.628906 L 246.460938 1301.375 L 254.402344 1306.769531 L 270.929688 1312.902344 L 290.371094 1318.953125 L 305.046875 1323.859375 L 309.921875 1326.964844 L 310.585938 1329.1875 L 315.28125 1331.839844 L 329.765625 1335.738281 L 349.832031 1339.71875 L 368.800781 1342.105469 L 381.511719 1341.699219 L 388.917969 1339.148438 L 393.511719 1335.566406 L 397.785156 1332.058594 L 403.746094 1329.382812 L 411.519531 1326.878906 L 420.753906 1323.519531 L 430.890625 1318.804688 L 440.539062 1314.3125 L 448.089844 1312.144531 L 452.578125 1313.480469 L 455.542969 1315.847656 L 459.152344 1315.859375 L 464.882812 1310.832031 L 471.433594 1300.867188 L 476.8125 1286.765625 L 479.578125 1269.753906 L 480.511719 1252.789062 L 480.949219 1239.246094 L 481.949219 1231.566406 L 483.472656 1228.410156 L 485.207031 1227.488281 L 486.839844 1226.523438 L 488.148438 1223.746094 L 489.265625 1219.480469 L 490.410156 1214.554688 L 491.746094 1209.632812 L 493.203125 1204.675781 L 494.65625 1199.460938 L 496.011719 1193.902344 L 497.296875 1188.449219 L 498.585938 1183.695312 L 499.917969 1180.011719 L 501.28125 1176.921875 L 502.648438 1173.734375 L 503.996094 1169.9375 L 505.332031 1165.722656 L 506.664062 1161.464844 L 508.003906 1157.421875 L 509.347656 1153.417969 L 510.695312 1149.160156 L 512.035156 1144.46875 L 513.371094 1139.582031 L 514.710938 1134.839844 L 516.054688 1130.597656 L 517.402344 1127.101562 L 518.75 1124.230469 L 520.09375 1121.769531 L 521.429688 1119.480469 L 522.761719 1117.019531 L 524.097656 1114.027344 L 525.449219 1110.234375 L 526.800781 1105.75 L 528.152344 1100.792969 L 529.484375 1095.539062 L 530.8125 1090.101562 L 532.148438 1084.566406 L 533.496094 1078.9375 L 534.851562 1072.917969 L 536.199219 1066.128906 L 537.539062 1058.285156 L 538.871094 1049.472656 L 540.203125 1039.867188 L 541.550781 1029.671875 L 542.898438 1019.179688 L 544.25 1008.71875 L 545.589844 998.601562 L 546.917969 988.980469 L 548.246094 979.296875 L 549.59375 968.816406 L 550.964844 957.269531 L 552.335938 946.246094 L 553.667969 937.8125 L 554.949219 932.746094 L 556.230469 926.722656 L 557.585938 914.140625 L 559.050781 891.507812 L 560.515625 863.773438 L 561.84375 837.984375 L 562.960938 819.542969 L 564.058594 807.179688 L 565.410156 797.972656 L 567.148438 789.300781 L 568.933594 779.765625 L 570.304688 768.285156 L 570.792969 753.765625 L 570.03125 736.003906 L 568.042969 718.359375 L 564.960938 705.066406 L 561.007812 698.945312 L 556.835938 697.167969 L 553.207031 695.476562 L 550.605469 690.726562 L 548.414062 684.179688 L 545.75 678.210938 L 542.046875 674.585938 L 538.015625 672.628906 L 534.695312 671.066406 L 532.808594 668.796875 L 531.871094 665.375 L 531.078125 660.539062 L 529.820312 654.230469 L 528.234375 647.222656 L 526.632812 640.5 L 525.265625 634.824219 L 524.0625 630.058594 L 522.882812 625.847656 L 521.582031 621.824219 L 520.085938 617.738281 L 518.558594 613.734375 L 517.21875 610.050781 L 516.183594 606.84375 L 515.109375 603.914062 L 513.550781 600.960938 L 511.164062 597.78125 L 508.066406 594.554688 L 504.492188 591.542969 L 500.71875 588.816406 L 497.226562 585.644531 L 494.535156 581.113281 L 492.855469 574.648438 L 491.15625 567.089844 L 488.09375 559.625 L 482.785156 553.226562 L 476.203125 547.953125 L 469.796875 543.644531 L 464.722656 540.117188 L 461 537.132812 L 458.367188 534.425781 L 456.566406 531.738281 L 455.261719 528.835938 L 453.84375 525.59375 L 451.628906 521.910156 L 448.0625 517.757812 L 443.09375 513.363281 L 436.804688 509.027344 L 429.609375 505.019531 L 423.261719 501.511719 L 419.859375 498.632812 L 420.402344 496.398438 L 421.523438 494.269531 L 418.773438 491.585938 L 409.640625 487.871094 L 399.429688 483.429688 L 395.402344 478.765625 L 399.792969 474.304688 L 394.726562 470.191406 L 357.300781 466.507812 L 264.621094 463.332031 L 258.503906 465.242188 "/>
<path style="fill:none;stroke-width:0.75;stroke-linecap:round;stroke-linejoin:round;stroke:rgb(0%,0%,0%);stroke-opacity:1;stroke-miterlimit:10;" d="M 705.761719 503.53125 L 703.273438 507.171875 L 701.585938 512.046875 L 699.800781 517.28125 L 697.125 522.035156 L 693.25 525.628906 L 687.964844 527.425781 L 681.300781 527.066406 L 674.21875 525.261719 L 667.898438 522.996094 L 663.242188 521.117188 L 659.945312 519.878906 L 657.414062 519.398438 L 655.058594 519.792969 L 652.394531 521.082031 L 649.394531 522.933594 L 646.140625 524.921875 L 642.703125 526.757812 L 639.125 528.679688 L 635.425781 531.070312 L 631.675781 534.183594 L 628.136719 537.851562 L 625.105469 541.773438 L 622.890625 545.660156 L 621.605469 549.300781 L 620.617188 552.820312 L 619.113281 556.433594 L 616.53125 560.285156 L 613.324219 564.300781 L 610.207031 568.347656 L 607.703125 572.328125 L 605.542969 576.28125 L 603.273438 580.277344 L 600.4375 584.390625 L 596.824219 588.640625 L 593.25 592.816406 L 590.765625 596.65625 L 589.964844 600.027344 L 589.539062 603.316406 L 587.722656 607.042969 L 583.515625 611.574219 L 579.046875 616.71875 L 577.226562 622.132812 L 580.191406 627.484375 L 586.996094 632.488281 L 595.917969 636.875 L 605.234375 640.367188 L 613.347656 642.835938 L 619.101562 644.710938 L 621.460938 646.582031 L 619.921875 648.960938 L 616.085938 652.136719 L 612.089844 656.328125 L 609.578125 661.65625 L 608.230469 667.777344 L 607.234375 674.234375 L 605.78125 680.570312 L 603.355469 686.417969 L 600.605469 691.746094 L 598.480469 696.605469 L 597.589844 700.976562 L 597.128906 704.550781 L 595.96875 706.949219 L 593.261719 707.988281 L 589.378906 708.296875 L 584.980469 708.691406 L 580.734375 710 L 577.183594 713.269531 L 574.382812 720.457031 L 572.269531 733.738281 L 570.746094 753.867188 L 569.570312 775.917969 L 568.460938 793.53125 L 567.203125 802.390625 L 565.8125 806.382812 L 564.371094 811.429688 L 562.953125 823.457031 L 561.613281 846.191406 L 560.324219 874.574219 L 559.03125 901.34375 L 557.695312 920.800781 L 556.332031 933.488281 L 554.964844 941.515625 L 553.621094 947.15625 L 552.285156 953.363281 L 550.953125 963.265625 L 549.613281 978.960938 L 548.269531 998.453125 L 546.921875 1018.710938 L 545.578125 1036.710938 L 544.238281 1050.15625 L 542.898438 1059.65625 L 541.5625 1066.554688 L 540.21875 1072.003906 L 538.875 1076.441406 L 537.527344 1080.117188 L 536.183594 1083.296875 L 534.84375 1086.3125 L 533.5 1089.511719 L 532.160156 1093.226562 L 530.820312 1097.65625 L 529.480469 1102.367188 L 528.140625 1106.785156 L 526.796875 1110.472656 L 525.453125 1113.640625 L 524.109375 1116.640625 L 522.765625 1119.75 L 521.425781 1122.96875 L 520.085938 1126.214844 L 518.742188 1129.402344 L 517.398438 1132.546875 L 516.058594 1136.023438 L 514.71875 1140.308594 L 513.378906 1145.667969 L 512.039062 1151.535156 L 510.695312 1157.140625 L 509.347656 1161.878906 L 507.996094 1165.855469 L 506.648438 1169.332031 L 505.316406 1172.578125 L 503.992188 1175.835938 L 502.667969 1179.210938 L 501.320312 1182.78125 L 499.945312 1186.632812 L 498.566406 1190.898438 L 497.222656 1195.726562 L 495.9375 1201.144531 L 494.664062 1206.730469 L 493.335938 1211.945312 L 491.914062 1216.390625 L 490.457031 1220.195312 L 489.050781 1223.613281 L 487.777344 1226.910156 L 486.667969 1230.304688 L 485.53125 1233.871094 L 484.132812 1237.652344 L 482.347656 1241.933594 L 480.523438 1248.007812 L 479.117188 1257.425781 L 478.523438 1271.015625 L 478.871094 1286.742188 L 480.226562 1301.847656 L 482.652344 1313.582031 L 486.234375 1320.105469 L 491.148438 1323.234375 L 497.597656 1325.691406 L 505.546875 1329.5625 L 514 1334.359375 L 521.726562 1338.941406 L 527.769531 1342.417969 L 532.234375 1344.851562 L 535.5 1346.5625 L 537.941406 1347.847656 L 540.039062 1349.035156 L 542.65625 1350.445312 L 546.753906 1352.421875 L 552.773438 1355.15625 L 559.027344 1358.269531 L 563.3125 1361.238281 L 564.46875 1363.746094 L 565.539062 1366.285156 L 570.621094 1369.566406 L 582.660156 1373.984375 L 599.984375 1378.742188 L 619.773438 1382.742188 L 639.214844 1384.882812 L 656.085938 1384.398438 L 670.546875 1381.867188 L 683.363281 1378.199219 L 695.117188 1374.199219 L 705.640625 1370.273438 L 714.578125 1366.71875 L 721.800781 1363.714844 L 728.089844 1361.003906 L 734.441406 1358.222656 L 741.855469 1354.988281 L 750.914062 1351.074219 L 760.527344 1346.761719 L 769.1875 1342.480469 L 775.753906 1338.578125 L 780.601562 1335.082031 L 784.464844 1331.945312 L 788.074219 1329.085938 L 792.125 1326.300781 L 797.28125 1323.347656 L 804.226562 1319.984375 L 813.277344 1316.070312 L 823.332031 1311.84375 L 832.921875 1307.640625 L 840.863281 1303.734375 L 847.097656 1300.195312 L 851.832031 1297.027344 L 855.355469 1294.195312 L 858.242188 1291.449219 L 861.136719 1288.5 L 864.683594 1285.042969 L 869.304688 1280.914062 L 874.53125 1276.417969 L 879.664062 1271.992188 L 884.085938 1268.003906 L 887.519531 1264.605469 L 889.757812 1261.878906 L 890.863281 1259.714844 L 891.941406 1257.195312 L 894.363281 1253.214844 L 899.074219 1247.050781 L 905.320312 1239.578125 L 911.925781 1232.050781 L 917.71875 1225.742188 L 921.839844 1221.488281 L 924.707031 1218.464844 L 927.0625 1215.425781 L 929.582031 1211.367188 L 932.671875 1206.253906 L 936.667969 1200.300781 L 941.761719 1193.730469 L 947.527344 1186.808594 L 953.394531 1179.804688 L 958.78125 1172.992188 L 963.207031 1166.652344 L 966.582031 1161.085938 L 968.910156 1156.589844 L 970.277344 1153.324219 L 971.105469 1150.84375 L 971.898438 1148.558594 L 973.085938 1145.902344 L 974.824219 1142.414062 L 977.183594 1137.660156 L 980.25 1131.207031 L 983.953125 1122.878906 L 987.644531 1113.574219 L 990.515625 1104.453125 L 992.039062 1096.480469 L 992.730469 1089.84375 L 993.378906 1084.546875 L 994.597656 1080.394531 L 996.34375 1076.464844 L 998.390625 1071.644531 L 1000.53125 1064.820312 L 1002.652344 1055.386719 L 1005.113281 1044.75 L 1008.371094 1034.832031 L 1012.636719 1027.039062 L 1017.089844 1020.765625 L 1020.65625 1014.890625 L 1022.558594 1008.621094 L 1023.25 1002.46875 L 1023.484375 997.261719 L 1023.875 993.5625 L 1024.421875 990.835938 L 1024.988281 988.289062 L 1025.4375 985.113281 L 1025.707031 980.71875 L 1026.066406 975.363281 L 1026.867188 969.519531 L 1028.316406 963.523438 L 1030.046875 957.152344 L 1031.558594 950.050781 L 1032.5 942.054688 L 1033.167969 933.804688 L 1034.015625 926.136719 L 1035.496094 919.875 L 1037.875 915.585938 L 1040.628906 912.703125 L 1043.042969 910.390625 L 1044.539062 907.796875 L 1045.09375 904.046875 L 1044.824219 898.234375 L 1043.875 889.921875 L 1042.535156 880.46875 L 1041.117188 871.691406 L 1039.933594 865.398438 L 1039.210938 862.546875 L 1038.785156 860.640625 L 1038.398438 856.324219 L 1037.882812 846.945312 L 1037.367188 832.660156 L 1037.078125 814.320312 L 1037.152344 793.304688 L 1037.433594 773.085938 L 1037.6875 757.667969 L 1037.707031 749.800781 L 1037.425781 747.230469 L 1036.808594 746.460938 L 1035.808594 743.984375 L 1034.429688 737.21875 L 1032.800781 727.238281 L 1031.085938 716.035156 L 1029.511719 705.363281 L 1028.589844 696.019531 L 1028.886719 688.566406 L 1030.691406 683.371094 L 1033.175781 680.019531 L 1035.234375 677.894531 L 1035.761719 676.386719 L 1034.0625 674.945312 L 1031.125 673.246094 L 1028.347656 671.011719 L 1026.769531 668.074219 L 1025.957031 664.597656 L 1025.109375 660.847656 L 1023.636719 657.058594 L 1021.785156 653.355469 L 1020.011719 649.832031 L 1018.765625 646.585938 L 1018.378906 643.691406 L 1018.675781 641.121094 L 1019.351562 638.835938 L 1020.105469 636.683594 L 1020.636719 634.085938 L 1020.648438 630.355469 L 1019.933594 625.082031 L 1018.632812 618.910156 L 1016.992188 612.746094 L 1015.242188 607.507812 L 1013.496094 603.8125 L 1011.320312 601.121094 L 1008.160156 598.597656 L 1003.726562 595.65625 L 998.816406 592.660156 L 994.503906 590.230469 L 991.527344 588.75 L 989.304688 587.695312 L 986.921875 586.316406 L 983.535156 583.925781 L 978.574219 580.050781 L 971.550781 574.285156 L 961.964844 566.21875 L 949.90625 555.96875 L 937.808594 545.742188 L 928.679688 538.273438 L 924.546875 535.429688 L 923.476562 535.640625 L 922.539062 536.464844 L 919.46875 535.988281 L 914.640625 534.347656 L 909.089844 532.199219 L 903.847656 530.207031 L 899.625 528.847656 L 895.835938 527.890625 L 891.574219 526.929688 L 886.210938 525.660156 L 880.238281 524.167969 L 874.425781 522.644531 L 869.363281 521.242188 L 864.945312 519.933594 L 860.878906 518.671875 L 856.878906 517.386719 L 852.746094 516.039062 L 848.652344 514.65625 L 844.863281 513.28125 L 841.382812 511.941406 L 837.214844 510.617188 L 831.097656 509.277344 L 821.042969 507.902344 L 802.074219 506.558594 L 768.488281 505.320312 L 714.5625 504.261719 L 705.761719 503.53125 "/>
<path style="fill:none;stroke-width:0.75;stroke-linecap:round;stroke-linejoin:round;stroke:rgb(0%,0%,0%);stroke-opacity:1;stroke-miterlimit:10;" d="M 571.679688 489.101562 L 566.628906 494.109375 L 565.867188 498.863281 L 561.890625 503.050781 L 559.992188 506.527344 L 558.972656 509.6875 L 558.222656 513.109375 L 563.808594 517.539062 L 563.09375 523.628906 L 559.152344 532.183594 L 557.871094 543.398438 L 561.019531 557.191406 L 561.339844 572.648438 L 562.996094 587.171875 L 564.613281 599.816406 L 565.671875 610.4375 L 566.777344 618.898438 L 568.671875 625.007812 L 569.78125 629.214844 L 570.84375 632.269531 L 572.367188 634.375 L 574.433594 635.441406 L 576.5 634.914062 L 578.027344 632.441406 L 579.089844 628.171875 L 580.195312 622.605469 L 582.105469 616.886719 L 583.160156 611.65625 L 584.304688 607.359375 L 585.867188 603.71875 L 587.335938 600.230469 L 588.707031 596.367188 L 594.28125 592.011719 L 597.941406 587.574219 L 599.730469 583.234375 L 602.105469 579.039062 L 605.863281 574.914062 L 608.015625 570.859375 L 610.246094 566.847656 L 613.367188 562.945312 L 616.691406 559.25 L 617.832031 555.886719 L 619.394531 552.765625 L 620.902344 549.640625 L 622.074219 546.386719 L 623.214844 543.003906 L 624.882812 539.832031 L 626.058594 537.046875 L 627.65625 534.613281 L 631.054688 532.425781 L 635.964844 530.316406 L 639.101562 528.410156 L 641.210938 526.585938 L 644.511719 524.59375 L 649.445312 522.257812 L 652.125 519.589844 L 655.589844 516.371094 L 653.921875 512.664062 L 650.4375 509.027344 L 649.246094 505.996094 L 646.761719 503.570312 L 644.839844 501.328125 L 643.3125 499.042969 L 642.417969 496.742188 L 640.492188 494.488281 L 632.691406 492.277344 L 623.316406 490.046875 L 572.601562 487.882812 L 571.679688 489.101562 "/>
<path style="fill:none;stroke-width:0.75;stroke-linecap:round;stroke-linejoin:round;stroke:rgb(0%,0%,0%);stroke-opacity:1;stroke-miterlimit:10;" d="M 782.265625 314.492188 L 778.34375 318.070312 L 773.464844 321.476562 L 765.527344 325.242188 L 755.097656 330.160156 L 743.996094 336.414062 L 735.082031 342.097656 L 728.703125 346.375 L 724.390625 349.015625 L 721.417969 350.570312 L 719.070312 352.042969 L 716.984375 354.679688 L 714.902344 359.875 L 712.742188 368.550781 L 710.726562 378.378906 L 709.082031 386.539062 L 707.867188 392.371094 L 707.1875 397.726562 L 707.105469 403.617188 L 707.425781 410.53125 L 707.246094 418.378906 L 706.433594 427.082031 L 705.15625 436.515625 L 703.820312 446.457031 L 702.992188 457.398438 L 703.125 469.066406 L 705.003906 480.171875 L 710.792969 487.398438 L 722.566406 490.648438 L 741.320312 491.050781 L 764.078125 490.394531 L 786.539062 489.953125 L 804.929688 490.496094 L 818.566406 491.609375 L 829.503906 493.011719 L 839.554688 494.542969 L 850.222656 496.0625 L 862.398438 497.460938 L 876.0625 498.4375 L 890.226562 498.667969 L 901.585938 497.972656 L 909.46875 496.394531 L 914.355469 493.359375 L 916.609375 488.292969 L 916.109375 481.65625 L 913.585938 475.335938 L 910.070312 470.851562 L 906.703125 467.300781 L 904.167969 464.304688 L 902.355469 461.558594 L 900.988281 458.683594 L 899.792969 455.371094 L 898.640625 451.695312 L 897.449219 447.855469 L 896.097656 444.046875 L 894.25 440.128906 L 891.527344 435.796875 L 887.710938 430.601562 L 883.132812 424.691406 L 878.269531 418.507812 L 873.5 412.421875 L 868.820312 406.441406 L 863.972656 400.277344 L 858.796875 393.753906 L 853.652344 387.238281 L 848.617188 380.847656 L 843.777344 374.679688 L 839.109375 368.699219 L 834.214844 362.425781 L 829.15625 355.929688 L 824.132812 349.460938 L 819.457031 343.519531 L 815.765625 339.03125 L 812.574219 335.644531 L 809.238281 332.582031 L 805.691406 329.132812 L 801.644531 325.390625 L 796.59375 321.503906 L 789.929688 317.242188 L 782.359375 313.039062 L 782.265625 314.492188 "/>
</g>
</svg>
