<?xml version="1.0" encoding="UTF-8"?>
<svg xmlns="http://www.w3.org/2000/svg" xmlns:xlink="http://www.w3.org/1999/xlink" width="1428pt" height="1605pt" viewBox="0 0 1428 1605" version="1.1">
<g id="surface249">
<rect x="0" y="0" width="1428" height="1605" style="fill:rgb(100%,100%,100%);fill-opacity:1;stroke:none;"/>
<path style="fill:none;stroke-width:0.75;stroke-linecap:round;stroke-linejoin:round;stroke:rgb(0%,0%,0%);stroke-opacity:1;stroke-miterlimit:10;" d="M 766.511719 309.6875 L 760.269531 312.796875 L 754.851562 315.425781 L 749.972656 317.871094 L 745.355469 320.429688 L 740.71875 323.398438 L 735.851562 327.011719 L 730.8125 331.25 L 725.742188 336.023438 L 720.773438 341.246094 L 716.042969 346.832031 L 711.671875 352.65625 L 707.78125 358.480469 L 704.476562 364.019531 L 701.871094 369 L 700.066406 373.144531 L 699.101562 376.292969 L 698.710938 378.765625 L 698.554688 381.003906 L 698.296875 383.441406 L 697.59375 386.519531 L 696.222656 390.554688 L 694.441406 395.386719 L 692.609375 400.726562 L 691.101562 406.292969 L 690.28125 411.800781 L 690.402344 417.023438 L 691.261719 421.980469 L 692.539062 426.765625 L 693.914062 431.449219 L 695.070312 436.125 L 695.757812 440.859375 L 696.03125 445.671875 L 696.027344 450.566406 L 695.875 455.546875 L 695.707031 460.621094 L 695.617188 465.804688 L 695.566406 471.179688 L 695.480469 476.839844 L 695.289062 482.871094 L 694.921875 489.371094 L 694.285156 496.328125 L 693.25 503.296875 L 691.671875 509.742188 L 689.402344 515.117188 L 686.296875 518.875 L 682.277344 520.617188 L 677.570312 520.492188 L 672.464844 518.800781 L 667.253906 515.828125 L 662.226562 511.878906 L 657.671875 507.242188 L 653.824219 502.246094 L 650.917969 497.214844 L 649.183594 492.476562 L 648.847656 488.363281 L 650.015625 485.105469 L 652.269531 482.578125 L 655.054688 480.558594 L 657.828125 478.828125 L 660.039062 477.164062 L 661.140625 475.347656 L 660.652344 473.195312 L 658.394531 470.667969 L 654.25 467.765625 L 648.105469 464.484375 L 639.84375 460.828125 L 629.53125 456.882812 L 617.941406 453.101562 L 606.015625 450.035156 L 594.710938 448.222656 L 584.96875 448.214844 L 577.542969 450.34375 L 572.382812 454.128906 L 569.234375 458.882812 L 567.851562 463.90625 L 567.980469 468.511719 L 569.296875 472.1875 L 571.160156 475.140625 L 572.855469 477.753906 L 573.664062 480.410156 L 572.875 483.496094 L 570.039062 487.277344 L 565.800781 491.5625 L 561.070312 496.035156 L 556.761719 500.390625 L 553.78125 504.3125 L 552.769531 507.578125 L 553.296875 510.296875 L 554.65625 512.664062 L 556.132812 514.886719 L 557.023438 517.152344 L 556.800781 519.628906 L 555.613281 522.347656 L 553.792969 525.296875 L 551.675781 528.472656 L 549.585938 531.871094 L 547.808594 535.476562 L 546.414062 539.257812 L 545.425781 543.183594 L 544.875 547.207031 L 544.78125 551.300781 L 545.136719 555.425781 L 545.832031 559.578125 L 546.71875 563.761719 L 547.652344 567.980469 L 548.488281 572.226562 L 549.121094 576.511719 L 549.59375 580.867188 L 549.984375 585.328125 L 550.382812 589.9375 L 550.871094 594.722656 L 551.527344 599.695312 L 552.445312 604.710938 L 553.726562 609.59375 L 555.457031 614.175781 L 557.730469 618.273438 L 560.636719 621.777344 L 564.203125 624.785156 L 568.460938 627.453125 L 573.425781 629.9375 L 579.128906 632.402344 L 585.585938 635 L 592.707031 637.867188 L 599.914062 641.058594 L 606.507812 644.59375 L 611.796875 648.507812 L 615.085938 652.828125 L 615.902344 657.546875 L 614.703125 662.539062 L 612.171875 667.636719 L 608.988281 672.679688 L 605.832031 677.503906 L 603.195312 681.953125 L 600.808594 685.917969 L 598.207031 689.285156 L 594.925781 691.945312 L 590.5 693.796875 L 584.660156 694.753906 L 577.886719 694.835938 L 570.871094 694.074219 L 564.28125 692.519531 L 558.804688 690.203125 L 554.917969 687.191406 L 552.296875 683.605469 L 550.429688 679.597656 L 548.792969 675.3125 L 546.863281 670.894531 L 544.265625 666.453125 L 541.175781 661.914062 L 537.910156 657.171875 L 534.789062 652.121094 L 532.128906 646.644531 L 530.136719 640.683594 L 528.59375 634.339844 L 527.164062 627.761719 L 525.523438 621.101562 L 523.339844 614.511719 L 520.367188 608.089844 L 516.707031 601.78125 L 512.542969 595.480469 L 508.066406 589.085938 L 503.457031 582.488281 L 498.855469 575.621094 L 494.183594 568.535156 L 489.324219 561.316406 L 484.15625 554.050781 L 478.550781 546.820312 L 472.445312 539.71875 L 466.019531 532.859375 L 459.503906 526.359375 L 453.136719 520.34375 L 447.152344 514.929688 L 441.699219 510.167969 L 436.585938 505.835938 L 431.535156 501.640625 L 426.269531 497.296875 L 420.511719 492.507812 L 413.988281 486.988281 L 406.542969 480.605469 L 398.554688 473.882812 L 390.507812 467.5 L 382.910156 462.140625 L 376.253906 458.492188 L 370.882812 457 L 366.53125 457.195312 L 362.78125 458.375 L 359.214844 459.828125 L 355.414062 460.855469 L 350.980469 460.933594 L 345.597656 460.269531 L 338.980469 459.246094 L 330.832031 458.25 L 320.863281 457.675781 L 308.941406 457.832031 L 295.597656 458.777344 L 281.53125 460.480469 L 267.429688 462.917969 L 253.988281 466.078125 L 241.785156 469.886719 L 230.917969 474.117188 L 221.378906 478.5 L 213.144531 482.757812 L 206.207031 486.625 L 200.507812 489.914062 L 195.832031 492.800781 L 191.921875 495.550781 L 188.527344 498.421875 L 185.394531 501.679688 L 182.296875 505.5 L 179.1875 509.703125 L 176.03125 514.027344 L 172.816406 518.210938 L 169.515625 521.980469 L 166.117188 525.171875 L 162.625 527.953125 L 159.054688 530.601562 L 155.421875 533.378906 L 151.738281 536.554688 L 148.039062 540.316406 L 144.4375 544.53125 L 141.070312 548.980469 L 138.066406 553.449219 L 135.5625 557.71875 L 133.625 561.65625 L 132.085938 565.441406 L 130.707031 569.332031 L 129.25 573.589844 L 127.484375 578.476562 L 125.234375 584.144531 L 122.585938 590.355469 L 119.683594 596.761719 L 116.671875 603.011719 L 113.699219 608.761719 L 110.882812 613.761719 L 108.214844 618.125 L 105.660156 622.074219 L 103.175781 625.816406 L 100.726562 629.570312 L 98.277344 633.546875 L 95.792969 637.90625 L 93.269531 642.613281 L 90.699219 647.566406 L 88.078125 652.679688 L 85.40625 657.847656 L 82.707031 662.988281 L 80.125 667.992188 L 77.835938 672.765625 L 76.007812 677.210938 L 74.820312 681.226562 L 74.355469 684.75 L 74.378906 687.859375 L 74.566406 690.675781 L 74.582031 693.308594 L 74.113281 695.875 L 72.925781 698.503906 L 71.214844 701.351562 L 69.257812 704.59375 L 67.34375 708.40625 L 65.761719 712.957031 L 64.71875 718.347656 L 64.121094 724.402344 L 63.785156 730.859375 L 63.546875 737.464844 L 63.222656 743.972656 L 62.675781 750.175781 L 61.910156 756.085938 L 60.960938 761.773438 L 59.867188 767.296875 L 58.664062 772.722656 L 57.386719 778.097656 L 56.046875 783.402344 L 54.65625 788.605469 L 53.222656 793.664062 L 51.75 798.546875 L 50.253906 803.199219 L 48.773438 807.519531 L 47.347656 811.382812 L 46.011719 814.667969 L 44.8125 817.257812 L 43.777344 819.203125 L 42.902344 821.230469 L 42.167969 824.25 L 41.5625 829.160156 L 41.070312 836.863281 L 40.679688 847.945312 L 40.375 861.707031 L 40.152344 877.128906 L 40.007812 893.1875 L 39.933594 908.867188 L 39.929688 923.304688 L 40.015625 936.253906 L 40.234375 947.621094 L 40.609375 957.316406 L 41.175781 965.246094 L 41.96875 971.324219 L 43.003906 975.570312 L 44.234375 978.449219 L 45.597656 980.542969 L 47.03125 982.429688 L 48.472656 984.6875 L 49.871094 987.769531 L 51.203125 991.617188 L 52.449219 996.046875 L 53.605469 1000.867188 L 54.648438 1005.898438 L 55.585938 1010.972656 L 56.515625 1016.011719 L 57.546875 1020.957031 L 58.789062 1025.757812 L 60.359375 1030.347656 L 62.3125 1034.695312 L 64.46875 1038.8125 L 66.589844 1042.746094 L 68.449219 1046.523438 L 69.804688 1050.191406 L 70.515625 1053.78125 L 70.792969 1057.351562 L 70.941406 1060.953125 L 71.265625 1064.636719 L 72.070312 1068.460938 L 73.597656 1072.460938 L 75.851562 1076.605469 L 78.777344 1080.839844 L 82.3125 1085.113281 L 86.40625 1089.378906 L 90.980469 1093.597656 L 95.90625 1097.777344 L 101.03125 1101.945312 L 106.203125 1106.121094 L 111.277344 1110.332031 L 116.121094 1114.589844 L 120.664062 1118.875 L 124.859375 1123.164062 L 128.65625 1127.425781 L 132.003906 1131.636719 L 134.882812 1135.78125 L 137.421875 1139.921875 L 139.761719 1144.140625 L 142.0625 1148.515625 L 144.476562 1153.121094 L 147.105469 1157.984375 L 149.882812 1162.933594 L 152.679688 1167.730469 L 155.375 1172.15625 L 157.851562 1175.972656 L 160.027344 1179.042969 L 162 1181.554688 L 163.90625 1183.796875 L 165.882812 1186.046875 L 168.074219 1188.582031 L 170.585938 1191.636719 L 173.410156 1195.226562 L 176.507812 1199.316406 L 179.84375 1203.875 L 183.375 1208.871094 L 187.070312 1214.265625 L 190.882812 1220 L 194.746094 1225.890625 L 198.59375 1231.730469 L 202.355469 1237.308594 L 205.957031 1242.414062 L 209.351562 1246.90625 L 212.558594 1250.921875 L 215.625 1254.660156 L 218.589844 1258.320312 L 221.492188 1262.109375 L 224.371094 1266.183594 L 227.265625 1270.542969 L 230.199219 1275.132812 L 233.199219 1279.914062 L 236.300781 1284.832031 L 239.558594 1289.832031 L 243.140625 1294.792969 L 247.25 1299.597656 L 252.078125 1304.113281 L 257.832031 1308.214844 L 264.550781 1311.800781 L 271.6875 1314.882812 L 278.527344 1317.5 L 284.371094 1319.6875 L 288.507812 1321.480469 L 290.59375 1322.953125 L 291.695312 1324.285156 L 293.253906 1325.691406 L 296.691406 1327.390625 L 303.441406 1329.59375 L 314.449219 1332.402344 L 328.703125 1335.417969 L 344.703125 1338.136719 L 360.953125 1340.046875 L 375.953125 1340.636719 L 388.578125 1339.550781 L 399.210938 1337.0625 L 408.609375 1333.597656 L 417.527344 1329.585938 L 426.722656 1325.449219 L 436.746094 1321.589844 L 447.335938 1318.289062 L 458.03125 1315.808594 L 468.363281 1314.402344 L 477.867188 1314.328125 L 486.203125 1315.734375 L 493.5 1318.320312 L 500.015625 1321.691406 L 506.003906 1325.4375 L 511.726562 1329.160156 L 517.398438 1332.554688 L 523.070312 1335.71875 L 528.765625 1338.847656 L 534.503906 1342.136719 L 540.296875 1345.785156 L 546.167969 1349.992188 L 552.226562 1354.859375 L 558.96875 1360.136719 L 566.984375 1365.476562 L 576.867188 1370.542969 L 589.203125 1374.988281 L 604.308594 1378.511719 L 621.390625 1381 L 639.386719 1382.382812 L 657.230469 1382.59375 L 673.855469 1381.558594 L 688.429688 1379.277344 L 701.070312 1376.027344 L 712.140625 1372.152344 L 721.984375 1367.996094 L 730.964844 1363.90625 L 739.375 1360.148438 L 747.269531 1356.679688 L 754.636719 1353.390625 L 761.480469 1350.164062 L 767.785156 1346.882812 L 773.585938 1343.453125 L 779.058594 1339.90625 L 784.410156 1336.296875 L 789.851562 1332.671875 L 795.597656 1329.085938 L 801.785156 1325.578125 L 808.285156 1322.136719 L 814.898438 1318.734375 L 821.425781 1315.339844 L 827.671875 1311.929688 L 833.496094 1308.460938 L 839.019531 1304.859375 L 844.429688 1301.03125 L 849.90625 1296.890625 L 855.636719 1292.347656 L 861.738281 1287.339844 L 868.070312 1281.9375 L 874.433594 1276.238281 L 880.625 1270.339844 L 886.4375 1264.34375 L 891.722656 1258.339844 L 896.535156 1252.425781 L 900.976562 1246.695312 L 905.148438 1241.234375 L 909.15625 1236.136719 L 913.089844 1231.453125 L 916.957031 1227.066406 L 920.769531 1222.832031 L 924.519531 1218.589844 L 928.210938 1214.191406 L 931.855469 1209.507812 L 935.507812 1204.550781 L 939.230469 1199.339844 L 943.089844 1193.917969 L 947.152344 1188.308594 L 951.4375 1182.570312 L 955.792969 1176.820312 L 960.011719 1171.210938 L 963.894531 1165.886719 L 967.242188 1160.992188 L 969.851562 1156.675781 L 971.617188 1152.992188 L 972.8125 1149.671875 L 973.796875 1146.363281 L 974.941406 1142.707031 L 976.609375 1138.347656 L 979.050781 1133.03125 L 982.035156 1126.902344 L 985.230469 1120.199219 L 988.28125 1113.179688 L 990.851562 1106.078125 L 992.703125 1099.121094 L 994.015625 1092.425781 L 995.070312 1086.082031 L 996.15625 1080.1875 L 997.554688 1074.832031 L 999.453125 1070.082031 L 1001.613281 1065.875 L 1003.703125 1062.132812 L 1005.394531 1058.761719 L 1006.347656 1055.675781 L 1006.371094 1052.78125 L 1005.835938 1049.953125 L 1005.253906 1047.0625 L 1005.132812 1043.96875 L 1005.984375 1040.546875 L 1008.152344 1036.683594 L 1011.296875 1032.371094 L 1014.914062 1027.617188 L 1018.496094 1022.433594 L 1021.535156 1016.839844 L 1023.667969 1010.828125 L 1025.085938 1004.367188 L 1026.125 997.402344 L 1027.117188 989.886719 L 1028.402344 981.773438 L 1030.195312 973.101562 L 1032.246094 964.300781 L 1034.175781 955.875 L 1035.613281 948.34375 L 1036.195312 942.21875 L 1035.699219 937.835938 L 1034.554688 934.851562 L 1033.339844 932.730469 L 1032.636719 930.949219 L 1033.035156 928.980469 L 1034.90625 926.394531 L 1037.820312 923.148438 L 1041.140625 919.289062 L 1044.234375 914.878906 L 1046.460938 909.964844 L 1047.355469 904.621094 L 1047.132812 899.011719 L 1046.167969 893.328125 L 1044.84375 887.753906 L 1043.535156 882.472656 L 1042.625 877.671875 L 1042.386719 873.398438 L 1042.667969 869.125 L 1043.210938 864.1875 L 1043.757812 857.917969 L 1044.046875 849.652344 L 1043.898438 838.988281 L 1043.410156 826.597656 L 1042.761719 813.421875 L 1042.128906 800.402344 L 1041.683594 788.476562 L 1041.554688 778.34375 L 1041.632812 769.707031 L 1041.773438 762.039062 L 1041.820312 754.808594 L 1041.617188 747.476562 L 1041.058594 739.671875 L 1040.207031 731.640625 L 1039.175781 723.792969 L 1038.078125 716.539062 L 1037.023438 710.285156 L 1036.109375 705.3125 L 1035.417969 701.382812 L 1035.003906 698.132812 L 1034.929688 695.195312 L 1035.269531 692.203125 L 1036.011719 688.871094 L 1036.910156 685.203125 L 1037.636719 681.289062 L 1037.875 677.207031 L 1037.304688 673.050781 L 1035.722656 668.898438 L 1033.402344 664.832031 L 1030.734375 660.925781 L 1028.101562 657.257812 L 1025.894531 653.902344 L 1024.410156 650.894531 L 1023.550781 648.074219 L 1023.132812 645.238281 L 1022.960938 642.1875 L 1022.851562 638.710938 L 1022.632812 634.6875 L 1022.210938 630.316406 L 1021.507812 625.871094 L 1020.441406 621.628906 L 1018.941406 617.867188 L 1016.988281 614.769531 L 1014.820312 612.179688 L 1012.726562 609.835938 L 1011.011719 607.496094 L 1009.964844 604.898438 L 1009.78125 601.84375 L 1010.214844 598.3125 L 1010.921875 594.324219 L 1011.554688 589.90625 L 1011.757812 585.089844 L 1011.257812 579.914062 L 1010.0625 574.492188 L 1008.238281 568.953125 L 1005.871094 563.433594 L 1003.03125 558.058594 L 999.792969 552.960938 L 996.238281 548.230469 L 992.492188 543.789062 L 988.675781 539.511719 L 984.914062 535.28125 L 981.335938 530.976562 L 978.011719 526.519531 L 974.785156 521.992188 L 971.433594 517.535156 L 967.746094 513.269531 L 963.507812 509.332031 L 958.589844 505.820312 L 953.210938 502.695312 L 947.679688 499.898438 L 942.300781 497.359375 L 937.382812 495.015625 L 933.15625 492.777344 L 929.539062 490.484375 L 926.375 487.957031 L 923.503906 485.003906 L 920.769531 481.445312 L 918.046875 477.167969 L 915.335938 472.332031 L 912.675781 467.171875 L 910.09375 461.910156 L 907.628906 456.785156 L 905.296875 451.945312 L 903.050781 447.246094 L 900.832031 442.453125 L 898.574219 437.34375 L 896.21875 431.683594 L 893.722656 425.335938 L 891.140625 418.464844 L 888.558594 411.335938 L 886.050781 404.195312 L 883.695312 397.304688 L 881.515625 390.863281 L 879.296875 384.847656 L 876.761719 379.1875 L 873.640625 373.800781 L 869.65625 368.617188 L 864.640625 363.570312 L 858.835938 358.648438 L 852.585938 353.851562 L 846.238281 349.171875 L 840.136719 344.617188 L 834.535156 340.1875 L 829.316406 335.917969 L 824.269531 331.851562 L 819.175781 328.023438 L 813.832031 324.480469 L 808.027344 321.242188 L 801.558594 318.269531 L 794.234375 315.496094 L 785.847656 312.859375 L 776.210938 310.304688 L 765.117188 307.765625 L 766.511719 309.6875 "/>
<path style="fill:none;stroke-width:0.75;stroke-linecap:round;stroke-linejoin:round;stroke:rgb(0%,0%,0%);stroke-opacity:1;stroke-miterlimit:10;" d="M 306.351562 454.527344 L 302 457.980469 L 290.433594 460.765625 L 273.664062 463.511719 L 254.035156 466.71875 L 235.179688 470.378906 L 221.042969 474.363281 L 214.242188 478.527344 L 212.050781 482.667969 L 210.410156 486.570312 L 206.199219 490.066406 L 200.054688 493.164062 L 193.554688 495.921875 L 187.992188 498.46875 L 183.527344 501.222656 L 180.042969 504.6875 L 177.371094 509.160156 L 175.136719 514.089844 L 172.917969 518.730469 L 170.355469 522.507812 L 167.359375 525.546875 L 163.914062 528.15625 L 159.992188 530.628906 L 155.648438 533.257812 L 151.214844 536.277344 L 147.085938 539.902344 L 143.582031 544.238281 L 140.617188 548.925781 L 138.03125 553.488281 L 135.699219 557.597656 L 133.6875 561.492188 L 132.109375 565.566406 L 130.960938 570.089844 L 129.789062 574.859375 L 128.023438 579.5625 L 125.296875 584.039062 L 122.050781 588.742188 L 118.929688 594.285156 L 116.394531 601.023438 L 114.195312 608.292969 L 111.898438 615.171875 L 109.078125 620.738281 L 105.507812 624.402344 L 101.828125 626.921875 L 98.882812 629.382812 L 97.230469 632.652344 L 96.242188 636.699219 L 94.996094 641.257812 L 92.769531 646.144531 L 89.628906 651.453125 L 85.824219 657.351562 L 81.710938 663.8125 L 78.003906 670.089844 L 75.519531 675.238281 L 74.789062 678.640625 L 75.195312 680.953125 L 75.84375 683.152344 L 76.003906 686.003906 L 75.617188 689.390625 L 74.789062 692.984375 L 73.621094 696.460938 L 72.226562 699.582031 L 70.695312 702.484375 L 69.121094 705.386719 L 67.589844 708.550781 L 66.167969 712.351562 L 64.910156 717.191406 L 63.882812 723.308594 L 63.175781 730.273438 L 62.878906 737.488281 L 62.996094 744.445312 L 63.132812 750.960938 L 62.808594 756.933594 L 61.695312 762.332031 L 60.066406 767.371094 L 58.347656 772.34375 L 56.882812 777.476562 L 55.625 782.777344 L 54.441406 788.195312 L 53.199219 793.679688 L 51.808594 799.121094 L 50.351562 804.121094 L 48.964844 808.230469 L 47.71875 811.191406 L 46.488281 813.519531 L 45.074219 815.929688 L 43.417969 818.992188 L 41.945312 822.679688 L 41.207031 826.820312 L 41.507812 831.449219 L 42.140625 837.464844 L 42.15625 845.976562 L 40.941406 857.800781 L 39.273438 872.597656 L 38.265625 889.722656 L 38.699219 908.28125 L 39.988281 926.308594 L 41.214844 941.582031 L 41.683594 952.476562 L 41.597656 959.734375 L 41.394531 964.695312 L 41.507812 968.699219 L 42.257812 972.785156 L 43.46875 976.785156 L 44.859375 980.230469 L 46.238281 982.851562 L 47.800781 985.199219 L 49.835938 988.023438 L 52.417969 991.859375 L 54.765625 996.429688 L 55.878906 1001.246094 L 55.191406 1005.925781 L 53.878906 1010.558594 L 53.558594 1015.339844 L 55.367188 1020.390625 L 58.507812 1025.542969 L 61.71875 1030.554688 L 64.007812 1035.214844 L 65.507812 1039.480469 L 66.636719 1043.335938 L 67.8125 1046.777344 L 69.289062 1049.863281 L 70.691406 1052.972656 L 71.492188 1056.550781 L 71.394531 1060.859375 L 71.042969 1065.425781 L 71.320312 1069.570312 L 72.894531 1072.875 L 75.589844 1075.90625 L 79.007812 1079.488281 L 82.8125 1084.167969 L 86.867188 1089.4375 L 91.09375 1094.515625 L 95.453125 1098.824219 L 100.117188 1102.574219 L 105.300781 1106.183594 L 111.078125 1109.992188 L 116.941406 1114.039062 L 122.238281 1118.300781 L 126.328125 1122.753906 L 128.851562 1127.34375 L 130.675781 1131.917969 L 132.957031 1136.296875 L 136.488281 1140.382812 L 140.566406 1144.335938 L 144.117188 1148.394531 L 146.355469 1152.761719 L 147.65625 1157.457031 L 148.691406 1162.472656 L 150.082031 1167.691406 L 152.328125 1172.613281 L 155.886719 1176.644531 L 160.835938 1179.410156 L 165.746094 1181.429688 L 168.796875 1183.460938 L 168.84375 1186.070312 L 167.34375 1189.148438 L 166.417969 1192.40625 L 168.179688 1195.566406 L 173.894531 1198.527344 L 181.386719 1201.984375 L 187.617188 1206.816406 L 190.445312 1213.527344 L 191.304688 1221.117188 L 192.519531 1228.21875 L 195.832031 1233.792969 L 200.679688 1238.148438 L 205.925781 1241.945312 L 210.609375 1245.730469 L 214.472656 1249.648438 L 217.425781 1253.730469 L 219.507812 1257.996094 L 221.203125 1262.386719 L 223.128906 1266.828125 L 225.746094 1271.257812 L 228.96875 1275.695312 L 232.578125 1280.171875 L 236.382812 1284.722656 L 240.328125 1289.355469 L 244.402344 1294.070312 L 248.59375 1298.878906 L 252.941406 1303.726562 L 257.730469 1308.34375 L 263.308594 1312.417969 L 269.828125 1315.695312 L 276.707031 1318.238281 L 283.179688 1320.179688 L 288.582031 1321.652344 L 292.714844 1322.792969 L 295.480469 1323.742188 L 297.09375 1324.703125 L 299.023438 1326.144531 L 303.035156 1328.605469 L 310.625 1332.332031 L 322.1875 1336.433594 L 337.847656 1339.71875 L 357.179688 1341.246094 L 377.546875 1341.03125 L 395.769531 1339.316406 L 408.671875 1336.355469 L 414.472656 1332.515625 L 416.972656 1328.625 L 421.386719 1325.632812 L 431.417969 1324.015625 L 444.796875 1322.371094 L 457.769531 1318.820312 L 467.332031 1311.816406 L 473.546875 1301.085938 L 477.242188 1286.679688 L 479.234375 1269.265625 L 480.269531 1251.984375 L 481.085938 1238.601562 L 482.257812 1231.722656 L 483.714844 1229.382812 L 485.242188 1228.472656 L 486.652344 1226.460938 L 487.960938 1223.171875 L 489.226562 1219.019531 L 490.507812 1214.417969 L 491.847656 1209.683594 L 493.226562 1204.769531 L 494.605469 1199.53125 L 495.953125 1193.945312 L 497.285156 1188.476562 L 498.613281 1183.707031 L 499.945312 1180.007812 L 501.289062 1176.90625 L 502.636719 1173.71875 L 503.980469 1169.929688 L 505.324219 1165.726562 L 506.667969 1161.476562 L 508.011719 1157.429688 L 509.351562 1153.414062 L 510.691406 1149.148438 L 512.03125 1144.457031 L 513.371094 1139.578125 L 514.710938 1134.847656 L 516.058594 1130.609375 L 517.402344 1127.117188 L 518.75 1124.238281 L 520.089844 1121.773438 L 521.425781 1119.476562 L 522.761719 1117.011719 L 524.101562 1114.015625 L 525.449219 1110.226562 L 526.800781 1105.75 L 528.144531 1100.792969 L 529.484375 1095.546875 L 530.816406 1090.113281 L 532.152344 1084.574219 L 533.5 1078.941406 L 534.847656 1072.914062 L 536.195312 1066.121094 L 537.535156 1058.269531 L 538.871094 1049.457031 L 540.210938 1039.855469 L 541.550781 1029.675781 L 542.898438 1019.199219 L 544.242188 1008.742188 L 545.585938 998.617188 L 546.921875 988.964844 L 548.257812 979.253906 L 549.605469 968.777344 L 550.964844 957.28125 L 552.316406 946.328125 L 553.648438 937.925781 L 554.949219 932.816406 L 556.253906 926.691406 L 557.617188 913.980469 L 559.058594 891.226562 L 560.492188 863.480469 L 561.804688 837.90625 L 562.929688 819.9375 L 564.0625 808.042969 L 565.441406 798.953125 L 567.199219 789.746094 L 569.011719 778.890625 L 570.445312 765.191406 L 571.058594 747.464844 L 570.527344 725.707031 L 568.941406 704.640625 L 566.492188 690.164062 L 563.402344 686.125 L 559.953125 688.097656 L 556.457031 689.597656 L 553.195312 685.835938 L 550.339844 678.8125 L 548.042969 672.210938 L 546.3125 668.714844 L 544.597656 666.949219 L 542.214844 664.523438 L 538.738281 659.65625 L 534.820312 653.007812 L 531.378906 645.835938 L 529.101562 639.15625 L 527.730469 632.988281 L 526.78125 627.09375 L 525.769531 621.238281 L 524.226562 615.210938 L 521.71875 608.929688 L 517.847656 602.335938 L 512.472656 595.425781 L 506.578125 588.4375 L 501.421875 581.65625 L 497.828125 575.261719 L 494.914062 568.945312 L 491.371094 562.285156 L 486.199219 554.988281 L 479.664062 547.289062 L 472.339844 539.546875 L 464.796875 532.109375 L 457.527344 525.269531 L 451.007812 519.289062 L 445.585938 514.335938 L 441.066406 510.144531 L 437.125 506.355469 L 433.4375 502.59375 L 429.535156 498.484375 L 424.34375 493.625 L 416.660156 487.597656 L 405.9375 480.277344 L 394.273438 472.707031 L 384.441406 466.214844 L 378.457031 461.808594 L 375.339844 459.171875 L 373.363281 457.667969 L 371.007812 456.820312 L 367.605469 456.800781 L 362.703125 457.949219 L 356.085938 460.304688 L 348.550781 462.695312 L 341.140625 463.660156 L 334.476562 462.179688 L 327.550781 459.023438 L 318.929688 455.410156 L 307.183594 452.554688 L 306.351562 454.527344 "/>
<path style="fill:none;stroke-width:0.75;stroke-linecap:round;stroke-linejoin:round;stroke:rgb(0%,0%,0%);stroke-opacity:1;stroke-miterlimit:10;" d="M 698.042969 504.351562 L 694.625 505.847656 L 692.867188 508.386719 L 691.984375 511.441406 L 691.1875 514.488281 L 689.691406 517.007812 L 686.902344 518.597656 L 683.023438 519.386719 L 678.449219 519.625 L 673.574219 519.558594 L 668.792969 519.441406 L 664.414062 519.488281 L 660.402344 519.78125 L 656.621094 520.355469 L 652.949219 521.261719 L 649.253906 522.535156 L 645.453125 524.210938 L 641.636719 526.28125 L 637.933594 528.714844 L 634.480469 531.492188 L 631.410156 534.589844 L 628.804688 537.976562 L 626.550781 541.585938 L 624.492188 545.335938 L 622.460938 549.15625 L 620.296875 552.964844 L 617.886719 556.710938 L 615.300781 560.433594 L 612.65625 564.191406 L 610.0625 568.042969 L 607.644531 572.054688 L 605.457031 576.253906 L 603.363281 580.546875 L 601.171875 584.816406 L 598.679688 588.9375 L 595.699219 592.789062 L 592.152344 596.316406 L 588.414062 599.695312 L 584.984375 603.175781 L 582.359375 607.003906 L 581.03125 611.425781 L 581.367188 616.578125 L 583.21875 622.175781 L 586.308594 627.8125 L 590.351562 633.089844 L 595.074219 637.609375 L 600.15625 641.140625 L 605.164062 644.125 L 609.617188 647.160156 L 613.042969 650.859375 L 614.964844 655.820312 L 615.050781 662.371094 L 613.578125 669.703125 L 610.957031 676.71875 L 607.605469 682.332031 L 603.9375 685.453125 L 600.289062 685.492188 L 596.679688 683.914062 L 593.050781 682.683594 L 589.335938 683.765625 L 585.472656 689.132812 L 581.449219 700.101562 L 577.460938 715.394531 L 573.738281 733.085938 L 570.523438 751.253906 L 568.050781 767.96875 L 566.472656 781.871094 L 565.570312 793.871094 L 565.039062 805.445312 L 564.570312 818.074219 L 563.863281 833.230469 L 562.691406 851.847656 L 561.136719 872.671875 L 559.371094 893.910156 L 557.5625 913.757812 L 555.878906 930.421875 L 554.441406 942.722656 L 553.210938 951.933594 L 552.09375 959.945312 L 551 968.648438 L 549.839844 979.9375 L 548.550781 995.058594 L 547.152344 1012.714844 L 545.691406 1030.976562 L 544.21875 1047.902344 L 542.777344 1061.554688 L 541.40625 1070.554688 L 540.089844 1075.695312 L 538.804688 1078.332031 L 537.53125 1079.8125 L 536.242188 1081.492188 L 534.925781 1084.421875 L 533.578125 1088.460938 L 532.214844 1093.167969 L 530.839844 1098.109375 L 529.464844 1102.84375 L 528.097656 1107.023438 L 526.742188 1110.6875 L 525.394531 1113.957031 L 524.0625 1116.957031 L 522.746094 1119.8125 L 521.441406 1122.652344 L 520.140625 1125.601562 L 518.828125 1128.800781 L 517.496094 1132.382812 L 516.128906 1136.476562 L 514.722656 1141.15625 L 513.296875 1146.230469 L 511.878906 1151.453125 L 510.503906 1156.578125 L 509.199219 1161.355469 L 507.980469 1165.597656 L 506.800781 1169.386719 L 505.605469 1172.867188 L 504.332031 1176.183594 L 502.925781 1179.484375 L 501.355469 1182.910156 L 499.707031 1186.582031 L 498.085938 1190.628906 L 496.605469 1195.171875 L 495.378906 1200.332031 L 494.460938 1206.117188 L 493.699219 1212.09375 L 492.890625 1217.714844 L 491.820312 1222.425781 L 490.289062 1225.679688 L 488.179688 1227.242188 L 485.757812 1228.121094 L 483.378906 1229.640625 L 481.40625 1233.125 L 480.191406 1239.890625 L 480.023438 1250.769531 L 480.902344 1264.605469 L 482.753906 1279.746094 L 485.503906 1294.535156 L 489.078125 1307.332031 L 493.398438 1316.875 L 498.363281 1323.519531 L 503.871094 1328.011719 L 509.808594 1331.101562 L 516.078125 1333.539062 L 522.558594 1335.96875 L 529.109375 1338.648438 L 535.574219 1341.714844 L 541.804688 1345.320312 L 547.644531 1349.609375 L 553.109375 1354.640625 L 558.910156 1360.113281 L 565.925781 1365.644531 L 575.03125 1370.84375 L 587.109375 1375.320312 L 602.660156 1378.75 L 620.6875 1381.070312 L 639.8125 1382.269531 L 658.664062 1382.351562 L 675.859375 1381.304688 L 690.355469 1379.171875 L 702.398438 1376.15625 L 712.558594 1372.507812 L 721.40625 1368.476562 L 729.519531 1364.308594 L 737.46875 1360.25 L 745.675781 1356.496094 L 753.941406 1353.007812 L 761.929688 1349.691406 L 769.296875 1346.445312 L 775.691406 1343.183594 L 780.921875 1339.828125 L 785.378906 1336.386719 L 789.601562 1332.890625 L 794.128906 1329.371094 L 799.496094 1325.859375 L 806.066406 1322.371094 L 813.488281 1318.898438 L 821.226562 1315.40625 L 828.753906 1311.871094 L 835.53125 1308.265625 L 841.199219 1304.558594 L 846.050781 1300.683594 L 850.539062 1296.574219 L 855.121094 1292.160156 L 860.261719 1287.371094 L 866.273438 1282.164062 L 872.902344 1276.601562 L 879.742188 1270.773438 L 886.394531 1264.769531 L 892.464844 1258.679688 L 897.65625 1252.597656 L 902.082031 1246.644531 L 905.972656 1240.933594 L 909.550781 1235.589844 L 913.035156 1230.730469 L 916.609375 1226.421875 L 920.289062 1222.46875 L 924.035156 1218.621094 L 927.820312 1214.636719 L 931.617188 1210.257812 L 935.40625 1205.304688 L 939.222656 1199.867188 L 943.125 1194.097656 L 947.167969 1188.15625 L 951.398438 1182.199219 L 955.816406 1176.371094 L 960.195312 1170.792969 L 964.261719 1165.570312 L 967.726562 1160.816406 L 970.3125 1156.640625 L 971.867188 1153.066406 L 972.734375 1149.828125 L 973.378906 1146.5625 L 974.28125 1142.921875 L 975.902344 1138.546875 L 978.5625 1133.191406 L 981.9375 1127.003906 L 985.558594 1120.242188 L 988.9375 1113.164062 L 991.609375 1106.019531 L 993.25 1099.039062 L 994.140625 1092.335938 L 994.722656 1086 L 995.441406 1080.113281 L 996.734375 1074.769531 L 998.878906 1070.019531 L 1001.53125 1065.816406 L 1004.171875 1062.070312 L 1006.289062 1058.707031 L 1007.371094 1055.640625 L 1007.109375 1052.777344 L 1006.015625 1049.988281 L 1004.789062 1047.128906 L 1004.152344 1044.054688 L 1004.808594 1040.632812 L 1007.230469 1036.738281 L 1010.941406 1032.378906 L 1015.226562 1027.582031 L 1019.359375 1022.375 L 1022.632812 1016.789062 L 1024.535156 1010.828125 L 1025.40625 1004.445312 L 1025.800781 997.5625 L 1026.265625 990.105469 L 1027.359375 982.003906 L 1029.4375 973.285156 L 1032.085938 964.378906 L 1034.707031 955.820312 L 1036.695312 948.144531 L 1037.445312 941.882812 L 1036.597656 937.394531 L 1034.746094 934.355469 L 1032.726562 932.261719 L 1031.382812 930.609375 L 1031.546875 928.898438 L 1033.769531 926.699219 L 1037.425781 923.859375 L 1041.609375 920.308594 L 1045.414062 915.96875 L 1047.925781 910.765625 L 1048.496094 904.714844 L 1047.550781 898.21875 L 1045.757812 891.765625 L 1043.800781 885.859375 L 1042.355469 880.984375 L 1041.929688 877.402344 L 1042.3125 874.40625 L 1043.125 871.0625 L 1043.976562 866.425781 L 1044.492188 859.554688 L 1044.390625 849.839844 L 1043.804688 837.960938 L 1042.984375 824.917969 L 1042.171875 811.71875 L 1041.609375 799.367188 L 1041.46875 788.628906 L 1041.636719 779.292969 L 1041.933594 770.90625 L 1042.179688 763.015625 L 1042.1875 755.164062 L 1041.820312 747.035156 L 1041.128906 738.800781 L 1040.191406 730.765625 L 1039.105469 723.234375 L 1037.949219 716.507812 L 1036.824219 710.8125 L 1035.835938 706.015625 L 1035.097656 701.914062 L 1034.71875 698.289062 L 1034.820312 694.9375 L 1035.4375 691.664062 L 1036.347656 688.371094 L 1037.25 684.976562 L 1037.84375 681.402344 L 1037.835938 677.566406 L 1037.007812 673.4375 L 1035.484375 669.140625 L 1033.476562 664.863281 L 1031.1875 660.78125 L 1028.828125 657.070312 L 1026.59375 653.84375 L 1024.617188 650.949219 L 1023.019531 648.171875 L 1021.929688 645.292969 L 1021.460938 642.097656 L 1021.660156 638.433594 L 1022.222656 634.417969 L 1022.765625 630.234375 L 1022.914062 626.074219 L 1022.285156 622.113281 L 1020.613281 618.492188 L 1018.109375 615.160156 L 1015.09375 612.015625 L 1011.902344 608.960938 L 1008.855469 605.894531 L 1006.210938 602.757812 L 1003.941406 599.652344 L 1001.949219 596.71875 L 1000.132812 594.105469 L 998.394531 591.945312 L 996.640625 590.386719 L 994.714844 589.4375 L 992.25 588.566406 L 988.824219 587.101562 L 984.019531 584.382812 L 977.410156 579.738281 L 968.8125 572.796875 L 958.960938 564.347656 L 948.839844 555.472656 L 939.421875 547.25 L 931.679688 540.765625 L 926.292969 536.792969 L 922.738281 534.894531 L 920.203125 534.316406 L 917.871094 534.3125 L 914.917969 534.132812 L 910.746094 533.203125 L 905.609375 531.644531 L 899.980469 529.738281 L 894.324219 527.785156 L 889.121094 526.070312 L 884.683594 524.800781 L 880.730469 523.835938 L 876.828125 522.960938 L 872.546875 521.949219 L 867.449219 520.585938 L 861.308594 518.746094 L 854.726562 516.714844 L 848.507812 514.878906 L 843.464844 513.617188 L 840.402344 513.320312 L 839.863281 514.246094 L 841.335938 516.179688 L 844.046875 518.773438 L 847.214844 521.695312 L 850.0625 524.601562 L 852 527.222656 L 853.125 529.605469 L 853.730469 531.859375 L 854.101562 534.109375 L 854.515625 536.464844 L 855.195312 539.058594 L 856.058594 542.078125 L 856.960938 545.71875 L 857.753906 550.183594 L 858.292969 555.667969 L 858.488281 562.261719 L 858.507812 569.59375 L 858.585938 577.191406 L 858.945312 584.570312 L 859.820312 591.25 L 861.339844 596.871094 L 863.242188 601.515625 L 865.171875 605.394531 L 866.761719 608.710938 L 867.660156 611.667969 L 867.640625 614.480469 L 867.0625 617.410156 L 866.40625 620.722656 L 866.167969 624.695312 L 866.835938 629.59375 L 868.773438 635.550781 L 871.835938 642.152344 L 875.753906 648.84375 L 880.253906 655.070312 L 885.070312 660.273438 L 889.914062 664.09375 L 894.480469 666.957031 L 898.449219 669.476562 L 901.503906 672.269531 L 903.320312 675.957031 L 903.707031 680.976562 L 902.964844 687.105469 L 901.523438 693.933594 L 899.8125 701.066406 L 898.257812 708.089844 L 897.238281 714.617188 L 896.96875 720.261719 L 897.601562 724.65625 L 899.296875 727.417969 L 902.222656 728.179688 L 906.445312 726.8125 L 911.714844 724.203125 L 917.6875 721.484375 L 924.023438 719.785156 L 930.378906 720.246094 L 936.484375 723.636719 L 942.359375 729.320312 L 948.082031 736.292969 L 953.746094 743.558594 L 959.4375 750.113281 L 965.144531 755.203125 L 970.480469 759.007812 L 974.964844 761.964844 L 978.117188 764.492188 L 979.457031 767.023438 L 978.691406 769.90625 L 976.332031 773.199219 L 973.074219 776.878906 L 969.621094 780.925781 L 966.667969 785.320312 L 964.765625 790.042969 L 963.867188 795.082031 L 963.761719 800.425781 L 964.253906 806.070312 L 965.144531 812 L 966.210938 818.160156 L 967.210938 824.308594 L 967.871094 830.152344 L 967.933594 835.40625 L 967.128906 839.773438 L 965.265625 843.019531 L 962.414062 845.105469 L 958.71875 846.039062 L 954.316406 845.835938 L 949.355469 844.507812 L 944.03125 842.125 L 938.78125 839.007812 L 934.097656 835.535156 L 930.476562 832.089844 L 928.410156 829.042969 L 928.242188 826.636719 L 929.734375 824.515625 L 932.496094 822.1875 L 936.144531 819.160156 L 940.285156 814.933594 L 944.542969 809.203125 L 948.546875 802.414062 L 951.949219 795.199219 L 954.386719 788.183594 L 955.507812 782.007812 L 955.089844 777.1875 L 953.445312 773.8125 L 951.039062 771.855469 L 948.3125 771.296875 L 945.730469 772.105469 L 943.597656 774.210938 L 941.699219 777.347656 L 939.660156 781.199219 L 937.125 785.449219 L 933.722656 789.78125 L 929.265625 793.878906 L 924.230469 797.410156 L 919.265625 800.046875 L 915.019531 801.457031 L 912.140625 801.304688 L 911.074219 799.402344 L 911.464844 796.101562 L 912.742188 791.902344 L 914.339844 787.300781 L 915.703125 782.785156 L 916.328125 778.8125 L 916.007812 775.632812 L 914.59375 773.453125 L 911.953125 772.472656 L 907.933594 772.90625 L 902.503906 774.867188 L 896.027344 778.113281 L 888.976562 782.316406 L 881.824219 787.144531 L 875.039062 792.261719 L 869.101562 797.34375 L 864.417969 802.121094 L 861.195312 806.5625 L 859.574219 810.707031 L 859.703125 814.589844 L 861.726562 818.242188 L 865.617188 821.710938 L 870.660156 825.058594 L 875.972656 828.367188 L 880.667969 831.703125 L 883.859375 835.148438 L 884.894531 838.6875 L 884.03125 841.953125 L 881.761719 844.496094 L 878.574219 845.855469 L 874.964844 845.582031 L 871.347656 843.484375 L 867.859375 840.464844 L 864.566406 837.6875 L 861.527344 836.316406 L 858.804688 837.515625 L 856.484375 842.015625 L 854.699219 848.824219 L 853.605469 856.511719 L 853.363281 863.644531 L 854.125 868.800781 L 855.996094 870.972656 L 858.851562 870.871094 L 862.53125 869.617188 L 866.863281 868.347656 L 871.679688 868.1875 L 876.703125 869.976562 L 881.261719 873.363281 L 884.570312 877.695312 L 885.847656 882.332031 L 884.308594 886.621094 L 879.464844 890.078125 L 871.949219 892.851562 L 862.695312 895.25 L 852.628906 897.582031 L 842.671875 900.164062 L 833.585938 903.207031 L 825.441406 906.59375 L 818.140625 910.101562 L 811.582031 913.523438 L 805.664062 916.640625 L 800.253906 919.289062 L 795.058594 921.511719 L 789.757812 923.398438 L 784.011719 925.035156 L 777.503906 926.511719 L 770.027344 927.863281 L 761.890625 928.867188 L 753.523438 929.257812 L 745.363281 928.753906 L 737.835938 927.082031 L 731.28125 924.125 L 725.621094 920.386719 L 720.683594 916.527344 L 716.296875 913.207031 L 712.292969 911.089844 L 708.484375 910.644531 L 704.664062 911.597656 L 700.613281 913.472656 L 696.113281 915.796875 L 690.945312 918.109375 L 685.023438 919.992188 L 678.835938 921.25 L 672.988281 921.742188 L 668.101562 921.328125 L 664.789062 919.871094 L 663.488281 917.300781 L 663.886719 913.828125 L 665.496094 909.738281 L 667.828125 905.3125 L 670.394531 900.835938 L 672.800781 896.53125 L 675.046875 892.371094 L 677.226562 888.265625 L 679.441406 884.132812 L 681.78125 879.890625 L 684.347656 875.472656 L 687.242188 870.957031 L 690.566406 866.445312 L 694.429688 862.035156 L 698.933594 857.832031 L 704.070312 853.851562 L 709.402344 849.785156 L 714.363281 845.242188 L 718.410156 839.828125 L 720.980469 833.15625 L 721.714844 825.019531 L 721.007812 815.992188 L 719.457031 806.835938 L 717.648438 798.304688 L 716.175781 791.164062 L 715.464844 785.941406 L 715.261719 782.238281 L 715.15625 779.414062 L 714.726562 776.84375 L 713.5625 773.886719 L 711.386719 770.058594 L 708.53125 765.445312 L 705.460938 760.273438 L 702.652344 754.777344 L 700.566406 749.1875 L 699.5625 743.6875 L 699.488281 738.28125 L 700.078125 732.933594 L 701.070312 727.601562 L 702.195312 722.25 L 703.246094 716.816406 L 704.234375 711.164062 L 705.234375 705.140625 L 706.324219 698.589844 L 707.570312 691.351562 L 709.023438 683.375 L 710.605469 675.035156 L 712.210938 666.800781 L 713.738281 659.144531 L 715.082031 652.550781 L 716.183594 647.339844 L 717.148438 643.292969 L 718.136719 640.03125 L 719.296875 637.1875 L 720.785156 634.390625 L 722.75 631.339844 L 725.359375 628.027344 L 728.761719 624.515625 L 733.125 620.875 L 738.601562 617.164062 L 745.199219 613.441406 L 752.320312 609.742188 L 759.214844 606.085938 L 765.128906 602.503906 L 769.316406 599.011719 L 771.28125 595.613281 L 771.5625 592.191406 L 770.964844 588.617188 L 770.285156 584.746094 L 770.320312 580.4375 L 771.636719 575.597656 L 773.867188 570.257812 L 776.40625 564.488281 L 778.660156 558.363281 L 780.019531 551.960938 L 780.167969 545.367188 L 779.949219 538.765625 L 780.472656 532.363281 L 782.863281 526.359375 L 788.246094 520.964844 L 796.644531 516.335938 L 803.734375 512.46875 L 804.09375 509.324219 L 792.300781 506.851562 L 762.945312 505.011719 L 710.601562 503.753906 L 698.042969 504.351562 "/>
<path style="fill:none;stroke-width:0.75;stroke-linecap:round;stroke-linejoin:round;stroke:rgb(0%,0%,0%);stroke-opacity:1;stroke-miterlimit:10;" d="M 566.335938 488.535156 L 561.167969 494.964844 L 560.8125 501.308594 L 555.75 507.234375 L 555.71875 512.503906 L 560.945312 516.914062 L 560.8125 520.371094 L 558.925781 523.074219 L 557.546875 525.359375 L 556.191406 527.765625 L 555.511719 530.976562 L 558.257812 536.054688 L 558.453125 544.089844 L 560.847656 555.597656 L 561.363281 569.867188 L 562.984375 584.042969 L 564.632812 596.808594 L 565.667969 607.757812 L 566.734375 616.554688 L 568.871094 622.855469 L 569.226562 626.773438 L 574.398438 628.519531 L 576.859375 628.078125 L 577.800781 625.875 L 578.894531 622.4375 L 580.5 618.195312 L 582.140625 613.511719 L 582.671875 608.648438 L 584.960938 603.945312 L 585.480469 599.308594 L 592.808594 594.613281 L 593.953125 590.101562 L 597.15625 585.796875 L 600.460938 581.671875 L 602.53125 577.664062 L 604.652344 573.699219 L 608.984375 569.714844 L 609.605469 565.714844 L 614.378906 561.597656 L 615.25 557.328125 L 619.023438 552.804688 L 621.371094 548.132812 L 621.722656 543.40625 L 623.304688 538.738281 L 630.535156 534.558594 L 633.585938 531.371094 L 636.089844 528.972656 L 639.027344 526.964844 L 643.878906 525.007812 L 647.304688 523.0625 L 649.238281 520.859375 L 652.59375 518.035156 L 660 514.414062 L 657.878906 510.316406 L 657.515625 505.785156 L 651.957031 500.75 L 653.855469 495.542969 L 644.742188 490.824219 L 567.300781 486.566406 L 566.335938 488.535156 "/>
<path style="fill:none;stroke-width:0.75;stroke-linecap:round;stroke-linejoin:round;stroke:rgb(0%,0%,0%);stroke-opacity:1;stroke-miterlimit:10;" d="M 767.535156 309.292969 L 760.363281 312.507812 L 753.746094 315.601562 L 748.605469 318.59375 L 745.214844 321.488281 L 741.570312 324.261719 L 736.78125 327.21875 L 730.859375 330.632812 L 725.3125 334.332031 L 721.082031 338.292969 L 718.546875 342.492188 L 716.96875 346.652344 L 715.769531 350.757812 L 714.566406 354.886719 L 713.300781 359.226562 L 711.996094 363.925781 L 710.667969 369.042969 L 709.324219 374.378906 L 707.972656 379.765625 L 706.617188 385.054688 L 705.269531 390.132812 L 703.925781 394.945312 L 702.574219 399.554688 L 701.183594 404.28125 L 699.789062 409.175781 L 698.46875 414.191406 L 697.449219 419.28125 L 696.960938 424.710938 L 696.957031 430.855469 L 696.566406 437.980469 L 695.757812 445.359375 L 694.839844 452.09375 L 694.394531 457.605469 L 694.792969 461.730469 L 695.371094 465.46875 L 695.414062 469.566406 L 694.554688 474.441406 L 694.308594 479.667969 L 699.273438 484.476562 L 713.753906 488.023438 L 737.386719 489.667969 L 765.804688 490.09375 L 792.90625 490.269531 L 811.179688 490.835938 L 822.253906 491.835938 L 830.332031 493.152344 L 839.085938 494.613281 L 849.378906 496.058594 L 861.558594 497.308594 L 876 498.09375 L 890.316406 498.191406 L 901.742188 497.515625 L 909.371094 496.414062 L 914.335938 495.015625 L 917.945312 493.300781 L 920.457031 490.984375 L 922.03125 487.847656 L 922.605469 483.828125 L 921.386719 479.246094 L 918.652344 474.664062 L 915.097656 470.523438 L 911.765625 466.65625 L 909.484375 462.910156 L 907.964844 459.578125 L 906.679688 456.460938 L 905.039062 453.136719 L 902.347656 449.019531 L 898.574219 443.988281 L 893.902344 438.113281 L 888.65625 431.6875 L 883.210938 425.042969 L 877.957031 418.511719 L 873.21875 412.308594 L 868.714844 406.265625 L 864.03125 400.132812 L 858.945312 393.765625 L 853.636719 387.277344 L 848.433594 380.867188 L 843.699219 374.734375 L 839.179688 368.730469 L 834.492188 362.609375 L 829.464844 356.234375 L 824.308594 349.691406 L 819.367188 343.148438 L 814.796875 336.777344 L 809.710938 330.472656 L 802.695312 324.203125 L 792.351562 318.398438 L 781.257812 313.523438 L 772.273438 309.84375 L 765.09375 306.859375 L 767.535156 309.292969 "/>
</g>
</svg>
