<?xml version="1.0" encoding="UTF-8"?>
<svg xmlns="http://www.w3.org/2000/svg" xmlns:xlink="http://www.w3.org/1999/xlink" width="1428pt" height="1605pt" viewBox="0 0 1428 1605" version="1.1">
<g id="surface254">
<rect x="0" y="0" width="1428" height="1605" style="fill:rgb(100%,100%,100%);fill-opacity:1;stroke:none;"/>
<path style="fill:none;stroke-width:0.75;stroke-linecap:round;stroke-linejoin:round;stroke:rgb(0%,0%,0%);stroke-opacity:1;stroke-miterlimit:10;" d="M 738.71875 293.652344 L 731.253906 300.585938 L 725.527344 306.265625 L 721.132812 311.1875 L 717.675781 315.859375 L 714.792969 320.691406 L 712.285156 325.734375 L 710.003906 330.960938 L 707.792969 336.332031 L 705.5 341.820312 L 703.019531 347.363281 L 700.421875 352.828125 L 697.824219 358.054688 L 695.351562 362.886719 L 693.117188 367.164062 L 691.214844 370.816406 L 689.625 374.113281 L 688.296875 377.40625 L 687.1875 381.050781 L 686.25 385.40625 L 685.425781 390.707031 L 684.582031 396.726562 L 683.589844 403.121094 L 682.304688 409.542969 L 680.589844 415.648438 L 678.394531 421.175781 L 676.003906 426.214844 L 673.789062 430.929688 L 672.125 435.496094 L 671.382812 440.078125 L 671.734375 444.789062 L 672.53125 449.511719 L 672.925781 454.066406 L 672.070312 458.28125 L 669.113281 461.976562 L 663.589844 464.976562 L 656.550781 467.105469 L 649.429688 468.191406 L 643.667969 468.058594 L 640.695312 466.527344 L 641.292969 463.550781 L 643.648438 459.558594 L 645.289062 455.113281 L 643.738281 450.765625 L 636.53125 447.074219 L 622.195312 444.488281 L 603.222656 443.019531 L 583.117188 442.566406 L 565.375 443.03125 L 552.765625 444.3125 L 545.179688 446.261719 L 541.773438 448.71875 L 541.710938 451.527344 L 544.15625 454.535156 L 548.296875 457.59375 L 553.453125 460.632812 L 558.96875 463.597656 L 564.183594 466.429688 L 568.441406 469.074219 L 571.222656 471.515625 L 572.5 473.917969 L 572.382812 476.476562 L 570.988281 479.402344 L 568.417969 482.886719 L 564.863281 487.050781 L 560.800781 491.636719 L 556.800781 496.300781 L 553.421875 500.699219 L 551.226562 504.492188 L 550.582031 507.441406 L 551.066406 509.78125 L 552.070312 511.851562 L 552.980469 513.996094 L 553.179688 516.558594 L 552.230469 519.761719 L 550.367188 523.375 L 548 527.054688 L 545.539062 530.449219 L 543.394531 533.210938 L 541.890625 535.136719 L 540.996094 536.570312 L 540.589844 537.992188 L 540.5625 539.898438 L 540.792969 542.765625 L 541.191406 546.953125 L 541.746094 552.28125 L 542.488281 558.441406 L 543.425781 565.125 L 544.582031 572.027344 L 545.933594 578.863281 L 547.253906 585.457031 L 548.28125 591.664062 L 548.753906 597.332031 L 548.398438 602.320312 L 547.195312 606.558594 L 546.113281 610.320312 L 546.351562 613.972656 L 549.121094 617.867188 L 555.242188 622.253906 L 564.023438 626.941406 L 574.371094 631.625 L 585.210938 636.003906 L 595.460938 639.777344 L 604.164062 642.753906 L 610.886719 645.21875 L 615.308594 647.578125 L 617.128906 650.234375 L 616.03125 653.585938 L 611.910156 657.855469 L 605.441406 662.539062 L 597.515625 666.953125 L 589.011719 670.410156 L 580.820312 672.230469 L 573.636719 671.917969 L 567.464844 669.765625 L 562.113281 666.261719 L 557.402344 661.890625 L 553.144531 657.140625 L 549.1875 652.40625 L 545.503906 647.703125 L 542.082031 642.96875 L 538.925781 638.121094 L 536.03125 633.089844 L 533.359375 627.792969 L 530.738281 622.101562 L 527.953125 615.875 L 524.796875 608.964844 L 521.054688 601.234375 L 516.578125 592.644531 L 511.488281 583.585938 L 505.949219 574.5625 L 500.144531 566.058594 L 494.246094 558.582031 L 488.429688 552.488281 L 482.878906 547.613281 L 477.78125 543.65625 L 473.320312 540.3125 L 469.683594 537.289062 L 466.980469 534.320312 L 465.035156 531.34375 L 463.59375 528.332031 L 462.40625 525.261719 L 461.171875 522.070312 L 459.359375 518.542969 L 456.394531 514.421875 L 451.691406 509.453125 L 444.671875 503.386719 L 435.058594 496.117188 L 423.777344 488.152344 L 412.046875 480.144531 L 401.105469 472.753906 L 392.171875 466.640625 L 386.074219 462.28125 L 382.03125 459.460938 L 378.859375 457.78125 L 375.386719 456.847656 L 370.421875 456.261719 L 363.039062 455.722656 L 353.328125 455.285156 L 341.617188 455.085938 L 328.246094 455.273438 L 313.550781 455.996094 L 297.9375 457.355469 L 282.058594 459.324219 L 266.648438 461.835938 L 252.429688 464.832031 L 240.128906 468.242188 L 230.261719 471.984375 L 222.472656 475.910156 L 216.203125 479.847656 L 210.886719 483.636719 L 205.960938 487.097656 L 200.984375 490.136719 L 196 492.902344 L 191.175781 495.609375 L 186.671875 498.480469 L 182.660156 501.722656 L 179.230469 505.484375 L 176.230469 509.609375 L 173.421875 513.867188 L 170.585938 518.023438 L 167.484375 521.851562 L 163.957031 525.1875 L 160.082031 528.167969 L 156.007812 530.992188 L 151.878906 533.859375 L 147.835938 536.972656 L 144.023438 540.476562 L 140.578125 544.289062 L 137.625 548.265625 L 135.304688 552.261719 L 133.6875 556.164062 L 132.652344 559.957031 L 132.007812 563.660156 L 131.578125 567.28125 L 131.175781 570.835938 L 130.632812 574.355469 L 129.8125 577.929688 L 128.59375 581.675781 L 126.859375 585.699219 L 124.476562 590.109375 L 121.390625 595.003906 L 117.742188 600.40625 L 113.746094 606.328125 L 109.613281 612.78125 L 105.542969 619.769531 L 101.710938 627.25 L 98.136719 634.929688 L 94.800781 642.457031 L 91.6875 649.488281 L 88.777344 655.671875 L 86.058594 660.753906 L 83.558594 664.851562 L 81.304688 668.183594 L 79.335938 670.96875 L 77.675781 673.417969 L 76.34375 675.722656 L 75.265625 677.957031 L 74.355469 680.160156 L 73.527344 682.386719 L 72.691406 684.675781 L 71.765625 687.195312 L 70.671875 690.589844 L 69.347656 695.617188 L 67.726562 703.042969 L 65.742188 713.632812 L 63.367188 727.722656 L 60.757812 743.953125 L 58.113281 760.550781 L 55.636719 775.734375 L 53.527344 787.71875 L 51.925781 795.292969 L 50.734375 799.472656 L 49.800781 801.84375 L 48.976562 803.980469 L 48.101562 807.46875 L 47.046875 813.472656 L 45.785156 821.476562 L 44.308594 830.554688 L 42.605469 839.773438 L 40.714844 848.421875 L 38.835938 856.695312 L 37.210938 865.003906 L 36.082031 873.753906 L 35.695312 883.355469 L 36.199219 894.042969 L 37.367188 905.3125 L 38.882812 916.492188 L 40.429688 926.894531 L 41.6875 935.847656 L 42.429688 942.886719 L 42.792969 948.425781 L 42.996094 953.09375 L 43.269531 957.519531 L 43.835938 962.328125 L 44.859375 967.992188 L 46.230469 974.304688 L 47.792969 980.910156 L 49.378906 987.433594 L 50.816406 993.519531 L 51.984375 998.882812 L 52.894531 1003.597656 L 53.59375 1007.816406 L 54.140625 1011.6875 L 54.578125 1015.375 L 54.984375 1019.007812 L 55.480469 1022.664062 L 56.222656 1026.398438 L 57.359375 1030.265625 L 59.035156 1034.328125 L 61.320312 1038.609375 L 63.957031 1042.984375 L 66.605469 1047.308594 L 68.933594 1051.425781 L 70.597656 1055.191406 L 71.367188 1058.488281 L 71.417969 1061.375 L 71.046875 1063.949219 L 70.53125 1066.300781 L 70.160156 1068.523438 L 70.191406 1070.730469 L 70.738281 1073.054688 L 71.898438 1075.652344 L 73.757812 1078.667969 L 76.382812 1082.207031 L 79.722656 1086.140625 L 83.71875 1090.300781 L 88.292969 1094.503906 L 93.382812 1098.578125 L 98.894531 1102.410156 L 104.644531 1106.109375 L 110.425781 1109.851562 L 116.039062 1113.8125 L 121.269531 1118.164062 L 125.964844 1123.03125 L 130.175781 1128.316406 L 133.996094 1133.886719 L 137.527344 1139.59375 L 140.859375 1145.300781 L 144.070312 1150.875 L 147.113281 1156.242188 L 149.929688 1161.339844 L 152.449219 1166.109375 L 154.605469 1170.480469 L 156.382812 1174.421875 L 157.9375 1177.972656 L 159.480469 1181.207031 L 161.214844 1184.191406 L 163.355469 1186.992188 L 166.035156 1189.691406 L 169.125 1192.410156 L 172.425781 1195.277344 L 175.738281 1198.425781 L 178.863281 1201.988281 L 181.660156 1206.046875 L 184.210938 1210.5 L 186.667969 1215.203125 L 189.164062 1220.007812 L 191.851562 1224.769531 L 194.835938 1229.363281 L 198.082031 1233.78125 L 201.523438 1238.03125 L 205.09375 1242.121094 L 208.726562 1246.070312 L 212.351562 1249.910156 L 215.882812 1253.773438 L 219.234375 1257.816406 L 222.324219 1262.191406 L 225.0625 1267.0625 L 227.445312 1272.496094 L 229.773438 1278.226562 L 232.433594 1283.902344 L 235.808594 1289.164062 L 240.148438 1293.753906 L 245.183594 1297.765625 L 250.511719 1301.371094 L 255.730469 1304.757812 L 260.441406 1308.105469 L 264.429688 1311.558594 L 268.21875 1315.128906 L 272.527344 1318.792969 L 278.070312 1322.539062 L 285.5625 1326.335938 L 295.519531 1330.132812 L 307.699219 1333.746094 L 321.65625 1336.957031 L 336.945312 1339.550781 L 353.121094 1341.304688 L 369.703125 1342.050781 L 386.042969 1341.808594 L 401.445312 1340.648438 L 415.226562 1338.632812 L 426.691406 1335.839844 L 435.472656 1332.398438 L 442.503906 1328.730469 L 449.03125 1325.332031 L 456.308594 1322.691406 L 465.585938 1321.300781 L 477.65625 1321.503906 L 491.484375 1323.066406 L 505.578125 1325.613281 L 518.433594 1328.753906 L 528.5625 1332.113281 L 534.9375 1335.378906 L 538.386719 1338.476562 L 540.21875 1341.410156 L 541.726562 1344.175781 L 544.214844 1346.769531 L 548.636719 1349.214844 L 554.542969 1351.632812 L 561.136719 1354.164062 L 567.628906 1356.957031 L 573.21875 1360.15625 L 577.515625 1363.832031 L 581.707031 1367.773438 L 587.382812 1371.703125 L 596.132812 1375.335938 L 609.042969 1378.410156 L 625.179688 1380.742188 L 643.105469 1382.160156 L 661.394531 1382.503906 L 678.605469 1381.601562 L 693.605469 1379.378906 L 706.484375 1376.117188 L 717.628906 1372.191406 L 727.421875 1367.964844 L 736.257812 1363.820312 L 744.472656 1360.042969 L 752.203125 1356.585938 L 759.542969 1353.328125 L 766.570312 1350.140625 L 773.382812 1346.902344 L 780.050781 1343.507812 L 786.609375 1339.984375 L 793.078125 1336.382812 L 799.472656 1332.742188 L 805.816406 1329.125 L 812.105469 1325.558594 L 818.257812 1322.046875 L 824.179688 1318.582031 L 829.765625 1315.144531 L 834.914062 1311.726562 L 839.574219 1308.304688 L 843.898438 1304.816406 L 848.082031 1301.183594 L 852.324219 1297.332031 L 856.820312 1293.183594 L 861.707031 1288.695312 L 866.847656 1283.96875 L 872.054688 1279.128906 L 877.132812 1274.304688 L 881.882812 1269.628906 L 886.1875 1265.160156 L 890.253906 1260.679688 L 894.359375 1255.910156 L 898.789062 1250.5625 L 903.820312 1244.355469 L 909.625 1237.128906 L 915.921875 1229.230469 L 922.324219 1221.132812 L 928.441406 1213.316406 L 933.882812 1206.25 L 938.386719 1200.273438 L 942.191406 1195.167969 L 945.660156 1190.582031 L 949.160156 1186.167969 L 952.976562 1181.597656 L 957.066406 1176.671875 L 961.3125 1171.21875 L 965.597656 1165.0625 L 969.796875 1158.03125 L 973.8125 1150.039062 L 977.589844 1141.339844 L 981.097656 1132.261719 L 984.304688 1123.140625 L 987.171875 1114.3125 L 989.683594 1106.058594 L 991.871094 1098.429688 L 993.78125 1091.425781 L 995.453125 1085.050781 L 996.9375 1079.296875 L 998.289062 1074.132812 L 999.59375 1069.359375 L 1000.949219 1064.746094 L 1002.453125 1060.054688 L 1004.207031 1055.058594 L 1006.269531 1049.597656 L 1008.597656 1043.828125 L 1011.09375 1037.972656 L 1013.683594 1032.265625 L 1016.273438 1026.9375 L 1018.78125 1022.15625 L 1021.121094 1017.867188 L 1023.203125 1013.960938 L 1024.9375 1010.320312 L 1026.242188 1006.832031 L 1027.058594 1003.386719 L 1027.46875 999.894531 L 1027.59375 996.257812 L 1027.542969 992.390625 L 1027.433594 988.203125 L 1027.390625 983.644531 L 1027.53125 978.820312 L 1027.992188 973.878906 L 1028.894531 968.972656 L 1030.371094 964.246094 L 1032.472656 959.804688 L 1034.914062 955.578125 L 1037.339844 951.460938 L 1039.386719 947.34375 L 1040.699219 943.113281 L 1041.054688 938.695312 L 1040.792969 934.171875 L 1040.386719 929.65625 L 1040.308594 925.265625 L 1040.925781 921.09375 L 1042.117188 917.148438 L 1043.65625 913.410156 L 1045.308594 909.871094 L 1046.847656 906.507812 L 1048.070312 903.304688 L 1048.890625 900.179688 L 1049.25 897.058594 L 1049.089844 893.855469 L 1048.355469 890.492188 L 1047.046875 886.847656 L 1045.4375 882.632812 L 1043.84375 877.523438 L 1042.597656 871.195312 L 1042.03125 863.316406 L 1042.363281 853.734375 L 1043.425781 842.945312 L 1044.945312 831.601562 L 1046.65625 820.375 L 1048.28125 809.925781 L 1049.597656 800.75 L 1050.5625 792.714844 L 1051.1875 785.527344 L 1051.472656 778.882812 L 1051.429688 772.488281 L 1051.074219 766.125 L 1050.496094 759.859375 L 1049.789062 753.835938 L 1049.058594 748.207031 L 1048.398438 743.109375 L 1047.859375 738.613281 L 1047.300781 734.480469 L 1046.527344 730.386719 L 1045.34375 726.015625 L 1043.554688 721.046875 L 1041.085938 715.292969 L 1038.308594 709.109375 L 1035.707031 702.988281 L 1033.769531 697.414062 L 1032.984375 692.878906 L 1033.644531 689.703125 L 1035.269531 687.546875 L 1037.195312 685.90625 L 1038.746094 684.265625 L 1039.394531 682.1875 L 1039.179688 679.480469 L 1038.285156 676.015625 L 1036.886719 671.671875 L 1035.171875 666.316406 L 1033.308594 659.902344 L 1031.410156 652.6875 L 1029.585938 644.996094 L 1027.941406 637.160156 L 1026.582031 629.515625 L 1025.574219 622.339844 L 1024.816406 615.730469 L 1024.167969 609.722656 L 1023.484375 604.367188 L 1022.628906 599.707031 L 1021.480469 595.707031 L 1020.03125 592 L 1018.304688 588.148438 L 1016.320312 583.707031 L 1014.089844 578.234375 L 1011.628906 571.457031 L 1008.9375 563.792969 L 1006 555.828125 L 1002.816406 548.152344 L 999.367188 541.34375 L 995.667969 535.828125 L 991.78125 531.375 L 987.792969 527.585938 L 983.789062 524.0625 L 979.851562 520.40625 L 976.058594 516.320312 L 972.445312 511.921875 L 969.050781 507.421875 L 965.894531 503.03125 L 963.015625 498.972656 L 960.378906 495.386719 L 957.695312 492.15625 L 954.621094 489.085938 L 950.808594 485.996094 L 945.902344 482.691406 L 939.742188 479.050781 L 932.902344 475.199219 L 926.140625 471.332031 L 920.210938 467.640625 L 915.871094 464.320312 L 913.617188 461.472656 L 912.882812 458.867188 L 912.851562 456.179688 L 912.6875 453.097656 L 911.753906 449.375 L 910.109375 445.113281 L 907.996094 440.484375 L 905.667969 435.664062 L 903.363281 430.832031 L 901.28125 426.132812 L 899.460938 421.605469 L 897.890625 417.273438 L 896.558594 413.140625 L 895.460938 409.226562 L 894.5625 405.53125 L 893.722656 402.007812 L 892.777344 398.585938 L 891.570312 395.210938 L 889.929688 391.816406 L 887.75 388.351562 L 885.144531 384.824219 L 882.285156 381.25 L 879.34375 377.648438 L 876.480469 374.035156 L 873.828125 370.429688 L 871.3125 366.851562 L 868.820312 363.328125 L 866.234375 359.878906 L 863.445312 356.519531 L 860.378906 353.265625 L 857.15625 350.0625 L 853.945312 346.851562 L 850.914062 343.570312 L 848.21875 340.152344 L 845.9375 336.542969 L 843.738281 332.730469 L 841.199219 328.703125 L 837.898438 324.449219 L 833.402344 319.964844 L 827.503906 315.28125 L 820.820312 310.59375 L 814.179688 306.140625 L 808.410156 302.164062 L 804.339844 298.898438 L 802.101562 296.492188 L 799.015625 294.703125 L 791.707031 293.195312 L 776.800781 291.644531 L 750.921875 289.710938 L 738.71875 293.652344 "/>
<path style="fill:none;stroke-width:0.75;stroke-linecap:round;stroke-linejoin:round;stroke:rgb(0%,0%,0%);stroke-opacity:1;stroke-miterlimit:10;" d="M 270.433594 454.246094 L 269.226562 457.90625 L 264.128906 461.046875 L 256.019531 464.457031 L 245.863281 468.675781 L 234.949219 473.234375 L 224.644531 477.410156 L 216.046875 480.691406 L 209.160156 483.433594 L 203.714844 486.21875 L 199.390625 489.445312 L 195.65625 492.863281 L 191.917969 496.046875 L 187.753906 498.753906 L 183.425781 501.460938 L 179.347656 504.8125 L 175.835938 509.222656 L 172.78125 514.125 L 169.964844 518.71875 L 167.164062 522.394531 L 164.179688 525.351562 L 160.8125 527.980469 L 156.914062 530.632812 L 152.578125 533.511719 L 147.953125 536.765625 L 143.285156 540.492188 L 139.199219 544.492188 L 136.417969 548.503906 L 135.339844 552.332031 L 135.0625 556.042969 L 134.367188 559.765625 L 132.460938 563.585938 L 130.269531 567.433594 L 129.160156 571.191406 L 129.929688 574.769531 L 131.167969 578.1875 L 130.890625 581.5 L 127.78125 584.859375 L 123.136719 588.824219 L 118.910156 594.054688 L 116.460938 600.886719 L 114.78125 608.367188 L 112.261719 615.207031 L 107.773438 620.601562 L 102.105469 625.621094 L 96.523438 631.8125 L 92.085938 640.144531 L 89.027344 649.300781 L 87.386719 657.378906 L 86.96875 662.945312 L 86.667969 666.441406 L 85.15625 668.761719 L 81.605469 670.691406 L 77.1875 672.550781 L 73.578125 674.539062 L 72.027344 676.855469 L 72.070312 679.648438 L 72.820312 683.058594 L 73.484375 687.023438 L 73.628906 690.613281 L 72.90625 692.683594 L 71.097656 693.117188 L 68.429688 695.832031 L 65.265625 705.769531 L 61.964844 725.726562 L 58.921875 749.933594 L 56.550781 770.488281 L 55.105469 781.644531 L 54.210938 786.289062 L 53.339844 789.484375 L 52.085938 795.035156 L 50.550781 801.769531 L 48.960938 807.257812 L 47.496094 810.035156 L 46.175781 812.414062 L 44.96875 817.660156 L 43.832031 827.886719 L 42.632812 840.605469 L 41.230469 852.164062 L 39.554688 859.945312 L 37.863281 865.414062 L 36.484375 871.0625 L 35.753906 879.382812 L 35.90625 891.921875 L 36.761719 906.476562 L 38.054688 919.894531 L 39.539062 929.777344 L 41.082031 936.679688 L 42.578125 941.910156 L 43.898438 946.628906 L 44.78125 951.429688 L 44.949219 956.765625 L 44.324219 962.898438 L 43.664062 969.351562 L 43.941406 975.453125 L 45.8125 980.789062 L 48.644531 985.90625 L 51.503906 991.609375 L 53.597656 998.332031 L 54.722656 1005.082031 L 54.835938 1010.5 L 54.046875 1013.683594 L 53.148438 1015.542969 L 53.09375 1017.433594 L 54.523438 1020.4375 L 56.820312 1024.554688 L 59.046875 1029.503906 L 60.527344 1034.933594 L 61.617188 1040.238281 L 62.925781 1044.742188 L 64.910156 1048.023438 L 67.390625 1050.714844 L 70.035156 1053.695312 L 72.429688 1057.5625 L 73.8125 1061.691406 L 73.355469 1065.175781 L 70.757812 1067.382812 L 67.851562 1068.78125 L 66.996094 1070.132812 L 69.707031 1072.066406 L 74.113281 1074.753906 L 77.480469 1078.246094 L 78.027344 1082.488281 L 77.765625 1087 L 79.640625 1091.210938 L 85.652344 1094.734375 L 94.007812 1097.984375 L 101.957031 1101.566406 L 107.457031 1105.882812 L 111.296875 1110.503906 L 114.976562 1114.78125 L 119.609375 1118.367188 L 124.828125 1122.035156 L 129.871094 1126.851562 L 134.183594 1133.445312 L 137.9375 1140.71875 L 141.511719 1147.140625 L 145.09375 1151.664062 L 148.171875 1155.246094 L 150.054688 1159.320312 L 150.488281 1164.855469 L 150.976562 1170.925781 L 153.457031 1176.132812 L 158.980469 1179.480469 L 165.019531 1181.597656 L 168.167969 1183.507812 L 166.320312 1186.027344 L 162.609375 1189.078125 L 161.496094 1192.371094 L 166.070312 1195.667969 L 174.039062 1198.980469 L 181.742188 1202.378906 L 186.355469 1205.949219 L 188.316406 1209.875 L 188.894531 1214.359375 L 189.246094 1219.488281 L 190.09375 1224.875 L 192.0625 1230.027344 L 195.558594 1234.558594 L 200.152344 1238.570312 L 205.203125 1242.28125 L 210.070312 1245.902344 L 214.21875 1249.617188 L 217.527344 1253.488281 L 219.988281 1257.527344 L 221.710938 1261.808594 L 223.347656 1266.574219 L 225.671875 1272.117188 L 229.226562 1278.519531 L 233.601562 1284.972656 L 238.160156 1290.46875 L 242.351562 1294.320312 L 245.980469 1297.160156 L 248.949219 1299.953125 L 251.457031 1303.445312 L 254.921875 1307.539062 L 261.070312 1311.925781 L 270.730469 1316.292969 L 281.179688 1320.324219 L 288.808594 1323.714844 L 291.433594 1326.324219 L 292.59375 1328.734375 L 297.257812 1331.699219 L 309.230469 1335.644531 L 327.671875 1339.675781 L 350.589844 1342.558594 L 375.582031 1343.394531 L 398.679688 1342.574219 L 415.511719 1340.8125 L 423.277344 1338.65625 L 425.414062 1335.980469 L 426.921875 1332.5 L 431.742188 1328.21875 L 439.617188 1324.316406 L 449.234375 1322.265625 L 459.246094 1322.59375 L 468.171875 1322.050781 L 474.503906 1316.429688 L 477.289062 1302.992188 L 477.820312 1284.835938 L 477.941406 1266.511719 L 479.082031 1251.746094 L 480.957031 1240.964844 L 482.851562 1233.773438 L 484.238281 1229.613281 L 485.285156 1227.261719 L 486.34375 1225.34375 L 487.671875 1222.726562 L 489.175781 1219.261719 L 490.671875 1215.058594 L 492.015625 1210.230469 L 493.261719 1204.929688 L 494.523438 1199.328125 L 495.867188 1193.640625 L 497.265625 1188.269531 L 498.65625 1183.664062 L 499.992188 1180.082031 L 501.296875 1177.023438 L 502.609375 1173.808594 L 503.957031 1169.929688 L 505.328125 1165.640625 L 506.6875 1161.378906 L 508.023438 1157.433594 L 509.34375 1153.542969 L 510.671875 1149.308594 L 512.019531 1144.476562 L 513.378906 1139.417969 L 514.734375 1134.65625 L 516.070312 1130.601562 L 517.394531 1127.210938 L 518.726562 1124.34375 L 520.074219 1121.828125 L 521.429688 1119.414062 L 522.78125 1116.832031 L 524.121094 1113.835938 L 525.453125 1110.28125 L 526.785156 1106.046875 L 528.128906 1101.082031 L 529.476562 1095.621094 L 530.824219 1089.96875 L 532.167969 1084.339844 L 533.511719 1078.617188 L 534.851562 1072.589844 L 536.1875 1066.046875 L 537.527344 1058.761719 L 538.867188 1050.394531 L 540.210938 1040.585938 L 541.554688 1029.277344 L 542.898438 1017.667969 L 544.246094 1007.253906 L 545.589844 998.90625 L 546.929688 990.992188 L 548.265625 981.25 L 549.597656 968.375 L 550.929688 954.90625 L 552.28125 944.339844 L 553.652344 938.769531 L 555.019531 934.6875 L 556.351562 927.171875 L 557.628906 912.476562 L 558.910156 891.550781 L 560.269531 866.511719 L 561.742188 839.972656 L 563.210938 816.503906 L 564.527344 801.179688 L 565.609375 796.589844 L 566.695312 795.46875 L 568.085938 788.066406 L 569.945312 767.628906 L 571.808594 739.34375 L 573.074219 711.371094 L 573.210938 690.308594 L 572.042969 676.4375 L 569.472656 668.460938 L 565.589844 664.898438 L 561.203125 663.527344 L 557.300781 661.949219 L 554.503906 658.355469 L 551.921875 653.304688 L 548.289062 647.96875 L 542.871094 643.199219 L 537.070312 638.613281 L 532.808594 633.523438 L 531.347656 627.460938 L 531.257812 620.875 L 530.441406 614.441406 L 527.296875 608.523438 L 522.203125 602.308594 L 516.039062 594.667969 L 509.625 584.960938 L 503.550781 574.429688 L 498.339844 564.800781 L 494.242188 557.386719 L 490.410156 551.871094 L 485.699219 547.535156 L 479.453125 543.769531 L 472.894531 540.398438 L 467.714844 537.367188 L 465.117188 534.570312 L 464.320312 531.761719 L 464.054688 528.644531 L 463.253906 525.046875 L 461.722656 521.269531 L 459.464844 517.734375 L 456.367188 514.578125 L 451.769531 510.8125 L 444.882812 505.152344 L 435.265625 496.859375 L 423.847656 487.332031 L 411.902344 478.5 L 400.703125 471.84375 L 391.472656 467.007812 L 385.433594 463.175781 L 382.980469 459.757812 L 381.238281 457.015625 L 376.503906 455.441406 L 366.628906 455.3125 L 355.640625 456.070312 L 349.117188 456.964844 L 349.453125 457.335938 L 346.320312 456.957031 L 326.214844 455.695312 L 275.625 453.429688 L 270.433594 454.246094 "/>
<path style="fill:none;stroke-width:0.75;stroke-linecap:round;stroke-linejoin:round;stroke:rgb(0%,0%,0%);stroke-opacity:1;stroke-miterlimit:10;" d="M 698.398438 504.984375 L 693.933594 506.476562 L 688.609375 507.910156 L 682.988281 509.296875 L 677.628906 510.65625 L 672.984375 511.992188 L 669.035156 513.316406 L 665.660156 514.628906 L 662.730469 515.9375 L 660.113281 517.246094 L 657.65625 518.582031 L 655.1875 519.96875 L 652.554688 521.429688 L 649.589844 522.996094 L 646.191406 524.699219 L 642.5 526.617188 L 638.710938 528.835938 L 635.027344 531.445312 L 631.617188 534.492188 L 628.53125 537.902344 L 625.792969 541.554688 L 623.425781 545.34375 L 621.441406 549.144531 L 619.816406 552.878906 L 618.285156 556.585938 L 616.539062 560.339844 L 614.261719 564.210938 L 611.265625 568.246094 L 607.855469 572.382812 L 604.457031 576.523438 L 601.507812 580.585938 L 599.289062 584.5 L 597.535156 588.3125 L 595.839844 592.09375 L 593.796875 595.914062 L 590.996094 599.839844 L 587.269531 603.933594 L 583.378906 608.199219 L 580.320312 612.625 L 579.101562 617.199219 L 580.433594 621.898438 L 583.925781 626.613281 L 588.90625 631.226562 L 594.699219 635.609375 L 600.632812 639.644531 L 606.074219 643.222656 L 610.558594 646.296875 L 613.664062 648.828125 L 614.96875 650.785156 L 614.164062 652.285156 L 611.425781 654.039062 L 607.042969 656.910156 L 601.304688 661.761719 L 594.5625 669.273438 L 587.441406 679.390625 L 580.609375 691.875 L 574.757812 706.496094 L 570.558594 723.015625 L 568.441406 741.078125 L 567.835938 759.890625 L 567.910156 778.523438 L 567.839844 796.070312 L 566.984375 811.898438 L 565.453125 826.527344 L 563.535156 840.761719 L 561.523438 855.414062 L 559.714844 871.289062 L 558.320312 888.832031 L 557.234375 907.046875 L 556.269531 924.574219 L 555.234375 940.058594 L 553.996094 952.59375 L 552.582031 963.121094 L 551.070312 973.046875 L 549.546875 983.769531 L 548.082031 996.683594 L 546.738281 1012.597656 L 545.476562 1029.914062 L 544.246094 1046.449219 L 542.988281 1060.003906 L 541.660156 1069.003906 L 540.28125 1074.316406 L 538.882812 1077.410156 L 537.492188 1079.765625 L 536.136719 1082.589844 L 534.804688 1085.992188 L 533.492188 1089.820312 L 532.175781 1093.910156 L 530.851562 1098.105469 L 529.503906 1102.265625 L 528.144531 1106.292969 L 526.78125 1110.113281 L 525.429688 1113.644531 L 524.09375 1116.84375 L 522.765625 1119.835938 L 521.445312 1122.769531 L 520.113281 1125.8125 L 518.765625 1129.109375 L 517.402344 1132.796875 L 516.027344 1136.871094 L 514.664062 1141.304688 L 513.328125 1146.0625 L 512.027344 1151.085938 L 510.746094 1156.171875 L 509.445312 1161.074219 L 508.105469 1165.554688 L 506.699219 1169.453125 L 505.261719 1172.914062 L 503.832031 1176.152344 L 502.449219 1179.394531 L 501.160156 1182.863281 L 499.980469 1186.734375 L 498.835938 1191.035156 L 497.628906 1195.761719 L 496.261719 1200.898438 L 494.679688 1206.375 L 492.988281 1211.851562 L 491.34375 1216.933594 L 489.890625 1221.230469 L 488.78125 1224.335938 L 488.074219 1226.140625 L 487.449219 1227.652344 L 486.496094 1230.160156 L 484.804688 1234.953125 L 482.199219 1242.945312 L 479.425781 1253.574219 L 477.472656 1265.902344 L 477.324219 1278.996094 L 479.964844 1291.917969 L 485.972656 1303.824219 L 494.28125 1314.253906 L 503.425781 1322.84375 L 511.929688 1329.226562 L 518.675781 1333.238281 L 523.953125 1335.527344 L 528.390625 1336.949219 L 532.628906 1338.355469 L 537.175781 1340.410156 L 542.023438 1343.054688 L 547.039062 1346.046875 L 552.082031 1349.132812 L 557.019531 1352.074219 L 561.769531 1354.714844 L 566.464844 1357.261719 L 571.292969 1360.015625 L 576.433594 1363.273438 L 582.152344 1367.210938 L 589.023438 1371.488281 L 597.6875 1375.628906 L 608.800781 1379.167969 L 623.003906 1381.636719 L 640.511719 1382.675781 L 659.800781 1382.371094 L 678.917969 1380.929688 L 695.898438 1378.542969 L 709.289062 1375.421875 L 719.644531 1371.816406 L 728.023438 1367.976562 L 735.480469 1364.15625 L 742.890625 1360.550781 L 750.402344 1357.121094 L 757.976562 1353.773438 L 765.578125 1350.410156 L 773.167969 1346.9375 L 780.691406 1343.289062 L 787.992188 1339.546875 L 794.894531 1335.828125 L 801.214844 1332.238281 L 806.851562 1328.863281 L 812.011719 1325.632812 L 816.972656 1322.449219 L 822.011719 1319.210938 L 827.410156 1315.816406 L 833.324219 1312.195312 L 839.441406 1308.390625 L 845.320312 1304.472656 L 850.523438 1300.515625 L 854.761719 1296.566406 L 858.34375 1292.585938 L 861.71875 1288.511719 L 865.351562 1284.273438 L 869.691406 1279.8125 L 875.023438 1275.089844 L 880.921875 1270.171875 L 886.796875 1265.160156 L 892.046875 1260.148438 L 896.289062 1255.160156 L 899.984375 1249.957031 L 903.808594 1244.214844 L 908.429688 1237.617188 L 914.300781 1229.996094 L 921.007812 1221.785156 L 927.917969 1213.550781 L 934.386719 1205.878906 L 939.78125 1199.34375 L 943.691406 1194.304688 L 946.582031 1190.28125 L 949.144531 1186.578125 L 952.066406 1182.496094 L 955.867188 1177.476562 L 960.363281 1171.515625 L 965.203125 1164.757812 L 970.035156 1157.332031 L 974.507812 1149.382812 L 978.34375 1141.042969 L 981.605469 1132.445312 L 984.425781 1123.71875 L 986.941406 1114.996094 L 989.265625 1106.433594 L 991.429688 1098.277344 L 993.433594 1090.796875 L 995.285156 1084.257812 L 996.996094 1078.820312 L 998.585938 1074.171875 L 1000.082031 1069.894531 L 1001.519531 1065.566406 L 1002.917969 1060.765625 L 1004.335938 1055.207031 L 1005.902344 1049.152344 L 1007.777344 1043.003906 L 1010.117188 1037.152344 L 1013 1031.910156 L 1016.183594 1027.203125 L 1019.347656 1022.875 L 1022.164062 1018.769531 L 1024.3125 1014.714844 L 1025.574219 1010.605469 L 1026.148438 1006.507812 L 1026.335938 1002.53125 L 1026.4375 998.785156 L 1026.695312 995.332031 L 1027.101562 991.980469 L 1027.582031 988.496094 L 1028.066406 984.628906 L 1028.480469 980.140625 L 1028.8125 974.910156 L 1029.273438 969.277344 L 1030.136719 963.71875 L 1031.664062 958.691406 L 1033.992188 954.523438 L 1036.703125 950.921875 L 1039.234375 947.46875 L 1041.039062 943.726562 L 1041.71875 939.386719 L 1041.5625 934.617188 L 1041.011719 929.703125 L 1040.519531 924.921875 L 1040.53125 920.566406 L 1041.371094 916.824219 L 1042.863281 913.519531 L 1044.710938 910.382812 L 1046.609375 907.144531 L 1048.28125 903.613281 L 1049.535156 899.90625 L 1050.191406 896.222656 L 1050.082031 892.753906 L 1049.027344 889.695312 L 1047.003906 887.050781 L 1044.558594 884.039062 L 1042.386719 879.691406 L 1041.183594 873.039062 L 1041.4375 863.488281 L 1042.777344 851.996094 L 1044.628906 839.902344 L 1046.410156 828.546875 L 1047.671875 818.941406 L 1048.46875 810.777344 L 1048.992188 803.417969 L 1049.425781 796.238281 L 1049.957031 788.589844 L 1050.695312 780.09375 L 1051.433594 771.3125 L 1051.90625 763.066406 L 1051.828125 756.171875 L 1051.019531 751.179688 L 1049.695312 747.589844 L 1048.15625 744.648438 L 1046.714844 741.589844 L 1045.679688 737.660156 L 1045.207031 732.324219 L 1044.910156 725.980469 L 1044.242188 719.253906 L 1042.667969 712.769531 L 1039.886719 707.03125 L 1036.578125 702.09375 L 1033.660156 697.878906 L 1032.046875 694.316406 L 1032.378906 691.320312 L 1034.152344 688.71875 L 1036.59375 686.320312 L 1038.917969 683.941406 L 1040.347656 681.390625 L 1040.308594 678.484375 L 1039.058594 675.046875 L 1037.070312 670.898438 L 1034.804688 665.863281 L 1032.667969 659.878906 L 1030.765625 653.28125 L 1029.132812 646.519531 L 1027.8125 640.035156 L 1026.839844 634.28125 L 1026.1875 629.582031 L 1025.550781 625.78125 L 1024.558594 622.605469 L 1022.84375 619.785156 L 1020.175781 617.082031 L 1016.855469 614.398438 L 1013.34375 611.679688 L 1010.078125 608.855469 L 1007.515625 605.875 L 1005.9375 602.722656 L 1004.972656 599.613281 L 1004.089844 596.800781 L 1002.761719 594.546875 L 1000.570312 592.992188 L 997.601562 591.789062 L 994.046875 590.484375 L 990.113281 588.613281 L 985.914062 585.800781 L 981.226562 581.980469 L 975.753906 577.175781 L 969.195312 571.40625 L 961.246094 564.691406 L 951.855469 557.191406 L 941.964844 549.613281 L 932.753906 542.804688 L 925.410156 537.605469 L 920.753906 534.609375 L 918.101562 533.355469 L 916.40625 533.128906 L 914.625 533.210938 L 911.703125 532.882812 L 906.929688 531.628906 L 900.9375 529.691406 L 894.699219 527.519531 L 889.179688 525.5625 L 885.121094 524.277344 L 882.335938 524.226562 L 880.40625 525.976562 L 878.910156 530.105469 L 877.527344 536.941406 L 876.328125 545.878906 L 875.46875 556.066406 L 875.117188 566.652344 L 875.433594 576.785156 L 876.476562 585.804688 L 877.859375 593.785156 L 879.082031 600.996094 L 879.65625 607.695312 L 879.28125 614.15625 L 878.414062 620.703125 L 877.710938 627.65625 L 877.828125 635.34375 L 879.417969 644.101562 L 882.878906 654.058594 L 887.574219 664.605469 L 892.613281 674.9375 L 897.101562 684.257812 L 900.3125 691.957031 L 902.179688 698.238281 L 902.804688 703.488281 L 902.292969 708.109375 L 900.742188 712.492188 L 898.398438 716.980469 L 896.066406 721.703125 L 894.6875 726.742188 L 895.207031 732.171875 L 898.160156 738.035156 L 902.433594 744.226562 L 906.507812 750.613281 L 908.851562 757.050781 L 908.324219 763.410156 L 905.296875 769.558594 L 900.511719 775.382812 L 894.714844 780.753906 L 888.65625 785.550781 L 882.964844 789.714844 L 877.792969 793.46875 L 873.179688 797.09375 L 869.164062 800.867188 L 865.75 805.011719 L 862.847656 809.464844 L 860.320312 814.105469 L 858.050781 818.808594 L 855.902344 823.445312 L 853.785156 827.949219 L 851.710938 832.480469 L 849.730469 837.257812 L 847.890625 842.496094 L 846.214844 848.328125 L 844.636719 854.539062 L 843.078125 860.832031 L 841.445312 866.90625 L 839.664062 872.511719 L 837.660156 877.589844 L 835.375 882.140625 L 832.75 886.148438 L 829.722656 889.609375 L 826.25 892.554688 L 822.375 895.195312 L 818.144531 897.785156 L 813.625 900.570312 L 808.921875 903.761719 L 804.355469 907.414062 L 800.296875 911.539062 L 797.121094 916.140625 L 795.191406 921.234375 L 794.808594 926.691406 L 795.925781 931.8125 L 798.421875 935.769531 L 802.179688 937.722656 L 806.980469 937.152344 L 812.21875 934.820312 L 817.191406 931.796875 L 821.191406 929.152344 L 823.519531 927.953125 L 823.734375 928.992188 L 822.484375 931.886719 L 820.667969 935.972656 L 819.195312 940.589844 L 818.582031 945.113281 L 817.761719 949.089844 L 815.285156 952.097656 L 809.695312 953.730469 L 800.074219 953.699219 L 787.644531 952.246094 L 774.171875 949.734375 L 761.417969 946.535156 L 751.136719 943.019531 L 744.527344 939.4375 L 740.511719 935.601562 L 737.441406 931.210938 L 733.664062 925.957031 L 727.976562 919.753906 L 720.921875 913.359375 L 713.476562 907.734375 L 706.625 903.855469 L 701.347656 902.691406 L 698.28125 904.753906 L 696.695312 908.765625 L 695.511719 912.984375 L 693.65625 915.679688 L 690.394531 915.546875 L 686.378906 913.027344 L 682.605469 909 L 680.074219 904.332031 L 679.511719 899.753906 L 680.578125 895.363281 L 682.664062 891.109375 L 685.167969 886.945312 L 687.476562 882.820312 L 689.167969 878.679688 L 690.542969 874.441406 L 692.097656 870.023438 L 694.3125 865.34375 L 697.511719 860.335938 L 701.351562 854.984375 L 705.3125 849.296875 L 708.886719 843.28125 L 711.558594 836.941406 L 712.957031 830.25 L 713.261719 823.066406 L 712.796875 815.214844 L 711.890625 806.527344 L 710.804688 796.914062 L 709.601562 786.652344 L 708.285156 776.097656 L 706.855469 765.613281 L 705.316406 755.5625 L 703.699219 746.253906 L 702.125 737.839844 L 700.746094 730.421875 L 699.714844 724.097656 L 699.152344 718.886719 L 699.101562 714.460938 L 699.582031 710.414062 L 700.605469 706.332031 L 702.148438 701.867188 L 704.015625 696.890625 L 705.957031 691.347656 L 707.738281 685.164062 L 709.113281 678.285156 L 709.9375 670.730469 L 710.441406 662.875 L 710.953125 655.1875 L 711.800781 648.128906 L 713.257812 642.050781 L 715.371094 636.859375 L 718.140625 632.335938 L 721.554688 628.269531 L 725.609375 624.449219 L 730.222656 620.703125 L 734.984375 617.003906 L 739.414062 613.363281 L 743.019531 609.800781 L 745.480469 606.308594 L 747.101562 602.828125 L 748.355469 599.289062 L 749.710938 595.605469 L 751.507812 591.71875 L 753.609375 587.589844 L 755.746094 583.1875 L 757.648438 578.484375 L 759.050781 573.457031 L 759.761719 568.097656 L 759.886719 562.496094 L 759.609375 556.769531 L 759.109375 551.035156 L 758.554688 545.402344 L 758.027344 539.972656 L 757.59375 534.847656 L 757.320312 530.125 L 757.277344 525.90625 L 757.542969 522.25 L 758.28125 519.066406 L 759.679688 516.222656 L 761.917969 513.589844 L 764.496094 511.074219 L 764.191406 508.730469 L 757.09375 506.648438 L 739.308594 504.921875 L 706.921875 503.632812 L 698.398438 504.984375 "/>
<path style="fill:none;stroke-width:0.75;stroke-linecap:round;stroke-linejoin:round;stroke:rgb(0%,0%,0%);stroke-opacity:1;stroke-miterlimit:10;" d="M 563.671875 489.800781 L 558.402344 494.546875 L 558.25 499.015625 L 555.703125 502.933594 L 555.675781 506.425781 L 552.75 509.949219 L 553.320312 514.132812 L 555.339844 519.519531 L 555.820312 526.433594 L 558.21875 534.695312 L 558.46875 544.632812 L 560.6875 556.582031 L 561.726562 570.160156 L 562.757812 583.726562 L 564.410156 596.386719 L 566.050781 607.632812 L 566.535156 617.351562 L 568.890625 625.203125 L 569.355469 630.984375 L 571.40625 634.304688 L 574.699219 635.160156 L 576.96875 633.742188 L 577.226562 630.5 L 579.65625 625.855469 L 580.164062 620.324219 L 581.683594 614.605469 L 583.554688 609.121094 L 584.324219 603.976562 L 585.636719 599.160156 L 592.9375 594.492188 L 593.523438 590.042969 L 597.929688 585.785156 L 600.007812 581.6875 L 602.085938 577.679688 L 605.378906 573.699219 L 608.652344 569.703125 L 609.691406 565.664062 L 614.089844 561.5 L 615.929688 557.179688 L 618.460938 552.65625 L 621.253906 548.019531 L 622.195312 543.390625 L 623 538.890625 L 630.617188 534.835938 L 633.703125 531.542969 L 635.71875 528.914062 L 639.460938 526.691406 L 643.757812 524.761719 L 647.089844 523.066406 L 649.535156 521.546875 L 652.320312 520.089844 L 654.773438 518.496094 L 658.078125 516.601562 L 662.421875 514.261719 L 666.109375 511.363281 L 668.230469 507.789062 L 668.371094 503.53125 L 660.074219 498.9375 L 661.4375 494.492188 L 653.472656 490.40625 L 564.320312 486.582031 L 563.671875 489.800781 "/>
<path style="fill:none;stroke-width:0.75;stroke-linecap:round;stroke-linejoin:round;stroke:rgb(0%,0%,0%);stroke-opacity:1;stroke-miterlimit:10;" d="M 739.101562 291.15625 L 731.046875 301.648438 L 725.484375 308.789062 L 721.246094 312.949219 L 716.996094 315.5625 L 713.777344 318.496094 L 712.550781 323.34375 L 711.515625 330.199219 L 708.859375 338.269531 L 705.472656 344.8125 L 702.5625 347.875 L 699.847656 350.644531 L 696.945312 356.269531 L 694.441406 362.617188 L 692.910156 367.113281 L 691.824219 370.753906 L 690.5625 374.996094 L 689.167969 379.574219 L 687.816406 383.738281 L 686.492188 386.585938 L 685.15625 388.070312 L 683.804688 391.78125 L 682.453125 400.558594 L 681.117188 410.601562 L 679.792969 417.667969 L 678.453125 422.421875 L 677.082031 426.796875 L 675.734375 432.222656 L 674.414062 437.34375 L 673.085938 440.738281 L 671.734375 443.546875 L 670.359375 447.148438 L 669.082031 451.316406 L 667.898438 455.730469 L 666.25 461.242188 L 663.792969 468.28125 L 661.648438 474.402344 L 661.066406 477.34375 L 662.394531 478.480469 L 665.488281 479.828125 L 669.136719 482.363281 L 672.917969 486.429688 L 680.601562 490.902344 L 695.496094 494.421875 L 714.863281 496.167969 L 734.425781 495.582031 L 749.824219 492.574219 L 757.84375 487.496094 L 759.886719 482.007812 L 758.710938 477.714844 L 757.75 474.820312 L 759.5625 473.046875 L 762.519531 471.679688 L 764.148438 469.84375 L 762.984375 466.785156 L 761.417969 462.234375 L 761.90625 456.039062 L 763.25 448.03125 L 763.761719 438.613281 L 763.425781 430.476562 L 762.449219 425.710938 L 760.246094 421.738281 L 756.382812 415.570312 L 751.769531 407.285156 L 747.710938 398.089844 L 745.636719 390.632812 L 746.992188 386.847656 L 753.074219 384.320312 L 764.054688 380.644531 L 775.679688 377.664062 L 783.664062 377.601562 L 788.109375 379.886719 L 790.214844 383.273438 L 791.316406 386.707031 L 792.582031 389.359375 L 794.453125 391.210938 L 796.984375 392.472656 L 799.695312 393.550781 L 802.921875 395.394531 L 807.09375 399.054688 L 812 405.464844 L 816.953125 414.785156 L 820.003906 424.207031 L 820.164062 431.070312 L 821.574219 436.320312 L 827.9375 441.722656 L 836.042969 448.765625 L 841.996094 457.925781 L 846.09375 466.019531 L 849.574219 470.089844 L 853.285156 471.808594 L 857.675781 473.757812 L 862.042969 477.433594 L 866.46875 483.195312 L 875.363281 487.9375 L 892.085938 488.738281 L 911.488281 486.90625 L 927.128906 484.355469 L 935.871094 481.1875 L 936.390625 477.320312 L 931.292969 473.675781 L 924.417969 470.867188 L 919.609375 467.707031 L 916.953125 464.390625 L 915.550781 461.464844 L 914.554688 458.972656 L 913.316406 456.65625 L 911.949219 453.609375 L 910.6875 449.195312 L 909.375 444.519531 L 907.789062 440.613281 L 905.796875 436.53125 L 903.425781 431.269531 L 901.230469 425.582031 L 899.691406 420.523438 L 898.484375 416.546875 L 897.195312 413.644531 L 895.832031 410.546875 L 894.484375 406.175781 L 893.148438 401.417969 L 891.808594 397.417969 L 890.480469 394.332031 L 889.199219 391.902344 L 887.976562 389.222656 L 886.632812 385.535156 L 884.21875 381.351562 L 880.242188 377.558594 L 876.375 374.714844 L 873.085938 371.3125 L 870.300781 366.121094 L 867.570312 361.160156 L 864.625 358.464844 L 862.273438 356.871094 L 861.105469 354.71875 L 859.675781 351.539062 L 856.542969 347.386719 L 852.316406 343.144531 L 847.996094 339.574219 L 844.066406 336.046875 L 840.898438 331.960938 L 838.910156 328.195312 L 837.972656 325.410156 L 835.726562 321.90625 L 830.050781 316.15625 L 822 309.714844 L 813.453125 304.5 L 806.449219 300.863281 L 802.550781 298.636719 L 801.253906 297.15625 L 800.542969 295.710938 L 794.460938 293.839844 L 777.363281 291.410156 L 748.792969 289.332031 L 739.101562 291.15625 "/>
</g>
</svg>
