<?xml version="1.0" encoding="UTF-8"?>
<svg xmlns="http://www.w3.org/2000/svg" xmlns:xlink="http://www.w3.org/1999/xlink" width="1428pt" height="1605pt" viewBox="0 0 1428 1605" version="1.1">
<g id="surface259">
<rect x="0" y="0" width="1428" height="1605" style="fill:rgb(100%,100%,100%);fill-opacity:1;stroke:none;"/>
<path style="fill:none;stroke-width:0.75;stroke-linecap:round;stroke-linejoin:round;stroke:rgb(0%,0%,0%);stroke-opacity:1;stroke-miterlimit:10;" d="M 737.492188 280.277344 L 734.914062 283.789062 L 732.160156 286.808594 L 729.15625 289.304688 L 725.828125 291.238281 L 722.144531 292.628906 L 718.28125 293.6875 L 714.453125 294.671875 L 710.867188 295.839844 L 707.75 297.449219 L 705.234375 299.75 L 703.183594 302.929688 L 701.378906 307.179688 L 699.605469 312.675781 L 697.640625 319.609375 L 695.335938 328.015625 L 692.804688 337.363281 L 690.214844 346.96875 L 687.742188 356.164062 L 685.558594 364.265625 L 683.789062 370.816406 L 682.351562 376.257812 L 681.109375 381.238281 L 679.929688 386.414062 L 678.679688 392.445312 L 677.257812 399.785156 L 675.703125 408.074219 L 674.089844 416.757812 L 672.488281 425.28125 L 670.976562 433.085938 L 669.59375 439.734375 L 668.25 445.296875 L 666.824219 449.957031 L 665.195312 453.898438 L 663.246094 457.308594 L 660.867188 460.28125 L 658.015625 462.5 L 654.660156 463.566406 L 650.765625 463.0625 L 646.308594 460.589844 L 641.371094 455.964844 L 636.496094 449.894531 L 632.339844 443.328125 L 629.5625 437.195312 L 628.820312 432.4375 L 630.429688 429.644531 L 633.316406 428.015625 L 636.066406 426.402344 L 637.269531 423.65625 L 635.503906 418.621094 L 629.886719 410.683594 L 621.605469 401.316406 L 612.390625 392.53125 L 603.964844 386.332031 L 597.625 384.195312 L 593.023438 385.472656 L 589.382812 388.996094 L 585.921875 393.589844 L 581.875 398.074219 L 576.6875 401.53125 L 570.722656 404.066406 L 564.566406 406.039062 L 558.804688 407.808594 L 554.019531 409.734375 L 550.675781 412.097656 L 548.722656 414.847656 L 547.972656 417.863281 L 548.25 421.019531 L 549.371094 424.179688 L 551.09375 427.25 L 552.878906 430.199219 L 554.128906 433.019531 L 554.242188 435.710938 L 552.617188 438.269531 L 548.929688 440.695312 L 543.957031 443.039062 L 538.746094 445.355469 L 534.359375 447.703125 L 531.84375 450.140625 L 531.976562 452.695312 L 534.417969 455.328125 L 538.550781 457.960938 L 543.765625 460.527344 L 549.441406 462.953125 L 554.996094 465.21875 L 559.957031 467.519531 L 563.886719 470.097656 L 566.339844 473.191406 L 566.882812 477.046875 L 565.273438 481.796875 L 562.066406 487.15625 L 558.027344 492.722656 L 553.910156 498.109375 L 550.480469 502.914062 L 548.320312 506.839844 L 547.355469 509.992188 L 547.332031 512.574219 L 548.003906 514.789062 L 549.117188 516.84375 L 550.398438 518.90625 L 551.441406 521.050781 L 551.8125 523.308594 L 551.078125 525.722656 L 548.988281 528.296875 L 546.023438 530.917969 L 542.851562 533.445312 L 540.140625 535.734375 L 538.550781 537.636719 L 538.535156 539.09375 L 539.679688 540.390625 L 541.359375 541.898438 L 542.945312 543.984375 L 543.8125 547.011719 L 543.523438 551.261719 L 542.445312 556.617188 L 541.128906 562.875 L 540.136719 569.816406 L 540.027344 577.242188 L 541.199219 584.945312 L 543.460938 592.746094 L 546.460938 600.472656 L 549.847656 607.953125 L 553.273438 615.011719 L 556.480469 621.457031 L 559.589844 627.003906 L 562.824219 631.347656 L 566.394531 634.1875 L 570.523438 635.21875 L 575.332031 634.355469 L 580.574219 632.363281 L 585.917969 630.230469 L 591.019531 628.941406 L 595.550781 629.484375 L 599.128906 632.496094 L 601.242188 637.238281 L 601.328125 642.617188 L 598.835938 647.542969 L 593.203125 650.929688 L 584.230469 651.949219 L 573.152344 650.820312 L 561.542969 648.027344 L 550.996094 644.046875 L 543.085938 639.367188 L 538.917969 634.398438 L 537.625 629.300781 L 537.855469 624.15625 L 538.257812 619.0625 L 537.476562 614.101562 L 534.53125 609.320312 L 529.882812 604.589844 L 524.359375 599.738281 L 518.800781 594.589844 L 514.027344 588.976562 L 510.625 582.8125 L 508.199219 576.40625 L 506.09375 570.152344 L 503.671875 564.445312 L 500.433594 559.570312 L 496.460938 555.347656 L 491.992188 551.488281 L 487.265625 547.699219 L 482.511719 543.691406 L 477.9375 539.257812 L 473.582031 534.539062 L 469.457031 529.757812 L 465.578125 525.136719 L 461.953125 520.902344 L 458.5625 517.1875 L 455.253906 513.792969 L 451.84375 510.414062 L 448.152344 506.765625 L 443.996094 502.554688 L 439.210938 497.574219 L 433.738281 492.011719 L 427.535156 486.140625 L 420.566406 480.234375 L 412.78125 474.566406 L 404.121094 469.375 L 394.382812 464.742188 L 383.34375 460.714844 L 370.777344 457.339844 L 356.464844 454.660156 L 340.371094 452.710938 L 323.261719 451.515625 L 306.089844 451.078125 L 289.808594 451.402344 L 275.375 452.503906 L 263.488281 454.363281 L 253.789062 456.875 L 245.660156 459.921875 L 238.488281 463.375 L 231.652344 467.105469 L 224.683594 471 L 217.722656 474.949219 L 211.046875 478.859375 L 204.9375 482.628906 L 199.679688 486.160156 L 195.453125 489.398438 L 192.050781 492.472656 L 189.167969 495.550781 L 186.492188 498.800781 L 183.71875 502.394531 L 180.601562 506.417969 L 177.164062 510.636719 L 173.488281 514.742188 L 169.664062 518.417969 L 165.761719 521.472656 L 161.816406 524.222656 L 157.84375 527.097656 L 153.871094 530.542969 L 149.917969 534.992188 L 146.011719 540.703125 L 142.222656 547.242188 L 138.617188 553.988281 L 135.277344 560.332031 L 132.273438 565.652344 L 129.644531 569.5625 L 127.296875 572.550781 L 125.101562 575.335938 L 122.929688 578.644531 L 120.648438 583.183594 L 118.15625 589.449219 L 115.4375 597 L 112.515625 605.183594 L 109.398438 613.324219 L 106.101562 620.769531 L 102.664062 627.015625 L 99.199219 632.21875 L 95.839844 636.699219 L 92.726562 640.773438 L 89.988281 644.761719 L 87.71875 648.910156 L 85.804688 653.152344 L 84.09375 657.359375 L 82.421875 661.390625 L 80.632812 665.117188 L 78.628906 668.429688 L 76.539062 671.351562 L 74.554688 673.953125 L 72.871094 676.28125 L 71.667969 678.398438 L 71.066406 680.394531 L 70.855469 682.476562 L 70.757812 684.886719 L 70.488281 687.859375 L 69.761719 691.636719 L 68.382812 696.457031 L 66.492188 702.539062 L 64.316406 710.105469 L 62.074219 719.375 L 59.996094 730.570312 L 58.253906 743.675781 L 56.796875 757.722656 L 55.53125 771.515625 L 54.351562 783.855469 L 53.167969 793.539062 L 51.894531 799.816406 L 50.546875 803.761719 L 49.148438 806.894531 L 47.734375 810.730469 L 46.324219 816.460938 L 44.933594 823.929688 L 43.554688 832.648438 L 42.195312 842.125 L 40.855469 851.867188 L 39.542969 861.464844 L 38.324219 870.789062 L 37.253906 879.777344 L 36.410156 888.378906 L 35.855469 896.539062 L 35.636719 904.222656 L 35.734375 911.464844 L 36.105469 918.339844 L 36.707031 924.902344 L 37.5 931.21875 L 38.429688 937.335938 L 39.410156 943.226562 L 40.347656 948.851562 L 41.148438 954.164062 L 41.710938 959.128906 L 42.003906 963.769531 L 42.21875 968.417969 L 42.613281 973.46875 L 43.445312 979.320312 L 44.972656 986.375 L 47.347656 994.859375 L 50.359375 1004.308594 L 53.691406 1014.097656 L 57.03125 1023.585938 L 60.066406 1032.148438 L 62.550781 1039.300781 L 64.507812 1045.183594 L 66.03125 1050.082031 L 67.203125 1054.289062 L 68.117188 1058.09375 L 68.871094 1061.738281 L 69.570312 1065.292969 L 70.328125 1068.789062 L 71.257812 1072.25 L 72.46875 1075.699219 L 74.085938 1079.171875 L 76.25 1082.710938 L 79.109375 1086.367188 L 82.820312 1090.191406 L 87.527344 1094.230469 L 93.257812 1098.492188 L 99.550781 1102.792969 L 105.808594 1106.914062 L 111.4375 1110.632812 L 116 1113.808594 L 119.644531 1116.636719 L 122.664062 1119.386719 L 125.367188 1122.34375 L 128.046875 1125.777344 L 130.941406 1129.890625 L 134.03125 1134.597656 L 137.242188 1139.722656 L 140.484375 1145.101562 L 143.6875 1150.566406 L 146.769531 1155.960938 L 149.683594 1161.175781 L 152.378906 1166.109375 L 154.8125 1170.664062 L 156.9375 1174.738281 L 158.742188 1178.273438 L 160.332031 1181.359375 L 161.851562 1184.140625 L 163.449219 1186.746094 L 165.261719 1189.3125 L 167.417969 1191.984375 L 169.96875 1194.949219 L 172.941406 1198.40625 L 176.371094 1202.550781 L 180.285156 1207.578125 L 184.679688 1213.582031 L 189.417969 1220.265625 L 194.320312 1227.222656 L 199.210938 1234.050781 L 203.910156 1240.34375 L 208.289062 1245.832031 L 212.417969 1250.761719 L 216.40625 1255.519531 L 220.371094 1260.484375 L 224.421875 1266.042969 L 228.640625 1272.429688 L 232.972656 1279.3125 L 237.320312 1286.210938 L 241.589844 1292.648438 L 245.695312 1298.148438 L 249.578125 1302.386719 L 253.3125 1305.648438 L 257.015625 1308.375 L 260.800781 1311.007812 L 264.777344 1313.988281 L 269.097656 1317.621094 L 274.03125 1321.679688 L 279.886719 1325.792969 L 286.980469 1329.601562 L 295.457031 1332.816406 L 304.875 1335.492188 L 314.632812 1337.753906 L 324.128906 1339.734375 L 332.761719 1341.566406 L 340.097656 1343.335938 L 346.378906 1345.011719 L 352.019531 1346.507812 L 357.429688 1347.75 L 363.011719 1348.660156 L 369.121094 1349.160156 L 375.839844 1349.160156 L 383.1875 1348.570312 L 391.183594 1347.300781 L 399.851562 1345.257812 L 409.183594 1342.421875 L 419.0625 1339.011719 L 429.347656 1335.324219 L 439.902344 1331.644531 L 450.574219 1328.261719 L 461.226562 1325.441406 L 471.699219 1323.34375 L 481.835938 1322.101562 L 491.480469 1321.847656 L 500.476562 1322.710938 L 508.707031 1324.757812 L 516.273438 1327.753906 L 523.3125 1331.398438 L 529.964844 1335.386719 L 536.367188 1339.414062 L 542.632812 1343.242188 L 548.710938 1346.878906 L 554.523438 1350.398438 L 559.996094 1353.871094 L 565.046875 1357.375 L 569.742188 1360.957031 L 574.730469 1364.570312 L 580.816406 1368.15625 L 588.789062 1371.640625 L 599.445312 1374.960938 L 613.257812 1378.011719 L 629.375 1380.535156 L 646.621094 1382.246094 L 663.8125 1382.847656 L 679.769531 1382.046875 L 693.585938 1379.683594 L 705.398438 1376.128906 L 715.613281 1371.875 L 724.636719 1367.425781 L 732.875 1363.28125 L 740.695312 1359.800781 L 748.316406 1356.792969 L 755.917969 1353.925781 L 763.675781 1350.875 L 771.695312 1347.390625 L 779.78125 1343.578125 L 787.660156 1339.613281 L 795.058594 1335.683594 L 801.703125 1331.972656 L 807.425781 1328.609375 L 812.464844 1325.488281 L 817.167969 1322.453125 L 821.875 1319.34375 L 826.929688 1316.007812 L 832.554688 1312.335938 L 838.527344 1308.445312 L 844.488281 1304.5 L 850.09375 1300.667969 L 854.996094 1297.113281 L 858.960938 1293.941406 L 862.226562 1290.976562 L 865.140625 1287.980469 L 868.058594 1284.71875 L 871.328125 1280.945312 L 875.210938 1276.503906 L 879.5625 1271.5625 L 884.148438 1266.355469 L 888.730469 1261.136719 L 893.074219 1256.144531 L 897.03125 1251.53125 L 900.789062 1247.082031 L 904.625 1242.488281 L 908.824219 1237.441406 L 913.65625 1231.640625 L 919.304688 1224.878906 L 925.558594 1217.386719 L 932.109375 1209.496094 L 938.644531 1201.539062 L 944.859375 1193.851562 L 950.507812 1186.683594 L 955.609375 1179.992188 L 960.25 1173.652344 L 964.519531 1167.542969 L 968.5 1161.542969 L 972.257812 1155.542969 L 975.785156 1149.53125 L 979.054688 1143.503906 L 982.03125 1137.460938 L 984.695312 1131.40625 L 987.019531 1125.347656 L 989.046875 1119.316406 L 990.828125 1113.359375 L 992.410156 1107.511719 L 993.84375 1101.785156 L 995.191406 1096.074219 L 996.511719 1090.238281 L 997.867188 1084.132812 L 999.316406 1077.625 L 1000.90625 1070.640625 L 1002.613281 1063.414062 L 1004.402344 1056.234375 L 1006.234375 1049.40625 L 1008.070312 1043.226562 L 1009.890625 1037.921875 L 1011.714844 1033.445312 L 1013.582031 1029.675781 L 1015.53125 1026.496094 L 1017.601562 1023.789062 L 1019.789062 1021.378906 L 1021.972656 1018.890625 L 1023.976562 1015.875 L 1025.640625 1011.902344 L 1026.800781 1006.53125 L 1027.375 999.523438 L 1027.605469 991.417969 L 1027.824219 982.964844 L 1028.363281 974.894531 L 1029.546875 967.957031 L 1031.59375 962.667969 L 1034.226562 958.660156 L 1037.0625 955.351562 L 1039.71875 952.144531 L 1041.800781 948.460938 L 1043.035156 943.863281 L 1043.585938 938.523438 L 1043.722656 932.769531 L 1043.714844 926.925781 L 1043.835938 921.324219 L 1044.285156 916.195312 L 1044.972656 911.378906 L 1045.726562 906.632812 L 1046.386719 901.707031 L 1046.785156 896.347656 L 1046.8125 890.355469 L 1046.597656 883.695312 L 1046.328125 876.378906 L 1046.1875 868.417969 L 1046.359375 859.824219 L 1046.976562 850.648438 L 1047.964844 841.074219 L 1049.179688 831.324219 L 1050.5 821.621094 L 1051.785156 812.191406 L 1052.894531 803.1875 L 1053.664062 794.484375 L 1053.914062 785.898438 L 1053.46875 777.238281 L 1052.234375 768.386719 L 1050.460938 759.511719 L 1048.464844 750.851562 L 1046.574219 742.652344 L 1045.121094 735.144531 L 1044.328125 728.523438 L 1044.042969 722.742188 L 1044.011719 717.707031 L 1043.984375 713.324219 L 1043.707031 709.496094 L 1043.003906 706.121094 L 1042.007812 703.035156 L 1040.910156 700.0625 L 1039.914062 697.039062 L 1039.226562 693.785156 L 1038.976562 690.179688 L 1039 686.28125 L 1039.074219 682.203125 L 1038.964844 678.050781 L 1038.449219 673.9375 L 1037.367188 669.929688 L 1035.863281 665.929688 L 1034.164062 661.789062 L 1032.488281 657.375 L 1031.054688 652.542969 L 1030.035156 647.207031 L 1029.382812 641.53125 L 1029.003906 635.726562 L 1028.808594 630.015625 L 1028.699219 624.609375 L 1028.5625 619.625 L 1028.226562 614.773438 L 1027.496094 609.667969 L 1026.175781 603.910156 L 1024.074219 597.117188 L 1021.085938 589.0625 L 1017.453125 580.191406 L 1013.503906 571.121094 L 1009.578125 562.460938 L 1005.996094 554.824219 L 1002.988281 548.640625 L 1000.351562 543.617188 L 997.773438 539.273438 L 994.953125 535.125 L 991.574219 530.699219 L 987.46875 525.636719 L 982.996094 520.101562 L 978.667969 514.382812 L 974.980469 508.769531 L 972.25 503.492188 L 970.058594 498.578125 L 967.796875 494.003906 L 964.863281 489.730469 L 960.652344 485.738281 L 954.765625 481.980469 L 947.683594 478.324219 L 940.085938 474.632812 L 932.65625 470.753906 L 926.082031 466.554688 L 920.894531 461.925781 L 916.972656 456.933594 L 914.050781 451.695312 L 911.863281 446.316406 L 910.132812 440.910156 L 908.628906 435.574219 L 907.261719 430.367188 L 905.980469 425.335938 L 904.730469 420.527344 L 903.464844 415.988281 L 902.144531 411.757812 L 900.804688 407.828125 L 899.5 404.183594 L 898.28125 400.820312 L 897.207031 397.714844 L 896.273438 394.828125 L 895.265625 392.007812 L 893.917969 389.078125 L 891.964844 385.851562 L 889.140625 382.148438 L 885.308594 377.863281 L 880.84375 373.171875 L 876.265625 368.335938 L 872.082031 363.601562 L 868.808594 359.226562 L 866.75 355.359375 L 865.433594 351.714844 L 864.171875 347.914062 L 862.285156 343.566406 L 859.089844 338.289062 L 854.121094 331.824219 L 847.773438 324.453125 L 840.660156 316.574219 L 833.386719 308.597656 L 826.570312 300.925781 L 820.289062 293.929688 L 812.484375 287.867188 L 800.582031 282.953125 L 781.992188 279.402344 L 754.136719 277.4375 L 737.492188 280.277344 "/>
<path style="fill:none;stroke-width:0.75;stroke-linecap:round;stroke-linejoin:round;stroke:rgb(0%,0%,0%);stroke-opacity:1;stroke-miterlimit:10;" d="M 303.589844 448.699219 L 283.578125 452.113281 L 264.449219 455.355469 L 249.785156 458.339844 L 241.890625 461.039062 L 237.964844 463.714844 L 233.929688 466.699219 L 226.777344 470.238281 L 217.804688 474.203125 L 209.375 478.386719 L 203.304688 482.570312 L 199.179688 486.535156 L 196.03125 490.066406 L 193.042969 493.046875 L 190.015625 495.78125 L 186.898438 498.664062 L 183.648438 502.03125 L 180.226562 505.878906 L 176.609375 510.136719 L 172.808594 514.644531 L 169.039062 518.917969 L 165.554688 522.398438 L 162.460938 524.785156 L 159.269531 526.878906 L 155.320312 529.75 L 150.265625 534.222656 L 144.902344 540.121094 L 140.324219 547.027344 L 137.296875 554.417969 L 135.261719 561.375 L 133.34375 566.871094 L 130.867188 570.261719 L 127.984375 572.371094 L 125.054688 574.390625 L 122.367188 577.394531 L 119.933594 581.972656 L 117.679688 588.589844 L 115.503906 597.351562 L 113.113281 606.867188 L 110.160156 615.386719 L 106.453125 621.644531 L 102.394531 626.3125 L 98.53125 630.5625 L 95.285156 635.285156 L 92.574219 640.316406 L 90.207031 645.222656 L 88.011719 649.683594 L 85.980469 653.792969 L 84.140625 657.765625 L 82.476562 661.722656 L 80.785156 665.4375 L 78.828125 668.601562 L 76.480469 671.023438 L 74.144531 672.992188 L 72.347656 674.910156 L 71.457031 677.152344 L 71.226562 679.9375 L 71.25 683.441406 L 71.152344 687.632812 L 70.722656 691.660156 L 69.769531 694.457031 L 68.195312 695.640625 L 66.203125 697.597656 L 64.0625 703.402344 L 62.015625 715.136719 L 60.128906 730.988281 L 58.414062 748.140625 L 56.894531 763.800781 L 55.574219 775.800781 L 54.359375 784.558594 L 53.148438 791.125 L 51.863281 796.472656 L 50.492188 801.238281 L 49.066406 805.96875 L 47.609375 811.1875 L 46.199219 817.304688 L 44.921875 824.703125 L 43.804688 833.558594 L 42.660156 843.1875 L 41.242188 852.695312 L 39.441406 861.429688 L 37.671875 869.640625 L 36.472656 877.808594 L 36.195312 886.332031 L 36.429688 895.234375 L 36.570312 904.449219 L 36.207031 913.722656 L 35.75 922.109375 L 35.785156 928.464844 L 36.738281 932.199219 L 38.289062 934.890625 L 39.921875 938.644531 L 41.207031 944.949219 L 41.976562 952.777344 L 42.117188 960.464844 L 41.675781 966.710938 L 41.234375 971.667969 L 41.519531 975.851562 L 43.050781 979.886719 L 45.496094 984.824219 L 48.304688 991.828125 L 51.039062 1001.589844 L 53.699219 1012.902344 L 56.382812 1024.078125 L 59.15625 1033.695312 L 61.945312 1041.363281 L 64.636719 1046.945312 L 67.054688 1050.550781 L 68.773438 1053.246094 L 69.296875 1056.34375 L 68.472656 1060.738281 L 67.5 1065.679688 L 67.914062 1070.007812 L 70.664062 1072.945312 L 74.355469 1075.25 L 77.019531 1078.066406 L 77.445312 1082.183594 L 77.5 1086.953125 L 79.808594 1091.378906 L 86.097656 1094.78125 L 94.476562 1097.796875 L 102.148438 1101.382812 L 107.082031 1106.136719 L 110.339844 1111.1875 L 113.765625 1115.296875 L 118.613281 1117.664062 L 123.847656 1119.203125 L 127.851562 1121.246094 L 129.566406 1124.8125 L 130.117188 1129.625 L 131.167969 1135.070312 L 134.402344 1140.546875 L 140.652344 1145.609375 L 147.433594 1150.433594 L 151.421875 1155.355469 L 150.582031 1160.589844 L 148.015625 1165.875 L 148.101562 1170.824219 L 153.714844 1175.121094 L 161.648438 1178.742188 L 167.175781 1181.726562 L 167.035156 1184.175781 L 163.777344 1186.445312 L 161.421875 1188.949219 L 162.992188 1191.988281 L 167.566406 1195.390625 L 173.246094 1198.863281 L 178.433594 1202.320312 L 182.796875 1206.441406 L 186.304688 1212.117188 L 189.121094 1219.824219 L 192.175781 1228.390625 L 196.578125 1236.238281 L 202.929688 1242.164062 L 209.824219 1246.484375 L 215.339844 1249.886719 L 218.210938 1253.148438 L 219.832031 1257.359375 L 222.242188 1263.699219 L 226.894531 1272.726562 L 232.828125 1282.558594 L 238.484375 1290.6875 L 242.710938 1295.347656 L 245.96875 1297.683594 L 249.125 1299.570312 L 252.832031 1302.488281 L 256.882812 1306.355469 L 260.867188 1310.695312 L 264.582031 1315.089844 L 268.664062 1319.324219 L 273.96875 1323.234375 L 281.03125 1326.695312 L 289.085938 1329.6875 L 297.050781 1332.226562 L 304.207031 1334.382812 L 311.304688 1336.445312 L 319.453125 1338.761719 L 329.355469 1341.519531 L 340.078125 1344.277344 L 350.277344 1346.4375 L 358.714844 1347.578125 L 364.621094 1347.976562 L 367.332031 1348.097656 L 367.007812 1348.28125 L 367.054688 1348.378906 L 371.707031 1348.144531 L 383.742188 1347.320312 L 400.113281 1345.703125 L 416.324219 1343.09375 L 428.816406 1339.445312 L 437.777344 1335.351562 L 444.324219 1331.554688 L 449.484375 1328.636719 L 453.902344 1326.5625 L 458.117188 1325.128906 L 462.675781 1324.136719 L 467.859375 1322.855469 L 472.851562 1318.46875 L 476.585938 1307.628906 L 478.347656 1288.652344 L 478.898438 1266.5625 L 479.359375 1248.035156 L 480.585938 1237.960938 L 482.335938 1234.035156 L 484.097656 1232.167969 L 485.488281 1229.121094 L 486.625 1225.109375 L 487.757812 1221.214844 L 489.074219 1218.152344 L 490.511719 1215.191406 L 491.957031 1211.238281 L 493.316406 1205.585938 L 494.617188 1199.0625 L 495.910156 1192.882812 L 497.238281 1187.96875 L 498.59375 1184.050781 L 499.957031 1180.578125 L 501.308594 1177.078125 L 502.652344 1173.445312 L 503.988281 1169.664062 L 505.320312 1165.726562 L 506.65625 1161.667969 L 507.996094 1157.539062 L 509.347656 1153.359375 L 510.699219 1149.046875 L 512.046875 1144.484375 L 513.378906 1139.648438 L 514.710938 1134.867188 L 516.046875 1130.558594 L 517.394531 1127.035156 L 518.75 1124.175781 L 520.097656 1121.753906 L 521.433594 1119.511719 L 522.761719 1117.085938 L 524.097656 1114.085938 L 525.445312 1110.230469 L 526.800781 1105.6875 L 528.152344 1100.730469 L 529.484375 1095.582031 L 530.8125 1090.242188 L 532.148438 1084.660156 L 533.496094 1078.78125 L 534.851562 1072.535156 L 536.203125 1065.839844 L 537.539062 1058.566406 L 538.867188 1050.320312 L 540.203125 1040.640625 L 541.546875 1029.402344 L 542.898438 1017.789062 L 544.25 1007.296875 L 545.59375 998.828125 L 546.929688 990.828125 L 548.265625 981.140625 L 549.597656 968.496094 L 550.933594 955.214844 L 552.28125 944.515625 L 553.636719 938.398438 L 555 933.992188 L 556.347656 927.210938 L 557.675781 913.96875 L 558.976562 891.816406 L 560.285156 864.835938 L 561.636719 838.746094 L 563.058594 818.25 L 564.480469 803.976562 L 565.804688 795.539062 L 566.992188 791.441406 L 568.191406 785.753906 L 569.59375 771.429688 L 571.285156 744.308594 L 572.875 711.773438 L 573.859375 684.085938 L 573.816406 668.839844 L 572.683594 662.980469 L 570.488281 660.777344 L 567.320312 657.628906 L 563.523438 653.378906 L 559.507812 649.011719 L 555.617188 645.261719 L 551.910156 641.972656 L 548.375 638.761719 L 545.027344 635.253906 L 541.945312 631.101562 L 539.222656 625.972656 L 536.882812 619.757812 L 534.597656 613.257812 L 531.964844 607.503906 L 528.667969 603.171875 L 524.773438 599.496094 L 520.425781 595.351562 L 515.824219 589.90625 L 511.316406 583.460938 L 507.308594 576.609375 L 504.089844 569.910156 L 501.585938 563.84375 L 499.621094 558.867188 L 497.855469 555.183594 L 495.285156 552.058594 L 490.738281 548.492188 L 483.632812 543.816406 L 475.738281 538.59375 L 469.402344 533.710938 L 466.253906 529.761719 L 465.019531 526.21875 L 463.714844 522.277344 L 460.820312 517.429688 L 456.742188 512.410156 L 452.363281 508.269531 L 448.3125 505.609375 L 444.191406 503.28125 L 439.339844 499.707031 L 433.265625 493.808594 L 426.160156 486.53125 L 418.367188 479.335938 L 410.277344 473.375 L 402.429688 468.582031 L 395.398438 464.578125 L 388.90625 461.066406 L 379.261719 458 L 361.929688 455.398438 L 335.148438 453.261719 L 308.234375 451.484375 L 293.28125 449.9375 L 302.386719 448.488281 L 303.589844 448.699219 "/>
<path style="fill:none;stroke-width:0.75;stroke-linecap:round;stroke-linejoin:round;stroke:rgb(0%,0%,0%);stroke-opacity:1;stroke-miterlimit:10;" d="M 698.4375 504.976562 L 693.894531 506.480469 L 688.570312 507.914062 L 682.980469 509.300781 L 677.65625 510.65625 L 673.015625 511.992188 L 669.050781 513.316406 L 665.652344 514.628906 L 662.707031 515.9375 L 660.097656 517.25 L 657.652344 518.585938 L 655.207031 519.972656 L 652.585938 521.433594 L 649.617188 523 L 646.191406 524.699219 L 642.460938 526.613281 L 638.644531 528.828125 L 634.964844 531.429688 L 631.601562 534.476562 L 628.582031 537.882812 L 625.902344 541.539062 L 623.554688 545.335938 L 621.53125 549.152344 L 619.785156 552.914062 L 618.113281 556.640625 L 616.28125 560.398438 L 614.042969 564.242188 L 611.25 568.210938 L 608.109375 572.273438 L 604.917969 576.375 L 601.964844 580.460938 L 599.464844 584.492188 L 597.269531 588.46875 L 595.152344 592.402344 L 592.882812 596.296875 L 590.234375 600.164062 L 587.136719 604.027344 L 584.171875 607.980469 L 582.09375 612.125 L 581.640625 616.566406 L 583.328125 621.3125 L 586.6875 625.988281 L 591.023438 630.132812 L 595.632812 633.273438 L 599.8125 634.949219 L 602.886719 635.144531 L 604.257812 635.671875 L 603.351562 638.800781 L 599.59375 646.792969 L 592.800781 661.144531 L 584.359375 680.261719 L 576.03125 701.773438 L 569.597656 723.316406 L 566.34375 743.003906 L 565.652344 760.894531 L 566.429688 777.527344 L 567.574219 793.445312 L 567.988281 809.191406 L 566.875 825.199219 L 564.621094 841.480469 L 561.910156 857.945312 L 559.425781 874.496094 L 557.691406 891 L 556.589844 907.183594 L 555.839844 922.726562 L 555.160156 937.3125 L 554.273438 950.628906 L 552.976562 962.574219 L 551.375 973.894531 L 549.65625 985.566406 L 548.007812 998.554688 L 546.5625 1013.445312 L 545.292969 1029.265625 L 544.117188 1044.671875 L 542.960938 1058.300781 L 541.738281 1068.808594 L 540.402344 1075.304688 L 538.976562 1078.785156 L 537.527344 1080.703125 L 536.101562 1082.523438 L 534.742188 1085.386719 L 533.4375 1089.207031 L 532.152344 1093.574219 L 530.859375 1098.085938 L 529.53125 1102.402344 L 528.175781 1106.453125 L 526.804688 1110.226562 L 525.433594 1113.714844 L 524.078125 1116.90625 L 522.742188 1119.832031 L 521.421875 1122.667969 L 520.101562 1125.625 L 518.769531 1128.925781 L 517.417969 1132.71875 L 516.054688 1136.957031 L 514.691406 1141.527344 L 513.335938 1146.316406 L 512 1151.21875 L 510.695312 1156.113281 L 509.398438 1160.867188 L 508.085938 1165.34375 L 506.734375 1169.40625 L 505.328125 1172.976562 L 503.902344 1176.25 L 502.496094 1179.476562 L 501.15625 1182.910156 L 499.910156 1186.761719 L 498.707031 1191.039062 L 497.496094 1195.707031 L 496.207031 1200.730469 L 494.78125 1206.074219 L 493.195312 1211.621094 L 491.5625 1216.949219 L 490.035156 1221.550781 L 488.757812 1224.917969 L 487.808594 1226.839844 L 487.003906 1228.230469 L 486.070312 1230.296875 L 484.75 1234.238281 L 482.777344 1241.261719 L 480.144531 1252.09375 L 477.832031 1265.542969 L 477.085938 1279.9375 L 479.140625 1293.609375 L 484.800781 1305.207031 L 493.144531 1314.632812 L 502.8125 1322.105469 L 512.449219 1327.847656 L 520.699219 1332.078125 L 526.621094 1335.074219 L 530.945312 1337.355469 L 534.808594 1339.492188 L 539.363281 1342.066406 L 545.414062 1345.492188 L 552.46875 1349.535156 L 559.695312 1353.8125 L 566.261719 1357.929688 L 571.652344 1361.59375 L 576.597656 1364.886719 L 582.128906 1367.988281 L 589.292969 1371.074219 L 599.125 1374.320312 L 612.296875 1377.769531 L 628 1380.914062 L 645.066406 1383.109375 L 662.316406 1383.703125 L 678.714844 1382.273438 L 693.785156 1379.230469 L 707.183594 1375.214844 L 718.578125 1370.855469 L 727.621094 1366.785156 L 734.265625 1363.460938 L 739.613281 1360.636719 L 745.050781 1357.886719 L 751.96875 1354.78125 L 761.277344 1351.027344 L 771.972656 1346.851562 L 782.578125 1342.609375 L 791.601562 1338.648438 L 797.992188 1335.234375 L 802.359375 1332.21875 L 805.738281 1329.371094 L 809.164062 1326.445312 L 813.675781 1323.207031 L 819.972656 1319.496094 L 827.402344 1315.484375 L 834.988281 1311.421875 L 841.746094 1307.558594 L 846.9375 1304.078125 L 850.835938 1300.894531 L 853.957031 1297.855469 L 856.816406 1294.804688 L 859.929688 1291.589844 L 863.679688 1288.085938 L 867.925781 1284.277344 L 872.382812 1280.1875 L 876.769531 1275.828125 L 880.878906 1271.230469 L 884.753906 1266.460938 L 888.511719 1261.597656 L 892.269531 1256.730469 L 896.136719 1251.925781 L 900.21875 1247.214844 L 904.578125 1242.382812 L 909.261719 1237.160156 L 914.324219 1231.269531 L 919.789062 1224.542969 L 925.589844 1217.183594 L 931.640625 1209.492188 L 937.855469 1201.773438 L 944.128906 1194.277344 L 950.261719 1187.0625 L 956.042969 1180.140625 L 961.257812 1173.515625 L 965.699219 1167.203125 L 969.242188 1161.1875 L 972.167969 1155.351562 L 974.851562 1149.570312 L 977.667969 1143.703125 L 980.871094 1137.65625 L 984.261719 1131.492188 L 987.511719 1125.316406 L 990.300781 1119.226562 L 992.304688 1113.332031 L 993.339844 1107.675781 L 993.789062 1102.105469 L 994.183594 1096.402344 L 995.039062 1090.363281 L 996.734375 1083.839844 L 999.015625 1076.960938 L 1001.484375 1069.929688 L 1003.738281 1062.9375 L 1005.480469 1056.171875 L 1006.835938 1049.765625 L 1008.03125 1043.835938 L 1009.296875 1038.496094 L 1010.863281 1033.867188 L 1012.890625 1030.007812 L 1015.25 1026.746094 L 1017.738281 1023.859375 L 1020.167969 1021.121094 L 1022.355469 1018.285156 L 1024.230469 1015.054688 L 1025.742188 1011.117188 L 1026.835938 1006.160156 L 1027.457031 999.867188 L 1027.640625 992.128906 L 1027.71875 983.652344 L 1028.117188 975.335938 L 1029.25 968.097656 L 1031.394531 962.582031 L 1034.21875 958.441406 L 1037.257812 955.070312 L 1040.039062 951.863281 L 1042.089844 948.210938 L 1043.09375 943.671875 L 1043.335938 938.429688 L 1043.265625 932.824219 L 1043.324219 927.199219 L 1043.835938 921.824219 L 1044.667969 916.660156 L 1045.554688 911.609375 L 1046.242188 906.558594 L 1046.539062 901.390625 L 1046.527344 895.953125 L 1046.339844 890.089844 L 1046.125 883.632812 L 1046.019531 876.421875 L 1046.144531 868.363281 L 1046.527344 859.621094 L 1047.183594 850.421875 L 1048.113281 840.996094 L 1049.296875 831.539062 L 1050.59375 822.117188 L 1051.847656 812.761719 L 1052.882812 803.511719 L 1053.535156 794.390625 L 1053.671875 785.429688 L 1053.269531 776.628906 L 1052.332031 767.96875 L 1050.867188 759.4375 L 1048.941406 751.066406 L 1046.863281 743.019531 L 1045.007812 735.496094 L 1043.746094 728.699219 L 1043.320312 722.78125 L 1043.484375 717.671875 L 1043.867188 713.257812 L 1044.097656 709.410156 L 1043.804688 706.015625 L 1042.75 702.941406 L 1041.246094 700.007812 L 1039.738281 697.027344 L 1038.675781 693.800781 L 1038.363281 690.195312 L 1038.585938 686.289062 L 1038.980469 682.214844 L 1039.195312 678.105469 L 1038.871094 674.089844 L 1037.765625 670.230469 L 1036.089844 666.292969 L 1034.175781 661.96875 L 1032.34375 656.945312 L 1030.851562 651.054688 L 1029.632812 644.671875 L 1028.558594 638.316406 L 1027.484375 632.5 L 1026.304688 627.609375 L 1024.996094 623.527344 L 1023.550781 620.003906 L 1021.972656 616.785156 L 1020.257812 613.628906 L 1018.382812 610.339844 L 1016.207031 606.96875 L 1013.574219 603.621094 L 1010.324219 600.394531 L 1006.394531 597.394531 L 1002.101562 594.6875 L 997.867188 592.332031 L 994.117188 590.398438 L 991.265625 588.941406 L 989.453125 587.875 L 987.714844 586.519531 L 984.792969 584.042969 L 979.441406 579.609375 L 970.875 572.722656 L 960.148438 564.234375 L 948.773438 555.320312 L 938.28125 547.164062 L 930.179688 540.953125 L 925.476562 537.484375 L 923.136719 536.035156 L 921.609375 535.492188 L 919.339844 534.753906 L 915.1875 533.03125 L 909.636719 530.835938 L 903.574219 529.003906 L 897.898438 528.359375 L 893.316406 529.535156 L 889.863281 532.316406 L 887.382812 536.28125 L 885.734375 541.015625 L 884.765625 546.09375 L 884.320312 551.183594 L 884.191406 556.277344 L 884.164062 561.457031 L 884.015625 566.796875 L 883.605469 572.347656 L 883.074219 578.003906 L 882.628906 583.636719 L 882.488281 589.105469 L 882.855469 594.277344 L 883.855469 599.226562 L 885.226562 604.859375 L 886.613281 612.285156 L 887.660156 622.628906 L 888.128906 636.449219 L 888.238281 652.144531 L 888.324219 667.554688 L 888.722656 680.53125 L 889.671875 689.476562 L 891.03125 695.019531 L 892.578125 698.34375 L 894.074219 700.636719 L 895.289062 703.089844 L 896.050781 706.625 L 896.40625 711.164062 L 896.457031 716.367188 L 896.300781 721.894531 L 896.09375 727.386719 L 896.164062 732.390625 L 896.890625 736.441406 L 898.664062 739.070312 L 901.851562 739.804688 L 906.644531 738.425781 L 912.410156 735.71875 L 918.328125 732.71875 L 923.574219 730.460938 L 927.539062 729.746094 L 930.453125 730.441406 L 932.769531 732.167969 L 934.9375 734.5625 L 937.410156 737.246094 L 940.386719 739.933594 L 943.097656 742.652344 L 944.53125 745.523438 L 943.675781 748.652344 L 939.835938 752.125 L 933.59375 755.867188 L 925.855469 759.777344 L 917.527344 763.753906 L 909.417969 767.703125 L 901.949219 771.582031 L 895.460938 775.375 L 890.273438 779.050781 L 886.726562 782.582031 L 884.933594 785.964844 L 884.171875 789.277344 L 883.496094 792.617188 L 881.972656 796.078125 L 878.898438 799.757812 L 874.566406 803.777344 L 869.503906 808.25 L 864.25 813.292969 L 859.328125 819.023438 L 855.144531 825.503906 L 851.570312 832.59375 L 848.355469 840.089844 L 845.242188 847.792969 L 841.996094 855.511719 L 838.460938 863.117188 L 834.492188 870.472656 L 829.953125 877.457031 L 824.773438 883.996094 L 819.148438 890.210938 L 813.335938 896.273438 L 807.59375 902.359375 L 802.191406 908.640625 L 797.402344 915.183594 L 793.59375 921.601562 L 791.140625 927.40625 L 790.429688 932.097656 L 791.695312 935.292969 L 794.605469 937.0625 L 798.6875 937.578125 L 803.460938 937.015625 L 808.453125 935.554688 L 813.214844 933.460938 L 817.421875 931.402344 L 820.765625 930.152344 L 822.949219 930.46875 L 823.765625 932.871094 L 823.382812 936.871094 L 822.070312 941.730469 L 820.089844 946.710938 L 817.707031 951.082031 L 815.214844 954.34375 L 812.984375 956.980469 L 811.417969 959.722656 L 810.921875 963.289062 L 811.597656 968.144531 L 812.394531 973.664062 L 811.957031 978.957031 L 808.9375 983.136719 L 802.554688 985.488281 L 794.339844 986.046875 L 786.386719 985.019531 L 780.796875 982.617188 L 779.667969 979.050781 L 784.191406 974.601562 L 791.898438 969.789062 L 799.414062 965.214844 L 803.367188 961.464844 L 801.285156 958.972656 L 794.308594 957.523438 L 784.476562 956.734375 L 773.832031 956.222656 L 764.425781 955.613281 L 757.808594 954.578125 L 753.59375 953.007812 L 750.90625 950.84375 L 748.871094 948.035156 L 746.734375 944.570312 L 744.207031 940.664062 L 741.117188 936.570312 L 737.292969 932.550781 L 732.6875 928.796875 L 727.714844 925.28125 L 722.914062 921.902344 L 718.820312 918.5625 L 715.96875 915.171875 L 714.644531 911.65625 L 714.121094 908.085938 L 713.417969 904.546875 L 711.554688 901.132812 L 707.875 897.910156 L 702.996094 894.84375 L 697.855469 891.875 L 693.386719 888.941406 L 690.53125 885.980469 L 689.949219 882.914062 L 691.226562 879.582031 L 693.660156 875.800781 L 696.554688 871.394531 L 699.324219 866.21875 L 701.78125 860.269531 L 703.835938 853.585938 L 705.414062 846.195312 L 706.425781 838.136719 L 706.832031 829.492188 L 706.761719 820.535156 L 706.390625 811.585938 L 705.894531 802.972656 L 705.40625 794.960938 L 704.941406 787.644531 L 704.476562 781.050781 L 703.992188 775.222656 L 703.480469 770.078125 L 702.953125 765.097656 L 702.445312 759.640625 L 701.984375 753.074219 L 701.59375 744.757812 L 701.332031 734.355469 L 701.34375 722.707031 L 701.800781 710.953125 L 702.871094 700.238281 L 704.632812 691.457031 L 706.8125 684.527344 L 709.035156 679.121094 L 710.933594 674.90625 L 712.136719 671.566406 L 712.398438 668.746094 L 711.984375 666.023438 L 711.28125 662.960938 L 710.667969 659.113281 L 710.5 654.183594 L 710.960938 648.476562 L 712.195312 642.445312 L 714.359375 636.539062 L 717.515625 631.089844 L 721.414062 625.957031 L 725.71875 620.878906 L 730.097656 615.59375 L 734.21875 609.847656 L 737.808594 603.457031 L 740.828125 596.542969 L 743.285156 589.3125 L 745.207031 581.96875 L 746.597656 574.683594 L 747.464844 567.507812 L 747.800781 560.464844 L 747.597656 553.578125 L 746.859375 546.871094 L 745.679688 540.371094 L 744.554688 534.136719 L 744.078125 528.242188 L 744.847656 522.746094 L 746.789062 517.71875 L 747.136719 513.195312 L 742.441406 509.207031 L 729.269531 505.796875 L 704.175781 502.996094 L 698.4375 504.976562 "/>
<path style="fill:none;stroke-width:0.75;stroke-linecap:round;stroke-linejoin:round;stroke:rgb(0%,0%,0%);stroke-opacity:1;stroke-miterlimit:10;" d="M 560.984375 489.269531 L 555.730469 495.890625 L 555.554688 502.269531 L 553 508.0625 L 553.007812 513.609375 L 555.515625 519.667969 L 555.976562 526.765625 L 557.617188 534.949219 L 559.269531 544.773438 L 560.300781 556.597656 L 561.347656 570.203125 L 563.550781 583.796875 L 563.808594 596.503906 L 566.25 607.769531 L 566.644531 617.5 L 568.542969 625.3125 L 569.730469 630.910156 L 571.277344 633.953125 L 574.640625 634.199219 L 577.011719 632.027344 L 577.226562 628.160156 L 579.648438 623.484375 L 580.167969 618.515625 L 581.6875 613.507812 L 583.550781 608.597656 L 584.320312 603.832031 L 585.65625 599.203125 L 592.929688 594.589844 L 593.445312 590.132812 L 598.378906 585.84375 L 598.882812 581.722656 L 603.289062 577.683594 L 605.382812 573.703125 L 607.449219 569.714844 L 610.753906 565.667969 L 614.027344 561.511719 L 614.980469 557.199219 L 619.863281 552.675781 L 620.28125 548.023438 L 622.21875 543.375 L 623.902344 538.851562 L 629.320312 534.835938 L 634.527344 531.53125 L 635.742188 528.972656 L 638.996094 526.859375 L 644.132812 524.960938 L 646.980469 523.257812 L 649.351562 521.570312 L 652.859375 519.648438 L 654.09375 517.140625 L 658.394531 513.894531 L 667.972656 509.988281 L 668.464844 506.058594 L 665.71875 502.4375 L 665.714844 499.140625 L 662.59375 496.050781 L 664.484375 493.066406 L 655.71875 490.199219 L 561.816406 487.449219 L 560.984375 489.269531 "/>
<path style="fill:none;stroke-width:0.75;stroke-linecap:round;stroke-linejoin:round;stroke:rgb(0%,0%,0%);stroke-opacity:1;stroke-miterlimit:10;" d="M 737.792969 279.898438 L 733.679688 283.761719 L 732.078125 286.9375 L 730.617188 289.558594 L 726.800781 291.828125 L 721.882812 293.277344 L 717.597656 293.601562 L 713.847656 293.738281 L 710.269531 294.753906 L 707.226562 297.003906 L 705.132812 300.472656 L 703.835938 304.40625 L 702.847656 308.152344 L 700.886719 312.234375 L 697.140625 317.582031 L 693.535156 325.609375 L 691.859375 337.011719 L 690.695312 349.132812 L 688.40625 359.085938 L 685.753906 366.378906 L 683.785156 371.292969 L 682.363281 374.878906 L 681.101562 378.351562 L 679.816406 382.816406 L 678.429688 389.347656 L 677.054688 398.976562 L 675.800781 411.71875 L 674.515625 423.554688 L 673.007812 430.71875 L 671.148438 434.460938 L 669.011719 437.011719 L 667.355469 439.558594 L 666.660156 443.015625 L 665.507812 448.332031 L 662.890625 455.964844 L 661.21875 464.453125 L 662.457031 472.21875 L 663.230469 479.113281 L 661.726562 485.246094 L 667.621094 490.324219 L 688.703125 493.929688 L 713.679688 495.632812 L 729.84375 495.285156 L 737.949219 493.882812 L 741.765625 492.339844 L 743.722656 490.167969 L 745.34375 486.808594 L 745.84375 482.957031 L 744.574219 479.113281 L 743.667969 473.859375 L 745.097656 465.910156 L 747.371094 456.390625 L 748.476562 446.945312 L 747.753906 438.921875 L 745.269531 433.246094 L 742.605469 429.503906 L 741.179688 426.769531 L 740.183594 423.445312 L 738.804688 418.15625 L 738.375 411.164062 L 740.015625 403.027344 L 741.875 393.863281 L 742.335938 384.046875 L 743.636719 375.429688 L 748.125 369.664062 L 754.6875 366.191406 L 760.710938 363.988281 L 761.019531 362.351562 L 752.328125 360.707031 L 741.433594 358.628906 L 735.742188 355.859375 L 735.078125 352.59375 L 738.359375 349.160156 L 748.414062 345.964844 L 766.589844 343.546875 L 784.382812 342.953125 L 793.503906 344.9375 L 796.398438 348.527344 L 797.28125 352.46875 L 796.679688 356.058594 L 794.296875 358.816406 L 790.214844 360.597656 L 784.855469 361.378906 L 779.628906 361.273438 L 775.675781 360.75 L 772.464844 361.15625 L 770.601562 362.617188 L 770.804688 364.699219 L 772.613281 366.277344 L 775.46875 366.464844 L 779.628906 366.023438 L 785.054688 366.007812 L 789.765625 366.953125 L 792.273438 369.160156 L 795.046875 372.507812 L 800.230469 376.613281 L 804.765625 380.542969 L 806.074219 383.800781 L 808.785156 388.203125 L 817.320312 395.316406 L 828.117188 403.359375 L 836.425781 410.265625 L 840.78125 416.160156 L 841.332031 421.667969 L 841.492188 427.253906 L 844.398438 433.351562 L 848.890625 440.441406 L 853.097656 448.722656 L 856.691406 457.214844 L 860.105469 464.710938 L 865.363281 470.289062 L 873.332031 473.578125 L 878.621094 476.027344 L 876.664062 479.117188 L 872.402344 482.558594 L 872.292969 485.605469 L 879.40625 487.507812 L 894.433594 487.761719 L 911.996094 486.902344 L 926.171875 485.601562 L 934.910156 484.074219 L 937.878906 482.363281 L 937.792969 480.238281 L 937.09375 477.480469 L 934.101562 474.148438 L 927.4375 470.34375 L 921.136719 466.066406 L 919.039062 461.390625 L 918.871094 456.785156 L 917.464844 452.527344 L 914.257812 447.714844 L 909.753906 441.585938 L 906.207031 435.011719 L 905.433594 429.09375 L 905.78125 424.136719 L 905.257812 420.125 L 904.011719 416.46875 L 902.605469 412.59375 L 901.191406 408.535156 L 899.808594 404.492188 L 898.5 400.71875 L 897.257812 397.421875 L 895.898438 394.546875 L 894.335938 391.886719 L 893.070312 388.957031 L 892.296875 385.382812 L 890.292969 381.578125 L 885.679688 377.941406 L 880.355469 374.050781 L 876.335938 369.441406 L 872.851562 364.34375 L 868.976562 359.199219 L 865.914062 354.570312 L 864.773438 350.78125 L 864.195312 347.113281 L 862.390625 342.785156 L 858.328125 337.765625 L 852.085938 332.179688 L 847.386719 326.003906 L 846.21875 319.035156 L 839.925781 310.449219 L 822.351562 300.078125 L 808.003906 290.9375 L 809.519531 285.761719 L 811.34375 282.988281 L 793.085938 280.496094 L 743.144531 278.269531 L 737.792969 279.898438 "/>
</g>
</svg>
