<?xml version="1.0" encoding="UTF-8"?>
<svg xmlns="http://www.w3.org/2000/svg" xmlns:xlink="http://www.w3.org/1999/xlink" width="1428pt" height="1605pt" viewBox="0 0 1428 1605" version="1.1">
<g id="surface264">
<rect x="0" y="0" width="1428" height="1605" style="fill:rgb(100%,100%,100%);fill-opacity:1;stroke:none;"/>
<path style="fill:none;stroke-width:0.75;stroke-linecap:round;stroke-linejoin:round;stroke:rgb(0%,0%,0%);stroke-opacity:1;stroke-miterlimit:10;" d="M 750.316406 263.957031 L 741.730469 268.476562 L 730.132812 272.957031 L 717.722656 277.417969 L 706.707031 281.863281 L 698.789062 286.308594 L 693.6875 290.753906 L 690.632812 295.203125 L 688.835938 299.667969 L 687.527344 304.148438 L 686.09375 308.652344 L 684.578125 313.175781 L 683.1875 317.722656 L 682.136719 322.285156 L 681.566406 326.894531 L 681.359375 331.652344 L 681.324219 336.679688 L 681.277344 342.113281 L 681.027344 348.070312 L 680.429688 354.589844 L 679.472656 361.328125 L 678.1875 367.855469 L 676.601562 373.730469 L 674.742188 378.523438 L 672.679688 382.042969 L 670.621094 385.074219 L 668.828125 388.632812 L 667.542969 393.753906 L 666.925781 401.148438 L 666.734375 410.300781 L 666.628906 420.394531 L 666.269531 430.597656 L 665.320312 440.09375 L 663.554688 448.183594 L 661.222656 454.683594 L 658.683594 459.535156 L 656.300781 462.675781 L 654.433594 464.054688 L 653.304688 463.609375 L 652.574219 461.269531 L 651.75 456.976562 L 650.355469 450.65625 L 648.039062 442.40625 L 645.011719 432.976562 L 641.617188 423.273438 L 638.195312 414.203125 L 635.101562 406.679688 L 632.578125 401.328125 L 630.5 397.660156 L 628.640625 394.910156 L 626.78125 392.300781 L 624.691406 389.074219 L 622.140625 384.753906 L 618.839844 380.085938 L 614.492188 376.101562 L 608.796875 373.839844 L 601.59375 374.097656 L 593.273438 376.65625 L 584.347656 381.058594 L 575.347656 386.839844 L 566.792969 393.539062 L 559.160156 400.699219 L 552.746094 407.890625 L 547.804688 414.683594 L 544.589844 420.65625 L 543.179688 425.488281 L 542.933594 429.339844 L 543.050781 432.484375 L 542.714844 435.1875 L 541.117188 437.726562 L 537.753906 440.3125 L 533.339844 442.9375 L 528.890625 445.550781 L 525.433594 448.089844 L 523.980469 450.488281 L 525.191406 452.722656 L 528.28125 454.890625 L 532.089844 457.117188 L 535.472656 459.53125 L 537.558594 462.234375 L 538.621094 465.265625 L 539.214844 468.628906 L 539.890625 472.34375 L 541.210938 476.417969 L 543.53125 480.839844 L 546.460938 485.488281 L 549.421875 490.226562 L 551.820312 494.910156 L 553.078125 499.394531 L 552.816406 503.582031 L 551.457031 507.566406 L 549.640625 511.472656 L 548 515.433594 L 547 519.53125 L 546.441406 523.601562 L 545.960938 527.445312 L 545.191406 530.84375 L 543.765625 533.59375 L 541.488281 535.558594 L 538.8125 536.886719 L 536.371094 537.800781 L 534.789062 538.527344 L 534.691406 539.285156 L 536.433594 540.351562 L 539.292969 542.171875 L 542.277344 545.234375 L 544.394531 550.035156 L 544.902344 556.84375 L 544.121094 565.0625 L 542.613281 573.859375 L 540.949219 582.40625 L 539.703125 589.882812 L 539.246094 595.621094 L 539.1875 599.605469 L 538.953125 601.980469 L 537.949219 602.882812 L 535.769531 602.476562 L 532.667969 600.964844 L 529.0625 598.566406 L 525.382812 595.496094 L 522.054688 591.972656 L 519.382812 588.1875 L 517.230469 584.191406 L 515.339844 580.007812 L 513.457031 575.660156 L 511.328125 571.171875 L 508.746094 566.582031 L 505.699219 561.949219 L 502.226562 557.347656 L 498.367188 552.859375 L 494.183594 548.550781 L 489.832031 544.464844 L 485.5 540.632812 L 481.367188 537.097656 L 477.617188 533.890625 L 474.371094 531.003906 L 471.507812 528.265625 L 468.835938 525.453125 L 466.175781 522.351562 L 463.335938 518.738281 L 460.121094 514.453125 L 456.269531 509.5625 L 451.503906 504.191406 L 445.550781 498.457031 L 438.300781 492.496094 L 430.3125 486.492188 L 422.3125 480.640625 L 415.019531 475.132812 L 409.160156 470.160156 L 405.007812 465.878906 L 401.054688 462.238281 L 395.335938 459.15625 L 385.886719 456.539062 L 370.746094 454.296875 L 348.90625 452.402344 L 323.175781 451.0625 L 297.304688 450.535156 L 275.0625 451.085938 L 259.246094 452.886719 L 248.875 455.734375 L 241.996094 459.324219 L 236.667969 463.363281 L 230.949219 467.554688 L 223.4375 471.648438 L 214.898438 475.582031 L 206.636719 479.339844 L 199.96875 482.90625 L 195.800781 486.28125 L 193.484375 489.511719 L 191.972656 492.660156 L 190.214844 495.78125 L 187.171875 498.933594 L 182.101562 502.191406 L 175.496094 505.675781 L 168.148438 509.519531 L 160.859375 513.863281 L 154.425781 518.839844 L 149.433594 524.554688 L 145.609375 531.011719 L 142.46875 538.1875 L 139.527344 546.054688 L 136.386719 554.542969 L 132.996094 563.425781 L 129.394531 572.425781 L 125.609375 581.265625 L 121.683594 589.679688 L 117.671875 597.441406 L 113.691406 604.5625 L 109.878906 611.109375 L 106.371094 617.144531 L 103.3125 622.734375 L 100.769531 627.941406 L 98.5625 632.828125 L 96.441406 637.453125 L 94.160156 641.875 L 91.542969 646.144531 L 88.714844 650.257812 L 85.871094 654.207031 L 83.214844 657.976562 L 80.945312 661.5625 L 79.191406 664.960938 L 77.863281 668.214844 L 76.796875 671.382812 L 75.832031 674.519531 L 74.816406 677.6875 L 73.617188 680.925781 L 72.261719 684.234375 L 70.792969 687.605469 L 69.265625 691.019531 L 67.71875 694.605469 L 66.144531 699 L 64.519531 704.988281 L 62.820312 713.339844 L 61.027344 724.839844 L 59.136719 739.742188 L 57.25 756.207031 L 55.480469 771.878906 L 53.945312 784.402344 L 52.722656 792.085938 L 51.699219 795.953125 L 50.71875 797.691406 L 49.621094 798.988281 L 48.25 801.539062 L 46.519531 806.679688 L 44.601562 814.34375 L 42.746094 824.117188 L 41.195312 835.585938 L 40.195312 848.328125 L 39.902344 861.816406 L 40.144531 875.066406 L 40.65625 886.972656 L 41.183594 896.4375 L 41.507812 902.761719 L 41.625 906.886719 L 41.578125 910.15625 L 41.40625 913.917969 L 41.148438 919.507812 L 40.859375 927.839844 L 40.613281 938.101562 L 40.503906 949.03125 L 40.617188 959.382812 L 41.042969 967.898438 L 41.84375 973.761719 L 42.992188 977.847656 L 44.4375 981.480469 L 46.121094 985.96875 L 48.003906 992.304688 L 50.066406 1000.183594 L 52.292969 1008.984375 L 54.675781 1018.082031 L 57.195312 1026.847656 L 59.8125 1034.773438 L 62.390625 1041.824219 L 64.761719 1048.066406 L 66.753906 1053.585938 L 68.199219 1058.449219 L 69.011719 1062.757812 L 69.433594 1066.679688 L 69.785156 1070.417969 L 70.386719 1074.160156 L 71.539062 1078.0625 L 73.421875 1082.113281 L 76.191406 1086.253906 L 80.007812 1090.433594 L 85.027344 1094.589844 L 91.269531 1098.675781 L 98.1875 1102.65625 L 105.109375 1106.503906 L 111.347656 1110.191406 L 116.378906 1113.699219 L 120.308594 1117.039062 L 123.390625 1120.246094 L 125.875 1123.34375 L 128.027344 1126.359375 L 130.066406 1129.347656 L 132.113281 1132.453125 L 134.242188 1135.855469 L 136.539062 1139.730469 L 139.089844 1144.253906 L 141.941406 1149.515625 L 145.015625 1155.308594 L 148.191406 1161.339844 L 151.355469 1167.308594 L 154.421875 1172.976562 L 157.398438 1178.28125 L 160.324219 1183.214844 L 163.230469 1187.761719 L 166.160156 1191.910156 L 169.160156 1195.707031 L 172.34375 1199.4375 L 175.835938 1203.4375 L 179.761719 1208.050781 L 184.25 1213.613281 L 189.339844 1220.300781 L 194.71875 1227.585938 L 199.984375 1234.789062 L 204.742188 1241.214844 L 208.710938 1246.386719 L 212.09375 1250.660156 L 215.222656 1254.601562 L 218.421875 1258.773438 L 222.015625 1263.746094 L 226.222656 1269.894531 L 230.855469 1276.824219 L 235.613281 1283.964844 L 240.191406 1290.734375 L 244.292969 1296.558594 L 247.761719 1301.039062 L 251.023438 1304.539062 L 254.648438 1307.601562 L 259.199219 1310.773438 L 265.023438 1314.449219 L 271.53125 1318.460938 L 277.914062 1322.488281 L 283.347656 1326.207031 L 287.03125 1329.304688 L 288.609375 1331.582031 L 289.617188 1333.355469 L 292.054688 1335.050781 L 297.917969 1337.113281 L 308.671875 1339.816406 L 323.59375 1342.820312 L 341.417969 1345.625 L 360.882812 1347.734375 L 380.722656 1348.648438 L 399.78125 1348.019531 L 417.28125 1346.089844 L 432.558594 1343.253906 L 444.941406 1339.898438 L 453.757812 1336.417969 L 458.777344 1333.152344 L 461.523438 1330.203125 L 463.953125 1327.632812 L 468.03125 1325.496094 L 475.179688 1323.859375 L 484.710938 1322.828125 L 495.394531 1322.535156 L 506.011719 1323.09375 L 515.339844 1324.632812 L 522.539062 1327.21875 L 528.359375 1330.707031 L 533.925781 1334.890625 L 540.378906 1339.574219 L 548.851562 1344.554688 L 559.953125 1349.640625 L 572.1875 1354.671875 L 583.546875 1359.496094 L 592.011719 1363.96875 L 596.265625 1367.957031 L 597.800781 1371.390625 L 598.816406 1374.234375 L 601.5 1376.433594 L 608.050781 1377.949219 L 619.984375 1378.734375 L 636.144531 1378.761719 L 654.699219 1378 L 673.8125 1376.421875 L 691.65625 1374.003906 L 706.722656 1370.796875 L 718.804688 1367.183594 L 728.027344 1363.628906 L 734.507812 1360.59375 L 738.5 1358.425781 L 740.800781 1356.96875 L 742.328125 1355.957031 L 744.011719 1355.113281 L 746.769531 1354.171875 L 751.292969 1352.898438 L 757.308594 1351.226562 L 764.308594 1349.121094 L 771.785156 1346.554688 L 779.292969 1343.523438 L 786.632812 1340.140625 L 793.671875 1336.53125 L 800.28125 1332.835938 L 806.320312 1329.1875 L 811.734375 1325.671875 L 816.75 1322.222656 L 821.671875 1318.714844 L 826.804688 1315.039062 L 832.453125 1311.070312 L 838.804688 1306.726562 L 845.585938 1302.035156 L 852.398438 1297.054688 L 858.855469 1291.839844 L 864.65625 1286.46875 L 869.878906 1281.101562 L 874.699219 1275.917969 L 879.289062 1271.09375 L 883.816406 1266.808594 L 888.410156 1263.164062 L 893.003906 1259.941406 L 897.496094 1256.839844 L 901.769531 1253.570312 L 905.722656 1249.828125 L 909.3125 1245.371094 L 912.785156 1240.121094 L 916.453125 1234.046875 L 920.628906 1227.125 L 925.527344 1219.414062 L 930.964844 1211.316406 L 936.664062 1203.332031 L 942.339844 1195.960938 L 947.714844 1189.699219 L 952.554688 1184.882812 L 956.824219 1181.253906 L 960.539062 1178.386719 L 963.71875 1175.863281 L 966.371094 1173.261719 L 968.542969 1170.234375 L 970.394531 1166.707031 L 972.117188 1162.6875 L 973.902344 1158.171875 L 975.902344 1153.144531 L 978.125 1147.511719 L 980.546875 1141.175781 L 983.136719 1134.027344 L 985.867188 1125.953125 L 988.699219 1116.984375 L 991.515625 1107.648438 L 994.1875 1098.617188 L 996.582031 1090.550781 L 998.605469 1083.933594 L 1000.300781 1078.539062 L 1001.75 1073.960938 L 1003.027344 1069.789062 L 1004.21875 1065.613281 L 1005.378906 1061.132812 L 1006.472656 1056.445312 L 1007.453125 1051.757812 L 1008.265625 1047.273438 L 1008.859375 1043.203125 L 1009.242188 1039.6875 L 1009.683594 1036.640625 L 1010.523438 1033.914062 L 1012.085938 1031.363281 L 1014.574219 1028.800781 L 1017.660156 1025.851562 L 1020.878906 1022.105469 L 1023.769531 1017.144531 L 1025.863281 1010.558594 L 1026.863281 1002.15625 L 1027.136719 992.648438 L 1027.203125 982.976562 L 1027.59375 974.066406 L 1028.835938 966.863281 L 1031.246094 961.96875 L 1034.300781 958.671875 L 1037.269531 955.925781 L 1039.417969 952.6875 L 1040.214844 948.164062 L 1039.964844 942.527344 L 1039.167969 936.207031 L 1038.324219 929.625 L 1037.941406 923.203125 L 1038.382812 917.289062 L 1039.480469 911.898438 L 1040.9375 906.957031 L 1042.441406 902.40625 L 1043.695312 898.171875 L 1044.480469 894.175781 L 1044.898438 890.273438 L 1045.148438 886.304688 L 1045.417969 882.109375 L 1045.867188 877.46875 L 1046.535156 871.914062 L 1047.429688 864.921875 L 1048.558594 855.960938 L 1049.925781 844.507812 L 1051.484375 830.367188 L 1052.949219 814.714844 L 1053.984375 799.058594 L 1054.242188 784.902344 L 1053.503906 773.386719 L 1052.011719 764.179688 L 1050.121094 756.574219 L 1048.191406 749.871094 L 1046.582031 743.363281 L 1045.554688 736.519531 L 1045.003906 729.472656 L 1044.726562 722.515625 L 1044.523438 715.960938 L 1044.191406 710.097656 L 1043.566406 705.074219 L 1042.621094 700.371094 L 1041.355469 695.320312 L 1039.78125 689.246094 L 1037.921875 681.648438 L 1035.875 672.738281 L 1033.757812 662.886719 L 1031.6875 652.472656 L 1029.785156 641.878906 L 1028.132812 631.4375 L 1026.6875 621.300781 L 1025.363281 611.589844 L 1024.089844 602.417969 L 1022.78125 593.890625 L 1021.292969 586.011719 L 1019.210938 578.304688 L 1016.058594 570.171875 L 1011.351562 561.027344 L 1004.839844 550.5 L 997.214844 539.140625 L 989.378906 527.710938 L 982.253906 516.988281 L 976.753906 507.734375 L 973.460938 500.507812 L 971.628906 494.957031 L 970.191406 490.511719 L 968.066406 486.613281 L 964.1875 482.691406 L 957.863281 478.34375 L 949.960938 473.847656 L 941.738281 469.644531 L 934.445312 466.175781 L 929.046875 463.707031 L 925.320312 461.761719 L 922.765625 459.683594 L 920.875 456.816406 L 919.132812 452.503906 L 917.144531 446.328125 L 914.941406 438.796875 L 912.65625 430.660156 L 910.429688 422.671875 L 908.355469 415.429688 L 906.367188 408.980469 L 904.347656 403.234375 L 902.1875 398.089844 L 899.773438 393.449219 L 897.039062 389.21875 L 894.070312 385.289062 L 890.996094 381.542969 L 887.949219 377.878906 L 885.058594 374.179688 L 882.417969 370.34375 L 879.972656 366.28125 L 877.632812 361.921875 L 875.308594 357.179688 L 872.910156 352.027344 L 870.386719 346.628906 L 867.695312 341.195312 L 864.792969 335.9375 L 861.628906 331.066406 L 858.199219 326.734375 L 854.667969 322.839844 L 851.230469 319.222656 L 848.089844 315.722656 L 845.449219 312.183594 L 843.429688 308.480469 L 841.878906 304.683594 L 840.550781 300.894531 L 839.214844 297.21875 L 837.617188 293.734375 L 835.410156 290.382812 L 832.214844 287.085938 L 827.667969 283.753906 L 821.394531 280.304688 L 813.0625 276.683594 L 802.464844 272.949219 L 789.433594 269.191406 L 773.800781 265.5 L 755.394531 261.964844 L 750.316406 263.957031 "/>
<path style="fill:none;stroke-width:0.75;stroke-linecap:round;stroke-linejoin:round;stroke:rgb(0%,0%,0%);stroke-opacity:1;stroke-miterlimit:10;" d="M 293.25 446.757812 L 275.71875 451.242188 L 260.085938 455.121094 L 248.179688 458.414062 L 241.027344 461.210938 L 236.476562 463.851562 L 231.566406 466.738281 L 224.140625 470.191406 L 215.25 474.140625 L 206.742188 478.429688 L 200.125 482.863281 L 195.542969 487.125 L 192.804688 490.855469 L 191.496094 493.824219 L 190.304688 496.3125 L 187.699219 498.726562 L 182.582031 501.433594 L 175.613281 504.660156 L 167.878906 508.585938 L 160.480469 513.394531 L 154.300781 519.171875 L 149.386719 525.558594 L 145.589844 532.101562 L 142.65625 538.539062 L 139.996094 545.378906 L 136.917969 553.320312 L 132.964844 562.757812 L 128.609375 572.824219 L 124.5625 582.347656 L 121.292969 590.441406 L 118.320312 597.425781 L 114.914062 603.914062 L 110.640625 610.375 L 106.148438 616.742188 L 102.375 622.800781 L 99.972656 628.382812 L 98.457031 633.460938 L 97.066406 638.035156 L 95.046875 642.125 L 91.902344 645.800781 L 88.226562 649.40625 L 84.894531 653.34375 L 82.558594 657.832031 L 81 662.320312 L 79.789062 666.054688 L 78.570312 668.589844 L 77.28125 670.640625 L 75.917969 673.21875 L 74.507812 677.015625 L 73.105469 681.460938 L 71.78125 685.664062 L 70.570312 688.984375 L 69.382812 691.761719 L 68.09375 694.582031 L 66.574219 698.039062 L 64.753906 702.902344 L 62.742188 710.675781 L 60.71875 723.058594 L 58.820312 740.667969 L 57.105469 759.832031 L 55.601562 775.804688 L 54.304688 785.160156 L 53.097656 789.75 L 51.816406 792.742188 L 50.363281 796.605469 L 48.875 801.011719 L 47.554688 804.941406 L 46.5 807.957031 L 45.449219 811.980469 L 44.046875 819.527344 L 42.105469 832.242188 L 40.097656 848.304688 L 38.65625 865.027344 L 38.421875 879.726562 L 39.726562 890.324219 L 41.660156 897.179688 L 43.011719 901.265625 L 42.910156 903.71875 L 41.871094 906.351562 L 40.75 911.148438 L 40.222656 919.457031 L 40.25 930.140625 L 40.601562 941.4375 L 41.066406 951.800781 L 41.480469 960.546875 L 41.703125 967.214844 L 41.703125 971.695312 L 41.949219 975.269531 L 43.03125 979.570312 L 45.324219 985.824219 L 48.371094 993.632812 L 51.492188 1002.191406 L 54.023438 1010.699219 L 55.550781 1018.546875 L 56.703125 1025.933594 L 58.371094 1033.246094 L 61.132812 1040.707031 L 64.359375 1047.886719 L 67.113281 1054.191406 L 68.699219 1059.203125 L 69.378906 1063.234375 L 69.652344 1066.78125 L 69.960938 1070.273438 L 70.542969 1073.894531 L 71.570312 1077.773438 L 73.234375 1081.972656 L 75.800781 1086.351562 L 79.550781 1090.703125 L 84.757812 1094.835938 L 91.46875 1098.628906 L 98.824219 1102.292969 L 105.726562 1106.132812 L 111.332031 1110.292969 L 115.839844 1114.34375 L 119.710938 1117.71875 L 123.28125 1120.09375 L 126.402344 1122.191406 L 128.796875 1124.984375 L 130.367188 1129.097656 L 131.640625 1133.800781 L 133.328125 1138.003906 L 135.921875 1141.019531 L 139.144531 1143.761719 L 142.5 1147.539062 L 145.609375 1153.269531 L 148.503906 1160.339844 L 151.316406 1167.742188 L 154.179688 1174.46875 L 157.183594 1179.785156 L 160.222656 1184.015625 L 163.148438 1187.746094 L 165.902344 1191.46875 L 168.804688 1195.234375 L 172.257812 1198.996094 L 176.503906 1202.828125 L 181.113281 1207.304688 L 185.476562 1213.128906 L 189.230469 1220.640625 L 192.933594 1228.792969 L 197.382812 1236.179688 L 203.046875 1241.761719 L 209.09375 1245.996094 L 214.351562 1249.703125 L 217.984375 1253.613281 L 220.4375 1258.105469 L 222.480469 1263.449219 L 224.878906 1269.929688 L 228.261719 1277.5625 L 232.714844 1285.34375 L 238.179688 1292 L 244.410156 1296.652344 L 250.421875 1299.972656 L 255.039062 1303.011719 L 257.597656 1306.601562 L 259.484375 1310.710938 L 262.601562 1315.078125 L 268.238281 1319.433594 L 275.25 1323.441406 L 281.886719 1326.746094 L 286.808594 1329.132812 L 290.351562 1330.902344 L 293.257812 1332.492188 L 296.273438 1334.335938 L 300.347656 1336.769531 L 307.210938 1339.742188 L 318.785156 1343.101562 L 336.265625 1346.542969 L 357.898438 1349.160156 L 381.179688 1349.886719 L 403.648438 1348.0625 L 422.957031 1344.621094 L 436.777344 1340.890625 L 443.714844 1337.996094 L 446.085938 1336.199219 L 447.117188 1335.5625 L 449.445312 1335.851562 L 453.269531 1335.65625 L 458.191406 1333.292969 L 463.757812 1327.378906 L 469.339844 1317.808594 L 474.257812 1304.785156 L 477.835938 1288.507812 L 479.667969 1269.78125 L 480.40625 1251.761719 L 480.988281 1238.195312 L 482.125 1231.621094 L 483.679688 1229.71875 L 485.292969 1228.949219 L 486.699219 1226.53125 L 487.945312 1222.664062 L 489.171875 1218.300781 L 490.488281 1214.160156 L 491.867188 1209.996094 L 493.257812 1205.320312 L 494.621094 1199.835938 L 495.953125 1193.964844 L 497.277344 1188.316406 L 498.601562 1183.492188 L 499.941406 1179.871094 L 501.289062 1176.898438 L 502.640625 1173.800781 L 503.988281 1170 L 505.332031 1165.726562 L 506.671875 1161.433594 L 508.007812 1157.417969 L 509.34375 1153.464844 L 510.683594 1149.214844 L 512.027344 1144.445312 L 513.375 1139.476562 L 514.722656 1134.757812 L 516.0625 1130.652344 L 517.402344 1127.175781 L 518.742188 1124.265625 L 520.082031 1121.804688 L 521.421875 1119.496094 L 522.765625 1117.003906 L 524.109375 1113.980469 L 525.457031 1110.179688 L 526.800781 1105.714844 L 528.140625 1100.796875 L 529.480469 1095.59375 L 530.816406 1090.1875 L 532.15625 1084.617188 L 533.5 1078.875 L 534.851562 1072.75 L 536.195312 1065.980469 L 537.535156 1058.332031 L 538.871094 1049.742188 L 540.207031 1040.171875 L 541.550781 1029.710938 L 542.898438 1018.886719 L 544.242188 1008.351562 L 545.585938 998.546875 L 546.925781 989.089844 L 548.265625 979.394531 L 549.609375 968.867188 L 550.953125 957.347656 L 552.292969 946.382812 L 553.632812 937.945312 L 554.96875 932.761719 L 556.304688 926.566406 L 557.65625 913.855469 L 559.023438 891.203125 L 560.386719 863.578125 L 561.714844 838.035156 L 562.996094 819.949219 L 564.277344 807.957031 L 565.621094 799.007812 L 567.066406 790.246094 L 568.554688 779.5625 L 570.003906 765.039062 L 571.328125 744.761719 L 572.433594 718.210938 L 573.207031 690.488281 L 573.515625 668.109375 L 573.21875 655.738281 L 572.078125 650.699219 L 569.847656 648.46875 L 566.527344 645.421875 L 563.132812 641.488281 L 560.925781 637.496094 L 560.769531 633.910156 L 561.949219 629.800781 L 563.339844 623.875 L 564.03125 615.191406 L 563.988281 604.214844 L 563.378906 591.738281 L 562.359375 578.546875 L 561.011719 565.308594 L 559.402344 552.675781 L 557.597656 541.300781 L 555.652344 531.707031 L 553.578125 523.929688 L 551.382812 517.890625 L 549.175781 513.632812 L 547.46875 511.734375 L 546.898438 512.894531 L 547.742188 517.34375 L 548.929688 523.375 L 549.058594 528.789062 L 547.109375 531.96875 L 543.664062 533.535156 L 539.695312 534.675781 L 536.144531 536.28125 L 533.804688 538.035156 L 533.429688 539.324219 L 535.425781 539.792969 L 538.804688 540.140625 L 542.226562 541.324219 L 544.351562 544.3125 L 544.28125 549.757812 L 542.871094 557.128906 L 541.410156 565.589844 L 540.878906 574.328125 L 541 582.644531 L 541.179688 589.871094 L 540.925781 595.464844 L 540.160156 599.40625 L 538.921875 601.804688 L 537.214844 602.777344 L 535.023438 602.496094 L 532.300781 601.144531 L 529.074219 598.898438 L 525.621094 595.894531 L 522.285156 592.273438 L 519.410156 588.164062 L 517.210938 583.730469 L 515.375 579.238281 L 513.464844 574.972656 L 511.152344 571.097656 L 508.488281 567.257812 L 505.636719 562.96875 L 502.660156 557.941406 L 499.234375 552.644531 L 494.929688 547.757812 L 489.585938 543.761719 L 484.078125 540.457031 L 479.546875 537.449219 L 476.753906 534.421875 L 475.023438 531.328125 L 473.308594 528.1875 L 470.757812 525.007812 L 467.375 521.722656 L 463.355469 518.25 L 458.894531 514.511719 L 454.175781 510.382812 L 449.277344 505.550781 L 444.246094 499.671875 L 439.019531 492.625 L 433.0625 485.253906 L 425.707031 478.621094 L 416.777344 473.539062 L 407.988281 469.742188 L 401.535156 466.703125 L 398.488281 463.945312 L 395.402344 461.199219 L 387.71875 458.234375 L 372.035156 454.910156 L 349.648438 451.382812 L 323.023438 447.890625 L 294.628906 444.660156 L 293.25 446.757812 "/>
<path style="fill:none;stroke-width:0.75;stroke-linecap:round;stroke-linejoin:round;stroke:rgb(0%,0%,0%);stroke-opacity:1;stroke-miterlimit:10;" d="M 698.515625 504.957031 L 693.820312 506.480469 L 688.484375 507.929688 L 682.964844 509.316406 L 677.707031 510.664062 L 673.082031 511.988281 L 669.089844 513.300781 L 665.648438 514.609375 L 662.675781 515.921875 L 660.0625 517.253906 L 657.644531 518.617188 L 655.230469 520.023438 L 652.628906 521.492188 L 649.652344 523.03125 L 646.179688 524.679688 L 642.394531 526.53125 L 638.542969 528.703125 L 634.871094 531.3125 L 631.582031 534.4375 L 628.667969 537.953125 L 626.085938 541.710938 L 623.769531 545.542969 L 621.675781 549.296875 L 619.738281 552.867188 L 617.839844 556.371094 L 615.859375 559.984375 L 613.675781 563.875 L 611.195312 568.152344 L 608.476562 572.648438 L 605.601562 577.121094 L 602.667969 581.332031 L 599.761719 585.046875 L 596.957031 588.15625 L 594.253906 591.074219 L 591.648438 594.351562 L 589.121094 598.523438 L 586.742188 603.914062 L 584.882812 609.90625 L 583.996094 615.667969 L 584.527344 620.359375 L 586.929688 623.140625 L 591.28125 623.675781 L 596.167969 623.632812 L 599.804688 625.195312 L 600.40625 630.53125 L 596.765625 641.242188 L 590.039062 656.640625 L 581.949219 675.460938 L 574.234375 696.433594 L 568.621094 718.296875 L 566.324219 739.914062 L 566.476562 760.65625 L 567.683594 780.023438 L 568.566406 797.523438 L 568.050781 812.902344 L 566.339844 826.894531 L 563.953125 840.488281 L 561.40625 854.667969 L 559.222656 870.414062 L 557.773438 888.285156 L 556.878906 907.085938 L 556.203125 925.199219 L 555.417969 941 L 554.269531 953.410156 L 552.8125 963.480469 L 551.1875 972.8125 L 549.527344 983 L 547.964844 995.644531 L 546.597656 1011.679688 L 545.375 1029.417969 L 544.210938 1046.519531 L 543.019531 1060.636719 L 541.726562 1070.042969 L 540.351562 1075.496094 L 538.933594 1078.363281 L 537.503906 1080.011719 L 536.105469 1081.824219 L 534.757812 1084.851562 L 533.453125 1088.925781 L 532.160156 1093.558594 L 530.859375 1098.277344 L 529.527344 1102.675781 L 528.167969 1106.707031 L 526.800781 1110.394531 L 525.433594 1113.769531 L 524.082031 1116.867188 L 522.746094 1119.742188 L 521.425781 1122.566406 L 520.105469 1125.542969 L 518.769531 1128.871094 L 517.417969 1132.699219 L 516.054688 1136.96875 L 514.6875 1141.554688 L 513.332031 1146.355469 L 511.996094 1151.242188 L 510.691406 1156.109375 L 509.398438 1160.835938 L 508.089844 1165.300781 L 506.742188 1169.378906 L 505.347656 1173.015625 L 503.925781 1176.359375 L 502.511719 1179.617188 L 501.136719 1183 L 499.84375 1186.71875 L 498.640625 1190.929688 L 497.464844 1195.597656 L 496.234375 1200.636719 L 494.867188 1205.957031 L 493.316406 1211.425781 L 491.675781 1216.722656 L 490.070312 1221.476562 L 488.636719 1225.316406 L 487.496094 1227.875 L 486.703125 1229.132812 L 485.984375 1230.449219 L 484.976562 1233.53125 L 483.332031 1240.089844 L 480.910156 1251.222656 L 478.457031 1265.59375 L 476.941406 1281.257812 L 477.332031 1296.273438 L 480.589844 1308.691406 L 487.269531 1317.09375 L 496.25 1322.183594 L 505.996094 1325.183594 L 514.980469 1327.320312 L 522.101562 1329.628906 L 527.988281 1332.359375 L 533.707031 1335.585938 L 540.328125 1339.367188 L 548.917969 1343.765625 L 560.03125 1348.777344 L 572.214844 1354.105469 L 583.507812 1359.375 L 591.941406 1364.214844 L 596.242188 1368.328125 L 597.882812 1371.6875 L 599.023438 1374.347656 L 601.8125 1376.351562 L 608.421875 1377.75 L 620.328125 1378.5625 L 636.324219 1378.699219 L 654.535156 1378.039062 L 673.070312 1376.460938 L 690.304688 1373.925781 L 705.59375 1370.726562 L 718.546875 1367.234375 L 728.773438 1363.8125 L 735.878906 1360.835938 L 739.757812 1358.582031 L 741.457031 1356.949219 L 742.296875 1355.746094 L 743.609375 1354.785156 L 746.464844 1353.871094 L 750.875 1352.820312 L 756.597656 1351.457031 L 763.394531 1349.59375 L 771.019531 1347.050781 L 779.183594 1343.730469 L 787.398438 1339.902344 L 795.125 1335.917969 L 801.824219 1332.125 L 807.160156 1328.777344 L 811.550781 1325.722656 L 815.625 1322.707031 L 819.996094 1319.476562 L 825.285156 1315.777344 L 831.894531 1311.429688 L 839.332031 1306.578125 L 846.894531 1301.4375 L 853.871094 1296.222656 L 859.738281 1291.113281 L 864.707031 1286.144531 L 869.179688 1281.308594 L 873.550781 1276.601562 L 878.222656 1272.019531 L 883.449219 1267.574219 L 888.917969 1263.335938 L 894.164062 1259.394531 L 898.738281 1255.835938 L 902.335938 1252.660156 L 905.292969 1249.480469 L 908.109375 1245.824219 L 911.277344 1241.226562 L 915.292969 1235.203125 L 920.476562 1227.515625 L 926.429688 1218.828125 L 932.585938 1210.027344 L 938.375 1202.011719 L 943.355469 1195.464844 L 947.644531 1190.242188 L 951.488281 1186.007812 L 955.128906 1182.414062 L 958.8125 1179.117188 L 962.6875 1175.828125 L 966.480469 1172.507812 L 969.824219 1169.164062 L 972.339844 1165.808594 L 973.816406 1162.398438 L 974.628906 1158.65625 L 975.324219 1154.234375 L 976.433594 1148.808594 L 978.492188 1142.027344 L 981.828125 1133.746094 L 985.929688 1124.515625 L 990.066406 1115.085938 L 993.515625 1106.199219 L 995.746094 1098.429688 L 997.035156 1091.6875 L 997.84375 1085.703125 L 998.644531 1080.222656 L 999.90625 1074.980469 L 1001.933594 1069.78125 L 1004.351562 1064.667969 L 1006.632812 1059.753906 L 1008.234375 1055.148438 L 1008.800781 1050.941406 L 1008.632812 1047.117188 L 1008.214844 1043.640625 L 1008.019531 1040.472656 L 1008.53125 1037.582031 L 1010.082031 1034.890625 L 1012.449219 1032.152344 L 1015.273438 1029.082031 L 1018.1875 1025.398438 L 1020.878906 1020.855469 L 1023.238281 1015.421875 L 1025.203125 1009.089844 L 1026.71875 1001.871094 L 1027.71875 993.773438 L 1028.230469 984.929688 L 1028.59375 976.019531 L 1029.230469 967.859375 L 1030.5625 961.265625 L 1032.84375 956.757812 L 1035.667969 953.722656 L 1038.453125 951.246094 L 1040.617188 948.425781 L 1041.585938 944.351562 L 1041.015625 938.410156 L 1039.53125 931.1875 L 1037.988281 923.550781 L 1037.253906 916.378906 L 1037.9375 910.359375 L 1039.703125 905.421875 L 1041.964844 901.3125 L 1044.132812 897.773438 L 1045.625 894.546875 L 1046.046875 891.359375 L 1045.742188 887.847656 L 1045.25 883.636719 L 1045.113281 878.34375 L 1045.730469 871.648438 L 1046.980469 863.46875 L 1048.601562 853.789062 L 1050.339844 842.585938 L 1051.9375 829.839844 L 1053.160156 815.710938 L 1053.878906 801.046875 L 1054.003906 786.886719 L 1053.421875 774.253906 L 1052.113281 763.914062 L 1050.324219 755.539062 L 1048.375 748.53125 L 1046.582031 742.292969 L 1045.265625 736.222656 L 1044.636719 729.871094 L 1044.492188 723.347656 L 1044.515625 716.910156 L 1044.394531 710.816406 L 1043.871094 705.214844 L 1042.925781 699.8125 L 1041.585938 694.207031 L 1039.890625 688.003906 L 1037.871094 680.800781 L 1035.597656 672.382812 L 1033.257812 663.285156 L 1031.089844 654.226562 L 1029.3125 645.925781 L 1028.078125 638.925781 L 1027.203125 633.085938 L 1026.421875 628.078125 L 1025.476562 623.574219 L 1024.101562 619.257812 L 1022.082031 614.878906 L 1019.386719 610.476562 L 1016.03125 606.175781 L 1012.03125 602.09375 L 1007.46875 598.339844 L 1002.683594 595.015625 L 998.085938 592.210938 L 994.074219 590.011719 L 991.0625 588.511719 L 989.171875 587.628906 L 987.421875 586.574219 L 984.554688 584.386719 L 979.3125 580.105469 L 970.890625 573.148438 L 960.308594 564.417969 L 949.046875 555.199219 L 938.582031 546.78125 L 930.394531 540.441406 L 925.472656 537.054688 L 922.867188 535.824219 L 921.144531 535.539062 L 918.871094 535 L 914.976562 533.351562 L 909.835938 531.164062 L 904.191406 529.359375 L 898.78125 528.871094 L 894.351562 530.613281 L 891.445312 535.207031 L 889.828125 541.988281 L 889.074219 549.980469 L 888.757812 558.21875 L 888.519531 565.921875 L 888.308594 573.105469 L 888.140625 579.984375 L 888.03125 586.773438 L 887.996094 593.683594 L 888.0625 600.875 L 888.265625 608.257812 L 888.640625 615.691406 L 889.234375 623.03125 L 890.039062 630.136719 L 890.882812 636.890625 L 891.539062 643.171875 L 891.789062 648.867188 L 891.410156 653.859375 L 890.316406 658.089844 L 888.917969 661.714844 L 887.769531 664.949219 L 887.414062 668.007812 L 888.230469 671.089844 L 889.910156 674.34375 L 891.980469 677.898438 L 893.964844 681.890625 L 895.382812 686.449219 L 895.871094 691.628906 L 895.472656 697.148438 L 894.34375 702.640625 L 892.644531 707.742188 L 890.550781 712.199219 L 888.339844 716.167969 L 886.308594 719.914062 L 884.761719 723.703125 L 883.992188 727.796875 L 884.230469 732.359375 L 885.410156 737.128906 L 887.386719 741.746094 L 890.027344 745.855469 L 893.128906 749.191406 L 896.285156 751.917969 L 899.023438 754.296875 L 900.878906 756.597656 L 901.378906 759.074219 L 900.226562 761.945312 L 897.789062 765.210938 L 894.59375 768.824219 L 891.179688 772.738281 L 887.953125 776.921875 L 884.796875 781.433594 L 881.476562 786.347656 L 877.753906 791.742188 L 873.386719 797.6875 L 868.269531 804.207031 L 862.835938 811.074219 L 857.644531 818.011719 L 853.261719 824.734375 L 850.089844 831.007812 L 847.867188 836.753906 L 846.183594 841.9375 L 844.621094 846.53125 L 842.765625 850.492188 L 840.261719 853.878906 L 837.054688 857.097656 L 833.144531 860.652344 L 828.542969 865.027344 L 823.285156 870.628906 L 817.566406 877.433594 L 811.609375 885.324219 L 805.632812 894.183594 L 799.867188 903.890625 L 794.679688 914.160156 L 791 924.042969 L 789.917969 932.425781 L 792.511719 938.183594 L 799.402344 940.523438 L 809.382812 939.921875 L 820.792969 937.183594 L 831.960938 933.101562 L 841.230469 928.480469 L 847.34375 924.113281 L 850.710938 920.804688 L 852.144531 919.34375 L 852.46875 920.53125 L 852.3125 924.871094 L 851.578125 931.6875 L 849.96875 940.011719 L 847.199219 948.878906 L 842.984375 957.316406 L 837.429688 964.476562 L 832.261719 969.949219 L 829.59375 973.453125 L 831.554688 974.691406 L 839.4375 973.597656 L 851.238281 971.003906 L 864.132812 967.953125 L 875.296875 965.5 L 881.902344 964.695312 L 882.121094 966.269531 L 878.097656 969.722656 L 872.976562 974.230469 L 869.898438 978.96875 L 871.09375 983.242188 L 875.089844 986.824219 L 879.511719 989.613281 L 881.976562 991.511719 L 880.097656 992.40625 L 872.386719 992.3125 L 860.894531 991.691406 L 848.578125 991.105469 L 838.382812 991.132812 L 832.492188 992.199219 L 830.074219 994.203125 L 829.527344 996.902344 L 829.253906 1000.046875 L 827.652344 1003.394531 L 823.59375 1006.746094 L 817.785156 1010.070312 L 811.414062 1013.382812 L 805.65625 1016.695312 L 801.398438 1019.960938 L 798.378906 1022.898438 L 796.027344 1025.175781 L 793.796875 1026.457031 L 791.117188 1026.398438 L 787.644531 1024.8125 L 783.84375 1022.109375 L 780.394531 1018.847656 L 777.972656 1015.574219 L 777.042969 1012.730469 L 777.203125 1010.238281 L 777.832031 1007.914062 L 778.316406 1005.554688 L 778.035156 1002.972656 L 776.601562 1000.011719 L 774.53125 996.6875 L 772.570312 993.050781 L 771.464844 989.160156 L 771.78125 985.070312 L 773.371094 980.882812 L 775.902344 976.707031 L 779.039062 972.644531 L 782.457031 968.808594 L 785.726562 965.296875 L 788.007812 962.203125 L 788.378906 959.625 L 785.902344 957.644531 L 780 956.257812 L 771.511719 955.054688 L 761.621094 953.535156 L 751.515625 951.191406 L 742.386719 947.515625 L 735.152344 942.214844 L 729.652344 935.828125 L 725.457031 929.101562 L 722.136719 922.785156 L 719.328125 917.449219 L 716.914062 912.972656 L 714.84375 909.058594 L 713.0625 905.414062 L 711.523438 901.734375 L 710.148438 897.816406 L 708.769531 893.800781 L 707.199219 889.917969 L 705.238281 886.398438 L 702.804688 883.335938 L 700.238281 880.304688 L 697.984375 876.730469 L 696.484375 872.046875 L 696.179688 865.691406 L 697.304688 857.332031 L 699.265625 847.574219 L 701.242188 837.269531 L 702.425781 827.261719 L 702.238281 818.207031 L 701.042969 810.011719 L 699.425781 802.398438 L 697.984375 795.082031 L 697.308594 787.78125 L 697.796875 780.273438 L 699.058594 772.582031 L 700.515625 764.78125 L 701.582031 756.957031 L 701.84375 749.199219 L 701.5625 741.644531 L 701.164062 734.445312 L 701.070312 727.75 L 701.710938 721.707031 L 703.355469 716.367188 L 705.644531 711.378906 L 708.066406 706.292969 L 710.101562 700.652344 L 711.324219 694.199219 L 711.625 687.433594 L 710.984375 681.039062 L 709.375 675.710938 L 706.777344 672.132812 L 703.351562 670.636719 L 699.984375 670.097656 L 697.753906 669.039062 L 697.738281 665.980469 L 700.652344 659.890625 L 705.78125 651.558594 L 712.042969 642.222656 L 718.371094 633.117188 L 723.683594 625.492188 L 727.203125 620.160156 L 729.320312 616.277344 L 730.726562 612.578125 L 732.105469 607.796875 L 733.964844 600.992188 L 736.101562 592.492188 L 738.128906 582.953125 L 739.65625 573.023438 L 740.296875 563.355469 L 739.828125 554.453125 L 738.667969 546.21875 L 737.394531 538.410156 L 736.589844 530.78125 L 736.375 523.214844 L 735.078125 516.070312 L 730.5625 509.832031 L 720.703125 504.992188 L 703.367188 502.035156 L 698.515625 504.957031 "/>
<path style="fill:none;stroke-width:0.75;stroke-linecap:round;stroke-linejoin:round;stroke:rgb(0%,0%,0%);stroke-opacity:1;stroke-miterlimit:10;" d="M 594.296875 370.035156 L 577.671875 385.390625 L 573.402344 392.21875 L 570.851562 394.320312 L 562.84375 397.609375 L 552.78125 405.890625 L 547.597656 414.605469 L 541.714844 422.480469 L 541.277344 427.03125 L 542.671875 429.746094 L 544.601562 432.210938 L 544.761719 434.667969 L 542.652344 436.859375 L 538.699219 439.429688 L 531.941406 443.582031 L 526.242188 446.171875 L 523.410156 448.425781 L 523.515625 450.902344 L 526.488281 452.921875 L 531.046875 454.199219 L 533.820312 456.164062 L 534.847656 458.835938 L 536.464844 462.1875 L 537.28125 466.203125 L 536.847656 469.816406 L 537.425781 474.074219 L 565.328125 478.851562 L 634.316406 479.554688 L 659.941406 476.167969 L 657.691406 471.964844 L 654.519531 467.566406 L 652.660156 463.597656 L 651.699219 459.738281 L 650.128906 456.988281 L 649.035156 453.746094 L 647.441406 445.210938 L 646.5625 430.214844 L 645.125 421.332031 L 641.695312 415.375 L 633.320312 406.960938 L 629.890625 400.449219 L 628.453125 396.875 L 627.5625 394.355469 L 625.976562 391.882812 L 624.984375 389.335938 L 623.5625 386.523438 L 621.503906 382.65625 L 615.519531 377.632812 L 608.757812 373.59375 L 601.855469 369.683594 L 595.683594 366.929688 L 594.296875 370.035156 "/>
<path style="fill:none;stroke-width:0.75;stroke-linecap:round;stroke-linejoin:round;stroke:rgb(0%,0%,0%);stroke-opacity:1;stroke-miterlimit:10;" d="M 732.019531 272.734375 L 725.984375 276.570312 L 721.9375 279.253906 L 719.222656 281.21875 L 716.5 283.316406 L 712.203125 286.453125 L 705.402344 291.175781 L 697.957031 296.480469 L 692.011719 301.238281 L 688.074219 305.234375 L 686.046875 308.640625 L 685.011719 312.175781 L 683.980469 316.53125 L 682.449219 321.714844 L 680.460938 327.460938 L 679.707031 333.101562 L 681.367188 338.09375 L 682.867188 342.777344 L 681.753906 347.703125 L 679.714844 353.414062 L 678.789062 360.175781 L 678.265625 367.148438 L 677.035156 373.386719 L 675.0625 378.601562 L 672.664062 382.828125 L 670.371094 386.65625 L 668.648438 390.664062 L 667.449219 394.804688 L 666.679688 399.382812 L 666.601562 406.707031 L 667.195312 418.386719 L 667.035156 431.171875 L 664.96875 441.457031 L 662.324219 449.085938 L 660.59375 454.863281 L 659.445312 460.019531 L 658.394531 465.546875 L 658.171875 471.015625 L 659.394531 475.777344 L 661.050781 479.769531 L 662.160156 483.101562 L 663.496094 486.023438 L 665.585938 488.785156 L 666.183594 491.410156 L 664.746094 493.828125 L 670.234375 495.761719 L 689.632812 496.53125 L 712.492188 494.011719 L 726.816406 486.46875 L 731.808594 475.113281 L 730.050781 461.917969 L 726.390625 448.976562 L 725.074219 438.039062 L 725.613281 429.34375 L 726.496094 422.53125 L 726.761719 416.335938 L 725.847656 409.742188 L 724.136719 403.589844 L 722.238281 398.679688 L 720.652344 393.730469 L 720.171875 387.414062 L 722.859375 380.207031 L 729.910156 373.109375 L 737.753906 367.421875 L 742.125 364.066406 L 740.742188 362.160156 L 733.09375 360.523438 L 723.699219 358.546875 L 717.496094 355.90625 L 716.007812 352.890625 L 719.292969 349.769531 L 724.9375 346.257812 L 731.300781 342.167969 L 742.28125 338.335938 L 760.917969 335.816406 L 781.320312 335.519531 L 796.773438 337.878906 L 806.171875 341.617188 L 810.304688 345.347656 L 811.84375 349 L 813.078125 352.683594 L 812.828125 355.988281 L 809.808594 358.539062 L 805.839844 360.640625 L 803.183594 362.675781 L 802.789062 364.71875 L 804.9375 366.824219 L 808.460938 369.347656 L 812.007812 372.542969 L 814.898438 376 L 816.847656 379.378906 L 818.5625 383.25 L 821.226562 388.332031 L 827.046875 395.023438 L 837.039062 403.234375 L 846.421875 411.3125 L 850.632812 417.695312 L 851.761719 422.777344 L 852.863281 427.265625 L 854.199219 431.199219 L 855.53125 434.628906 L 857.386719 438.34375 L 860.257812 443.191406 L 863.675781 449.53125 L 867.148438 457.21875 L 871.078125 464.492188 L 875.675781 469.84375 L 879.53125 474.300781 L 881.574219 479.070312 L 883.730469 483.488281 L 888.507812 486.566406 L 897.765625 487.835938 L 911.8125 487.21875 L 925.480469 485.667969 L 933.691406 484.128906 L 937.292969 482.496094 L 938.398438 480.414062 L 938.292969 477.578125 L 937.664062 473.875 L 935.570312 469.953125 L 931.316406 466.511719 L 926.789062 463.6875 L 923.9375 461.359375 L 922.421875 458.980469 L 921.382812 455.988281 L 920.234375 452.242188 L 918.488281 447.5 L 915.835938 440.664062 L 912.324219 431.1875 L 909.195312 421.625 L 907.523438 414.621094 L 906.550781 410.074219 L 905.3125 407.167969 L 903.875 404.976562 L 902.515625 402.710938 L 901.300781 400.265625 L 900.101562 397.535156 L 898.25 393.773438 L 895.046875 388.328125 L 890.289062 381.597656 L 884.277344 374.273438 L 878.867188 367.191406 L 875.734375 361.050781 L 874.257812 355.847656 L 873.320312 351.34375 L 872.117188 347.050781 L 869.929688 342.457031 L 866.058594 337.171875 L 860.449219 331.144531 L 855.574219 325.5625 L 853.496094 321.550781 L 852.140625 318.699219 L 849.234375 316.171875 L 845.875 312.957031 L 843.300781 308.277344 L 840 302.539062 L 834.558594 296.53125 L 828.6875 291.449219 L 824.339844 288.21875 L 821.300781 286.296875 L 818.796875 284.894531 L 816.003906 283.667969 L 812.394531 282.429688 L 808.636719 281.144531 L 805.453125 279.816406 L 802.539062 278.46875 L 799.621094 277.113281 L 797.570312 275.753906 L 796.148438 274.394531 L 789.554688 273.074219 L 771.582031 271.835938 L 739.992188 270.738281 L 732.019531 272.734375 "/>
</g>
</svg>
