<?xml version="1.0" encoding="UTF-8"?>
<svg xmlns="http://www.w3.org/2000/svg" xmlns:xlink="http://www.w3.org/1999/xlink" width="1428pt" height="1605pt" viewBox="0 0 1428 1605" version="1.1">
<g id="surface269">
<rect x="0" y="0" width="1428" height="1605" style="fill:rgb(100%,100%,100%);fill-opacity:1;stroke:none;"/>
<path style="fill:none;stroke-width:0.75;stroke-linecap:round;stroke-linejoin:round;stroke:rgb(0%,0%,0%);stroke-opacity:1;stroke-miterlimit:10;" d="M 771.128906 258.863281 L 768.1875 259.785156 L 764.441406 260.363281 L 760.03125 260.785156 L 755.085938 261.25 L 749.730469 261.917969 L 744.0625 262.804688 L 738.167969 263.894531 L 732.140625 265.175781 L 726.070312 266.625 L 720.042969 268.261719 L 714.160156 270.21875 L 708.511719 272.667969 L 703.195312 275.769531 L 698.3125 279.699219 L 693.941406 284.503906 L 690.121094 289.800781 L 686.867188 295.082031 L 684.203125 299.855469 L 682.125 303.765625 L 680.515625 307.066406 L 679.238281 310.15625 L 678.144531 313.4375 L 677.097656 317.308594 L 675.980469 322.070312 L 674.761719 327.613281 L 673.441406 333.71875 L 672.015625 340.171875 L 670.476562 346.761719 L 668.839844 353.355469 L 667.183594 360.1875 L 665.605469 367.570312 L 664.195312 375.828125 L 663.007812 385.089844 L 661.941406 394.789062 L 660.859375 404.171875 L 659.613281 412.484375 L 658.066406 418.972656 L 656.101562 423.066406 L 653.734375 424.914062 L 651.007812 424.851562 L 647.964844 423.210938 L 644.648438 420.320312 L 641.136719 416.480469 L 637.683594 411.867188 L 634.578125 406.617188 L 632.101562 400.875 L 630.386719 394.828125 L 628.9375 388.875 L 627.09375 383.476562 L 624.191406 379.074219 L 619.578125 376.125 L 612.84375 374.949219 L 604.601562 375.34375 L 595.714844 376.96875 L 587.039062 379.492188 L 579.441406 382.578125 L 573.542969 385.957031 L 569.011719 389.578125 L 565.285156 393.464844 L 561.785156 397.632812 L 557.949219 402.101562 L 553.417969 406.847656 L 548.675781 411.707031 L 544.425781 416.46875 L 541.371094 420.925781 L 539.960938 424.921875 L 539.660156 428.503906 L 539.691406 431.757812 L 539.277344 434.789062 L 537.632812 437.683594 L 534.269531 440.53125 L 529.859375 443.386719 L 525.375 446.285156 L 521.773438 449.273438 L 520.027344 452.390625 L 520.757812 455.660156 L 523.253906 459.023438 L 526.464844 462.394531 L 529.335938 465.691406 L 531.046875 468.847656 L 531.683594 471.824219 L 531.5625 474.59375 L 530.996094 477.136719 L 530.304688 479.425781 L 529.773438 481.46875 L 529.605469 483.433594 L 529.972656 485.511719 L 531.046875 487.902344 L 533.007812 490.800781 L 535.890625 494.355469 L 539.21875 498.496094 L 542.375 503.089844 L 544.742188 508.019531 L 545.867188 513.136719 L 545.953125 518.242188 L 545.351562 523.109375 L 544.429688 527.515625 L 543.542969 531.242188 L 542.984375 534.148438 L 542.773438 536.472656 L 542.867188 538.53125 L 543.21875 540.640625 L 543.78125 543.125 L 544.480469 546.265625 L 545.109375 550.183594 L 545.4375 554.96875 L 545.226562 560.707031 L 544.300781 567.34375 L 542.710938 574.261719 L 540.550781 580.707031 L 537.933594 585.914062 L 534.960938 589.132812 L 531.738281 589.820312 L 528.386719 588.324219 L 525.035156 585.210938 L 521.8125 581.046875 L 518.84375 576.394531 L 516.191406 571.722656 L 513.679688 567.089844 L 511.074219 562.453125 L 508.132812 557.769531 L 504.617188 552.992188 L 500.363281 548.109375 L 495.464844 543.207031 L 490.089844 538.394531 L 484.410156 533.785156 L 478.605469 529.464844 L 472.945312 525.410156 L 467.710938 521.566406 L 463.191406 517.878906 L 459.667969 514.296875 L 457.28125 510.761719 L 455.605469 507.164062 L 454.058594 503.394531 L 452.066406 499.332031 L 449.054688 494.875 L 444.628906 489.960938 L 439.097656 484.792969 L 432.953125 479.640625 L 426.679688 474.753906 L 420.621094 470.355469 L 414.515625 466.4375 L 407.945312 462.960938 L 400.496094 459.867188 L 391.761719 457.113281 L 381.535156 454.65625 L 370.488281 452.5 L 359.488281 450.660156 L 349.417969 449.144531 L 341.15625 447.96875 L 335.320312 447.117188 L 331.515625 446.476562 L 329.09375 445.902344 L 327.394531 445.25 L 325.792969 444.4375 L 323.769531 443.59375 L 320.820312 442.917969 L 316.449219 442.597656 L 310.15625 442.832031 L 301.636719 443.765625 L 291.359375 445.382812 L 279.980469 447.617188 L 268.167969 450.417969 L 256.578125 453.714844 L 245.75 457.457031 L 235.714844 461.628906 L 226.378906 466.226562 L 217.65625 471.234375 L 209.457031 476.625 L 201.722656 482.230469 L 194.394531 487.867188 L 187.417969 493.347656 L 180.738281 498.484375 L 174.359375 503.128906 L 168.546875 507.285156 L 163.628906 510.992188 L 159.925781 514.292969 L 157.765625 517.230469 L 157.265625 519.882812 L 157.71875 522.476562 L 158.210938 525.273438 L 157.832031 528.542969 L 155.664062 532.539062 L 151.160156 537.417969 L 145.265625 542.871094 L 139.292969 548.472656 L 134.542969 553.800781 L 131.96875 558.554688 L 131.050781 562.953125 L 130.90625 567.324219 L 130.65625 572.011719 L 129.417969 577.351562 L 126.523438 583.601562 L 122.183594 590.730469 L 116.820312 598.609375 L 110.855469 607.128906 L 104.71875 616.167969 L 98.792969 625.566406 L 93.339844 635 L 88.574219 644.089844 L 84.722656 652.46875 L 81.910156 659.867188 L 79.910156 666.402344 L 78.394531 672.3125 L 77.046875 677.816406 L 75.542969 683.140625 L 73.640625 688.441406 L 71.453125 693.578125 L 69.167969 698.328125 L 66.976562 702.480469 L 65.0625 705.816406 L 63.574219 708.269531 L 62.457031 710.335938 L 61.605469 712.667969 L 60.917969 715.910156 L 60.296875 720.566406 L 59.6875 726.578125 L 59.027344 733.742188 L 58.273438 741.851562 L 57.363281 750.703125 L 56.261719 760.058594 L 54.984375 769.519531 L 53.566406 778.648438 L 52.035156 787.023438 L 50.417969 794.199219 L 48.761719 799.914062 L 47.144531 804.554688 L 45.664062 808.675781 L 44.40625 812.828125 L 43.46875 817.570312 L 42.898438 823.304688 L 42.550781 829.832031 L 42.242188 836.800781 L 41.785156 843.863281 L 41.050781 850.742188 L 40.121094 857.464844 L 39.132812 864.136719 L 38.230469 870.863281 L 37.550781 877.738281 L 37.199219 884.863281 L 37.171875 892.296875 L 37.425781 900.09375 L 37.925781 908.308594 L 38.625 916.988281 L 39.46875 926.109375 L 40.328125 935.339844 L 41.046875 944.261719 L 41.476562 952.457031 L 41.542969 959.613281 L 41.457031 965.824219 L 41.507812 971.273438 L 41.980469 976.15625 L 43.160156 980.664062 L 45.207031 984.957031 L 47.726562 989.082031 L 50.195312 993.050781 L 52.097656 996.875 L 52.902344 1000.578125 L 52.320312 1004.191406 L 50.972656 1007.871094 L 49.703125 1011.789062 L 49.359375 1016.125 L 50.570312 1021.015625 L 53.0625 1026.488281 L 56.335938 1032.535156 L 59.898438 1039.148438 L 63.25 1046.316406 L 66.019531 1053.972656 L 68.324219 1061.808594 L 70.410156 1069.457031 L 72.515625 1076.546875 L 74.882812 1082.703125 L 77.730469 1087.6875 L 81.183594 1091.738281 L 85.347656 1095.222656 L 90.316406 1098.5 L 96.105469 1101.875 L 102.371094 1105.394531 L 108.675781 1109.039062 L 114.589844 1112.796875 L 119.679688 1116.648438 L 123.640625 1120.59375 L 126.734375 1124.683594 L 129.347656 1128.988281 L 131.871094 1133.574219 L 134.691406 1138.507812 L 138.085938 1143.832031 L 141.847656 1149.457031 L 145.664062 1155.285156 L 149.21875 1161.203125 L 152.1875 1167.101562 L 154.402344 1172.875 L 156.265625 1178.394531 L 158.324219 1183.550781 L 161.121094 1188.214844 L 165.023438 1192.320312 L 169.648438 1195.984375 L 174.417969 1199.375 L 178.765625 1202.65625 L 182.125 1206 L 184.113281 1209.53125 L 185.144531 1213.257812 L 185.8125 1217.136719 L 186.722656 1221.128906 L 188.480469 1225.207031 L 191.496094 1229.328125 L 195.46875 1233.460938 L 199.90625 1237.566406 L 204.324219 1241.613281 L 208.335938 1245.597656 L 212 1249.675781 L 215.484375 1254.035156 L 218.953125 1258.863281 L 222.570312 1264.351562 L 226.460938 1270.59375 L 230.578125 1277.285156 L 234.828125 1284.027344 L 239.121094 1290.421875 L 243.371094 1296.074219 L 247.511719 1300.710938 L 251.609375 1304.585938 L 255.75 1308.070312 L 260.03125 1311.542969 L 264.511719 1315.285156 L 269.132812 1319.183594 L 273.796875 1323.03125 L 278.417969 1326.621094 L 282.898438 1329.746094 L 287.179688 1332.265625 L 291.324219 1334.332031 L 295.425781 1336.164062 L 299.578125 1337.980469 L 303.875 1340.007812 L 308.640625 1342.355469 L 315.121094 1344.722656 L 324.78125 1346.707031 L 339.101562 1347.890625 L 358.914062 1347.96875 L 382.53125 1347.007812 L 407.617188 1345.160156 L 431.847656 1342.589844 L 452.890625 1339.457031 L 469.046875 1335.96875 L 481.125 1332.535156 L 490.566406 1329.605469 L 498.804688 1327.632812 L 507.28125 1327.078125 L 517.070312 1328.242188 L 527.785156 1330.820312 L 538.675781 1334.359375 L 548.996094 1338.40625 L 557.996094 1342.507812 L 565.148438 1346.316406 L 570.832031 1349.910156 L 575.644531 1353.472656 L 580.183594 1357.195312 L 585.097656 1361.171875 L 591.230469 1365.164062 L 599.476562 1368.835938 L 610.722656 1371.863281 L 625.867188 1373.910156 L 645.277344 1374.734375 L 667.203125 1374.421875 L 689.367188 1373.144531 L 709.5 1371.078125 L 725.328125 1368.386719 L 735.363281 1365.238281 L 741.289062 1361.753906 L 745.574219 1358.042969 L 750.691406 1354.222656 L 758.492188 1350.390625 L 768.347656 1346.597656 L 779.003906 1342.875 L 789.214844 1339.257812 L 797.726562 1335.785156 L 803.6875 1332.460938 L 807.8125 1329.164062 L 811.203125 1325.738281 L 814.96875 1322.03125 L 820.21875 1317.886719 L 827.65625 1313.222656 L 836.410156 1308.226562 L 845.199219 1303.15625 L 852.746094 1298.261719 L 858.136719 1293.742188 L 861.878906 1289.519531 L 864.84375 1285.46875 L 867.902344 1281.445312 L 871.925781 1277.324219 L 877.511719 1273.007812 L 884.148438 1268.582031 L 891.058594 1264.167969 L 897.457031 1259.890625 L 902.558594 1255.875 L 905.828125 1252.199219 L 907.703125 1248.75 L 908.863281 1245.355469 L 909.988281 1241.859375 L 911.761719 1238.09375 L 914.707031 1233.914062 L 918.683594 1229.230469 L 923.40625 1223.976562 L 928.582031 1218.089844 L 933.953125 1211.539062 L 939.394531 1204.488281 L 944.824219 1197.136719 L 950.15625 1189.699219 L 955.300781 1182.375 L 960.167969 1175.371094 L 964.617188 1168.925781 L 968.496094 1163.273438 L 971.660156 1158.648438 L 973.957031 1155.292969 L 975.371094 1153.1875 L 976.382812 1151.324219 L 977.605469 1148.433594 L 979.648438 1143.253906 L 982.9375 1134.886719 L 987.140625 1123.910156 L 991.730469 1111.269531 L 996.1875 1097.914062 L 999.992188 1084.789062 L 1002.777344 1072.695312 L 1004.855469 1061.875 L 1006.691406 1052.425781 L 1008.75 1044.4375 L 1011.5 1038.011719 L 1015.21875 1033.070312 L 1019.4375 1028.84375 L 1023.488281 1024.386719 L 1026.703125 1018.757812 L 1028.617188 1011.269531 L 1029.523438 1002.242188 L 1029.902344 992.253906 L 1030.238281 981.886719 L 1031.023438 971.714844 L 1032.585938 962.25 L 1034.660156 953.707031 L 1036.828125 946.242188 L 1038.671875 940.007812 L 1039.777344 935.148438 L 1039.886719 931.664062 L 1039.421875 928.921875 L 1038.96875 926.140625 L 1039.109375 922.53125 L 1040.265625 917.46875 L 1042.195312 910.988281 L 1044.507812 903.285156 L 1046.792969 894.550781 L 1048.660156 884.980469 L 1049.800781 874.84375 L 1050.289062 864.664062 L 1050.304688 855.050781 L 1050.015625 846.605469 L 1049.597656 839.921875 L 1049.214844 835.355469 L 1048.996094 832.230469 L 1049.0625 829.621094 L 1049.539062 826.597656 L 1050.546875 822.230469 L 1052.113281 815.882812 L 1053.921875 808.054688 L 1055.558594 799.535156 L 1056.609375 791.113281 L 1056.761719 783.402344 L 1056.125 776.3125 L 1054.902344 769.574219 L 1053.296875 762.929688 L 1051.519531 756.101562 L 1049.761719 748.925781 L 1048.167969 741.585938 L 1046.867188 734.363281 L 1045.992188 727.539062 L 1045.671875 721.398438 L 1045.9375 716.121094 L 1046.425781 711.511719 L 1046.679688 707.277344 L 1046.230469 703.117188 L 1044.757812 698.746094 L 1042.488281 693.871094 L 1039.792969 688.203125 L 1037.042969 681.464844 L 1034.597656 673.367188 L 1032.738281 663.769531 L 1031.335938 653.089844 L 1030.179688 641.894531 L 1029.050781 630.753906 L 1027.734375 620.226562 L 1026.070312 610.746094 L 1024.128906 602.152344 L 1022.03125 594.160156 L 1019.914062 586.476562 L 1017.855469 578.890625 L 1015.761719 571.539062 L 1013.5 564.628906 L 1010.9375 558.378906 L 1007.929688 552.996094 L 1004.4375 548.621094 L 1000.757812 545.085938 L 997.285156 542.136719 L 994.410156 539.53125 L 992.527344 537.019531 L 991.820312 534.347656 L 991.679688 531.242188 L 991.285156 527.414062 L 989.820312 522.578125 L 986.699219 516.570312 L 982.28125 509.710938 L 977.152344 502.441406 L 971.902344 495.203125 L 967.125 488.429688 L 963.265625 482.484375 L 960.222656 477.40625 L 957.746094 473.152344 L 955.59375 469.671875 L 953.519531 466.925781 L 951.316406 464.863281 L 948.949219 463.390625 L 946.414062 462.40625 L 943.707031 461.8125 L 940.832031 461.507812 L 937.785156 461.328125 L 934.582031 460.84375 L 931.242188 459.558594 L 927.773438 456.976562 L 924.222656 452.765625 L 920.738281 447.25 L 917.496094 440.929688 L 914.671875 434.289062 L 912.4375 427.820312 L 910.886719 421.90625 L 909.769531 416.511719 L 908.753906 411.484375 L 907.511719 406.683594 L 905.703125 401.953125 L 903.089844 397.136719 L 899.785156 391.996094 L 896 386.273438 L 891.945312 379.714844 L 887.816406 372.207031 L 883.78125 364.152344 L 880.007812 356.109375 L 876.660156 348.617188 L 873.894531 342.222656 L 871.800781 337.316406 L 870.152344 333.640625 L 868.652344 330.769531 L 866.996094 328.285156 L 864.886719 325.765625 L 862.125 322.878906 L 858.964844 319.609375 L 855.765625 316.027344 L 852.878906 312.210938 L 850.550781 308.222656 L 848.578125 304.085938 L 846.636719 299.820312 L 844.414062 295.4375 L 841.589844 290.964844 L 837.914062 286.433594 L 833.414062 281.984375 L 828.191406 277.773438 L 822.332031 273.960938 L 815.945312 270.699219 L 809.042969 268.078125 L 801.367188 265.882812 L 792.574219 263.828125 L 782.320312 261.628906 L 770.265625 259 L 771.128906 258.863281 "/>
<path style="fill:none;stroke-width:0.75;stroke-linecap:round;stroke-linejoin:round;stroke:rgb(0%,0%,0%);stroke-opacity:1;stroke-miterlimit:10;" d="M 311.589844 440.496094 L 309.816406 441.847656 L 306.515625 443.15625 L 298.335938 445.089844 L 283.398438 448.074219 L 265.632812 451.59375 L 250.421875 454.878906 L 241.554688 457.488281 L 236.378906 460.183594 L 230.644531 464.046875 L 221.242188 469.808594 L 209.632812 476.796875 L 198.417969 483.992188 L 190.207031 490.378906 L 186.5 495.210938 L 184.386719 498.882812 L 179.855469 502.054688 L 170.429688 505.308594 L 159.769531 508.878906 L 153.078125 512.914062 L 153.871094 517.410156 L 158.949219 521.773438 L 163.445312 525.257812 L 163.570312 527.414062 L 159.863281 528.984375 L 153.957031 531.003906 L 147.476562 534.515625 L 141.828125 540.179688 L 137.511719 547.167969 L 134.804688 554.273438 L 133.746094 560.5 L 133.429688 565.683594 L 132.691406 569.863281 L 130.6875 573.253906 L 127.746094 576.738281 L 124.503906 581.371094 L 121.375 587.949219 L 117.886719 596.285156 L 113.34375 605.921875 L 107.050781 616.414062 L 98.835938 627.242188 L 90.589844 637.570312 L 84.710938 646.503906 L 82.792969 653.457031 L 83.15625 659.113281 L 83.296875 664.488281 L 81.339844 670.367188 L 77.863281 676.660156 L 74.0625 683.0625 L 71.136719 689.261719 L 69.878906 694.949219 L 69.433594 699.8125 L 68.550781 703.53125 L 66.367188 705.96875 L 63.601562 707.695312 L 61.382812 709.464844 L 60.515625 711.941406 L 60.554688 715.441406 L 60.75 720.203125 L 60.488281 726.371094 L 59.746094 733.726562 L 58.652344 741.957031 L 57.328125 750.753906 L 55.886719 759.835938 L 54.417969 769.054688 L 52.996094 778.285156 L 51.671875 787.285156 L 50.402344 795.347656 L 49.113281 801.644531 L 47.75 805.71875 L 46.332031 808.621094 L 44.886719 811.78125 L 43.476562 816.328125 L 42.265625 822.207031 L 41.457031 829.0625 L 41.242188 836.542969 L 41.648438 844.28125 L 42.054688 851.839844 L 41.652344 858.769531 L 39.976562 864.820312 L 37.816406 870.558594 L 36.292969 876.757812 L 36.207031 883.988281 L 37.078125 892.003906 L 38.113281 900.367188 L 38.695312 908.726562 L 38.949219 917.125 L 39.171875 925.695312 L 39.664062 934.578125 L 40.597656 943.765625 L 41.597656 952.671875 L 42.148438 960.570312 L 41.945312 966.929688 L 41.542969 972.039062 L 41.691406 976.390625 L 42.945312 980.421875 L 45.042969 984.320312 L 47.519531 988.21875 L 49.910156 992.261719 L 51.789062 996.515625 L 52.890625 1000.839844 L 52.996094 1005.03125 L 52.050781 1008.945312 L 50.703125 1012.703125 L 49.78125 1016.484375 L 49.988281 1020.515625 L 51.503906 1025.179688 L 54.390625 1030.914062 L 58.550781 1037.980469 L 63.265625 1046.015625 L 67.652344 1054.488281 L 70.835938 1062.871094 L 72.285156 1070.671875 L 72.867188 1077.542969 L 73.792969 1083.171875 L 76.042969 1087.425781 L 79.671875 1090.882812 L 84.503906 1094.304688 L 90.308594 1098.242188 L 96.691406 1102.398438 L 103.195312 1106.285156 L 109.410156 1109.566406 L 115.058594 1112.558594 L 119.90625 1115.757812 L 123.714844 1119.640625 L 126.414062 1124.496094 L 128.648438 1129.792969 L 131.226562 1134.808594 L 134.722656 1139.074219 L 138.703125 1143.171875 L 142.488281 1147.957031 L 145.585938 1154.015625 L 148.238281 1160.890625 L 150.882812 1167.859375 L 153.949219 1174.203125 L 157.640625 1179.398438 L 161.257812 1183.753906 L 163.878906 1187.765625 L 165.050781 1191.820312 L 166.234375 1195.824219 L 169.359375 1199.5625 L 175.558594 1202.910156 L 182.789062 1206.074219 L 188.207031 1209.332031 L 189.761719 1212.921875 L 188.636719 1216.816406 L 186.792969 1220.933594 L 186.21875 1225.195312 L 188.382812 1229.511719 L 192.789062 1233.8125 L 198.449219 1238.007812 L 204.425781 1242.042969 L 210.015625 1245.925781 L 214.566406 1249.679688 L 217.683594 1253.433594 L 219.925781 1257.710938 L 222.121094 1263.132812 L 224.9375 1270.050781 L 228.527344 1277.789062 L 232.894531 1285.386719 L 238.050781 1291.898438 L 243.859375 1296.675781 L 249.574219 1300.304688 L 254.320312 1303.65625 L 257.539062 1307.421875 L 260.015625 1311.488281 L 262.875 1315.542969 L 266.957031 1319.34375 L 272 1322.898438 L 277.46875 1326.277344 L 282.898438 1329.527344 L 288.136719 1332.515625 L 293.109375 1335.082031 L 297.742188 1337.066406 L 301.953125 1338.421875 L 305.640625 1339.570312 L 308.703125 1341.042969 L 311.765625 1343.191406 L 318.34375 1345.597656 L 332.675781 1347.65625 L 357.195312 1348.851562 L 387.054688 1348.988281 L 415.59375 1347.96875 L 436.15625 1345.679688 L 444.351562 1342.246094 L 444.878906 1338.679688 L 444.710938 1336.214844 L 449.152344 1335.390625 L 456.894531 1333.949219 L 464.949219 1328.921875 L 470.945312 1318.21875 L 474.902344 1303.226562 L 477.433594 1286.207031 L 479.105469 1269.246094 L 480.265625 1253.761719 L 481.21875 1241.003906 L 482.257812 1232.21875 L 483.597656 1228.046875 L 485.125 1226.710938 L 486.644531 1225.8125 L 488.007812 1223.449219 L 489.265625 1219.660156 L 490.519531 1214.960938 L 491.84375 1209.816406 L 493.21875 1204.460938 L 494.601562 1199.074219 L 495.957031 1193.824219 L 497.285156 1188.839844 L 498.609375 1184.234375 L 499.9375 1180.128906 L 501.285156 1176.554688 L 502.640625 1173.230469 L 503.992188 1169.796875 L 505.332031 1165.976562 L 506.664062 1161.839844 L 508 1157.550781 L 509.339844 1153.226562 L 510.6875 1148.84375 L 512.035156 1144.332031 L 513.378906 1139.671875 L 514.722656 1135.074219 L 516.0625 1130.796875 L 517.402344 1127.101562 L 518.742188 1124.148438 L 520.082031 1121.695312 L 521.425781 1119.382812 L 522.765625 1116.894531 L 524.109375 1113.96875 L 525.453125 1110.382812 L 526.796875 1105.980469 L 528.140625 1100.933594 L 529.480469 1095.488281 L 530.824219 1089.90625 L 532.160156 1084.355469 L 533.5 1078.71875 L 534.839844 1072.808594 L 536.1875 1066.382812 L 537.535156 1058.996094 L 538.878906 1050.160156 L 540.21875 1039.671875 L 541.558594 1028.476562 L 542.894531 1017.816406 L 544.238281 1008.535156 L 545.582031 999.910156 L 546.925781 990.828125 L 548.265625 980.167969 L 549.605469 967.46875 L 550.945312 954.890625 L 552.292969 945.25 L 553.640625 940.050781 L 554.992188 935.621094 L 556.328125 926.972656 L 557.648438 910.5625 L 558.96875 888.558594 L 560.3125 864.558594 L 561.691406 841.761719 L 563.078125 821.761719 L 564.441406 805.753906 L 565.742188 794.925781 L 566.976562 789.144531 L 568.246094 782.988281 L 569.6875 769.703125 L 571.335938 745.046875 L 572.828125 714.808594 L 573.691406 687.273438 L 573.585938 668.785156 L 572.691406 657.859375 L 571.316406 651.0625 L 569.773438 644.949219 L 568.308594 636.792969 L 566.953125 626.664062 L 565.675781 615.34375 L 564.445312 603.476562 L 563.183594 591.128906 L 561.804688 578.234375 L 560.265625 564.945312 L 558.71875 552.265625 L 557.371094 541.421875 L 556.332031 533.234375 L 555.394531 526.878906 L 554.269531 521.121094 L 552.667969 514.734375 L 550.394531 507.089844 L 547.671875 499.976562 L 544.808594 495.78125 L 542.183594 496.144531 L 540.453125 499.730469 L 540.328125 504.453125 L 542.15625 508.671875 L 544.820312 512.578125 L 546.832031 516.808594 L 547.074219 521.78125 L 545.910156 527.042969 L 544.066406 531.910156 L 542.28125 535.710938 L 541.183594 538.015625 L 541.03125 539.382812 L 541.972656 540.628906 L 543.953125 542.460938 L 546.082031 545.171875 L 547.238281 548.949219 L 546.65625 553.925781 L 544.910156 559.96875 L 542.914062 566.882812 L 541.347656 574.332031 L 539.980469 581.4375 L 538.335938 587.171875 L 535.945312 590.519531 L 532.527344 590.785156 L 528.535156 588.605469 L 524.605469 584.9375 L 521.242188 580.625 L 518.417969 576.015625 L 515.976562 571.328125 L 513.734375 566.746094 L 511.382812 562.226562 L 508.59375 557.699219 L 505.039062 553.078125 L 500.503906 548.308594 L 495.230469 543.445312 L 489.589844 538.578125 L 483.910156 533.789062 L 478.386719 529.214844 L 473.179688 524.996094 L 468.429688 521.214844 L 464.144531 517.742188 L 460.324219 514.382812 L 456.96875 510.96875 L 454.140625 507.402344 L 451.925781 503.617188 L 450.398438 499.53125 L 449.351562 495.082031 L 447.378906 490.226562 L 442.796875 484.9375 L 434.660156 479.308594 L 425.058594 473.917969 L 416.839844 469.46875 L 411.886719 466.386719 L 408.261719 464.011719 L 403.0625 461.417969 L 394.164062 457.964844 L 382.492188 454.160156 L 369.757812 450.808594 L 357.660156 448.707031 L 347.644531 448.324219 L 340.113281 448.789062 L 335.214844 448.894531 L 332.796875 447.789062 L 331.539062 446.042969 L 329.816406 444.574219 L 326.417969 444.03125 L 321.714844 443.914062 L 316.5 443.453125 L 311.550781 441.875 L 311.589844 440.496094 "/>
<path style="fill:none;stroke-width:0.75;stroke-linecap:round;stroke-linejoin:round;stroke:rgb(0%,0%,0%);stroke-opacity:1;stroke-miterlimit:10;" d="M 698.664062 504.96875 L 693.65625 506.480469 L 688.289062 507.921875 L 682.890625 509.304688 L 677.785156 510.65625 L 673.234375 511.992188 L 669.242188 513.3125 L 665.753906 514.628906 L 662.714844 515.941406 L 660.039062 517.253906 L 657.574219 518.59375 L 655.125 519.980469 L 652.519531 521.441406 L 649.566406 523 L 646.148438 524.699219 L 642.429688 526.605469 L 638.632812 528.816406 L 634.976562 531.414062 L 631.648438 534.457031 L 628.664062 537.859375 L 626.011719 541.519531 L 623.660156 545.324219 L 621.597656 549.164062 L 619.769531 552.949219 L 618.003906 556.699219 L 616.105469 560.460938 L 613.871094 564.273438 L 611.171875 568.175781 L 608.171875 572.164062 L 605.105469 576.21875 L 602.203125 580.339844 L 599.628906 584.496094 L 597.269531 588.640625 L 594.945312 592.699219 L 592.46875 596.617188 L 589.660156 600.328125 L 586.523438 603.828125 L 583.820312 607.390625 L 582.496094 611.339844 L 583.496094 616.007812 L 587.335938 621.519531 L 592.789062 627.195312 L 598.199219 632.140625 L 601.90625 635.472656 L 602.257812 636.292969 L 598.222656 634.390625 L 591.292969 632.21875 L 583.582031 632.90625 L 577.207031 639.578125 L 573.75 654.324219 L 572.621094 675.082031 L 572.699219 698.757812 L 572.855469 722.25 L 572.207031 743.105469 L 570.8125 761.453125 L 568.976562 778.058594 L 567 793.695312 L 565.1875 809.125 L 563.753906 824.976562 L 562.613281 841.246094 L 561.597656 857.789062 L 560.535156 874.453125 L 559.300781 891.070312 L 557.914062 907.335938 L 556.441406 922.921875 L 554.949219 937.503906 L 553.5 950.753906 L 552.144531 962.566406 L 550.851562 973.738281 L 549.589844 985.292969 L 548.3125 998.253906 L 546.996094 1013.234375 L 545.644531 1029.226562 L 544.269531 1044.820312 L 542.890625 1058.601562 L 541.523438 1069.160156 L 540.179688 1075.570312 L 538.851562 1078.875 L 537.527344 1080.609375 L 536.203125 1082.300781 L 534.863281 1085.148438 L 533.515625 1089.039062 L 532.164062 1093.511719 L 530.8125 1098.121094 L 529.472656 1102.492188 L 528.132812 1106.546875 L 526.796875 1110.300781 L 525.457031 1113.75 L 524.117188 1116.910156 L 522.769531 1119.808594 L 521.421875 1122.632812 L 520.074219 1125.589844 L 518.734375 1128.890625 L 517.398438 1132.695312 L 516.066406 1136.941406 L 514.734375 1141.519531 L 513.394531 1146.316406 L 512.046875 1151.222656 L 510.683594 1156.117188 L 509.316406 1160.875 L 507.960938 1165.355469 L 506.628906 1169.429688 L 505.328125 1173.019531 L 504.035156 1176.308594 L 502.726562 1179.535156 L 501.378906 1182.9375 L 499.976562 1186.71875 L 498.542969 1190.914062 L 497.121094 1195.523438 L 495.75 1200.546875 L 494.464844 1205.976562 L 493.285156 1211.710938 L 492.136719 1217.25 L 490.9375 1221.980469 L 489.59375 1225.296875 L 488.039062 1226.925781 L 486.335938 1227.914062 L 484.558594 1229.640625 L 482.789062 1233.488281 L 481.113281 1240.835938 L 479.753906 1252.515625 L 479.519531 1267.191406 L 481.367188 1282.976562 L 486.246094 1297.984375 L 494.734375 1310.683594 L 505.859375 1320.925781 L 518.273438 1328.925781 L 530.632812 1334.878906 L 541.796875 1339.058594 L 551.46875 1341.976562 L 559.5625 1344.199219 L 565.984375 1346.300781 L 570.652344 1348.847656 L 573.761719 1352.261719 L 576.632812 1356.320312 L 580.875 1360.660156 L 588.089844 1364.902344 L 599.4375 1368.710938 L 614.296875 1371.855469 L 631.601562 1374.140625 L 650.28125 1375.359375 L 669.261719 1375.320312 L 687.5625 1373.917969 L 704.507812 1371.429688 L 719.519531 1368.226562 L 732 1364.675781 L 741.636719 1361.09375 L 749.140625 1357.523438 L 755.5 1353.960938 L 761.703125 1350.386719 L 768.726562 1346.789062 L 777.21875 1343.167969 L 786.453125 1339.546875 L 795.367188 1335.960938 L 802.890625 1332.453125 L 808.332031 1329.015625 L 812.453125 1325.535156 L 816.398438 1321.839844 L 821.300781 1317.78125 L 827.957031 1313.25 L 835.828125 1308.390625 L 844.039062 1303.386719 L 851.703125 1298.445312 L 857.949219 1293.746094 L 862.222656 1289.433594 L 865.273438 1285.382812 L 868.171875 1281.410156 L 871.992188 1277.335938 L 877.492188 1273.027344 L 884.152344 1268.578125 L 891.128906 1264.125 L 897.585938 1259.800781 L 902.6875 1255.75 L 905.855469 1252.0625 L 907.605469 1248.625 L 908.707031 1245.277344 L 909.9375 1241.855469 L 911.941406 1238.207031 L 914.804688 1234.167969 L 918.488281 1229.589844 L 922.945312 1224.320312 L 928.101562 1218.253906 L 933.734375 1211.535156 L 939.589844 1204.355469 L 945.410156 1196.910156 L 950.945312 1189.386719 L 955.980469 1182.003906 L 960.460938 1175.035156 L 964.378906 1168.777344 L 967.726562 1163.53125 L 970.515625 1159.453125 L 972.882812 1156.1875 L 974.992188 1153.242188 L 977.007812 1150.117188 L 979.089844 1146.320312 L 981.386719 1141.371094 L 983.980469 1134.800781 L 986.925781 1126.164062 L 990.292969 1115.003906 L 994.085938 1101.226562 L 998.082031 1086.128906 L 1002 1071.378906 L 1005.566406 1058.632812 L 1008.582031 1049.125 L 1011.171875 1042.375 L 1013.539062 1037.484375 L 1015.886719 1033.550781 L 1018.417969 1029.671875 L 1021.253906 1025.054688 L 1024.199219 1019.367188 L 1026.976562 1012.378906 L 1029.308594 1003.871094 L 1030.996094 993.785156 L 1032.167969 982.738281 L 1033.035156 971.515625 L 1033.804688 960.910156 L 1034.691406 951.703125 L 1035.832031 944.484375 L 1037.097656 939.042969 L 1038.28125 934.957031 L 1039.1875 931.816406 L 1039.691406 929.183594 L 1039.976562 926.515625 L 1040.296875 923.257812 L 1040.914062 918.839844 L 1042.089844 912.707031 L 1043.957031 904.5 L 1046.183594 894.734375 L 1048.316406 884.121094 L 1049.898438 873.382812 L 1050.59375 863.183594 L 1050.574219 853.964844 L 1050.128906 846.105469 L 1049.546875 840 L 1049.085938 835.816406 L 1048.867188 832.875 L 1048.984375 830.289062 L 1049.523438 827.15625 L 1050.578125 822.59375 L 1052.152344 815.996094 L 1053.9375 807.917969 L 1055.550781 799.214844 L 1056.597656 790.722656 L 1056.785156 783.097656 L 1056.195312 776.195312 L 1055.007812 769.671875 L 1053.398438 763.1875 L 1051.546875 756.402344 L 1049.640625 749.09375 L 1047.902344 741.542969 L 1046.566406 734.148438 L 1045.867188 727.316406 L 1045.921875 721.34375 L 1046.390625 716.125 L 1046.828125 711.464844 L 1046.773438 707.160156 L 1045.890625 702.984375 L 1044.285156 698.621094 L 1042.183594 693.730469 L 1039.804688 687.96875 L 1037.367188 681 L 1035.0625 672.664062 L 1032.972656 663.542969 L 1031.144531 654.398438 L 1029.621094 645.988281 L 1028.417969 638.898438 L 1027.40625 632.992188 L 1026.414062 627.953125 L 1025.285156 623.464844 L 1023.84375 619.214844 L 1021.941406 614.949219 L 1019.449219 610.660156 L 1016.25 606.398438 L 1012.21875 602.222656 L 1007.378906 598.222656 L 1002.265625 594.632812 L 997.542969 591.726562 L 993.878906 589.765625 L 991.660156 588.835938 L 990.109375 588.261719 L 988.171875 587.175781 L 984.785156 584.710938 L 978.890625 580 L 969.890625 572.574219 L 959.015625 563.53125 L 947.972656 554.371094 L 938.449219 546.585938 L 931.703125 541.304688 L 927.242188 538.164062 L 924.121094 536.4375 L 921.40625 535.390625 L 918.152344 534.292969 L 913.703125 532.648438 L 908.496094 530.90625 L 903.242188 529.753906 L 898.652344 529.875 L 895.285156 531.765625 L 893.0625 535.175781 L 891.742188 539.675781 L 891.089844 544.820312 L 890.863281 550.183594 L 890.839844 555.371094 L 890.863281 560.210938 L 890.789062 564.582031 L 890.480469 568.355469 L 889.84375 571.5625 L 889.003906 574.835938 L 888.132812 578.96875 L 887.410156 584.742188 L 886.964844 592.65625 L 886.71875 602.054688 L 886.554688 611.980469 L 886.34375 621.484375 L 885.96875 629.617188 L 885.363281 635.734375 L 884.683594 640.421875 L 884.140625 644.566406 L 883.945312 649.066406 L 884.261719 654.601562 L 885.042969 661.03125 L 886.1875 668.015625 L 887.605469 675.207031 L 889.1875 682.257812 L 890.808594 688.890625 L 892.183594 695.101562 L 892.984375 700.945312 L 892.902344 706.484375 L 891.734375 711.789062 L 889.796875 716.957031 L 887.523438 722.089844 L 885.355469 727.300781 L 883.628906 732.679688 L 882.273438 738.273438 L 881.109375 744.121094 L 879.964844 750.253906 L 878.671875 756.710938 L 877.089844 763.476562 L 875.242188 770.34375 L 873.199219 777.050781 L 871.015625 783.339844 L 868.75 789.035156 L 866.402344 794.320312 L 863.964844 799.457031 L 861.433594 804.710938 L 858.796875 810.347656 L 856.085938 816.492188 L 853.507812 822.726562 L 851.292969 828.496094 L 849.683594 833.242188 L 848.78125 836.628906 L 848.144531 839.210938 L 847.191406 841.761719 L 845.347656 845.058594 L 842.191406 849.65625 L 837.960938 855.300781 L 833.066406 861.515625 L 827.902344 867.828125 L 822.882812 873.769531 L 818.324219 878.960938 L 814.257812 883.441406 L 810.632812 887.335938 L 807.394531 890.777344 L 804.480469 893.933594 L 801.761719 897.117188 L 799.105469 900.675781 L 796.367188 904.964844 L 793.40625 910.328125 L 790.265625 916.894531 L 787.6875 923.863281 L 786.597656 930.214844 L 787.921875 934.925781 L 792.269531 937.234375 L 798.953125 937.390625 L 806.980469 935.914062 L 815.347656 933.316406 L 823.054688 930.109375 L 829.359375 926.761719 L 834.566406 923.554688 L 839.230469 920.730469 L 843.910156 918.527344 L 848.949219 917.160156 L 853.839844 916.746094 L 857.855469 917.394531 L 860.273438 919.195312 L 860.628906 922.148438 L 859.535156 925.839844 L 857.863281 929.738281 L 856.488281 933.332031 L 856.28125 936.09375 L 857.882812 937.691406 L 860.964844 938.523438 L 864.980469 939.179688 L 869.363281 940.257812 L 873.585938 942.238281 L 877.257812 945.195312 L 880.007812 949.109375 L 881.472656 953.953125 L 881.28125 959.695312 L 879.238281 966.183594 L 875.765625 972.753906 L 871.46875 978.601562 L 866.9375 982.9375 L 862.664062 985.203125 L 858.714844 985.832031 L 855.042969 985.5 L 851.609375 984.890625 L 848.40625 984.570312 L 845.539062 984.707031 L 843.140625 985.355469 L 841.351562 986.574219 L 840.304688 988.421875 L 840.007812 990.914062 L 839.941406 993.925781 L 839.445312 997.285156 L 837.871094 1000.820312 L 834.769531 1004.382812 L 830.492188 1007.90625 L 825.597656 1011.332031 L 820.652344 1014.621094 L 816.203125 1017.714844 L 812.652344 1020.574219 L 809.730469 1023.195312 L 807.011719 1025.582031 L 804.066406 1027.742188 L 800.582031 1029.632812 L 796.722656 1031.015625 L 792.761719 1031.613281 L 788.972656 1031.140625 L 785.578125 1029.402344 L 782.574219 1026.582031 L 779.898438 1022.9375 L 777.492188 1018.738281 L 775.296875 1014.246094 L 773.242188 1009.703125 L 771.25 1005.261719 L 769.238281 1001.039062 L 767.125 997.164062 L 764.855469 993.691406 L 762.496094 990.449219 L 760.136719 987.1875 L 757.878906 983.671875 L 755.816406 979.65625 L 754 974.984375 L 752.320312 969.808594 L 750.617188 964.378906 L 748.738281 958.921875 L 746.550781 953.652344 L 744.003906 948.648438 L 741.074219 943.953125 L 737.738281 939.617188 L 733.972656 935.679688 L 729.816406 932.148438 L 725.589844 928.847656 L 721.675781 925.5625 L 718.453125 922.070312 L 716.179688 918.222656 L 714.617188 914.132812 L 713.394531 909.972656 L 712.140625 905.921875 L 710.570312 902.023438 L 708.730469 897.765625 L 706.753906 892.507812 L 704.769531 885.597656 L 702.914062 876.394531 L 701.289062 864.585938 L 699.875 851.179688 L 698.632812 837.515625 L 697.515625 824.9375 L 696.511719 814.46875 L 695.707031 805.828125 L 695.222656 798.433594 L 695.171875 791.679688 L 695.675781 784.976562 L 696.742188 777.859375 L 697.945312 770.378906 L 698.75 762.714844 L 698.628906 755.042969 L 697.285156 747.546875 L 695.394531 740.390625 L 693.867188 733.742188 L 693.617188 727.765625 L 695.261719 722.570312 L 698.230469 718.039062 L 701.667969 713.996094 L 704.714844 710.265625 L 706.507812 706.671875 L 706.484375 703.105469 L 705.234375 699.703125 L 703.652344 696.675781 L 702.628906 694.21875 L 702.808594 692.449219 L 703.863281 691.105469 L 705.234375 689.832031 L 706.347656 688.273438 L 706.636719 686.070312 L 705.78125 682.882812 L 704.433594 678.410156 L 703.5 672.355469 L 703.882812 664.433594 L 706.1875 654.625 L 709.851562 644.046875 L 714.027344 634.082031 L 717.855469 626.117188 L 720.679688 621.097656 L 722.65625 618.175781 L 724.128906 616.050781 L 725.449219 613.433594 L 726.972656 609.027344 L 728.933594 601.945312 L 731.136719 592.9375 L 733.265625 583.167969 L 735.007812 573.789062 L 736.125 565.691406 L 736.625 558.691406 L 736.589844 552.335938 L 736.101562 546.164062 L 735.234375 539.726562 L 734.078125 532.742188 L 732.757812 525.664062 L 731.40625 519.113281 L 730.148438 513.71875 L 728.910156 509.9375 L 726.800781 507.507812 L 722.71875 506.007812 L 715.558594 505.003906 L 704.222656 504.078125 L 698.664062 504.96875 "/>
<path style="fill:none;stroke-width:0.75;stroke-linecap:round;stroke-linejoin:round;stroke:rgb(0%,0%,0%);stroke-opacity:1;stroke-miterlimit:10;" d="M 593.183594 370.726562 L 577.21875 379.90625 L 577.03125 386.105469 L 574.480469 389.675781 L 574.433594 392.015625 L 571.714844 394.136719 L 561.019531 396.898438 L 553.027344 400.96875 L 552.863281 405.472656 L 547.734375 410.355469 L 547.363281 415.808594 L 537.320312 421.699219 L 538.671875 426.363281 L 540.644531 429.714844 L 541.425781 432.316406 L 542.546875 434.6875 L 539.472656 437.039062 L 534.164062 439.742188 L 526.164062 443.105469 L 523.410156 446.136719 L 520.765625 449.273438 L 520.773438 452.753906 L 523.414062 455.960938 L 523.429688 458.835938 L 526.296875 461.765625 L 525.613281 465.285156 L 532.28125 469.640625 L 530.496094 474.273438 L 540.8125 478.039062 L 651.160156 478.730469 L 658.113281 476.09375 L 654.882812 471.582031 L 654.9375 466.296875 L 652.304688 461.371094 L 652.230469 456.507812 L 649.609375 451.183594 L 649.578125 445.21875 L 652.328125 439.921875 L 651.972656 435.15625 L 650.3125 430.425781 L 648.609375 425.472656 L 647.644531 420.585938 L 646.558594 416.128906 L 641.660156 412.324219 L 638.769531 409.238281 L 633.5625 405.796875 L 633.398438 401.644531 L 628.191406 396.488281 L 628.050781 390.867188 L 625.488281 385.789062 L 625.367188 381.125 L 620.109375 376.996094 L 617.375 373.394531 L 609.285156 369.914062 L 593.246094 366.800781 L 593.183594 370.726562 "/>
<path style="fill:none;stroke-width:0.75;stroke-linecap:round;stroke-linejoin:round;stroke:rgb(0%,0%,0%);stroke-opacity:1;stroke-miterlimit:10;" d="M 732.734375 271.367188 L 730.164062 272.707031 L 727.714844 274.066406 L 724.785156 275.984375 L 720.429688 279.175781 L 713.953125 284.128906 L 706.03125 290.316406 L 697.632812 297.097656 L 689.5 304.386719 L 682.382812 311.964844 L 677.210938 318.488281 L 674.53125 323.128906 L 673.132812 328.253906 L 671.699219 336.242188 L 670.289062 346.320312 L 669.152344 356.972656 L 667.953125 366.898438 L 666.226562 375.066406 L 663.617188 381.324219 L 660.351562 385.988281 L 658.917969 390.363281 L 661.03125 396.394531 L 663.019531 407.585938 L 661.398438 426.039062 L 658.78125 446.734375 L 658.339844 463.839844 L 659.421875 475.429688 L 660.738281 481.261719 L 662.257812 483.96875 L 664.050781 486.3125 L 665.300781 488.734375 L 665.527344 491.121094 L 666.457031 493.488281 L 671.003906 495.601562 L 684.632812 496.121094 L 709.15625 493.808594 L 729.140625 488.917969 L 730.851562 482.324219 L 724.519531 475.957031 L 722.703125 471.273438 L 723.300781 466.90625 L 721.929688 461.386719 L 719.726562 455.796875 L 718.542969 451.457031 L 717.558594 448.113281 L 715.800781 445.230469 L 714.335938 442.6875 L 714.464844 440.449219 L 716.378906 438.394531 L 719.574219 436.359375 L 721.867188 434.058594 L 721.492188 431.199219 L 720.015625 427.570312 L 719.128906 422.824219 L 717.726562 415.921875 L 714.480469 406.558594 L 710.0625 397.96875 L 705.742188 393.109375 L 703.257812 390.308594 L 703.730469 387.289062 L 705.363281 384.011719 L 706.285156 380.816406 L 707.328125 377.332031 L 709.984375 373.277344 L 715.699219 369.484375 L 724.554688 366.753906 L 731.214844 364.671875 L 730.597656 362.640625 L 724.082031 360.585938 L 715.019531 358.484375 L 708.222656 356.035156 L 707.535156 353.003906 L 711.484375 349.722656 L 717.609375 346.53125 L 724.761719 343.179688 L 731.921875 339.371094 L 737.210938 335.183594 L 739.785156 330.820312 L 743.710938 326.550781 L 751.59375 322.488281 L 755.300781 318.070312 L 748.976562 312.980469 L 746.703125 308.636719 L 761.359375 306.503906 L 781.144531 306.570312 L 791.707031 308.324219 L 793.140625 310.746094 L 789.167969 313.015625 L 783.507812 315.542969 L 779.484375 318.875 L 778.847656 322.8125 L 782.519531 326.992188 L 789.722656 331.191406 L 799.101562 335.257812 L 808.695312 339.140625 L 816.398438 342.835938 L 820.859375 346.347656 L 823.792969 349.75 L 826.667969 353.070312 L 827.007812 356.050781 L 822.683594 358.480469 L 816.964844 360.617188 L 813.671875 362.726562 L 813.386719 364.605469 L 815.589844 366.207031 L 818.585938 368.597656 L 820.925781 372.765625 L 823.355469 378.296875 L 826.800781 384.324219 L 830.785156 389.566406 L 834.601562 393.179688 L 838.078125 396.425781 L 841.230469 400.546875 L 844.347656 404.667969 L 847.628906 407.90625 L 850.625 411.5625 L 853.097656 417.058594 L 856.296875 424.199219 L 861.09375 432.132812 L 865.324219 439.050781 L 867.035156 443.542969 L 868.109375 446.78125 L 870.585938 450.15625 L 873.28125 453.417969 L 874.734375 456.179688 L 875.539062 459.105469 L 876.722656 462.816406 L 878.960938 466.648438 L 882.449219 469.988281 L 885.84375 473.722656 L 887.894531 478.613281 L 889.21875 483.457031 L 891.449219 486.769531 L 898.355469 488.023438 L 912.066406 487.21875 L 926.09375 485.582031 L 933.847656 484.246094 L 937.003906 482.726562 L 938.613281 480.210938 L 938.917969 476.105469 L 937.507812 470.171875 L 934.0625 463.289062 L 928.695312 456.5 L 923.128906 450.402344 L 919.046875 445.3125 L 916.367188 440.953125 L 914.570312 436.832031 L 913.214844 432.167969 L 911.925781 426.503906 L 910.613281 420.925781 L 909.261719 416.574219 L 907.910156 413.25 L 906.574219 410.449219 L 905.238281 407.851562 L 903.878906 405.234375 L 902.53125 402.582031 L 901.230469 399.9375 L 899.902344 397.324219 L 898.492188 394.738281 L 897.132812 392.085938 L 895.714844 389.066406 L 892.945312 384.601562 L 887.980469 377.84375 L 882.890625 369.539062 L 879.792969 360.945312 L 878.121094 353.691406 L 876.824219 348.984375 L 875.6875 345.941406 L 874.621094 343.382812 L 873.207031 341 L 871.28125 338.660156 L 870.015625 335.957031 L 869.628906 332.109375 L 865.195312 325.027344 L 852.917969 313.539062 L 838.628906 301.414062 L 828.886719 292.710938 L 823.570312 287.714844 L 820.851562 285.574219 L 818.847656 284.722656 L 816.140625 283.726562 L 813.179688 282.476562 L 810.640625 281.160156 L 808.132812 279.824219 L 805.160156 278.476562 L 801.78125 277.117188 L 798.234375 275.75 L 794.851562 274.390625 L 790.082031 273.058594 L 774.703125 271.824219 L 737.589844 270.757812 L 732.734375 271.367188 "/>
<path style="fill:none;stroke-width:0.75;stroke-linecap:round;stroke-linejoin:round;stroke:rgb(0%,0%,0%);stroke-opacity:1;stroke-miterlimit:10;" d="M 1000.863281 542.15625 L 1001.917969 552.894531 L 1003.1875 555.578125 L 1004.476562 563.628906 L 1005.832031 566.3125 L 1007.105469 571.679688 L 1008.476562 574.363281 L 1009.984375 577.046875 L 1011.996094 579.734375 L 1014.429688 579.734375 L 1017.046875 582.417969 L 1019.765625 590.46875 L 1022.25 590.46875 L 1022.914062 587.785156 L 1021.984375 585.101562 L 1020.210938 585.101562 L 1018.761719 582.417969 L 1018.460938 577.046875 L 1018.75 574.363281 L 1018.121094 571.679688 L 1016.121094 566.3125 L 1013.652344 552.894531 L 1010.984375 547.523438 L 1008.5 544.839844 L 1005.554688 542.15625 L 1000.863281 542.15625 "/>
</g>
</svg>
