<?xml version="1.0" encoding="UTF-8"?>
<svg xmlns="http://www.w3.org/2000/svg" xmlns:xlink="http://www.w3.org/1999/xlink" width="1428pt" height="1605pt" viewBox="0 0 1428 1605" version="1.1">
<g id="surface274">
<rect x="0" y="0" width="1428" height="1605" style="fill:rgb(100%,100%,100%);fill-opacity:1;stroke:none;"/>
<path style="fill:none;stroke-width:0.75;stroke-linecap:round;stroke-linejoin:round;stroke:rgb(0%,0%,0%);stroke-opacity:1;stroke-miterlimit:10;" d="M 762.050781 240.707031 L 746.15625 243.871094 L 732.855469 247.304688 L 722.039062 250.84375 L 713.601562 254.332031 L 707.371094 257.640625 L 702.910156 260.792969 L 699.707031 263.847656 L 697.253906 266.867188 L 695.042969 269.902344 L 692.660156 273.011719 L 690.109375 276.242188 L 687.480469 279.621094 L 684.875 283.191406 L 682.382812 286.992188 L 680.085938 291.046875 L 677.960938 295.363281 L 675.972656 299.933594 L 674.082031 304.761719 L 672.25 309.835938 L 670.441406 315.152344 L 668.671875 320.675781 L 666.953125 326.367188 L 665.304688 332.1875 L 663.742188 338.097656 L 662.292969 344.042969 L 661.003906 349.886719 L 659.9375 355.476562 L 659.152344 360.660156 L 658.707031 365.285156 L 658.617188 369.269531 L 658.738281 372.828125 L 658.878906 376.253906 L 658.847656 379.828125 L 658.457031 383.84375 L 657.566406 388.460938 L 656.246094 393.355469 L 654.617188 398.082031 L 652.796875 402.183594 L 650.910156 405.21875 L 649.042969 406.824219 L 647.167969 407.011719 L 645.226562 405.871094 L 643.15625 403.503906 L 640.894531 400.007812 L 638.351562 395.550781 L 635.296875 390.585938 L 631.480469 385.640625 L 626.636719 381.238281 L 620.511719 377.90625 L 613 376.042969 L 604.644531 375.550781 L 596.140625 376.207031 L 588.1875 377.785156 L 581.476562 380.070312 L 576.496094 382.859375 L 572.878906 386.070312 L 570.050781 389.644531 L 567.4375 393.53125 L 564.457031 397.667969 L 560.679688 402.007812 L 556.222656 406.535156 L 551.34375 411.234375 L 546.308594 416.09375 L 541.371094 421.101562 L 536.761719 426.21875 L 532.558594 431.28125 L 528.8125 436.09375 L 525.566406 440.457031 L 522.867188 444.175781 L 520.753906 447.152344 L 519.214844 449.648438 L 518.234375 452.019531 L 517.792969 454.621094 L 517.871094 457.8125 L 518.417969 461.824219 L 519.269531 466.402344 L 520.226562 471.160156 L 521.089844 475.71875 L 521.664062 479.691406 L 521.84375 482.832031 L 521.90625 485.410156 L 522.214844 487.832031 L 523.144531 490.496094 L 525.058594 493.8125 L 528.183594 498.070312 L 532.167969 503.125 L 536.515625 508.726562 L 540.730469 514.617188 L 544.324219 520.542969 L 546.898438 526.304688 L 548.503906 531.929688 L 549.285156 537.488281 L 549.386719 543.0625 L 548.964844 548.730469 L 548.152344 554.515625 L 547.054688 560.242188 L 545.769531 565.667969 L 544.394531 570.566406 L 543.019531 574.695312 L 541.65625 577.820312 L 539.980469 579.664062 L 537.578125 579.941406 L 534.039062 578.367188 L 528.953125 574.664062 L 522.113281 568.746094 L 514.175781 561.355469 L 506 553.429688 L 498.449219 545.910156 L 492.386719 539.738281 L 488.417969 535.589844 L 486.148438 533.117188 L 484.925781 531.703125 L 484.097656 530.730469 L 483.011719 529.589844 L 481.171875 527.804688 L 478.671875 525.449219 L 475.765625 522.746094 L 472.707031 519.917969 L 469.75 517.175781 L 467.082031 514.671875 L 464.648438 512.261719 L 462.335938 509.730469 L 460.035156 506.871094 L 457.621094 503.46875 L 454.988281 499.382812 L 451.996094 494.777344 L 448.515625 489.882812 L 444.410156 484.9375 L 439.574219 480.144531 L 434.003906 475.578125 L 427.722656 471.285156 L 420.753906 467.308594 L 413.121094 463.691406 L 404.855469 460.4375 L 395.976562 457.394531 L 386.523438 454.367188 L 376.523438 451.167969 L 366.007812 447.597656 L 355.085938 443.578125 L 344.179688 439.433594 L 333.789062 435.609375 L 324.414062 432.539062 L 316.554688 430.664062 L 310.484375 430.296875 L 305.570312 431.261719 L 300.949219 433.242188 L 295.765625 435.9375 L 289.15625 439.039062 L 280.5625 442.269531 L 270.613281 445.5 L 260.238281 448.628906 L 250.371094 451.550781 L 241.941406 454.167969 L 235.613281 456.417969 L 231.03125 458.414062 L 227.558594 460.300781 L 224.570312 462.234375 L 221.445312 464.367188 L 217.703125 466.8125 L 213.460938 469.550781 L 208.992188 472.53125 L 204.5625 475.703125 L 200.445312 479.015625 L 196.824219 482.414062 L 193.515625 485.867188 L 190.265625 489.34375 L 186.8125 492.8125 L 182.894531 496.242188 L 178.320312 499.621094 L 173.207031 502.984375 L 167.730469 506.398438 L 162.078125 509.917969 L 156.4375 513.601562 L 151.015625 517.476562 L 146.125 521.429688 L 142.113281 525.316406 L 139.320312 528.996094 L 138.085938 532.320312 L 138.578125 535.195312 L 140.257812 537.730469 L 142.414062 540.089844 L 144.335938 542.429688 L 145.308594 544.910156 L 144.816406 547.652344 L 143.148438 550.632812 L 140.777344 553.789062 L 138.183594 557.050781 L 135.84375 560.359375 L 134.105469 563.679688 L 132.765625 567.097656 L 131.476562 570.734375 L 129.90625 574.710938 L 127.710938 579.140625 L 124.664062 584.109375 L 120.984375 589.558594 L 117.011719 595.390625 L 113.074219 601.511719 L 109.515625 607.824219 L 106.5625 614.234375 L 104.074219 620.628906 L 101.800781 626.90625 L 99.496094 632.953125 L 96.917969 638.664062 L 93.890625 643.984375 L 90.582031 649.070312 L 87.222656 654.132812 L 84.050781 659.386719 L 81.308594 665.042969 L 79.15625 671.210938 L 77.460938 677.582031 L 76.007812 683.753906 L 74.59375 689.3125 L 73.007812 693.851562 L 71.097656 697.121094 L 68.953125 699.472656 L 66.730469 701.421875 L 64.574219 703.472656 L 62.636719 706.140625 L 61.035156 709.851562 L 59.734375 714.691406 L 58.671875 720.652344 L 57.773438 727.746094 L 56.972656 735.964844 L 56.203125 745.21875 L 55.402344 755.054688 L 54.511719 764.921875 L 53.46875 774.269531 L 52.214844 782.550781 L 50.714844 789.371094 L 49.066406 794.929688 L 47.402344 799.59375 L 45.847656 803.710938 L 44.527344 807.648438 L 43.539062 811.742188 L 42.828125 816.300781 L 42.300781 821.597656 L 41.863281 827.925781 L 41.429688 835.570312 L 40.929688 844.707031 L 40.390625 855.074219 L 39.851562 866.308594 L 39.367188 878.042969 L 38.980469 889.910156 L 38.738281 901.578125 L 38.667969 912.859375 L 38.804688 923.605469 L 39.175781 933.667969 L 39.8125 942.894531 L 40.730469 951.171875 L 41.894531 958.527344 L 43.253906 965.023438 L 44.761719 970.71875 L 46.359375 975.6875 L 47.984375 980.007812 L 49.558594 983.769531 L 51.007812 987.066406 L 52.261719 989.988281 L 53.257812 992.632812 L 53.96875 995.152344 L 54.378906 997.707031 L 54.476562 1000.460938 L 54.25 1003.570312 L 53.726562 1007.171875 L 53.148438 1011.277344 L 52.796875 1015.859375 L 52.949219 1020.910156 L 53.894531 1026.398438 L 55.804688 1032.277344 L 58.417969 1038.339844 L 61.371094 1044.339844 L 64.289062 1050.039062 L 66.804688 1055.195312 L 68.640625 1059.644531 L 69.898438 1063.535156 L 70.769531 1067.085938 L 71.4375 1070.519531 L 72.101562 1074.066406 L 72.960938 1077.890625 L 74.265625 1081.957031 L 76.273438 1086.183594 L 79.25 1090.472656 L 83.453125 1094.742188 L 88.992188 1098.910156 L 95.410156 1102.925781 L 102.085938 1106.753906 L 108.40625 1110.347656 L 113.761719 1113.675781 L 117.710938 1116.714844 L 120.53125 1119.578125 L 122.675781 1122.390625 L 124.597656 1125.28125 L 126.746094 1128.382812 L 129.464844 1131.808594 L 132.617188 1135.59375 L 135.957031 1139.757812 L 139.246094 1144.316406 L 142.234375 1149.292969 L 144.769531 1154.683594 L 147.101562 1160.402344 L 149.5625 1166.351562 L 152.5 1172.421875 L 156.246094 1178.515625 L 161.003906 1184.527344 L 166.382812 1190.332031 L 171.859375 1195.8125 L 176.910156 1200.847656 L 181 1205.3125 L 183.753906 1209.136719 L 185.371094 1212.445312 L 186.203125 1215.40625 L 186.597656 1218.199219 L 186.902344 1220.996094 L 187.449219 1223.9375 L 188.476562 1227.066406 L 190.203125 1230.390625 L 192.847656 1233.921875 L 196.632812 1237.667969 L 201.621094 1241.625 L 207.261719 1245.683594 L 212.851562 1249.734375 L 217.683594 1253.648438 L 221.054688 1257.3125 L 222.507812 1260.652344 L 222.59375 1263.777344 L 222.105469 1266.855469 L 221.851562 1270.046875 L 222.621094 1273.507812 L 225.007812 1277.363281 L 228.769531 1281.550781 L 233.457031 1285.964844 L 238.625 1290.507812 L 243.820312 1295.078125 L 248.675781 1299.578125 L 253.148438 1303.949219 L 257.269531 1308.140625 L 261.078125 1312.097656 L 264.609375 1315.773438 L 267.957031 1319.148438 L 271.429688 1322.324219 L 275.40625 1325.441406 L 280.25 1328.636719 L 286.335938 1332.050781 L 293.890625 1335.773438 L 302.585938 1339.6875 L 311.960938 1343.636719 L 321.546875 1347.453125 L 330.878906 1350.976562 L 339.550781 1354.0625 L 347.402344 1356.625 L 354.332031 1358.601562 L 360.246094 1359.925781 L 365.039062 1360.53125 L 368.742188 1360.398438 L 371.894531 1359.671875 L 375.160156 1358.558594 L 379.207031 1357.242188 L 384.699219 1355.929688 L 392.082031 1354.761719 L 400.902344 1353.695312 L 410.492188 1352.640625 L 420.179688 1351.5 L 429.292969 1350.183594 L 437.355469 1348.605469 L 444.683594 1346.71875 L 451.789062 1344.484375 L 459.1875 1341.871094 L 467.386719 1338.835938 L 476.734375 1335.425781 L 486.898438 1332.046875 L 497.375 1329.1875 L 507.660156 1327.328125 L 517.253906 1326.957031 L 525.835938 1328.394531 L 533.796875 1331.253906 L 541.710938 1334.972656 L 550.148438 1339 L 559.453125 1342.867188 L 569.035156 1346.484375 L 578.078125 1349.851562 L 585.765625 1352.964844 L 591.28125 1355.828125 L 594.199219 1358.453125 L 595.683594 1360.902344 L 597.296875 1363.246094 L 600.59375 1365.5625 L 607.132812 1367.929688 L 617.992188 1370.34375 L 632.304688 1372.535156 L 648.726562 1374.144531 L 665.914062 1374.835938 L 682.511719 1374.25 L 697.4375 1372.175781 L 710.648438 1368.945312 L 722.347656 1365.019531 L 732.757812 1360.867188 L 742.089844 1356.953125 L 750.535156 1353.632812 L 758.183594 1350.800781 L 765.109375 1348.253906 L 771.390625 1345.78125 L 777.097656 1343.171875 L 782.332031 1340.261719 L 787.332031 1337.042969 L 792.375 1333.554688 L 797.730469 1329.835938 L 803.667969 1325.925781 L 810.355469 1321.855469 L 817.539062 1317.664062 L 824.863281 1313.382812 L 831.972656 1309.046875 L 838.507812 1304.691406 L 844.230469 1300.328125 L 849.371094 1295.917969 L 854.277344 1291.390625 L 859.300781 1286.683594 L 864.78125 1281.742188 L 870.949219 1276.527344 L 877.542969 1271.132812 L 884.171875 1265.695312 L 890.449219 1260.328125 L 895.992188 1255.167969 L 900.523438 1250.304688 L 904.230469 1245.703125 L 907.410156 1241.285156 L 910.359375 1236.992188 L 913.382812 1232.742188 L 916.726562 1228.460938 L 920.457031 1224.007812 L 924.59375 1219.234375 L 929.152344 1213.988281 L 934.152344 1208.128906 L 939.5625 1201.585938 L 945.15625 1194.664062 L 950.652344 1187.746094 L 955.773438 1181.21875 L 960.242188 1175.464844 L 963.863281 1170.769531 L 966.78125 1166.953125 L 969.222656 1163.75 L 971.417969 1160.875 L 973.585938 1158.050781 L 975.910156 1155.054688 L 978.351562 1151.871094 L 980.8125 1148.527344 L 983.203125 1145.0625 L 985.4375 1141.511719 L 987.449219 1137.871094 L 989.289062 1133.992188 L 991.035156 1129.699219 L 992.773438 1124.800781 L 994.578125 1119.125 L 996.5 1112.535156 L 998.453125 1105.140625 L 1000.328125 1097.097656 L 1002.003906 1088.5625 L 1003.367188 1079.695312 L 1004.367188 1070.679688 L 1005.222656 1061.8125 L 1006.210938 1053.421875 L 1007.617188 1045.832031 L 1009.726562 1039.371094 L 1012.710938 1034.238281 L 1016.296875 1030.144531 L 1020.109375 1026.679688 L 1023.773438 1023.433594 L 1026.90625 1019.988281 L 1029.222656 1016.011719 L 1030.785156 1011.464844 L 1031.75 1006.390625 L 1032.261719 1000.824219 L 1032.484375 994.804688 L 1032.554688 988.390625 L 1032.578125 981.695312 L 1032.648438 974.851562 L 1032.855469 967.988281 L 1033.296875 961.246094 L 1034.03125 954.742188 L 1034.992188 948.601562 L 1036.082031 942.929688 L 1037.199219 937.847656 L 1038.25 933.460938 L 1039.15625 929.816406 L 1039.9375 926.664062 L 1040.648438 923.691406 L 1041.328125 920.578125 L 1042.023438 917.011719 L 1042.769531 912.757812 L 1043.5625 907.929688 L 1044.375 902.730469 L 1045.191406 897.359375 L 1045.988281 892.019531 L 1046.746094 886.855469 L 1047.445312 881.816406 L 1048.070312 876.796875 L 1048.597656 871.691406 L 1049.011719 866.390625 L 1049.3125 860.816406 L 1049.5625 854.980469 L 1049.851562 848.917969 L 1050.265625 842.664062 L 1050.863281 836.226562 L 1051.613281 829.46875 L 1052.460938 822.234375 L 1053.351562 814.355469 L 1054.226562 805.667969 L 1055.023438 796.113281 L 1055.625 786.019531 L 1055.90625 775.816406 L 1055.742188 765.941406 L 1055 756.824219 L 1053.628906 748.796875 L 1051.839844 741.792969 L 1049.925781 735.644531 L 1048.164062 730.191406 L 1046.851562 725.269531 L 1046.175781 720.730469 L 1045.992188 716.550781 L 1046.0625 712.714844 L 1046.140625 709.214844 L 1045.996094 706.042969 L 1045.4375 703.144531 L 1044.503906 700.292969 L 1043.277344 697.207031 L 1041.847656 693.617188 L 1040.300781 689.246094 L 1038.710938 683.863281 L 1037.089844 677.414062 L 1035.449219 669.902344 L 1033.777344 661.320312 L 1032.089844 651.664062 L 1030.386719 641.058594 L 1028.707031 630.160156 L 1027.105469 619.757812 L 1025.625 610.632812 L 1024.3125 603.578125 L 1023.183594 599.078125 L 1022.160156 596.425781 L 1021.121094 594.617188 L 1019.953125 592.648438 L 1018.539062 589.507812 L 1016.792969 584.464844 L 1014.695312 577.847656 L 1012.261719 570.257812 L 1009.496094 562.300781 L 1006.414062 554.578125 L 1003.050781 547.570312 L 999.5625 541.300781 L 996.125 535.671875 L 992.925781 530.59375 L 990.144531 525.960938 L 987.886719 521.667969 L 985.996094 517.539062 L 984.230469 513.371094 L 982.351562 508.976562 L 980.128906 504.160156 L 977.390625 498.800781 L 974.230469 493.066406 L 970.8125 487.203125 L 967.296875 481.453125 L 963.84375 476.054688 L 960.574219 471.21875 L 957.410156 467.023438 L 954.242188 463.5 L 950.949219 460.6875 L 947.414062 458.625 L 943.574219 457.28125 L 939.546875 456.339844 L 935.515625 455.417969 L 931.648438 454.125 L 928.121094 452.078125 L 925.066406 448.988281 L 922.425781 444.941406 L 920.105469 440.109375 L 918 434.675781 L 916.015625 428.816406 L 914.0625 422.726562 L 912.117188 416.640625 L 910.171875 410.816406 L 908.214844 405.5 L 906.238281 400.949219 L 904.234375 397.316406 L 902.21875 394.375 L 900.210938 391.789062 L 898.230469 389.242188 L 896.300781 386.398438 L 894.4375 383.015625 L 892.648438 379.207031 L 890.941406 375.152344 L 889.324219 371.046875 L 887.796875 367.082031 L 886.367188 363.402344 L 885.015625 359.976562 L 883.710938 356.746094 L 882.433594 353.632812 L 881.160156 350.574219 L 879.839844 347.476562 L 878.339844 344.167969 L 876.507812 340.460938 L 874.195312 336.160156 L 871.238281 331.074219 L 867.578125 325.121094 L 863.472656 318.652344 L 859.285156 312.140625 L 855.359375 306.050781 L 852.050781 300.84375 L 849.578125 296.828125 L 847.648438 293.683594 L 845.824219 290.925781 L 843.675781 288.070312 L 840.773438 284.636719 L 836.757812 280.277344 L 831.574219 275.140625 L 825.246094 269.527344 L 817.78125 263.71875 L 809.210938 258 L 799.617188 252.65625 L 789.402344 247.902344 L 779.03125 243.945312 L 768.972656 240.992188 L 759.695312 239.257812 L 762.050781 240.707031 "/>
<path style="fill:none;stroke-width:0.75;stroke-linecap:round;stroke-linejoin:round;stroke:rgb(0%,0%,0%);stroke-opacity:1;stroke-miterlimit:10;" d="M 306.507812 430.3125 L 297.125 435.34375 L 287.578125 439.980469 L 277.925781 443.882812 L 268.269531 446.820312 L 258.953125 449.085938 L 250.367188 451.09375 L 242.902344 453.265625 L 236.832031 455.875 L 231.902344 458.636719 L 227.75 461.121094 L 224.035156 463.046875 L 220.539062 464.664062 L 217.078125 466.382812 L 213.464844 468.59375 L 209.5625 471.585938 L 205.441406 475.179688 L 201.222656 479.078125 L 197.03125 482.996094 L 192.972656 486.6875 L 189.117188 490.105469 L 185.53125 493.257812 L 182.179688 496.1875 L 178.691406 499.078125 L 174.605469 502.160156 L 169.457031 505.660156 L 163.035156 509.699219 L 156.136719 514.003906 L 149.816406 518.179688 L 144.925781 521.941406 L 141.539062 525.351562 L 139.542969 528.558594 L 138.816406 531.722656 L 139.199219 534.941406 L 140.351562 538.082031 L 141.886719 540.957031 L 143.425781 543.371094 L 144.582031 545.269531 L 144.960938 547.097656 L 144.175781 549.433594 L 142.011719 552.675781 L 138.992188 556.570312 L 135.816406 560.679688 L 133.195312 564.570312 L 131.601562 567.972656 L 130.605469 571.199219 L 129.542969 574.734375 L 127.863281 578.953125 L 125.445312 583.828125 L 122.273438 589.226562 L 118.34375 595.019531 L 113.75 601.097656 L 109.050781 607.417969 L 104.921875 613.964844 L 102.03125 620.710938 L 100.726562 627.558594 L 100.007812 634.082031 L 98.5625 639.777344 L 95.4375 644.363281 L 91.183594 648.386719 L 86.71875 652.617188 L 82.960938 657.828125 L 80.566406 664.484375 L 79.113281 671.84375 L 77.921875 678.863281 L 76.4375 684.71875 L 74.660156 689.449219 L 72.730469 693.332031 L 70.773438 696.628906 L 68.894531 699.574219 L 67.050781 702.269531 L 65.171875 704.78125 L 63.183594 707.179688 L 61.078125 709.675781 L 59.140625 713.050781 L 57.722656 718.238281 L 57.058594 725.855469 L 56.863281 735.34375 L 56.730469 745.828125 L 56.253906 756.441406 L 55.140625 766.429688 L 53.558594 775.445312 L 51.796875 783.261719 L 50.132812 789.648438 L 48.773438 794.539062 L 47.585938 798.566406 L 46.367188 802.527344 L 44.980469 807.046875 L 43.578125 812.113281 L 42.378906 817.527344 L 41.613281 823.109375 L 41.398438 828.820312 L 41.457031 835.257812 L 41.410156 843.179688 L 40.976562 853.101562 L 40.257812 864.632812 L 39.460938 877.140625 L 38.785156 890 L 38.402344 902.628906 L 38.335938 914.609375 L 38.574219 925.5625 L 39.105469 935.113281 L 39.914062 943.074219 L 40.949219 950.011719 L 42.160156 956.675781 L 43.484375 963.597656 L 44.886719 970.421875 L 46.324219 976.5625 L 47.75 981.441406 L 49.144531 984.71875 L 50.519531 987.003906 L 51.921875 989.15625 L 53.328125 991.839844 L 54.53125 994.960938 L 55.273438 998.230469 L 55.300781 1001.367188 L 54.488281 1004.203125 L 53.261719 1007.050781 L 52.179688 1010.347656 L 51.800781 1014.523438 L 52.542969 1019.863281 L 54.207031 1026.070312 L 56.445312 1032.6875 L 58.949219 1039.292969 L 61.550781 1045.550781 L 64.113281 1051.15625 L 66.496094 1055.800781 L 68.566406 1059.355469 L 70.191406 1062.382812 L 71.234375 1065.621094 L 71.667969 1069.617188 L 71.882812 1074.148438 L 72.367188 1078.808594 L 73.621094 1083.175781 L 76.027344 1086.96875 L 79.554688 1090.4375 L 84.070312 1093.945312 L 89.429688 1097.875 L 95.445312 1102.425781 L 101.699219 1107.097656 L 107.722656 1111.230469 L 113.097656 1114.347656 L 117.671875 1116.777344 L 121.335938 1119.050781 L 123.996094 1121.6875 L 125.683594 1125.054688 L 126.996094 1128.851562 L 128.671875 1132.621094 L 131.257812 1136.050781 L 134.582031 1139.464844 L 138.289062 1143.328125 L 142.019531 1148.113281 L 145.480469 1154.105469 L 148.636719 1160.835938 L 151.523438 1167.652344 L 154.167969 1173.898438 L 156.703125 1179.152344 L 159.65625 1183.886719 L 163.660156 1188.808594 L 169.074219 1194.402344 L 175.191406 1200.28125 L 181.042969 1205.847656 L 185.65625 1210.492188 L 188.289062 1213.808594 L 189.15625 1216.167969 L 188.695312 1218.140625 L 187.359375 1220.285156 L 185.730469 1223.046875 L 184.953125 1226.367188 L 186.316406 1230.058594 L 190.660156 1233.953125 L 197.0625 1237.957031 L 204.164062 1241.992188 L 210.601562 1245.976562 L 215.296875 1249.84375 L 218.316406 1253.570312 L 220.019531 1257.144531 L 220.773438 1260.5625 L 221.027344 1263.867188 L 221.242188 1267.109375 L 221.875 1270.34375 L 223.328125 1273.632812 L 225.699219 1277.125 L 229.027344 1280.980469 L 233.347656 1285.355469 L 238.5625 1290.304688 L 244.074219 1295.4375 L 249.152344 1300.257812 L 253.265625 1304.410156 L 256.714844 1308.066406 L 259.988281 1311.527344 L 263.589844 1315.105469 L 267.871094 1318.992188 L 272.570312 1322.914062 L 277.292969 1326.488281 L 281.816406 1329.460938 L 286.664062 1332.132812 L 292.546875 1334.9375 L 300.179688 1338.300781 L 309.941406 1342.492188 L 320.921875 1347.09375 L 331.878906 1351.515625 L 341.578125 1355.179688 L 349.105469 1357.640625 L 354.882812 1359.074219 L 359.648438 1359.792969 L 364.035156 1360.070312 L 368.203125 1359.96875 L 372.1875 1359.511719 L 376.03125 1358.714844 L 379.855469 1357.609375 L 384.101562 1356.285156 L 389.289062 1354.835938 L 395.734375 1353.363281 L 402.898438 1351.910156 L 410.035156 1350.519531 L 416.402344 1349.238281 L 421.457031 1348.082031 L 425.480469 1346.941406 L 428.960938 1345.6875 L 432.386719 1344.1875 L 436.109375 1342.394531 L 439.933594 1340.589844 L 443.527344 1339.128906 L 446.707031 1338.1875 L 449.820312 1337.21875 L 453.375 1335.484375 L 457.859375 1332.238281 L 463.5 1326.726562 L 469.40625 1318.109375 L 474.40625 1305.519531 L 477.640625 1288.726562 L 479.433594 1270.035156 L 480.40625 1252.382812 L 481.1875 1238.710938 L 482.273438 1231.078125 L 483.644531 1228.058594 L 485.152344 1227.347656 L 486.640625 1226.640625 L 488.003906 1224.132812 L 489.277344 1220.007812 L 490.539062 1214.941406 L 491.847656 1209.53125 L 493.203125 1204.042969 L 494.574219 1198.664062 L 495.945312 1193.570312 L 497.296875 1188.902344 L 498.628906 1184.609375 L 499.957031 1180.601562 L 501.289062 1176.78125 L 502.628906 1173.0625 L 503.976562 1169.371094 L 505.324219 1165.644531 L 506.667969 1161.8125 L 508.007812 1157.816406 L 509.347656 1153.589844 L 510.6875 1149.058594 L 512.03125 1144.234375 L 513.375 1139.371094 L 514.71875 1134.796875 L 516.0625 1130.773438 L 517.402344 1127.292969 L 518.742188 1124.277344 L 520.082031 1121.65625 L 521.425781 1119.308594 L 522.769531 1116.914062 L 524.113281 1114.105469 L 525.453125 1110.523438 L 526.796875 1105.941406 L 528.136719 1100.6875 L 529.476562 1095.234375 L 530.820312 1089.929688 L 532.160156 1084.628906 L 533.503906 1079.058594 L 534.847656 1072.953125 L 536.1875 1066.074219 L 537.53125 1058.316406 L 538.875 1049.617188 L 540.214844 1039.972656 L 541.558594 1029.6875 L 542.898438 1019.128906 L 544.242188 1008.667969 L 545.582031 998.566406 L 546.921875 988.679688 L 548.261719 978.746094 L 549.609375 968.511719 L 550.957031 957.921875 L 552.304688 947.746094 L 553.644531 938.957031 L 554.972656 931.847656 L 556.296875 924.015625 L 557.628906 912.382812 L 558.988281 893.871094 L 560.371094 867.21875 L 561.753906 838.445312 L 563.085938 815.394531 L 564.351562 803.539062 L 565.605469 798.886719 L 566.921875 795.070312 L 568.375 785.734375 L 569.984375 766.421875 L 571.535156 740.335938 L 572.765625 712.582031 L 573.402344 688.277344 L 573.265625 671.210938 L 572.5 659.898438 L 571.34375 651.550781 L 569.996094 643.746094 L 568.550781 635.574219 L 567.082031 626.511719 L 565.648438 616.027344 L 564.300781 603.835938 L 563.003906 590.628906 L 561.707031 577.324219 L 560.363281 564.734375 L 558.996094 553.160156 L 557.644531 542.78125 L 556.339844 533.78125 L 555.09375 526.222656 L 553.8125 519.710938 L 552.371094 513.730469 L 550.65625 507.769531 L 548.5625 501.527344 L 546.070312 495.570312 L 543.175781 490.667969 L 539.894531 487.394531 L 536.355469 485.511719 L 532.691406 484.585938 L 529.054688 484.175781 L 525.625 483.960938 L 522.746094 484.042969 L 520.796875 484.640625 L 520.160156 485.976562 L 521.066406 488.171875 L 523.167969 491.003906 L 525.957031 494.148438 L 529.027344 497.425781 L 532.320312 501.175781 L 535.859375 505.882812 L 539.683594 512.015625 L 543.6875 519.75 L 547.253906 528.023438 L 549.632812 535.464844 L 550.304688 541.0625 L 549.691406 545.238281 L 548.425781 548.769531 L 547.164062 552.425781 L 546.371094 556.835938 L 545.84375 561.976562 L 545.191406 567.671875 L 544.039062 573.75 L 542.097656 579.765625 L 539.460938 584.203125 L 536.324219 585.285156 L 532.777344 581.808594 L 528.496094 574.871094 L 523.066406 566.164062 L 516.058594 557.371094 L 507.425781 549.890625 L 498.601562 544.007812 L 491.382812 539.726562 L 487.09375 536.945312 L 485.167969 535.144531 L 484.546875 533.703125 L 484.179688 532 L 483.210938 529.585938 L 481.550781 526.714844 L 479.300781 523.8125 L 476.566406 521.304688 L 473.460938 519.453125 L 470.140625 517.84375 L 466.78125 515.914062 L 463.554688 513.222656 L 460.679688 509.917969 L 458.378906 506.289062 L 456.886719 502.625 L 456.144531 499.097656 L 454.988281 495.378906 L 451.976562 491.039062 L 446.148438 485.804688 L 438.433594 480.117188 L 430.246094 474.582031 L 423 469.8125 L 417.621094 466.230469 L 413.128906 463.5 L 408.042969 461.097656 L 400.898438 458.507812 L 390.691406 455.324219 L 378.308594 451.59375 L 365.101562 447.488281 L 352.285156 443.210938 L 340.511719 439.101562 L 330.304688 435.527344 L 322.175781 432.855469 L 316.410156 431.316406 L 312.339844 430.558594 L 309.050781 430.082031 L 305.644531 429.394531 L 306.507812 430.3125 "/>
<path style="fill:none;stroke-width:0.75;stroke-linecap:round;stroke-linejoin:round;stroke:rgb(0%,0%,0%);stroke-opacity:1;stroke-miterlimit:10;" d="M 698.683594 504.914062 L 693.644531 506.5 L 688.265625 507.960938 L 682.871094 509.335938 L 677.777344 510.664062 L 673.25 511.980469 L 669.277344 513.296875 L 665.792969 514.613281 L 662.722656 515.9375 L 659.996094 517.265625 L 657.523438 518.617188 L 655.109375 520.007812 L 652.550781 521.464844 L 649.632812 523.023438 L 646.222656 524.714844 L 642.46875 526.605469 L 638.601562 528.785156 L 634.851562 531.320312 L 631.445312 534.300781 L 628.550781 537.753906 L 626.085938 541.539062 L 623.910156 545.46875 L 621.890625 549.359375 L 619.898438 553.074219 L 617.867188 556.675781 L 615.75 560.28125 L 613.492188 564 L 611.050781 567.953125 L 608.390625 572.195312 L 605.574219 576.582031 L 602.675781 580.914062 L 599.777344 584.992188 L 596.953125 588.6875 L 594.253906 592.152344 L 591.738281 595.601562 L 589.457031 599.253906 L 587.457031 603.335938 L 585.773438 607.960938 L 584.328125 612.835938 L 583.027344 617.570312 L 581.773438 621.769531 L 580.488281 625.390625 L 579.164062 629.804688 L 577.816406 636.742188 L 576.457031 647.921875 L 575.09375 665.070312 L 573.746094 689.042969 L 572.40625 717.234375 L 571.074219 746.15625 L 569.738281 772.335938 L 568.40625 792.292969 L 567.0625 803.902344 L 565.71875 810.484375 L 564.371094 816.714844 L 563.023438 827.261719 L 561.679688 845.421875 L 560.339844 868.96875 L 559 894.285156 L 557.660156 917.765625 L 556.320312 935.800781 L 554.976562 946.054688 L 553.636719 951.332031 L 552.292969 955.722656 L 550.949219 963.300781 L 549.605469 977.03125 L 548.265625 995.375 L 546.925781 1015.675781 L 545.582031 1035.269531 L 544.242188 1051.496094 L 542.898438 1062.414062 L 541.554688 1068.953125 L 540.210938 1072.765625 L 538.871094 1075.496094 L 537.53125 1078.507812 L 536.191406 1081.976562 L 534.851562 1085.804688 L 533.507812 1089.882812 L 532.164062 1094.105469 L 530.820312 1098.363281 L 529.472656 1102.550781 L 528.125 1106.554688 L 526.785156 1110.269531 L 525.449219 1113.621094 L 524.117188 1116.710938 L 522.785156 1119.671875 L 521.445312 1122.648438 L 520.101562 1125.773438 L 518.742188 1129.164062 L 517.382812 1132.855469 L 516.027344 1136.867188 L 514.679688 1141.210938 L 513.351562 1145.898438 L 512.042969 1150.910156 L 510.742188 1156.035156 L 509.425781 1161.035156 L 508.074219 1165.664062 L 506.675781 1169.742188 L 505.257812 1173.355469 L 503.847656 1176.664062 L 502.484375 1179.8125 L 501.195312 1182.964844 L 500.003906 1186.292969 L 498.832031 1190.03125 L 497.597656 1194.441406 L 496.214844 1199.789062 L 494.636719 1206.144531 L 492.960938 1212.832031 L 491.339844 1218.996094 L 489.910156 1223.78125 L 488.816406 1226.324219 L 488.117188 1226.296875 L 487.496094 1225.503906 L 486.550781 1226.273438 L 484.878906 1230.929688 L 482.292969 1241.085938 L 479.453125 1255.453125 L 477.21875 1272.027344 L 476.460938 1288.796875 L 478.050781 1303.761719 L 482.558594 1315.328125 L 489.378906 1323.566406 L 497.609375 1328.964844 L 506.351562 1332.023438 L 514.894531 1333.273438 L 523.320312 1333.488281 L 531.898438 1333.476562 L 540.910156 1334.054688 L 550.625 1336.039062 L 561.082031 1339.945312 L 571.382812 1345.0625 L 580.394531 1350.378906 L 586.988281 1354.878906 L 590.480469 1357.828125 L 591.96875 1359.566406 L 593.019531 1360.714844 L 595.179688 1361.886719 L 600.011719 1363.699219 L 608.640625 1366.550781 L 620.507812 1369.960938 L 634.632812 1373.214844 L 650.035156 1375.617188 L 665.734375 1376.460938 L 680.886719 1375.265625 L 695.261719 1372.429688 L 708.765625 1368.582031 L 721.300781 1364.351562 L 732.785156 1360.269531 L 743.140625 1356.492188 L 752.285156 1353.078125 L 760.148438 1350.09375 L 766.652344 1347.597656 L 771.84375 1345.570312 L 776.246094 1343.671875 L 780.519531 1341.480469 L 785.300781 1338.578125 L 791.082031 1334.679688 L 797.679688 1330.054688 L 804.757812 1325.109375 L 811.964844 1320.25 L 818.957031 1315.882812 L 825.476562 1312.273438 L 831.570312 1309.085938 L 837.359375 1305.851562 L 842.976562 1302.089844 L 848.539062 1297.460938 L 854.125 1292.140625 L 859.800781 1286.4375 L 865.636719 1280.660156 L 871.695312 1275.117188 L 877.984375 1270.03125 L 884.265625 1265.285156 L 890.234375 1260.679688 L 895.589844 1256.019531 L 900.113281 1251.160156 L 903.953125 1246.183594 L 907.328125 1241.238281 L 910.46875 1236.464844 L 913.605469 1232.007812 L 916.9375 1227.921875 L 920.566406 1223.941406 L 924.566406 1219.707031 L 929.003906 1214.863281 L 933.960938 1209.058594 L 939.433594 1202.109375 L 945.136719 1194.535156 L 950.722656 1187.03125 L 955.832031 1180.289062 L 960.1875 1174.835938 L 963.835938 1170.511719 L 966.902344 1167.003906 L 969.507812 1163.988281 L 971.777344 1161.140625 L 973.839844 1158.199219 L 975.824219 1155.121094 L 977.867188 1151.921875 L 980.105469 1148.617188 L 982.609375 1145.207031 L 985.253906 1141.644531 L 987.84375 1137.855469 L 990.1875 1133.785156 L 992.09375 1129.355469 L 993.464844 1124.496094 L 994.53125 1119.054688 L 995.609375 1112.859375 L 997.03125 1105.757812 L 999 1097.660156 L 1001.3125 1088.832031 L 1003.652344 1079.628906 L 1005.703125 1070.398438 L 1007.148438 1061.492188 L 1007.835938 1053.226562 L 1008.257812 1045.78125 L 1009.078125 1039.300781 L 1010.957031 1033.933594 L 1014.320312 1029.730469 L 1018.695312 1026.332031 L 1023.371094 1023.296875 L 1027.644531 1020.175781 L 1030.808594 1016.519531 L 1032.367188 1011.988281 L 1032.675781 1006.683594 L 1032.292969 1000.816406 L 1031.789062 994.597656 L 1031.613281 988.210938 L 1031.796875 981.703125 L 1032.257812 975.085938 L 1032.910156 968.382812 L 1033.675781 961.609375 L 1034.484375 954.824219 L 1035.320312 948.261719 L 1036.183594 942.195312 L 1037.074219 936.90625 L 1037.988281 932.660156 L 1038.917969 929.585938 L 1039.84375 927.191406 L 1040.726562 924.820312 L 1041.542969 921.835938 L 1042.265625 917.753906 L 1042.929688 912.78125 L 1043.566406 907.296875 L 1044.226562 901.679688 L 1044.9375 896.296875 L 1045.734375 891.421875 L 1046.566406 886.878906 L 1047.382812 882.378906 L 1048.121094 877.636719 L 1048.734375 872.429688 L 1049.230469 866.804688 L 1049.617188 860.871094 L 1049.914062 854.742188 L 1050.132812 848.527344 L 1050.304688 842.292969 L 1050.546875 835.90625 L 1050.988281 829.191406 L 1051.761719 821.96875 L 1052.925781 814.101562 L 1054.269531 805.621094 L 1055.515625 796.597656 L 1056.382812 787.09375 L 1056.589844 777.183594 L 1055.949219 767.015625 L 1054.65625 757.0625 L 1053.011719 747.863281 L 1051.300781 739.976562 L 1049.769531 733.773438 L 1048.472656 728.953125 L 1047.421875 725.046875 L 1046.621094 721.582031 L 1046.082031 718.085938 L 1045.785156 714.203125 L 1045.625 710.078125 L 1045.457031 705.960938 L 1045.148438 702.109375 L 1044.5625 698.785156 L 1043.597656 696.070312 L 1042.296875 693.386719 L 1040.730469 689.980469 L 1038.980469 685.09375 L 1037.121094 678.230469 L 1035.222656 669.90625 L 1033.367188 660.886719 L 1031.625 651.945312 L 1030.070312 643.851562 L 1028.746094 637.175781 L 1027.5625 631.730469 L 1026.402344 627.125 L 1025.132812 622.972656 L 1023.636719 618.9375 L 1021.757812 614.925781 L 1019.347656 610.894531 L 1016.246094 606.800781 L 1012.300781 602.601562 L 1007.496094 598.339844 L 1002.375 594.367188 L 997.621094 591.128906 L 993.917969 589.066406 L 991.652344 588.371094 L 990.0625 588.25 L 988.097656 587.671875 L 984.699219 585.601562 L 978.8125 581 L 969.84375 573.289062 L 959.015625 563.714844 L 948.015625 553.976562 L 938.523438 545.78125 L 931.789062 540.40625 L 927.3125 537.441406 L 924.164062 536.054688 L 921.410156 535.421875 L 918.113281 534.707031 L 913.621094 533.328125 L 908.386719 531.710938 L 903.132812 530.523438 L 898.59375 530.445312 L 895.332031 531.988281 L 893.222656 535.050781 L 891.988281 539.367188 L 891.335938 544.679688 L 890.980469 550.722656 L 890.664062 557.300781 L 890.242188 564.457031 L 889.589844 572.304688 L 888.59375 580.945312 L 887.132812 590.496094 L 885.164062 600.886719 L 882.925781 611.351562 L 880.734375 620.957031 L 878.910156 628.757812 L 877.710938 634.21875 L 877.167969 638.363281 L 877.25 642.625 L 877.929688 648.425781 L 879.183594 657.195312 L 880.910156 669.753906 L 882.75 684.515625 L 884.265625 699.28125 L 885.027344 711.855469 L 884.714844 720.621094 L 883.515625 726.253906 L 881.71875 730.003906 L 879.628906 733.117188 L 877.546875 736.84375 L 875.707031 742.144531 L 874.117188 748.789062 L 872.726562 756.253906 L 871.472656 764.019531 L 870.308594 771.644531 L 869.167969 779.003906 L 867.976562 786.058594 L 866.671875 792.761719 L 865.183594 799.070312 L 863.492188 804.953125 L 861.765625 810.417969 L 860.207031 815.484375 L 859.035156 820.175781 L 858.347656 824.527344 L 857.824219 828.679688 L 857.03125 832.792969 L 855.539062 837.015625 L 852.90625 841.511719 L 848.871094 846.359375 L 843.800781 851.316406 L 838.222656 856.0625 L 832.679688 860.269531 L 827.691406 863.617188 L 823.644531 865.980469 L 820.28125 867.984375 L 817.191406 870.457031 L 813.964844 874.222656 L 810.382812 879.820312 L 806.964844 886.65625 L 804.417969 893.835938 L 803.449219 900.476562 L 804.765625 905.695312 L 808.832031 908.871094 L 815.132812 910.414062 L 822.914062 911.007812 L 831.40625 911.332031 L 839.957031 911.964844 L 848.304688 913.097656 L 856.289062 914.824219 L 863.746094 917.238281 L 870.519531 920.429688 L 876.382812 924.503906 L 880.871094 929.601562 L 883.457031 935.867188 L 883.609375 943.457031 L 881.0625 952.269531 L 876.582031 961.226562 L 871.191406 969.015625 L 865.917969 974.304688 L 861.785156 975.773438 L 859.507812 972.714844 L 858.570312 966.839844 L 858.140625 960.480469 L 857.386719 955.960938 L 855.675781 955.117188 L 853.117188 957.820312 L 850.027344 963.441406 L 846.710938 971.359375 L 843.480469 980.953125 L 840.496094 991.554688 L 837.371094 1002.335938 L 833.582031 1012.441406 L 828.589844 1020.996094 L 822.101562 1027.371094 L 814.738281 1031.851562 L 807.355469 1034.964844 L 800.8125 1037.226562 L 795.960938 1039.160156 L 793.378906 1041.25 L 792.519531 1043.84375 L 792.5625 1047.25 L 792.679688 1051.777344 L 792.046875 1057.730469 L 790.074219 1065.121094 L 787.050781 1072.734375 L 783.507812 1079.046875 L 779.96875 1082.539062 L 776.875 1082.128906 L 774.335938 1078.445312 L 772.378906 1072.5625 L 771.023438 1065.539062 L 770.304688 1058.449219 L 770.167969 1052.082031 L 770.265625 1046.117188 L 770.179688 1039.957031 L 769.480469 1033.007812 L 767.878906 1024.886719 L 765.554688 1016.042969 L 762.828125 1007.15625 L 760.011719 998.890625 L 757.421875 991.917969 L 755.28125 986.683594 L 753.46875 982.769531 L 751.78125 979.535156 L 750.003906 976.332031 L 747.988281 972.664062 L 745.8125 968.597656 L 743.609375 964.335938 L 741.511719 960.089844 L 739.652344 956.058594 L 738.105469 952.402344 L 736.683594 949.078125 L 735.128906 945.988281 L 733.195312 943.035156 L 730.695312 940.109375 L 727.734375 937.042969 L 724.484375 933.640625 L 721.109375 929.71875 L 717.789062 925.085938 L 714.664062 919.648438 L 711.769531 913.675781 L 709.113281 907.542969 L 706.699219 901.617188 L 704.539062 896.265625 L 702.648438 891.703125 L 701.085938 887.570312 L 699.921875 883.351562 L 699.226562 878.527344 L 699.011719 872.730469 L 699.054688 866.175781 L 699.074219 859.214844 L 698.777344 852.203125 L 697.890625 845.5 L 696.261719 839.394531 L 694.253906 833.898438 L 692.371094 828.96875 L 691.109375 824.546875 L 690.839844 820.496094 L 691.378906 816.316406 L 692.402344 811.417969 L 693.601562 805.210938 L 694.652344 797.101562 L 695.324219 786.789062 L 695.722656 775.125 L 696.042969 763.253906 L 696.476562 752.308594 L 697.164062 743.183594 L 698.039062 735.800781 L 698.996094 729.828125 L 699.917969 724.941406 L 700.6875 720.804688 L 701.164062 717.144531 L 701.078125 713.847656 L 700.121094 710.855469 L 697.988281 708.109375 L 694.585938 705.554688 L 690.644531 703.167969 L 687.089844 700.921875 L 684.863281 698.808594 L 684.898438 696.796875 L 687.742188 694.851562 L 692.386719 692.808594 L 697.4375 690.484375 L 701.5 687.695312 L 703.546875 684.316406 L 703.972656 680.460938 L 703.550781 676.289062 L 703.046875 671.96875 L 703.222656 667.675781 L 704.609375 663.546875 L 706.816406 659.636719 L 709.210938 655.972656 L 711.160156 652.589844 L 712.039062 649.511719 L 711.445312 646.738281 L 709.914062 644.101562 L 708.210938 641.417969 L 707.09375 638.488281 L 707.15625 635.175781 L 708.277344 631.566406 L 710.15625 627.796875 L 712.492188 624.011719 L 714.996094 620.351562 L 717.40625 616.898438 L 719.65625 613.511719 L 721.714844 610 L 723.558594 606.167969 L 725.183594 601.90625 L 726.640625 597.441406 L 728.007812 593.082031 L 729.371094 589.140625 L 730.800781 585.933594 L 732.328125 583.613281 L 733.804688 581.703125 L 735.019531 579.5625 L 735.773438 576.5625 L 735.902344 572.242188 L 735.386719 566.832031 L 734.257812 560.746094 L 732.527344 554.390625 L 730.226562 548.171875 L 727.46875 542.425781 L 724.78125 537.167969 L 722.785156 532.34375 L 722.097656 527.886719 L 723.113281 523.761719 L 725.3125 520 L 727.949219 516.644531 L 730.273438 513.75 L 731.53125 511.355469 L 731.035156 509.484375 L 728.324219 507.996094 L 722.992188 506.726562 L 714.636719 505.511719 L 702.851562 504.179688 L 698.683594 504.914062 "/>
<path style="fill:none;stroke-width:0.75;stroke-linecap:round;stroke-linejoin:round;stroke:rgb(0%,0%,0%);stroke-opacity:1;stroke-miterlimit:10;" d="M 592.832031 367.703125 L 589.011719 373.222656 L 586.65625 378.558594 L 583.03125 382.707031 L 579.195312 385.152344 L 575.765625 388.675781 L 574.03125 391.792969 L 569.996094 393.800781 L 562.164062 395.65625 L 556.753906 400.464844 L 555.121094 406.515625 L 552.4375 409.96875 L 545.730469 413.617188 L 537.53125 421.578125 L 536.050781 428.113281 L 536.316406 433.824219 L 533.902344 437.035156 L 528.34375 439.4375 L 521.769531 443.648438 L 517.652344 446.097656 L 515.585938 448.886719 L 515.726562 452.957031 L 517.363281 456.320312 L 518.734375 459.007812 L 520.34375 461.46875 L 520.800781 464.058594 L 519.875 468.125 L 521.953125 475.15625 L 550.679688 481.785156 L 614.621094 481.421875 L 643.269531 460.121094 L 642.886719 414.710938 L 635.902344 391.496094 L 633.042969 387.335938 L 632.0625 386.160156 L 628.34375 380.933594 L 614.609375 371.398438 L 594.152344 366.410156 L 592.832031 367.703125 "/>
<path style="fill:none;stroke-width:0.75;stroke-linecap:round;stroke-linejoin:round;stroke:rgb(0%,0%,0%);stroke-opacity:1;stroke-miterlimit:10;" d="M 766.070312 241.664062 L 749.117188 243.140625 L 727.007812 245.570312 L 715.523438 250.652344 L 711.980469 256.167969 L 710.035156 259.609375 L 707.21875 261.246094 L 702.621094 262.203125 L 697.667969 264.203125 L 693.898438 268.488281 L 690.960938 273.710938 L 688.289062 278.261719 L 686.320312 281.976562 L 685.363281 284.972656 L 684.148438 286.988281 L 681.507812 288.261719 L 678.238281 291.394531 L 675.386719 298.484375 L 673.125 307.214844 L 671.402344 314.179688 L 670.136719 317.167969 L 669.109375 318.753906 L 668.042969 322.257812 L 666.464844 329.144531 L 664.089844 339.335938 L 661.558594 348.351562 L 659.667969 352.347656 L 658.894531 354.359375 L 659.300781 358.148438 L 659.585938 363.515625 L 658.738281 369.308594 L 658.207031 374.507812 L 659.269531 378.378906 L 660.042969 381.25 L 658.671875 383.738281 L 656.609375 386.578125 L 655.546875 390.410156 L 654.867188 395.351562 L 653.378906 401.402344 L 650.523438 407.691406 L 648.304688 409.824219 L 647.855469 406.5 L 644.25 412.234375 L 635.722656 438.714844 L 639.164062 470.554688 L 667.984375 489.851562 L 702.945312 495.785156 L 722.378906 492.351562 L 727.457031 485.730469 L 724.886719 481.242188 L 720.683594 478.5625 L 719.210938 476.058594 L 718.972656 472.40625 L 717.691406 466.902344 L 715.894531 460.925781 L 714.527344 455.980469 L 713.40625 451.980469 L 712.074219 448.445312 L 710.355469 444.695312 L 709.191406 439.257812 L 709.367188 431.371094 L 709.898438 423.921875 L 709.617188 419.644531 L 708.386719 417.058594 L 706.328125 413.675781 L 703.609375 407.289062 L 700.578125 396.8125 L 698.320312 385.429688 L 698.058594 376.652344 L 700.804688 371.089844 L 706.886719 368.324219 L 714.050781 366.722656 L 719.371094 364.753906 L 719.777344 362.582031 L 713.542969 360.613281 L 704.4375 358.605469 L 697.617188 356.160156 L 696.828125 353.019531 L 700.214844 349.570312 L 705.027344 346.253906 L 710.554688 343.210938 L 716.167969 340.378906 L 719.488281 337.253906 L 718.816406 333.515625 L 716.921875 330.015625 L 717.121094 327.558594 L 720.472656 325.515625 L 726.578125 323.078125 L 731.410156 320.160156 L 731.511719 316.9375 L 729.238281 313.832031 L 727.796875 311.222656 L 728.007812 309.015625 L 729.902344 306.898438 L 732.785156 304.113281 L 735.773438 299.800781 L 739.136719 293.972656 L 747.757812 290.09375 L 764.832031 291.246094 L 782.179688 295.492188 L 791.65625 300.074219 L 796.570312 303.933594 L 801.582031 306.679688 L 805.292969 308.855469 L 805.578125 311.125 L 803.472656 313.726562 L 800.855469 316.855469 L 799.742188 320.957031 L 801.730469 326.179688 L 806.542969 331.203125 L 813.222656 334.847656 L 819.890625 338.019531 L 824.910156 341.8125 L 828.578125 345.992188 L 831.660156 349.992188 L 834.394531 353.355469 L 834.902344 356.085938 L 831.714844 358.34375 L 827.167969 360.53125 L 824.160156 362.882812 L 823.984375 364.761719 L 826.902344 365.992188 L 830.546875 369.011719 L 832.625 375.769531 L 833.691406 383.578125 L 835.097656 389.375 L 838.574219 393.195312 L 844.882812 396.03125 L 850.648438 399.585938 L 852.808594 404.9375 L 853.707031 410.019531 L 856.199219 412.816406 L 859.664062 414.710938 L 862.632812 417.921875 L 864.324219 424.039062 L 866.742188 432.128906 L 871.535156 440.613281 L 876.148438 447.890625 L 877.953125 452.984375 L 878.234375 457.421875 L 879.039062 462.652344 L 881.511719 467.296875 L 885.792969 470.09375 L 888.898438 473.109375 L 888.855469 478.289062 L 890.886719 483.769531 L 899.664062 487.234375 L 910.53125 488.3125 L 918.0625 487.320312 L 923.074219 485.445312 L 927.515625 483.695312 L 931.613281 481.597656 L 935.175781 478.308594 L 937.925781 473.28125 L 939.292969 467.191406 L 938.84375 461.140625 L 937.019531 456.800781 L 934.417969 455.207031 L 931.335938 454.382812 L 928.015625 452.191406 L 924.734375 448.957031 L 921.757812 445.417969 L 919.242188 441.527344 L 917.277344 436.867188 L 915.832031 430.289062 L 914.742188 421.355469 L 913.410156 413.210938 L 911.3125 408.699219 L 908.652344 405.855469 L 905.820312 402.199219 L 903.175781 398.019531 L 901.09375 394.308594 L 899.761719 391.6875 L 898.65625 389.351562 L 897.183594 386.402344 L 895.148438 383.066406 L 892.636719 379.65625 L 890.355469 375.792969 L 888.898438 371.164062 L 887.816406 366.480469 L 886.542969 362.527344 L 885.101562 359.417969 L 883.660156 356.941406 L 882.363281 354.316406 L 881.25 350.902344 L 879.960938 347.105469 L 878.179688 343.476562 L 876.152344 340.074219 L 874.113281 336.6875 L 871.675781 332.511719 L 868.296875 326.585938 L 863.738281 318.597656 L 859.027344 310.761719 L 855.195312 305.191406 L 852.007812 301.007812 L 849.089844 296.941406 L 846.742188 293.179688 L 845.203125 290.058594 L 843.714844 287.0625 L 841.382812 283.722656 L 837.71875 280.601562 L 832.414062 277.917969 L 825.425781 273.4375 L 817.035156 265.417969 L 808.496094 256.40625 L 800.546875 249.40625 L 790.894531 244.976562 L 777.980469 242.863281 L 766.21875 242.070312 L 761.5 241.417969 L 766.070312 241.664062 "/>
<path style="fill:none;stroke-width:0.75;stroke-linecap:round;stroke-linejoin:round;stroke:rgb(0%,0%,0%);stroke-opacity:1;stroke-miterlimit:10;" d="M 1013.851562 472.375 L 1009.828125 477.742188 L 1007.90625 477.742188 L 1008.167969 480.425781 L 1008.027344 488.476562 L 1007.121094 491.164062 L 1007.945312 501.898438 L 1011.675781 507.265625 L 1016.300781 507.265625 L 1020.097656 509.949219 L 1023.546875 509.949219 L 1026.902344 515.316406 L 1029.011719 518 L 1030.132812 520.6875 L 1029.296875 523.371094 L 1027.003906 528.738281 L 1026.191406 531.421875 L 1026.515625 534.105469 L 1025.703125 539.472656 L 1025.507812 544.839844 L 1031.953125 550.210938 L 1044.046875 550.210938 L 1053.699219 552.894531 L 1061.636719 552.894531 L 1068.910156 550.210938 L 1076.71875 550.210938 L 1081.039062 547.523438 L 1081.371094 542.15625 L 1080.050781 539.472656 L 1079.917969 536.789062 L 1081.28125 534.105469 L 1082.179688 531.421875 L 1080.808594 528.738281 L 1076.492188 518 L 1074.472656 515.316406 L 1075.347656 512.632812 L 1076.941406 507.265625 L 1078.433594 504.582031 L 1078.535156 501.898438 L 1077.140625 499.214844 L 1075.074219 491.164062 L 1072.351562 485.792969 L 1070.515625 483.109375 L 1069.050781 480.425781 L 1067.242188 477.742188 L 1063.519531 472.375 L 1057.800781 472.375 L 1049.117188 477.742188 L 1037.273438 477.742188 L 1026.105469 472.375 L 1013.851562 472.375 "/>
</g>
</svg>
