<?xml version="1.0" encoding="UTF-8"?>
<svg xmlns="http://www.w3.org/2000/svg" xmlns:xlink="http://www.w3.org/1999/xlink" width="1428pt" height="1605pt" viewBox="0 0 1428 1605" version="1.1">
<g id="surface279">
<rect x="0" y="0" width="1428" height="1605" style="fill:rgb(100%,100%,100%);fill-opacity:1;stroke:none;"/>
<path style="fill:none;stroke-width:0.75;stroke-linecap:round;stroke-linejoin:round;stroke:rgb(0%,0%,0%);stroke-opacity:1;stroke-miterlimit:10;" d="M 748.75 229.621094 L 733.894531 234.015625 L 721.558594 238.078125 L 711.542969 241.863281 L 703.632812 245.421875 L 697.625 248.8125 L 693.257812 252.089844 L 690.097656 255.324219 L 687.65625 258.589844 L 685.445312 261.957031 L 682.984375 265.507812 L 679.933594 269.285156 L 676.535156 273.253906 L 673.1875 277.363281 L 670.285156 281.550781 L 668.21875 285.761719 L 667.253906 289.957031 L 667.097656 294.191406 L 667.339844 298.53125 L 667.558594 303.054688 L 667.339844 307.832031 L 666.375 312.925781 L 664.804688 318.335938 L 662.882812 324.0625 L 660.859375 330.097656 L 658.992188 336.433594 L 657.476562 343.035156 L 656.304688 349.726562 L 655.421875 356.308594 L 654.765625 362.582031 L 654.277344 368.339844 L 653.886719 373.421875 L 653.515625 377.847656 L 653.070312 381.667969 L 652.457031 384.945312 L 651.585938 387.730469 L 650.375 390.046875 L 648.757812 391.765625 L 646.691406 392.71875 L 644.117188 392.742188 L 640.988281 391.667969 L 637.253906 389.332031 L 632.902344 385.703125 L 628.113281 381.324219 L 623.113281 376.871094 L 618.117188 373.019531 L 613.355469 370.445312 L 608.988281 369.648438 L 604.921875 370.417969 L 601.015625 372.363281 L 597.121094 375.09375 L 593.085938 378.214844 L 588.800781 381.40625 L 584.3125 384.605469 L 579.707031 387.8125 L 575.066406 391.027344 L 570.480469 394.25 L 566.003906 397.503906 L 561.621094 400.847656 L 557.28125 404.371094 L 552.945312 408.15625 L 548.570312 412.28125 L 544.125 416.792969 L 539.675781 421.566406 L 535.296875 426.449219 L 531.070312 431.269531 L 527.078125 435.878906 L 523.402344 440.15625 L 520.144531 444.199219 L 517.40625 448.15625 L 515.292969 452.164062 L 513.90625 456.371094 L 513.304688 460.882812 L 513.355469 465.621094 L 513.890625 470.480469 L 514.730469 475.351562 L 515.695312 480.121094 L 516.667969 484.699219 L 517.722656 489.097656 L 518.996094 493.34375 L 520.621094 497.460938 L 522.730469 501.488281 L 525.449219 505.449219 L 528.839844 509.367188 L 532.640625 513.226562 L 536.519531 517.007812 L 540.140625 520.6875 L 543.164062 524.246094 L 545.355469 527.667969 L 546.863281 530.949219 L 547.9375 534.097656 L 548.820312 537.121094 L 549.761719 540.019531 L 550.90625 542.828125 L 551.996094 545.667969 L 552.664062 548.679688 L 552.550781 552.007812 L 551.292969 555.804688 L 548.667969 560.082031 L 545.019531 564.355469 L 540.816406 568.015625 L 536.546875 570.453125 L 532.679688 571.058594 L 529.527344 569.402344 L 526.714844 565.832031 L 523.695312 560.875 L 519.921875 555.0625 L 514.847656 548.917969 L 508.132812 542.894531 L 500.28125 537.085938 L 492 531.515625 L 483.992188 526.195312 L 476.972656 521.140625 L 471.46875 516.359375 L 467.324219 511.839844 L 464.203125 507.554688 L 461.773438 503.476562 L 459.703125 499.578125 L 457.65625 495.839844 L 455.34375 492.234375 L 452.667969 488.722656 L 449.570312 485.269531 L 445.988281 481.835938 L 441.875 478.386719 L 437.160156 474.890625 L 431.714844 471.367188 L 425.40625 467.839844 L 418.105469 464.332031 L 409.667969 460.871094 L 400.066406 457.46875 L 389.664062 454.09375 L 378.925781 450.699219 L 368.316406 447.242188 L 358.304688 443.667969 L 349.25 440 L 341.113281 436.488281 L 333.746094 433.4375 L 327.011719 431.164062 L 320.765625 429.976562 L 314.800781 430.09375 L 308.679688 431.363281 L 301.90625 433.53125 L 293.980469 436.355469 L 284.410156 439.585938 L 272.929688 443.03125 L 260.222656 446.6875 L 247.210938 450.617188 L 234.8125 454.875 L 223.949219 459.515625 L 215.308594 464.542969 L 208.691406 469.75 L 203.65625 474.871094 L 199.765625 479.65625 L 196.59375 483.835938 L 193.726562 487.25 L 190.890625 490.089844 L 187.828125 492.65625 L 184.292969 495.238281 L 180.03125 498.125 L 174.796875 501.617188 L 168.484375 505.902344 L 161.605469 510.792969 L 154.824219 516.007812 L 148.800781 521.257812 L 144.195312 526.257812 L 141.464844 530.785156 L 140.265625 534.871094 L 140.042969 538.605469 L 140.25 542.078125 L 140.332031 545.386719 L 139.859375 548.613281 L 138.867188 551.820312 L 137.515625 555.050781 L 135.953125 558.363281 L 134.34375 561.808594 L 132.789062 565.425781 L 131.230469 569.226562 L 129.550781 573.203125 L 127.644531 577.355469 L 125.390625 581.679688 L 122.726562 586.175781 L 119.75 590.847656 L 116.605469 595.699219 L 113.433594 600.734375 L 110.378906 605.96875 L 107.539062 611.40625 L 104.832031 617.089844 L 102.128906 623.070312 L 99.316406 629.390625 L 96.257812 636.101562 L 92.886719 643.203125 L 89.324219 650.5 L 85.753906 657.753906 L 82.347656 664.726562 L 79.285156 671.183594 L 76.742188 676.875 L 74.828125 681.65625 L 73.367188 685.6875 L 72.125 689.230469 L 70.855469 692.539062 L 69.316406 695.859375 L 67.335938 699.449219 L 65.035156 703.558594 L 62.585938 708.433594 L 60.175781 714.324219 L 57.988281 721.476562 L 56.164062 730.007812 L 54.691406 739.515625 L 53.507812 749.46875 L 52.566406 759.332031 L 51.808594 768.570312 L 51.175781 776.746094 L 50.632812 783.78125 L 50.132812 789.703125 L 49.632812 794.527344 L 49.089844 798.273438 L 48.464844 801.085938 L 47.707031 803.609375 L 46.769531 806.617188 L 45.605469 810.871094 L 44.167969 817.140625 L 42.453125 825.925781 L 40.625 836.636719 L 38.890625 848.417969 L 37.460938 860.410156 L 36.546875 871.753906 L 36.292969 881.835938 L 36.613281 891.007812 L 37.363281 899.863281 L 38.394531 909 L 39.558594 919.015625 L 40.738281 930.277344 L 41.941406 942.28125 L 43.195312 954.296875 L 44.539062 965.589844 L 46 975.429688 L 47.617188 983.085938 L 49.382812 988.082031 L 51.15625 990.929688 L 52.746094 992.394531 L 53.972656 993.242188 L 54.65625 994.246094 L 54.683594 996.023438 L 54.234375 998.652344 L 53.566406 1002.066406 L 52.9375 1006.203125 L 52.59375 1010.992188 L 52.746094 1016.355469 L 53.382812 1022.105469 L 54.453125 1028.050781 L 55.902344 1033.988281 L 57.671875 1039.722656 L 59.683594 1045.09375 L 61.792969 1050.121094 L 63.832031 1054.855469 L 65.628906 1059.367188 L 67.015625 1063.703125 L 67.921875 1067.925781 L 68.660156 1072.074219 L 69.652344 1076.195312 L 71.304688 1080.324219 L 74.035156 1084.503906 L 78.113281 1088.757812 L 83.253906 1093.066406 L 89.035156 1097.382812 L 95.035156 1101.664062 L 100.828125 1105.875 L 106.070312 1109.972656 L 110.726562 1113.945312 L 114.859375 1117.773438 L 118.515625 1121.445312 L 121.746094 1124.949219 L 124.605469 1128.265625 L 127.15625 1131.421875 L 129.519531 1134.539062 L 131.824219 1137.792969 L 134.207031 1141.339844 L 136.796875 1145.34375 L 139.699219 1149.929688 L 142.90625 1155.027344 L 146.386719 1160.535156 L 150.109375 1166.339844 L 154.03125 1172.332031 L 158.125 1178.402344 L 162.328125 1184.414062 L 166.589844 1190.226562 L 170.84375 1195.695312 L 175.035156 1200.683594 L 179.070312 1205.089844 L 182.710938 1208.976562 L 185.675781 1212.441406 L 187.695312 1215.589844 L 188.492188 1218.519531 L 187.980469 1221.335938 L 186.84375 1224.144531 L 185.96875 1227.039062 L 186.222656 1230.132812 L 188.484375 1233.523438 L 193.300781 1237.277344 L 199.863281 1241.28125 L 207.027344 1245.386719 L 213.65625 1249.449219 L 218.597656 1253.308594 L 221.0625 1256.867188 L 221.609375 1260.203125 L 221.15625 1263.441406 L 220.613281 1266.699219 L 220.890625 1270.105469 L 222.679688 1273.757812 L 225.816406 1277.644531 L 229.910156 1281.738281 L 234.574219 1285.996094 L 239.429688 1290.386719 L 244.082031 1294.875 L 248.253906 1299.414062 L 252.074219 1303.90625 L 255.769531 1308.238281 L 259.578125 1312.296875 L 263.726562 1315.976562 L 268.363281 1319.21875 L 273.320312 1322.191406 L 278.328125 1325.121094 L 283.136719 1328.238281 L 287.488281 1331.761719 L 291.375 1335.828125 L 295.847656 1340.1875 L 302.195312 1344.496094 L 311.71875 1348.410156 L 325.71875 1351.585938 L 344.886719 1353.757812 L 367.488281 1354.96875 L 391.175781 1355.347656 L 413.609375 1355.019531 L 432.449219 1354.101562 L 445.972656 1352.71875 L 454.96875 1350.945312 L 460.847656 1348.859375 L 465.019531 1346.535156 L 468.898438 1344.046875 L 473.582031 1341.476562 L 478.957031 1338.898438 L 484.585938 1336.398438 L 490.042969 1334.058594 L 494.894531 1331.960938 L 498.890625 1330.203125 L 502.472656 1328.90625 L 506.269531 1328.210938 L 510.898438 1328.246094 L 516.984375 1329.152344 L 525.144531 1331.066406 L 535.75 1334.042969 L 548.117188 1337.84375 L 561.304688 1342.148438 L 574.378906 1346.632812 L 586.398438 1350.980469 L 596.644531 1354.9375 L 605.265625 1358.484375 L 612.632812 1361.675781 L 619.121094 1364.5625 L 625.09375 1367.195312 L 630.921875 1369.585938 L 636.949219 1371.613281 L 643.515625 1373.121094 L 650.96875 1373.953125 L 659.644531 1373.957031 L 669.730469 1373.039062 L 680.765625 1371.371094 L 692.128906 1369.199219 L 703.195312 1366.761719 L 713.355469 1364.292969 L 722.144531 1361.980469 L 729.777344 1359.765625 L 736.617188 1357.523438 L 743.042969 1355.144531 L 749.417969 1352.507812 L 756.042969 1349.53125 L 762.875 1346.277344 L 769.800781 1342.847656 L 776.707031 1339.339844 L 783.472656 1335.855469 L 790.007812 1332.464844 L 796.308594 1329.140625 L 802.394531 1325.824219 L 808.285156 1322.460938 L 814 1318.992188 L 819.542969 1315.378906 L 824.890625 1311.671875 L 829.992188 1307.921875 L 834.8125 1304.195312 L 839.300781 1300.554688 L 843.417969 1297.054688 L 847.164062 1293.742188 L 850.679688 1290.542969 L 854.160156 1287.378906 L 857.785156 1284.15625 L 861.742188 1280.792969 L 866.167969 1277.210938 L 870.945312 1273.421875 L 875.921875 1269.441406 L 880.929688 1265.292969 L 885.804688 1260.996094 L 890.449219 1256.542969 L 895.015625 1251.824219 L 899.726562 1246.695312 L 904.796875 1241.023438 L 910.449219 1234.664062 L 916.824219 1227.539062 L 923.765625 1219.828125 L 931.039062 1211.773438 L 938.410156 1203.609375 L 945.648438 1195.578125 L 952.558594 1187.875 L 959.121094 1180.496094 L 965.347656 1173.402344 L 971.265625 1166.546875 L 976.886719 1159.878906 L 982.195312 1153.375 L 987.058594 1147.050781 L 991.304688 1140.953125 L 994.765625 1135.113281 L 997.265625 1129.574219 L 998.722656 1124.335938 L 999.390625 1119.277344 L 999.613281 1114.230469 L 999.730469 1109.035156 L 1000.082031 1103.527344 L 1001.003906 1097.550781 L 1002.722656 1091.003906 L 1004.953125 1084.070312 L 1007.304688 1076.988281 L 1009.375 1070.007812 L 1010.769531 1063.367188 L 1011.222656 1057.273438 L 1011.042969 1051.75 L 1010.660156 1046.769531 L 1010.519531 1042.320312 L 1011.054688 1038.375 L 1012.585938 1034.902344 L 1014.929688 1031.835938 L 1017.785156 1029.089844 L 1020.859375 1026.585938 L 1023.847656 1024.234375 L 1026.496094 1021.882812 L 1028.734375 1019.058594 L 1030.550781 1015.207031 L 1031.917969 1009.785156 L 1032.816406 1002.242188 L 1033.269531 992.289062 L 1033.449219 980.6875 L 1033.582031 968.460938 L 1033.875 956.636719 L 1034.546875 946.234375 L 1035.753906 937.996094 L 1037.359375 931.511719 L 1039.171875 926.082031 L 1040.996094 921.019531 L 1042.628906 915.625 L 1043.941406 909.304688 L 1045.015625 901.863281 L 1046.007812 893.207031 L 1047.074219 883.246094 L 1048.355469 871.886719 L 1049.949219 859.132812 L 1051.71875 845.410156 L 1053.460938 831.238281 L 1054.976562 817.140625 L 1056.066406 803.632812 L 1056.535156 791.246094 L 1056.253906 780.367188 L 1055.359375 770.898438 L 1054.066406 762.597656 L 1052.582031 755.238281 L 1051.125 748.589844 L 1049.859375 742.429688 L 1048.785156 736.636719 L 1047.863281 731.09375 L 1047.054688 725.691406 L 1046.316406 720.320312 L 1045.613281 714.90625 L 1044.929688 709.566406 L 1044.253906 704.457031 L 1043.574219 699.734375 L 1042.882812 695.550781 L 1042.167969 691.988281 L 1041.414062 688.816406 L 1040.601562 685.738281 L 1039.722656 682.445312 L 1038.757812 678.636719 L 1037.699219 674.066406 L 1036.554688 668.746094 L 1035.347656 662.738281 L 1034.097656 656.113281 L 1032.820312 648.929688 L 1031.53125 641.300781 L 1030.222656 633.511719 L 1028.890625 625.890625 L 1027.523438 618.757812 L 1026.109375 612.445312 L 1024.652344 607.175781 L 1023.179688 602.78125 L 1021.722656 598.988281 L 1020.324219 595.527344 L 1019.011719 592.128906 L 1017.828125 588.515625 L 1016.765625 584.492188 L 1015.679688 580.117188 L 1014.378906 575.523438 L 1012.679688 570.839844 L 1010.386719 566.203125 L 1007.40625 561.703125 L 1003.964844 557.257812 L 1000.382812 552.75 L 996.980469 548.058594 L 994.074219 543.070312 L 991.945312 537.742188 L 990.710938 532.375 L 990.464844 527.339844 L 991.28125 523.015625 L 993.246094 519.78125 L 996.339844 517.917969 L 1000.089844 517.316406 L 1003.925781 517.789062 L 1007.265625 519.128906 L 1009.542969 521.140625 L 1010.367188 523.644531 L 1010.105469 526.519531 L 1009.316406 529.679688 L 1008.554688 533.015625 L 1008.378906 536.441406 L 1009.234375 539.867188 L 1011.136719 543.3125 L 1013.992188 546.796875 L 1017.703125 550.347656 L 1022.175781 553.996094 L 1027.269531 557.746094 L 1032.671875 561.53125 L 1038.023438 565.261719 L 1042.964844 568.847656 L 1047.136719 572.195312 L 1050.257812 575.273438 L 1052.367188 578.269531 L 1053.582031 581.414062 L 1054.023438 584.953125 L 1053.804688 589.117188 L 1053.050781 594.152344 L 1051.964844 600.1875 L 1051.144531 606.941406 L 1051.261719 614.023438 L 1053.003906 621.042969 L 1057.050781 627.613281 L 1063.765625 633.335938 L 1072.242188 637.789062 L 1081.257812 640.546875 L 1089.578125 641.175781 L 1095.984375 639.25 L 1099.597656 634.574219 L 1100.957031 627.878906 L 1100.941406 620.128906 L 1100.441406 612.292969 L 1100.335938 605.332031 L 1101.261719 599.925781 L 1102.835938 595.59375 L 1104.425781 591.570312 L 1105.390625 587.082031 L 1105.101562 581.363281 L 1103.140625 573.929688 L 1099.992188 565.425781 L 1096.347656 556.777344 L 1092.910156 548.914062 L 1090.378906 542.761719 L 1089.25 538.945312 L 1089.246094 536.875 L 1089.878906 535.660156 L 1090.671875 534.410156 L 1091.140625 532.230469 L 1090.917969 528.449219 L 1090.101562 523.253906 L 1088.902344 517.042969 L 1087.535156 510.222656 L 1086.203125 503.191406 L 1085.128906 496.355469 L 1084.351562 490.035156 L 1083.257812 484.238281 L 1081.078125 478.890625 L 1077.027344 473.925781 L 1070.332031 469.261719 L 1060.539062 464.863281 L 1048.5 460.773438 L 1035.390625 457.070312 L 1022.386719 453.835938 L 1010.664062 451.144531 L 1001.128906 449.078125 L 993.609375 447.707031 L 987.667969 447.117188 L 982.859375 447.386719 L 978.75 448.59375 L 975.007812 450.746094 L 971.730469 453.605469 L 969.136719 456.847656 L 967.441406 460.167969 L 966.851562 463.25 L 967.394531 465.804688 L 968.335938 467.652344 L 968.75 468.640625 L 967.71875 468.621094 L 964.3125 467.433594 L 957.972656 465.007812 L 949.609375 461.582031 L 940.484375 457.464844 L 931.867188 452.972656 L 925.027344 448.414062 L 920.882812 444.042969 L 918.96875 439.839844 L 918.464844 435.707031 L 918.558594 431.570312 L 918.433594 427.332031 L 917.4375 422.925781 L 915.601562 418.332031 L 913.113281 413.539062 L 910.167969 408.546875 L 906.960938 403.347656 L 903.679688 397.9375 L 900.507812 392.332031 L 897.554688 386.65625 L 894.925781 381.050781 L 892.710938 375.660156 L 891.019531 370.632812 L 889.875 366.0625 L 889.046875 361.828125 L 888.234375 357.765625 L 887.128906 353.703125 L 885.429688 349.472656 L 882.941406 344.960938 L 879.894531 340.25 L 876.625 335.476562 L 873.46875 330.78125 L 870.761719 326.296875 L 868.722656 322.109375 L 867.109375 318.074219 L 865.558594 314 L 863.707031 309.6875 L 861.199219 304.945312 L 857.777344 299.636719 L 853.648438 293.898438 L 849.125 287.917969 L 844.527344 281.894531 L 840.160156 276.015625 L 836.207031 270.4375 L 832.308594 265.167969 L 827.960938 260.160156 L 822.667969 255.378906 L 815.9375 250.792969 L 807.402344 246.363281 L 797.269531 242.097656 L 785.871094 238.011719 L 773.550781 234.109375 L 760.648438 230.410156 L 747.496094 226.917969 L 748.75 229.621094 "/>
<path style="fill:none;stroke-width:0.75;stroke-linecap:round;stroke-linejoin:round;stroke:rgb(0%,0%,0%);stroke-opacity:1;stroke-miterlimit:10;" d="M 311.664062 429.40625 L 306.359375 431.335938 L 301.679688 433.488281 L 295.566406 436.175781 L 286.417969 439.59375 L 274.476562 443.457031 L 260.441406 447.355469 L 245.300781 451.023438 L 231.199219 454.777344 L 220.578125 459.058594 L 214.945312 464.148438 L 212.058594 469.628906 L 208.75 474.914062 L 202.789062 479.535156 L 195.722656 483.558594 L 190.03125 487.160156 L 187.417969 490.503906 L 186.480469 493.582031 L 185.035156 496.375 L 181.386719 498.925781 L 175.828125 501.585938 L 169.144531 504.78125 L 162.117188 508.949219 L 155.4375 514.328125 L 149.464844 520.410156 L 144.457031 526.496094 L 140.683594 531.988281 L 138.414062 536.671875 L 137.9375 540.429688 L 139.230469 543.246094 L 141.070312 545.46875 L 141.925781 547.554688 L 140.726562 549.929688 L 138.21875 552.941406 L 135.597656 556.917969 L 133.757812 561.957031 L 132.410156 567.265625 L 130.953125 571.820312 L 128.964844 574.9375 L 126.640625 577.300781 L 124.351562 579.929688 L 122.464844 583.847656 L 121.085938 589.671875 L 119.316406 596.417969 L 115.984375 602.691406 L 110.519531 607.511719 L 104.660156 611.570312 L 100.742188 615.953125 L 100.210938 621.523438 L 101.015625 628.195312 L 100.214844 635.636719 L 95.785156 643.511719 L 89.300781 651.410156 L 83.246094 658.914062 L 79.527344 665.671875 L 77.734375 671.617188 L 76.867188 676.765625 L 76.082031 681.160156 L 75.066406 685.039062 L 73.667969 688.675781 L 71.722656 692.34375 L 69.160156 696.25 L 66.3125 700.304688 L 63.597656 704.355469 L 61.355469 708.425781 L 59.585938 713.300781 L 58.195312 719.9375 L 57.066406 728.9375 L 55.964844 739.449219 L 54.613281 750.242188 L 52.882812 760.289062 L 51.164062 769.292969 L 49.980469 777.148438 L 49.683594 783.800781 L 49.894531 789.394531 L 50.0625 794.121094 L 49.757812 798.160156 L 48.988281 801.679688 L 47.882812 804.824219 L 46.578125 807.753906 L 45.179688 810.839844 L 43.742188 815.394531 L 42.308594 822.9375 L 40.90625 834.398438 L 39.523438 848.300781 L 38.148438 862.554688 L 36.824219 875.320312 L 35.878906 885.691406 L 35.703125 892.996094 L 36.539062 897.367188 L 38.035156 902.097656 L 39.699219 911.285156 L 41.148438 927.417969 L 42.414062 946.5625 L 43.644531 963.1875 L 44.953125 973.160156 L 46.324219 977.980469 L 47.710938 980.546875 L 49.074219 983.238281 L 50.433594 986.332031 L 51.808594 989.570312 L 53.222656 992.703125 L 54.617188 995.550781 L 55.601562 998.234375 L 55.6875 1000.941406 L 54.625 1003.851562 L 53.058594 1007.0625 L 51.859375 1010.65625 L 51.710938 1014.757812 L 52.535156 1019.648438 L 54.070312 1025.640625 L 56.046875 1032.828125 L 58.210938 1040.375 L 60.308594 1047.222656 L 62.140625 1052.566406 L 63.746094 1056.671875 L 65.21875 1060.054688 L 66.636719 1063.207031 L 67.984375 1066.464844 L 69.230469 1070.128906 L 70.34375 1074.503906 L 71.453125 1079.71875 L 73.339844 1085.210938 L 76.945312 1090.25 L 82.78125 1094.335938 L 89.683594 1097.882812 L 96.0625 1101.535156 L 100.820312 1105.734375 L 104.773438 1110.09375 L 109.226562 1114.019531 L 114.972656 1117.148438 L 120.769531 1120.046875 L 124.851562 1123.511719 L 126.097656 1128.027344 L 125.90625 1132.851562 L 126.292969 1136.914062 L 128.789062 1139.527344 L 132.886719 1141.433594 L 137.589844 1143.746094 L 141.890625 1147.578125 L 145.082031 1153.617188 L 147.667969 1160.863281 L 150.441406 1167.894531 L 153.964844 1173.65625 L 157.847656 1178.605469 L 161.46875 1183.566406 L 164.511719 1189.144531 L 167.863281 1195.042969 L 172.714844 1200.742188 L 179.621094 1205.796875 L 186.585938 1210.0625 L 190.980469 1213.464844 L 191.003906 1216.03125 L 188.164062 1218.179688 L 184.808594 1220.445312 L 182.90625 1223.230469 L 182.929688 1226.503906 L 184.96875 1230.109375 L 189.117188 1233.902344 L 195.238281 1237.75 L 202.257812 1241.59375 L 208.867188 1245.394531 L 214.003906 1249.132812 L 217.578125 1252.863281 L 219.761719 1256.652344 L 220.78125 1260.507812 L 221.125 1264.222656 L 221.347656 1267.53125 L 221.949219 1270.316406 L 223.242188 1273.078125 L 225.484375 1276.46875 L 228.855469 1280.921875 L 233.195312 1286.011719 L 238.265625 1291.085938 L 243.765625 1295.644531 L 249.179688 1299.785156 L 253.914062 1303.746094 L 257.589844 1307.722656 L 260.597656 1311.695312 L 263.535156 1315.59375 L 266.992188 1319.351562 L 271.410156 1322.898438 L 276.632812 1326.203125 L 282.34375 1329.234375 L 288.214844 1332.03125 L 293.835938 1334.964844 L 298.78125 1338.472656 L 303.265625 1342.808594 L 310.085938 1347.460938 L 322.683594 1351.742188 L 343.09375 1354.976562 L 367.699219 1356.578125 L 391.476562 1355.980469 L 410.339844 1352.980469 L 423.917969 1348.8125 L 432.785156 1345.074219 L 437.65625 1342.953125 L 439.84375 1342.007812 L 440.792969 1341.390625 L 441.960938 1340.261719 L 444.503906 1338.078125 L 448.398438 1335.519531 L 453.320312 1333.585938 L 458.90625 1332.511719 L 464.601562 1329.5625 L 469.796875 1321.242188 L 473.996094 1305.4375 L 477.148438 1285.515625 L 479.308594 1266.226562 L 480.597656 1251.371094 L 481.425781 1240.96875 L 482.28125 1234.101562 L 483.527344 1229.832031 L 485.046875 1227.136719 L 486.605469 1224.96875 L 488.019531 1222.4375 L 489.316406 1219.269531 L 490.558594 1215.347656 L 491.832031 1210.550781 L 493.183594 1204.894531 L 494.578125 1198.898438 L 495.964844 1193.222656 L 497.304688 1188.371094 L 498.617188 1184.210938 L 499.933594 1180.46875 L 501.277344 1176.890625 L 502.636719 1173.332031 L 503.996094 1169.671875 L 505.335938 1165.8125 L 506.667969 1161.773438 L 508 1157.589844 L 509.339844 1153.292969 L 510.6875 1148.871094 L 512.035156 1144.316406 L 513.378906 1139.652344 L 514.722656 1135.074219 L 516.0625 1130.816406 L 517.402344 1127.113281 L 518.738281 1124.113281 L 520.078125 1121.617188 L 521.421875 1119.328125 L 522.769531 1116.949219 L 524.117188 1114.140625 L 525.460938 1110.542969 L 526.796875 1105.949219 L 528.132812 1100.679688 L 529.46875 1095.195312 L 530.816406 1089.839844 L 532.164062 1084.53125 L 533.511719 1079.074219 L 534.851562 1073.222656 L 536.1875 1066.5625 L 537.523438 1058.636719 L 538.867188 1049.203125 L 540.210938 1038.917969 L 541.554688 1028.667969 L 542.902344 1019.082031 L 544.246094 1009.8125 L 545.589844 1000.265625 L 546.925781 989.847656 L 548.257812 978.285156 L 549.59375 966.578125 L 550.9375 956.042969 L 552.296875 947.582031 L 553.65625 940.382812 L 554.996094 933.222656 L 556.308594 924.625 L 557.617188 912.101562 L 558.964844 892.917969 L 560.367188 866.105469 L 561.773438 837.777344 L 563.109375 815.820312 L 564.332031 805.480469 L 565.542969 801.449219 L 566.878906 795.777344 L 568.417969 782.34375 L 570.023438 762.339844 L 571.503906 738.773438 L 572.660156 714.664062 L 573.328125 692.652344 L 573.398438 673.898438 L 572.800781 659.195312 L 571.527344 648.871094 L 569.882812 641.402344 L 568.246094 634.800781 L 566.90625 627.28125 L 565.753906 617.824219 L 564.585938 605.601562 L 563.21875 590.4375 L 561.507812 574.738281 L 559.316406 561.570312 L 556.566406 553.394531 L 553.421875 550.34375 L 550.082031 551.96875 L 546.726562 557.472656 L 543.394531 564.746094 L 540.085938 571.339844 L 536.804688 574.804688 L 533.546875 573.464844 L 530.289062 568.71875 L 526.992188 562.746094 L 523.546875 557.316406 L 519.535156 552.609375 L 514.449219 548.398438 L 507.976562 544.390625 L 500.519531 540.011719 L 492.664062 534.613281 L 484.964844 527.859375 L 477.824219 520.640625 L 471.621094 514.171875 L 466.632812 509.335938 L 462.804688 505.773438 L 459.984375 502.796875 L 458.007812 499.835938 L 456.617188 496.734375 L 455.53125 493.449219 L 454.480469 489.9375 L 453.023438 486.171875 L 450.128906 482.21875 L 444.601562 478.15625 L 435.921875 474.097656 L 426.25 470.234375 L 418.425781 466.78125 L 414.21875 463.847656 L 411.1875 461.160156 L 405.832031 458.339844 L 395.652344 455.085938 L 382.207031 451.433594 L 368.0625 447.496094 L 355.4375 443.421875 L 345.160156 439.515625 L 337.714844 436.097656 L 333.089844 433.429688 L 329.296875 431.441406 L 323.855469 429.992188 L 314.285156 428.945312 L 311.664062 429.40625 "/>
<path style="fill:none;stroke-width:0.75;stroke-linecap:round;stroke-linejoin:round;stroke:rgb(0%,0%,0%);stroke-opacity:1;stroke-miterlimit:10;" d="M 698.660156 504.992188 L 693.65625 506.476562 L 688.3125 507.90625 L 682.917969 509.289062 L 677.75 510.644531 L 673.09375 511.984375 L 669.152344 513.316406 L 665.824219 514.640625 L 662.921875 515.964844 L 660.269531 517.289062 L 657.679688 518.609375 L 655 519.941406 L 652.179688 521.339844 L 649.191406 522.878906 L 646.019531 524.617188 L 642.632812 526.632812 L 639.039062 528.976562 L 635.378906 531.640625 L 631.820312 534.609375 L 628.527344 537.859375 L 625.671875 541.371094 L 623.359375 545.113281 L 621.449219 549.015625 L 619.742188 552.992188 L 618.03125 556.953125 L 616.117188 560.816406 L 613.847656 564.53125 L 611.261719 568.164062 L 608.457031 571.816406 L 605.515625 575.597656 L 602.535156 579.601562 L 599.609375 583.933594 L 596.808594 588.625 L 594.179688 593.421875 L 591.742188 598 L 589.527344 602.035156 L 587.558594 605.203125 L 585.851562 607.378906 L 584.347656 609.261719 L 582.992188 611.742188 L 581.714844 615.71875 L 580.457031 622.082031 L 579.160156 631.523438 L 577.832031 643.875 L 576.480469 658.761719 L 575.113281 675.816406 L 573.753906 694.65625 L 572.402344 714.859375 L 571.0625 735.828125 L 569.726562 756.902344 L 568.394531 777.433594 L 567.0625 796.765625 L 565.722656 814.421875 L 564.378906 830.628906 L 563.03125 845.789062 L 561.6875 860.3125 L 560.339844 874.589844 L 558.996094 888.960938 L 557.65625 903.453125 L 556.316406 918.023438 L 553.636719 947.242188 L 552.292969 961.808594 L 550.953125 976.273438 L 549.609375 990.523438 L 548.265625 1004.429688 L 546.921875 1017.867188 L 545.582031 1030.699219 L 544.238281 1042.773438 L 542.898438 1053.851562 L 541.554688 1063.652344 L 540.214844 1071.910156 L 538.875 1078.355469 L 537.53125 1082.867188 L 536.191406 1085.941406 L 534.847656 1088.21875 L 533.503906 1090.34375 L 532.164062 1092.960938 L 530.820312 1096.542969 L 529.476562 1100.859375 L 528.132812 1105.507812 L 526.792969 1110.089844 L 525.449219 1114.203125 L 524.109375 1117.5625 L 522.773438 1120.371094 L 521.433594 1122.949219 L 520.09375 1125.621094 L 518.75 1128.707031 L 517.402344 1132.445312 L 516.054688 1136.753906 L 514.707031 1141.457031 L 513.359375 1146.390625 L 512.019531 1151.390625 L 510.679688 1156.28125 L 509.351562 1160.925781 L 508.023438 1165.277344 L 506.691406 1169.328125 L 505.355469 1173.0625 L 504.003906 1176.464844 L 502.640625 1179.578125 L 501.269531 1182.671875 L 499.902344 1186.0625 L 498.550781 1190.078125 L 497.222656 1195.039062 L 495.921875 1201.089844 L 494.632812 1207.621094 L 493.34375 1213.851562 L 492.03125 1218.988281 L 490.675781 1222.246094 L 489.265625 1223.242188 L 487.816406 1223.191406 L 486.347656 1223.714844 L 484.882812 1226.429688 L 483.4375 1232.953125 L 482.058594 1244.335938 L 480.902344 1259.308594 L 480.140625 1276.035156 L 479.945312 1292.671875 L 480.496094 1307.386719 L 481.914062 1318.714844 L 484.09375 1326.738281 L 486.882812 1331.917969 L 490.125 1334.714844 L 493.667969 1335.59375 L 497.351562 1335.007812 L 501.132812 1333.453125 L 505.378906 1331.519531 L 510.570312 1329.832031 L 517.191406 1329.007812 L 525.71875 1329.667969 L 536.410156 1332.230469 L 548.644531 1336.300781 L 561.582031 1341.269531 L 574.371094 1346.542969 L 586.175781 1351.511719 L 596.34375 1355.707031 L 605.007812 1359.171875 L 612.488281 1362.089844 L 619.109375 1364.628906 L 625.195312 1366.976562 L 631.078125 1369.238281 L 637.105469 1371.273438 L 643.632812 1372.882812 L 651.015625 1373.863281 L 659.609375 1374.003906 L 669.613281 1373.179688 L 680.578125 1371.5625 L 691.910156 1369.390625 L 703.003906 1366.910156 L 713.257812 1364.363281 L 722.226562 1361.941406 L 730.050781 1359.609375 L 737.039062 1357.289062 L 743.488281 1354.894531 L 749.695312 1352.34375 L 755.960938 1349.546875 L 762.519531 1346.449219 L 769.316406 1343.113281 L 776.226562 1339.621094 L 783.128906 1336.054688 L 789.898438 1332.503906 L 796.433594 1329.03125 L 802.707031 1325.617188 L 808.707031 1322.21875 L 814.429688 1318.792969 L 819.859375 1315.292969 L 824.996094 1311.695312 L 829.859375 1308.039062 L 834.460938 1304.367188 L 838.828125 1300.738281 L 842.976562 1297.199219 L 846.9375 1293.785156 L 850.78125 1290.464844 L 854.585938 1287.1875 L 858.429688 1283.902344 L 862.386719 1280.558594 L 866.527344 1277.105469 L 870.851562 1273.503906 L 875.355469 1269.710938 L 880.023438 1265.683594 L 884.851562 1261.378906 L 889.828125 1256.757812 L 894.949219 1251.769531 L 900.253906 1246.378906 L 905.785156 1240.535156 L 911.574219 1234.1875 L 917.671875 1227.292969 L 924.097656 1219.84375 L 930.789062 1211.996094 L 937.664062 1203.949219 L 944.636719 1195.894531 L 951.628906 1188.03125 L 958.542969 1180.519531 L 965.265625 1173.34375 L 971.660156 1166.460938 L 977.597656 1159.816406 L 982.945312 1153.367188 L 987.589844 1147.074219 L 991.492188 1140.96875 L 994.628906 1135.082031 L 996.972656 1129.457031 L 998.503906 1124.132812 L 999.257812 1119.101562 L 999.519531 1114.1875 L 999.640625 1109.167969 L 999.964844 1103.816406 L 1000.839844 1097.910156 L 1002.503906 1091.3125 L 1004.714844 1084.222656 L 1007.132812 1076.925781 L 1009.40625 1069.699219 L 1011.183594 1062.835938 L 1012.125 1056.609375 L 1012.027344 1051.238281 L 1011.308594 1046.632812 L 1010.546875 1042.632812 L 1010.3125 1039.074219 L 1011.171875 1035.800781 L 1013.507812 1032.671875 L 1016.933594 1029.632812 L 1020.863281 1026.652344 L 1024.722656 1023.699219 L 1027.929688 1020.742188 L 1030.050781 1017.660156 L 1031.238281 1013.996094 L 1031.789062 1009.195312 L 1032.011719 1002.71875 L 1032.195312 994.015625 L 1032.59375 982.835938 L 1033.230469 970.136719 L 1034.09375 957.175781 L 1035.148438 945.214844 L 1036.378906 935.503906 L 1037.757812 928.886719 L 1039.230469 924.511719 L 1040.742188 921.125 L 1042.234375 917.457031 L 1043.652344 912.246094 L 1044.960938 904.53125 L 1046.191406 894.554688 L 1047.402344 882.855469 L 1048.640625 869.980469 L 1049.96875 856.464844 L 1051.4375 842.859375 L 1053.050781 829.621094 L 1054.628906 816.898438 L 1055.925781 804.765625 L 1056.71875 793.285156 L 1056.761719 782.53125 L 1055.921875 772.558594 L 1054.421875 763.398438 L 1052.582031 755.074219 L 1050.726562 747.597656 L 1049.171875 740.996094 L 1048.15625 735.238281 L 1047.5625 730.109375 L 1047.195312 725.339844 L 1046.859375 720.667969 L 1046.359375 715.835938 L 1045.546875 710.65625 L 1044.511719 705.324219 L 1043.386719 700.113281 L 1042.3125 695.289062 L 1041.429688 691.136719 L 1040.824219 687.804688 L 1040.382812 684.960938 L 1039.953125 682.152344 L 1039.367188 678.933594 L 1038.464844 674.851562 L 1037.144531 669.59375 L 1035.519531 663.433594 L 1033.757812 656.78125 L 1032.035156 650.050781 L 1030.515625 643.660156 L 1029.375 638.015625 L 1028.695312 633.402344 L 1028.222656 629.570312 L 1027.617188 626.136719 L 1026.542969 622.726562 L 1024.652344 618.960938 L 1021.734375 614.582031 L 1018.046875 609.863281 L 1013.972656 605.207031 L 1009.898438 601.011719 L 1006.199219 597.675781 L 1003.136719 595.449219 L 1000.453125 593.964844 L 997.773438 592.710938 L 994.71875 591.171875 L 990.90625 588.832031 L 986.054688 585.308594 L 980.257812 580.734375 L 973.707031 575.386719 L 966.589844 569.527344 L 959.105469 563.429688 L 951.445312 557.347656 L 943.832031 551.457031 L 936.496094 545.914062 L 929.664062 540.878906 L 923.570312 536.511719 L 918.371094 532.953125 L 913.9375 530.300781 L 910.070312 528.632812 L 906.570312 528.027344 L 903.242188 528.5625 L 899.886719 530.320312 L 896.375 533.394531 L 892.878906 537.945312 L 889.640625 544.160156 L 886.90625 552.21875 L 884.921875 562.300781 L 883.820312 574.363281 L 883.320312 587.472656 L 883.039062 600.472656 L 882.585938 612.207031 L 881.574219 621.515625 L 879.765625 627.640625 L 877.488281 631.378906 L 875.226562 633.929688 L 873.457031 636.488281 L 872.660156 640.257812 L 873.15625 646.09375 L 874.652344 653.535156 L 876.695312 661.777344 L 878.832031 670.019531 L 880.613281 677.464844 L 881.671875 683.507812 L 882.03125 688.34375 L 881.804688 692.367188 L 881.105469 695.96875 L 880.039062 699.546875 L 878.726562 703.488281 L 877.265625 708.160156 L 875.734375 713.78125 L 874.199219 720.542969 L 872.734375 728.636719 L 871.402344 738.253906 L 870.242188 749.441406 L 869.171875 761.675781 L 868.089844 774.296875 L 866.875 786.636719 L 865.425781 798.03125 L 863.683594 807.945312 L 861.808594 816.355469 L 860.015625 823.363281 L 858.527344 829.074219 L 857.550781 833.585938 L 857.175781 837.050781 L 856.957031 839.789062 L 856.316406 842.164062 L 854.683594 844.546875 L 851.480469 847.296875 L 846.347656 850.679688 L 839.785156 854.5625 L 832.515625 858.703125 L 825.25 862.867188 L 818.707031 866.816406 L 813.453125 870.375 L 809.40625 873.632812 L 806.34375 876.730469 L 804.035156 879.816406 L 802.25 883.046875 L 800.757812 886.5625 L 799.484375 890.425781 L 798.972656 894.351562 L 799.914062 897.96875 L 803 900.894531 L 808.925781 902.765625 L 818.011719 903.375 L 829.070312 903.210938 L 840.539062 902.941406 L 850.859375 903.21875 L 858.464844 904.707031 L 862.246094 907.875 L 862.871094 912.386719 L 861.457031 917.71875 L 859.125 923.34375 L 856.992188 928.734375 L 855.894531 933.46875 L 855.5625 937.554688 L 855.449219 941.105469 L 854.996094 944.226562 L 853.660156 947.039062 L 851.097656 949.667969 L 847.820312 952.320312 L 844.546875 955.226562 L 841.996094 958.613281 L 840.894531 962.699219 L 841.726562 967.636719 L 844.078125 973.238281 L 847.292969 979.246094 L 850.71875 985.394531 L 853.710938 991.421875 L 855.617188 997.066406 L 855.914062 1002.09375 L 854.59375 1006.386719 L 851.773438 1009.855469 L 847.570312 1012.410156 L 842.105469 1013.960938 L 835.578125 1014.542969 L 828.511719 1014.683594 L 821.503906 1015.039062 L 815.164062 1016.261719 L 810.09375 1019.003906 L 806.695312 1023.707031 L 804.578125 1029.957031 L 803.148438 1037.128906 L 801.816406 1044.59375 L 799.992188 1051.730469 L 797.242188 1058.042969 L 793.765625 1063.554688 L 789.921875 1068.421875 L 786.078125 1072.792969 L 782.589844 1076.824219 L 779.757812 1080.667969 L 777.628906 1084.449219 L 776.203125 1088.289062 L 775.46875 1092.3125 L 775.414062 1096.640625 L 776.003906 1101.359375 L 777.082031 1106.421875 L 778.46875 1111.75 L 779.980469 1117.253906 L 781.4375 1122.859375 L 782.652344 1128.480469 L 783.539062 1133.976562 L 784.359375 1138.988281 L 785.480469 1143.09375 L 787.257812 1145.871094 L 790.054688 1146.902344 L 794.046875 1145.90625 L 798.695312 1143.203125 L 803.277344 1139.25 L 807.0625 1134.511719 L 809.335938 1129.441406 L 809.640625 1124.472656 L 808.589844 1119.921875 L 807.074219 1116.066406 L 805.980469 1113.199219 L 806.195312 1111.601562 L 808.308594 1111.496094 L 811.722656 1112.871094 L 815.550781 1115.644531 L 818.90625 1119.738281 L 820.894531 1125.085938 L 820.878906 1131.519531 L 819.25 1138.542969 L 816.640625 1145.585938 L 813.695312 1152.058594 L 811.054688 1157.386719 L 809.179688 1161.171875 L 807.835938 1163.722656 L 806.625 1165.519531 L 805.136719 1167.058594 L 802.960938 1168.816406 L 799.699219 1171.289062 L 795.09375 1174.734375 L 789.527344 1178.535156 L 783.523438 1181.847656 L 777.621094 1183.828125 L 772.347656 1183.628906 L 768.078125 1180.777344 L 764.558594 1176.238281 L 761.371094 1171.347656 L 758.101562 1167.441406 L 754.335938 1165.847656 L 749.785156 1167.585938 L 744.664062 1172.398438 L 739.296875 1179.699219 L 734.027344 1188.914062 L 729.1875 1199.460938 L 725.03125 1210.761719 L 721.511719 1222.238281 L 718.507812 1233.3125 L 715.894531 1243.410156 L 713.546875 1251.949219 L 711.347656 1258.476562 L 709.1875 1263.035156 L 706.980469 1265.773438 L 704.621094 1266.859375 L 702.019531 1266.449219 L 699.15625 1264.695312 L 696.351562 1261.761719 L 694.003906 1257.792969 L 692.511719 1252.941406 L 692.273438 1247.363281 L 693.691406 1241.207031 L 696.9375 1234.671875 L 701.277344 1228.132812 L 705.746094 1222.019531 L 709.382812 1216.746094 L 711.226562 1212.742188 L 710.59375 1210.277344 L 707.882812 1209.015625 L 703.773438 1208.464844 L 698.953125 1208.136719 L 694.089844 1207.542969 L 689.75 1206.269531 L 685.996094 1204.199219 L 682.765625 1201.28125 L 680.003906 1197.480469 L 677.65625 1192.746094 L 675.667969 1187.113281 L 674.027344 1180.941406 L 672.71875 1174.660156 L 671.734375 1168.703125 L 671.066406 1163.507812 L 670.710938 1159.378906 L 670.714844 1156.113281 L 671.128906 1153.382812 L 672.003906 1150.859375 L 673.398438 1148.214844 L 675.363281 1145.125 L 677.914062 1141.363281 L 680.941406 1137.140625 L 684.296875 1132.777344 L 687.832031 1128.589844 L 691.398438 1124.894531 L 694.875 1121.929688 L 698.234375 1119.597656 L 701.460938 1117.726562 L 704.554688 1116.140625 L 707.511719 1114.664062 L 710.3125 1113.121094 L 712.914062 1111.335938 L 715.261719 1109.140625 L 717.300781 1106.347656 L 718.976562 1102.792969 L 720.292969 1098.429688 L 721.457031 1093.75 L 722.742188 1089.378906 L 724.410156 1085.949219 L 726.722656 1084.085938 L 729.867188 1084.199219 L 733.652344 1085.839844 L 737.816406 1088.339844 L 742.078125 1091.042969 L 746.175781 1093.28125 L 749.886719 1094.511719 L 753.199219 1094.660156 L 756.152344 1093.785156 L 758.785156 1091.9375 L 761.136719 1089.164062 L 763.25 1085.523438 L 765.148438 1081.105469 L 766.800781 1076.167969 L 768.164062 1071.015625 L 769.195312 1065.941406 L 769.84375 1061.253906 L 770.101562 1057.15625 L 770.066406 1053.464844 L 769.875 1049.902344 L 769.65625 1046.195312 L 769.550781 1042.0625 L 769.621094 1037.300781 L 769.699219 1032.003906 L 769.554688 1026.34375 L 768.945312 1020.484375 L 767.644531 1014.59375 L 765.519531 1008.84375 L 762.839844 1003.40625 L 759.984375 998.445312 L 757.332031 994.140625 L 755.253906 990.660156 L 753.988281 988.054688 L 753.214844 985.886719 L 752.472656 983.605469 L 751.304688 980.652344 L 749.246094 976.476562 L 745.976562 970.691406 L 741.695312 963.609375 L 736.753906 955.71875 L 731.492188 947.496094 L 726.253906 939.433594 L 721.382812 932.007812 L 717.140625 925.527344 L 713.480469 919.5625 L 710.277344 913.511719 L 707.410156 906.757812 L 704.753906 898.703125 L 702.207031 888.96875 L 699.8125 878.136719 L 697.628906 867.011719 L 695.722656 856.402344 L 694.160156 847.125 L 692.988281 839.757812 L 692.179688 833.988281 L 691.707031 829.265625 L 691.523438 825.046875 L 691.597656 820.789062 L 691.890625 816.019531 L 692.386719 810.5625 L 693.074219 804.3125 L 693.945312 797.164062 L 694.976562 789.011719 L 696.148438 779.847656 L 697.347656 770.019531 L 698.460938 759.976562 L 699.359375 750.160156 L 699.921875 741.011719 L 700.054688 732.890625 L 699.738281 725.816406 L 698.976562 719.71875 L 697.78125 714.527344 L 696.160156 710.171875 L 694.117188 706.582031 L 691.722656 703.675781 L 689.324219 701.3125 L 687.332031 699.335938 L 686.148438 697.59375 L 686.183594 695.929688 L 687.679688 694.1875 L 690.226562 692.199219 L 693.242188 689.796875 L 696.140625 686.808594 L 698.34375 683.070312 L 699.445312 678.511719 L 699.753906 673.476562 L 699.742188 668.394531 L 699.890625 663.71875 L 700.679688 659.878906 L 702.429688 657.148438 L 704.851562 655.144531 L 707.496094 653.296875 L 709.917969 651.050781 L 711.667969 647.847656 L 712.449219 643.296875 L 712.566406 637.6875 L 712.476562 631.480469 L 712.628906 625.132812 L 713.484375 619.105469 L 715.359375 613.753906 L 718.042969 609.042969 L 721.191406 604.828125 L 724.460938 600.960938 L 727.5 597.308594 L 729.96875 593.726562 L 731.617188 590.113281 L 732.617188 586.570312 L 733.222656 583.226562 L 733.703125 580.230469 L 734.320312 577.714844 L 735.25 575.746094 L 736.277344 574.085938 L 737.105469 572.425781 L 737.433594 570.453125 L 736.957031 567.859375 L 735.480469 564.429688 L 733.222656 560.324219 L 730.503906 555.808594 L 727.652344 551.144531 L 724.980469 546.589844 L 722.777344 542.347656 L 721.152344 538.382812 L 720.179688 534.589844 L 719.9375 530.878906 L 720.496094 527.144531 L 721.742188 523.308594 L 722.851562 519.375 L 722.808594 515.367188 L 720.597656 511.304688 L 715.203125 507.207031 L 705.617188 503.101562 L 698.660156 504.992188 "/>
<path style="fill:none;stroke-width:0.75;stroke-linecap:round;stroke-linejoin:round;stroke:rgb(0%,0%,0%);stroke-opacity:1;stroke-miterlimit:10;" d="M 597.96875 374.597656 L 589.121094 380.921875 L 580.660156 386.40625 L 572.464844 391.40625 L 565.253906 395.683594 L 559.34375 400.1875 L 553.789062 405.625 L 547.484375 412.007812 L 541.621094 418.21875 L 536.582031 424.574219 L 532.34375 430.691406 L 527.753906 435.796875 L 522.597656 440.042969 L 517.757812 444.328125 L 514.441406 448.566406 L 512.625 452.9375 L 512.539062 457.316406 L 514.632812 460.675781 L 519.589844 462.710938 L 528.363281 463.707031 L 539.867188 463.589844 L 549.179688 462.574219 L 555.234375 461.21875 L 558.957031 459.730469 L 561.601562 458.316406 L 563.992188 456.914062 L 566.445312 455.609375 L 568.988281 454.324219 L 571.5625 453.140625 L 574.195312 451.902344 L 577.070312 450.449219 L 580.566406 448.214844 L 585 444.742188 L 589.828125 440.097656 L 593.324219 435.859375 L 595.496094 432.53125 L 596.894531 429.636719 L 598.152344 426.316406 L 599.421875 421.59375 L 600.832031 414.675781 L 602.136719 405.242188 L 603.089844 394.75 L 603.113281 384.453125 L 602.171875 377.222656 L 600.757812 373.191406 L 599.019531 370.890625 L 597.96875 374.597656 "/>
<path style="fill:none;stroke-width:0.75;stroke-linecap:round;stroke-linejoin:round;stroke:rgb(0%,0%,0%);stroke-opacity:1;stroke-miterlimit:10;" d="M 555.648438 486.757812 L 552.945312 491.066406 L 550.289062 495.726562 L 550.328125 500.949219 L 552.859375 506.449219 L 553.117188 512.316406 L 555.308594 518.875 L 556.359375 526.402344 L 557.394531 534.890625 L 559.042969 544.8125 L 560.675781 556.6875 L 561.171875 570.199219 L 563.574219 583.679688 L 563.855469 596.308594 L 566.042969 607.578125 L 567.101562 617.476562 L 568.121094 625.78125 L 569.792969 632.214844 L 571.378906 636.453125 L 571.972656 638.058594 L 576.929688 636.738281 L 577.308594 632.796875 L 579.449219 627.230469 L 580.535156 620.945312 L 581.527344 614.753906 L 583.230469 609.007812 L 584.761719 603.835938 L 585.46875 599.039062 L 592.925781 594.40625 L 593.5625 589.992188 L 597.90625 585.761719 L 600.015625 581.679688 L 602.085938 577.671875 L 605.382812 573.691406 L 608.648438 569.695312 L 609.636719 565.664062 L 614.449219 561.53125 L 614.980469 557.277344 L 619.507812 552.847656 L 621.179688 548.320312 L 621.253906 543.753906 L 623.929688 539.210938 L 630.226562 534.78125 L 633.707031 530.582031 L 638.6875 526.292969 L 641.714844 521.585938 L 649.457031 516.289062 L 649.558594 510.867188 L 646.988281 506.082031 L 646.914062 502.117188 L 649.476562 498.972656 L 647.019531 496.464844 L 646.804688 494.484375 L 644.359375 492.902344 L 641.015625 491.542969 L 640.429688 490.320312 L 634.195312 489.164062 L 556.460938 488.054688 L 555.648438 486.757812 "/>
<path style="fill:none;stroke-width:0.75;stroke-linecap:round;stroke-linejoin:round;stroke:rgb(0%,0%,0%);stroke-opacity:1;stroke-miterlimit:10;" d="M 750.453125 229.027344 L 736.261719 234.09375 L 720.402344 238.414062 L 708.171875 242.230469 L 700.246094 245.71875 L 696.019531 249.007812 L 694.273438 252.140625 L 693.496094 255.167969 L 691.523438 258.175781 L 686.90625 261.316406 L 681.707031 264.960938 L 678.132812 269.339844 L 675.519531 273.972656 L 672.496094 278.183594 L 668.507812 281.652344 L 666.339844 285.460938 L 668.1875 290.421875 L 670.570312 294.9375 L 669.867188 297.667969 L 667.628906 300.847656 L 666.085938 306.679688 L 665.03125 313.753906 L 663.8125 320.179688 L 662.40625 325.757812 L 660.933594 330.714844 L 659.523438 335.457031 L 658.28125 341.0625 L 657.183594 348.335938 L 655.71875 356.238281 L 653.683594 363.453125 L 652.617188 369.375 L 653.664062 373.902344 L 654.632812 378.175781 L 653.5 382.761719 L 652.21875 384.699219 L 652.632812 382.378906 L 652.167969 383.234375 L 647.15625 396.9375 L 637.851562 428.398438 L 640.230469 463.445312 L 666.742188 486.550781 L 700.007812 495.882812 L 720.285156 494.144531 L 728.191406 488.589844 L 728.957031 485.648438 L 725.785156 483.902344 L 721.140625 480.667969 L 716.476562 476.015625 L 712.992188 470.703125 L 711.433594 465.394531 L 710.695312 460.347656 L 709.546875 455.722656 L 707.980469 451.734375 L 706.332031 448.191406 L 704.988281 443.234375 L 704.296875 435.351562 L 704.335938 426.085938 L 704.761719 417.476562 L 703.804688 410.539062 L 700.109375 405.566406 L 695.4375 400.992188 L 692.3125 394.796875 L 692.441406 385.929688 L 694.1875 377.195312 L 695.972656 371.511719 L 699.734375 368.3125 L 706.738281 366.304688 L 712.054688 364.675781 L 710.914062 362.871094 L 705.324219 360.789062 L 698.734375 358.441406 L 693.457031 355.824219 L 691.53125 352.914062 L 694.199219 349.730469 L 699.507812 346.457031 L 704.957031 343.296875 L 709.089844 340.378906 L 710.894531 337.6875 L 710.113281 334.664062 L 707.359375 330.972656 L 705.980469 327.683594 L 708.636719 325.65625 L 712.46875 323.460938 L 714.207031 319.632812 L 714.496094 314.875 L 714.953125 310.433594 L 716.761719 307.226562 L 719.359375 304.855469 L 721.625 302.710938 L 721.902344 300.742188 L 719.257812 298.964844 L 716.15625 297.144531 L 715.089844 295.042969 L 715.210938 292.640625 L 715.261719 289.988281 L 715.667969 287.15625 L 717.253906 284.222656 L 721.570312 281.4375 L 732.992188 279.691406 L 753.273438 279.800781 L 770.859375 281.609375 L 775.632812 284.660156 L 776.472656 288.324219 L 783.582031 292.078125 L 793.375 295.957031 L 800.359375 300 L 805.136719 303.722656 L 809.328125 306.675781 L 812.472656 309.039062 L 813.578125 311.171875 L 812.128906 313.5 L 809.476562 316.777344 L 807.5625 321.441406 L 808.765625 326.398438 L 814.371094 330.578125 L 820.78125 334.574219 L 824.585938 339.058594 L 827.964844 343.347656 L 833.257812 346.703125 L 837.851562 349.617188 L 838.914062 352.800781 L 837.75 356.707031 L 836.695312 361.726562 L 837.332031 368.101562 L 838.234375 375.519531 L 838.117188 383.28125 L 839.367188 389.636719 L 844.136719 393.363281 L 850.039062 396.328125 L 854.390625 400.476562 L 857.84375 404.953125 L 861.464844 408.59375 L 864.65625 411.773438 L 866.394531 415.265625 L 866.1875 419.519531 L 865.605469 423.753906 L 866.304688 427.171875 L 868.226562 430.226562 L 870.792969 433.589844 L 873.136719 437.554688 L 874.59375 442.148438 L 875.667969 446.703125 L 876.980469 450.546875 L 878.4375 453.660156 L 879.761719 456.199219 L 880.855469 458.578125 L 882.367188 462.273438 L 884.898438 468.449219 L 888.15625 476.011719 L 892.113281 483.195312 L 898.761719 487.816406 L 909.210938 488.4375 L 919.058594 487.007812 L 924.167969 485.699219 L 927.035156 484.085938 L 930.863281 481.339844 L 935.078125 477.648438 L 938.160156 473.441406 L 939.246094 469.125 L 940.121094 465 L 942.027344 461.3125 L 941.414062 458.199219 L 935.3125 455.59375 L 927.945312 452.703125 L 923.933594 448.875 L 922.320312 444.722656 L 921.144531 440.902344 L 919.960938 436.988281 L 918.710938 432.292969 L 917.363281 426.507812 L 915.976562 420.859375 L 914.625 416.578125 L 913.300781 413.375 L 911.757812 410.410156 L 908.902344 406.121094 L 904.066406 399.402344 L 899.117188 391.683594 L 895.976562 384.699219 L 894.207031 378.914062 L 892.929688 374.359375 L 891.789062 370.617188 L 890.574219 367.144531 L 889.152344 363.441406 L 887.726562 359.160156 L 886.5 354.132812 L 885.332031 348.777344 L 883.84375 343.636719 L 881.09375 339.179688 L 876.597656 335.582031 L 872.253906 331.878906 L 869.929688 327.179688 L 868.910156 321.972656 L 867.847656 317.097656 L 865.746094 313.101562 L 863.035156 309.417969 L 860.332031 305.308594 L 857.613281 300.535156 L 854.570312 294.988281 L 850.464844 288.621094 L 844.980469 281.609375 L 839.964844 274.953125 L 837.058594 269.707031 L 834.949219 266.285156 L 831.996094 264.636719 L 828.25 263.554688 L 824.1875 261.523438 L 820.347656 257.605469 L 817.582031 253.152344 L 816.414062 249.742188 L 815.785156 247.582031 L 814.058594 246.320312 L 808.949219 244.8125 L 798.855469 242.042969 L 785.589844 238.3125 L 771.632812 234.238281 L 758.757812 230.359375 L 748.542969 227.195312 L 750.453125 229.027344 "/>
<path style="fill:none;stroke-width:0.75;stroke-linecap:round;stroke-linejoin:round;stroke:rgb(0%,0%,0%);stroke-opacity:1;stroke-miterlimit:10;" d="M 984.394531 445.796875 L 980.632812 450.847656 L 980.078125 455.417969 L 981.507812 459.625 L 983.007812 463.851562 L 984.386719 468.601562 L 985.75 473.550781 L 987.125 478.1875 L 988.441406 482.34375 L 989.757812 486.398438 L 991.121094 490.863281 L 992.492188 496.191406 L 993.699219 502.25 L 994.683594 507.152344 L 997.023438 510.898438 L 1002.007812 513.9375 L 1007.914062 516.253906 L 1011.835938 518.300781 L 1011.730469 520.488281 L 1009.410156 522.480469 L 1007.1875 524.054688 L 1005.566406 526.042969 L 1004.898438 528.769531 L 1005.570312 532.3125 L 1007.738281 536.429688 L 1011.117188 540.425781 L 1015.171875 543.785156 L 1018.851562 547.089844 L 1021.488281 550.902344 L 1024.003906 554.730469 L 1025.863281 558.175781 L 1026.707031 561.15625 L 1029.058594 564.210938 L 1037.054688 567.105469 L 1050.765625 569.964844 L 1057.414062 574.546875 L 1057.671875 579.859375 L 1056 584.417969 L 1054.132812 588.144531 L 1052.722656 591.40625 L 1051.273438 594.789062 L 1050.886719 598.472656 L 1051.804688 602.601562 L 1050.605469 607.628906 L 1049.792969 613.847656 L 1052.582031 621.0625 L 1057.722656 627.4375 L 1062.824219 631.304688 L 1066.03125 633.238281 L 1068.222656 634.339844 L 1070.625 635.464844 L 1073.515625 636.710938 L 1078.273438 638.460938 L 1085.640625 640.902344 L 1092.355469 642.875 L 1095.039062 642.867188 L 1094.273438 639.640625 L 1093.148438 633.125 L 1094.460938 624.273438 L 1097.9375 616.226562 L 1101.34375 609.945312 L 1102.894531 605.382812 L 1103.898438 601.441406 L 1105.410156 597.121094 L 1105.289062 592.804688 L 1103.972656 588.789062 L 1102.546875 584.035156 L 1101.167969 574.554688 L 1099.96875 562.917969 L 1098.789062 553.167969 L 1096.386719 546.925781 L 1092.417969 543.359375 L 1087.449219 541.105469 L 1084.476562 538.667969 L 1086.175781 535.105469 L 1090.96875 531.617188 L 1094.203125 529.203125 L 1092.761719 528.207031 L 1090.648438 526.921875 L 1088.996094 522.429688 L 1087.671875 512.914062 L 1086.425781 501.644531 L 1085.070312 492.691406 L 1083.757812 487.382812 L 1082.878906 483.335938 L 1081.144531 478.546875 L 1073.53125 474.800781 L 1065.753906 471.1875 L 1063.367188 466.324219 L 1058.707031 460.71875 L 1042.847656 455.617188 L 1017.785156 452.667969 L 999.03125 451.1875 L 996.910156 450.027344 L 995.042969 448.796875 L 991.132812 447.519531 L 987.773438 446.285156 L 984.984375 445.230469 L 984.394531 445.796875 "/>
</g>
</svg>
