<?xml version="1.0" encoding="UTF-8"?>
<svg xmlns="http://www.w3.org/2000/svg" xmlns:xlink="http://www.w3.org/1999/xlink" width="1428pt" height="1605pt" viewBox="0 0 1428 1605" version="1.1">
<g id="surface284">
<rect x="0" y="0" width="1428" height="1605" style="fill:rgb(100%,100%,100%);fill-opacity:1;stroke:none;"/>
<path style="fill:none;stroke-width:0.75;stroke-linecap:round;stroke-linejoin:round;stroke:rgb(0%,0%,0%);stroke-opacity:1;stroke-miterlimit:10;" d="M 732.4375 221.453125 L 722.640625 225.699219 L 713.234375 229.789062 L 704.527344 233.851562 L 696.832031 238.007812 L 690.375 242.355469 L 685.019531 246.851562 L 680.550781 251.433594 L 676.742188 256.027344 L 673.375 260.570312 L 670.265625 264.996094 L 667.371094 269.28125 L 664.6875 273.394531 L 662.207031 277.320312 L 659.921875 281.03125 L 657.84375 284.511719 L 656.066406 287.769531 L 654.699219 290.824219 L 653.84375 293.6875 L 653.613281 296.371094 L 654.042969 298.925781 L 654.871094 301.519531 L 655.765625 304.355469 L 656.386719 307.632812 L 656.402344 311.558594 L 655.59375 316.285156 L 654.199219 321.796875 L 652.558594 328.027344 L 651.03125 334.914062 L 649.957031 342.390625 L 649.570312 350.316406 L 649.601562 358.253906 L 649.660156 365.699219 L 649.363281 372.132812 L 648.316406 377.042969 L 646.222656 380.097656 L 643.125 381.671875 L 639.15625 382.316406 L 634.445312 382.582031 L 629.125 383.015625 L 623.316406 384.023438 L 617.105469 385.429688 L 610.554688 386.902344 L 603.742188 388.117188 L 596.734375 388.742188 L 589.675781 388.515625 L 582.957031 387.398438 L 577.042969 385.414062 L 572.40625 382.585938 L 569.5 378.9375 L 568.601562 374.53125 L 569.171875 369.574219 L 570.484375 364.316406 L 571.808594 359 L 572.417969 353.878906 L 571.75 349.132812 L 569.898438 344.703125 L 567.125 340.460938 L 563.6875 336.285156 L 559.855469 332.046875 L 555.800781 327.703125 L 551.355469 323.511719 L 546.273438 319.8125 L 540.304688 316.949219 L 533.191406 315.253906 L 524.863281 314.976562 L 515.917969 315.964844 L 507.128906 317.976562 L 499.269531 320.773438 L 493.117188 324.105469 L 489.222656 327.761719 L 487.269531 331.632812 L 486.71875 335.632812 L 487.027344 339.683594 L 487.660156 343.699219 L 488.226562 347.617188 L 488.917969 351.429688 L 490.074219 355.164062 L 492.042969 358.824219 L 495.164062 362.4375 L 499.589844 366 L 504.742188 369.460938 L 509.859375 372.757812 L 514.171875 375.824219 L 516.914062 378.597656 L 517.574219 381.042969 L 516.625 383.265625 L 514.800781 385.394531 L 512.828125 387.5625 L 511.441406 389.90625 L 511.226562 392.503906 L 512.269531 395.261719 L 514.5 398.019531 L 517.863281 400.636719 L 522.296875 402.957031 L 527.640625 404.890625 L 533.304688 406.585938 L 538.59375 408.246094 L 542.816406 410.078125 L 545.277344 412.285156 L 545.476562 415.039062 L 543.722656 418.351562 L 540.503906 422.203125 L 536.328125 426.574219 L 531.683594 431.4375 L 527.023438 436.757812 L 522.585938 442.40625 L 518.570312 448.246094 L 515.160156 454.128906 L 512.558594 459.910156 L 510.898438 465.492188 L 510.140625 470.917969 L 510.183594 476.28125 L 510.933594 481.667969 L 512.289062 487.167969 L 514.140625 492.824219 L 516.289062 498.5 L 518.523438 504.015625 L 520.628906 509.179688 L 522.394531 513.8125 L 523.703125 517.792969 L 524.859375 521.21875 L 526.25 524.253906 L 528.28125 527.058594 L 531.34375 529.796875 L 535.652344 532.613281 L 540.65625 535.628906 L 545.617188 538.933594 L 549.804688 542.636719 L 552.480469 546.835938 L 553.121094 551.53125 L 552.050781 556.3125 L 549.804688 560.683594 L 546.917969 564.128906 L 543.925781 566.148438 L 541.203125 566.363281 L 538.488281 564.945312 L 535.367188 562.1875 L 531.414062 558.390625 L 526.207031 553.855469 L 519.496094 548.824219 L 511.660156 543.320312 L 503.253906 537.308594 L 494.828125 530.765625 L 486.925781 523.648438 L 479.9375 515.992188 L 473.625 508.042969 L 467.582031 500.113281 L 461.40625 492.515625 L 454.691406 485.558594 L 447.148438 479.457031 L 438.910156 474.066406 L 430.226562 469.132812 L 421.347656 464.414062 L 412.515625 459.664062 L 403.839844 454.726562 L 394.867188 449.808594 L 385.003906 445.207031 L 373.664062 441.214844 L 360.25 438.136719 L 344.453125 436.195312 L 327.109375 435.375 L 309.328125 435.578125 L 292.230469 436.722656 L 276.921875 438.714844 L 264.238281 441.464844 L 253.847656 444.855469 L 245.125 448.769531 L 237.457031 453.085938 L 230.222656 457.695312 L 222.921875 462.484375 L 215.527344 467.410156 L 208.136719 472.441406 L 200.84375 477.542969 L 193.734375 482.6875 L 186.917969 487.832031 L 180.53125 492.925781 L 174.71875 497.894531 L 169.632812 502.683594 L 165.414062 507.226562 L 162.140625 511.46875 L 159.578125 515.398438 L 157.421875 519.011719 L 155.359375 522.300781 L 153.09375 525.265625 L 150.40625 527.933594 L 147.480469 530.464844 L 144.601562 533.039062 L 142.042969 535.855469 L 140.089844 539.101562 L 138.914062 542.902344 L 138.277344 547.144531 L 137.828125 551.65625 L 137.226562 556.257812 L 136.128906 560.777344 L 134.285156 565.089844 L 131.832031 569.273438 L 129.011719 573.46875 L 126.058594 577.804688 L 123.210938 582.410156 L 120.648438 587.378906 L 118.320312 592.625 L 116.128906 598.023438 L 113.964844 603.445312 L 111.726562 608.761719 L 109.316406 613.917969 L 106.660156 619.140625 L 103.679688 624.730469 L 100.308594 630.984375 L 96.476562 638.195312 L 92.160156 646.566406 L 87.519531 655.882812 L 82.773438 665.828125 L 78.132812 676.097656 L 73.808594 686.371094 L 69.976562 696.390625 L 66.632812 706.125 L 63.734375 715.589844 L 61.246094 724.804688 L 59.121094 733.792969 L 57.308594 742.566406 L 55.742188 751.132812 L 54.339844 759.496094 L 53.023438 767.664062 L 51.714844 775.636719 L 50.351562 783.394531 L 48.949219 790.828125 L 47.542969 797.8125 L 46.164062 804.210938 L 44.847656 809.894531 L 43.613281 814.792969 L 42.4375 819.082031 L 41.289062 822.988281 L 40.125 826.75 L 38.914062 830.597656 L 37.644531 834.722656 L 36.382812 839.136719 L 35.222656 843.804688 L 34.257812 848.695312 L 33.574219 853.769531 L 33.246094 859.023438 L 33.253906 864.5625 L 33.554688 870.511719 L 34.105469 877 L 34.871094 884.160156 L 35.796875 892.03125 L 36.804688 900.320312 L 37.800781 908.652344 L 38.695312 916.652344 L 39.402344 923.9375 L 39.855469 930.234375 L 40.085938 935.652344 L 40.167969 940.414062 L 40.152344 944.730469 L 40.113281 948.816406 L 40.117188 952.859375 L 40.265625 956.90625 L 40.679688 960.980469 L 41.464844 965.109375 L 42.738281 969.304688 L 44.550781 973.589844 L 46.691406 977.941406 L 48.898438 982.335938 L 50.894531 986.746094 L 52.414062 991.148438 L 53.28125 995.558594 L 53.722656 1000.164062 L 54.046875 1005.191406 L 54.578125 1010.863281 L 55.632812 1017.417969 L 57.414062 1024.945312 L 59.710938 1033.039062 L 62.183594 1041.160156 L 64.515625 1048.769531 L 66.367188 1055.328125 L 67.542969 1060.476562 L 68.363281 1064.589844 L 69.269531 1068.226562 L 70.710938 1071.933594 L 73.128906 1076.273438 L 76.839844 1081.628906 L 81.640625 1087.730469 L 87.183594 1094.136719 L 93.136719 1100.398438 L 99.15625 1106.085938 L 104.941406 1110.863281 L 110.328125 1114.855469 L 115.179688 1118.308594 L 119.375 1121.453125 L 122.777344 1124.527344 L 125.332031 1127.734375 L 127.285156 1131.113281 L 128.953125 1134.675781 L 130.65625 1138.417969 L 132.710938 1142.351562 L 135.335938 1146.46875 L 138.363281 1150.707031 L 141.511719 1154.992188 L 144.511719 1159.261719 L 147.089844 1163.433594 L 149.09375 1167.476562 L 150.863281 1171.480469 L 152.859375 1175.574219 L 155.546875 1179.882812 L 159.390625 1184.53125 L 164.636719 1189.582031 L 170.691406 1194.84375 L 176.746094 1200.050781 L 181.992188 1204.945312 L 185.621094 1209.269531 L 187.09375 1212.847656 L 186.925781 1215.835938 L 185.90625 1218.488281 L 184.824219 1221.042969 L 184.457031 1223.75 L 185.441406 1226.800781 L 187.765625 1230.171875 L 191.257812 1233.796875 L 195.757812 1237.59375 L 201.039062 1241.492188 L 206.621094 1245.429688 L 211.972656 1249.328125 L 216.554688 1253.125 L 219.835938 1256.75 L 221.480469 1260.167969 L 221.957031 1263.457031 L 221.945312 1266.734375 L 222.113281 1270.117188 L 223.140625 1273.714844 L 225.523438 1277.617188 L 229.09375 1281.773438 L 233.503906 1286.113281 L 238.414062 1290.558594 L 243.476562 1295.035156 L 248.394531 1299.46875 L 253.070312 1303.804688 L 257.457031 1307.988281 L 261.5 1311.96875 L 265.152344 1315.6875 L 268.417969 1319.121094 L 271.554688 1322.34375 L 274.871094 1325.464844 L 278.679688 1328.582031 L 283.289062 1331.804688 L 288.9375 1335.214844 L 295.519531 1338.808594 L 302.851562 1342.574219 L 310.75 1346.480469 L 319.039062 1350.515625 L 327.515625 1354.617188 L 335.921875 1358.578125 L 343.980469 1362.148438 L 351.417969 1365.085938 L 357.960938 1367.144531 L 363.558594 1368.128906 L 369.09375 1368.050781 L 375.667969 1366.980469 L 384.382812 1364.984375 L 396.347656 1362.125 L 412.214844 1358.515625 L 430.839844 1354.410156 L 450.628906 1350.117188 L 469.992188 1345.9375 L 487.328125 1342.171875 L 501.503906 1339.09375 L 513.167969 1336.847656 L 523.433594 1335.550781 L 533.410156 1335.320312 L 544.199219 1336.269531 L 556.585938 1338.449219 L 570.042969 1341.621094 L 583.714844 1345.480469 L 596.742188 1349.730469 L 608.277344 1354.0625 L 617.777344 1358.1875 L 625.980469 1361.882812 L 633.953125 1364.933594 L 642.75 1367.132812 L 653.425781 1368.265625 L 666.691406 1368.191406 L 681.863281 1367.015625 L 697.90625 1364.914062 L 713.777344 1362.054688 L 728.453125 1358.613281 L 741.101562 1354.765625 L 751.75 1350.671875 L 760.644531 1346.507812 L 768.023438 1342.441406 L 774.121094 1338.632812 L 779.183594 1335.222656 L 783.472656 1332.21875 L 787.242188 1329.589844 L 790.753906 1327.316406 L 794.269531 1325.367188 L 797.992188 1323.699219 L 801.902344 1322.1875 L 805.929688 1320.6875 L 809.988281 1319.046875 L 814.007812 1317.128906 L 817.945312 1314.804688 L 821.910156 1312.058594 L 826.039062 1308.886719 L 830.472656 1305.296875 L 835.351562 1301.292969 L 840.78125 1296.875 L 846.734375 1292.066406 L 853.140625 1286.886719 L 859.941406 1281.359375 L 867.070312 1275.5 L 874.433594 1269.367188 L 881.8125 1263.140625 L 888.964844 1257.027344 L 895.648438 1251.242188 L 901.617188 1246 L 906.691406 1241.445312 L 910.960938 1237.464844 L 914.582031 1233.878906 L 917.710938 1230.511719 L 920.503906 1227.179688 L 923.125 1223.71875 L 925.800781 1219.976562 L 928.757812 1215.824219 L 932.226562 1211.125 L 936.441406 1205.742188 L 941.539062 1199.609375 L 947.28125 1192.929688 L 953.347656 1185.972656 L 959.40625 1179.011719 L 965.128906 1172.320312 L 970.257812 1166.121094 L 974.800781 1160.464844 L 978.832031 1155.347656 L 982.421875 1150.769531 L 985.644531 1146.738281 L 988.566406 1143.203125 L 991.167969 1139.9375 L 993.433594 1136.675781 L 995.332031 1133.144531 L 996.84375 1129.074219 L 997.964844 1124.292969 L 998.808594 1119 L 999.5 1113.507812 L 1000.179688 1108.117188 L 1000.96875 1103.128906 L 1001.972656 1098.75 L 1003.140625 1094.8125 L 1004.386719 1091.050781 L 1005.625 1087.195312 L 1006.773438 1082.980469 L 1007.769531 1078.210938 L 1008.660156 1073.019531 L 1009.519531 1067.601562 L 1010.417969 1062.15625 L 1011.425781 1056.886719 L 1012.601562 1051.9375 L 1013.96875 1047.257812 L 1015.523438 1042.738281 L 1017.269531 1038.273438 L 1019.210938 1033.753906 L 1021.335938 1029.085938 L 1023.535156 1024.257812 L 1025.695312 1019.261719 L 1027.6875 1014.097656 L 1029.398438 1008.761719 L 1030.730469 1003.242188 L 1031.75 997.503906 L 1032.535156 991.5 L 1033.183594 985.1875 L 1033.777344 978.515625 L 1034.402344 971.476562 L 1035.097656 964.183594 L 1035.886719 956.792969 L 1036.800781 949.453125 L 1037.867188 942.3125 L 1039.105469 935.472656 L 1040.476562 928.824219 L 1041.925781 922.210938 L 1043.402344 915.464844 L 1044.863281 908.4375 L 1046.257812 900.902344 L 1047.609375 892.429688 L 1048.941406 882.511719 L 1050.285156 870.664062 L 1051.660156 856.382812 L 1053.070312 839.472656 L 1054.386719 820.929688 L 1055.460938 802.046875 L 1056.140625 784.117188 L 1056.269531 768.429688 L 1055.757812 755.941406 L 1054.722656 746.242188 L 1053.351562 738.570312 L 1051.828125 732.179688 L 1050.335938 726.3125 L 1049.003906 720.363281 L 1047.78125 714.289062 L 1046.566406 708.191406 L 1045.261719 702.175781 L 1043.757812 696.339844 L 1042 690.753906 L 1040.070312 685.339844 L 1038.105469 679.992188 L 1036.226562 674.59375 L 1034.566406 669.035156 L 1033.253906 663.292969 L 1032.429688 657.691406 L 1032.238281 652.628906 L 1032.820312 648.523438 L 1034.320312 645.78125 L 1036.808594 644.695312 L 1040.074219 645.113281 L 1043.828125 646.769531 L 1047.792969 649.398438 L 1051.679688 652.730469 L 1055.316406 656.492188 L 1058.953125 660.355469 L 1062.953125 663.980469 L 1067.671875 667.035156 L 1073.476562 669.179688 L 1080.558594 670.140625 L 1088.441406 669.90625 L 1096.496094 668.53125 L 1104.082031 666.066406 L 1110.5625 662.5625 L 1115.460938 658.101562 L 1118.96875 652.839844 L 1121.441406 646.957031 L 1123.230469 640.632812 L 1124.695312 634.058594 L 1126.101562 627.371094 L 1127.363281 620.582031 L 1128.304688 613.671875 L 1128.757812 606.609375 L 1128.542969 599.375 L 1127.550781 591.964844 L 1125.882812 584.480469 L 1123.710938 577.039062 L 1121.199219 569.773438 L 1118.511719 562.796875 L 1115.8125 556.234375 L 1113.257812 550.1875 L 1110.988281 544.75 L 1109.160156 540.015625 L 1107.917969 536.085938 L 1107.324219 532.9375 L 1107.074219 530.109375 L 1106.773438 527.003906 L 1106.03125 523.046875 L 1104.453125 517.648438 L 1101.773438 510.445312 L 1098.253906 501.9375 L 1094.269531 492.855469 L 1090.203125 483.917969 L 1086.445312 475.851562 L 1083.226562 469.203125 L 1080.179688 463.828125 L 1076.789062 459.398438 L 1072.539062 455.589844 L 1066.910156 452.082031 L 1059.59375 448.589844 L 1051.074219 444.992188 L 1042.054688 441.21875 L 1033.226562 437.195312 L 1025.28125 432.84375 L 1018.746094 428.152344 L 1013.457031 423.367188 L 1009.078125 418.808594 L 1005.277344 414.785156 L 1001.714844 411.609375 L 998.09375 409.570312 L 994.277344 408.832031 L 990.148438 409.546875 L 985.609375 411.863281 L 980.546875 415.917969 L 974.894531 421.699219 L 968.746094 428.523438 L 962.230469 435.558594 L 955.476562 441.957031 L 948.617188 446.878906 L 941.792969 449.652344 L 935.210938 450.257812 L 929.089844 448.847656 L 923.652344 445.570312 L 919.117188 440.574219 L 915.617188 434.085938 L 912.953125 426.589844 L 910.828125 418.648438 L 908.949219 410.824219 L 907.03125 403.675781 L 904.859375 397.617188 L 902.527344 392.464844 L 900.214844 387.878906 L 898.097656 383.527344 L 896.351562 379.074219 L 895.089844 374.273438 L 894.15625 369.21875 L 893.347656 364.097656 L 892.449219 359.085938 L 891.25 354.371094 L 889.597656 350.078125 L 887.558594 346.125 L 885.265625 342.359375 L 882.847656 338.640625 L 880.4375 334.828125 L 878.121094 330.792969 L 875.816406 326.464844 L 873.410156 321.792969 L 870.78125 316.730469 L 867.804688 311.222656 L 864.414062 305.265625 L 860.75 299.070312 L 857.007812 292.875 L 853.375 286.9375 L 850.046875 281.507812 L 847.15625 276.757812 L 844.597656 272.535156 L 842.203125 268.613281 L 839.808594 264.761719 L 837.246094 260.753906 L 834.320312 256.421875 L 830.695312 251.84375 L 826.007812 247.160156 L 819.894531 242.507812 L 811.984375 238.03125 L 801.96875 233.832031 L 789.753906 229.882812 L 775.300781 226.117188 L 758.566406 222.464844 L 739.511719 218.863281 L 732.4375 221.453125 "/>
<path style="fill:none;stroke-width:0.75;stroke-linecap:round;stroke-linejoin:round;stroke:rgb(0%,0%,0%);stroke-opacity:1;stroke-miterlimit:10;" d="M 302.015625 430.53125 L 291.535156 435.179688 L 279.070312 439.519531 L 265.660156 443.691406 L 252.445312 447.761719 L 240.976562 451.5625 L 232.921875 454.855469 L 229.054688 457.59375 L 226.59375 460.496094 L 221.871094 464.488281 L 212.429688 470.164062 L 200.605469 476.867188 L 189.953125 483.613281 L 183.097656 489.601562 L 178.949219 494.75 L 175.503906 499.144531 L 171.226562 502.929688 L 166.519531 506.480469 L 162.269531 510.226562 L 159.125 514.449219 L 156.84375 518.796875 L 154.9375 522.769531 L 152.992188 525.992188 L 150.835938 528.597656 L 148.363281 530.851562 L 145.46875 533.011719 L 142.195312 535.359375 L 139.242188 538.246094 L 137.449219 542.042969 L 137.332031 546.921875 L 138.035156 552.238281 L 138.359375 557.15625 L 137.363281 561.117188 L 135.109375 564.664062 L 131.917969 568.621094 L 128.167969 573.535156 L 124.5625 578.832031 L 121.867188 583.675781 L 120.527344 587.542969 L 119.679688 591.226562 L 118.132812 595.851562 L 115.082031 602.140625 L 111.238281 609.238281 L 107.707031 615.898438 L 105.246094 621.25 L 103.273438 625.933594 L 100.875 630.957031 L 97.351562 637.171875 L 92.882812 644.792969 L 87.875 653.863281 L 82.730469 664.425781 L 77.820312 676.28125 L 73.363281 688.226562 L 69.546875 698.808594 L 66.480469 707.121094 L 63.941406 714.472656 L 61.628906 722.707031 L 59.335938 733.015625 L 57.179688 743.945312 L 55.382812 753.386719 L 54.066406 759.988281 L 53.011719 765.441406 L 51.894531 772.210938 L 50.503906 781.894531 L 48.976562 792.695312 L 47.546875 801.960938 L 46.371094 807.746094 L 45.265625 810.984375 L 43.976562 813.324219 L 42.339844 816.148438 L 40.582031 819.789062 L 39.03125 824.324219 L 38.007812 829.816406 L 37.679688 836.152344 L 37.566406 842.445312 L 37.039062 847.613281 L 35.664062 850.988281 L 33.875 853.515625 L 32.304688 856.554688 L 31.503906 861.207031 L 31.632812 867.5625 L 32.761719 875.453125 L 34.8125 884.566406 L 37.125 894.019531 L 38.890625 902.78125 L 39.527344 910.121094 L 39.355469 916.507812 L 38.921875 922.71875 L 38.6875 929.285156 L 38.742188 935.765625 L 39.101562 941.480469 L 39.726562 945.957031 L 40.445312 949.507812 L 41.03125 952.648438 L 41.34375 955.847656 L 41.539062 959.371094 L 41.847656 963.4375 L 42.507812 968.265625 L 43.699219 973.902344 L 45.453125 979.746094 L 47.742188 985.035156 L 50.433594 989.191406 L 52.964844 992.394531 L 54.664062 995.011719 L 55.097656 997.558594 L 54.808594 1001.160156 L 54.582031 1007.089844 L 55.070312 1016.066406 L 56.398438 1026.632812 L 58.554688 1036.777344 L 61.417969 1044.910156 L 64.441406 1051.058594 L 66.980469 1055.667969 L 68.5625 1059.222656 L 69.453125 1062.421875 L 70.113281 1066.003906 L 71 1070.546875 L 72.597656 1075.980469 L 75.410156 1082.066406 L 79.925781 1088.578125 L 86.339844 1095.21875 L 93.613281 1101.496094 L 100.402344 1106.851562 L 105.746094 1110.9375 L 110.179688 1114.179688 L 114.621094 1117.207031 L 119.613281 1120.535156 L 124.183594 1124.179688 L 126.980469 1128.042969 L 127.257812 1132 L 126.714844 1135.832031 L 127.648438 1139.304688 L 131.585938 1142.320312 L 136.957031 1145.382812 L 141.425781 1149.140625 L 143.34375 1153.992188 L 143.832031 1159.359375 L 144.722656 1164.40625 L 147.339844 1168.535156 L 151.066406 1172.074219 L 154.796875 1175.574219 L 157.738281 1179.5 L 160.363281 1183.929688 L 163.449219 1188.859375 L 167.773438 1194.269531 L 173.761719 1200.039062 L 180.355469 1205.605469 L 186.148438 1210.277344 L 189.917969 1213.605469 L 191.21875 1216.015625 L 189.800781 1218.160156 L 185.921875 1220.578125 L 181.890625 1223.375 L 180.535156 1226.542969 L 183.804688 1230.050781 L 190.207031 1233.796875 L 197.378906 1237.667969 L 203.421875 1241.554688 L 208.332031 1245.433594 L 212.578125 1249.28125 L 216.457031 1253.078125 L 219.636719 1256.785156 L 221.609375 1260.351562 L 222.113281 1263.753906 L 221.816406 1267.050781 L 221.628906 1270.332031 L 222.449219 1273.683594 L 224.945312 1277.207031 L 228.855469 1281.066406 L 233.664062 1285.449219 L 238.894531 1290.417969 L 244.128906 1295.539062 L 248.96875 1300.257812 L 253.136719 1304.199219 L 256.84375 1307.710938 L 260.417969 1311.316406 L 264.140625 1315.359375 L 268.105469 1319.492188 L 272.375 1323.191406 L 276.914062 1326.109375 L 281.332031 1328.628906 L 285.144531 1331.300781 L 288.253906 1334.558594 L 292.011719 1338.308594 L 298.160156 1342.339844 L 307.777344 1346.453125 L 319.300781 1350.558594 L 330.535156 1354.59375 L 339.722656 1358.472656 L 346.964844 1362.019531 L 352.820312 1365.050781 L 357.847656 1367.378906 L 362.621094 1368.789062 L 367.808594 1369 L 374.085938 1367.703125 L 381.980469 1364.761719 L 391.382812 1360.6875 L 402.019531 1356.164062 L 413.371094 1351.808594 L 423.949219 1348.023438 L 432.003906 1345.144531 L 436.402344 1343.363281 L 438.394531 1342.261719 L 439.839844 1341.289062 L 442.230469 1339.972656 L 445.585938 1338.273438 L 449.554688 1336.242188 L 453.855469 1333.820312 L 458.496094 1330.496094 L 463.542969 1325.640625 L 468.917969 1318.953125 L 473.949219 1311.417969 L 477.824219 1304.335938 L 479.980469 1298.730469 L 480.886719 1294.453125 L 481.273438 1291.078125 L 481.875 1288.167969 L 483.21875 1285.277344 L 485.023438 1281.894531 L 486.800781 1277.484375 L 488.195312 1271.757812 L 489.332031 1265.363281 L 490.460938 1259.199219 L 491.761719 1253.882812 L 493.1875 1248.960938 L 494.625 1243.71875 L 495.988281 1237.640625 L 497.296875 1231.03125 L 498.601562 1224.410156 L 499.933594 1218.25 L 501.285156 1212.828125 L 502.640625 1208.386719 L 503.988281 1205.023438 L 505.328125 1202.296875 L 506.664062 1199.632812 L 508.003906 1196.585938 L 509.347656 1193.257812 L 510.695312 1189.886719 L 512.035156 1186.71875 L 513.375 1183.886719 L 514.710938 1181.140625 L 516.050781 1178.128906 L 517.398438 1174.601562 L 518.746094 1170.679688 L 520.09375 1166.59375 L 521.433594 1162.367188 L 522.769531 1157.210938 L 524.105469 1150.140625 L 525.441406 1140.535156 L 526.785156 1129.25 L 528.136719 1117.507812 L 529.496094 1106.382812 L 530.851562 1096.335938 L 532.179688 1087.671875 L 533.476562 1080.453125 L 534.773438 1073.785156 L 536.125 1066.511719 L 537.554688 1057.757812 L 539.015625 1047.6875 L 540.4375 1036.734375 L 541.746094 1024.925781 L 542.835938 1010.683594 L 543.589844 992.027344 L 543.894531 966.980469 L 543.742188 935.003906 L 543.554688 901.355469 L 543.851562 872.734375 L 545 854.109375 L 546.679688 843.472656 L 548.414062 837.074219 L 549.835938 831.71875 L 551.035156 826.394531 L 552.21875 820.625 L 553.539062 814.132812 L 554.949219 807.382812 L 556.355469 801.03125 L 557.691406 795.527344 L 558.988281 790.507812 L 560.304688 785.40625 L 561.6875 779.792969 L 563.085938 773.824219 L 564.441406 767.789062 L 565.703125 761.796875 L 566.945312 755.242188 L 568.261719 747.335938 L 569.742188 737.285156 L 571.390625 724.609375 L 572.84375 710.078125 L 573.65625 694.753906 L 573.507812 679.652344 L 572.605469 665.546875 L 571.289062 653.144531 L 569.851562 642.851562 L 568.402344 633.863281 L 567.007812 625.058594 L 565.707031 615.417969 L 564.433594 604.328125 L 563.101562 591.257812 L 561.589844 576.433594 L 559.714844 563.058594 L 557.265625 555.074219 L 554.121094 555.03125 L 550.523438 559.882812 L 546.789062 565.179688 L 543.191406 567.40625 L 539.804688 566.753906 L 536.65625 564.351562 L 533.679688 561.148438 L 530.441406 557.421875 L 526.417969 553.273438 L 521.089844 548.8125 L 514.082031 544.046875 L 505.625 538.601562 L 496.113281 532.011719 L 486.101562 524.035156 L 476.871094 515.335938 L 469.875 506.804688 L 465.878906 499.132812 L 462.839844 492.25 L 458.03125 485.886719 L 449.566406 479.832031 L 438.910156 474.085938 L 428.375 468.703125 L 419.679688 463.714844 L 412.109375 459.121094 L 404.367188 454.898438 L 395.390625 451 L 385.109375 447.253906 L 373.699219 443.472656 L 361.09375 439.527344 L 346.296875 435.554688 L 328.0625 431.746094 L 305.160156 428.304688 L 302.015625 430.53125 "/>
<path style="fill:none;stroke-width:0.75;stroke-linecap:round;stroke-linejoin:round;stroke:rgb(0%,0%,0%);stroke-opacity:1;stroke-miterlimit:10;" d="M 501.3125 314.472656 L 497.910156 318.726562 L 495.773438 322.066406 L 494.4375 324.753906 L 493.210938 327.410156 L 491.933594 330.726562 L 490.605469 334.84375 L 489.226562 339.65625 L 487.765625 344.65625 L 486.054688 348.902344 L 484.515625 351.894531 L 485.542969 354.894531 L 489.886719 358.027344 L 496.992188 361.21875 L 503.304688 365.246094 L 506.476562 370.296875 L 510.492188 374.136719 L 514.871094 376.714844 L 517.609375 378.777344 L 517.550781 381.011719 L 515.683594 383.007812 L 513.429688 384.46875 L 511.785156 386.429688 L 511.195312 389.210938 L 511.8125 392.707031 L 513.195312 396.304688 L 515.140625 399.136719 L 517.695312 400.726562 L 521.472656 402.28125 L 526.792969 404.8125 L 532.472656 407.179688 L 537.957031 408.742188 L 542.875 409.816406 L 546.453125 412.445312 L 547.28125 415.503906 L 544.476562 417.683594 L 539.902344 420.554688 L 536.097656 425.371094 L 533.929688 431.917969 L 529.078125 436.773438 L 521.792969 441.664062 L 514.242188 448.734375 L 509.992188 455.484375 L 510.804688 459.285156 L 512.050781 461.339844 L 515.648438 462.71875 L 524.722656 463.785156 L 537.601562 463.613281 L 548.421875 462.5 L 553.175781 461.085938 L 556.796875 459.652344 L 560.417969 458.261719 L 563.636719 456.9375 L 566.484375 455.613281 L 569.117188 454.238281 L 571.742188 452.914062 L 574.34375 451.675781 L 576.949219 450.492188 L 579.941406 448.992188 L 583.796875 446.222656 L 588.441406 441.703125 L 592.121094 436.890625 L 594.710938 432.125 L 596.597656 427.597656 L 598.039062 423.933594 L 599.3125 419.300781 L 600.664062 411.976562 L 602.199219 403.351562 L 603.496094 395.640625 L 602.875 390.867188 L 601.269531 389.75 L 598.308594 391.972656 L 588.320312 394.441406 L 575.730469 393.503906 L 567.332031 386.683594 L 565.828125 376.46875 L 567.824219 367.9375 L 569.601562 364.273438 L 571.269531 361.101562 L 572.640625 357.6875 L 573.234375 354.585938 L 572.707031 351.660156 L 570.867188 348.46875 L 567.820312 344.144531 L 562.847656 337.933594 L 556.320312 330.277344 L 552.460938 324.878906 L 550.914062 321.5625 L 549.808594 319.136719 L 547.042969 317.3125 L 540.101562 315.886719 L 526.75 314.675781 L 506.226562 313.753906 L 501.3125 314.472656 "/>
<path style="fill:none;stroke-width:0.75;stroke-linecap:round;stroke-linejoin:round;stroke:rgb(0%,0%,0%);stroke-opacity:1;stroke-miterlimit:10;" d="M 552.882812 488.25 L 547.800781 493.472656 L 550.0625 498.839844 L 550.480469 504.429688 L 552.605469 509.8125 L 553.667969 515.328125 L 554.730469 521.726562 L 556.351562 528.929688 L 557.96875 536.832031 L 558.558594 546.21875 L 560.65625 558.300781 L 561.714844 572.941406 L 562.792969 587.152344 L 564.398438 599.746094 L 566.023438 610.414062 L 566.621094 619.460938 L 568.644531 626.582031 L 569.949219 632.128906 L 570.5625 636.4375 L 572.71875 640.082031 L 576.617188 643.597656 L 577.296875 647.054688 L 579.996094 650.597656 L 578.992188 654.238281 L 578.300781 657.6875 L 578.910156 660.734375 L 580.1875 663.175781 L 582.347656 664.601562 L 585.421875 664.566406 L 587.226562 663.03125 L 588.714844 660.394531 L 589.867188 657.074219 L 590.882812 653.5 L 593.03125 650.136719 L 593.417969 647 L 595.554688 643.78125 L 596.597656 640.085938 L 597.691406 635.503906 L 599.285156 629.355469 L 600.902344 621.035156 L 601.589844 611.105469 L 603.117188 601.964844 L 605.964844 594.121094 L 606.484375 587.125 L 611.734375 580.285156 L 624.09375 573.324219 L 626.09375 567.339844 L 630.0625 562.292969 L 632.148438 557.328125 L 634.484375 551.0625 L 634.507812 542.722656 L 633.460938 532.46875 L 643.769531 523.046875 L 644.976562 516.101562 L 645.453125 511.21875 L 643.367188 507.4375 L 640.183594 504.148438 L 639.445312 500.882812 L 641.476562 497.371094 L 640.839844 493.867188 L 641.210938 491.097656 L 633.164062 489.070312 L 554.214844 487.464844 L 552.882812 488.25 "/>
<path style="fill:none;stroke-width:0.75;stroke-linecap:round;stroke-linejoin:round;stroke:rgb(0%,0%,0%);stroke-opacity:1;stroke-miterlimit:10;" d="M 711.664062 534.515625 L 707.726562 536 L 703.738281 537.425781 L 699.835938 538.808594 L 696.164062 540.164062 L 692.828125 541.511719 L 689.789062 542.851562 L 686.976562 544.183594 L 684.320312 545.519531 L 681.742188 546.851562 L 679.179688 548.1875 L 676.570312 549.527344 L 673.855469 550.867188 L 670.984375 552.214844 L 667.917969 553.570312 L 664.710938 554.921875 L 661.4375 556.277344 L 658.175781 557.625 L 655 558.964844 L 651.960938 560.289062 L 649.011719 561.582031 L 646.085938 562.832031 L 643.105469 564.011719 L 640.003906 565.113281 L 636.707031 566.191406 L 633.128906 567.621094 L 629.175781 569.851562 L 624.757812 573.328125 L 619.867188 578.375 L 614.796875 584.78125 L 609.925781 592.21875 L 605.632812 600.34375 L 602.292969 608.824219 L 600.15625 617.324219 L 598.964844 625.507812 L 598.332031 633.046875 L 597.871094 639.597656 L 597.195312 644.828125 L 596.023438 648.578125 L 594.460938 651.335938 L 592.726562 653.769531 L 591.027344 656.542969 L 589.53125 660.152344 L 588.210938 664.421875 L 587 669.007812 L 585.824219 673.570312 L 584.617188 677.765625 L 583.320312 681.359375 L 581.949219 684.578125 L 580.539062 687.753906 L 579.117188 691.214844 L 577.71875 695.292969 L 576.371094 700.289062 L 575.054688 706.324219 L 573.753906 713.488281 L 572.445312 721.871094 L 571.113281 731.441406 L 569.765625 741.695312 L 568.40625 752.007812 L 567.046875 761.761719 L 565.695312 770.324219 L 564.355469 777.277344 L 563.027344 782.964844 L 561.699219 787.933594 L 560.367188 792.726562 L 559.023438 797.894531 L 557.660156 803.808594 L 556.292969 810.171875 L 554.929688 816.523438 L 553.585938 822.394531 L 552.265625 827.515625 L 550.960938 832.433594 L 549.648438 837.882812 L 548.308594 844.597656 L 546.929688 853.316406 L 545.519531 864.84375 L 544.222656 880.199219 L 543.214844 900.476562 L 542.664062 926.761719 L 542.753906 960.144531 L 543.496094 1001.003906 L 544.269531 1046.886719 L 544.289062 1094.640625 L 542.777344 1141.101562 L 539.308594 1183.582031 L 534.882812 1221.257812 L 530.851562 1253.761719 L 528.574219 1280.746094 L 529.398438 1301.839844 L 534.261719 1316.980469 L 542.417969 1327.226562 L 552.710938 1333.9375 L 563.972656 1338.460938 L 575.039062 1342.148438 L 585.035156 1346.089844 L 594.226562 1350.300781 L 603.160156 1354.535156 L 612.382812 1358.546875 L 622.355469 1362.101562 L 633.160156 1365.023438 L 644.773438 1367.160156 L 657.191406 1368.347656 L 670.390625 1368.425781 L 684.296875 1367.300781 L 698.535156 1365.132812 L 712.671875 1362.152344 L 726.265625 1358.578125 L 738.878906 1354.640625 L 750.136719 1350.546875 L 759.945312 1346.433594 L 768.265625 1342.421875 L 775.066406 1338.628906 L 780.386719 1335.164062 L 784.550781 1332.0625 L 787.949219 1329.339844 L 790.980469 1327.023438 L 794.035156 1325.132812 L 797.429688 1323.640625 L 801.171875 1322.367188 L 805.179688 1321.082031 L 809.386719 1319.554688 L 813.71875 1317.558594 L 818.105469 1314.933594 L 822.539062 1311.78125 L 827.003906 1308.269531 L 831.503906 1304.574219 L 836.0625 1300.808594 L 840.851562 1296.863281 L 846.066406 1292.570312 L 851.917969 1287.769531 L 858.605469 1282.292969 L 866.210938 1276.066406 L 874.351562 1269.378906 L 882.527344 1262.613281 L 890.230469 1256.152344 L 896.964844 1250.375 L 902.367188 1245.554688 L 906.667969 1241.5 L 910.242188 1237.914062 L 913.453125 1234.492188 L 916.617188 1230.984375 L 919.820312 1227.316406 L 923.082031 1223.460938 L 926.429688 1219.398438 L 929.886719 1215.09375 L 933.488281 1210.511719 L 937.355469 1205.5625 L 941.613281 1200.144531 L 946.394531 1194.152344 L 951.832031 1187.484375 L 957.941406 1180.148438 L 964.332031 1172.585938 L 970.488281 1165.339844 L 975.90625 1158.964844 L 980.207031 1153.859375 L 983.535156 1149.816406 L 986.15625 1146.480469 L 988.347656 1143.492188 L 990.378906 1140.496094 L 992.457031 1137.191406 L 994.523438 1133.484375 L 996.449219 1129.347656 L 998.109375 1124.734375 L 999.378906 1119.613281 L 1000.191406 1114.019531 L 1000.710938 1108.261719 L 1001.171875 1102.726562 L 1001.800781 1097.792969 L 1002.761719 1093.710938 L 1003.984375 1090.214844 L 1005.335938 1086.898438 L 1006.6875 1083.359375 L 1007.90625 1079.199219 L 1008.898438 1074.144531 L 1009.738281 1068.4375 L 1010.539062 1062.445312 L 1011.417969 1056.539062 L 1012.484375 1051.085938 L 1013.828125 1046.34375 L 1015.433594 1042.121094 L 1017.261719 1038.113281 L 1019.265625 1034.007812 L 1021.40625 1029.566406 L 1023.582031 1024.769531 L 1025.699219 1019.667969 L 1027.652344 1014.308594 L 1029.339844 1008.738281 L 1030.695312 1002.996094 L 1031.753906 997.089844 L 1032.585938 991.027344 L 1033.265625 984.800781 L 1033.859375 978.421875 L 1034.433594 971.875 L 1035.058594 965.082031 L 1035.785156 957.957031 L 1036.683594 950.40625 L 1037.792969 942.417969 L 1039.078125 934.285156 L 1040.496094 926.382812 L 1041.992188 919.078125 L 1043.519531 912.75 L 1045.023438 907.550781 L 1046.464844 902.785156 L 1047.789062 897.53125 L 1048.960938 890.882812 L 1049.929688 881.921875 L 1050.65625 869.992188 L 1051.136719 855.496094 L 1051.363281 839.085938 L 1051.339844 821.421875 L 1051.070312 803.203125 L 1050.5625 785.300781 L 1049.828125 768.628906 L 1048.890625 754.101562 L 1047.757812 742.632812 L 1046.457031 734.765625 L 1045.035156 729.546875 L 1043.554688 725.652344 L 1042.070312 721.769531 L 1040.640625 716.566406 L 1039.3125 709.136719 L 1038.046875 700.222656 L 1036.789062 690.976562 L 1035.496094 682.550781 L 1034.125 675.839844 L 1032.707031 670.703125 L 1031.28125 666.742188 L 1029.886719 663.558594 L 1028.566406 660.753906 L 1027.34375 657.992188 L 1026.171875 655.210938 L 1024.980469 652.417969 L 1023.699219 649.617188 L 1022.261719 646.808594 L 1020.617188 643.976562 L 1018.769531 641.03125 L 1016.738281 637.855469 L 1014.539062 634.335938 L 1012.21875 630.410156 L 1009.875 626.195312 L 1007.636719 621.855469 L 1005.625 617.558594 L 1003.972656 613.46875 L 1002.738281 609.703125 L 1001.773438 606.191406 L 1000.867188 602.8125 L 999.8125 599.453125 L 998.390625 595.988281 L 996.441406 592.328125 L 993.941406 588.519531 L 990.921875 584.621094 L 987.402344 580.707031 L 983.433594 576.847656 L 979.171875 573.152344 L 974.800781 569.722656 L 970.496094 566.675781 L 966.441406 564.113281 L 962.773438 562.09375 L 959.441406 560.441406 L 956.355469 558.933594 L 953.425781 557.335938 L 950.558594 555.425781 L 947.609375 553.050781 L 944.238281 550.351562 L 940.0625 547.550781 L 934.691406 544.871094 L 927.898438 542.511719 L 920.121094 540.585938 L 911.960938 539.179688 L 904.023438 538.390625 L 896.90625 538.304688 L 891.09375 539.050781 L 886.578125 540.898438 L 883.246094 544.160156 L 880.964844 549.152344 L 879.621094 556.175781 L 879.035156 565.308594 L 878.832031 575.671875 L 878.582031 586.152344 L 877.863281 595.636719 L 876.375 603.398438 L 874.335938 610.253906 L 872.101562 617.410156 L 870.011719 626.070312 L 868.425781 637.433594 L 867.582031 652.171875 L 867.316406 668.761719 L 867.347656 685.160156 L 867.410156 699.308594 L 867.289062 709.703125 L 867.035156 717.03125 L 866.761719 722.542969 L 866.578125 727.476562 L 866.597656 733.074219 L 866.882812 740.265625 L 867.277344 748.765625 L 867.578125 757.964844 L 867.578125 767.269531 L 867.070312 776.074219 L 865.925781 783.914062 L 864.324219 790.859375 L 862.511719 797.128906 L 860.75 802.921875 L 859.234375 808.425781 L 857.9375 813.675781 L 856.78125 818.6875 L 855.679688 823.472656 L 854.554688 828.042969 L 853.316406 832.453125 L 851.867188 836.941406 L 850.09375 841.789062 L 847.886719 847.277344 L 845.136719 853.691406 L 841.800781 861.066406 L 838.085938 868.488281 L 834.265625 874.789062 L 830.613281 878.808594 L 827.332031 879.726562 L 824.363281 878.09375 L 821.585938 874.796875 L 818.875 870.71875 L 816.101562 866.75 L 813.1875 863.660156 L 810.195312 861.722656 L 807.234375 861.09375 L 804.417969 861.925781 L 801.851562 864.371094 L 799.738281 868.5 L 798.644531 874.007812 L 799.246094 880.511719 L 802.199219 887.617188 L 807.875 894.921875 L 815.457031 901.929688 L 823.820312 908.128906 L 831.851562 913.003906 L 838.429688 916.042969 L 842.746094 916.878906 L 845.25 915.734375 L 846.679688 912.984375 L 847.796875 908.992188 L 849.347656 904.136719 L 851.886719 898.832031 L 855.183594 893.703125 L 858.816406 889.421875 L 862.355469 886.664062 L 865.417969 885.933594 L 867.816406 887.070312 L 869.402344 889.75 L 870.035156 893.648438 L 869.5625 898.4375 L 867.957031 903.808594 L 865.632812 909.53125 L 863.109375 915.390625 L 860.917969 921.167969 L 859.578125 926.65625 L 859.417969 931.660156 L 859.957031 936.082031 L 860.519531 939.847656 L 860.425781 942.886719 L 859.171875 945.195312 L 856.957031 947.09375 L 854.152344 948.96875 L 851.132812 951.210938 L 848.269531 954.210938 L 845.835938 958.246094 L 843.722656 963.164062 L 841.722656 968.695312 L 839.617188 974.570312 L 837.207031 980.519531 L 834.34375 986.296875 L 831.175781 991.707031 L 827.914062 996.582031 L 824.773438 1000.75 L 821.921875 1004.109375 L 819.359375 1006.824219 L 817.042969 1009.132812 L 814.929688 1011.273438 L 812.980469 1013.476562 L 811.164062 1015.945312 L 809.5 1018.710938 L 808.035156 1021.765625 L 806.804688 1025.109375 L 805.84375 1028.730469 L 805.117188 1032.65625 L 804.296875 1037.058594 L 802.976562 1042.125 L 800.742188 1048.0625 L 797.359375 1054.980469 L 793.222656 1062.683594 L 788.902344 1070.878906 L 784.960938 1079.289062 L 781.964844 1087.628906 L 780.347656 1095.671875 L 780.039062 1103.4375 L 780.835938 1111.003906 L 782.535156 1118.453125 L 784.933594 1125.867188 L 787.796875 1133.277344 L 790.75 1140.566406 L 793.402344 1147.558594 L 795.339844 1154.09375 L 796.238281 1160.023438 L 796.039062 1165.316406 L 794.753906 1169.957031 L 792.394531 1173.933594 L 788.980469 1177.234375 L 784.621094 1179.792969 L 779.796875 1181.308594 L 775.105469 1181.417969 L 771.125 1179.777344 L 768.445312 1176.019531 L 767.40625 1170.09375 L 767.390625 1163.152344 L 767.53125 1156.652344 L 766.964844 1152.054688 L 765.046875 1150.445312 L 761.996094 1151.460938 L 758.257812 1154.367188 L 754.273438 1158.4375 L 750.488281 1162.9375 L 747.265625 1167.285156 L 744.640625 1171.480469 L 742.566406 1175.671875 L 741.007812 1180.003906 L 739.914062 1184.625 L 739.15625 1189.589844 L 738.246094 1194.574219 L 736.597656 1199.160156 L 733.632812 1202.929688 L 728.953125 1205.550781 L 722.898438 1207.011719 L 715.976562 1207.390625 L 708.710938 1206.761719 L 701.613281 1205.199219 L 695.175781 1202.785156 L 689.769531 1199.617188 L 685.738281 1195.800781 L 683.421875 1191.441406 L 683.164062 1186.648438 L 685.054688 1181.527344 L 688.128906 1176.203125 L 691.175781 1170.804688 L 692.980469 1165.453125 L 692.640625 1160.269531 L 690.527344 1155.328125 L 687.332031 1150.695312 L 683.738281 1146.425781 L 680.429688 1142.589844 L 677.976562 1139.230469 L 676.441406 1136.304688 L 675.777344 1133.753906 L 675.929688 1131.515625 L 676.84375 1129.53125 L 678.476562 1127.742188 L 680.808594 1126.082031 L 683.839844 1124.496094 L 687.550781 1122.925781 L 691.894531 1121.292969 L 696.613281 1119.445312 L 701.402344 1117.214844 L 705.953125 1114.4375 L 709.96875 1110.945312 L 713.273438 1106.652344 L 716.230469 1101.808594 L 719.34375 1096.746094 L 723.109375 1091.800781 L 728.027344 1087.300781 L 734.398438 1083.414062 L 741.746094 1079.640625 L 749.410156 1075.316406 L 756.714844 1069.777344 L 763.066406 1062.550781 L 768.164062 1053.949219 L 771.785156 1044.480469 L 773.703125 1034.65625 L 773.691406 1024.976562 L 771.675781 1015.878906 L 768.191406 1007.53125 L 763.921875 1000.011719 L 759.546875 993.417969 L 755.753906 987.832031 L 753 983.21875 L 750.8125 979.019531 L 748.5 974.542969 L 745.355469 969.105469 L 740.890625 962.25 L 735.398438 954.414062 L 729.382812 946.277344 L 723.351562 938.507812 L 717.796875 931.78125 L 713.121094 926.527344 L 709.300781 922.195312 L 706.207031 918.007812 L 703.714844 913.164062 L 701.695312 906.882812 L 700.019531 898.652344 L 698.570312 889.109375 L 697.210938 879.160156 L 695.824219 869.726562 L 694.324219 861.527344 L 692.785156 854.582031 L 691.335938 848.707031 L 690.085938 843.734375 L 689.164062 839.484375 L 688.664062 835.695312 L 688.601562 831.726562 L 688.976562 826.84375 L 689.785156 820.324219 L 691.019531 811.429688 L 692.664062 799.703125 L 694.664062 785.753906 L 696.953125 770.464844 L 699.460938 754.714844 L 702.070312 739.378906 L 704.457031 725.3125 L 706.246094 713.363281 L 707.058594 704.375 L 706.523438 699.199219 L 704.4375 698.257812 L 701.308594 700.296875 L 697.820312 703.636719 L 694.648438 706.59375 L 692.480469 707.496094 L 691.757812 705.132812 L 692.007812 700.21875 L 692.511719 693.929688 L 692.5625 687.453125 L 691.667969 681.757812 L 690.238281 676.9375 L 688.910156 672.871094 L 688.316406 669.449219 L 689.09375 666.542969 L 691.648438 664.007812 L 695.484375 661.535156 L 699.878906 658.804688 L 704.101562 655.476562 L 707.429688 651.222656 L 709.378906 645.824219 L 710.402344 639.535156 L 711.195312 632.722656 L 712.457031 625.75 L 714.699219 618.941406 L 717.75 612.421875 L 721.265625 606.273438 L 724.890625 600.582031 L 728.285156 595.421875 L 731.167969 590.855469 L 733.546875 586.859375 L 735.515625 583.375 L 737.144531 580.359375 L 738.527344 577.765625 L 739.691406 575.527344 L 740.480469 573.535156 L 740.6875 571.660156 L 740.109375 569.777344 L 738.636719 567.777344 L 736.542969 565.585938 L 734.199219 563.144531 L 731.980469 560.402344 L 730.253906 557.292969 L 729.171875 553.773438 L 727.988281 549.828125 L 725.734375 545.445312 L 721.441406 540.625 L 714.140625 535.363281 L 711.664062 534.515625 "/>
<path style="fill:none;stroke-width:0.75;stroke-linecap:round;stroke-linejoin:round;stroke:rgb(0%,0%,0%);stroke-opacity:1;stroke-miterlimit:10;" d="M 733.308594 220.882812 L 722.984375 226.070312 L 712.605469 230.308594 L 703.769531 234.363281 L 696.632812 238.40625 L 691.023438 242.277344 L 686.878906 245.058594 L 684.113281 246.179688 L 682.378906 247.207031 L 681.21875 249.75 L 679.9375 253.421875 L 677.804688 257.335938 L 674.382812 260.886719 L 670.488281 264.574219 L 667.039062 268.960938 L 664.113281 273.675781 L 661.621094 278.160156 L 659.625 281.957031 L 658.164062 284.816406 L 656.949219 287.171875 L 655.605469 289.648438 L 653.996094 292.683594 L 652.859375 296.0625 L 652.9375 299.488281 L 654.09375 303.070312 L 655.820312 306.738281 L 657.066406 309.367188 L 656.949219 310.304688 L 655.828125 311.855469 L 654.363281 317.074219 L 653.042969 327.59375 L 651.601562 339.3125 L 649.863281 347.738281 L 648.703125 352.46875 L 648.820312 354.808594 L 649.121094 358.78125 L 648.457031 367.453125 L 647.269531 377.316406 L 646.382812 383.230469 L 645.882812 384.136719 L 642.871094 395.351562 L 637.085938 428.808594 L 641.859375 466.515625 L 667.390625 488.285156 L 697.855469 495.070312 L 715.457031 492.808594 L 720.625 486.332031 L 718.335938 480.175781 L 713.261719 477.21875 L 708.8125 473.671875 L 707.152344 465.828125 L 706.675781 456.972656 L 705.441406 450.859375 L 703.824219 446.074219 L 702.570312 440.496094 L 701.511719 434.3125 L 700.253906 428.285156 L 698.34375 422.3125 L 695.113281 412.816406 L 690.304688 397.441406 L 685.46875 382.144531 L 682.421875 373.152344 L 682.144531 369.449219 L 684.753906 368.304688 L 687.746094 367.355469 L 688.640625 364.863281 L 687.804688 361.160156 L 686.296875 357.105469 L 685.328125 353.339844 L 686.726562 349.636719 L 691.398438 345.648438 L 696.027344 341.414062 L 697.214844 337.164062 L 695.535156 333.589844 L 692.589844 331.238281 L 690.167969 329.625 L 690.113281 328.019531 L 693.449219 325.839844 L 697.949219 323.128906 L 700.984375 320.089844 L 701.65625 316.898438 L 700.015625 313.765625 L 698.296875 311.007812 L 698.628906 308.859375 L 700.632812 307.019531 L 703.289062 305.074219 L 705.464844 302.796875 L 705.566406 300.773438 L 702.617188 299.355469 L 698.625 297.242188 L 695.875 293.28125 L 694.804688 288.640625 L 695.644531 284.757812 L 699.605469 281.808594 L 708.15625 279.65625 L 721.1875 278.066406 L 732.359375 276.394531 L 735.503906 274.15625 L 731.398438 271.871094 L 723.699219 270.046875 L 720.539062 268.148438 L 728.648438 265.714844 L 744.695312 263.691406 L 762.816406 263.375 L 777.386719 265.46875 L 783.664062 268.3125 L 779.375 270.230469 L 771.222656 271.835938 L 766.785156 274.003906 L 768.109375 276.320312 L 775.035156 278.25 L 784.121094 279.957031 L 791.089844 281.796875 L 793.183594 284.109375 L 793.699219 287.195312 L 796.515625 291.214844 L 801.773438 295.757812 L 808.488281 300.234375 L 814.941406 303.890625 L 819.40625 306.34375 L 820.882812 308.867188 L 819.121094 312.738281 L 816.238281 317.648438 L 814.9375 322.875 L 817.097656 327.699219 L 821.320312 331.351562 L 825.851562 333.683594 L 830.757812 337.070312 L 836.113281 343.601562 L 840.199219 351.773438 L 841.507812 359.492188 L 841.195312 365.886719 L 841.078125 370.398438 L 842.34375 372.980469 L 843.667969 375.644531 L 843.765625 380.144531 L 844.023438 385.210938 L 846.125 389.300781 L 850.285156 392.855469 L 856.089844 396.605469 L 861.996094 400.453125 L 866.175781 404.089844 L 867.507812 407.382812 L 867.625 410.882812 L 868.28125 415.085938 L 868.957031 419.660156 L 868.933594 424.09375 L 868.96875 427.988281 L 869.914062 431.152344 L 871.5 434.152344 L 873.171875 437.730469 L 874.515625 442.257812 L 875.671875 446.617188 L 876.882812 449.894531 L 878.230469 453.464844 L 879.816406 458.902344 L 881.992188 466.253906 L 885.246094 474.855469 L 890.410156 482.761719 L 898.410156 487.707031 L 909.195312 488.3125 L 918.824219 486.796875 L 923.898438 485.542969 L 927.007812 484.070312 L 931.199219 481.441406 L 935.359375 477.785156 L 937.859375 473.507812 L 939.191406 469.050781 L 940.394531 464.871094 L 941.808594 461.296875 L 941.035156 458.21875 L 936.121094 455.355469 L 929.660156 452.25 L 924.691406 448.605469 L 921.460938 444.9375 L 919.433594 441.414062 L 917.742188 435.941406 L 915.597656 426.820312 L 912.882812 416.171875 L 909.640625 407.058594 L 906.066406 401.566406 L 902.976562 397.902344 L 901.050781 393.820312 L 899.78125 389.242188 L 898.507812 384.515625 L 897.171875 379.582031 L 895.832031 374.335938 L 894.5 368.882812 L 893.160156 363.371094 L 891.804688 358.054688 L 890.464844 353.589844 L 889.167969 350.355469 L 887.917969 347.136719 L 886.585938 342.835938 L 884.472656 338.3125 L 881.0625 334.546875 L 877.097656 330.980469 L 873.640625 326.675781 L 871.46875 321.167969 L 870.246094 315.859375 L 869.296875 312.058594 L 867.789062 308.742188 L 865.027344 304.589844 L 861.085938 299.378906 L 856.285156 293.253906 L 851.148438 286.761719 L 846.253906 280.542969 L 841.933594 274.9375 L 837.519531 269.089844 L 832.324219 262.246094 L 826.542969 255.375 L 820.640625 249.636719 L 815.285156 245.34375 L 811.03125 242.492188 L 807.753906 240.703125 L 805.167969 239.507812 L 802.867188 238.414062 L 800.042969 236.878906 L 796.140625 234.585938 L 792.042969 232.277344 L 788.367188 230.589844 L 783.203125 228.707031 L 774.121094 225.789062 L 759.195312 222.378906 L 736.625 219.375 L 733.308594 220.882812 "/>
<path style="fill:none;stroke-width:0.75;stroke-linecap:round;stroke-linejoin:round;stroke:rgb(0%,0%,0%);stroke-opacity:1;stroke-miterlimit:10;" d="M 990.28125 404.957031 L 989.128906 409.660156 L 986.800781 414 L 982.199219 417.507812 L 975.105469 420.390625 L 967.570312 425.09375 L 961.578125 433.425781 L 956.476562 442.441406 L 951.578125 448.9375 L 948.234375 453.320312 L 946.519531 456.488281 L 946.054688 459.148438 L 946.636719 461.675781 L 948.003906 464.304688 L 949.5625 467.003906 L 950.855469 469.6875 L 952.175781 472.371094 L 953.550781 475.058594 L 954.90625 477.742188 L 956.230469 480.425781 L 957.546875 483.109375 L 958.890625 485.796875 L 960.273438 488.480469 L 961.613281 491.167969 L 962.929688 493.832031 L 964.257812 496.457031 L 965.613281 499.121094 L 966.984375 501.980469 L 968.328125 505.34375 L 969.625 509.195312 L 970.949219 512.460938 L 972.230469 515.332031 L 973.519531 518.289062 L 975.582031 521.335938 L 979.007812 524.40625 L 983.066406 527.578125 L 986.570312 530.828125 L 988.4375 533.8125 L 989.804688 536.894531 L 991.957031 540.4375 L 994.417969 544.015625 L 996.449219 547.148438 L 997.976562 549.871094 L 999.1875 552.910156 L 1000.480469 558.402344 L 1001.855469 566 L 1003.21875 574.515625 L 1004.546875 582.433594 L 1005.855469 588.496094 L 1007.207031 592.839844 L 1008.589844 595.960938 L 1009.78125 598.527344 L 1011.179688 601.234375 L 1013.222656 604.625 L 1015.839844 608.625 L 1018.738281 612.890625 L 1021.277344 616.675781 L 1023.15625 618.820312 L 1025.410156 618.324219 L 1028.179688 619.394531 L 1031.648438 626.082031 L 1037.460938 636.296875 L 1046.605469 646.660156 L 1055.882812 654.847656 L 1061.613281 659.644531 L 1063.15625 662.925781 L 1063.8125 666.109375 L 1067.496094 669.753906 L 1077.179688 672.265625 L 1093.105469 672.058594 L 1105.554688 669.734375 L 1107.308594 666.414062 L 1108.222656 662.773438 L 1111.28125 657.894531 L 1116.121094 651.144531 L 1120.835938 644.546875 L 1123.703125 639.917969 L 1125.3125 635.621094 L 1126.730469 629.570312 L 1128.34375 621.597656 L 1129.457031 612.984375 L 1129.359375 604.945312 L 1128.292969 597.367188 L 1126.667969 590.167969 L 1124.652344 584.691406 L 1122.617188 581.128906 L 1121.460938 574.945312 L 1120.230469 565.320312 L 1117.726562 553.527344 L 1113.867188 543.976562 L 1109.261719 540.195312 L 1106.105469 539.023438 L 1106.164062 536.789062 L 1107.992188 534.128906 L 1109.542969 531.453125 L 1109.207031 528.761719 L 1106.777344 525.695312 L 1102.742188 521.363281 L 1098.933594 513.121094 L 1097.039062 499.992188 L 1096.367188 488.003906 L 1093.996094 479.457031 L 1087.886719 474.558594 L 1081.265625 470.980469 L 1077.394531 466.382812 L 1074.5 460.898438 L 1070.523438 455.5625 L 1066.769531 451.847656 L 1062.820312 448.535156 L 1057.160156 444.222656 L 1046.578125 439.695312 L 1030.097656 435.984375 L 1017.449219 432.875 L 1015.824219 429.847656 L 1014.839844 426.367188 L 1011.867188 421.726562 L 1007.535156 415.675781 L 1002.613281 410.007812 L 997.523438 406.441406 L 991.148438 404.402344 L 990.28125 404.957031 "/>
</g>
</svg>
