<?xml version="1.0" encoding="UTF-8"?>
<svg xmlns="http://www.w3.org/2000/svg" xmlns:xlink="http://www.w3.org/1999/xlink" width="1428pt" height="1605pt" viewBox="0 0 1428 1605" version="1.1">
<g id="surface289">
<rect x="0" y="0" width="1428" height="1605" style="fill:rgb(100%,100%,100%);fill-opacity:1;stroke:none;"/>
<path style="fill:none;stroke-width:0.75;stroke-linecap:round;stroke-linejoin:round;stroke:rgb(0%,0%,0%);stroke-opacity:1;stroke-miterlimit:10;" d="M 736.40625 210.132812 L 733.351562 213.078125 L 728.011719 215.894531 L 720.550781 219.152344 L 711.117188 223.421875 L 700.015625 229.140625 L 688.105469 236.183594 L 676.386719 244.296875 L 665.859375 253.222656 L 657.523438 262.707031 L 652.09375 272.507812 L 649.101562 282.496094 L 647.796875 292.558594 L 647.425781 302.585938 L 647.226562 312.472656 L 646.625 322.105469 L 645.707031 331.410156 L 644.738281 340.3125 L 643.988281 348.746094 L 643.714844 356.632812 L 644.054688 363.890625 L 644.609375 370.355469 L 644.851562 375.867188 L 644.25 380.253906 L 642.277344 383.34375 L 638.570312 385.074219 L 633.421875 385.816406 L 627.289062 386.050781 L 620.628906 386.257812 L 613.898438 386.910156 L 607.472656 388.320312 L 601.382812 390.105469 L 595.574219 391.714844 L 589.992188 392.589844 L 584.652344 392.300781 L 579.863281 390.886719 L 575.988281 388.507812 L 573.40625 385.316406 L 572.480469 381.476562 L 573.40625 377.132812 L 575.621094 372.386719 L 578.390625 367.332031 L 580.972656 362.0625 L 582.625 356.671875 L 582.773438 351.242188 L 581.484375 345.828125 L 578.992188 340.480469 L 575.527344 335.246094 L 571.324219 330.171875 L 566.601562 325.300781 L 561.558594 320.621094 L 556.390625 316.121094 L 551.285156 311.78125 L 546.429688 307.589844 L 541.921875 303.589844 L 537.449219 300.085938 L 532.617188 297.441406 L 527.019531 296.023438 L 520.253906 296.195312 L 512.109375 298.222656 L 503.167969 301.960938 L 494.207031 307.167969 L 486.003906 313.59375 L 479.328125 320.992188 L 474.765625 329.09375 L 472.125 337.507812 L 471.019531 345.8125 L 471.0625 353.59375 L 471.902344 360.511719 L 473.316406 366.535156 L 475.117188 371.714844 L 477.125 376.097656 L 479.152344 379.734375 L 480.988281 382.707031 L 482.308594 385.261719 L 482.777344 387.675781 L 482.054688 390.226562 L 479.789062 393.191406 L 475.898438 396.71875 L 471.328125 400.449219 L 467.273438 403.886719 L 464.941406 406.53125 L 465.523438 407.898438 L 469.855469 407.6875 L 477.28125 406.378906 L 486.777344 404.652344 L 497.3125 403.183594 L 507.863281 402.652344 L 517.488281 403.636719 L 525.550781 406.328125 L 531.496094 410.816406 L 534.773438 417.1875 L 534.824219 425.539062 L 531.421875 435.78125 L 525.652344 447.15625 L 518.914062 458.71875 L 512.621094 469.53125 L 508.179688 478.652344 L 506.601562 485.457031 L 507.324219 490.550781 L 509.398438 494.851562 L 511.871094 499.28125 L 513.96875 504.542969 L 515.632812 510.453125 L 516.992188 516.617188 L 518.175781 522.640625 L 519.304688 528.125 L 520.421875 532.722656 L 521.199219 536.300781 L 521.238281 538.769531 L 520.125 540.046875 L 517.457031 540.050781 L 513.023438 538.769531 L 507.429688 536.515625 L 501.484375 533.667969 L 495.992188 530.617188 L 491.761719 527.746094 L 489.304688 525.296875 L 487.933594 522.921875 L 486.664062 520.125 L 484.523438 516.414062 L 480.519531 511.296875 L 473.988281 504.488281 L 465.492188 496.53125 L 455.917969 488.191406 L 446.136719 480.214844 L 437.027344 473.367188 L 429.246094 468.175781 L 422.535156 464.292969 L 416.410156 461.148438 L 410.386719 458.167969 L 403.984375 454.777344 L 396.699219 450.601562 L 387.988281 446.023438 L 377.28125 441.632812 L 364.011719 438.007812 L 347.914062 435.621094 L 329.914062 434.515625 L 311.238281 434.625 L 293.117188 435.878906 L 276.773438 438.210938 L 263.121094 441.527344 L 251.84375 445.601562 L 242.304688 450.179688 L 233.871094 455.019531 L 225.914062 459.859375 L 217.933594 464.527344 L 209.976562 469.148438 L 202.21875 473.921875 L 194.839844 479.046875 L 188.019531 484.726562 L 181.898438 491.046875 L 176.480469 497.699219 L 171.714844 504.246094 L 167.570312 510.265625 L 164 515.332031 L 160.957031 519.167969 L 158.359375 522.101562 L 156.113281 524.605469 L 154.125 527.15625 L 152.300781 530.230469 L 150.539062 534.179688 L 148.691406 538.878906 L 146.601562 544.066406 L 144.109375 549.492188 L 141.0625 554.90625 L 137.398438 560.125 L 133.46875 565.277344 L 129.71875 570.574219 L 126.597656 576.214844 L 124.421875 582.3125 L 122.964844 588.578125 L 121.878906 594.625 L 120.804688 600.078125 L 119.390625 604.550781 L 117.371094 607.800781 L 114.84375 610.152344 L 112 612.0625 L 109.023438 613.996094 L 106.105469 616.414062 L 103.394531 619.667969 L 100.867188 623.675781 L 98.464844 628.234375 L 96.125 633.152344 L 93.777344 638.230469 L 91.394531 643.3125 L 89.027344 648.429688 L 86.757812 653.636719 L 84.664062 659 L 82.828125 664.589844 L 81.296875 670.402344 L 79.960938 676.1875 L 78.679688 681.636719 L 77.3125 686.433594 L 75.714844 690.265625 L 73.785156 693.027344 L 71.585938 695.425781 L 69.210938 698.378906 L 66.757812 702.796875 L 64.328125 709.601562 L 61.996094 719.34375 L 59.769531 731.167969 L 57.625 743.851562 L 55.546875 756.175781 L 53.527344 767.125 L 51.582031 776.515625 L 49.738281 784.351562 L 48.027344 790.652344 L 46.46875 795.429688 L 45.070312 798.828125 L 43.777344 801.519531 L 42.507812 804.304688 L 41.179688 807.984375 L 39.71875 813.359375 L 38.09375 821.011719 L 36.460938 830.628906 L 35.03125 841.683594 L 34.011719 853.636719 L 33.613281 865.957031 L 33.960938 878.167969 L 34.859375 889.996094 L 36.019531 901.226562 L 37.171875 911.644531 L 38.023438 921.027344 L 38.390625 929.242188 L 38.417969 936.476562 L 38.347656 943.007812 L 38.414062 949.105469 L 38.855469 955.042969 L 39.847656 961.007812 L 41.304688 966.835938 L 43.082031 972.285156 L 45.035156 977.113281 L 47.019531 981.070312 L 48.894531 984.074219 L 50.589844 986.664062 L 52.035156 989.546875 L 53.164062 993.417969 L 53.953125 998.785156 L 54.535156 1005.347656 L 55.074219 1012.605469 L 55.746094 1020.058594 L 56.722656 1027.207031 L 58.117188 1033.648438 L 59.839844 1039.378906 L 61.742188 1044.484375 L 63.679688 1049.054688 L 65.507812 1053.1875 L 67.109375 1056.96875 L 68.496094 1060.484375 L 69.714844 1063.835938 L 70.804688 1067.105469 L 71.8125 1070.386719 L 72.792969 1073.75 L 73.84375 1077.1875 L 75.085938 1080.675781 L 76.625 1084.191406 L 78.585938 1087.699219 L 81.058594 1091.195312 L 84.097656 1094.691406 L 87.734375 1098.222656 L 92 1101.820312 L 96.925781 1105.511719 L 102.464844 1109.304688 L 108.199219 1113.09375 L 113.640625 1116.746094 L 118.28125 1120.132812 L 121.628906 1123.113281 L 123.398438 1125.628906 L 124.164062 1127.871094 L 124.710938 1130.109375 L 125.824219 1132.601562 L 128.082031 1135.554688 L 131.175781 1138.914062 L 134.597656 1142.570312 L 137.828125 1146.40625 L 140.355469 1150.308594 L 141.851562 1154.203125 L 142.753906 1158.15625 L 143.695312 1162.273438 L 145.296875 1166.652344 L 148.191406 1171.402344 L 152.773438 1176.589844 L 158.539062 1182.136719 L 164.753906 1187.925781 L 170.679688 1193.84375 L 175.578125 1199.78125 L 178.921875 1205.613281 L 181.011719 1211.195312 L 182.34375 1216.375 L 183.429688 1220.996094 L 184.765625 1224.90625 L 186.765625 1228.050781 L 189.457031 1230.777344 L 192.769531 1233.523438 L 196.644531 1236.734375 L 201.011719 1240.851562 L 205.777344 1246.167969 L 210.738281 1252.390625 L 215.660156 1259.074219 L 220.308594 1265.777344 L 224.453125 1272.054688 L 227.964844 1277.570312 L 231.140625 1282.433594 L 234.378906 1286.851562 L 238.082031 1291.039062 L 242.527344 1295.171875 L 247.472656 1299.28125 L 252.550781 1303.363281 L 257.394531 1307.417969 L 261.640625 1311.441406 L 265.070312 1315.441406 L 268.097656 1319.460938 L 271.289062 1323.554688 L 275.210938 1327.78125 L 280.425781 1332.1875 L 287.289062 1336.808594 L 295.285156 1341.539062 L 303.683594 1346.253906 L 311.757812 1350.824219 L 318.777344 1355.121094 L 324.316406 1359.019531 L 329.199219 1362.402344 L 334.542969 1365.140625 L 341.472656 1367.121094 L 351.113281 1368.21875 L 364.234375 1368.332031 L 380.175781 1367.445312 L 397.929688 1365.554688 L 416.476562 1362.65625 L 434.8125 1358.753906 L 452.238281 1353.976562 L 469.347656 1348.992188 L 487.050781 1344.605469 L 506.257812 1341.621094 L 527.476562 1340.632812 L 549.582031 1341.421875 L 571.054688 1343.566406 L 590.371094 1346.640625 L 606.011719 1350.222656 L 616.898438 1353.914062 L 623.746094 1357.4375 L 627.726562 1360.539062 L 630.003906 1362.96875 L 631.75 1364.476562 L 633.902344 1364.929688 L 636.546875 1364.664062 L 639.53125 1364.125 L 642.714844 1363.773438 L 645.949219 1364.058594 L 649.136719 1365.277344 L 652.34375 1367.105469 L 655.671875 1369.058594 L 659.238281 1370.667969 L 663.144531 1371.445312 L 667.558594 1371.035156 L 672.890625 1369.566406 L 679.605469 1367.277344 L 688.175781 1364.417969 L 699.058594 1361.230469 L 712.433594 1357.921875 L 727.28125 1354.5 L 742.289062 1350.933594 L 756.148438 1347.203125 L 767.550781 1343.269531 L 775.628906 1339.117188 L 781.324219 1334.789062 L 786.035156 1330.328125 L 791.144531 1325.792969 L 797.710938 1321.230469 L 805.425781 1316.71875 L 813.652344 1312.332031 L 821.75 1308.148438 L 829.070312 1304.238281 L 835.175781 1300.613281 L 840.417969 1297.007812 L 845.351562 1293.089844 L 850.53125 1288.527344 L 856.511719 1282.988281 L 863.652344 1276.296875 L 871.535156 1268.910156 L 879.550781 1261.457031 L 887.085938 1254.546875 L 893.527344 1248.804688 L 898.464844 1244.636719 L 902.246094 1241.605469 L 905.429688 1239.054688 L 908.558594 1236.335938 L 912.183594 1232.800781 L 916.730469 1227.949219 L 922.144531 1221.914062 L 928.238281 1214.988281 L 934.832031 1207.460938 L 941.738281 1199.621094 L 948.75 1191.757812 L 955.546875 1184.164062 L 961.777344 1177.128906 L 967.097656 1170.949219 L 971.152344 1165.914062 L 973.753906 1162.195312 L 975.335938 1159.484375 L 976.488281 1157.355469 L 977.808594 1155.378906 L 979.753906 1153.140625 L 982.273438 1150.320312 L 985.1875 1146.617188 L 988.316406 1141.722656 L 991.476562 1135.335938 L 994.523438 1127.277344 L 997.425781 1117.871094 L 1000.191406 1107.5625 L 1002.816406 1096.800781 L 1005.308594 1086.027344 L 1007.671875 1075.65625 L 1009.910156 1065.945312 L 1012.023438 1057.113281 L 1014.015625 1049.382812 L 1015.890625 1042.976562 L 1017.660156 1038.003906 L 1019.355469 1034.148438 L 1021.003906 1030.972656 L 1022.648438 1028.050781 L 1024.324219 1024.949219 L 1026.039062 1021.363281 L 1027.707031 1017.5 L 1029.21875 1013.679688 L 1030.46875 1010.234375 L 1031.34375 1007.488281 L 1031.785156 1005.5625 L 1031.945312 1003.734375 L 1032.027344 1001.058594 L 1032.226562 996.609375 L 1032.75 989.445312 L 1033.734375 979.066406 L 1035.074219 966.699219 L 1036.597656 954 L 1038.136719 942.636719 L 1039.558594 933.804688 L 1040.875 926.84375 L 1042.132812 920.640625 L 1043.382812 914.074219 L 1044.679688 906.03125 L 1046.054688 895.714844 L 1047.484375 883.65625 L 1048.929688 870.707031 L 1050.347656 857.726562 L 1051.703125 845.5625 L 1052.960938 834.859375 L 1054.078125 825.398438 L 1055.03125 816.757812 L 1055.78125 808.5 L 1056.296875 800.203125 L 1056.546875 791.546875 L 1056.511719 782.671875 L 1056.175781 773.835938 L 1055.523438 765.289062 L 1054.53125 757.285156 L 1053.210938 750 L 1051.675781 743.28125 L 1050.054688 736.886719 L 1048.488281 730.585938 L 1047.109375 724.144531 L 1046 717.398438 L 1045.035156 710.46875 L 1044.027344 703.558594 L 1042.800781 696.859375 L 1041.167969 690.570312 L 1039.066406 684.863281 L 1036.890625 679.792969 L 1035.144531 675.394531 L 1034.339844 671.699219 L 1034.855469 668.761719 L 1036.566406 666.714844 L 1039.210938 665.722656 L 1042.53125 665.933594 L 1046.269531 667.511719 L 1050.246094 670.480469 L 1054.597656 674.359375 L 1059.535156 678.527344 L 1065.277344 682.375 L 1072.027344 685.285156 L 1079.886719 686.746094 L 1088.460938 686.652344 L 1097.234375 685.007812 L 1105.703125 681.808594 L 1113.34375 677.058594 L 1119.757812 670.839844 L 1124.976562 663.601562 L 1129.140625 655.886719 L 1132.382812 648.230469 L 1134.84375 641.167969 L 1136.664062 635.101562 L 1137.992188 629.867188 L 1138.964844 625.160156 L 1139.734375 620.675781 L 1140.441406 616.121094 L 1141.175781 611.246094 L 1141.777344 606.050781 L 1142.039062 600.601562 L 1141.742188 594.953125 L 1140.671875 589.167969 L 1138.730469 583.335938 L 1136.253906 577.660156 L 1133.6875 572.371094 L 1131.476562 567.699219 L 1129.945312 563.761719 L 1128.921875 560.21875 L 1128.097656 556.617188 L 1127.171875 552.503906 L 1125.847656 547.421875 L 1123.898438 541.050781 L 1121.402344 533.613281 L 1118.511719 525.464844 L 1115.386719 516.953125 L 1112.179688 508.433594 L 1109.023438 500.222656 L 1105.925781 492.476562 L 1102.878906 485.316406 L 1099.871094 478.855469 L 1096.890625 473.21875 L 1093.894531 468.449219 L 1090.710938 464.328125 L 1087.140625 460.5625 L 1082.984375 456.855469 L 1078.042969 452.921875 L 1072.21875 448.570312 L 1065.828125 444.050781 L 1059.289062 439.71875 L 1053.027344 435.925781 L 1047.457031 433.027344 L 1042.894531 431.214844 L 1039.195312 430.042969 L 1036.121094 428.90625 L 1033.417969 427.199219 L 1030.847656 424.308594 L 1028.09375 419.921875 L 1024.570312 414.851562 L 1019.628906 410.21875 L 1012.625 407.121094 L 1003.226562 406.382812 L 992.417969 407.628906 L 981.503906 410.207031 L 971.78125 413.449219 L 964.5625 416.695312 L 960.738281 419.46875 L 959.546875 421.992188 L 959.820312 424.675781 L 960.382812 427.925781 L 960.0625 432.148438 L 957.957031 437.511719 L 954.207031 443.21875 L 949.21875 448.242188 L 943.394531 451.546875 L 937.148438 452.101562 L 930.847656 449.199219 L 924.734375 443.472656 L 919.027344 435.890625 L 913.925781 427.414062 L 909.648438 419 L 906.335938 411.425781 L 903.871094 404.648438 L 902.070312 398.445312 L 900.746094 392.589844 L 899.71875 386.84375 L 898.808594 381.039062 L 897.882812 375.214844 L 896.8125 369.476562 L 895.476562 363.921875 L 893.742188 358.644531 L 891.546875 353.710938 L 889.070312 349.035156 L 886.554688 344.496094 L 884.238281 339.972656 L 882.285156 335.375 L 880.523438 330.722656 L 878.703125 326.070312 L 876.582031 321.460938 L 873.902344 316.953125 L 870.539062 312.597656 L 866.828125 308.449219 L 863.222656 304.570312 L 860.183594 301.019531 L 858.15625 297.859375 L 857.421875 295.074219 L 857.523438 292.367188 L 857.820312 289.363281 L 857.671875 285.699219 L 856.445312 280.996094 L 853.644531 275.023438 L 849.351562 268.105469 L 843.804688 260.703125 L 837.230469 253.269531 L 829.863281 246.269531 L 821.960938 240.074219 L 813.929688 234.671875 L 806.210938 229.980469 L 799.230469 225.898438 L 793.433594 222.332031 L 788.835938 219.191406 L 783.8125 216.359375 L 776.320312 213.730469 L 764.308594 211.1875 L 745.738281 208.621094 L 736.40625 210.132812 "/>
<path style="fill:none;stroke-width:0.75;stroke-linecap:round;stroke-linejoin:round;stroke:rgb(0%,0%,0%);stroke-opacity:1;stroke-miterlimit:10;" d="M 295.109375 430.628906 L 288.554688 435.160156 L 278.8125 439.472656 L 266.859375 443.546875 L 253.773438 447.394531 L 241.097656 451.167969 L 230.488281 455.054688 L 223.042969 459.210938 L 217.648438 463.6875 L 212.636719 468.511719 L 206.335938 473.707031 L 197.6875 479.28125 L 188.066406 485.203125 L 179.457031 491.429688 L 173.363281 497.851562 L 169.378906 504.148438 L 166.628906 509.921875 L 164.347656 514.867188 L 162.265625 518.996094 L 160.21875 522.402344 L 158.0625 525.175781 L 155.652344 527.519531 L 152.929688 530.078125 L 149.851562 533.59375 L 146.492188 538.546875 L 143.394531 544.335938 L 141.210938 550.085938 L 140.285156 555.15625 L 139.722656 559.816406 L 138.324219 564.570312 L 134.875 569.925781 L 128.804688 576.1875 L 122.082031 582.902344 L 117.296875 589.421875 L 116.277344 595.199219 L 117.773438 600.101562 L 119.75 604.101562 L 120.503906 607.21875 L 119.578125 609.71875 L 116.835938 611.929688 L 112.144531 614.171875 L 105.734375 616.746094 L 99.332031 619.835938 L 95.035156 623.613281 L 94.242188 628.160156 L 95.570312 633.230469 L 96.925781 638.488281 L 96.234375 643.605469 L 92.179688 648.386719 L 86.578125 653.167969 L 82.003906 658.421875 L 80.320312 664.4375 L 80.5 670.757812 L 80.792969 676.738281 L 79.84375 681.863281 L 77.851562 686.148438 L 75.40625 689.722656 L 73.101562 692.730469 L 71.332031 695.445312 L 69.710938 698.691406 L 67.667969 703.429688 L 64.820312 710.40625 L 61.636719 719.527344 L 58.777344 730.476562 L 56.730469 742.8125 L 55.265625 755.53125 L 53.988281 767.492188 L 52.484375 777.550781 L 50.484375 784.917969 L 48.238281 790.191406 L 46.132812 794.316406 L 44.460938 798.097656 L 43.175781 801.773438 L 42.144531 805.441406 L 41.222656 809.316406 L 40.226562 814.039062 L 38.957031 820.367188 L 37.21875 829.058594 L 35 840.5 L 33.03125 853.597656 L 32.222656 866.886719 L 33.175781 879.183594 L 35.226562 890.445312 L 37.417969 900.910156 L 38.777344 910.820312 L 38.667969 920.324219 L 37.738281 929.191406 L 36.96875 937.101562 L 37.113281 943.855469 L 38.015625 949.761719 L 39.308594 955.238281 L 40.671875 960.632812 L 42.0625 965.960938 L 43.496094 971.152344 L 44.992188 976.136719 L 46.570312 980.820312 L 48.269531 985.015625 L 50.125 988.515625 L 52.09375 991.308594 L 53.820312 994.152344 L 54.851562 998.015625 L 54.945312 1003.605469 L 54.609375 1010.621094 L 54.550781 1018.507812 L 55.476562 1026.707031 L 57.800781 1034.648438 L 60.777344 1041.664062 L 63.375 1047.0625 L 64.847656 1050.464844 L 65.574219 1052.738281 L 66.222656 1055.050781 L 67.3125 1058.308594 L 68.792969 1062.347656 L 70.453125 1066.734375 L 72.09375 1071.042969 L 73.554688 1074.929688 L 74.804688 1078.398438 L 75.863281 1081.550781 L 76.8125 1084.5 L 78.03125 1087.402344 L 79.960938 1090.449219 L 83.050781 1093.816406 L 87.539062 1097.621094 L 92.851562 1101.707031 L 98.207031 1105.847656 L 103.03125 1109.847656 L 107.519531 1113.589844 L 112.066406 1116.984375 L 116.886719 1119.976562 L 121.441406 1122.675781 L 124.996094 1125.234375 L 126.835938 1127.792969 L 126.644531 1130.472656 L 125.808594 1133.226562 L 126.121094 1135.984375 L 128.839844 1138.730469 L 133.035156 1141.726562 L 137.230469 1145.289062 L 140.28125 1149.621094 L 142.371094 1154.429688 L 144.015625 1159.308594 L 145.71875 1163.855469 L 147.875 1167.8125 L 150.367188 1171.59375 L 152.964844 1175.75 L 155.644531 1180.730469 L 159.265625 1186.496094 L 164.90625 1192.890625 L 173.042969 1199.699219 L 181.773438 1206.464844 L 188.585938 1212.675781 L 190.980469 1217.824219 L 187.660156 1221.582031 L 182.164062 1224.390625 L 179.234375 1226.878906 L 182.300781 1229.601562 L 189.523438 1232.835938 L 197.75 1236.796875 L 204.429688 1241.613281 L 209.46875 1247.121094 L 213.367188 1253.082031 L 216.640625 1259.257812 L 219.742188 1265.417969 L 222.878906 1271.382812 L 226.210938 1276.988281 L 229.867188 1282.113281 L 233.898438 1286.828125 L 238.316406 1291.25 L 243.152344 1295.5 L 248.328125 1299.667969 L 253.417969 1303.726562 L 257.90625 1307.628906 L 261.457031 1311.367188 L 264.46875 1315.085938 L 267.519531 1318.96875 L 271.128906 1323.15625 L 275.546875 1327.621094 L 280.949219 1332.292969 L 287.519531 1337.109375 L 295.246094 1341.972656 L 303.332031 1346.707031 L 310.792969 1351.109375 L 316.992188 1355.03125 L 322.746094 1358.558594 L 329.226562 1361.816406 L 337.292969 1364.855469 L 346.601562 1367.339844 L 356.492188 1368.855469 L 366.320312 1368.984375 L 375.640625 1367.441406 L 384.882812 1364.515625 L 394.699219 1360.640625 L 405.386719 1356.261719 L 415.90625 1351.921875 L 424.863281 1348.171875 L 431.226562 1345.429688 L 435.410156 1343.542969 L 438.179688 1342.210938 L 440.304688 1341.140625 L 442.484375 1340.03125 L 445.167969 1338.59375 L 448.742188 1336.53125 L 453.433594 1333.589844 L 458.839844 1329.691406 L 464.414062 1324.785156 L 469.597656 1318.832031 L 473.921875 1311.957031 L 477.242188 1305.003906 L 479.503906 1298.976562 L 480.757812 1294.589844 L 481.460938 1291.328125 L 482.183594 1288.382812 L 483.363281 1285.070312 L 484.902344 1281.210938 L 486.574219 1276.757812 L 488.140625 1271.660156 L 489.449219 1265.949219 L 490.601562 1259.953125 L 491.777344 1254.070312 L 493.105469 1248.570312 L 494.539062 1243.167969 L 495.976562 1237.445312 L 497.34375 1231.136719 L 498.660156 1224.601562 L 499.953125 1218.359375 L 501.257812 1212.921875 L 502.605469 1208.648438 L 503.972656 1205.238281 L 505.339844 1202.230469 L 506.683594 1199.246094 L 508.011719 1196.226562 L 509.339844 1193.203125 L 510.683594 1190.183594 L 512.035156 1187.152344 L 513.382812 1184.085938 L 514.726562 1180.957031 L 516.058594 1177.734375 L 517.386719 1174.386719 L 518.726562 1170.882812 L 520.082031 1167.105469 L 521.441406 1162.621094 L 522.796875 1156.90625 L 524.128906 1149.441406 L 525.433594 1139.941406 L 526.738281 1129.089844 L 528.085938 1117.796875 L 529.5 1106.890625 L 530.921875 1096.808594 L 532.273438 1087.90625 L 533.515625 1080.335938 L 534.714844 1073.46875 L 535.972656 1066.488281 L 537.390625 1058.578125 L 539.003906 1049.023438 L 540.621094 1037.558594 L 541.988281 1024.03125 L 542.90625 1008.101562 L 543.421875 988.742188 L 543.644531 964.75 L 543.695312 935.792969 L 543.78125 905.085938 L 544.125 876.734375 L 544.953125 854.824219 L 546.386719 842.089844 L 548.152344 835.75 L 549.875 831.660156 L 551.273438 826.496094 L 552.441406 820.222656 L 553.574219 813.617188 L 554.816406 807.324219 L 556.167969 801.410156 L 557.585938 795.785156 L 559.039062 790.378906 L 560.476562 785.09375 L 561.855469 779.796875 L 563.128906 774.34375 L 564.277344 768.558594 L 565.4375 762.144531 L 566.773438 754.773438 L 568.386719 746.140625 L 570.089844 736.050781 L 571.636719 724.324219 L 572.773438 710.789062 L 573.296875 695.5625 L 573.226562 679.9375 L 572.625 665.511719 L 571.574219 653.441406 L 570.1875 643.195312 L 568.597656 633.8125 L 566.933594 624.328125 L 565.324219 614.035156 L 563.894531 603.21875 L 562.769531 592.421875 L 561.925781 582.277344 L 560.734375 573.777344 L 558.421875 568.015625 L 554.53125 565.640625 L 549.882812 565.53125 L 545.613281 566.121094 L 542.867188 565.847656 L 542.195312 563.578125 L 541.792969 559.96875 L 539.257812 556.105469 L 533.289062 552.847656 L 526.90625 550.164062 L 524.21875 547.785156 L 528.105469 545.429688 L 536.5 542.722656 L 546.105469 539.265625 L 553.628906 534.667969 L 556.601562 528.691406 L 555.894531 521.742188 L 553.199219 514.390625 L 550.011719 507.183594 L 547 500.574219 L 544.636719 495.011719 L 543.117188 490.800781 L 541.585938 487.777344 L 538.914062 485.648438 L 533.976562 484.121094 L 526.273438 483.011719 L 517.773438 482.574219 L 511.074219 483.171875 L 508.117188 485.085938 L 508.21875 488.285156 L 510.039062 492.652344 L 512.25 498.070312 L 513.804688 504.351562 L 514.851562 510.992188 L 515.832031 517.410156 L 517.105469 523.128906 L 518.671875 528.066406 L 520.433594 532.246094 L 522.167969 535.660156 L 523.078125 538.1875 L 522.234375 539.679688 L 518.703125 539.984375 L 512.128906 539.039062 L 504.496094 537.074219 L 498.355469 534.417969 L 495.472656 531.371094 L 494.414062 528.167969 L 492.953125 525.03125 L 489.445312 522.078125 L 484.59375 518.984375 L 479.695312 515.335938 L 476.035156 510.707031 L 474.105469 504.792969 L 471.195312 497.753906 L 463.78125 489.875 L 449.898438 481.550781 L 433.78125 473.644531 L 421.214844 467.132812 L 416.242188 462.6875 L 415.941406 459.757812 L 415.652344 457.484375 L 410.710938 455.011719 L 398.269531 451.6875 L 382.730469 447.714844 L 370.304688 443.515625 L 364.433594 439.429688 L 357.484375 435.527344 L 339.042969 431.808594 L 298.703125 428.273438 L 295.109375 430.628906 "/>
<path style="fill:none;stroke-width:0.75;stroke-linecap:round;stroke-linejoin:round;stroke:rgb(0%,0%,0%);stroke-opacity:1;stroke-miterlimit:10;" d="M 525.007812 293.691406 L 517.332031 298.121094 L 499.625 303.261719 L 486.550781 309.1875 L 481.269531 315.28125 L 480.941406 321.1875 L 479.507812 327.871094 L 476.449219 335.667969 L 472.878906 344.390625 L 469.757812 353.027344 L 468.289062 361.207031 L 469.625 368.472656 L 473.976562 373.617188 L 479.335938 376.953125 L 483.058594 379.292969 L 483.050781 381.472656 L 481.089844 383.835938 L 479.558594 386.589844 L 479.234375 389.890625 L 480.089844 393.714844 L 480.53125 397.800781 L 475.421875 401.3125 L 467.265625 404.101562 L 460.769531 406.296875 L 460.394531 407.828125 L 468.273438 407.945312 L 480.917969 406.425781 L 492.464844 403.773438 L 496.8125 402.085938 L 502.222656 402.113281 L 515.667969 403.988281 L 526.886719 407.363281 L 533.761719 412.289062 L 537.121094 418.894531 L 536.519531 426.894531 L 532.042969 435.164062 L 524.023438 442.84375 L 514.535156 450.515625 L 512.039062 457.214844 L 522.769531 461.636719 L 538.453125 463.347656 L 549.90625 463.082031 L 552.835938 461.78125 L 556.269531 460.121094 L 560.355469 458.488281 L 563.867188 456.980469 L 566.453125 455.617188 L 569.023438 454.351562 L 571.769531 453.128906 L 574.492188 451.878906 L 576.855469 450.429688 L 579.738281 448.449219 L 583.898438 445.585938 L 588.359375 441.765625 L 592.1875 437.367188 L 594.824219 432.808594 L 596.648438 428.179688 L 598.015625 423.171875 L 599.683594 417.242188 L 601.890625 409.78125 L 596.136719 402.0625 L 579.199219 395.609375 L 571.214844 390.75 L 571.621094 386.976562 L 573.726562 383.691406 L 575.113281 380.457031 L 576.433594 376.761719 L 577.765625 372.6875 L 579.089844 368.363281 L 580.742188 363.441406 L 581.953125 357.484375 L 581.957031 350.535156 L 581.066406 344.191406 L 578.679688 338.914062 L 574.363281 334.644531 L 569.671875 330.785156 L 566.988281 326.507812 L 566.015625 321.410156 L 558.941406 316.542969 L 549.445312 312.039062 L 543.335938 307.695312 L 540.320312 303.515625 L 537.265625 299.964844 L 532.230469 297.441406 L 528.058594 295.664062 L 523.683594 294.28125 L 525.007812 293.691406 "/>
<path style="fill:none;stroke-width:0.75;stroke-linecap:round;stroke-linejoin:round;stroke:rgb(0%,0%,0%);stroke-opacity:1;stroke-miterlimit:10;" d="M 552.902344 488.242188 L 547.785156 493.472656 L 549.898438 498.828125 L 550.992188 504.378906 L 552.039062 509.769531 L 553.675781 515.335938 L 555.265625 521.625 L 556.019531 528.957031 L 557.648438 536.996094 L 559.214844 546.636719 L 560.332031 558.730469 L 561.386719 573.148438 L 563.328125 586.941406 L 564.378906 598.902344 L 565.5 608.339844 L 567.066406 615.507812 L 568.6875 620.949219 L 569.472656 625.300781 L 570.980469 629.132812 L 572.765625 632.859375 L 573.605469 636.695312 L 574.957031 640.804688 L 582.078125 645.140625 L 582.9375 649.148438 L 584.734375 652.644531 L 585.382812 655.589844 L 582.523438 657.867188 L 584.964844 659.058594 L 588.320312 658.707031 L 589.878906 656.753906 L 591.074219 653.808594 L 592.90625 650.554688 L 593.582031 647.308594 L 595.226562 643.925781 L 596.789062 640.109375 L 597.90625 635.347656 L 598.976562 629.058594 L 600.832031 620.726562 L 602.140625 610.914062 L 602.792969 601.871094 L 604.910156 594.261719 L 608.71875 588.128906 L 610.035156 583.042969 L 616.15625 578.570312 L 618.867188 574.734375 L 618.945312 571.207031 L 620.65625 567.546875 L 624.949219 563.484375 L 626.171875 559.195312 L 627.191406 554.929688 L 628.824219 550.785156 L 630.398438 546.84375 L 631.261719 543.183594 L 632.585938 539.941406 L 631.933594 536.988281 L 630.003906 533.960938 L 628.230469 530.453125 L 628.847656 526.121094 L 637.140625 521.097656 L 641.027344 516.121094 L 639.890625 511.089844 L 636.90625 505.714844 L 635.675781 500.097656 L 642.925781 494.84375 L 634.273438 490.390625 L 553.777344 486.535156 L 552.902344 488.242188 "/>
<path style="fill:none;stroke-width:0.75;stroke-linecap:round;stroke-linejoin:round;stroke:rgb(0%,0%,0%);stroke-opacity:1;stroke-miterlimit:10;" d="M 703.371094 537.21875 L 699.660156 538.679688 L 696.125 540.097656 L 692.808594 541.484375 L 689.742188 542.847656 L 686.941406 544.199219 L 684.328125 545.539062 L 681.796875 546.871094 L 679.25 548.203125 L 676.59375 549.53125 L 673.820312 550.863281 L 670.917969 552.203125 L 667.894531 553.554688 L 664.753906 554.925781 L 661.535156 556.300781 L 658.289062 557.660156 L 655.066406 558.992188 L 651.910156 560.273438 L 648.859375 561.496094 L 645.878906 562.671875 L 642.910156 563.820312 L 639.910156 564.953125 L 636.800781 566.15625 L 633.429688 567.753906 L 629.617188 570.128906 L 625.183594 573.671875 L 620.066406 578.660156 L 614.65625 584.921875 L 609.449219 592.191406 L 604.957031 600.1875 L 601.675781 608.640625 L 599.921875 617.238281 L 599.246094 625.558594 L 599.015625 633.140625 L 598.589844 639.527344 L 597.492188 644.417969 L 595.871094 648.144531 L 594.019531 651.207031 L 592.246094 654.09375 L 590.777344 657.214844 L 589.550781 660.648438 L 588.4375 664.386719 L 587.300781 668.417969 L 586.039062 672.707031 L 584.667969 677.097656 L 583.238281 681.390625 L 581.792969 685.410156 L 580.378906 688.953125 L 579.03125 692 L 577.734375 695.164062 L 576.449219 699.226562 L 575.152344 704.960938 L 573.816406 712.878906 L 572.449219 722.417969 L 571.074219 732.75 L 569.710938 743.039062 L 568.371094 752.59375 L 567.042969 761.296875 L 565.726562 769.171875 L 564.398438 776.242188 L 563.054688 782.523438 L 561.6875 788.101562 L 560.308594 793.269531 L 558.945312 798.390625 L 557.609375 803.820312 L 556.320312 809.785156 L 555.046875 816.023438 L 553.75 822.140625 L 552.394531 827.742188 L 550.957031 832.679688 L 549.484375 837.761719 L 548.035156 844.046875 L 546.667969 852.585938 L 545.441406 864.4375 L 544.417969 880.59375 L 543.648438 901.808594 L 543.183594 928.765625 L 543.085938 962.160156 L 543.308594 1002.136719 L 543.476562 1046.671875 L 543.113281 1093.183594 L 541.75 1139.109375 L 539.136719 1182.125 L 535.9375 1220.921875 L 533.050781 1254.453125 L 531.359375 1281.660156 L 531.652344 1301.910156 L 534.296875 1316.242188 L 539.558594 1326.105469 L 547.691406 1332.957031 L 558.960938 1338.253906 L 573.246094 1343.183594 L 588.878906 1347.855469 L 603.816406 1352.117188 L 616.011719 1355.824219 L 623.972656 1358.84375 L 628.457031 1361.164062 L 630.777344 1362.792969 L 632.25 1363.738281 L 633.96875 1364.066406 L 636.152344 1364.023438 L 638.796875 1363.910156 L 641.910156 1364.027344 L 645.484375 1364.671875 L 649.460938 1366.019531 L 653.539062 1367.753906 L 657.347656 1369.425781 L 660.53125 1370.585938 L 662.992188 1370.886719 L 665.722656 1370.332031 L 669.984375 1369.011719 L 677.039062 1367.03125 L 687.710938 1364.484375 L 701.09375 1361.488281 L 715.832031 1358.144531 L 730.585938 1354.578125 L 744.003906 1350.898438 L 755.082031 1347.179688 L 764.175781 1343.359375 L 771.980469 1339.335938 L 779.195312 1335.015625 L 786.382812 1330.351562 L 793.574219 1325.523438 L 800.675781 1320.769531 L 807.582031 1316.332031 L 814.222656 1312.363281 L 820.636719 1308.707031 L 826.886719 1305.109375 L 833.042969 1301.328125 L 839.167969 1297.152344 L 845.347656 1292.523438 L 851.664062 1287.40625 L 858.199219 1281.777344 L 865.035156 1275.605469 L 872.183594 1268.941406 L 879.363281 1262.164062 L 886.210938 1255.722656 L 892.378906 1250.070312 L 897.609375 1245.519531 L 902.050781 1241.792969 L 905.964844 1238.464844 L 909.605469 1235.121094 L 913.234375 1231.375 L 917.132812 1227.03125 L 921.59375 1221.914062 L 926.898438 1215.875 L 933.34375 1208.742188 L 941.011719 1200.507812 L 949.195312 1191.796875 L 956.976562 1183.375 L 963.441406 1176.011719 L 967.933594 1170.289062 L 970.820312 1166.023438 L 972.722656 1162.835938 L 974.269531 1160.34375 L 975.972656 1158.183594 L 977.941406 1156.015625 L 980.164062 1153.507812 L 982.644531 1150.339844 L 985.371094 1146.179688 L 988.324219 1140.765625 L 991.40625 1134.109375 L 994.492188 1126.289062 L 997.464844 1117.382812 L 1000.230469 1107.527344 L 1002.808594 1097.085938 L 1005.242188 1086.484375 L 1007.570312 1076.152344 L 1009.832031 1066.472656 L 1012.003906 1057.65625 L 1014.0625 1049.890625 L 1015.972656 1043.34375 L 1017.722656 1038.109375 L 1019.363281 1033.933594 L 1020.960938 1030.46875 L 1022.574219 1027.375 L 1024.273438 1024.304688 L 1026.078125 1021.015625 L 1027.847656 1017.636719 L 1029.402344 1014.402344 L 1030.558594 1011.539062 L 1031.203125 1009.136719 L 1031.488281 1006.71875 L 1031.640625 1003.671875 L 1031.878906 999.375 L 1032.382812 993.378906 L 1033.140625 985.867188 L 1034.113281 977.195312 L 1035.25 967.710938 L 1036.5 957.765625 L 1037.824219 947.691406 L 1039.207031 937.75 L 1040.632812 928.183594 L 1042.097656 919.242188 L 1043.585938 910.882812 L 1045.054688 901.941406 L 1046.464844 890.984375 L 1047.769531 876.5625 L 1048.925781 857.839844 L 1049.894531 836.386719 L 1050.628906 814.371094 L 1051.089844 793.96875 L 1051.238281 777.351562 L 1051.042969 766.046875 L 1050.539062 759 L 1049.769531 754.507812 L 1048.769531 750.867188 L 1047.59375 746.664062 L 1046.28125 741.625 L 1044.894531 735.761719 L 1043.480469 729.09375 L 1042.078125 721.679688 L 1040.703125 713.800781 L 1039.359375 705.78125 L 1038.039062 697.945312 L 1036.75 690.574219 L 1035.464844 683.773438 L 1034.167969 677.605469 L 1032.832031 672.128906 L 1031.433594 667.402344 L 1029.972656 663.449219 L 1028.5 660.132812 L 1027.097656 657.273438 L 1025.839844 654.6875 L 1024.761719 652.207031 L 1023.722656 649.722656 L 1022.550781 647.121094 L 1021.058594 644.296875 L 1019.125 641.167969 L 1016.855469 637.75 L 1014.394531 634.078125 L 1011.90625 630.1875 L 1009.539062 626.117188 L 1007.421875 621.917969 L 1005.589844 617.703125 L 1004.046875 613.597656 L 1002.796875 609.726562 L 1001.808594 606.167969 L 1000.90625 602.808594 L 999.863281 599.484375 L 998.46875 596.042969 L 996.535156 592.359375 L 994.054688 588.492188 L 991.042969 584.535156 L 987.523438 580.582031 L 983.519531 576.734375 L 979.097656 573.085938 L 974.507812 569.730469 L 970.050781 566.753906 L 966.019531 564.257812 L 962.621094 562.269531 L 959.679688 560.609375 L 956.941406 559.027344 L 954.136719 557.289062 L 951.035156 555.203125 L 947.523438 552.824219 L 943.523438 550.25 L 938.953125 547.589844 L 933.734375 544.960938 L 927.816406 542.527344 L 921.15625 540.460938 L 913.714844 538.941406 L 905.4375 538.144531 L 896.476562 538.207031 L 887.746094 539.117188 L 880.335938 540.816406 L 875.355469 543.257812 L 873.503906 546.371094 L 873.882812 550.019531 L 875.1875 554.035156 L 876.128906 558.269531 L 875.722656 562.566406 L 874.28125 566.8125 L 872.449219 570.890625 L 870.855469 574.699219 L 870.140625 578.117188 L 870.710938 581.113281 L 872.082031 583.9375 L 873.53125 586.90625 L 874.34375 590.34375 L 873.996094 594.484375 L 872.699219 599.199219 L 870.867188 604.269531 L 868.894531 609.476562 L 867.132812 614.660156 L 865.667969 619.871094 L 864.53125 625.210938 L 863.753906 630.785156 L 863.355469 636.707031 L 863.328125 643.085938 L 863.480469 650.078125 L 863.578125 657.859375 L 863.390625 666.589844 L 862.769531 676.335938 L 861.917969 686.738281 L 861.125 697.324219 L 860.6875 707.632812 L 860.796875 717.324219 L 861.296875 726.582031 L 861.917969 735.71875 L 862.414062 745.054688 L 862.566406 754.824219 L 862.347656 764.988281 L 861.777344 775.441406 L 860.867188 786.0625 L 859.636719 796.742188 L 858.101562 807.332031 L 856.285156 817.5625 L 854.210938 827.109375 L 851.902344 835.667969 L 849.386719 843.078125 L 846.710938 849.796875 L 843.933594 856.4375 L 841.105469 863.617188 L 838.316406 871.796875 L 835.816406 880.839844 L 833.882812 890.449219 L 832.796875 900.335938 L 832.847656 910.214844 L 834.085938 919.878906 L 835.660156 929.496094 L 836.503906 939.316406 L 835.53125 949.589844 L 832.042969 960.472656 L 826.796875 971.722656 L 820.933594 982.992188 L 815.582031 993.945312 L 811.628906 1004.304688 L 808.9375 1014.054688 L 807.125 1023.246094 L 805.808594 1031.929688 L 804.605469 1040.160156 L 803.265625 1047.988281 L 802.105469 1055.5 L 801.5625 1062.777344 L 802.089844 1069.90625 L 803.890625 1076.914062 L 806.246094 1083.621094 L 808.191406 1089.792969 L 808.761719 1095.183594 L 807.300781 1099.550781 L 804.375 1102.605469 L 800.863281 1104.046875 L 797.632812 1103.574219 L 795.34375 1101.078125 L 793.777344 1097.195312 L 792.503906 1092.761719 L 791.089844 1088.597656 L 789.101562 1085.539062 L 786.261719 1084.289062 L 782.910156 1085.042969 L 779.550781 1087.878906 L 776.671875 1092.871094 L 774.601562 1099.960938 L 772.941406 1108.5625 L 771.128906 1117.960938 L 768.585938 1127.441406 L 764.933594 1136.394531 L 760.53125 1144.679688 L 755.933594 1152.265625 L 751.683594 1159.113281 L 748.332031 1165.195312 L 746.1875 1170.539062 L 744.605469 1175.449219 L 742.699219 1180.28125 L 739.585938 1185.398438 L 734.671875 1190.949219 L 728.554688 1196.222656 L 722.132812 1200.292969 L 716.300781 1202.234375 L 711.761719 1201.402344 L 708.441406 1198.238281 L 706.09375 1193.472656 L 704.453125 1187.828125 L 703.265625 1182.035156 L 702.339844 1176.6875 L 701.769531 1171.867188 L 701.726562 1167.515625 L 702.375 1163.585938 L 703.683594 1160.019531 L 704.851562 1156.734375 L 704.878906 1153.636719 L 702.773438 1150.632812 L 697.96875 1147.625 L 691.644531 1144.5 L 685.417969 1141.132812 L 680.90625 1137.402344 L 679.359375 1133.226562 L 680.574219 1128.699219 L 683.976562 1123.953125 L 689.003906 1119.117188 L 695.078125 1114.320312 L 701.667969 1109.667969 L 708.332031 1105.105469 L 714.675781 1100.554688 L 720.285156 1095.9375 L 724.867188 1091.210938 L 728.511719 1086.492188 L 731.429688 1081.945312 L 733.8125 1077.726562 L 735.894531 1073.96875 L 738.019531 1070.675781 L 740.550781 1067.820312 L 743.863281 1065.378906 L 748.328125 1063.328125 L 754.085938 1061.597656 L 760.398438 1059.933594 L 766.300781 1058.039062 L 770.828125 1055.628906 L 773.316406 1052.484375 L 774.289062 1048.742188 L 774.578125 1044.621094 L 775.011719 1040.335938 L 776.199219 1036.054688 L 777.855469 1031.710938 L 779.480469 1027.191406 L 780.578125 1022.375 L 780.644531 1017.148438 L 779.335938 1011.453125 L 776.914062 1005.492188 L 773.796875 999.515625 L 770.402344 993.789062 L 767.015625 988.480469 L 763.40625 983.390625 L 759.203125 978.246094 L 754.039062 972.757812 L 747.734375 966.777344 L 740.839844 960.664062 L 734.109375 954.921875 L 728.277344 950.039062 L 723.882812 946.292969 L 720.617188 943.074219 L 717.957031 939.558594 L 715.390625 934.914062 L 712.394531 928.316406 L 708.625 919.226562 L 704.410156 908.257812 L 700.25 896.3125 L 696.640625 884.292969 L 693.960938 872.964844 L 692.109375 862.539062 L 690.855469 853.085938 L 689.972656 844.667969 L 689.289062 837.300781 L 688.859375 830.746094 L 688.804688 824.703125 L 689.238281 818.875 L 690.269531 812.960938 L 691.953125 806.726562 L 694.058594 800.207031 L 696.300781 793.492188 L 698.386719 786.679688 L 700.0625 779.867188 L 701.222656 773.160156 L 701.804688 766.679688 L 701.734375 760.539062 L 701.023438 754.808594 L 699.957031 749.40625 L 698.902344 744.210938 L 698.21875 739.097656 L 698.273438 733.941406 L 699.246094 728.660156 L 700.613281 723.3125 L 701.667969 718.003906 L 701.695312 712.839844 L 700.21875 707.851562 L 697.632812 702.800781 L 694.566406 697.378906 L 691.636719 691.277344 L 689.421875 684.355469 L 688.328125 677.097656 L 688.71875 670.160156 L 690.949219 664.191406 L 695.152344 659.675781 L 700.519531 656.390625 L 706.011719 653.945312 L 710.589844 651.953125 L 713.214844 650.023438 L 713.222656 647.789062 L 711.453125 644.992188 L 709.121094 641.394531 L 707.4375 636.753906 L 707.433594 630.921875 L 709.421875 624.054688 L 713.53125 616.394531 L 719.898438 608.179688 L 728.359375 599.695312 L 737.589844 591.378906 L 745.976562 583.722656 L 751.910156 577.214844 L 753.769531 572.339844 L 750.632812 569.371094 L 744.3125 567.734375 L 737.308594 566.65625 L 732.117188 565.34375 L 730.515625 563.1875 L 731.398438 560.261719 L 732.929688 556.808594 L 733.277344 553.066406 L 731.011719 549.253906 L 726.300781 545.476562 L 719.71875 541.816406 L 711.828125 538.347656 L 703.207031 535.15625 L 703.371094 537.21875 "/>
<path style="fill:none;stroke-width:0.75;stroke-linecap:round;stroke-linejoin:round;stroke:rgb(0%,0%,0%);stroke-opacity:1;stroke-miterlimit:10;" d="M 736.714844 217.722656 L 727.476562 219.449219 L 718.769531 220.707031 L 712.996094 221.398438 L 708.957031 222.496094 L 704.457031 225.355469 L 696.953125 231.730469 L 684.984375 242.570312 L 671.734375 255.226562 L 660.910156 266.386719 L 653.648438 273.683594 L 650.011719 276.835938 L 648.375 282.949219 L 647.070312 297.921875 L 645.960938 315.410156 L 645.292969 328.019531 L 645.242188 336.394531 L 645.757812 342.917969 L 645.925781 348.890625 L 644.988281 355.042969 L 643.609375 360.875 L 642.648438 365.578125 L 642.28125 368.253906 L 642.25 370.695312 L 641.300781 385.507812 L 639.84375 421.496094 L 646.015625 461.46875 L 665.957031 486.492188 L 690.097656 496.59375 L 707.449219 496.570312 L 717.011719 491.285156 L 720.292969 485.621094 L 718.855469 483.132812 L 714.484375 482.066406 L 709.066406 479.5625 L 704.605469 473.636719 L 702.414062 463.335938 L 700.957031 450.964844 L 698.425781 439.484375 L 694.8125 431.292969 L 690.867188 427.59375 L 688.535156 425.460938 L 689.128906 421.789062 L 690.261719 416.953125 L 689.386719 411.898438 L 687.078125 406.464844 L 684.542969 400.25 L 682.371094 393.070312 L 680.835938 385.214844 L 679.503906 378.726562 L 678.0625 375.222656 L 677.46875 372.871094 L 678.464844 369.511719 L 679.753906 365.105469 L 680.03125 360.265625 L 679.960938 356.011719 L 680.558594 353.023438 L 682.285156 350.199219 L 685.144531 346.367188 L 687.875 341.929688 L 688.898438 337.683594 L 687.257812 334.261719 L 684.484375 331.628906 L 682.570312 329.5625 L 682.878906 327.730469 L 685.933594 325.71875 L 689.503906 323.015625 L 691.15625 319.375 L 690.363281 315.769531 L 687.582031 313.128906 L 685.28125 311.027344 L 685.78125 308.867188 L 688.890625 306.78125 L 693.433594 304.957031 L 696.847656 303.160156 L 696.957031 301.121094 L 694.523438 298.972656 L 691.066406 296.730469 L 688.101562 293.570312 L 686.957031 288.984375 L 688.21875 284.605469 L 691.925781 281.980469 L 696.699219 280.140625 L 701.691406 277.652344 L 709.5625 273.71875 L 723.128906 268.332031 L 742.292969 263.976562 L 765.234375 263.023438 L 786.152344 264.917969 L 798.25 268.359375 L 797.789062 272.15625 L 793.289062 275.546875 L 793.613281 278.066406 L 796.757812 279.984375 L 798.949219 281.839844 L 800.230469 284.394531 L 801.640625 288.160156 L 804.417969 292.375 L 809.320312 296.171875 L 814.988281 299.53125 L 819.71875 302.628906 L 822.554688 305.660156 L 822.976562 308.871094 L 821.515625 312.808594 L 819.179688 317.75 L 817.875 322.605469 L 819.476562 326.589844 L 824.855469 331.46875 L 833.71875 338.890625 L 842.0625 347.527344 L 846.175781 355.589844 L 847.257812 362.546875 L 847.4375 368.238281 L 847.679688 372.765625 L 848.449219 376.460938 L 849.363281 380.242188 L 850.074219 384.820312 L 851.238281 389.492188 L 853.765625 393.183594 L 858.074219 395.472656 L 862.683594 398.484375 L 866.066406 404.472656 L 868.417969 413.578125 L 870.28125 424.746094 L 871.820312 434.199219 L 873.136719 438.957031 L 874.386719 441.953125 L 875.707031 446.601562 L 877.066406 452.304688 L 878.398438 457.695312 L 879.746094 462.351562 L 881.082031 466.1875 L 882.058594 469.496094 L 882.640625 472.773438 L 884.386719 476.976562 L 888.964844 482.46875 L 896.917969 486.867188 L 907.703125 487.964844 L 917.691406 487.027344 L 923.703125 485.746094 L 927.570312 484.007812 L 931.628906 481.363281 L 935.253906 477.804688 L 937.523438 473.511719 L 939.28125 469.023438 L 941.269531 464.878906 L 942.042969 461.300781 L 939.609375 458.421875 L 933.003906 456.074219 L 925.421875 452.824219 L 920.175781 447.210938 L 916.984375 438.902344 L 914.648438 428.234375 L 911.902344 417.027344 L 907.988281 407.308594 L 904.28125 400.449219 L 902.175781 396.917969 L 901 394.234375 L 899.804688 389.785156 L 898.492188 383.269531 L 897.171875 375.332031 L 895.839844 368.050781 L 894.5 363.089844 L 893.226562 359.019531 L 892.054688 354.136719 L 890.71875 348.738281 L 888.84375 343.574219 L 885.980469 339.167969 L 882 335.671875 L 878.128906 331.917969 L 875.589844 326.925781 L 874.167969 321.753906 L 873.25 317.59375 L 872.078125 314.070312 L 869.996094 310.546875 L 866.980469 306.90625 L 863.148438 303.171875 L 858.835938 299.414062 L 855.222656 295.964844 L 853.144531 292.894531 L 851.179688 288.976562 L 847.792969 283.140625 L 843.164062 276.164062 L 837.851562 269.097656 L 832.148438 262.121094 L 826.304688 255.363281 L 820.648438 249.566406 L 815.507812 245.402344 L 811.191406 242.625 L 807.859375 240.765625 L 805.15625 239.453125 L 802.597656 238.292969 L 799.734375 236.796875 L 796.289062 234.636719 L 792.667969 232.289062 L 789.347656 230.304688 L 786.394531 228.699219 L 783.753906 227.359375 L 781.296875 226.109375 L 778.769531 224.796875 L 775.472656 223.441406 L 770.703125 222.082031 L 764.1875 220.71875 L 755.898438 219.363281 L 746.398438 218.121094 L 736.394531 217.105469 L 736.714844 217.722656 "/>
<path style="fill:none;stroke-width:0.75;stroke-linecap:round;stroke-linejoin:round;stroke:rgb(0%,0%,0%);stroke-opacity:1;stroke-miterlimit:10;" d="M 984.769531 403.566406 L 977.414062 408.492188 L 970.644531 413.121094 L 965.480469 417.3125 L 962.695312 420.960938 L 961.3125 424.082031 L 960.148438 426.78125 L 958.960938 429.429688 L 957.703125 432.410156 L 956.15625 435.988281 L 954.121094 440.175781 L 951.746094 444.304688 L 949.515625 447.980469 L 947.847656 451.046875 L 946.582031 453.746094 L 945.589844 456.367188 L 945.421875 458.996094 L 946.507812 461.644531 L 948.136719 464.316406 L 949.542969 467 L 950.828125 469.6875 L 952.214844 472.375 L 953.5625 475.058594 L 954.875 477.742188 L 956.214844 480.429688 L 957.570312 483.113281 L 958.917969 485.796875 L 960.253906 488.472656 L 961.585938 491.128906 L 962.929688 493.777344 L 964.292969 496.4375 L 965.636719 499.183594 L 966.949219 502.144531 L 968.296875 505.511719 L 969.648438 508.996094 L 970.953125 512.257812 L 972.191406 515.34375 L 973.511719 518.359375 L 975.652344 521.375 L 979.148438 524.445312 L 983.058594 527.566406 L 986.273438 530.730469 L 988.472656 533.859375 L 989.929688 536.964844 L 992.015625 540.289062 L 994.390625 543.710938 L 996.367188 547.105469 L 997.9375 550.789062 L 999.261719 555.175781 L 1000.511719 560.628906 L 1001.824219 567.308594 L 1003.191406 574.625 L 1004.558594 581.78125 L 1005.902344 587.9375 L 1007.207031 592.503906 L 1008.476562 595.894531 L 1009.796875 598.746094 L 1011.296875 601.617188 L 1013.230469 604.828125 L 1015.757812 608.546875 L 1018.617188 612.53125 L 1021.457031 616.472656 L 1024.085938 620.164062 L 1026.339844 623.550781 L 1028.007812 627.109375 L 1029.851562 631.867188 L 1035.585938 639.875 L 1045.996094 650.996094 L 1060.105469 663.996094 L 1073.734375 675.835938 L 1082.917969 683.757812 L 1087.734375 687.898438 L 1089.894531 689.03125 L 1093.605469 687.597656 L 1102.300781 683.882812 L 1113.730469 677.957031 L 1123.824219 670.128906 L 1128.496094 661.726562 L 1129.800781 653.589844 L 1130.914062 646.363281 L 1132.929688 640.65625 L 1135.988281 636.636719 L 1138.46875 632.628906 L 1139 627.089844 L 1138.960938 620.824219 L 1139.945312 614.96875 L 1141.578125 609.714844 L 1142.867188 604.941406 L 1142.710938 600.257812 L 1141.65625 595.351562 L 1140.445312 589.984375 L 1138.839844 584.011719 L 1136.457031 577.589844 L 1133.289062 571.9375 L 1129.804688 567.996094 L 1127.984375 564.601562 L 1129.203125 560.398438 L 1130.988281 555.449219 L 1130.347656 550.335938 L 1126.730469 545.921875 L 1122.40625 541.492188 L 1119.460938 535.976562 L 1116.921875 528.582031 L 1113.601562 518.976562 L 1110.535156 508.398438 L 1108.882812 498.324219 L 1108.140625 489.617188 L 1107.1875 482.816406 L 1104.195312 477.753906 L 1097.964844 473.964844 L 1090.609375 470.515625 L 1085.042969 466.609375 L 1083.117188 461.785156 L 1082.410156 456.65625 L 1080.058594 451.910156 L 1075.648438 447.507812 L 1069.355469 443.300781 L 1061.261719 439.453125 L 1052.011719 436.175781 L 1044.558594 433.566406 L 1040.960938 431.632812 L 1038.296875 430.128906 L 1036.109375 428.519531 L 1034.511719 426.339844 L 1032.003906 423.644531 L 1027.496094 420.550781 L 1023.144531 416.9375 L 1020.605469 412.753906 L 1016.273438 408.476562 L 1006.03125 404.605469 L 989.0625 401.253906 L 984.769531 403.566406 "/>
</g>
</svg>
