<?xml version="1.0" encoding="UTF-8"?>
<svg xmlns="http://www.w3.org/2000/svg" xmlns:xlink="http://www.w3.org/1999/xlink" width="1428pt" height="1605pt" viewBox="0 0 1428 1605" version="1.1">
<g id="surface294">
<rect x="0" y="0" width="1428" height="1605" style="fill:rgb(100%,100%,100%);fill-opacity:1;stroke:none;"/>
<path style="fill:none;stroke-width:0.75;stroke-linecap:round;stroke-linejoin:round;stroke:rgb(0%,0%,0%);stroke-opacity:1;stroke-miterlimit:10;" d="M 731.636719 196.039062 L 726.164062 197.167969 L 721.464844 198.027344 L 717.355469 198.863281 L 713.652344 199.9375 L 710.164062 201.503906 L 706.761719 203.71875 L 703.480469 206.378906 L 700.410156 209.175781 L 697.644531 211.808594 L 695.265625 213.972656 L 693.320312 215.453125 L 691.703125 216.363281 L 690.246094 216.910156 L 688.800781 217.300781 L 687.210938 217.738281 L 685.351562 218.386719 L 683.246094 219.292969 L 680.960938 220.449219 L 678.554688 221.859375 L 676.082031 223.523438 L 673.589844 225.472656 L 671.054688 227.832031 L 668.429688 230.769531 L 665.671875 234.433594 L 662.742188 238.988281 L 659.609375 244.515625 L 656.324219 250.78125 L 652.949219 257.496094 L 649.546875 264.347656 L 646.175781 271.035156 L 642.921875 277.347656 L 639.921875 283.410156 L 637.34375 289.4375 L 635.34375 295.644531 L 634.085938 302.242188 L 633.660156 309.363281 L 633.902344 316.792969 L 634.574219 324.234375 L 635.441406 331.394531 L 636.269531 337.972656 L 636.871094 343.769531 L 637.226562 348.957031 L 637.359375 353.804688 L 637.300781 358.578125 L 637.070312 363.550781 L 636.707031 368.886719 L 636.238281 374.359375 L 635.710938 379.632812 L 635.164062 384.382812 L 634.632812 388.277344 L 634.160156 390.984375 L 633.714844 392.308594 L 632.972656 392.578125 L 631.539062 392.257812 L 629.023438 391.8125 L 625.03125 391.703125 L 619.367188 392.210938 L 612.648438 392.875 L 605.6875 393.050781 L 599.308594 392.101562 L 594.320312 389.375 L 591.316406 384.445312 L 589.972656 377.699219 L 589.742188 369.742188 L 590.078125 361.171875 L 590.425781 352.59375 L 590.296875 344.492188 L 589.402344 336.929688 L 587.515625 329.847656 L 584.398438 323.191406 L 579.828125 316.902344 L 573.707031 310.945312 L 566.503906 305.339844 L 558.820312 300.128906 L 551.265625 295.359375 L 544.445312 291.0625 L 538.757812 287.324219 L 533.796875 284.386719 L 528.957031 282.535156 L 523.625 282.050781 L 517.195312 283.222656 L 509.289062 286.203125 L 500.425781 290.636719 L 491.371094 296.046875 L 482.871094 301.949219 L 475.691406 307.859375 L 470.398438 313.386719 L 466.84375 318.488281 L 464.695312 323.207031 L 463.613281 327.59375 L 463.265625 331.683594 L 463.328125 335.570312 L 463.511719 339.472656 L 463.539062 343.65625 L 463.121094 348.382812 L 461.980469 353.917969 L 459.839844 360.527344 L 456.695312 368.328125 L 453.652344 376.886719 L 452.105469 385.625 L 453.433594 393.96875 L 459.03125 401.339844 L 469.667969 407.339844 L 483.664062 412.316406 L 498.726562 416.785156 L 512.554688 421.265625 L 522.851562 426.289062 L 527.929688 432.246094 L 528.492188 439.066406 L 525.851562 446.550781 L 521.3125 454.5 L 516.191406 462.714844 L 511.59375 471.003906 L 507.855469 479.175781 L 505.105469 487.058594 L 503.472656 494.460938 L 503.085938 501.210938 L 503.96875 507.160156 L 505.679688 512.347656 L 507.671875 516.84375 L 509.390625 520.71875 L 510.289062 524.050781 L 509.960938 526.867188 L 508.585938 529.035156 L 506.480469 530.382812 L 503.972656 530.730469 L 501.378906 529.910156 L 498.925781 527.796875 L 496.429688 524.507812 L 493.613281 520.214844 L 490.195312 515.089844 L 485.890625 509.304688 L 480.519531 503.054688 L 474.25 496.605469 L 467.355469 490.257812 L 460.101562 484.304688 L 452.757812 479.035156 L 445.554688 474.65625 L 438.609375 470.992188 L 432 467.773438 L 425.800781 464.742188 L 420.09375 461.621094 L 414.953125 458.15625 L 410.257812 454.167969 L 405.046875 449.890625 L 398.160156 445.636719 L 388.429688 441.738281 L 374.691406 438.507812 L 356.320312 436.226562 L 334.792969 434.984375 L 312.128906 434.828125 L 290.34375 435.800781 L 271.449219 437.953125 L 256.9375 441.265625 L 246.203125 445.476562 L 238.113281 450.265625 L 231.53125 455.308594 L 225.332031 460.285156 L 218.613281 464.9375 L 211.460938 469.308594 L 204.1875 473.5 L 197.109375 477.621094 L 190.542969 481.773438 L 184.730469 486.050781 L 179.625 490.457031 L 175.097656 494.980469 L 171.019531 499.609375 L 167.273438 504.332031 L 163.746094 509.136719 L 160.414062 514.035156 L 157.261719 519.039062 L 154.285156 524.160156 L 151.472656 529.410156 L 148.804688 534.800781 L 146.210938 540.320312 L 143.613281 545.960938 L 140.9375 551.710938 L 138.105469 557.558594 L 135.054688 563.496094 L 131.824219 569.539062 L 128.472656 575.699219 L 125.058594 582.003906 L 121.632812 588.464844 L 118.261719 595.070312 L 115.011719 601.652344 L 111.949219 608.027344 L 109.148438 613.992188 L 106.675781 619.359375 L 104.601562 623.933594 L 102.957031 627.609375 L 101.613281 630.640625 L 100.402344 633.382812 L 99.15625 636.175781 L 97.707031 639.367188 L 95.9375 643.210938 L 93.933594 647.609375 L 91.835938 652.359375 L 89.785156 657.265625 L 87.914062 662.132812 L 86.308594 666.8125 L 84.84375 671.351562 L 83.34375 675.84375 L 81.617188 680.382812 L 79.496094 685.070312 L 76.859375 689.984375 L 73.890625 695.152344 L 70.828125 700.59375 L 67.917969 706.324219 L 65.402344 712.355469 L 63.460938 718.699219 L 61.984375 725.28125 L 60.804688 732.035156 L 59.742188 738.875 L 58.625 745.726562 L 57.320312 752.507812 L 55.871094 759.136719 L 54.363281 765.511719 L 52.871094 771.542969 L 51.484375 777.144531 L 50.253906 782.257812 L 49.121094 787.023438 L 48 791.613281 L 46.800781 796.203125 L 45.4375 800.964844 L 43.855469 806.082031 L 42.144531 811.773438 L 40.421875 818.25 L 38.808594 825.734375 L 37.429688 834.449219 L 36.375 844.488281 L 35.636719 855.457031 L 35.179688 866.828125 L 34.96875 878.089844 L 34.960938 888.71875 L 35.128906 898.195312 L 35.433594 906.132812 L 35.859375 912.6875 L 36.394531 918.15625 L 37.019531 922.824219 L 37.722656 926.992188 L 38.484375 930.929688 L 39.253906 934.847656 L 39.976562 938.9375 L 40.597656 943.394531 L 41.058594 948.410156 L 41.339844 954.082031 L 41.539062 960.101562 L 41.796875 966.074219 L 42.242188 971.597656 L 43.011719 976.265625 L 44.195312 979.839844 L 45.695312 982.691406 L 47.378906 985.339844 L 49.09375 988.320312 L 50.710938 992.152344 L 52.121094 997.21875 L 53.359375 1003.285156 L 54.5 1009.972656 L 55.621094 1016.898438 L 56.792969 1023.683594 L 58.082031 1030.023438 L 59.519531 1035.914062 L 61.128906 1041.433594 L 62.933594 1046.660156 L 64.964844 1051.671875 L 67.210938 1056.519531 L 69.554688 1061.203125 L 71.84375 1065.691406 L 73.929688 1069.957031 L 75.667969 1073.972656 L 77 1077.757812 L 78.292969 1081.476562 L 80.007812 1085.347656 L 82.597656 1089.585938 L 86.527344 1094.398438 L 92.070312 1099.90625 L 98.753906 1105.855469 L 105.917969 1111.882812 L 112.902344 1117.648438 L 119.046875 1122.789062 L 123.695312 1126.960938 L 126.40625 1129.941406 L 127.648438 1132.0625 L 128.113281 1133.789062 L 128.488281 1135.589844 L 129.464844 1137.929688 L 131.546875 1141.15625 L 134.515625 1145.144531 L 137.960938 1149.644531 L 141.476562 1154.414062 L 144.65625 1159.207031 L 147.21875 1163.832031 L 149.359375 1168.3125 L 151.410156 1172.738281 L 153.695312 1177.179688 L 156.53125 1181.722656 L 160.144531 1186.414062 L 164.324219 1191.132812 L 168.753906 1195.730469 L 173.128906 1200.058594 L 177.128906 1203.96875 L 180.496094 1207.351562 L 183.164062 1210.320312 L 185.121094 1213.019531 L 186.363281 1215.601562 L 186.875 1218.226562 L 186.734375 1221.011719 L 186.402344 1223.972656 L 186.417969 1227.085938 L 187.335938 1230.335938 L 189.703125 1233.703125 L 193.84375 1237.179688 L 199.207031 1240.792969 L 205.03125 1244.574219 L 210.535156 1248.558594 L 214.957031 1252.785156 L 217.769531 1257.269531 L 219.421875 1261.957031 L 220.597656 1266.785156 L 221.988281 1271.679688 L 224.285156 1276.570312 L 227.980469 1281.398438 L 232.808594 1286.140625 L 238.292969 1290.765625 L 243.976562 1295.265625 L 249.382812 1299.613281 L 254.050781 1303.789062 L 257.683594 1307.792969 L 260.644531 1311.679688 L 263.472656 1315.519531 L 266.710938 1319.390625 L 270.890625 1323.363281 L 276.367188 1327.496094 L 282.738281 1331.800781 L 289.417969 1336.269531 L 295.820312 1340.90625 L 301.359375 1345.703125 L 305.734375 1350.601562 L 309.769531 1355.34375 L 314.574219 1359.609375 L 321.261719 1363.078125 L 330.9375 1365.433594 L 344.238281 1366.484375 L 359.871094 1366.519531 L 376.0625 1365.960938 L 391.042969 1365.222656 L 403.039062 1364.730469 L 410.824219 1364.789062 L 415.285156 1365.285156 L 417.867188 1365.984375 L 420 1366.667969 L 423.113281 1367.109375 L 428.351562 1367.085938 L 435.648438 1366.40625 L 444.648438 1364.882812 L 454.984375 1362.328125 L 466.300781 1358.558594 L 478.328125 1353.566406 L 491.144531 1348.09375 L 504.917969 1343.054688 L 519.828125 1339.375 L 536.035156 1337.972656 L 553.6875 1339.429688 L 572.820312 1342.988281 L 593.433594 1347.539062 L 615.539062 1351.984375 L 639.140625 1355.21875 L 664.015625 1356.40625 L 689.019531 1355.742188 L 712.785156 1353.6875 L 733.9375 1350.699219 L 751.105469 1347.234375 L 763.34375 1343.683594 L 771.433594 1340.117188 L 776.578125 1336.542969 L 779.980469 1332.960938 L 782.851562 1329.371094 L 786.386719 1325.785156 L 791.5 1322.199219 L 797.921875 1318.625 L 805.078125 1315.074219 L 812.398438 1311.550781 L 819.3125 1308.070312 L 825.398438 1304.632812 L 830.777344 1301.230469 L 835.71875 1297.84375 L 840.492188 1294.460938 L 845.371094 1291.058594 L 850.53125 1287.625 L 855.816406 1284.152344 L 860.972656 1280.640625 L 865.757812 1277.089844 L 869.921875 1273.488281 L 873.347656 1269.816406 L 876.453125 1265.921875 L 879.792969 1261.648438 L 883.910156 1256.824219 L 889.363281 1251.28125 L 896.46875 1244.941406 L 904.644531 1238.082031 L 913.078125 1231.074219 L 920.957031 1224.277344 L 927.472656 1218.0625 L 932.058594 1212.691406 L 935.164062 1208.027344 L 937.484375 1203.828125 L 939.71875 1199.859375 L 942.5625 1195.875 L 946.507812 1191.695312 L 951.261719 1187.378906 L 956.3125 1183.027344 L 961.164062 1178.761719 L 965.308594 1174.683594 L 968.394531 1170.871094 L 970.6875 1167.21875 L 972.597656 1163.582031 L 974.539062 1159.8125 L 976.925781 1155.769531 L 980.046875 1151.335938 L 983.730469 1146.515625 L 987.671875 1141.351562 L 991.578125 1135.871094 L 995.148438 1130.117188 L 998.082031 1124.125 L 1000.1875 1117.925781 L 1001.648438 1111.527344 L 1002.753906 1104.933594 L 1003.800781 1098.148438 L 1005.074219 1091.175781 L 1006.777344 1084.058594 L 1008.765625 1076.980469 L 1010.804688 1070.175781 L 1012.667969 1063.867188 L 1014.125 1058.285156 L 1015.019531 1053.578125 L 1015.519531 1049.582031 L 1015.878906 1046.066406 L 1016.335938 1042.789062 L 1017.144531 1039.515625 L 1018.480469 1036.050781 L 1020.242188 1032.414062 L 1022.246094 1028.660156 L 1024.328125 1024.851562 L 1026.308594 1021.054688 L 1028.039062 1017.328125 L 1029.476562 1013.753906 L 1030.601562 1010.40625 L 1031.398438 1007.367188 L 1031.839844 1004.71875 L 1031.957031 1002.402344 L 1031.929688 999.832031 L 1031.980469 996.289062 L 1032.332031 991.039062 L 1033.214844 983.367188 L 1034.757812 972.859375 L 1036.769531 960.34375 L 1038.957031 946.960938 L 1041.035156 933.855469 L 1042.71875 922.164062 L 1043.808594 912.683594 L 1044.445312 904.808594 L 1044.859375 897.59375 L 1045.285156 890.09375 L 1045.945312 881.359375 L 1047.007812 870.722656 L 1048.351562 858.640625 L 1049.785156 845.859375 L 1051.128906 833.113281 L 1052.1875 821.140625 L 1052.78125 810.6875 L 1052.792969 802.300781 L 1052.394531 795.746094 L 1051.835938 790.605469 L 1051.367188 786.460938 L 1051.230469 782.886719 L 1051.589844 779.488281 L 1052.234375 775.980469 L 1052.871094 772.109375 L 1053.207031 767.609375 L 1052.941406 762.230469 L 1051.878906 755.773438 L 1050.214844 748.339844 L 1048.230469 740.085938 L 1046.21875 731.175781 L 1044.464844 721.765625 L 1043.203125 712.121094 L 1042.441406 702.882812 L 1042.117188 694.789062 L 1042.183594 688.585938 L 1042.585938 685.015625 L 1043.351562 684.558594 L 1044.847656 686.667969 L 1047.515625 690.542969 L 1051.808594 695.378906 L 1058.167969 700.375 L 1066.800781 704.808594 L 1076.964844 708.324219 L 1087.679688 710.640625 L 1097.960938 711.480469 L 1106.828125 710.574219 L 1113.554688 707.777344 L 1118.445312 703.488281 L 1122.054688 698.242188 L 1124.945312 692.570312 L 1127.675781 687.003906 L 1130.679688 681.964844 L 1133.894531 677.445312 L 1137.140625 673.320312 L 1140.226562 669.460938 L 1142.96875 665.746094 L 1145.238281 662.050781 L 1147.109375 658.25 L 1148.714844 654.214844 L 1150.183594 649.824219 L 1151.648438 644.949219 L 1153.242188 639.464844 L 1155.023438 633.320312 L 1156.777344 626.765625 L 1158.214844 620.128906 L 1159.054688 613.726562 L 1159.003906 607.890625 L 1157.894531 602.863281 L 1156.011719 598.574219 L 1153.753906 594.878906 L 1151.527344 591.621094 L 1149.726562 588.65625 L 1148.65625 585.824219 L 1148.246094 582.933594 L 1148.3125 579.777344 L 1148.6875 576.160156 L 1149.199219 571.875 L 1149.640625 566.804688 L 1149.707031 561.140625 L 1149.0625 555.164062 L 1147.367188 549.152344 L 1144.289062 543.382812 L 1139.6875 538.054688 L 1134.207031 533.066406 L 1128.695312 528.234375 L 1124 523.378906 L 1120.960938 518.3125 L 1120.113281 512.898438 L 1120.738281 507.171875 L 1121.800781 501.195312 L 1122.273438 495.042969 L 1121.121094 488.792969 L 1117.632812 482.5 L 1112.378906 476.214844 L 1106.242188 469.960938 L 1100.113281 463.773438 L 1094.878906 457.683594 L 1091.144531 451.734375 L 1088.398438 445.957031 L 1085.855469 440.40625 L 1082.71875 435.125 L 1078.203125 430.15625 L 1071.765625 425.523438 L 1063.859375 421.144531 L 1055.195312 416.917969 L 1046.480469 412.730469 L 1038.414062 408.480469 L 1031.710938 404.0625 L 1026.828125 399.433594 L 1023.285156 394.785156 L 1020.34375 390.382812 L 1017.277344 386.484375 L 1013.351562 383.347656 L 1008.039062 381.175781 L 1001.582031 379.9375 L 994.425781 379.550781 L 987.019531 379.925781 L 979.804688 380.980469 L 973.175781 382.632812 L 967.351562 384.828125 L 962.492188 387.507812 L 958.765625 390.621094 L 956.335938 394.121094 L 955.269531 397.949219 L 955.261719 402.085938 L 955.894531 406.5 L 956.761719 411.167969 L 957.453125 416.0625 L 957.605469 421.140625 L 957.011719 426.292969 L 955.515625 431.386719 L 952.960938 436.296875 L 949.183594 440.890625 L 944.144531 444.984375 L 938.28125 448.140625 L 932.136719 449.867188 L 926.269531 449.671875 L 921.230469 447.058594 L 917.417969 441.773438 L 914.625 434.472656 L 912.496094 426.054688 L 910.667969 417.414062 L 908.785156 409.449219 L 906.578125 402.839844 L 904.15625 397.390625 L 901.710938 392.699219 L 899.441406 388.351562 L 897.542969 383.949219 L 896.148438 379.175781 L 895.136719 374.105469 L 894.335938 368.917969 L 893.558594 363.78125 L 892.621094 358.875 L 891.351562 354.363281 L 889.617188 350.359375 L 887.542969 346.71875 L 885.300781 343.21875 L 883.070312 339.644531 L 881.019531 335.789062 L 879.265625 331.492188 L 877.6875 326.851562 L 876.09375 322.027344 L 874.304688 317.175781 L 872.132812 312.453125 L 869.484375 307.988281 L 866.65625 303.800781 L 864.03125 299.875 L 861.996094 296.203125 L 860.9375 292.769531 L 861.085938 289.5625 L 862.074219 286.546875 L 863.382812 283.695312 L 864.488281 280.972656 L 864.867188 278.34375 L 864.132812 275.78125 L 862.398438 273.238281 L 859.921875 270.664062 L 856.953125 268.019531 L 853.742188 265.253906 L 850.496094 262.328125 L 847.25 259.246094 L 844.003906 256.007812 L 840.753906 252.628906 L 837.496094 249.105469 L 834.203125 245.457031 L 830.78125 241.726562 L 827.113281 237.972656 L 823.085938 234.242188 L 818.585938 230.589844 L 813.574219 227.050781 L 808.324219 223.613281 L 803.195312 220.234375 L 798.539062 216.882812 L 794.710938 213.519531 L 791.75 210.117188 L 788.460938 206.664062 L 783.335938 203.152344 L 774.863281 199.574219 L 761.53125 195.921875 L 741.835938 192.1875 L 731.636719 196.039062 "/>
<path style="fill:none;stroke-width:0.75;stroke-linecap:round;stroke-linejoin:round;stroke:rgb(0%,0%,0%);stroke-opacity:1;stroke-miterlimit:10;" d="M 292.917969 430.820312 L 283.105469 435.0625 L 273.375 439.230469 L 262.964844 443.308594 L 251.496094 447.292969 L 240.054688 451.296875 L 230.121094 455.4375 L 222.6875 459.804688 L 216.84375 464.324219 L 211.214844 468.878906 L 204.757812 473.363281 L 197.785156 477.75 L 190.945312 482.011719 L 184.785156 486.15625 L 179.417969 490.324219 L 174.851562 494.671875 L 171.027344 499.324219 L 167.609375 504.230469 L 164.179688 509.285156 L 160.472656 514.40625 L 156.773438 519.523438 L 153.5 524.574219 L 150.945312 529.542969 L 148.859375 534.554688 L 146.863281 539.78125 L 144.574219 545.386719 L 141.707031 551.460938 L 138.355469 557.765625 L 134.71875 563.992188 L 131 569.933594 L 127.414062 575.804688 L 124.195312 581.929688 L 121.46875 588.523438 L 118.925781 595.324219 L 116.148438 601.960938 L 112.878906 608.117188 L 109.472656 613.710938 L 106.445312 618.703125 L 104.171875 623.09375 L 102.515625 626.953125 L 101.199219 630.375 L 99.988281 633.488281 L 98.789062 636.570312 L 97.542969 639.9375 L 96.1875 643.816406 L 94.636719 648.121094 L 92.789062 652.671875 L 90.550781 657.296875 L 87.9375 661.863281 L 85.398438 666.371094 L 83.503906 670.867188 L 82.566406 675.402344 L 81.875 680.074219 L 80.476562 685 L 77.710938 690.253906 L 74.097656 695.742188 L 70.464844 701.328125 L 67.472656 706.925781 L 65.164062 712.621094 L 63.414062 718.535156 L 62.089844 724.78125 L 60.980469 731.386719 L 59.871094 738.367188 L 58.585938 745.664062 L 57.175781 752.917969 L 55.742188 759.695312 L 54.363281 765.695312 L 53.03125 771.113281 L 51.726562 776.261719 L 50.417969 781.46875 L 49.089844 786.929688 L 47.738281 792.347656 L 46.367188 797.3125 L 44.988281 801.609375 L 43.625 805.816406 L 42.316406 810.714844 L 41.070312 816.976562 L 39.800781 824.867188 L 38.382812 834.542969 L 36.78125 845.925781 L 35.203125 858.011719 L 33.9375 869.566406 L 33.25 879.625 L 33.339844 888.339844 L 34.375 896.132812 L 36.324219 903.371094 L 38.328125 910.117188 L 39.316406 916.382812 L 38.605469 922.167969 L 37.023438 927.464844 L 35.78125 932.277344 L 36.09375 936.589844 L 38.632812 940.484375 L 41.910156 944.375 L 43.898438 948.757812 L 43.242188 953.96875 L 41.246094 959.652344 L 39.886719 965.296875 L 40.617188 970.46875 L 42.765625 975.082031 L 45.144531 979.136719 L 46.828125 982.683594 L 47.960938 986.015625 L 48.964844 989.472656 L 50.171875 993.378906 L 51.570312 997.933594 L 53.066406 1003.320312 L 54.566406 1009.597656 L 55.988281 1016.40625 L 57.261719 1023.265625 L 58.347656 1029.789062 L 59.414062 1035.886719 L 60.671875 1041.566406 L 62.328125 1046.820312 L 64.527344 1051.683594 L 67.125 1056.304688 L 69.910156 1060.875 L 72.640625 1065.503906 L 74.964844 1070.007812 L 76.503906 1074.132812 L 77.097656 1077.746094 L 77.464844 1081.214844 L 78.546875 1085.027344 L 81.144531 1089.566406 L 85.488281 1094.808594 L 91.675781 1100.609375 L 99.539062 1106.761719 L 107.878906 1112.765625 L 115.230469 1118.058594 L 120.449219 1122.226562 L 123.667969 1125.5 L 125.324219 1128.277344 L 125.921875 1130.898438 L 126.183594 1133.511719 L 126.894531 1136.214844 L 128.828125 1139.113281 L 132.429688 1142.292969 L 136.78125 1145.828125 L 140.621094 1149.78125 L 143.03125 1154.164062 L 144.417969 1158.816406 L 145.515625 1163.542969 L 147.011719 1168.179688 L 149.335938 1172.753906 L 152.867188 1177.335938 L 157.699219 1181.96875 L 162.792969 1186.597656 L 166.820312 1191.136719 L 168.992188 1195.507812 L 170.617188 1199.65625 L 173.542969 1203.523438 L 178.890625 1207.074219 L 184.921875 1210.304688 L 189.171875 1213.238281 L 189.863281 1215.910156 L 187.957031 1218.457031 L 185.085938 1221.039062 L 182.898438 1223.8125 L 182.75 1226.898438 L 184.925781 1230.238281 L 189.421875 1233.734375 L 195.945312 1237.316406 L 203 1240.984375 L 208.792969 1244.765625 L 212.050781 1248.699219 L 213.605469 1252.835938 L 214.808594 1257.238281 L 216.742188 1261.929688 L 219.359375 1266.800781 L 222.339844 1271.710938 L 225.476562 1276.535156 L 229.027344 1281.289062 L 233.375 1286.003906 L 238.6875 1290.691406 L 244.324219 1295.277344 L 249.441406 1299.652344 L 253.433594 1303.757812 L 256.671875 1307.660156 L 259.773438 1311.472656 L 263.339844 1315.304688 L 267.792969 1319.257812 L 272.761719 1323.386719 L 277.671875 1327.746094 L 282.199219 1332.351562 L 286.960938 1337.070312 L 292.816406 1341.753906 L 300.1875 1346.261719 L 307.734375 1350.542969 L 313.675781 1354.582031 L 317.128906 1358.324219 L 320.8125 1361.621094 L 328.34375 1364.296875 L 342.101562 1366.191406 L 359.515625 1367.21875 L 376.773438 1367.300781 L 390.820312 1366.496094 L 401.613281 1365.378906 L 409.871094 1364.660156 L 416.214844 1364.839844 L 420.917969 1365.644531 L 424.171875 1366.589844 L 426.160156 1367.195312 L 427.488281 1367.066406 L 430.414062 1366.113281 L 437.605469 1364.328125 L 450.734375 1361.746094 L 467.441406 1358.582031 L 484.367188 1355.09375 L 498.722656 1351.453125 L 510.042969 1347.488281 L 518.429688 1342.929688 L 524.109375 1337.4375 L 527.765625 1330.382812 L 530.203125 1321.050781 L 532.105469 1308.691406 L 533.683594 1292.40625 L 535.019531 1271.25 L 536.214844 1244.464844 L 537.414062 1212.058594 L 538.761719 1174.222656 L 540.335938 1131.566406 L 541.910156 1086.355469 L 543.175781 1041.265625 L 543.828125 998.976562 L 543.722656 961.660156 L 543.324219 929.414062 L 543.269531 901.828125 L 544.019531 878.59375 L 545.351562 859.769531 L 546.882812 845.511719 L 548.308594 835.683594 L 549.632812 828.902344 L 550.929688 823.5 L 552.265625 818.101562 L 554.992188 807 L 556.335938 801.554688 L 557.664062 796.207031 L 558.992188 790.902344 L 560.332031 785.570312 L 561.683594 780.050781 L 563.03125 774.167969 L 564.375 767.753906 L 565.714844 760.671875 L 567.050781 752.8125 L 568.394531 744.054688 L 569.738281 734.421875 L 571.085938 724.53125 L 572.425781 715.136719 L 573.753906 706.867188 L 575.082031 699.824219 L 576.4375 693.992188 L 577.820312 689.273438 L 579.191406 685.328125 L 580.507812 681.742188 L 581.746094 678.171875 L 583.007812 674.535156 L 584.421875 670.808594 L 586.046875 666.914062 L 587.628906 662.558594 L 588.855469 657.382812 L 589.460938 651.160156 L 589.425781 644.140625 L 588.785156 636.710938 L 587.613281 629.210938 L 586.101562 621.851562 L 584.476562 614.808594 L 582.960938 608.257812 L 581.710938 602.277344 L 580.59375 596.597656 L 579.417969 590.839844 L 578 584.789062 L 576.257812 578.828125 L 574.132812 573.5 L 571.585938 569.265625 L 568.664062 566.308594 L 565.453125 564.730469 L 562.097656 564.472656 L 559.035156 564.847656 L 556.78125 564.996094 L 555.515625 564.238281 L 554.144531 562.578125 L 551.234375 560.1875 L 546.003906 557.265625 L 540.222656 554.109375 L 536.300781 551.046875 L 535.984375 548.300781 L 538.328125 545.714844 L 541.710938 543.042969 L 544.519531 540.03125 L 545.425781 536.503906 L 544.242188 532.601562 L 541.066406 528.550781 L 536.089844 524.542969 L 529.871094 520.699219 L 523.070312 517.117188 L 516.335938 513.917969 L 510.339844 511.339844 L 505.75 509.640625 L 503.109375 509.046875 L 502.464844 509.664062 L 503.730469 511.554688 L 506.582031 514.6875 L 509.707031 518.605469 L 511.558594 522.753906 L 511.03125 526.578125 L 508.828125 529.550781 L 506.101562 531.164062 L 503.738281 531.039062 L 501.621094 529.398438 L 499.359375 526.613281 L 496.574219 523.042969 L 493.007812 518.988281 L 488.871094 514.441406 L 484.507812 509.332031 L 480.105469 503.636719 L 475.285156 497.578125 L 469.503906 491.433594 L 462.394531 485.464844 L 454.261719 479.890625 L 445.566406 474.914062 L 436.847656 470.671875 L 428.921875 467.023438 L 422.671875 463.757812 L 418.601562 460.683594 L 415.632812 457.632812 L 412.308594 454.445312 L 407.335938 451.011719 L 400.105469 447.363281 L 390.164062 443.570312 L 376.863281 439.703125 L 358.726562 435.816406 L 334.0625 431.949219 L 301.195312 428.152344 L 292.917969 430.820312 "/>
<path style="fill:none;stroke-width:0.75;stroke-linecap:round;stroke-linejoin:round;stroke:rgb(0%,0%,0%);stroke-opacity:1;stroke-miterlimit:10;" d="M 520.226562 283.570312 L 507.207031 289.308594 L 489.816406 295.378906 L 476.941406 301.832031 L 470.71875 308.1875 L 469.539062 313.980469 L 468.859375 319.265625 L 467.757812 323.875 L 466.460938 327.738281 L 465.121094 331.410156 L 463.734375 335.1875 L 462.332031 339.242188 L 461.03125 343.59375 L 459.625 348.175781 L 458.054688 353.589844 L 456.898438 360.464844 L 458.054688 368.722656 L 460.0625 377.425781 L 460.757812 385.75 L 459.738281 393.820312 L 459.339844 401.234375 L 461.339844 407.449219 L 467.636719 412.304688 L 490.78125 416.511719 L 519.21875 420.90625 L 536.164062 426.292969 L 535.894531 433.078125 L 527.160156 440.296875 L 519.703125 446.9375 L 515.355469 452.941406 L 516.394531 457.957031 L 525.144531 461.453125 L 539.046875 462.960938 L 548.222656 462.839844 L 553.066406 461.722656 L 556.722656 460.199219 L 560.375 458.613281 L 563.730469 457.09375 L 566.472656 455.703125 L 569.105469 454.425781 L 571.742188 453.183594 L 574.351562 451.890625 L 576.949219 450.375 L 579.925781 448.320312 L 583.78125 445.464844 L 588.453125 441.699219 L 592.128906 437.417969 L 594.699219 432.847656 L 596.601562 428.085938 L 598.121094 423.003906 L 599.59375 417.289062 L 601.011719 410.714844 L 600.742188 403.792969 L 597.042969 397.964844 L 591.976562 393.015625 L 588.472656 388.234375 L 588.140625 382.957031 L 589.648438 377.191406 L 591.308594 371.058594 L 592.664062 364.589844 L 592.910156 358.207031 L 591.402344 352.347656 L 588.636719 347.007812 L 584.796875 341.867188 L 580.449219 336.832031 L 576.355469 331.90625 L 573.164062 327.125 L 570.378906 322.285156 L 567.273438 317.113281 L 563.25 311.445312 L 557.476562 305.582031 L 550.203125 300.09375 L 545.015625 295.9375 L 541.832031 293.164062 L 539.449219 291.339844 L 536.941406 289.996094 L 534.207031 288.808594 L 530.929688 287.660156 L 526.933594 286.484375 L 522.785156 285.308594 L 518.335938 284.171875 L 520.226562 283.570312 "/>
<path style="fill:none;stroke-width:0.75;stroke-linecap:round;stroke-linejoin:round;stroke:rgb(0%,0%,0%);stroke-opacity:1;stroke-miterlimit:10;" d="M 510.027344 489.078125 L 504.558594 492.9375 L 505.105469 496.382812 L 506.207031 499.578125 L 508.851562 502.933594 L 511.613281 506.226562 L 512.960938 509.105469 L 515.8125 511.550781 L 520.027344 513.96875 L 524.082031 516.464844 L 528.15625 519.027344 L 535.296875 521.75 L 538.058594 525.285156 L 543.40625 530.183594 L 555.007812 536.382812 L 556.195312 542.046875 L 560.074219 546.585938 L 562.242188 550.101562 L 562.660156 553.328125 L 564.671875 557.113281 L 570.226562 561.835938 L 573.675781 567.175781 L 575.652344 573.328125 L 577.925781 580.328125 L 579.105469 587.132812 L 580.578125 593.34375 L 581.90625 598.632812 L 582.792969 602.929688 L 584.859375 607.273438 L 585.761719 613.003906 L 587.074219 621.453125 L 588.496094 630.371094 L 589.988281 636.617188 L 594.066406 638.132812 L 597.5 635.765625 L 599.464844 630.171875 L 600.613281 621.578125 L 602.171875 610.621094 L 602.835938 601.136719 L 604.824219 593.8125 L 608.855469 588.207031 L 609.800781 583.429688 L 613.808594 578.480469 L 615.84375 573.652344 L 616.480469 569.457031 L 617.957031 566.074219 L 619.410156 562.617188 L 620.84375 558.582031 L 622.121094 554 L 623.222656 549.230469 L 624.792969 545.203125 L 626.207031 542 L 627.570312 539.273438 L 628.230469 536.691406 L 625.773438 534.125 L 624.496094 531.511719 L 624.03125 528.796875 L 624.382812 525.835938 L 626.230469 522.488281 L 629.722656 518.871094 L 632.121094 515.550781 L 632.484375 512.609375 L 631.292969 509.933594 L 630.484375 507.335938 L 628.394531 504.652344 L 627.992188 501.65625 L 630.601562 498.109375 L 631.539062 494.078125 L 624.507812 490.425781 L 510.398438 487.335938 L 510.027344 489.078125 "/>
<path style="fill:none;stroke-width:0.75;stroke-linecap:round;stroke-linejoin:round;stroke:rgb(0%,0%,0%);stroke-opacity:1;stroke-miterlimit:10;" d="M 867.617188 534.726562 L 866.652344 539.496094 L 866.207031 544.035156 L 865.90625 548.488281 L 865.375 553.003906 L 864.359375 557.667969 L 863.085938 562.367188 L 861.910156 566.9375 L 861.183594 571.207031 L 861.253906 575.011719 L 862.320312 578.273438 L 863.953125 581.285156 L 865.558594 584.429688 L 866.550781 588.085938 L 866.34375 592.640625 L 864.550781 598.332031 L 861.59375 604.8125 L 858.097656 611.605469 L 854.683594 618.214844 L 851.976562 624.164062 L 850.457031 629.109375 L 850 633.300781 L 850.339844 637.148438 L 851.207031 641.039062 L 852.339844 645.382812 L 853.503906 650.453125 L 854.652344 656.058594 L 855.777344 661.875 L 856.867188 667.585938 L 857.910156 672.878906 L 858.886719 677.507812 L 859.710938 681.535156 L 860.296875 685.101562 L 860.535156 688.347656 L 860.34375 691.414062 L 859.667969 694.441406 L 858.664062 697.578125 L 857.53125 700.96875 L 856.476562 704.769531 L 855.695312 709.128906 L 855.351562 714.175781 L 855.429688 720.003906 L 855.871094 726.683594 L 856.628906 734.28125 L 857.605469 742.863281 L 858.578125 752.421875 L 859.300781 762.941406 L 859.507812 774.40625 L 858.953125 786.792969 L 857.464844 799.96875 L 855.234375 813.285156 L 852.535156 825.976562 L 849.652344 837.277344 L 846.859375 846.421875 L 844.386719 852.929688 L 842.265625 857.5 L 840.480469 861.117188 L 839.011719 864.757812 L 837.84375 869.40625 L 836.941406 875.757812 L 836.203125 883.320312 L 835.515625 891.304688 L 834.761719 898.925781 L 833.820312 905.402344 L 832.601562 910.121094 L 831.128906 913.171875 L 829.449219 914.808594 L 827.601562 915.304688 L 825.644531 914.914062 L 823.632812 913.964844 L 821.695312 913.019531 L 819.976562 912.71875 L 818.613281 913.691406 L 817.757812 916.566406 L 817.476562 921.777344 L 817.566406 928.984375 L 817.753906 937.636719 L 817.765625 947.191406 L 817.328125 957.101562 L 816.289062 966.867188 L 815.003906 976.097656 L 813.933594 984.445312 L 813.5625 991.570312 L 814.179688 997.261719 L 815.394531 1001.863281 L 816.628906 1005.863281 L 817.316406 1009.75 L 816.878906 1014.007812 L 814.988281 1018.964844 L 812.269531 1024.316406 L 809.582031 1029.601562 L 807.792969 1034.351562 L 807.769531 1038.105469 L 810.089844 1040.441406 L 814.203125 1041.097656 L 819.277344 1039.859375 L 824.472656 1036.507812 L 828.964844 1030.824219 L 832.125 1022.730469 L 834.171875 1012.699219 L 835.546875 1001.347656 L 836.679688 989.289062 L 838.003906 977.136719 L 839.839844 965.519531 L 842.070312 955.117188 L 844.449219 946.621094 L 846.742188 940.734375 L 848.714844 938.140625 L 850.183594 939.265625 L 851.179688 943.421875 L 851.78125 949.636719 L 852.074219 956.945312 L 852.140625 964.386719 L 852.058594 971.144531 L 851.894531 977.027344 L 851.710938 981.992188 L 851.574219 985.996094 L 851.542969 989 L 851.65625 991.066406 L 851.859375 992.675781 L 852.070312 994.414062 L 852.214844 996.859375 L 852.269531 1000.476562 L 852.425781 1005.21875 L 852.945312 1010.921875 L 854.078125 1017.421875 L 856.082031 1024.546875 L 859.050781 1032.097656 L 862.441406 1039.753906 L 865.558594 1047.148438 L 867.695312 1053.925781 L 868.152344 1059.726562 L 866.492188 1064.316406 L 863.300781 1067.992188 L 859.429688 1071.183594 L 855.738281 1074.316406 L 853.066406 1077.8125 L 852.082031 1081.996094 L 852.679688 1086.742188 L 854.566406 1091.832031 L 857.457031 1097.039062 L 861.050781 1102.136719 L 864.988281 1106.929688 L 868.632812 1111.320312 L 871.269531 1115.25 L 872.191406 1118.652344 L 870.683594 1121.460938 L 866.359375 1123.601562 L 860.105469 1124.941406 L 853.117188 1125.335938 L 846.609375 1124.652344 L 841.78125 1122.738281 L 839.457031 1119.554688 L 838.960938 1115.421875 L 839.234375 1110.765625 L 839.222656 1106.003906 L 837.867188 1101.554688 L 834.402344 1097.699219 L 829.25 1094.136719 L 823.113281 1090.429688 L 816.703125 1086.132812 L 810.730469 1080.804688 L 805.738281 1074.234375 L 801.652344 1067.117188 L 798.234375 1060.371094 L 795.238281 1054.917969 L 792.488281 1051.550781 L 790.007812 1050.488281 L 787.894531 1051.828125 L 786.234375 1055.65625 L 785.113281 1062.0625 L 784.578125 1070.9375 L 784.527344 1081.339844 L 784.816406 1092.132812 L 785.296875 1102.175781 L 785.824219 1110.324219 L 786.234375 1115.773438 L 786.265625 1119.003906 L 785.640625 1120.839844 L 784.078125 1122.097656 L 781.304688 1123.59375 L 777.179688 1125.972656 L 772.179688 1129.183594 L 766.914062 1133.007812 L 762 1137.21875 L 758.054688 1141.59375 L 755.496094 1145.949219 L 753.949219 1150.273438 L 752.835938 1154.582031 L 751.582031 1158.90625 L 749.613281 1163.269531 L 746.515625 1167.683594 L 742.488281 1172.132812 L 737.898438 1176.597656 L 733.109375 1181.050781 L 728.480469 1185.476562 L 724.3125 1189.734375 L 720.648438 1193.261719 L 717.460938 1195.394531 L 714.730469 1195.453125 L 712.433594 1192.773438 L 710.585938 1186.996094 L 709.367188 1179.050781 L 708.996094 1170.179688 L 709.679688 1161.621094 L 711.53125 1154.347656 L 714.238281 1148.25 L 717.375 1142.949219 L 720.527344 1138.058594 L 723.269531 1133.199219 L 725.230469 1128.140625 L 726.246094 1123.285156 L 726.207031 1119.171875 L 724.996094 1116.359375 L 722.496094 1115.394531 L 718.722656 1116.574219 L 714.148438 1119.195312 L 709.382812 1122.296875 L 705.03125 1124.921875 L 701.691406 1126.113281 L 699.851562 1125.152344 L 699.5 1122.296875 L 700.519531 1118.039062 L 702.78125 1112.875 L 706.15625 1107.300781 L 710.492188 1101.730469 L 715.480469 1096.277344 L 720.773438 1090.964844 L 726.035156 1085.832031 L 730.925781 1080.90625 L 735.199219 1076.207031 L 739.007812 1071.707031 L 742.605469 1067.363281 L 746.242188 1063.132812 L 750.167969 1058.980469 L 754.554688 1054.863281 L 759.257812 1050.761719 L 764.058594 1046.652344 L 768.734375 1042.511719 L 773.058594 1038.320312 L 776.847656 1034.015625 L 780.046875 1029.351562 L 782.644531 1024.050781 L 784.625 1017.820312 L 785.929688 1010.515625 L 786.355469 1002.539062 L 785.648438 994.421875 L 783.558594 986.703125 L 779.835938 979.921875 L 774.363281 974.457031 L 767.542969 970.066406 L 759.902344 966.355469 L 751.976562 962.929688 L 744.289062 959.390625 L 737.28125 955.433594 L 731 951.121094 L 725.402344 946.597656 L 720.445312 942.019531 L 716.078125 937.535156 L 712.257812 933.238281 L 708.917969 929.003906 L 705.980469 924.652344 L 703.382812 920.003906 L 701.050781 914.871094 L 698.929688 909.152344 L 697.03125 903.046875 L 695.382812 896.820312 L 694.007812 890.746094 L 692.941406 885.097656 L 692.175781 880.046875 L 691.597656 875.386719 L 691.066406 870.820312 L 690.4375 866.042969 L 689.570312 860.753906 L 688.398438 854.757812 L 687.144531 848.300781 L 686.109375 841.726562 L 685.585938 835.394531 L 685.875 829.652344 L 687.164062 824.707031 L 689.207031 820.199219 L 691.640625 815.628906 L 694.101562 810.496094 L 696.285156 804.394531 L 698.105469 797.320312 L 699.527344 789.355469 L 700.511719 780.589844 L 701.023438 771.113281 L 701.054688 761.082031 L 700.664062 750.925781 L 699.9375 741.132812 L 698.964844 732.203125 L 697.832031 724.632812 L 696.605469 718.742188 L 695.265625 714.140625 L 693.78125 710.269531 L 692.121094 706.570312 L 690.25 702.472656 L 688.214844 697.566406 L 686.402344 692.019531 L 685.289062 686.148438 L 685.335938 680.265625 L 687.015625 674.695312 L 690.582031 669.683594 L 695.417969 665.226562 L 700.699219 661.261719 L 705.585938 657.714844 L 709.253906 654.53125 L 711.109375 651.617188 L 711.53125 648.851562 L 711.136719 646.078125 L 710.539062 643.15625 L 710.355469 639.9375 L 711.070312 636.320312 L 712.601562 632.375 L 714.746094 628.222656 L 717.28125 623.980469 L 720.003906 619.761719 L 722.722656 615.65625 L 725.382812 611.617188 L 727.953125 607.578125 L 730.402344 603.460938 L 732.703125 599.191406 L 734.824219 594.746094 L 736.738281 590.289062 L 738.429688 586.03125 L 739.863281 582.183594 L 741.019531 578.90625 L 741.824219 576.125 L 742.210938 573.722656 L 742.101562 571.578125 L 741.425781 569.5625 L 740.144531 567.554688 L 738.335938 565.421875 L 736.109375 563.039062 L 733.585938 560.277344 L 730.875 556.996094 L 728.046875 553.167969 L 725.011719 549.097656 L 721.648438 545.207031 L 717.824219 541.890625 L 713.410156 539.570312 L 708.367188 538.523438 L 702.972656 538.582031 L 697.609375 539.449219 L 692.640625 540.824219 L 688.441406 542.417969 L 685.261719 543.984375 L 682.882812 545.476562 L 680.957031 546.910156 L 679.148438 548.28125 L 677.109375 549.609375 L 674.582031 550.894531 L 671.613281 552.167969 L 668.335938 553.457031 L 664.878906 554.78125 L 661.367188 556.175781 L 657.917969 557.644531 L 654.589844 559.132812 L 651.425781 560.558594 L 648.46875 561.84375 L 645.761719 562.914062 L 643.277344 563.757812 L 640.742188 564.609375 L 637.800781 565.777344 L 634.109375 567.566406 L 629.457031 570.246094 L 624.160156 573.921875 L 618.683594 578.664062 L 613.476562 584.550781 L 609 591.644531 L 605.59375 599.910156 L 603.128906 608.851562 L 601.347656 617.863281 L 600.011719 626.34375 L 598.863281 633.683594 L 597.699219 639.449219 L 596.488281 643.910156 L 595.230469 647.503906 L 593.933594 650.664062 L 592.613281 653.828125 L 591.269531 657.34375 L 589.910156 661.164062 L 588.542969 665.160156 L 587.179688 669.191406 L 585.820312 673.125 L 584.476562 676.867188 L 583.140625 680.484375 L 581.808594 684.097656 L 580.476562 687.816406 L 579.144531 691.753906 L 577.800781 696.042969 L 576.453125 700.917969 L 575.105469 706.617188 L 573.753906 713.398438 L 572.410156 721.511719 L 571.074219 731.039062 L 569.742188 741.421875 L 568.410156 751.941406 L 567.070312 761.871094 L 565.722656 770.496094 L 564.363281 777.328125 L 563.003906 782.828125 L 561.648438 787.691406 L 560.3125 792.621094 L 558.996094 798.148438 L 557.695312 804.148438 L 556.386719 810.328125 L 555.058594 816.398438 L 553.6875 822.070312 L 552.273438 827.207031 L 550.835938 832.296875 L 549.414062 837.988281 L 548.042969 844.917969 L 546.757812 853.730469 L 545.59375 865.160156 L 544.59375 880.285156 L 543.796875 900.269531 L 543.246094 926.273438 L 542.980469 959.46875 L 542.980469 1000.316406 L 542.992188 1046.449219 L 542.699219 1094.804688 L 541.78125 1142.316406 L 539.921875 1185.917969 L 537.015625 1223.15625 L 533.78125 1254.035156 L 531.144531 1279.160156 L 530.039062 1299.148438 L 531.390625 1314.613281 L 536 1326.183594 L 544.125 1334.597656 L 555.890625 1340.605469 L 571.429688 1344.964844 L 590.867188 1348.421875 L 614.042969 1351.550781 L 639.601562 1354.167969 L 665.917969 1355.910156 L 691.339844 1356.402344 L 714.242188 1355.28125 L 733.316406 1352.363281 L 748.625 1348.183594 L 760.574219 1343.457031 L 769.566406 1338.898438 L 776.0625 1335.066406 L 780.800781 1331.847656 L 784.574219 1328.964844 L 788.183594 1326.144531 L 792.425781 1323.109375 L 797.894531 1319.65625 L 804.347656 1315.875 L 811.34375 1311.914062 L 818.433594 1307.941406 L 825.179688 1304.109375 L 831.230469 1300.542969 L 836.652344 1297.199219 L 841.605469 1294.003906 L 846.246094 1290.890625 L 850.738281 1287.777344 L 855.210938 1284.59375 L 859.675781 1281.285156 L 864.109375 1277.792969 L 868.484375 1274.0625 L 872.785156 1270.042969 L 877.027344 1265.683594 L 881.386719 1260.960938 L 886.082031 1255.855469 L 891.328125 1250.355469 L 897.339844 1244.441406 L 904.210938 1238.136719 L 911.554688 1231.628906 L 918.851562 1225.148438 L 925.585938 1218.925781 L 931.242188 1213.191406 L 935.476562 1208.105469 L 938.644531 1203.558594 L 941.265625 1199.375 L 943.871094 1195.378906 L 946.984375 1191.394531 L 950.964844 1187.285156 L 955.53125 1183.101562 L 960.238281 1178.925781 L 964.644531 1174.84375 L 968.300781 1170.949219 L 970.925781 1167.277344 L 972.90625 1163.679688 L 974.773438 1159.945312 L 977.082031 1155.882812 L 980.210938 1151.332031 L 983.949219 1146.347656 L 987.921875 1141.027344 L 991.757812 1135.476562 L 995.085938 1129.792969 L 997.636719 1124.042969 L 999.554688 1118.160156 L 1001.074219 1112.042969 L 1002.441406 1105.589844 L 1003.898438 1098.695312 L 1005.621094 1091.332031 L 1007.511719 1083.769531 L 1009.414062 1076.335938 L 1011.160156 1069.378906 L 1012.59375 1063.226562 L 1013.613281 1058.117188 L 1014.324219 1053.867188 L 1014.910156 1050.1875 L 1015.535156 1046.789062 L 1016.375 1043.386719 L 1017.558594 1039.75 L 1019.039062 1035.921875 L 1020.726562 1031.992188 L 1022.527344 1028.070312 L 1024.359375 1024.246094 L 1026.128906 1020.605469 L 1027.765625 1017.183594 L 1029.203125 1013.988281 L 1030.371094 1011.035156 L 1031.199219 1008.34375 L 1031.65625 1005.84375 L 1031.882812 1003.140625 L 1032.039062 999.757812 L 1032.304688 995.222656 L 1032.847656 989.058594 L 1033.792969 980.953125 L 1035.089844 971.25 L 1036.632812 960.445312 L 1038.332031 949.050781 L 1040.078125 937.515625 L 1041.792969 926.089844 L 1043.390625 914.972656 L 1044.78125 904.359375 L 1045.886719 894.453125 L 1046.65625 885.3125 L 1047.175781 876.441406 L 1047.570312 867.222656 L 1047.960938 857.019531 L 1048.46875 845.210938 L 1049.175781 831.449219 L 1049.984375 816.539062 L 1050.75 801.566406 L 1051.332031 787.621094 L 1051.589844 775.785156 L 1051.417969 766.832031 L 1050.855469 760.277344 L 1049.984375 755.320312 L 1048.882812 751.15625 L 1047.625 746.992188 L 1046.289062 742.167969 L 1044.902344 736.625 L 1043.496094 730.445312 L 1042.089844 723.71875 L 1040.714844 716.53125 L 1039.382812 708.992188 L 1038.082031 701.308594 L 1036.789062 693.714844 L 1035.480469 686.4375 L 1034.128906 679.707031 L 1032.722656 673.71875 L 1031.292969 668.472656 L 1029.882812 663.929688 L 1028.527344 660.058594 L 1027.265625 656.8125 L 1026.121094 654.128906 L 1025 651.792969 L 1023.789062 649.554688 L 1022.386719 647.175781 L 1020.699219 644.453125 L 1018.769531 641.371094 L 1016.652344 637.960938 L 1014.421875 634.257812 L 1012.128906 630.285156 L 1009.851562 626.089844 L 1007.671875 621.792969 L 1005.679688 617.515625 L 1003.960938 613.394531 L 1002.609375 609.554688 L 1001.652344 606.074219 L 1000.875 602.832031 L 1000.003906 599.648438 L 998.765625 596.347656 L 996.882812 592.753906 L 994.167969 588.757812 L 990.757812 584.519531 L 986.871094 580.257812 L 982.734375 576.199219 L 978.566406 572.570312 L 974.550781 569.53125 L 970.710938 566.992188 L 967.035156 564.808594 L 963.507812 562.828125 L 960.113281 560.898438 L 956.824219 558.902344 L 953.566406 556.820312 L 950.242188 554.660156 L 946.765625 552.4375 L 943.046875 550.160156 L 938.960938 547.84375 L 934.285156 545.5625 L 928.761719 543.394531 L 922.136719 541.410156 L 914.152344 539.691406 L 904.714844 538.28125 L 894.410156 537.105469 L 883.96875 536.050781 L 874.136719 535.003906 L 865.65625 533.859375 L 867.617188 534.726562 "/>
<path style="fill:none;stroke-width:0.75;stroke-linecap:round;stroke-linejoin:round;stroke:rgb(0%,0%,0%);stroke-opacity:1;stroke-miterlimit:10;" d="M 732.140625 195.71875 L 726.066406 198.019531 L 721.140625 198.589844 L 717.035156 198.597656 L 713.464844 198.925781 L 710.15625 200.398438 L 706.894531 203.480469 L 703.710938 207.226562 L 700.703125 210.339844 L 697.941406 211.980469 L 695.410156 213.15625 L 693.097656 214.945312 L 691.121094 216.847656 L 689.617188 217.980469 L 688.597656 217.792969 L 687.59375 217.125 L 686.019531 217.160156 L 683.53125 218.683594 L 680.796875 220.910156 L 678.511719 222.871094 L 676.402344 224.484375 L 673.953125 225.894531 L 670.855469 227.332031 L 667.542969 229.441406 L 664.652344 232.957031 L 662.523438 238.339844 L 660.351562 244.894531 L 657.304688 251.773438 L 653.613281 258.601562 L 649.773438 265.144531 L 646.179688 271.230469 L 642.808594 277.035156 L 639.539062 282.824219 L 636.425781 288.820312 L 634.214844 295.132812 L 633.566406 301.84375 L 634.039062 309.03125 L 634.929688 316.78125 L 635.65625 325.003906 L 636.1875 332.90625 L 636.613281 339.53125 L 636.949219 344.277344 L 636.878906 347.976562 L 636.199219 351.730469 L 635.4375 356.261719 L 635.308594 362.199219 L 636.261719 369.714844 L 637.625 377.113281 L 638.464844 382.238281 L 638.023438 383.882812 L 636.234375 384.625 L 633.347656 387.746094 L 630.207031 395.601562 L 627.792969 410.324219 L 626.84375 432.5625 L 627.136719 457.09375 L 628.1875 477.21875 L 629.652344 488.125 L 631.667969 492.53125 L 634.40625 494.40625 L 637.664062 495.234375 L 641.160156 495.867188 L 644.644531 496.972656 L 648.039062 498.433594 L 651.316406 499.949219 L 654.480469 501.292969 L 657.726562 502.558594 L 661.226562 503.882812 L 664.984375 505.25 L 668.9375 506.605469 L 673.023438 507.910156 L 677.097656 509.203125 L 681 510.535156 L 684.632812 512.027344 L 688.152344 514.105469 L 691.878906 516.929688 L 696.558594 519.363281 L 703.046875 519.9375 L 711.375 517.742188 L 718.285156 514.070312 L 719.699219 510.769531 L 713.652344 509 L 706.609375 507.210938 L 705.0625 503.691406 L 707.21875 498.859375 L 709.199219 493.671875 L 708.066406 488.804688 L 704.582031 483.820312 L 700.460938 478.015625 L 697.054688 471.03125 L 694.378906 463.90625 L 692.199219 457.824219 L 690.757812 453.144531 L 690.394531 450.023438 L 691.300781 448.351562 L 693.058594 446.984375 L 695.101562 444.511719 L 696.691406 440.136719 L 696.429688 435.472656 L 693.335938 432.1875 L 688.800781 429.691406 L 684.8125 426.828125 L 682.8125 422.722656 L 682.121094 417.613281 L 681.527344 412.007812 L 680.144531 406.21875 L 678.402344 399.761719 L 676.90625 392.304688 L 675.621094 384.957031 L 674.335938 379.195312 L 672.972656 375.871094 L 671.910156 373.398438 L 671.636719 369.574219 L 672.488281 363.035156 L 674.136719 355.785156 L 676.082031 350.066406 L 677.746094 345.769531 L 678.546875 342.183594 L 678.109375 338.746094 L 676.894531 335.507812 L 675.582031 332.671875 L 674.796875 330.320312 L 674.984375 328.0625 L 676.347656 325.460938 L 678.253906 322.324219 L 679.871094 318.511719 L 680.542969 313.953125 L 680.296875 308.773438 L 679.335938 303.15625 L 678.164062 297.308594 L 678.464844 291.546875 L 681.636719 286.152344 L 686.734375 281.109375 L 692.234375 276.339844 L 696.953125 271.8125 L 701.089844 267.722656 L 705.183594 264.3125 L 709.285156 261.738281 L 711.527344 259.789062 L 710.316406 258.128906 L 707.164062 256.316406 L 704.339844 253.886719 L 703.921875 250.632812 L 707.1875 247.386719 L 715.214844 245.246094 L 728.085938 245.058594 L 741.945312 246.695312 L 753.152344 249.710938 L 762.898438 253.445312 L 773.589844 257.167969 L 786.59375 260.402344 L 799.121094 263.609375 L 807.351562 267.488281 L 808.933594 272.457031 L 807.410156 277.835938 L 806.972656 282.851562 L 808.433594 287.566406 L 811.769531 292.246094 L 816.714844 297.0625 L 822.015625 301.832031 L 826.171875 306.277344 L 827.941406 310.164062 L 827.101562 313.429688 L 824.066406 316.148438 L 820.835938 318.804688 L 819.808594 321.976562 L 822.628906 326.019531 L 827.972656 330.378906 L 833.78125 334.296875 L 838.523438 337.679688 L 842.832031 343.203125 L 847.488281 353.078125 L 851.722656 364.984375 L 854.378906 375.449219 L 854.726562 381.875 L 853.769531 385.0625 L 852.929688 386.675781 L 853.472656 388.429688 L 855.984375 392.222656 L 860.5 399.304688 L 865.515625 408.109375 L 869.140625 416.363281 L 870.105469 422.441406 L 869.609375 427.277344 L 869.472656 432.445312 L 870.960938 438.972656 L 873.113281 445.625 L 874.746094 451.109375 L 875.933594 456.0625 L 877.074219 461.601562 L 878.398438 468.554688 L 879.464844 476.59375 L 879.671875 485.101562 L 878.828125 493.210938 L 878.414062 499.078125 L 879.851562 501.222656 L 882.648438 500.617188 L 885.855469 498.835938 L 888.707031 497.175781 L 891.25 495.789062 L 893.730469 494.550781 L 896.339844 493.332031 L 899.0625 492.003906 L 901.867188 490.46875 L 904.824219 488.75 L 908.03125 486.925781 L 911.527344 485.035156 L 915.089844 483.050781 L 918.425781 480.921875 L 921.382812 478.546875 L 924.335938 475.640625 L 927.585938 472.003906 L 930.625 468.050781 L 932.75 464.328125 L 933.34375 461.230469 L 932.210938 458.460938 L 929.246094 455.558594 L 924.78125 452.222656 L 920.875 448.785156 L 919.3125 445.453125 L 919.019531 441.328125 L 918.203125 435.222656 L 915.566406 426.515625 L 911.707031 416.75 L 907.722656 408.023438 L 904.511719 401.832031 L 902.214844 397.242188 L 900.714844 392.953125 L 899.671875 388.648438 L 898.664062 384.261719 L 897.378906 379.699219 L 895.902344 374.78125 L 894.40625 369.3125 L 893.027344 363.316406 L 891.761719 357.746094 L 890.542969 353.472656 L 889.292969 350.167969 L 887.921875 347.1875 L 886.335938 343.996094 L 884.390625 340.382812 L 881.945312 336.238281 L 879.011719 331.515625 L 876.265625 326.453125 L 874.332031 321.335938 L 872.980469 316.453125 L 871.777344 312.074219 L 870.324219 308.320312 L 868.410156 304.703125 L 865.855469 300.585938 L 862.707031 295.644531 L 859.925781 290.796875 L 858.34375 286.949219 L 857.363281 283.683594 L 856.046875 280.246094 L 853.710938 276.105469 L 850.765625 271.628906 L 847.875 267.398438 L 845.5625 263.832031 L 843.738281 260.714844 L 842.089844 257.613281 L 839.976562 253.929688 L 836.675781 249.035156 L 831.695312 242.613281 L 825.449219 235.6875 L 818.578125 229.605469 L 811.75 225.332031 L 805.757812 222.292969 L 801.207031 219.644531 L 797.8125 217.015625 L 795.078125 214.148438 L 792.449219 210.847656 L 789.214844 207.175781 L 784.609375 203.257812 L 777.242188 199.257812 L 763.171875 195.488281 L 737.824219 192.289062 L 732.140625 195.71875 "/>
<path style="fill:none;stroke-width:0.75;stroke-linecap:round;stroke-linejoin:round;stroke:rgb(0%,0%,0%);stroke-opacity:1;stroke-miterlimit:10;" d="M 970.476562 376.628906 L 965.65625 382.492188 L 962.804688 386.574219 L 961.316406 389.414062 L 960.140625 391.960938 L 958.8125 394.425781 L 957.246094 396.953125 L 956.296875 400.222656 L 956.648438 404.890625 L 957.347656 411.019531 L 957.304688 418.113281 L 956.449219 424.015625 L 955.035156 427.039062 L 953.613281 429.089844 L 952.527344 432.53125 L 951.042969 438.007812 L 948.386719 445.167969 L 944.628906 451.507812 L 940.363281 455.171875 L 937.375 459.15625 L 937.109375 466.449219 L 938.460938 475.253906 L 939.996094 483.039062 L 941.445312 489.179688 L 942.828125 493.710938 L 944.167969 497.441406 L 945.484375 501.136719 L 946.828125 504.597656 L 948.207031 507.484375 L 949.34375 509.832031 L 950.238281 511.988281 L 952.175781 515.261719 L 956.394531 520.816406 L 962.628906 528.40625 L 969.960938 537.125 L 976.324219 544.867188 L 980.066406 549.925781 L 982.234375 553.386719 L 984.246094 556.722656 L 986.332031 560.167969 L 988.304688 563.527344 L 989.773438 566.332031 L 991.0625 568.929688 L 992.609375 571.8125 L 994.582031 575.132812 L 996.9375 578.835938 L 999.136719 582.394531 L 1000.6875 585.351562 L 1001.847656 587.949219 L 1003.027344 590.476562 L 1004.527344 592.636719 L 1006.574219 594.007812 L 1009.171875 594.199219 L 1012.15625 593.398438 L 1014.871094 593.992188 L 1016.566406 597.964844 L 1016.558594 603.5 L 1014.6875 608.570312 L 1012.769531 614.203125 L 1012.578125 621.378906 L 1013.660156 627.859375 L 1015.125 631.472656 L 1016.554688 633.539062 L 1017.808594 635.867188 L 1019.335938 638.808594 L 1021.523438 642.273438 L 1023.890625 645.9375 L 1025.871094 649.5 L 1027.460938 653.085938 L 1028.792969 656.785156 L 1030.042969 660.234375 L 1031.351562 663.09375 L 1032.71875 665.652344 L 1034.09375 668.269531 L 1035.386719 671 L 1036.566406 673.78125 L 1037.882812 676.4375 L 1039.664062 678.789062 L 1042.210938 680.746094 L 1045.542969 682.605469 L 1048.570312 686.0625 L 1051.125 691.605469 L 1056.09375 695.292969 L 1060.601562 698.703125 L 1062.273438 704.195312 L 1067.628906 710.171875 L 1082.351562 714.265625 L 1099.859375 714.957031 L 1112.257812 711.605469 L 1118.664062 706.21875 L 1120.414062 700.960938 L 1120.738281 695.933594 L 1122.585938 690.890625 L 1125.871094 686.351562 L 1129.84375 682.746094 L 1134.128906 679.488281 L 1138.3125 675.777344 L 1141.476562 671.027344 L 1143.035156 665.152344 L 1144.21875 659.914062 L 1146.277344 656.726562 L 1148.695312 653.726562 L 1150.695312 649.054688 L 1152.253906 644.054688 L 1153.554688 640.144531 L 1154.855469 635.769531 L 1156.335938 629.222656 L 1157.753906 621.097656 L 1158.742188 612.671875 L 1158.886719 605.628906 L 1157.933594 601.1875 L 1156.375 598.285156 L 1154.710938 595.519531 L 1152.707031 592.363281 L 1150.195312 588.695312 L 1147.917969 585.121094 L 1146.707031 582.25 L 1146.746094 579.949219 L 1147.929688 577.6875 L 1149.585938 574.070312 L 1150.898438 567.871094 L 1151.117188 559.765625 L 1149.933594 552.167969 L 1147.253906 547.128906 L 1143.429688 543.84375 L 1138.890625 540.714844 L 1133.992188 535.785156 L 1129.09375 528 L 1124.683594 520.285156 L 1121.328125 515.542969 L 1119.664062 512.695312 L 1119.984375 509.714844 L 1121.085938 504.722656 L 1121.578125 496.628906 L 1120.726562 487.296875 L 1118.070312 479.105469 L 1113.503906 473.539062 L 1107.355469 470.835938 L 1101.324219 467.203125 L 1096.816406 459.402344 L 1092.742188 450.492188 L 1087.75 444.0625 L 1081.988281 439.585938 L 1076.242188 435.617188 L 1072.375 431.214844 L 1071.4375 425.886719 L 1070.164062 420.449219 L 1064.847656 415.871094 L 1054.304688 412.433594 L 1039.347656 409.835938 L 1026.261719 406.214844 L 1020.542969 400.144531 L 1019.019531 393.53125 L 1017.34375 388.566406 L 1015.101562 385.199219 L 1012.796875 382.984375 L 1010.640625 382.078125 L 1008.199219 382.324219 L 1002.679688 381.652344 L 991.46875 378.484375 L 975.074219 375.003906 L 970.476562 376.628906 "/>
</g>
</svg>
