<?xml version="1.0" encoding="UTF-8"?>
<svg xmlns="http://www.w3.org/2000/svg" xmlns:xlink="http://www.w3.org/1999/xlink" width="1428pt" height="1605pt" viewBox="0 0 1428 1605" version="1.1">
<g id="surface299">
<rect x="0" y="0" width="1428" height="1605" style="fill:rgb(100%,100%,100%);fill-opacity:1;stroke:none;"/>
<path style="fill:none;stroke-width:0.75;stroke-linecap:round;stroke-linejoin:round;stroke:rgb(0%,0%,0%);stroke-opacity:1;stroke-miterlimit:10;" d="M 748.15625 185.480469 L 744.980469 186.5625 L 738.820312 187.90625 L 730.425781 189.667969 L 720.539062 191.992188 L 709.910156 195.03125 L 699.246094 198.855469 L 689.117188 203.242188 L 680.042969 207.886719 L 672.558594 212.496094 L 667.1875 216.761719 L 664.214844 220.472656 L 662.9375 223.730469 L 662.410156 226.730469 L 661.679688 229.652344 L 659.800781 232.695312 L 656.121094 236.128906 L 651.171875 240.59375 L 645.78125 246.804688 L 640.777344 255.492188 L 636.984375 267.375 L 634.976562 282.828125 L 634.292969 300.808594 L 634.222656 319.925781 L 634.054688 338.796875 L 633.070312 356.03125 L 630.734375 370.441406 L 627.214844 381.667969 L 622.847656 389.566406 L 617.972656 393.980469 L 612.933594 394.757812 L 608.042969 391.941406 L 603.535156 386.339844 L 599.613281 378.96875 L 596.476562 370.824219 L 594.339844 362.917969 L 593.3125 356.039062 L 593.144531 350.09375 L 593.496094 344.777344 L 594.027344 339.785156 L 594.394531 334.8125 L 594.269531 329.601562 L 593.332031 324.128906 L 591.28125 318.414062 L 587.804688 312.484375 L 582.601562 306.367188 L 575.433594 300.152344 L 566.363281 294.226562 L 555.515625 289.03125 L 543.023438 285.015625 L 529.019531 282.632812 L 513.820312 282.1875 L 498.519531 283.394531 L 484.398438 285.832031 L 472.730469 289.070312 L 464.804688 292.691406 L 461.433594 296.339844 L 461.589844 299.976562 L 463.773438 303.640625 L 466.496094 307.363281 L 468.261719 311.1875 L 467.945312 315.128906 L 465.902344 319.136719 L 462.859375 323.160156 L 459.539062 327.125 L 456.671875 330.976562 L 454.808594 334.710938 L 453.835938 338.59375 L 453.464844 342.949219 L 453.410156 348.101562 L 453.386719 354.371094 L 453.179688 361.945312 L 452.867188 370.40625 L 452.609375 379.199219 L 452.558594 387.769531 L 452.867188 395.554688 L 453.660156 402.136719 L 454.945312 407.617188 L 456.695312 412.246094 L 458.886719 416.253906 L 461.496094 419.886719 L 464.5625 423.320312 L 468.386719 426.480469 L 473.320312 429.234375 L 479.734375 431.441406 L 487.988281 432.96875 L 498.164062 433.773438 L 509.226562 434.230469 L 519.863281 434.800781 L 528.765625 435.960938 L 534.617188 438.175781 L 536.503906 441.753906 L 535.089844 446.378906 L 531.441406 451.578125 L 526.621094 456.867188 L 521.691406 461.777344 L 517.515625 465.976562 L 514.148438 469.734375 L 511.453125 473.46875 L 509.285156 477.59375 L 507.5 482.527344 L 505.957031 488.492188 L 504.523438 494.929688 L 503.0625 501.09375 L 501.4375 506.226562 L 499.519531 509.582031 L 497.152344 510.597656 L 494.140625 509.464844 L 490.261719 506.570312 L 485.304688 502.289062 L 479.054688 497.007812 L 471.289062 491.105469 L 461.976562 484.949219 L 451.789062 478.808594 L 441.566406 472.929688 L 432.164062 467.574219 L 424.429688 462.984375 L 418.855469 459.3125 L 414.5 456.304688 L 410.074219 453.601562 L 404.277344 450.835938 L 395.820312 447.660156 L 383.765625 443.863281 L 368.609375 439.894531 L 351.195312 436.351562 L 332.378906 433.828125 L 313.007812 432.933594 L 293.898438 434.078125 L 275.703125 436.960938 L 259.027344 441.097656 L 244.492188 446.007812 L 232.707031 451.203125 L 224.03125 456.28125 L 217.792969 461.136719 L 213.070312 465.757812 L 208.941406 470.117188 L 204.476562 474.195312 L 198.996094 478.007812 L 192.789062 481.699219 L 186.378906 485.453125 L 180.292969 489.449219 L 175.0625 493.875 L 171.054688 498.835938 L 168.011719 504.167969 L 165.519531 509.632812 L 163.160156 515 L 160.519531 520.035156 L 157.304688 524.566406 L 153.703125 528.730469 L 150.039062 532.734375 L 146.628906 536.773438 L 143.785156 541.0625 L 141.710938 545.753906 L 140.144531 550.820312 L 138.71875 556.191406 L 137.050781 561.789062 L 134.773438 567.546875 L 131.636719 573.390625 L 127.886719 579.253906 L 123.910156 585.078125 L 120.078125 590.800781 L 116.773438 596.363281 L 114.261719 601.71875 L 112.371094 606.921875 L 110.828125 612.042969 L 109.34375 617.15625 L 107.640625 622.332031 L 105.511719 627.625 L 103.03125 633.035156 L 100.351562 638.53125 L 97.625 644.09375 L 94.996094 649.699219 L 92.589844 655.316406 L 90.40625 660.894531 L 88.417969 666.375 L 86.605469 671.691406 L 84.9375 676.785156 L 83.386719 681.597656 L 81.902344 686.058594 L 80.425781 690.09375 L 78.910156 693.636719 L 77.296875 696.605469 L 75.546875 699.023438 L 73.691406 701.25 L 71.769531 703.726562 L 69.824219 706.898438 L 67.90625 711.21875 L 66.046875 716.980469 L 64.269531 723.867188 L 62.589844 731.410156 L 61.023438 739.152344 L 59.585938 746.625 L 58.285156 753.457031 L 57.066406 759.652344 L 55.867188 765.3125 L 54.632812 770.539062 L 53.300781 775.433594 L 51.828125 780.105469 L 50.277344 784.726562 L 48.722656 789.476562 L 47.246094 794.535156 L 45.925781 800.082031 L 44.820312 806.257812 L 43.90625 813.003906 L 43.136719 820.226562 L 42.46875 827.828125 L 41.855469 835.714844 L 41.257812 843.800781 L 40.648438 852.0625 L 40.019531 860.5 L 39.34375 869.101562 L 38.613281 877.867188 L 37.820312 886.785156 L 37.039062 895.84375 L 36.351562 905.027344 L 35.84375 914.328125 L 35.605469 923.726562 L 35.714844 933.210938 L 36.234375 942.695312 L 37.09375 951.785156 L 38.207031 960.011719 L 39.472656 966.914062 L 40.800781 972.023438 L 42.128906 975.128906 L 43.5 977.023438 L 44.996094 978.761719 L 46.695312 981.394531 L 48.671875 985.976562 L 50.964844 993.195312 L 53.433594 1002.316406 L 55.898438 1012.238281 L 58.1875 1021.863281 L 60.113281 1030.09375 L 61.570312 1036.136719 L 62.738281 1040.4375 L 63.871094 1043.746094 L 65.210938 1046.8125 L 67.019531 1050.390625 L 69.441406 1055.015625 L 72.234375 1060.382812 L 75.0625 1065.96875 L 77.585938 1071.25 L 79.464844 1075.710938 L 80.492188 1079.003906 L 81.03125 1081.488281 L 81.5625 1083.703125 L 82.585938 1086.1875 L 84.589844 1089.472656 L 87.914062 1093.929688 L 92.300781 1099.25 L 97.332031 1104.945312 L 102.59375 1110.542969 L 107.671875 1115.558594 L 112.226562 1119.632812 L 116.222656 1122.90625 L 119.695312 1125.625 L 122.679688 1128.058594 L 125.210938 1130.453125 L 127.347656 1133.035156 L 129.242188 1135.863281 L 131.054688 1138.972656 L 132.953125 1142.382812 L 135.109375 1146.125 L 137.632812 1150.203125 L 140.433594 1154.554688 L 143.359375 1159.09375 L 146.265625 1163.730469 L 148.996094 1168.378906 L 151.484375 1172.976562 L 153.917969 1177.515625 L 156.570312 1182.011719 L 159.710938 1186.472656 L 163.609375 1190.921875 L 168.378906 1195.34375 L 173.542969 1199.65625 L 178.472656 1203.738281 L 182.539062 1207.488281 L 185.117188 1210.785156 L 185.8125 1213.582031 L 185.214844 1216.027344 L 184.148438 1218.339844 L 183.445312 1220.722656 L 183.925781 1223.386719 L 186.183594 1226.492188 L 189.886719 1229.976562 L 194.460938 1233.730469 L 199.332031 1237.632812 L 203.929688 1241.570312 L 207.804688 1245.464844 L 211.007812 1249.363281 L 213.699219 1253.34375 L 216.050781 1257.496094 L 218.230469 1261.890625 L 220.410156 1266.585938 L 222.78125 1271.492188 L 225.542969 1276.492188 L 228.886719 1281.472656 L 233.007812 1286.308594 L 237.996094 1290.917969 L 243.519531 1295.308594 L 249.125 1299.53125 L 254.371094 1303.625 L 258.816406 1307.632812 L 262.171875 1311.585938 L 264.8125 1315.460938 L 267.265625 1319.21875 L 270.066406 1322.816406 L 273.742188 1326.21875 L 278.605469 1329.417969 L 284.09375 1332.5 L 289.421875 1335.582031 L 293.8125 1338.785156 L 296.472656 1342.226562 L 297.070312 1345.976562 L 297.03125 1349.929688 L 298.230469 1353.933594 L 302.542969 1357.84375 L 311.832031 1361.507812 L 327.304688 1364.796875 L 347.4375 1367.671875 L 370.042969 1370.117188 L 392.925781 1372.117188 L 413.894531 1373.652344 L 430.753906 1374.714844 L 441.976562 1375.257812 L 448.652344 1375.171875 L 452.535156 1374.320312 L 455.382812 1372.570312 L 458.941406 1369.78125 L 464.78125 1365.941406 L 473.707031 1361.53125 L 486.34375 1357.152344 L 503.308594 1353.398438 L 525.21875 1350.871094 L 552.113281 1349.992188 L 581.644531 1350.480469 L 610.894531 1351.871094 L 636.933594 1353.707031 L 656.835938 1355.519531 L 668.589844 1356.941406 L 673.855469 1357.933594 L 675.199219 1358.554688 L 675.199219 1358.855469 L 676.425781 1358.890625 L 680.851562 1358.703125 L 688.046875 1358.265625 L 696.984375 1357.546875 L 706.640625 1356.503906 L 715.976562 1355.097656 L 724.203125 1353.3125 L 731.457031 1351.171875 L 738.105469 1348.726562 L 744.523438 1346.015625 L 751.074219 1343.089844 L 758.035156 1339.984375 L 765.304688 1336.71875 L 772.683594 1333.308594 L 779.96875 1329.765625 L 786.960938 1326.105469 L 793.507812 1322.351562 L 799.636719 1318.566406 L 805.414062 1314.824219 L 810.90625 1311.195312 L 816.191406 1307.753906 L 821.335938 1304.535156 L 826.425781 1301.441406 L 831.550781 1298.335938 L 836.800781 1295.082031 L 842.265625 1291.535156 L 847.972656 1287.628906 L 853.703125 1283.507812 L 859.179688 1279.394531 L 864.125 1275.496094 L 868.253906 1272.03125 L 871.429688 1269.113281 L 874.042969 1266.492188 L 876.628906 1263.808594 L 879.714844 1260.707031 L 883.832031 1256.839844 L 889.335938 1251.964844 L 895.855469 1246.304688 L 902.839844 1240.203125 L 909.738281 1234.003906 L 916.007812 1228.046875 L 921.222656 1222.601562 L 925.457031 1217.703125 L 928.917969 1213.304688 L 931.796875 1209.367188 L 934.308594 1205.855469 L 936.640625 1202.699219 L 939 1199.742188 L 941.566406 1196.792969 L 944.546875 1193.667969 L 948.121094 1190.179688 L 952.402344 1186.199219 L 957.125 1181.8125 L 961.941406 1177.167969 L 966.496094 1172.410156 L 970.4375 1167.683594 L 973.539062 1163.09375 L 976.042969 1158.59375 L 978.304688 1154.101562 L 980.691406 1149.535156 L 983.5625 1144.8125 L 987.148438 1139.859375 L 991.148438 1134.679688 L 995.128906 1129.292969 L 998.664062 1123.707031 L 1001.320312 1117.941406 L 1002.8125 1112.035156 L 1003.40625 1106.089844 L 1003.523438 1100.238281 L 1003.578125 1094.609375 L 1003.980469 1089.335938 L 1005.042969 1084.5 L 1006.609375 1080.019531 L 1008.417969 1075.769531 L 1010.21875 1071.621094 L 1011.738281 1067.445312 L 1012.8125 1063.136719 L 1013.605469 1058.625 L 1014.371094 1053.855469 L 1015.371094 1048.785156 L 1016.859375 1043.359375 L 1019 1037.535156 L 1021.597656 1031.339844 L 1024.378906 1024.792969 L 1027.054688 1017.929688 L 1029.347656 1010.78125 L 1030.972656 1003.382812 L 1031.75 995.777344 L 1031.910156 988.117188 L 1031.785156 980.570312 L 1031.703125 973.304688 L 1031.996094 966.484375 L 1032.898438 960.246094 L 1034.265625 954.589844 L 1035.859375 949.480469 L 1037.433594 944.882812 L 1038.753906 940.765625 L 1039.648438 937.019531 L 1040.226562 933.261719 L 1040.679688 929.046875 L 1041.179688 923.917969 L 1041.921875 917.425781 L 1043.027344 909.144531 L 1044.417969 898.738281 L 1045.964844 885.90625 L 1047.53125 870.335938 L 1048.988281 851.726562 L 1050.210938 830.132812 L 1051.117188 807.101562 L 1051.628906 784.535156 L 1051.675781 764.335938 L 1051.183594 748.417969 L 1050.121094 738.085938 L 1048.664062 732.257812 L 1047.023438 729.25 L 1045.425781 727.378906 L 1044.078125 724.96875 L 1043.175781 720.800781 L 1042.8125 715.542969 L 1043.054688 710.324219 L 1043.964844 706.28125 L 1045.613281 704.542969 L 1048.078125 705.875 L 1051.527344 709.589844 L 1056.132812 714.617188 L 1062.074219 719.898438 L 1069.53125 724.378906 L 1078.535156 727.199219 L 1088.539062 728.34375 L 1098.851562 728.011719 L 1108.777344 726.394531 L 1117.625 723.683594 L 1124.855469 720.089844 L 1130.546875 715.855469 L 1134.933594 711.25 L 1138.246094 706.53125 L 1140.714844 701.96875 L 1142.578125 697.785156 L 1144.078125 694.105469 L 1145.457031 691.011719 L 1146.960938 688.59375 L 1148.835938 686.9375 L 1151.246094 686.035156 L 1154.070312 685.476562 L 1157.105469 684.753906 L 1160.160156 683.371094 L 1163.03125 680.816406 L 1165.546875 676.753906 L 1167.667969 671.519531 L 1169.371094 665.613281 L 1170.652344 659.535156 L 1171.492188 653.785156 L 1171.898438 648.738281 L 1171.984375 644.230469 L 1171.890625 639.972656 L 1171.75 635.675781 L 1171.703125 631.046875 L 1171.824219 625.878906 L 1171.945312 620.289062 L 1171.832031 614.472656 L 1171.257812 608.625 L 1169.992188 602.941406 L 1167.902344 597.542969 L 1165.273438 592.253906 L 1162.496094 586.824219 L 1159.953125 580.996094 L 1158.03125 574.519531 L 1156.980469 567.265625 L 1156.511719 559.617188 L 1156.195312 552.078125 L 1155.601562 545.144531 L 1154.304688 539.328125 L 1152.027344 534.949219 L 1149.070312 531.613281 L 1145.878906 528.75 L 1142.910156 525.785156 L 1140.609375 522.136719 L 1139.28125 517.402344 L 1138.640625 511.796875 L 1138.257812 505.710938 L 1137.703125 499.527344 L 1136.546875 493.625 L 1134.464844 488.304688 L 1131.589844 483.472656 L 1128.15625 478.957031 L 1124.40625 474.582031 L 1120.574219 470.164062 L 1116.851562 465.578125 L 1113.207031 460.902344 L 1109.570312 456.265625 L 1105.855469 451.800781 L 1101.992188 447.632812 L 1097.902344 443.890625 L 1093.585938 440.664062 L 1089.359375 437.890625 L 1085.621094 435.460938 L 1082.765625 433.269531 L 1081.191406 431.210938 L 1081.0625 429.175781 L 1081.640625 427 L 1081.941406 424.527344 L 1080.996094 421.582031 L 1077.828125 418.003906 L 1071.804688 413.6875 L 1063.640625 408.761719 L 1054.402344 403.417969 L 1045.152344 397.847656 L 1036.945312 392.242188 L 1030.566406 386.777344 L 1025.6875 381.613281 L 1021.695312 376.886719 L 1017.984375 372.746094 L 1013.945312 369.328125 L 1009.113281 366.734375 L 1003.636719 364.878906 L 997.808594 363.644531 L 991.917969 362.894531 L 986.257812 362.511719 L 981.066406 362.394531 L 976.335938 362.597656 L 972.007812 363.199219 L 968.019531 364.277344 L 964.300781 365.917969 L 960.824219 368.210938 L 957.644531 371.292969 L 954.847656 375.320312 L 952.515625 380.445312 L 950.734375 386.8125 L 949.558594 394.460938 L 948.953125 402.921875 L 948.859375 411.617188 L 949.207031 419.957031 L 949.941406 427.363281 L 950.921875 433.378906 L 951.722656 438.09375 L 951.847656 441.714844 L 950.796875 444.46875 L 948.070312 446.558594 L 943.375 448.09375 L 937.242188 448.699219 L 930.398438 447.890625 L 923.585938 445.1875 L 917.53125 440.097656 L 912.800781 432.40625 L 909.28125 422.964844 L 906.695312 412.878906 L 904.75 403.273438 L 903.171875 395.257812 L 901.714844 389.617188 L 900.289062 385.789062 L 898.84375 382.890625 L 897.335938 380.019531 L 895.710938 376.296875 L 893.933594 371.050781 L 892.011719 364.523438 L 889.960938 357.183594 L 887.800781 349.5 L 885.554688 341.933594 L 883.238281 334.882812 L 880.890625 328.417969 L 878.546875 322.539062 L 876.25 317.238281 L 874.035156 312.515625 L 871.929688 308.332031 L 869.910156 304.488281 L 867.945312 300.757812 L 866.003906 296.90625 L 864.050781 292.703125 L 862.046875 287.976562 L 859.933594 282.785156 L 857.652344 277.253906 L 855.132812 271.496094 L 852.320312 265.632812 L 849.15625 259.78125 L 845.65625 254.015625 L 841.835938 248.40625 L 837.71875 243.023438 L 833.320312 237.9375 L 828.675781 233.1875 L 823.886719 228.6875 L 819.058594 224.335938 L 814.296875 220.015625 L 809.722656 215.613281 L 805.382812 211.09375 L 801.125 206.703125 L 796.734375 202.765625 L 792 199.597656 L 786.714844 197.527344 L 780.824219 196.730469 L 774.921875 196.816406 L 769.757812 197.257812 L 766.082031 197.523438 L 764.65625 197.085938 L 765.800781 195.570312 L 768.164062 193.246094 L 769.980469 190.546875 L 769.464844 187.890625 L 764.847656 185.707031 L 754.359375 184.425781 L 748.15625 185.480469 "/>
<path style="fill:none;stroke-width:0.75;stroke-linecap:round;stroke-linejoin:round;stroke:rgb(0%,0%,0%);stroke-opacity:1;stroke-miterlimit:10;" d="M 292.597656 430.804688 L 284.625 435.03125 L 275.277344 439.179688 L 261.457031 443.242188 L 245.71875 447.289062 L 232.027344 451.40625 L 223.304688 455.667969 L 218.277344 460.074219 L 214.632812 464.617188 L 210.441406 469.25 L 205.265625 473.839844 L 199.050781 478.222656 L 191.925781 482.304688 L 184.800781 486.234375 L 178.773438 490.242188 L 174.609375 494.503906 L 171.769531 499.066406 L 169.367188 503.933594 L 166.683594 509.070312 L 163.636719 514.300781 L 160.296875 519.390625 L 156.746094 524.175781 L 153.136719 528.667969 L 149.632812 532.9375 L 146.402344 537.085938 L 143.660156 541.335938 L 141.625 545.957031 L 140.355469 551.113281 L 139.269531 556.636719 L 137.625 562.25 L 134.882812 567.757812 L 131.339844 573.207031 L 127.503906 578.710938 L 123.800781 584.355469 L 120.355469 590.121094 L 117.21875 595.964844 L 114.4375 601.816406 L 112.042969 607.519531 L 110.0625 612.890625 L 108.476562 617.828125 L 107.101562 622.539062 L 105.699219 627.300781 L 104.03125 632.363281 L 101.871094 637.785156 L 98.972656 643.59375 L 95.289062 649.753906 L 91.507812 655.980469 L 88.515625 661.929688 L 86.910156 667.332031 L 86.203125 672.214844 L 85.640625 676.679688 L 84.597656 680.824219 L 83.03125 684.742188 L 81.046875 688.527344 L 78.78125 692.234375 L 76.527344 695.8125 L 74.621094 699.164062 L 73.25 702.273438 L 72.054688 705.375 L 70.53125 708.769531 L 68.355469 712.753906 L 65.914062 717.582031 L 63.769531 723.496094 L 62.304688 730.570312 L 61.148438 738.242188 L 59.851562 745.847656 L 58.4375 753.0625 L 57.035156 759.640625 L 55.738281 765.410156 L 54.484375 770.519531 L 53.167969 775.199219 L 51.722656 779.683594 L 50.261719 784.238281 L 48.917969 789.132812 L 47.777344 794.582031 L 46.632812 800.5625 L 45.21875 807 L 43.425781 813.8125 L 41.777344 820.898438 L 40.953125 828.152344 L 41.347656 835.527344 L 42.199219 843.1875 L 42.46875 851.359375 L 41.417969 860.15625 L 39.578125 869.308594 L 37.800781 878.425781 L 36.742188 887.253906 L 36.289062 896 L 36.152344 904.988281 L 36.089844 914.441406 L 36.070312 924.144531 L 36.125 933.773438 L 36.304688 943.003906 L 36.792969 951.472656 L 37.804688 958.820312 L 39.417969 964.789062 L 41.25 969.566406 L 42.773438 973.449219 L 43.675781 976.785156 L 44.445312 980.160156 L 45.769531 984.214844 L 48.117188 989.457031 L 51.101562 995.867188 L 54.113281 1003.296875 L 56.652344 1011.496094 L 58.65625 1019.808594 L 60.167969 1027.472656 L 61.28125 1033.910156 L 62.257812 1039.269531 L 63.414062 1043.878906 L 64.996094 1048.054688 L 67.054688 1052.109375 L 69.5625 1056.332031 L 72.441406 1060.925781 L 75.296875 1065.652344 L 77.675781 1070.179688 L 79.257812 1074.246094 L 80.285156 1077.871094 L 81.144531 1081.167969 L 82.167969 1084.265625 L 83.46875 1087.433594 L 85.097656 1090.964844 L 87.226562 1095.085938 L 90.457031 1099.710938 L 95.5 1104.675781 L 102.488281 1109.773438 L 109.207031 1114.574219 L 113.585938 1118.714844 L 116.414062 1122.246094 L 119.1875 1125.316406 L 122.917969 1128.089844 L 126.632812 1130.71875 L 128.851562 1133.371094 L 128.757812 1136.191406 L 128.125 1139.257812 L 129.375 1142.640625 L 134.039062 1146.378906 L 140.128906 1150.421875 L 144.75 1154.699219 L 145.933594 1159.136719 L 145.335938 1163.675781 L 145.53125 1168.25 L 148.421875 1172.820312 L 153.214844 1177.382812 L 158.46875 1181.960938 L 162.972656 1186.554688 L 166.527344 1191.085938 L 169.175781 1195.472656 L 171.167969 1199.628906 L 173.53125 1203.503906 L 177.488281 1207.054688 L 183.570312 1210.261719 L 189.472656 1213.175781 L 192.199219 1215.875 L 189.851562 1218.457031 L 184.957031 1221.058594 L 181.148438 1223.839844 L 181.28125 1226.925781 L 185.0625 1230.285156 L 191.421875 1233.839844 L 199.164062 1237.539062 L 206.625 1241.339844 L 212.011719 1245.230469 L 214.160156 1249.195312 L 214.363281 1253.296875 L 214.539062 1257.613281 L 216.175781 1262.183594 L 219.023438 1266.933594 L 222.410156 1271.738281 L 225.820312 1276.515625 L 229.414062 1281.25 L 233.511719 1285.964844 L 238.308594 1290.652344 L 243.527344 1295.230469 L 248.765625 1299.605469 L 253.667969 1303.710938 L 258.078125 1307.636719 L 261.878906 1311.511719 L 265.089844 1315.414062 L 268.214844 1319.238281 L 271.890625 1322.828125 L 276.417969 1326.089844 L 280.78125 1329.171875 L 283.648438 1332.289062 L 284.40625 1335.605469 L 285.421875 1339.109375 L 289.785156 1342.746094 L 298.910156 1346.46875 L 307.425781 1350.230469 L 310.230469 1354 L 310.097656 1357.695312 L 311.757812 1361.25 L 319.3125 1364.574219 L 334.320312 1367.589844 L 357.699219 1370.199219 L 388.734375 1372.320312 L 420.164062 1373.867188 L 443.089844 1374.753906 L 451.457031 1374.929688 L 450.597656 1374.421875 L 448.691406 1373.289062 L 452.058594 1371.585938 L 459.628906 1369.378906 L 468.472656 1366.730469 L 476.425781 1363.714844 L 484.394531 1360.460938 L 494.050781 1357.117188 L 506.257812 1353.648438 L 518.636719 1349.355469 L 528.011719 1343.367188 L 532.164062 1334.941406 L 532.746094 1323.863281 L 532.367188 1310.054688 L 533.082031 1293.199219 L 534.683594 1272.0625 L 536.402344 1245.171875 L 537.671875 1211.609375 L 538.722656 1172.617188 L 539.980469 1129.992188 L 541.695312 1085.589844 L 543.347656 1041.523438 L 544.253906 999.976562 L 543.984375 962.753906 L 543.21875 930.183594 L 542.90625 902.21875 L 543.734375 878.820312 L 545.332031 859.984375 L 547.085938 845.714844 L 548.5 835.742188 L 549.675781 828.769531 L 550.839844 823.222656 L 552.167969 817.804688 L 553.609375 812.332031 L 555.042969 806.878906 L 556.386719 801.515625 L 557.671875 796.21875 L 558.960938 790.9375 L 560.304688 785.609375 L 561.679688 780.078125 L 563.050781 774.15625 L 564.394531 767.675781 L 565.71875 760.507812 L 567.042969 752.539062 L 568.375 743.730469 L 569.71875 734.378906 L 571.082031 724.855469 L 572.449219 715.558594 L 573.804688 706.996094 L 575.117188 699.703125 L 576.382812 694.019531 L 577.699219 689.460938 L 579.148438 685.441406 L 580.617188 681.714844 L 581.957031 678.121094 L 583.089844 674.507812 L 584.21875 670.757812 L 585.625 666.761719 L 587.429688 662.371094 L 589.121094 657.332031 L 590.03125 651.351562 L 589.699219 644.28125 L 588.527344 636.566406 L 587.132812 628.804688 L 585.964844 621.476562 L 584.851562 614.667969 L 583.457031 608.355469 L 581.605469 602.492188 L 579.753906 596.96875 L 578.519531 591.644531 L 578.210938 586.441406 L 577.886719 581.496094 L 576.292969 576.992188 L 572.6875 572.992188 L 568.304688 569.050781 L 564.890625 564.597656 L 563.472656 559.203125 L 562.25 552.988281 L 558.707031 546.214844 L 551.222656 539.195312 L 541.746094 532.390625 L 533.121094 526.3125 L 527.433594 521.347656 L 523.757812 517.402344 L 520.414062 514.265625 L 516.179688 511.777344 L 511.65625 509.988281 L 507.90625 508.996094 L 505.609375 508.8125 L 503.890625 509.132812 L 501.492188 509.550781 L 497.546875 509.636719 L 492.746094 508.835938 L 488.171875 506.542969 L 484.417969 502.382812 L 480.140625 496.832031 L 473.515625 490.582031 L 463.40625 484.261719 L 451.464844 478.234375 L 440.039062 472.804688 L 430.984375 468.179688 L 424.226562 464.21875 L 419.210938 460.695312 L 415.152344 457.386719 L 410.386719 454.132812 L 403.03125 450.773438 L 392.101562 447.203125 L 380.210938 443.460938 L 370.863281 439.632812 L 364.039062 435.796875 L 345.601562 431.980469 L 297.871094 428.210938 L 292.597656 430.804688 "/>
<path style="fill:none;stroke-width:0.75;stroke-linecap:round;stroke-linejoin:round;stroke:rgb(0%,0%,0%);stroke-opacity:1;stroke-miterlimit:10;" d="M 480.394531 279.65625 L 475.503906 283.753906 L 474.441406 287.097656 L 473.28125 289.878906 L 471.703125 292.667969 L 470.414062 295.957031 L 469.097656 299.785156 L 467.714844 303.898438 L 466.382812 308.050781 L 465.15625 312.171875 L 463.777344 315.996094 L 462.191406 319.222656 L 461.078125 321.839844 L 459.808594 324.324219 L 458.335938 328.066406 L 456.921875 334.242188 L 455.753906 341.9375 L 454.34375 348.386719 L 452.625 351.660156 L 452.222656 354.144531 L 452.953125 357.664062 L 453.441406 364.136719 L 451.546875 375.902344 L 450.71875 389.3125 L 453.402344 399.648438 L 454.398438 405.335938 L 455.296875 408.746094 L 457.410156 411.710938 L 460.648438 415.175781 L 462.75 418.390625 L 463.527344 421.730469 L 464.9375 425.769531 L 472.320312 430.140625 L 482.980469 433.882812 L 489.582031 435.800781 L 487.660156 434.707031 L 505.21875 431.894531 L 529.285156 430.628906 L 538.992188 433.488281 L 535.996094 438.917969 L 531.777344 444.507812 L 532.34375 448.515625 L 526.46875 451.378906 L 532.644531 452.953125 L 561.695312 452.972656 L 573.335938 451.90625 L 574.441406 450.390625 L 580.859375 448.972656 L 584.832031 447.746094 L 587.921875 446.386719 L 591.082031 444.308594 L 594.292969 440.917969 L 598.1875 436.113281 L 602.128906 430.546875 L 604.992188 424.804688 L 605.964844 418.695312 L 607.101562 412.863281 L 609.339844 408.195312 L 608.644531 405.011719 L 607.722656 402.335938 L 605.835938 399.671875 L 601.453125 396.769531 L 596.0625 393.039062 L 592.941406 386.3125 L 593.863281 376.253906 L 595.007812 369.066406 L 596.503906 363.867188 L 598.636719 357.832031 L 598.078125 350.269531 L 596.425781 343.269531 L 595.53125 338.617188 L 593.613281 334.84375 L 592.699219 330.878906 L 591.605469 325.636719 L 588.308594 318.542969 L 582.726562 311.1875 L 577.382812 304.804688 L 573.523438 300.027344 L 567.589844 295.980469 L 564.125 291.285156 L 566.117188 285.449219 L 554.449219 280.90625 L 482.199219 277.863281 L 480.394531 279.65625 "/>
<path style="fill:none;stroke-width:0.75;stroke-linecap:round;stroke-linejoin:round;stroke:rgb(0%,0%,0%);stroke-opacity:1;stroke-miterlimit:10;" d="M 510.011719 488.207031 L 504.644531 495.046875 L 504.710938 502.027344 L 512.636719 507.679688 L 515.421875 510.703125 L 518.046875 512.503906 L 520.800781 514.285156 L 526.042969 516.625 L 528.945312 518.433594 L 531.320312 519.597656 L 534.320312 520.839844 L 536.71875 523.234375 L 539.757812 528.644531 L 558.101562 537.1875 L 558.511719 543.714844 L 560.742188 548.257812 L 561.777344 553.710938 L 572.808594 561.222656 L 576.507812 567.714844 L 575.601562 573.246094 L 577.757812 578.777344 L 579.609375 584.648438 L 579.890625 591.035156 L 582.410156 596.1875 L 582.613281 600.289062 L 584.816406 604.058594 L 585.972656 609.246094 L 586.78125 618.609375 L 588.652344 628.996094 L 592.917969 635.433594 L 598.617188 634.003906 L 598.628906 627.363281 L 601.222656 617.828125 L 601.339844 606.464844 L 603.84375 598.34375 L 604.277344 593.253906 L 605.925781 589.457031 L 607.59375 585.542969 L 608.609375 580.992188 L 609.644531 575.882812 L 611.894531 571.265625 L 612.078125 566.871094 L 614.625 562.289062 L 614.816406 556.957031 L 617.035156 551.441406 L 618.148438 545.410156 L 621.753906 539.859375 L 623.449219 535.171875 L 619.773438 530.996094 L 620.179688 525.394531 L 625.347656 516.894531 L 625.46875 506.28125 L 628.179688 498.09375 L 627.734375 492.726562 L 626.519531 490.085938 L 621.429688 488.78125 L 510.554688 488.085938 L 510.011719 488.207031 "/>
<path style="fill:none;stroke-width:0.75;stroke-linecap:round;stroke-linejoin:round;stroke:rgb(0%,0%,0%);stroke-opacity:1;stroke-miterlimit:10;" d="M 858.085938 532.808594 L 857.707031 538.402344 L 857.679688 544.273438 L 857.308594 550.183594 L 855.890625 555.875 L 853.058594 561.140625 L 849.710938 565.921875 L 847.074219 570.199219 L 846.378906 573.960938 L 848.433594 577.214844 L 852.394531 580.136719 L 857.011719 582.917969 L 861.03125 585.769531 L 863.195312 588.886719 L 862.636719 592.40625 L 860.027344 596.203125 L 856.433594 600.078125 L 852.917969 603.835938 L 850.304688 607.316406 L 848.511719 610.511719 L 847.222656 613.4375 L 846.125 616.121094 L 844.898438 618.585938 L 843.332031 620.933594 L 841.605469 623.605469 L 840.003906 627.125 L 838.8125 632.011719 L 838.269531 638.617188 L 838.425781 646.570312 L 839.289062 655.324219 L 840.859375 664.332031 L 843.082031 673.164062 L 845.628906 681.867188 L 848.105469 690.59375 L 850.117188 699.507812 L 851.269531 708.761719 L 851.351562 718.503906 L 850.902344 728.804688 L 850.625 739.726562 L 851.242188 751.328125 L 853.195312 763.578125 L 855.886719 776.117188 L 858.429688 788.496094 L 859.957031 800.261719 L 859.597656 810.964844 L 856.800781 820.242188 L 852.363281 828.0625 L 847.398438 834.476562 L 843.03125 839.535156 L 840.140625 843.378906 L 838.648438 846.511719 L 838.238281 849.523438 L 838.59375 853.011719 L 839.394531 857.5625 L 840.296875 863.527344 L 840.824219 870.253906 L 840.476562 876.847656 L 838.746094 882.417969 L 835.371094 886.21875 L 831.023438 888.148438 L 826.609375 888.25 L 823.039062 886.5625 L 820.996094 883.191406 L 820.289062 878.414062 L 820.488281 872.570312 L 821.175781 865.992188 L 821.933594 859.015625 L 822.378906 852.023438 L 822.332031 845.589844 L 821.652344 840.332031 L 820.191406 836.871094 L 817.867188 835.648438 L 814.800781 836.421875 L 811.167969 838.757812 L 807.140625 842.238281 L 802.898438 846.441406 L 798.679688 850.984375 L 794.992188 855.683594 L 792.402344 860.390625 L 791.476562 864.972656 L 792.597656 869.355469 L 795.339844 873.753906 L 799.097656 878.460938 L 803.261719 883.761719 L 807.21875 889.949219 L 810.417969 897.210938 L 812.582031 905.351562 L 813.484375 914.074219 L 812.914062 923.082031 L 810.839844 932.125 L 808.027344 941.148438 L 805.421875 950.140625 L 803.980469 959.09375 L 804.410156 967.980469 L 806.414062 976.703125 L 809.453125 985.140625 L 812.988281 993.183594 L 816.476562 1000.714844 L 819.507812 1007.558594 L 822.175781 1013.28125 L 824.710938 1017.398438 L 827.347656 1019.421875 L 830.246094 1019.097656 L 833.367188 1017.105469 L 836.601562 1014.367188 L 839.84375 1011.800781 L 842.988281 1010.324219 L 845.96875 1010.621094 L 848.871094 1012.457031 L 851.824219 1015.367188 L 854.949219 1018.878906 L 858.257812 1022.601562 L 861.300781 1026.460938 L 863.519531 1030.445312 L 864.347656 1034.558594 L 863.230469 1038.789062 L 859.890625 1043.140625 L 855.203125 1047.589844 L 850.332031 1052.109375 L 846.445312 1056.6875 L 844.34375 1061.277344 L 843.394531 1065.789062 L 842.597656 1070.109375 L 840.960938 1074.128906 L 837.734375 1077.65625 L 833.132812 1080.148438 L 827.621094 1080.992188 L 821.664062 1079.566406 L 815.722656 1075.246094 L 810.25 1067.773438 L 805.675781 1058.273438 L 802.414062 1048.242188 L 800.878906 1039.164062 L 801.261719 1032.179688 L 802.828125 1027.035156 L 804.613281 1023.140625 L 805.660156 1019.894531 L 805 1016.695312 L 802.039062 1013.058594 L 797.640625 1008.921875 L 793.035156 1004.328125 L 789.449219 999.328125 L 787.769531 993.972656 L 787.511719 988.371094 L 787.847656 982.632812 L 787.945312 976.871094 L 787.160156 971.210938 L 785.558594 965.816406 L 783.398438 960.851562 L 780.933594 956.496094 L 778.414062 952.910156 L 775.933594 950.234375 L 772.945312 948.457031 L 768.738281 947.53125 L 762.605469 947.414062 L 754.15625 947.96875 L 744.304688 948.726562 L 734.269531 949.128906 L 725.285156 948.617188 L 718.578125 946.636719 L 714.945312 942.828125 L 713.484375 937.640625 L 712.859375 931.730469 L 711.734375 925.75 L 709.117188 920.183594 L 705.386719 914.894531 L 701.257812 909.570312 L 697.453125 903.910156 L 694.6875 897.605469 L 693.449219 890.484375 L 693.289062 882.910156 L 693.542969 875.378906 L 693.523438 868.375 L 692.722656 862.265625 L 691.25 856.878906 L 689.375 851.902344 L 687.367188 847.027344 L 685.515625 841.988281 L 684.164062 836.644531 L 683.671875 830.90625 L 684.402344 824.664062 L 686.71875 817.832031 L 690.742188 810.390625 L 695.667969 802.691406 L 700.457031 795.171875 L 704.074219 788.265625 L 705.726562 782.308594 L 705.65625 777.238281 L 704.363281 772.894531 L 702.34375 769.109375 L 700.085938 765.71875 L 697.992188 762.585938 L 696.046875 759.644531 L 694.144531 756.847656 L 692.171875 754.148438 L 690.085938 751.5 L 688.109375 748.824219 L 686.527344 746.039062 L 685.628906 743.054688 L 685.703125 739.792969 L 686.894531 736.1875 L 688.789062 732.246094 L 690.824219 727.996094 L 692.441406 723.460938 L 693.191406 718.648438 L 693.03125 713.476562 L 692.042969 707.839844 L 690.296875 701.636719 L 687.988281 694.839844 L 685.789062 687.765625 L 684.507812 680.789062 L 684.9375 674.308594 L 687.875 668.707031 L 693.699219 664.246094 L 701.074219 660.695312 L 708.238281 657.699219 L 713.433594 654.894531 L 715.394531 651.992188 L 714.824219 648.953125 L 712.9375 645.800781 L 710.933594 642.5625 L 710.019531 639.261719 L 711.070312 635.902344 L 713.667969 632.367188 L 717.058594 628.523438 L 720.492188 624.226562 L 723.378906 619.390625 L 725.78125 614.121094 L 727.910156 608.574219 L 729.988281 602.898438 L 732.230469 597.253906 L 734.746094 591.800781 L 737.230469 586.714844 L 739.257812 582.191406 L 740.417969 578.40625 L 740.414062 575.476562 L 739.492188 573.210938 L 738.019531 571.339844 L 736.367188 569.597656 L 734.832031 567.75 L 733.4375 565.660156 L 732.132812 563.230469 L 730.878906 560.351562 L 729.617188 556.925781 L 728.246094 552.945312 L 726.425781 548.785156 L 723.757812 544.925781 L 719.835938 541.835938 L 714.453125 539.878906 L 708.132812 538.980469 L 701.589844 538.941406 L 695.535156 539.570312 L 690.679688 540.679688 L 687.503906 542.089844 L 685.554688 543.671875 L 684.140625 545.320312 L 682.574219 546.917969 L 680.316406 548.382812 L 677.441406 549.730469 L 674.179688 551.007812 L 670.753906 552.253906 L 667.394531 553.515625 L 664.269531 554.824219 L 661.304688 556.179688 L 658.375 557.558594 L 655.355469 558.953125 L 652.15625 560.34375 L 648.871094 561.679688 L 645.625 562.914062 L 642.554688 563.996094 L 639.714844 564.941406 L 636.894531 566.027344 L 633.796875 567.59375 L 630.140625 569.992188 L 625.628906 573.558594 L 620.152344 578.542969 L 614.285156 584.796875 L 608.773438 592.078125 L 604.375 600.144531 L 601.617188 608.722656 L 600.195312 617.398438 L 599.578125 625.738281 L 599.25 633.300781 L 598.683594 639.640625 L 597.488281 644.480469 L 595.816406 648.160156 L 593.953125 651.175781 L 592.191406 654.027344 L 590.742188 657.125 L 589.539062 660.554688 L 588.445312 664.304688 L 587.324219 668.367188 L 586.058594 672.703125 L 584.679688 677.148438 L 583.238281 681.496094 L 581.78125 685.542969 L 580.363281 689.09375 L 579.023438 692.105469 L 577.734375 695.195312 L 576.464844 699.15625 L 575.171875 704.773438 L 573.824219 712.566406 L 572.445312 722.042969 L 571.050781 732.441406 L 569.671875 743.007812 L 568.328125 752.988281 L 567.039062 761.785156 L 565.773438 769.464844 L 564.488281 776.246094 L 563.144531 782.363281 L 561.722656 788.023438 L 560.253906 793.402344 L 558.804688 798.675781 L 557.421875 804 L 556.171875 809.546875 L 555.066406 815.421875 L 553.992188 821.46875 L 552.796875 827.476562 L 551.332031 833.238281 L 549.515625 838.773438 L 547.59375 845.070312 L 545.886719 853.34375 L 544.710938 864.808594 L 544.273438 880.578125 L 544.332031 901.316406 L 544.523438 927.574219 L 544.496094 959.910156 L 543.890625 998.871094 L 542.488281 1044.304688 L 540.648438 1093.21875 L 538.882812 1141.910156 L 537.683594 1186.675781 L 537.363281 1224.554688 L 537.464844 1255.53125 L 537.320312 1280.332031 L 536.28125 1299.683594 L 533.691406 1314.3125 L 529.519531 1324.960938 L 526.265625 1332.476562 L 527.066406 1337.730469 L 535.050781 1341.578125 L 552.164062 1344.765625 L 575.648438 1347.503906 L 601.554688 1349.882812 L 625.933594 1351.992188 L 644.839844 1353.914062 L 655.550781 1355.699219 L 660.210938 1357.25 L 662.195312 1358.429688 L 664.871094 1359.097656 L 670.78125 1359.171875 L 679.148438 1358.796875 L 688.375 1358.167969 L 696.855469 1357.488281 L 703.40625 1356.886719 L 708.554688 1356.234375 L 713.242188 1355.34375 L 718.414062 1354.027344 L 725.015625 1352.089844 L 733.648438 1349.417969 L 743.527344 1346.199219 L 753.527344 1342.707031 L 762.53125 1339.210938 L 769.703125 1335.90625 L 775.414062 1332.742188 L 780.34375 1329.605469 L 785.148438 1326.375 L 790.507812 1322.933594 L 796.878906 1319.210938 L 803.882812 1315.324219 L 810.9375 1311.441406 L 817.453125 1307.71875 L 823.011719 1304.277344 L 827.828125 1301.035156 L 832.296875 1297.867188 L 836.792969 1294.640625 L 841.710938 1291.230469 L 847.28125 1287.558594 L 853.160156 1283.734375 L 858.851562 1279.917969 L 863.871094 1276.265625 L 867.871094 1272.886719 L 871.140625 1269.679688 L 874.113281 1266.476562 L 877.230469 1263.128906 L 880.859375 1259.492188 L 885.085938 1255.5 L 889.921875 1251.105469 L 895.378906 1246.265625 L 901.476562 1240.925781 L 908.128906 1235.113281 L 914.875 1229.089844 L 921.144531 1223.199219 L 926.386719 1217.773438 L 930.199219 1213.070312 L 932.863281 1209.023438 L 934.828125 1205.496094 L 936.542969 1202.335938 L 938.457031 1199.402344 L 940.9375 1196.542969 L 944.058594 1193.578125 L 947.816406 1190.320312 L 952.199219 1186.570312 L 957.132812 1182.222656 L 962.21875 1177.4375 L 966.984375 1172.46875 L 970.960938 1167.550781 L 973.839844 1162.875 L 975.964844 1158.378906 L 977.851562 1153.949219 L 980.011719 1149.472656 L 982.957031 1144.828125 L 986.988281 1139.925781 L 991.582031 1134.761719 L 996.003906 1129.355469 L 999.511719 1123.730469 L 1001.578125 1117.914062 L 1002.484375 1111.996094 L 1002.71875 1106.085938 L 1002.757812 1100.285156 L 1003.09375 1094.695312 L 1004.082031 1089.40625 L 1005.566406 1084.4375 L 1007.261719 1079.792969 L 1008.890625 1075.480469 L 1010.230469 1071.464844 L 1011.332031 1067.574219 L 1012.3125 1063.585938 L 1013.277344 1059.292969 L 1014.351562 1054.484375 L 1015.632812 1049.007812 L 1017.199219 1043.023438 L 1019.117188 1036.746094 L 1021.445312 1030.394531 L 1024.175781 1024.121094 L 1026.980469 1017.78125 L 1029.453125 1011.167969 L 1031.195312 1004.0625 L 1031.933594 996.351562 L 1031.945312 988.308594 L 1031.644531 980.300781 L 1031.433594 972.699219 L 1031.730469 965.867188 L 1032.808594 960.066406 L 1034.425781 955.082031 L 1036.207031 950.582031 L 1037.769531 946.246094 L 1038.832031 941.800781 L 1039.492188 937.183594 L 1039.945312 932.402344 L 1040.378906 927.453125 L 1040.992188 922.328125 L 1041.929688 916.824219 L 1043.15625 909.890625 L 1044.589844 900.265625 L 1046.148438 886.691406 L 1047.738281 868.449219 L 1049.199219 846.960938 L 1050.371094 824.1875 L 1051.074219 802.089844 L 1051.148438 782.632812 L 1050.488281 767.296875 L 1049.269531 755.675781 L 1047.734375 746.882812 L 1046.128906 740.039062 L 1044.648438 734.304688 L 1043.292969 729.054688 L 1042.011719 723.707031 L 1040.757812 717.683594 L 1039.488281 710.582031 L 1038.191406 702.707031 L 1036.863281 694.550781 L 1035.5 686.59375 L 1034.097656 679.324219 L 1032.65625 673.121094 L 1031.21875 667.941406 L 1029.820312 663.632812 L 1028.515625 660.046875 L 1027.320312 657.03125 L 1026.183594 654.40625 L 1025.023438 652 L 1023.761719 649.632812 L 1022.328125 647.128906 L 1020.65625 644.339844 L 1018.765625 641.242188 L 1016.703125 637.851562 L 1014.503906 634.171875 L 1012.21875 630.230469 L 1009.925781 626.109375 L 1007.730469 621.910156 L 1005.71875 617.730469 L 1003.984375 613.667969 L 1002.59375 609.800781 L 1001.453125 606.117188 L 1000.449219 602.578125 L 999.457031 599.144531 L 998.339844 595.777344 L 996.863281 592.375 L 994.777344 588.835938 L 991.839844 585.058594 L 987.910156 581 L 983.289062 576.84375 L 978.390625 572.835938 L 973.628906 569.222656 L 969.417969 566.253906 L 966.035156 564.070312 L 963.222656 562.433594 L 960.59375 560.992188 L 957.753906 559.402344 L 954.40625 557.402344 L 950.609375 555.058594 L 946.519531 552.523438 L 942.285156 549.945312 L 938.0625 547.472656 L 933.859375 545.230469 L 929.160156 543.230469 L 923.300781 541.453125 L 915.621094 539.878906 L 905.71875 538.488281 L 894.210938 537.230469 L 881.96875 536.0625 L 869.863281 534.925781 L 858.769531 533.777344 L 858.085938 532.808594 "/>
<path style="fill:none;stroke-width:0.75;stroke-linecap:round;stroke-linejoin:round;stroke:rgb(0%,0%,0%);stroke-opacity:1;stroke-miterlimit:10;" d="M 746.5625 185.484375 L 742.925781 187.3125 L 738.746094 188.621094 L 734.269531 189.132812 L 726.367188 190.296875 L 712.554688 193.542969 L 696.347656 198.46875 L 682.753906 204.234375 L 675.359375 209.941406 L 672.035156 214.566406 L 669.757812 217.421875 L 667.632812 219.425781 L 665.277344 221.878906 L 662.492188 225.585938 L 659.710938 229.320312 L 657.351562 232 L 655.023438 235.167969 L 652.140625 241 L 648.285156 250.609375 L 643.714844 260.730469 L 638.898438 268.589844 L 634.511719 277.652344 L 631.285156 292.960938 L 629.765625 316.886719 L 629.84375 341.152344 L 631.042969 357.710938 L 632.105469 370.070312 L 631.582031 384.632812 L 628.796875 405.9375 L 626.164062 431.097656 L 626.101562 455.632812 L 627.96875 476.128906 L 630.351562 489.425781 L 632.257812 493.890625 L 634.308594 493.9375 L 637.285156 494.398438 L 640.921875 495.738281 L 644.695312 497.3125 L 648.1875 498.644531 L 651.421875 499.855469 L 654.527344 501.160156 L 657.691406 502.542969 L 661.109375 503.9375 L 664.910156 505.285156 L 668.972656 506.597656 L 673.117188 507.894531 L 677.175781 509.203125 L 680.996094 510.539062 L 684.511719 512.007812 L 688.011719 514.027344 L 691.925781 516.796875 L 696.902344 519.347656 L 703.632812 520.410156 L 711.835938 519.117188 L 717.335938 516.167969 L 716.429688 512.570312 L 711.257812 508.96875 L 705.425781 505.921875 L 701.867188 503.761719 L 700.832031 501.921875 L 701.789062 499.726562 L 703.636719 496.988281 L 705.15625 493.640625 L 705.113281 489.746094 L 702.273438 485.882812 L 696.304688 482.628906 L 690.566406 479.992188 L 688.257812 477.664062 L 688.359375 474.589844 L 688.777344 469.546875 L 688.085938 462.054688 L 687.472656 454.699219 L 688.363281 449.945312 L 690.515625 446.828125 L 693.28125 443.507812 L 695.792969 438.863281 L 696.386719 434.597656 L 693.800781 432.335938 L 689.230469 430.5625 L 684.492188 426.960938 L 680.984375 419.820312 L 678.488281 409.804688 L 676.445312 398.339844 L 674.621094 387.609375 L 672.839844 379.964844 L 671.078125 376.808594 L 669.84375 375.703125 L 669.566406 373.824219 L 669.816406 370.652344 L 669.933594 366.25 L 669.523438 360.761719 L 669.238281 354.707031 L 669.691406 348.671875 L 670.332031 343.121094 L 670.3125 338.503906 L 669.101562 335.097656 L 667.429688 332.511719 L 666.269531 330.25 L 666.324219 327.988281 L 668.226562 325.457031 L 671.851562 322.488281 L 674.046875 319.308594 L 672.105469 316.207031 L 668.140625 313.335938 L 665.484375 310.804688 L 666.566406 308.695312 L 670.25 307.007812 L 674.566406 305.539062 L 677.8125 303.378906 L 678.335938 299.4375 L 675.6875 293.203125 L 674.195312 286.441406 L 677.832031 280.773438 L 684.398438 274.957031 L 690.15625 267.035156 L 693.804688 256.128906 L 703.828125 245.691406 L 727.257812 239.316406 L 755.546875 236.851562 L 776.261719 237.210938 L 781.253906 239.40625 L 779.535156 242.855469 L 781.785156 247.195312 L 788.222656 252.605469 L 796.441406 259.382812 L 804.640625 267.894531 L 813.378906 278.742188 L 822.914062 291.714844 L 829.910156 303.117188 L 831.339844 309.660156 L 829.050781 313.1875 L 826.117188 316.832031 L 825.273438 322.730469 L 827.964844 329.042969 L 834.582031 333.683594 L 842.535156 337.582031 L 848.507812 342.410156 L 850.398438 349.3125 L 850.941406 357.285156 L 853.179688 364.980469 L 856.5 371.777344 L 859.375 377.242188 L 860.570312 381.136719 L 860.085938 384.011719 L 858.4375 386.554688 L 857.074219 389.152344 L 857.664062 392.128906 L 861.199219 395.695312 L 865.914062 399.609375 L 869.679688 403.617188 L 871.683594 407.800781 L 871.414062 412.328125 L 868.886719 417.15625 L 866.140625 421.339844 L 865.1875 424.203125 L 865.878906 426.988281 L 867.523438 431.40625 L 869.433594 438.742188 L 870.871094 448.542969 L 871.320312 459.957031 L 871.078125 472.355469 L 870.660156 485.152344 L 870.628906 497.234375 L 871.78125 505.386719 L 874.644531 507.042969 L 878.539062 504.339844 L 882.472656 500.601562 L 885.707031 498.382812 L 888.492188 497.148438 L 891.234375 495.851562 L 893.941406 494.449219 L 896.527344 493.144531 L 898.988281 492.027344 L 901.628906 490.722656 L 904.730469 488.886719 L 908.164062 486.761719 L 911.691406 484.742188 L 915.105469 483.046875 L 918.339844 481.191406 L 921.382812 478.660156 L 924.363281 475.503906 L 927.433594 471.90625 L 930.558594 468.085938 L 932.90625 464.410156 L 933.578125 461.191406 L 932.195312 458.371094 L 928.5 455.804688 L 922.871094 453.039062 L 918.234375 448.359375 L 916.878906 440.3125 L 916.007812 429.800781 L 912.585938 418.367188 L 907.75 407.863281 L 903.679688 400.21875 L 901.875 396.433594 L 901.167969 393.796875 L 900.085938 389.515625 L 898.617188 384.140625 L 897.125 379.074219 L 895.828125 375.105469 L 894.398438 370.601562 L 892.492188 363.972656 L 890.269531 356.125 L 888.003906 348.605469 L 885.847656 342.453125 L 883.410156 336.710938 L 880.390625 330.335938 L 877.371094 323.90625 L 875.140625 318.40625 L 874.109375 314.453125 L 873.144531 311.203125 L 871.121094 307.703125 L 868.515625 304.074219 L 866.183594 300.6875 L 864.726562 297.808594 L 863.652344 295.183594 L 862.375 292.519531 L 860.933594 289.820312 L 859.523438 287.175781 L 858.289062 284.625 L 857.101562 282.039062 L 855.761719 279.246094 L 853.976562 276.027344 L 851.4375 272.167969 L 848.09375 267.652344 L 844.929688 263.292969 L 842.890625 259.878906 L 841.742188 257.265625 L 840.945312 255.078125 L 840.015625 252.917969 L 838.648438 250.242188 L 836.484375 246.480469 L 832.761719 241.074219 L 826.613281 233.464844 L 817.890625 223.792969 L 809.25 214.957031 L 803.296875 209.613281 L 799.511719 206.617188 L 796.617188 203.871094 L 793.683594 199.96875 L 791.242188 196.261719 L 789.683594 194.382812 L 787.464844 194.394531 L 782.546875 195.949219 L 774.105469 198.421875 L 766.21875 200.035156 L 762.964844 199.261719 L 763.546875 196.785156 L 765.9375 193.820312 L 767.914062 191.332031 L 766.433594 189.269531 L 759.605469 187.402344 L 750.992188 185.832031 L 745.53125 184.761719 L 746.5625 185.484375 "/>
<path style="fill:none;stroke-width:0.75;stroke-linecap:round;stroke-linejoin:round;stroke:rgb(0%,0%,0%);stroke-opacity:1;stroke-miterlimit:10;" d="M 990.648438 360.957031 L 984.105469 363.242188 L 978.09375 364.078125 L 974.40625 363.660156 L 971.609375 363.144531 L 968.015625 363.640625 L 964.183594 365.15625 L 961.066406 367.601562 L 958.910156 371.59375 L 957.429688 377.269531 L 954.910156 382.074219 L 950.28125 384.433594 L 946.449219 389.429688 L 946.226562 401.421875 L 948.023438 415.296875 L 949.667969 425.042969 L 951.019531 430.550781 L 952.21875 433.257812 L 952.433594 434.898438 L 951.066406 437.046875 L 949.398438 440.335938 L 948.546875 444.800781 L 947.101562 448.980469 L 943.738281 451.730469 L 939.933594 454.664062 L 937.539062 459.621094 L 937.039062 466.632812 L 938.304688 475.015625 L 940.195312 482.984375 L 941.617188 489.003906 L 942.773438 493.597656 L 944.070312 497.628906 L 945.492188 501.273438 L 946.917969 504.523438 L 948.21875 507.3125 L 949.335938 509.671875 L 950.476562 512.167969 L 952.136719 515.539062 L 955.808594 520.804688 L 962.476562 528.507812 L 970.148438 537.015625 L 976.464844 544.445312 L 980.558594 550.042969 L 982.375 553.671875 L 983.699219 556.617188 L 986.109375 560.074219 L 988.601562 563.542969 L 989.988281 566.359375 L 990.945312 568.9375 L 992.421875 571.839844 L 994.519531 575.171875 L 997.019531 578.839844 L 999.261719 582.34375 L 1000.714844 585.261719 L 1001.828125 587.851562 L 1003.136719 590.457031 L 1004.554688 593.082031 L 1005.902344 595.679688 L 1007.210938 598.3125 L 1008.558594 601.332031 L 1009.910156 606.125 L 1011.242188 613.574219 L 1012.582031 621.445312 L 1013.953125 627.34375 L 1015.292969 631.246094 L 1016.546875 633.816406 L 1017.839844 636.074219 L 1019.351562 638.882812 L 1021.328125 642.203125 L 1023.820312 645.789062 L 1026.113281 649.507812 L 1027.570312 653.238281 L 1028.660156 656.761719 L 1029.96875 659.9375 L 1031.398438 663.0625 L 1032.746094 666.472656 L 1034.050781 670.269531 L 1035.386719 674.382812 L 1036.746094 678.269531 L 1038.101562 681.503906 L 1039.4375 684.507812 L 1040.746094 687.875 L 1042.078125 691.910156 L 1043.46875 696.585938 L 1044.878906 700.789062 L 1046.375 703.636719 L 1048.5 706.304688 L 1051.742188 710.027344 L 1055.867188 714.332031 L 1060.738281 718.546875 L 1067.375 722.980469 L 1076.808594 727.699219 L 1088.964844 730.847656 L 1102.632812 730.671875 L 1113.105469 727.730469 L 1117.085938 723.164062 L 1120.328125 718.152344 L 1128.339844 713.6875 L 1136.589844 709.980469 L 1139.929688 706.886719 L 1140.753906 703.601562 L 1142.378906 699.410156 L 1144.308594 694.652344 L 1145.507812 690.046875 L 1146.660156 686.851562 L 1148.636719 685.941406 L 1151.339844 686.144531 L 1154.371094 686.078125 L 1157.027344 685.515625 L 1158.957031 684.328125 L 1161.464844 681.640625 L 1165.5625 676.78125 L 1169.421875 670.691406 L 1171.175781 664.558594 L 1171.625 658.925781 L 1171.828125 654.03125 L 1171.285156 649.46875 L 1169.730469 644.789062 L 1169.449219 639.921875 L 1172.097656 634.964844 L 1174.210938 630.28125 L 1172.628906 626.0625 L 1170.53125 621.476562 L 1171.257812 615.660156 L 1172.554688 608.671875 L 1171.542969 601.132812 L 1168.507812 594.980469 L 1164.535156 591.609375 L 1160.730469 588.964844 L 1158.09375 584.484375 L 1157.222656 577.054688 L 1158.136719 566.65625 L 1158.996094 556.210938 L 1157.980469 548.625 L 1155.148438 543.804688 L 1151.410156 540.71875 L 1149.136719 537.570312 L 1149.800781 533.03125 L 1149.855469 528.40625 L 1145.941406 525.027344 L 1140.515625 521.710938 L 1136.855469 517.109375 L 1135.746094 511.695312 L 1136.839844 506.179688 L 1137.714844 500.425781 L 1136.375 494.21875 L 1134.605469 487.949219 L 1134.027344 482.1875 L 1131.8125 477.648438 L 1125.515625 474.597656 L 1118.613281 471.34375 L 1114.75 466.375 L 1112.316406 460.808594 L 1109.054688 456.027344 L 1105.359375 451.90625 L 1101.960938 447.984375 L 1098.3125 444.011719 L 1093.90625 440.011719 L 1089.6875 436.855469 L 1086.632812 435.199219 L 1084.363281 433.992188 L 1082.351562 432.070312 L 1080.808594 429.597656 L 1079.855469 426.945312 L 1078.566406 424.027344 L 1076.414062 420.691406 L 1075.511719 417 L 1076.671875 413.105469 L 1072.875 409.398438 L 1058.605469 405.875 L 1042.164062 400.792969 L 1032.601562 392.867188 L 1028.132812 384.421875 L 1024.828125 378.152344 L 1021.039062 374.605469 L 1016.269531 373.34375 L 1012.359375 372.199219 L 1010.671875 369.246094 L 1008.355469 365.253906 L 1002.183594 361.511719 L 991.699219 358.640625 L 990.648438 360.957031 "/>
</g>
</svg>
