<?xml version="1.0" encoding="UTF-8"?>
<svg xmlns="http://www.w3.org/2000/svg" xmlns:xlink="http://www.w3.org/1999/xlink" width="1428pt" height="1605pt" viewBox="0 0 1428 1605" version="1.1">
<g id="surface304">
<rect x="0" y="0" width="1428" height="1605" style="fill:rgb(100%,100%,100%);fill-opacity:1;stroke:none;"/>
<path style="fill:none;stroke-width:0.75;stroke-linecap:round;stroke-linejoin:round;stroke:rgb(0%,0%,0%);stroke-opacity:1;stroke-miterlimit:10;" d="M 710.882812 175.207031 L 710.035156 178.445312 L 706.070312 181.695312 L 700.039062 185.007812 L 692.984375 188.425781 L 685.957031 191.992188 L 679.792969 195.730469 L 674.519531 199.582031 L 669.96875 203.453125 L 665.960938 207.253906 L 662.324219 210.902344 L 658.910156 214.355469 L 655.714844 217.738281 L 652.757812 221.226562 L 650.058594 224.996094 L 647.636719 229.214844 L 645.5 234 L 643.574219 239.214844 L 641.765625 244.65625 L 639.976562 250.125 L 638.125 255.429688 L 636.140625 260.476562 L 634.078125 265.628906 L 632.023438 271.363281 L 630.058594 278.148438 L 628.269531 286.460938 L 626.722656 296.558594 L 625.421875 307.859375 L 624.351562 319.558594 L 623.507812 330.859375 L 622.875 340.957031 L 622.4375 349.054688 L 622.207031 354.625 L 622.246094 358.21875 L 622.644531 360.660156 L 623.492188 362.777344 L 624.867188 365.394531 L 626.734375 369.117188 L 628.558594 373.679688 L 629.667969 378.597656 L 629.40625 383.390625 L 627.105469 387.574219 L 622.382812 390.730469 L 616.015625 392.746094 L 609.054688 393.570312 L 602.554688 393.148438 L 597.574219 391.4375 L 594.890625 388.425781 L 594.195312 384.257812 L 594.90625 379.132812 L 596.433594 373.234375 L 598.195312 366.757812 L 599.679688 359.875 L 600.671875 352.734375 L 601.03125 345.457031 L 600.605469 338.175781 L 599.261719 331.019531 L 596.851562 324.117188 L 593.324219 317.574219 L 589.027344 311.445312 L 584.382812 305.75 L 579.828125 300.519531 L 575.792969 295.777344 L 572.574219 291.539062 L 569.902344 287.753906 L 567.367188 284.359375 L 564.566406 281.289062 L 561.09375 278.480469 L 556.574219 275.917969 L 550.75 273.785156 L 543.410156 272.324219 L 534.328125 271.761719 L 523.292969 272.332031 L 510.328125 274.214844 L 496.46875 277.332031 L 483.003906 281.5625 L 471.214844 286.773438 L 462.390625 292.832031 L 457.398438 299.628906 L 455.480469 307.144531 L 455.460938 315.378906 L 456.160156 324.335938 L 456.40625 334.011719 L 455.316406 344.335938 L 453.15625 354.957031 L 450.492188 365.453125 L 447.890625 375.398438 L 445.90625 384.363281 L 445.105469 391.933594 L 445.851562 397.820312 L 447.695312 402.3125 L 450.003906 405.851562 L 452.121094 408.863281 L 453.414062 411.777344 L 453.480469 414.949219 L 452.898438 418.367188 L 452.496094 421.949219 L 453.089844 425.605469 L 455.511719 429.242188 L 460.363281 432.75 L 467.34375 435.894531 L 475.941406 438.425781 L 485.644531 440.085938 L 495.929688 440.617188 L 506.285156 439.910156 L 516.207031 438.421875 L 525.199219 436.75 L 532.757812 435.496094 L 538.378906 435.261719 L 541.703125 436.484375 L 542.910156 439 L 542.308594 442.472656 L 540.222656 446.582031 L 536.960938 450.992188 L 532.839844 455.375 L 528.175781 459.511719 L 523.285156 463.570312 L 518.484375 467.839844 L 514.082031 472.597656 L 510.402344 478.121094 L 507.644531 484.546875 L 505.585938 491.402344 L 503.878906 498.082031 L 502.191406 503.964844 L 500.179688 508.445312 L 497.613281 511.054688 L 494.699219 511.953125 L 491.75 511.453125 L 489.074219 509.863281 L 486.980469 507.496094 L 485.640625 504.621094 L 484.625 501.359375 L 483.363281 497.792969 L 481.28125 493.996094 L 477.808594 490.054688 L 472.5625 486.042969 L 465.917969 482.035156 L 458.445312 478.089844 L 450.710938 474.277344 L 443.285156 470.664062 L 436.734375 467.316406 L 431.386719 464.253906 L 426.652344 461.316406 L 421.6875 458.289062 L 415.660156 454.972656 L 407.738281 451.148438 L 397.269531 446.75 L 384.375 442.207031 L 369.355469 438.097656 L 352.515625 434.996094 L 334.152344 433.46875 L 314.703125 433.910156 L 295.09375 435.988281 L 276.378906 439.203125 L 259.617188 443.039062 L 245.855469 446.992188 L 235.820312 450.65625 L 228.871094 454.054688 L 224.042969 457.316406 L 220.363281 460.5625 L 216.859375 463.921875 L 212.765625 467.484375 L 208.101562 471.199219 L 203.097656 474.984375 L 197.984375 478.75 L 192.984375 482.414062 L 188.289062 485.910156 L 183.949219 489.265625 L 179.980469 492.527344 L 176.394531 495.738281 L 173.203125 498.945312 L 170.421875 502.195312 L 168.03125 505.535156 L 165.878906 509.007812 L 163.769531 512.65625 L 161.519531 516.53125 L 158.9375 520.671875 L 155.910156 525.097656 L 152.636719 529.726562 L 149.390625 534.441406 L 146.4375 539.136719 L 144.058594 543.703125 L 142.421875 548.054688 L 141.28125 552.230469 L 140.292969 556.296875 L 139.105469 560.320312 L 137.378906 564.371094 L 134.859375 568.53125 L 131.691406 572.945312 L 128.121094 577.78125 L 124.394531 583.210938 L 120.75 589.390625 L 117.378906 596.40625 L 114.277344 604.019531 L 111.378906 611.902344 L 108.621094 619.734375 L 105.945312 627.183594 L 103.289062 633.9375 L 100.609375 639.769531 L 97.933594 644.90625 L 95.304688 649.683594 L 92.765625 654.421875 L 90.363281 659.460938 L 88.121094 665.074219 L 85.96875 671.308594 L 83.808594 678.160156 L 81.554688 685.625 L 79.113281 693.695312 L 76.421875 702.3125 L 73.566406 711.242188 L 70.664062 720.183594 L 67.832031 728.847656 L 65.183594 736.941406 L 62.824219 744.214844 L 60.777344 750.59375 L 59.0625 756.042969 L 57.695312 760.53125 L 56.683594 764.023438 L 56.023438 766.570312 L 55.605469 768.523438 L 55.304688 770.332031 L 54.988281 772.429688 L 54.527344 775.257812 L 53.796875 779.253906 L 52.710938 784.726562 L 51.402344 791.4375 L 50.039062 799.007812 L 48.804688 807.066406 L 47.867188 815.238281 L 47.34375 823.234375 L 47.070312 831.082031 L 46.828125 838.894531 L 46.390625 846.789062 L 45.535156 854.878906 L 44.125 863.253906 L 42.34375 871.921875 L 40.46875 880.875 L 38.777344 890.101562 L 37.539062 899.585938 L 36.949219 909.261719 L 36.882812 918.847656 L 37.125 928.011719 L 37.46875 936.40625 L 37.707031 943.699219 L 37.691406 949.65625 L 37.5 954.457031 L 37.289062 958.378906 L 37.195312 961.703125 L 37.363281 964.710938 L 37.914062 967.664062 L 38.871094 970.765625 L 40.222656 974.199219 L 41.964844 978.148438 L 44.089844 982.792969 L 46.59375 988.320312 L 49.4375 994.820312 L 52.441406 1002.015625 L 55.386719 1009.535156 L 58.058594 1017.007812 L 60.246094 1024.0625 L 61.816406 1030.414062 L 62.976562 1036.140625 L 64.015625 1041.390625 L 65.222656 1046.332031 L 66.890625 1051.117188 L 69.210938 1055.878906 L 71.992188 1060.65625 L 74.941406 1065.457031 L 77.769531 1070.285156 L 80.183594 1075.15625 L 81.996094 1080.0625 L 83.433594 1084.941406 L 84.820312 1089.714844 L 86.480469 1094.308594 L 88.746094 1098.644531 L 91.847656 1102.667969 L 95.628906 1106.40625 L 99.84375 1109.921875 L 104.238281 1113.269531 L 108.570312 1116.5 L 112.589844 1119.675781 L 116.113281 1122.847656 L 119.257812 1126.085938 L 122.199219 1129.46875 L 125.121094 1133.066406 L 128.199219 1136.953125 L 131.554688 1141.167969 L 135.058594 1145.636719 L 138.515625 1150.261719 L 141.730469 1154.933594 L 144.507812 1159.554688 L 146.75 1164.042969 L 148.699219 1168.4375 L 150.703125 1172.808594 L 153.097656 1177.222656 L 156.226562 1181.742188 L 160.289062 1186.402344 L 164.964844 1191.089844 L 169.785156 1195.664062 L 174.292969 1199.980469 L 178.027344 1203.894531 L 180.648438 1207.308594 L 182.351562 1210.316406 L 183.441406 1213.058594 L 184.238281 1215.667969 L 185.050781 1218.289062 L 186.15625 1221.035156 L 187.636719 1223.933594 L 189.550781 1226.984375 L 191.941406 1230.191406 L 194.859375 1233.554688 L 198.355469 1237.082031 L 202.410156 1240.769531 L 206.738281 1244.632812 L 210.996094 1248.683594 L 214.832031 1252.921875 L 217.898438 1257.367188 L 219.996094 1262.015625 L 221.507812 1266.8125 L 222.976562 1271.6875 L 224.925781 1276.578125 L 227.902344 1281.410156 L 232.253906 1286.132812 L 237.621094 1290.726562 L 243.46875 1295.191406 L 249.25 1299.523438 L 254.429688 1303.714844 L 258.617188 1307.761719 L 262.019531 1311.675781 L 265 1315.453125 L 267.917969 1319.105469 L 271.128906 1322.632812 L 274.894531 1326.050781 L 279.046875 1329.382812 L 283.320312 1332.660156 L 287.445312 1335.914062 L 291.15625 1339.171875 L 294.183594 1342.472656 L 296.382812 1345.832031 L 298.121094 1349.226562 L 299.882812 1352.628906 L 302.164062 1356.007812 L 305.445312 1359.328125 L 310.097656 1362.554688 L 315.992188 1365.628906 L 322.890625 1368.496094 L 330.539062 1371.089844 L 338.695312 1373.347656 L 347.15625 1375.222656 L 355.898438 1376.71875 L 364.9375 1377.84375 L 374.289062 1378.617188 L 383.96875 1379.046875 L 393.996094 1379.15625 L 404.367188 1378.960938 L 415.066406 1378.484375 L 426.09375 1377.757812 L 437.4375 1376.796875 L 449.011719 1375.617188 L 460.421875 1374.167969 L 471.195312 1372.386719 L 480.863281 1370.207031 L 488.949219 1367.570312 L 494.984375 1364.414062 L 498.820312 1360.746094 L 501.578125 1356.878906 L 504.71875 1353.195312 L 509.691406 1350.089844 L 517.945312 1347.941406 L 530.65625 1347.003906 L 547.847656 1346.984375 L 569.28125 1347.464844 L 594.707031 1348.019531 L 623.875 1348.226562 L 656.132812 1347.742188 L 689.226562 1346.578125 L 720.484375 1344.828125 L 747.242188 1342.578125 L 766.84375 1339.921875 L 777.546875 1336.945312 L 781.34375 1333.699219 L 781.15625 1330.222656 L 779.902344 1326.558594 L 780.507812 1322.75 L 785.171875 1318.824219 L 793.25 1314.765625 L 803.382812 1310.550781 L 814.210938 1306.15625 L 824.371094 1301.546875 L 832.804688 1296.726562 L 839.648438 1291.757812 L 845.34375 1286.738281 L 850.335938 1281.757812 L 855.058594 1276.90625 L 859.957031 1272.277344 L 865.34375 1267.941406 L 871.074219 1263.863281 L 876.863281 1259.992188 L 882.433594 1256.277344 L 887.515625 1252.660156 L 891.914062 1249.09375 L 895.769531 1245.550781 L 899.300781 1242.007812 L 902.734375 1238.4375 L 906.296875 1234.8125 L 910.148438 1231.109375 L 914.25 1227.277344 L 918.5 1223.265625 L 922.792969 1219.023438 L 927.035156 1214.5 L 931.171875 1209.675781 L 935.363281 1204.667969 L 939.8125 1199.625 L 944.722656 1194.703125 L 950.300781 1190.046875 L 956.621094 1185.785156 L 963.242188 1181.921875 L 969.59375 1178.449219 L 975.09375 1175.339844 L 979.175781 1172.585938 L 981.265625 1170.164062 L 981.058594 1168.011719 L 979.320312 1165.859375 L 977.097656 1163.398438 L 975.425781 1160.3125 L 975.34375 1156.285156 L 977.582031 1151.117188 L 981.613281 1145.0625 L 986.613281 1138.484375 L 991.738281 1131.746094 L 996.164062 1125.214844 L 999.25 1119.171875 L 1001.164062 1113.542969 L 1002.28125 1108.171875 L 1002.957031 1102.898438 L 1003.570312 1097.5625 L 1004.414062 1092.039062 L 1005.535156 1086.335938 L 1006.894531 1080.488281 L 1008.46875 1074.535156 L 1010.230469 1068.515625 L 1012.132812 1062.484375 L 1014.074219 1056.550781 L 1015.929688 1050.839844 L 1017.582031 1045.480469 L 1018.914062 1040.597656 L 1019.796875 1036.316406 L 1020.175781 1032.714844 L 1020.207031 1029.679688 L 1020.113281 1027.054688 L 1020.113281 1024.683594 L 1020.425781 1022.398438 L 1021.214844 1020.003906 L 1022.4375 1017.117188 L 1023.992188 1013.324219 L 1025.785156 1008.199219 L 1027.714844 1001.324219 L 1029.691406 992.472656 L 1031.667969 982.175781 L 1033.601562 971.167969 L 1035.449219 960.171875 L 1037.171875 949.917969 L 1038.738281 940.914062 L 1040.152344 932.769531 L 1041.433594 924.878906 L 1042.601562 916.632812 L 1043.667969 907.421875 L 1044.65625 896.8125 L 1045.574219 885.113281 L 1046.4375 872.800781 L 1047.257812 860.351562 L 1048.054688 848.25 L 1048.820312 836.871094 L 1049.515625 826.15625 L 1050.074219 815.949219 L 1050.445312 806.089844 L 1050.5625 796.421875 L 1050.371094 786.78125 L 1049.824219 777.082031 L 1048.957031 767.519531 L 1047.804688 758.363281 L 1046.410156 749.878906 L 1044.820312 742.335938 L 1043.117188 735.953125 L 1041.546875 730.769531 L 1040.40625 726.769531 L 1039.980469 723.945312 L 1040.566406 722.277344 L 1042.363281 721.746094 L 1045.265625 722.246094 L 1049.078125 723.667969 L 1053.605469 725.894531 L 1058.652344 728.808594 L 1064.113281 732.234375 L 1070.21875 735.714844 L 1077.285156 738.71875 L 1085.640625 740.722656 L 1095.601562 741.207031 L 1107.289062 739.796875 L 1120.042969 736.726562 L 1133.015625 732.390625 L 1145.34375 727.167969 L 1156.179688 721.453125 L 1164.660156 715.636719 L 1170.210938 710.046875 L 1173.351562 704.777344 L 1174.871094 699.867188 L 1175.570312 695.351562 L 1176.238281 691.265625 L 1177.496094 687.597656 L 1179.230469 684.144531 L 1181.160156 680.644531 L 1182.992188 676.847656 L 1184.445312 672.492188 L 1185.3125 667.410156 L 1185.695312 661.734375 L 1185.789062 655.6875 L 1185.769531 649.492188 L 1185.832031 643.359375 L 1186.097656 637.480469 L 1186.429688 631.90625 L 1186.625 626.652344 L 1186.492188 621.726562 L 1185.828125 617.152344 L 1184.5 612.914062 L 1182.625 608.886719 L 1180.394531 604.917969 L 1177.984375 600.847656 L 1175.589844 596.527344 L 1173.355469 591.835938 L 1171.308594 586.792969 L 1169.4375 581.457031 L 1167.730469 575.882812 L 1166.175781 570.132812 L 1164.769531 564.253906 L 1163.480469 558.28125 L 1162.238281 552.097656 L 1160.964844 545.5625 L 1159.574219 538.542969 L 1157.976562 530.894531 L 1156.097656 522.550781 L 1153.875 513.722656 L 1151.25 504.699219 L 1148.164062 495.773438 L 1144.566406 487.230469 L 1140.4375 479.316406 L 1135.945312 472.09375 L 1131.304688 465.59375 L 1126.730469 459.835938 L 1122.425781 454.851562 L 1118.578125 450.625 L 1115.25 447.015625 L 1112.484375 443.84375 L 1110.3125 440.925781 L 1108.773438 438.082031 L 1107.847656 435.148438 L 1107.261719 431.988281 L 1106.695312 428.472656 L 1105.824219 424.484375 L 1104.320312 419.898438 L 1101.859375 414.589844 L 1098.273438 408.558594 L 1094 402.332031 L 1089.636719 396.558594 L 1085.78125 391.886719 L 1083.027344 388.96875 L 1081.714844 388.195312 L 1081.15625 388.960938 L 1080.40625 390.398438 L 1078.519531 391.640625 L 1074.550781 391.820312 L 1067.917969 390.296875 L 1059.503906 387.300781 L 1050.546875 383.289062 L 1042.296875 378.714844 L 1035.996094 374.035156 L 1032.472656 369.628906 L 1030.886719 365.597656 L 1029.988281 361.96875 L 1028.523438 358.769531 L 1025.234375 356.03125 L 1019.222656 353.757812 L 1010.972656 351.90625 L 1001.328125 350.40625 L 991.132812 349.191406 L 981.21875 348.191406 L 972.433594 347.347656 L 965.414062 346.648438 L 960.007812 346.347656 L 955.863281 346.765625 L 952.625 348.21875 L 949.941406 351.015625 L 947.53125 355.339844 L 945.378906 360.796875 L 943.542969 366.863281 L 942.070312 373.007812 L 941.019531 378.703125 L 940.429688 383.5625 L 940.265625 387.796875 L 940.464844 391.765625 L 940.980469 395.816406 L 941.753906 400.308594 L 942.710938 405.511719 L 943.691406 411.328125 L 944.503906 417.582031 L 944.964844 424.089844 L 944.886719 430.671875 L 944.125 437.089844 L 942.675781 442.878906 L 940.570312 447.519531 L 937.847656 450.484375 L 934.542969 451.25 L 930.71875 449.492188 L 926.59375 445.652344 L 922.417969 440.367188 L 918.441406 434.273438 L 914.914062 428.007812 L 912.085938 422.207031 L 910.109375 417.339844 L 908.773438 413.1875 L 907.757812 409.363281 L 906.757812 405.480469 L 905.457031 401.15625 L 903.625 396.09375 L 901.355469 390.363281 L 898.824219 384.121094 L 896.203125 377.539062 L 893.675781 370.769531 L 891.371094 363.96875 L 889.285156 357.273438 L 887.367188 350.796875 L 885.574219 344.667969 L 883.859375 339.007812 L 882.175781 333.902344 L 880.511719 329.265625 L 878.855469 324.976562 L 877.191406 320.917969 L 875.511719 316.960938 L 873.808594 313.011719 L 872.113281 309.046875 L 870.46875 305.082031 L 868.917969 301.121094 L 867.496094 297.164062 L 866.246094 293.226562 L 865.183594 289.308594 L 864.230469 285.40625 L 863.28125 281.507812 L 862.234375 277.613281 L 860.988281 273.714844 L 859.449219 269.789062 L 857.570312 265.765625 L 855.320312 261.5625 L 852.660156 257.09375 L 849.554688 252.277344 L 845.972656 247.0625 L 841.871094 241.515625 L 837.203125 235.734375 L 831.9375 229.824219 L 826.027344 223.882812 L 819.527344 218 L 812.839844 212.226562 L 806.476562 206.617188 L 800.9375 201.210938 L 796.726562 196.050781 L 793.882812 191.191406 L 790.609375 186.671875 L 784.644531 182.539062 L 773.730469 178.839844 L 755.601562 175.621094 L 728 172.933594 L 710.882812 175.207031 "/>
<path style="fill:none;stroke-width:0.75;stroke-linecap:round;stroke-linejoin:round;stroke:rgb(0%,0%,0%);stroke-opacity:1;stroke-miterlimit:10;" d="M 292.765625 430.957031 L 284.007812 435.273438 L 274.925781 439.492188 L 264.3125 443.574219 L 251.582031 447.480469 L 238.632812 451.179688 L 227.976562 454.628906 L 221.417969 457.828125 L 217.925781 460.914062 L 215.753906 464.058594 L 213.371094 467.398438 L 210.097656 470.9375 L 205.464844 474.644531 L 199.300781 478.472656 L 192.589844 482.296875 L 186.605469 485.984375 L 182.285156 489.421875 L 179.171875 492.65625 L 176.464844 495.765625 L 173.5625 498.839844 L 170.664062 502.007812 L 168.164062 505.402344 L 166.285156 509.121094 L 164.546875 513.046875 L 162.296875 517.035156 L 159.09375 520.980469 L 155.34375 525.011719 L 151.683594 529.3125 L 148.613281 533.992188 L 146.179688 538.851562 L 144.308594 543.628906 L 142.90625 548.109375 L 141.738281 552.328125 L 140.554688 556.367188 L 139.113281 560.324219 L 137.230469 564.3125 L 134.753906 568.441406 L 131.597656 572.855469 L 128.015625 577.757812 L 124.339844 583.382812 L 120.84375 589.867188 L 117.539062 597.007812 L 114.375 604.507812 L 111.316406 612.082031 L 108.417969 619.5 L 105.746094 626.546875 L 103.320312 633.054688 L 100.957031 639.058594 L 98.429688 644.648438 L 95.5 649.921875 L 92.117188 654.988281 L 88.949219 660.050781 L 86.828125 665.328125 L 86.203125 671.0625 L 85.910156 677.550781 L 84.390625 685.105469 L 80.613281 693.867188 L 75.621094 703.285156 L 70.984375 712.632812 L 67.910156 721.3125 L 66.136719 729.261719 L 65.027344 736.535156 L 64.03125 743.183594 L 62.882812 749.167969 L 61.402344 754.449219 L 59.472656 759.003906 L 57.289062 762.933594 L 55.128906 766.375 L 53.304688 769.441406 L 52.277344 772.21875 L 52.566406 774.773438 L 54.300781 777.265625 L 56.109375 780.1875 L 56.242188 784.117188 L 53.601562 789.523438 L 49.695312 796.460938 L 46.675781 804.882812 L 46.082031 814.558594 L 46.988281 824.5625 L 47.859375 833.78125 L 47.523438 841.449219 L 46.308594 848.101562 L 44.90625 854.613281 L 43.824219 861.742188 L 42.808594 869.796875 L 41.417969 878.960938 L 39.410156 889.273438 L 37.367188 900.15625 L 36.070312 910.882812 L 36.046875 920.804688 L 36.828125 929.617188 L 37.703125 937.078125 L 38.097656 943.082031 L 38.050781 947.976562 L 37.742188 952.226562 L 37.359375 956.300781 L 37.085938 960.535156 L 37.125 964.789062 L 37.6875 968.789062 L 38.894531 972.367188 L 40.523438 975.773438 L 42.269531 979.363281 L 43.953125 983.476562 L 45.921875 988.363281 L 48.644531 994.277344 L 52.347656 1001.304688 L 56.257812 1008.972656 L 59.351562 1016.640625 L 60.921875 1023.792969 L 61.515625 1030.316406 L 62 1036.207031 L 63.074219 1041.496094 L 64.785156 1046.382812 L 67.023438 1051.101562 L 69.648438 1055.851562 L 72.476562 1060.660156 L 75.289062 1065.523438 L 77.894531 1070.425781 L 80.171875 1075.332031 L 82.011719 1080.195312 L 83.394531 1084.976562 L 84.652344 1089.632812 L 86.195312 1094.117188 L 88.390625 1098.402344 L 91.386719 1102.480469 L 95.289062 1106.347656 L 100.054688 1110.003906 L 105.097656 1113.445312 L 109.695312 1116.664062 L 113.296875 1119.6875 L 116.109375 1122.691406 L 118.503906 1125.867188 L 120.878906 1129.378906 L 123.667969 1133.195312 L 127.308594 1137.246094 L 131.984375 1141.464844 L 136.84375 1145.8125 L 140.777344 1150.257812 L 143.011719 1154.769531 L 144.113281 1159.316406 L 144.988281 1163.871094 L 146.542969 1168.414062 L 149.441406 1172.921875 L 153.402344 1177.425781 L 157.910156 1181.960938 L 162.445312 1186.535156 L 166.492188 1191.078125 L 169.535156 1195.480469 L 171.421875 1199.65625 L 173.421875 1203.546875 L 177.171875 1207.105469 L 183.464844 1210.3125 L 189.734375 1213.222656 L 192.578125 1215.90625 L 189.855469 1218.464844 L 184.480469 1221.039062 L 180.632812 1223.792969 L 181.511719 1226.847656 L 186.394531 1230.15625 L 193.574219 1233.632812 L 201.390625 1237.203125 L 208.351562 1240.882812 L 213.019531 1244.710938 L 214.523438 1248.714844 L 214.28125 1252.929688 L 214.273438 1257.375 L 216.007812 1262.0625 L 219.078125 1266.890625 L 222.585938 1271.75 L 225.882812 1276.542969 L 229.277344 1281.277344 L 233.3125 1285.984375 L 238.328125 1290.675781 L 243.820312 1295.261719 L 249.070312 1299.632812 L 253.558594 1303.71875 L 257.503906 1307.625 L 261.335938 1311.492188 L 265.34375 1315.417969 L 269.320312 1319.277344 L 272.945312 1322.898438 L 276.011719 1326.167969 L 278.796875 1329.238281 L 281.699219 1332.3125 L 285.03125 1335.558594 L 288.730469 1338.976562 L 292.65625 1342.507812 L 296.660156 1346.109375 L 300.566406 1349.710938 L 304.0625 1353.207031 L 306.796875 1356.46875 L 308.613281 1359.421875 L 310.089844 1362.199219 L 311.984375 1364.992188 L 315.230469 1367.910156 L 321.457031 1370.789062 L 332.445312 1373.382812 L 348.792969 1375.492188 L 366.292969 1377.082031 L 379.539062 1378.144531 L 384.847656 1378.710938 L 385.4375 1378.910156 L 386.261719 1378.894531 L 391.457031 1378.777344 L 401.960938 1378.492188 L 417.910156 1377.925781 L 438.519531 1376.988281 L 459.296875 1375.671875 L 474.835938 1374 L 481.421875 1371.996094 L 482.113281 1369.730469 L 481.679688 1367.285156 L 484.050781 1364.722656 L 489.835938 1362.070312 L 498.820312 1359.328125 L 510.316406 1356.429688 L 521.757812 1352.984375 L 530.097656 1348.511719 L 533.25 1342.535156 L 532.945312 1334.558594 L 531.863281 1324.085938 L 532.105469 1310.574219 L 533.421875 1293.363281 L 534.996094 1271.75 L 536.203125 1245.078125 L 537.25 1212.921875 L 538.546875 1174.886719 L 540.332031 1131.265625 L 542.179688 1085.023438 L 543.480469 1039.804688 L 543.828125 998.621094 L 543.550781 962.003906 L 543.167969 929.863281 L 543.199219 902.109375 L 544.019531 878.691406 L 545.390625 859.738281 L 546.929688 845.421875 L 548.339844 835.601562 L 549.632812 828.871094 L 550.914062 823.515625 L 552.253906 818.136719 L 553.632812 812.582031 L 555.003906 807.015625 L 556.339844 801.558594 L 557.65625 796.203125 L 558.976562 790.902344 L 560.328125 785.585938 L 561.695312 780.085938 L 563.050781 774.210938 L 564.378906 767.789062 L 565.703125 760.664062 L 567.03125 752.703125 L 568.386719 743.859375 L 569.753906 734.4375 L 571.105469 724.828125 L 572.425781 715.457031 L 573.742188 706.828125 L 575.074219 699.480469 L 576.445312 693.757812 L 577.828125 689.273438 L 579.175781 685.445312 L 580.46875 681.789062 L 581.75 678.171875 L 583.082031 674.542969 L 584.496094 670.835938 L 585.953125 666.867188 L 587.382812 662.429688 L 588.675781 657.324219 L 589.582031 651.414062 L 589.789062 644.585938 L 589.105469 636.851562 L 587.742188 628.808594 L 585.996094 621.1875 L 584.175781 614.527344 L 582.523438 608.589844 L 581.269531 602.941406 L 580.53125 597.226562 L 579.921875 591.429688 L 578.933594 585.601562 L 577.070312 579.804688 L 574.070312 574.101562 L 570.671875 568.605469 L 567.867188 563.425781 L 566.234375 558.605469 L 564.746094 553.851562 L 561.960938 548.800781 L 556.847656 543.207031 L 549.996094 537.339844 L 542.398438 531.59375 L 534.96875 526.304688 L 528.289062 521.605469 L 522.871094 517.578125 L 518.984375 514.28125 L 515.957031 511.699219 L 512.878906 509.792969 L 509.132812 508.550781 L 505.226562 508.035156 L 501.96875 508.339844 L 499.871094 509.414062 L 498.34375 510.660156 L 496.503906 511.34375 L 493.71875 510.894531 L 490.339844 509.378906 L 486.960938 507.042969 L 484.109375 504.113281 L 482.027344 500.796875 L 480.894531 497.304688 L 480.550781 493.789062 L 479.488281 490.210938 L 475.855469 486.476562 L 468.476562 482.542969 L 458.804688 478.53125 L 448.972656 474.609375 L 440.761719 470.90625 L 434.617188 467.429688 L 430.644531 464.136719 L 428.402344 460.976562 L 425.273438 457.835938 L 418.097656 454.566406 L 405.144531 451.070312 L 390.425781 447.378906 L 379.382812 443.558594 L 374.585938 439.683594 L 367.113281 435.792969 L 345.167969 431.933594 L 296.957031 428.140625 L 292.765625 430.957031 "/>
<path style="fill:none;stroke-width:0.75;stroke-linecap:round;stroke-linejoin:round;stroke:rgb(0%,0%,0%);stroke-opacity:1;stroke-miterlimit:10;" d="M 488.289062 272.101562 L 481.191406 276.523438 L 476.972656 279.949219 L 473.90625 283.9375 L 469.476562 290.679688 L 462.382812 301.375 L 457.144531 312.496094 L 456.957031 320.378906 L 455.945312 325.570312 L 454.140625 329.753906 L 453.027344 336.179688 L 451.695312 351.003906 L 450.285156 368.785156 L 449.058594 381.867188 L 447.390625 388.199219 L 446.058594 391.652344 L 446.0625 396.027344 L 447.390625 400.484375 L 449.058594 404.699219 L 450.300781 408.773438 L 451.671875 412.617188 L 453.023438 415.980469 L 454.214844 418.722656 L 455.804688 421.28125 L 457 424.105469 L 457.753906 427.613281 L 460.847656 431.960938 L 463.28125 436.449219 L 465.261719 440.324219 L 480.234375 443.140625 L 500.28125 443.273438 L 513.800781 439.894531 L 520.996094 436.09375 L 525.964844 433.691406 L 531.726562 433.585938 L 536.515625 435.34375 L 539.886719 437.816406 L 541.949219 440.175781 L 542.285156 443.03125 L 539.859375 446.566406 L 537.375 450.335938 L 547.125 452.601562 L 561.804688 453.0625 L 571.117188 452.042969 L 576.277344 450.414062 L 580.597656 448.992188 L 584.429688 447.746094 L 588.011719 446.335938 L 591.441406 444.292969 L 594.214844 440.941406 L 597.71875 436.199219 L 602.492188 430.433594 L 604.953125 424.757812 L 605.945312 418.890625 L 607.304688 412.777344 L 608.839844 408.214844 L 609.179688 405 L 607.566406 402.234375 L 605.492188 399.152344 L 601.742188 396.226562 L 595.972656 393.800781 L 593.191406 390.878906 L 593.503906 387.628906 L 595.226562 384.453125 L 596.695312 380.9375 L 597.890625 375.710938 L 599.238281 367.828125 L 600.820312 358.734375 L 601.128906 350.203125 L 599.292969 343.480469 L 597.714844 337.851562 L 596.621094 331.367188 L 595.417969 323.332031 L 593.707031 317.410156 L 592.222656 313.183594 L 590.4375 308.617188 L 583.777344 301.808594 L 574.796875 294.714844 L 568.195312 289.648438 L 566.730469 286.300781 L 565.742188 283.511719 L 561.386719 280.578125 L 558.375 278.441406 L 555.746094 276.972656 L 552.160156 275.695312 L 550.878906 274.378906 L 548.363281 273.046875 L 535.773438 271.808594 L 491.566406 270.78125 L 488.289062 272.101562 "/>
<path style="fill:none;stroke-width:0.75;stroke-linecap:round;stroke-linejoin:round;stroke:rgb(0%,0%,0%);stroke-opacity:1;stroke-miterlimit:10;" d="M 510.011719 488.242188 L 504.644531 494.378906 L 504.707031 502.144531 L 512.636719 508.722656 L 515.425781 510.773438 L 518.03125 512.113281 L 520.875 513.679688 L 525.878906 516.789062 L 529.113281 518.929688 L 531.269531 520.03125 L 534.285156 520.925781 L 536.742188 522.242188 L 539.769531 526.835938 L 557.996094 539.066406 L 558.964844 545.296875 L 559.691406 547.644531 L 562.78125 550.785156 L 565.035156 554.78125 L 567.007812 559.355469 L 574.199219 565.28125 L 574.558594 568.992188 L 576.992188 572.601562 L 577.441406 578.433594 L 579.082031 584.40625 L 580.757812 591.046875 L 581.769531 596.933594 L 582.804688 600.738281 L 585.058594 604.28125 L 585.222656 608.441406 L 587.859375 613.570312 L 587.648438 622.328125 L 593.84375 627.402344 L 597.703125 620.578125 L 599.265625 609.5 L 600.972656 603.390625 L 601.390625 600.988281 L 603.875 598.0625 L 604.089844 593.761719 L 606.261719 589.882812 L 607.519531 585.632812 L 608.160156 582.535156 L 607.488281 578.636719 L 606.328125 572.691406 L 609.367188 569.140625 L 609.355469 566.75 L 611.953125 560.546875 L 612.109375 547.757812 L 614.511719 542.34375 L 617.613281 541.132812 L 619.890625 539.257812 L 620.113281 534.757812 L 617.375 531.183594 L 617.390625 527.242188 L 620.066406 520.007812 L 619.855469 504.402344 L 628.945312 493.523438 L 621.632812 488.894531 L 510.492188 488.027344 L 510.011719 488.242188 "/>
<path style="fill:none;stroke-width:0.75;stroke-linecap:round;stroke-linejoin:round;stroke:rgb(0%,0%,0%);stroke-opacity:1;stroke-miterlimit:10;" d="M 848.789062 540.578125 L 849.378906 550.074219 L 848.535156 558.355469 L 847.582031 565.179688 L 847.570312 570.441406 L 848.4375 574.582031 L 849.863281 578.199219 L 851.515625 581.875 L 853.054688 586.0625 L 854.125 590.660156 L 854.355469 595.425781 L 853.375 600.128906 L 850.996094 604.585938 L 847.746094 608.871094 L 844.332031 613.121094 L 841.457031 617.472656 L 839.617188 622.003906 L 838.457031 626.589844 L 837.414062 631.042969 L 835.921875 635.179688 L 833.625 638.882812 L 830.996094 642.292969 L 828.71875 645.621094 L 827.476562 649.078125 L 827.71875 652.855469 L 828.988281 657.121094 L 830.585938 662.027344 L 831.828125 667.726562 L 832.207031 674.234375 L 832 680.984375 L 831.675781 687.273438 L 831.699219 692.394531 L 832.433594 695.941406 L 833.808594 698.707031 L 835.660156 701.773438 L 837.8125 706.238281 L 840.101562 712.84375 L 842.367188 720.996094 L 844.460938 729.757812 L 846.226562 738.195312 L 847.546875 745.558594 L 848.472656 751.835938 L 849.09375 757.203125 L 849.496094 761.835938 L 849.789062 765.953125 L 850.1875 769.953125 L 850.921875 774.285156 L 852.230469 779.390625 L 854.183594 785.59375 L 856.207031 792.691406 L 857.5625 800.371094 L 857.507812 808.308594 L 855.53125 816.121094 L 852.011719 823.171875 L 847.550781 828.773438 L 842.75 832.226562 L 838.09375 833.109375 L 833.609375 832.097656 L 829.210938 830.132812 L 824.804688 828.164062 L 820.378906 827 L 816.183594 826.875 L 812.546875 827.894531 L 809.796875 830.15625 L 808.109375 833.632812 L 807.082031 837.777344 L 806.164062 841.902344 L 804.890625 845.480469 L 803.089844 848.574219 L 800.675781 851.390625 L 797.5625 854.140625 L 793.828125 857.011719 L 790.222656 860.097656 L 787.652344 863.46875 L 787.03125 867.195312 L 788.9375 871.332031 L 792.570312 875.875 L 796.792969 880.816406 L 800.476562 886.132812 L 802.738281 891.777344 L 803.75 897.539062 L 803.949219 903.1875 L 803.757812 908.476562 L 803.539062 913.195312 L 803.332031 917.261719 L 803.101562 920.613281 L 802.824219 923.195312 L 802.339844 925.035156 L 801.039062 926.480469 L 798.183594 927.96875 L 793.042969 929.9375 L 785.175781 932.703125 L 775.285156 936.09375 L 764.375 939.816406 L 753.441406 943.585938 L 743.375 947.070312 L 734.582031 949.792969 L 727.367188 951.238281 L 722.027344 950.898438 L 718.679688 948.429688 L 716.742188 944.21875 L 715.441406 938.824219 L 714.011719 932.804688 L 711.863281 926.613281 L 709.113281 920.292969 L 706.0625 913.773438 L 703.003906 906.992188 L 700.183594 899.925781 L 697.636719 892.703125 L 695.335938 885.5 L 693.257812 878.488281 L 691.402344 871.757812 L 689.867188 865.015625 L 688.769531 857.890625 L 688.222656 850.011719 L 688.308594 841.167969 L 688.953125 831.835938 L 690.050781 822.65625 L 691.484375 814.269531 L 693.132812 807.109375 L 694.84375 800.75 L 696.433594 794.570312 L 697.742188 787.9375 L 698.617188 780.429688 L 699.042969 772.445312 L 699.027344 764.59375 L 698.578125 757.484375 L 697.789062 751.574219 L 697.101562 746.75 L 697.042969 742.753906 L 697.933594 739.332031 L 699.292969 736.292969 L 700.429688 733.445312 L 700.65625 730.601562 L 699.488281 727.589844 L 697.265625 724.292969 L 694.535156 720.597656 L 691.839844 716.398438 L 689.652344 711.589844 L 688.144531 706.050781 L 687.410156 699.667969 L 687.550781 692.3125 L 688.675781 684.03125 L 690.9375 675.496094 L 694.515625 667.542969 L 699.574219 660.996094 L 706.007812 656.441406 L 712.570312 653.449219 L 717.738281 651.335938 L 719.992188 649.429688 L 718.386719 647.179688 L 714.28125 644.578125 L 709.621094 641.761719 L 706.34375 638.855469 L 705.9375 635.9375 L 708.078125 632.914062 L 711.980469 629.628906 L 716.875 625.933594 L 722.003906 621.714844 L 726.746094 617.03125 L 730.507812 611.976562 L 732.691406 606.644531 L 733.007812 601.152344 L 732.367188 595.71875 L 731.972656 590.585938 L 733.039062 585.996094 L 736.257812 582.128906 L 740.257812 578.902344 L 743.152344 576.175781 L 743.058594 573.808594 L 738.816406 571.664062 L 732.203125 569.597656 L 725.726562 567.488281 L 721.886719 565.195312 L 722.378906 562.609375 L 725.621094 559.695312 L 729.226562 556.429688 L 730.792969 552.796875 L 728.578125 548.859375 L 723.382812 545.003906 L 716.65625 541.695312 L 709.847656 539.398438 L 704.121094 538.441406 L 699.496094 538.609375 L 695.707031 539.546875 L 692.484375 540.898438 L 689.589844 542.371094 L 686.910156 543.875 L 684.359375 545.375 L 681.84375 546.839844 L 679.289062 548.242188 L 676.652344 549.59375 L 673.890625 550.914062 L 670.980469 552.222656 L 667.933594 553.535156 L 664.773438 554.871094 L 661.515625 556.25 L 658.195312 557.667969 L 654.890625 559.078125 L 651.6875 560.410156 L 648.671875 561.597656 L 645.886719 562.617188 L 643.179688 563.589844 L 640.347656 564.679688 L 637.1875 566.054688 L 633.539062 567.890625 L 629.402344 570.429688 L 624.820312 573.941406 L 619.828125 578.675781 L 614.550781 584.796875 L 609.429688 592.0625 L 604.976562 600.128906 L 601.71875 608.648438 L 599.984375 617.265625 L 599.320312 625.566406 L 599.085938 633.117188 L 598.644531 639.488281 L 597.511719 644.40625 L 595.84375 648.175781 L 593.964844 651.269531 L 592.183594 654.140625 L 590.742188 657.195312 L 589.566406 660.542969 L 588.492188 664.242188 L 587.367188 668.335938 L 586.074219 672.8125 L 584.652344 677.394531 L 583.175781 681.738281 L 581.722656 685.503906 L 580.355469 688.527344 L 579.054688 691.355469 L 577.777344 694.714844 L 576.492188 699.332031 L 575.164062 705.738281 L 573.808594 713.6875 L 572.433594 722.730469 L 571.0625 732.421875 L 569.707031 742.332031 L 568.367188 752.0625 L 567.035156 761.230469 L 565.710938 769.457031 L 564.386719 776.484375 L 563.058594 782.558594 L 561.71875 788.046875 L 560.363281 793.324219 L 558.988281 798.695312 L 557.613281 804.203125 L 556.253906 809.8125 L 554.933594 815.503906 L 553.660156 821.246094 L 552.394531 827.039062 L 551.082031 832.878906 L 549.664062 838.761719 L 548.132812 844.960938 L 546.617188 852.84375 L 545.289062 864.054688 L 544.28125 880.035156 L 543.605469 901.449219 L 543.253906 928.757812 L 543.195312 962.425781 L 543.355469 1002.425781 L 543.398438 1046.804688 L 542.917969 1093.117188 L 541.515625 1138.914062 L 539.007812 1181.96875 L 536.09375 1220.914062 L 533.699219 1254.609375 L 532.738281 1281.898438 L 533.726562 1302.085938 L 535.554688 1316.285156 L 536.703125 1326.066406 L 535.65625 1332.992188 L 532.015625 1338.390625 L 529.898438 1342.613281 L 534.527344 1345.777344 L 551.136719 1347.988281 L 582.839844 1349.339844 L 624.28125 1349.816406 L 667.972656 1349.378906 L 706.441406 1347.988281 L 733.910156 1345.667969 L 751.382812 1342.683594 L 761.570312 1339.359375 L 767.179688 1336.019531 L 770.679688 1332.898438 L 773.574219 1329.871094 L 777.125 1326.722656 L 782.59375 1323.226562 L 790.773438 1319.242188 L 800.570312 1314.871094 L 810.425781 1310.300781 L 818.769531 1305.710938 L 824.550781 1301.222656 L 828.730469 1296.761719 L 832.777344 1292.191406 L 838.160156 1287.378906 L 845.859375 1282.253906 L 854.917969 1277.027344 L 863.886719 1271.964844 L 871.320312 1267.339844 L 876.199219 1263.335938 L 879.25 1259.785156 L 881.617188 1256.441406 L 884.453125 1253.042969 L 888.605469 1249.414062 L 893.671875 1245.621094 L 898.960938 1241.8125 L 903.761719 1238.128906 L 907.589844 1234.652344 L 910.824219 1231.226562 L 914.050781 1227.644531 L 917.855469 1223.691406 L 922.617188 1219.21875 L 927.828125 1214.347656 L 932.769531 1209.273438 L 936.71875 1204.183594 L 939.382812 1199.246094 L 942.160156 1194.542969 L 946.878906 1190.140625 L 954.703125 1186.085938 L 964.15625 1182.363281 L 973.109375 1178.9375 L 979.421875 1175.785156 L 981.585938 1172.863281 L 980.601562 1170.132812 L 978.101562 1167.542969 L 975.710938 1165.046875 L 974.746094 1162.546875 L 975.261719 1159.738281 L 977.011719 1156.261719 L 979.742188 1151.761719 L 983.191406 1146.023438 L 987.066406 1139.386719 L 991.0625 1132.324219 L 994.878906 1125.316406 L 998.246094 1118.753906 L 1001 1112.691406 L 1003.011719 1107.101562 L 1004.152344 1101.957031 L 1004.414062 1097.175781 L 1004.289062 1092.464844 L 1004.402344 1087.484375 L 1005.359375 1081.886719 L 1007.566406 1075.464844 L 1010.523438 1068.578125 L 1013.507812 1061.707031 L 1015.804688 1055.347656 L 1016.910156 1049.867188 L 1017.203125 1045.152344 L 1017.285156 1040.96875 L 1017.75 1037.078125 L 1019 1033.316406 L 1020.636719 1029.800781 L 1022.070312 1026.710938 L 1022.707031 1024.230469 L 1022.195312 1022.386719 L 1021.171875 1020.578125 L 1020.507812 1018.046875 L 1021.09375 1014.039062 L 1023.492188 1007.996094 L 1027.078125 1000.183594 L 1030.910156 991.070312 L 1034.058594 981.117188 L 1035.839844 970.785156 L 1036.59375 960.496094 L 1036.921875 950.652344 L 1037.417969 941.664062 L 1038.542969 933.71875 L 1040.167969 926.105469 L 1042.023438 917.882812 L 1043.84375 908.117188 L 1045.402344 896.222656 L 1046.636719 883.023438 L 1047.515625 869.695312 L 1048.023438 857.417969 L 1048.179688 847.019531 L 1048.195312 837.953125 L 1048.328125 829.320312 L 1048.832031 820.234375 L 1049.824219 810.035156 L 1050.851562 799.035156 L 1051.308594 787.789062 L 1050.765625 776.820312 L 1049.4375 766.570312 L 1047.707031 757.453125 L 1045.960938 749.882812 L 1044.492188 744.023438 L 1043.253906 739.019531 L 1042.105469 733.761719 L 1040.914062 727.140625 L 1039.582031 718.414062 L 1038.148438 708.277344 L 1036.691406 697.78125 L 1035.289062 687.984375 L 1033.992188 679.726562 L 1032.753906 673 L 1031.503906 667.574219 L 1030.167969 663.230469 L 1028.703125 659.738281 L 1027.195312 656.867188 L 1025.75 654.382812 L 1024.476562 652.046875 L 1023.433594 649.660156 L 1022.421875 647.117188 L 1021.195312 644.34375 L 1019.503906 641.265625 L 1017.195312 637.839844 L 1014.492188 634.109375 L 1011.71875 630.15625 L 1009.203125 626.054688 L 1007.183594 621.878906 L 1005.597656 617.722656 L 1004.285156 613.664062 L 1003.101562 609.796875 L 1001.914062 606.171875 L 1000.683594 602.714844 L 999.382812 599.320312 L 997.988281 595.886719 L 996.433594 592.324219 L 994.488281 588.625 L 991.882812 584.800781 L 988.335938 580.859375 L 983.726562 576.847656 L 978.550781 572.957031 L 973.4375 569.410156 L 969.03125 566.445312 L 965.765625 564.191406 L 963.25 562.4375 L 960.890625 560.886719 L 958.101562 559.234375 L 954.460938 557.25 L 950.238281 554.980469 L 945.882812 552.542969 L 941.84375 550.054688 L 938.347656 547.625 L 934.746094 545.320312 L 930.160156 543.214844 L 923.726562 541.363281 L 914.878906 539.8125 L 904.3125 538.476562 L 893.03125 537.261719 L 882.035156 536.066406 L 872.140625 534.808594 L 863.40625 533.511719 L 855.707031 532.222656 L 848.914062 530.988281 L 848.789062 540.578125 "/>
<path style="fill:none;stroke-width:0.75;stroke-linecap:round;stroke-linejoin:round;stroke:rgb(0%,0%,0%);stroke-opacity:1;stroke-miterlimit:10;" d="M 711.660156 182.226562 L 707.832031 184.585938 L 698.898438 187.398438 L 688.132812 191.011719 L 677.777344 195.277344 L 669.808594 199.925781 L 665.585938 204.644531 L 663.953125 208.941406 L 663.140625 212.273438 L 661.65625 214.398438 L 659.15625 216.199219 L 655.59375 218.847656 L 651.089844 223.199219 L 646.515625 228.804688 L 642.917969 234.90625 L 641.019531 240.847656 L 640.269531 246.4375 L 639.785156 251.613281 L 638.863281 256.339844 L 637.441406 260.746094 L 635.628906 265.007812 L 633.503906 269.457031 L 631.015625 275.101562 L 628.070312 283.097656 L 624.878906 294.246094 L 622.839844 307.878906 L 623.078125 322.703125 L 624.429688 336.390625 L 625.148438 346.355469 L 624.050781 350.949219 L 622.109375 352.289062 L 620.84375 353.441406 L 621.378906 356.671875 L 623.21875 361.097656 L 625.476562 365.042969 L 627.367188 367.839844 L 628.554688 372.863281 L 628.804688 384.503906 L 628.078125 405.398438 L 627.078125 431.214844 L 626.6875 455.875 L 627.570312 474.457031 L 629.503906 486.699219 L 632.03125 493.488281 L 634.785156 495.921875 L 637.742188 495.902344 L 640.960938 495.539062 L 644.449219 496.4375 L 648.027344 498.253906 L 651.460938 500.132812 L 654.609375 501.46875 L 657.734375 502.558594 L 661.125 503.820312 L 664.835938 505.222656 L 668.859375 506.621094 L 673.125 507.914062 L 677.34375 509.179688 L 681.171875 510.546875 L 684.449219 512.140625 L 687.742188 514.035156 L 691.808594 516.3125 L 697.144531 518.886719 L 703.234375 521.078125 L 709.3125 522.042969 L 714.445312 521.167969 L 717.039062 518.734375 L 715.34375 515.242188 L 708.617188 511.144531 L 700.203125 506.746094 L 694.453125 502.292969 L 694.289062 497.992188 L 696.855469 493.863281 L 697.878906 489.867188 L 694.367188 486.027344 L 688.582031 482.59375 L 684.070312 479.871094 L 683.230469 477.777344 L 683.769531 474.613281 L 683.070312 468.941406 L 681.839844 461.894531 L 681.632812 455.261719 L 683.527344 450.347656 L 686.765625 446.578125 L 690.132812 442.898438 L 692.550781 438.589844 L 693.515625 434.210938 L 692.664062 430.644531 L 689.875 428.449219 L 685.964844 426.824219 L 681.980469 424.636719 L 678.769531 420.917969 L 676.363281 415.320312 L 674.570312 407.652344 L 673.195312 398.121094 L 671.945312 388.480469 L 670.515625 380.863281 L 668.75 376.753906 L 667.140625 374.976562 L 666.335938 373.695312 L 666.699219 371.265625 L 667.464844 366.820312 L 667.703125 360.046875 L 666.972656 352.023438 L 664.960938 344.199219 L 661.683594 337.753906 L 658.492188 332.835938 L 657.0625 329.34375 L 658.5 327.050781 L 661.542969 325.261719 L 664.355469 323.167969 L 665.535156 320.210938 L 665.441406 316.835938 L 664.878906 313.734375 L 664.539062 311.398438 L 664.726562 309.457031 L 665.640625 307.332031 L 667.316406 304.535156 L 669.117188 300.902344 L 670.242188 296.363281 L 670.304688 290.988281 L 670.542969 285.441406 L 672.605469 280.519531 L 677.390625 276.777344 L 682.785156 273.726562 L 685.925781 270.636719 L 684.898438 266.925781 L 681.570312 262.640625 L 678.507812 258.035156 L 677.203125 253.597656 L 678.894531 249.875 L 684.175781 247.222656 L 691.132812 245.226562 L 697.199219 243.300781 L 700.410156 240.953125 L 701.144531 238.101562 L 700.363281 234.777344 L 699.515625 231.109375 L 701.96875 227.589844 L 711.574219 224.804688 L 730.40625 223.28125 L 753.4375 223.285156 L 773.867188 225.003906 L 786.519531 228.488281 L 792.71875 233.191406 L 795.421875 238.40625 L 797.21875 243.539062 L 799.25 248.410156 L 802.289062 252.941406 L 806.746094 257.089844 L 811.503906 260.90625 L 815.085938 264.480469 L 816.511719 267.933594 L 816.789062 271.589844 L 817.136719 275.679688 L 817.605469 279.914062 L 817.949219 283.878906 L 818.160156 287.335938 L 819.128906 290.8125 L 821.996094 295.015625 L 827.210938 300.34375 L 832.53125 305.945312 L 835.042969 310.652344 L 832.886719 313.699219 L 828.410156 315.894531 L 825.015625 318.445312 L 825.304688 322.199219 L 828.625 326.539062 L 833.511719 330.496094 L 838.722656 333.582031 L 843.832031 337.300781 L 848.636719 343.640625 L 852.9375 353.738281 L 856.539062 365.289062 L 859.265625 375.144531 L 860.839844 381.054688 L 860.65625 384.410156 L 858.535156 387.15625 L 856.414062 389.785156 L 856.75 392.4375 L 861.046875 395.285156 L 866.941406 398.660156 L 871.117188 402.9375 L 871.199219 408.363281 L 868.566406 414.703125 L 865.535156 421.589844 L 864.015625 428.71875 L 864.253906 435.996094 L 866.085938 443.371094 L 869.164062 450.765625 L 872.398438 457.917969 L 874.511719 464.539062 L 874.519531 470.402344 L 872.605469 475.53125 L 869.253906 480.011719 L 865.039062 483.945312 L 860.949219 487.433594 L 858.070312 490.597656 L 857.179688 493.554688 L 857.855469 496.472656 L 859.359375 499.523438 L 861.128906 502.734375 L 863.261719 505.519531 L 865.933594 507.257812 L 869.011719 507.820312 L 872.289062 507.195312 L 875.578125 505.472656 L 878.855469 503.125 L 882.125 500.714844 L 885.371094 498.699219 L 888.5 497.074219 L 891.398438 495.722656 L 894.003906 494.523438 L 896.464844 493.332031 L 898.984375 492.003906 L 901.726562 490.433594 L 904.734375 488.691406 L 908.03125 486.890625 L 911.574219 485.101562 L 915.15625 483.199219 L 918.511719 481.019531 L 921.476562 478.417969 L 924.269531 475.382812 L 927.207031 471.933594 L 930.371094 468.152344 L 932.9375 464.4375 L 933.851562 461.265625 L 932.457031 458.824219 L 929.683594 456.160156 L 926.640625 452.28125 L 923.597656 447.09375 L 920.613281 440.742188 L 917.757812 433.53125 L 915.183594 426.367188 L 913.070312 420.328125 L 911.480469 416.113281 L 910.117188 412.964844 L 908.570312 409.75 L 906.570312 405.613281 L 904.378906 400.816406 L 902.390625 395.882812 L 900.832031 391.128906 L 899.289062 385.96875 L 897.175781 379.582031 L 894.160156 371.535156 L 890.917969 362.828125 L 888.378906 354.839844 L 887.125 348.585938 L 886.367188 343.695312 L 884.976562 339.433594 L 882.277344 335.210938 L 879.464844 330.964844 L 877.796875 326.773438 L 876.917969 322.671875 L 876.082031 318.691406 L 874.695312 314.855469 L 872.832031 311.160156 L 870.722656 307.59375 L 868.585938 304.160156 L 866.570312 300.894531 L 864.796875 297.832031 L 863.347656 295.007812 L 862.121094 292.363281 L 860.96875 289.832031 L 859.765625 287.34375 L 858.480469 284.796875 L 857.105469 282.074219 L 855.597656 279.078125 L 853.761719 275.738281 L 851.367188 271.976562 L 848.339844 267.824219 L 845.246094 263.683594 L 842.808594 260.050781 L 841.503906 257.25 L 840.820312 254.910156 L 839.980469 252.5 L 838.390625 249.578125 L 836.121094 246.125 L 833.425781 242.257812 L 830.636719 238.25 L 828.101562 234.417969 L 826.070312 230.984375 L 824.355469 227.789062 L 822.679688 224.585938 L 820.707031 221.136719 L 817.886719 217.253906 L 813.628906 212.765625 L 807.652344 207.671875 L 800.964844 202.671875 L 794.894531 198.625 L 790.484375 196.140625 L 787.660156 194.765625 L 786.074219 193.785156 L 785.125 192.632812 L 783.273438 191.289062 L 778.726562 189.882812 L 770.671875 188.507812 L 762.175781 187.167969 L 757.277344 185.835938 L 756.632812 184.511719 L 747.339844 183.261719 L 713.128906 182.175781 L 711.660156 182.226562 "/>
<path style="fill:none;stroke-width:0.75;stroke-linecap:round;stroke-linejoin:round;stroke:rgb(0%,0%,0%);stroke-opacity:1;stroke-miterlimit:10;" d="M 956.984375 342.933594 L 947.484375 350.714844 L 943.011719 357.007812 L 942.300781 362.621094 L 943.164062 368.570312 L 944.125 374.367188 L 944.128906 379.335938 L 943.085938 383.496094 L 941.324219 387.136719 L 939.921875 390.867188 L 939.890625 395.21875 L 941.179688 400.074219 L 943.21875 405.285156 L 944.460938 411.21875 L 943.78125 418.101562 L 942.769531 425.035156 L 943.09375 431.070312 L 944.039062 436.175781 L 944.378906 440.632812 L 943.246094 445.066406 L 940.414062 450.226562 L 937.84375 456.976562 L 937.417969 465.722656 L 938.496094 474.890625 L 939.984375 482.753906 L 941.503906 489 L 942.886719 493.769531 L 944.160156 497.664062 L 945.398438 501.246094 L 946.78125 504.46875 L 948.359375 507.203125 L 949.597656 509.621094 L 950.269531 512.128906 L 951.878906 515.753906 L 955.957031 521.378906 L 962.390625 528.664062 L 970.234375 536.792969 L 976.886719 544.191406 L 980.261719 549.570312 L 981.964844 553.539062 L 984.011719 557.011719 L 986.335938 560.261719 L 988.414062 563.367188 L 989.960938 566.28125 L 990.976562 569.003906 L 992.292969 571.910156 L 994.605469 575.304688 L 997.175781 578.863281 L 999.148438 582.175781 L 1000.621094 585.175781 L 1001.90625 587.898438 L 1003.171875 590.464844 L 1004.515625 592.992188 L 1005.890625 595.519531 L 1007.222656 598.199219 L 1008.554688 601.765625 L 1009.914062 606.898438 L 1011.261719 613.441406 L 1012.558594 620.773438 L 1013.902344 627.160156 L 1015.351562 631.183594 L 1016.667969 633.769531 L 1017.730469 636.21875 L 1019.164062 639.007812 L 1021.480469 642.296875 L 1024.003906 645.878906 L 1025.96875 649.492188 L 1027.464844 653.082031 L 1028.753906 656.621094 L 1030.011719 659.960938 L 1031.347656 663.050781 L 1032.722656 666.351562 L 1034.082031 670.316406 L 1035.410156 674.871094 L 1036.710938 679.875 L 1038.066406 685.515625 L 1039.503906 691.984375 L 1040.800781 699.167969 L 1041.851562 706.699219 L 1043.261719 713.5 L 1045.824219 718.691406 L 1050.304688 722.902344 L 1056.75 726.898438 L 1062.324219 730.492188 L 1064.652344 733.445312 L 1066.136719 736.324219 L 1070.445312 739.46875 L 1081.578125 741.578125 L 1100.566406 741.417969 L 1116.242188 739.605469 L 1119.867188 736.925781 L 1124.671875 732.917969 L 1143.117188 727.175781 L 1162.613281 720.675781 L 1169.242188 714.585938 L 1168.820312 709.402344 L 1169.929688 705.195312 L 1172.53125 701.007812 L 1174.84375 696.03125 L 1176.832031 691.070312 L 1178.78125 687.003906 L 1180.507812 683.386719 L 1181.828125 679.632812 L 1183.0625 675.867188 L 1184.410156 672.261719 L 1185.074219 668.539062 L 1184.519531 664.160156 L 1184.199219 658.070312 L 1185.457031 649.742188 L 1187.230469 641.300781 L 1188.070312 634.9375 L 1187.367188 630.464844 L 1185.246094 627.035156 L 1183.949219 623.535156 L 1185.125 619.058594 L 1186.027344 613.808594 L 1183.902344 608.285156 L 1180.503906 603.066406 L 1178.046875 598.582031 L 1176.214844 594.574219 L 1174.113281 590.761719 L 1171.140625 587.472656 L 1167.320312 584.742188 L 1164.96875 580.855469 L 1165.839844 574.136719 L 1167.230469 564.910156 L 1166.171875 554.410156 L 1163.121094 545.566406 L 1159.515625 540.632812 L 1157.273438 537.449219 L 1157.4375 533.207031 L 1157.082031 527.015625 L 1153.699219 518.523438 L 1150.449219 507.71875 L 1150.113281 495.226562 L 1148.265625 483.828125 L 1140.863281 475.945312 L 1132.5 470.371094 L 1128.160156 465.363281 L 1125.699219 460.707031 L 1122.238281 456.441406 L 1119.09375 452.101562 L 1117.753906 447.339844 L 1116.167969 442.804688 L 1112.234375 439.1875 L 1107.214844 436.46875 L 1103.257812 434.398438 L 1102.757812 432.605469 L 1106.714844 430.566406 L 1110.28125 427.261719 L 1108.644531 421.933594 L 1102.972656 415.320312 L 1095.957031 408.320312 L 1090.40625 400.929688 L 1088.167969 393.4375 L 1087.136719 388.152344 L 1084.984375 387.058594 L 1082.363281 388.851562 L 1080.371094 391.503906 L 1078.859375 393.457031 L 1077.363281 393.566406 L 1075.359375 391.941406 L 1071.746094 389.066406 L 1063.207031 385.742188 L 1048.367188 382.578125 L 1035.824219 379.199219 L 1033.269531 375.113281 L 1034.738281 370.371094 L 1033.089844 365.335938 L 1030.121094 361.058594 L 1028.753906 358.3125 L 1027.445312 356.039062 L 1023.460938 353.253906 L 1013.65625 350.980469 L 997.105469 350.3125 L 982.164062 350.472656 L 976.296875 350.375 L 974.171875 349.488281 L 969.375 347.605469 L 963.867188 345.265625 L 960.628906 343.03125 L 958.265625 340.886719 L 956.984375 342.933594 "/>
</g>
</svg>
