<?xml version="1.0" encoding="UTF-8"?>
<svg xmlns="http://www.w3.org/2000/svg" xmlns:xlink="http://www.w3.org/1999/xlink" width="1428pt" height="1605pt" viewBox="0 0 1428 1605" version="1.1">
<g id="surface309">
<rect x="0" y="0" width="1428" height="1605" style="fill:rgb(100%,100%,100%);fill-opacity:1;stroke:none;"/>
<path style="fill:none;stroke-width:0.75;stroke-linecap:round;stroke-linejoin:round;stroke:rgb(0%,0%,0%);stroke-opacity:1;stroke-miterlimit:10;" d="M 712.011719 168.039062 L 702.726562 172.523438 L 695.183594 175.945312 L 688.914062 178.675781 L 683.4375 181.09375 L 678.285156 183.570312 L 673.097656 186.402344 L 667.976562 189.574219 L 663.136719 192.984375 L 658.792969 196.539062 L 655.167969 200.144531 L 652.402344 203.714844 L 650.34375 207.238281 L 648.773438 210.714844 L 647.472656 214.140625 L 646.21875 217.523438 L 644.824219 220.867188 L 643.253906 224.214844 L 641.519531 227.609375 L 639.621094 231.101562 L 637.5625 234.738281 L 635.34375 238.570312 L 632.992188 242.632812 L 630.582031 246.941406 L 628.207031 251.5 L 625.960938 256.3125 L 623.945312 261.390625 L 622.21875 266.738281 L 620.753906 272.394531 L 619.488281 278.40625 L 618.359375 284.816406 L 617.304688 291.664062 L 616.300781 298.957031 L 615.429688 306.539062 L 614.804688 314.21875 L 614.546875 321.792969 L 614.769531 329.078125 L 615.53125 335.933594 L 616.660156 342.492188 L 617.925781 348.941406 L 619.09375 355.472656 L 619.9375 362.273438 L 620.222656 369.539062 L 619.777344 377.25 L 618.644531 384.613281 L 616.921875 390.613281 L 614.710938 394.253906 L 612.109375 394.527344 L 609.230469 390.773438 L 606.246094 383.734375 L 603.328125 374.488281 L 600.667969 364.121094 L 598.441406 353.71875 L 596.773438 344.179688 L 595.597656 335.671875 L 594.777344 328.171875 L 594.183594 321.664062 L 593.6875 316.128906 L 593.15625 311.5 L 592.425781 307.511719 L 591.328125 303.847656 L 589.691406 300.191406 L 587.351562 296.226562 L 584.132812 291.636719 L 579.828125 286.277344 L 574.039062 280.640625 L 566.324219 275.398438 L 556.242188 271.214844 L 543.351562 268.757812 L 527.558594 268.492188 L 510.160156 270.109375 L 492.792969 273.097656 L 477.101562 276.941406 L 464.726562 281.132812 L 456.863281 285.28125 L 452.886719 289.449219 L 451.738281 293.828125 L 452.339844 298.597656 L 453.632812 303.953125 L 454.542969 310.070312 L 454.257812 317.070312 L 452.964844 324.820312 L 451.097656 333.113281 L 449.09375 341.738281 L 447.394531 350.496094 L 446.339844 359.21875 L 445.886719 367.898438 L 445.894531 376.5625 L 446.21875 385.242188 L 446.722656 393.964844 L 447.308594 402.710938 L 448.042969 411.242188 L 449.042969 419.261719 L 450.421875 426.484375 L 452.289062 432.613281 L 454.71875 437.460938 L 457.589844 441.199219 L 460.753906 444.109375 L 464.046875 446.46875 L 467.3125 448.554688 L 470.390625 450.640625 L 473.226562 452.898438 L 476.132812 455.070312 L 479.527344 456.804688 L 483.828125 457.734375 L 489.449219 457.5 L 496.609375 455.914062 L 504.753906 453.441406 L 513.125 450.730469 L 520.972656 448.421875 L 527.546875 447.148438 L 532.234375 447.40625 L 535.003906 449.058594 L 535.964844 451.8125 L 535.230469 455.386719 L 532.910156 459.488281 L 529.183594 463.875 L 524.484375 468.472656 L 519.3125 473.257812 L 514.160156 478.195312 L 509.539062 483.261719 L 505.9375 488.429688 L 503.699219 493.617188 L 502.523438 498.554688 L 501.957031 502.921875 L 501.535156 506.394531 L 500.800781 508.65625 L 499.375 509.457031 L 497.199219 508.859375 L 494.292969 507 L 490.675781 504.007812 L 486.363281 500.027344 L 481.402344 495.21875 L 475.917969 489.886719 L 470.054688 484.351562 L 463.957031 478.949219 L 457.773438 474.007812 L 451.65625 469.855469 L 445.671875 466.6875 L 439.617188 464.164062 L 433.21875 461.820312 L 426.191406 459.179688 L 418.261719 455.769531 L 409.148438 451.3125 L 398.527344 446.285156 L 386.070312 441.351562 L 371.460938 437.179688 L 354.363281 434.4375 L 334.777344 433.613281 L 313.976562 434.472656 L 293.554688 436.597656 L 275.105469 439.574219 L 260.230469 442.988281 L 250.039062 446.492188 L 243.722656 450.015625 L 240 453.558594 L 237.574219 457.121094 L 235.160156 460.703125 L 231.46875 464.300781 L 225.546875 467.949219 L 217.761719 471.777344 L 208.816406 475.953125 L 199.417969 480.644531 L 190.261719 486.011719 L 181.933594 492.152344 L 174.527344 498.890625 L 168.011719 505.972656 L 162.359375 513.15625 L 157.542969 520.183594 L 153.515625 526.867188 L 150.148438 533.214844 L 147.296875 539.285156 L 144.816406 545.140625 L 142.566406 550.839844 L 140.414062 556.429688 L 138.3125 561.875 L 136.234375 567.113281 L 134.140625 572.09375 L 132.007812 576.757812 L 129.800781 581.054688 L 127.5 584.980469 L 125.125 588.730469 L 122.707031 592.566406 L 120.277344 596.734375 L 117.859375 601.496094 L 115.488281 607 L 113.191406 613.035156 L 110.996094 619.28125 L 108.925781 625.425781 L 107.011719 631.15625 L 105.257812 636.25 L 103.59375 640.871094 L 101.925781 645.285156 L 100.15625 649.75 L 98.199219 654.523438 L 95.960938 659.871094 L 93.382812 665.945312 L 90.59375 672.441406 L 87.761719 678.96875 L 85.042969 685.117188 L 82.609375 690.480469 L 80.582031 694.792969 L 78.894531 698.332031 L 77.4375 701.5 L 76.113281 704.710938 L 74.804688 708.371094 L 73.429688 712.789062 L 72 717.882812 L 70.535156 723.457031 L 69.066406 729.328125 L 67.625 735.308594 L 66.230469 741.234375 L 64.878906 747.019531 L 63.558594 752.597656 L 62.261719 757.90625 L 60.972656 762.886719 L 59.6875 767.472656 L 58.398438 771.621094 L 57.132812 775.375 L 55.921875 778.792969 L 54.800781 781.949219 L 53.804688 784.894531 L 52.960938 787.675781 L 52.285156 790.230469 L 51.777344 792.480469 L 51.453125 794.332031 L 51.316406 795.710938 L 51.347656 796.660156 L 51.429688 797.746094 L 51.40625 799.667969 L 51.136719 803.121094 L 50.464844 808.800781 L 49.292969 817.175781 L 47.726562 827.777344 L 45.90625 839.894531 L 43.988281 852.828125 L 42.121094 865.871094 L 40.453125 878.328125 L 39.105469 889.597656 L 38.089844 899.53125 L 37.378906 908.089844 L 36.957031 915.230469 L 36.804688 920.910156 L 36.898438 925.191406 L 37.203125 928.53125 L 37.671875 931.488281 L 38.269531 934.625 L 38.953125 938.503906 L 39.695312 943.507812 L 40.496094 949.375 L 41.378906 955.660156 L 42.351562 961.929688 L 43.4375 967.738281 L 44.652344 972.652344 L 45.992188 976.390625 L 47.433594 979.320312 L 48.921875 981.964844 L 50.417969 984.855469 L 51.871094 988.519531 L 53.253906 993.328125 L 54.574219 999.054688 L 55.855469 1005.320312 L 57.121094 1011.746094 L 58.402344 1017.957031 L 59.710938 1023.636719 L 61.042969 1028.742188 L 62.402344 1033.296875 L 63.773438 1037.332031 L 65.152344 1040.867188 L 66.53125 1043.949219 L 67.902344 1046.71875 L 69.253906 1049.335938 L 70.578125 1051.964844 L 71.867188 1054.765625 L 73.105469 1057.898438 L 74.320312 1061.507812 L 75.636719 1065.628906 L 77.226562 1070.285156 L 79.246094 1075.488281 L 81.863281 1081.269531 L 85.171875 1087.570312 L 89.007812 1094.085938 L 93.140625 1100.441406 L 97.332031 1106.261719 L 101.347656 1111.171875 L 105.019531 1114.925781 L 108.417969 1117.800781 L 111.667969 1120.207031 L 114.898438 1122.542969 L 118.238281 1125.21875 L 121.78125 1128.546875 L 125.441406 1132.464844 L 129.101562 1136.804688 L 132.640625 1141.417969 L 135.945312 1146.136719 L 138.890625 1150.804688 L 141.414062 1155.296875 L 143.648438 1159.628906 L 145.785156 1163.847656 L 148.019531 1168.003906 L 150.542969 1172.148438 L 153.496094 1176.316406 L 156.84375 1180.519531 L 160.5 1184.753906 L 164.390625 1189.007812 L 168.425781 1193.285156 L 172.503906 1197.566406 L 176.441406 1201.785156 L 180.039062 1205.871094 L 183.09375 1209.738281 L 185.398438 1213.3125 L 186.75 1216.519531 L 187.09375 1219.320312 L 186.917969 1221.859375 L 186.863281 1224.308594 L 187.5625 1226.855469 L 189.65625 1229.675781 L 193.542969 1232.914062 L 198.691406 1236.53125 L 204.328125 1240.449219 L 209.6875 1244.59375 L 214 1248.886719 L 216.730469 1253.261719 L 218.277344 1257.714844 L 219.277344 1262.253906 L 220.363281 1266.878906 L 222.171875 1271.601562 L 225.1875 1276.425781 L 229.304688 1281.34375 L 234.257812 1286.347656 L 239.792969 1291.429688 L 245.652344 1296.574219 L 251.574219 1301.78125 L 257.332031 1307.015625 L 262.84375 1312.175781 L 268.042969 1317.144531 L 272.882812 1321.800781 L 277.296875 1326.023438 L 281.25 1329.738281 L 284.742188 1333.0625 L 287.792969 1336.160156 L 290.414062 1339.199219 L 292.625 1342.347656 L 294.46875 1345.714844 L 296.089844 1349.222656 L 297.664062 1352.738281 L 299.355469 1356.125 L 301.347656 1359.257812 L 303.859375 1362.039062 L 307.367188 1364.523438 L 312.390625 1366.816406 L 319.464844 1369.007812 L 329.105469 1371.195312 L 341.847656 1373.480469 L 357.878906 1375.898438 L 376.039062 1378.269531 L 394.839844 1380.359375 L 412.785156 1381.929688 L 428.382812 1382.75 L 440.523438 1382.652344 L 449.609375 1381.78125 L 456.4375 1380.355469 L 461.789062 1378.59375 L 466.464844 1376.710938 L 471.195312 1374.863281 L 476.53125 1372.945312 L 482.96875 1370.796875 L 491.003906 1368.25 L 501.140625 1365.136719 L 513.664062 1361.378906 L 528.050781 1357.21875 L 543.566406 1352.984375 L 559.480469 1349.003906 L 575.0625 1345.605469 L 589.578125 1343.117188 L 602.480469 1341.773438 L 613.933594 1341.445312 L 624.300781 1341.910156 L 633.929688 1342.945312 L 643.179688 1344.328125 L 652.3125 1345.855469 L 661.253906 1347.390625 L 669.835938 1348.820312 L 677.894531 1350.023438 L 685.269531 1350.890625 L 691.859375 1351.328125 L 697.839844 1351.339844 L 703.441406 1350.957031 L 708.90625 1350.214844 L 714.472656 1349.144531 L 720.375 1347.769531 L 726.769531 1346.128906 L 733.511719 1344.253906 L 740.371094 1342.183594 L 747.109375 1339.957031 L 753.5 1337.605469 L 759.398438 1335.148438 L 764.960938 1332.546875 L 770.449219 1329.742188 L 776.101562 1326.671875 L 782.171875 1323.28125 L 788.8125 1319.542969 L 795.804688 1315.578125 L 802.835938 1311.542969 L 809.585938 1307.59375 L 815.742188 1303.882812 L 821.089844 1300.519531 L 825.78125 1297.414062 L 830.066406 1294.429688 L 834.207031 1291.429688 L 838.445312 1288.269531 L 843.042969 1284.820312 L 848.15625 1280.992188 L 853.613281 1276.925781 L 859.152344 1272.820312 L 864.507812 1268.867188 L 869.417969 1265.265625 L 873.71875 1262.109375 L 877.640625 1259.125 L 881.519531 1255.933594 L 885.691406 1252.167969 L 890.480469 1247.445312 L 896.175781 1241.511719 L 902.835938 1234.542969 L 910.480469 1226.839844 L 919.121094 1218.683594 L 928.769531 1210.378906 L 939.308594 1202.199219 L 950.105469 1194.371094 L 960.386719 1187.09375 L 969.390625 1180.582031 L 976.339844 1175.039062 L 980.476562 1170.675781 L 981.359375 1167.570312 L 979.898438 1165.300781 L 977.332031 1163.316406 L 974.898438 1161.066406 L 973.839844 1157.996094 L 975.058594 1153.726562 L 978.113281 1148.519531 L 982.230469 1142.816406 L 986.625 1137.046875 L 990.523438 1131.648438 L 993.332031 1126.945312 L 995.15625 1122.824219 L 996.289062 1119.0625 L 997.019531 1115.441406 L 997.648438 1111.734375 L 998.457031 1107.71875 L 999.664062 1103.25 L 1001.203125 1098.464844 L 1002.917969 1093.578125 L 1004.664062 1088.796875 L 1006.296875 1084.335938 L 1007.703125 1080.324219 L 1008.917969 1076.570312 L 1010.007812 1072.800781 L 1011.046875 1068.734375 L 1012.109375 1064.101562 L 1013.25 1058.726562 L 1014.523438 1052.847656 L 1015.957031 1046.800781 L 1017.597656 1040.925781 L 1019.480469 1035.554688 L 1021.609375 1030.886719 L 1023.898438 1026.535156 L 1026.21875 1021.972656 L 1028.445312 1016.667969 L 1030.457031 1010.089844 L 1032.132812 1001.710938 L 1033.394531 991.226562 L 1034.382812 979.21875 L 1035.28125 966.5 L 1036.277344 953.875 L 1037.554688 942.152344 L 1039.226562 931.960938 L 1041.097656 923.179688 L 1042.910156 915.511719 L 1044.386719 908.652344 L 1045.273438 902.304688 L 1045.398438 896.125 L 1045.027344 889.613281 L 1044.523438 882.230469 L 1044.25 873.429688 L 1044.574219 862.675781 L 1045.714844 849.632812 L 1047.332031 834.8125 L 1048.953125 818.933594 L 1050.097656 802.710938 L 1050.28125 786.871094 L 1049.027344 772.128906 L 1046.191406 759.152344 L 1042.976562 748.414062 L 1040.929688 740.335938 L 1041.578125 735.328125 L 1046.472656 733.824219 L 1056.589844 735.929688 L 1070.683594 740.546875 L 1086.945312 746.273438 L 1103.566406 751.710938 L 1118.738281 755.449219 L 1131.042969 756.433594 L 1140.574219 754.992188 L 1147.808594 751.792969 L 1153.226562 747.507812 L 1157.3125 742.808594 L 1160.542969 738.371094 L 1163.34375 734.675781 L 1165.917969 731.460938 L 1168.414062 728.285156 L 1170.988281 724.695312 L 1173.78125 720.25 L 1176.894531 714.664062 L 1180.195312 708.292969 L 1183.484375 701.652344 L 1186.578125 695.269531 L 1189.285156 689.65625 L 1191.464844 685.207031 L 1193.183594 681.820312 L 1194.550781 679.265625 L 1195.6875 677.300781 L 1196.703125 675.707031 L 1197.6875 674.210938 L 1198.59375 672.421875 L 1199.347656 669.898438 L 1199.875 666.214844 L 1200.101562 660.9375 L 1199.953125 653.632812 L 1199.378906 644.070312 L 1198.40625 632.804688 L 1197.082031 620.605469 L 1195.460938 608.226562 L 1193.589844 596.429688 L 1191.511719 585.808594 L 1189.234375 576.324219 L 1186.761719 567.769531 L 1184.097656 559.933594 L 1181.238281 552.609375 L 1178.207031 545.59375 L 1175.054688 538.675781 L 1171.859375 531.65625 L 1168.695312 524.324219 L 1165.632812 516.472656 L 1162.726562 508.015625 L 1159.976562 499.304688 L 1157.363281 490.8125 L 1154.859375 483.011719 L 1152.453125 476.378906 L 1150.125 471.378906 L 1147.851562 468.261719 L 1145.632812 466.351562 L 1143.476562 464.761719 L 1141.375 462.589844 L 1139.339844 458.945312 L 1137.347656 453.207031 L 1135.339844 445.867188 L 1133.230469 437.691406 L 1130.9375 429.445312 L 1128.378906 421.898438 L 1125.519531 415.625 L 1122.507812 410.464844 L 1119.523438 406.0625 L 1116.765625 402.0625 L 1114.417969 398.109375 L 1112.671875 393.847656 L 1111.632812 389.035156 L 1111.050781 383.855469 L 1110.597656 378.605469 L 1109.933594 373.578125 L 1108.734375 369.0625 L 1106.75 365.289062 L 1104.09375 362.226562 L 1100.964844 359.773438 L 1097.5625 357.824219 L 1094.082031 356.285156 L 1090.710938 355.078125 L 1087.554688 354.230469 L 1084.703125 353.796875 L 1082.257812 353.824219 L 1080.304688 354.367188 L 1078.878906 355.40625 L 1077.792969 356.65625 L 1076.796875 357.757812 L 1075.648438 358.359375 L 1074.09375 358.09375 L 1071.894531 356.609375 L 1068.777344 353.710938 L 1064.40625 349.855469 L 1058.421875 345.660156 L 1050.464844 341.742188 L 1040.179688 338.722656 L 1027.46875 337.03125 L 1013.292969 336.375 L 998.886719 336.261719 L 985.46875 336.207031 L 974.273438 335.730469 L 966.160156 334.484375 L 960.546875 332.683594 L 956.488281 330.691406 L 953.039062 328.871094 L 949.25 327.574219 L 944.433594 327.125 L 938.917969 327.695312 L 933.285156 329.429688 L 928.117188 332.457031 L 924 336.917969 L 921.515625 342.949219 L 921.039062 350.503906 L 922.105469 358.773438 L 924.046875 366.777344 L 926.191406 373.523438 L 927.859375 378.03125 L 928.566406 379.734375 L 928.527344 379.800781 L 928.136719 379.832031 L 927.796875 381.417969 L 927.90625 386.160156 L 928.722656 395.09375 L 929.984375 407.023438 L 931.292969 420.207031 L 932.246094 432.886719 L 932.441406 443.316406 L 931.484375 449.746094 L 929.132812 450.976562 L 925.789062 448.023438 L 922.011719 442.445312 L 918.359375 435.8125 L 915.394531 429.679688 L 913.515625 425.226562 L 912.480469 422.027344 L 911.875 419.28125 L 911.292969 416.171875 L 910.332031 411.894531 L 908.675781 405.863281 L 906.410156 398.410156 L 903.722656 390.09375 L 900.792969 381.46875 L 897.804688 373.101562 L 894.90625 365.429688 L 892.125 358.460938 L 889.449219 352.074219 L 886.863281 346.164062 L 884.359375 340.609375 L 881.925781 335.308594 L 879.566406 330.148438 L 877.34375 325.078125 L 875.34375 320.046875 L 873.636719 315.007812 L 872.304688 309.914062 L 871.378906 304.71875 L 870.675781 299.402344 L 869.964844 293.941406 L 869.011719 288.308594 L 867.589844 282.488281 L 865.523438 276.484375 L 862.890625 270.40625 L 859.828125 264.394531 L 856.464844 258.589844 L 852.945312 253.132812 L 849.386719 248.121094 L 845.863281 243.515625 L 842.433594 239.234375 L 839.160156 235.195312 L 836.097656 231.316406 L 833.308594 227.523438 L 830.800781 223.722656 L 828.410156 219.8125 L 825.917969 215.675781 L 823.101562 211.191406 L 819.746094 206.253906 L 815.667969 200.816406 L 810.816406 195.113281 L 805.167969 189.449219 L 798.714844 184.128906 L 791.429688 179.464844 L 783.265625 175.679688 L 774.042969 172.699219 L 763.542969 170.371094 L 751.550781 168.542969 L 737.851562 167.0625 L 722.234375 165.773438 L 712.011719 168.039062 "/>
<path style="fill:none;stroke-width:0.75;stroke-linecap:round;stroke-linejoin:round;stroke:rgb(0%,0%,0%);stroke-opacity:1;stroke-miterlimit:10;" d="M 308.125 430.925781 L 292.222656 435.199219 L 273.558594 439.375 L 257.503906 443.4375 L 248.058594 447.378906 L 243.714844 451.132812 L 241.609375 454.625 L 239.28125 457.824219 L 236 460.867188 L 231.441406 463.929688 L 225.394531 467.203125 L 218.035156 470.890625 L 209.640625 475.214844 L 200.515625 480.34375 L 191.082031 486.289062 L 181.792969 493.007812 L 173.132812 500.355469 L 165.699219 507.753906 L 160.132812 514.511719 L 156.75 520.191406 L 154.636719 525.351562 L 152.558594 530.800781 L 149.585938 537.125 L 145.996094 544.027344 L 142.371094 550.996094 L 139.203125 557.566406 L 136.628906 563.519531 L 134.695312 568.691406 L 133.359375 573.003906 L 132.214844 576.710938 L 130.773438 580.164062 L 128.671875 583.679688 L 126.046875 587.472656 L 123.175781 591.734375 L 120.320312 596.65625 L 117.691406 602.324219 L 115.210938 608.402344 L 112.753906 614.453125 L 110.253906 620.132812 L 107.957031 625.414062 L 106.1875 630.367188 L 105.121094 635.078125 L 104.351562 639.726562 L 103.34375 644.503906 L 101.640625 649.578125 L 99.203125 655.027344 L 96.082031 660.886719 L 92.433594 667.132812 L 88.855469 673.421875 L 86.042969 679.335938 L 84.441406 684.558594 L 83.441406 689.183594 L 82.164062 693.398438 L 80.019531 697.386719 L 77.492188 701.289062 L 75.347656 705.242188 L 74.109375 709.363281 L 73.328125 713.75 L 72.316406 718.480469 L 70.625 723.617188 L 68.699219 729.125 L 67.230469 734.960938 L 66.621094 741.03125 L 66.164062 747.082031 L 64.875 752.8125 L 62.148438 758 L 58.894531 762.707031 L 56.410156 767.070312 L 55.984375 771.230469 L 58.203125 775.265625 L 60.796875 779.054688 L 60.785156 782.414062 L 56.328125 785.21875 L 50.074219 787.558594 L 45.824219 789.5625 L 46.265625 791.363281 L 49.738281 793.027344 L 53.484375 794.613281 L 55.296875 796.238281 L 55.15625 798.269531 L 53.585938 801.148438 L 51.160156 805.285156 L 48.597656 811.007812 L 46.664062 818.613281 L 45.859375 828.261719 L 45.617188 839.550781 L 45.101562 851.925781 L 43.699219 864.804688 L 41.644531 877.484375 L 39.398438 889.222656 L 37.402344 899.402344 L 36.011719 907.894531 L 35.582031 914.675781 L 36.269531 919.855469 L 37.527344 923.984375 L 38.609375 927.738281 L 38.976562 931.675781 L 38.851562 935.90625 L 38.648438 940.414062 L 38.785156 945.199219 L 39.5625 950.242188 L 40.816406 955.472656 L 42.265625 960.804688 L 43.675781 966.121094 L 45.035156 971.171875 L 46.371094 975.667969 L 47.710938 979.429688 L 49.058594 982.757812 L 50.402344 986.0625 L 51.738281 989.722656 L 53.074219 993.984375 L 54.410156 999.0625 L 55.757812 1005.03125 L 57.105469 1011.453125 L 58.453125 1017.742188 L 59.796875 1023.429688 L 61.136719 1028.484375 L 62.46875 1032.976562 L 63.800781 1036.96875 L 65.136719 1040.527344 L 66.488281 1043.703125 L 67.859375 1046.578125 L 69.226562 1049.3125 L 70.558594 1052.074219 L 71.84375 1055.027344 L 73.113281 1058.265625 L 74.410156 1061.871094 L 75.792969 1065.917969 L 77.402344 1070.511719 L 79.386719 1075.765625 L 81.882812 1081.695312 L 84.902344 1088.011719 L 88.433594 1094.328125 L 92.472656 1100.265625 L 96.933594 1105.515625 L 101.46875 1110.042969 L 105.671875 1113.882812 L 109.234375 1117.125 L 112.332031 1120.03125 L 115.265625 1122.914062 L 118.277344 1126.027344 L 121.421875 1129.433594 L 124.707031 1133.144531 L 128.144531 1137.152344 L 131.773438 1141.402344 L 135.640625 1145.832031 L 139.652344 1150.375 L 143.167969 1154.957031 L 145.402344 1159.503906 L 145.996094 1163.953125 L 146.300781 1168.261719 L 148.082031 1172.394531 L 152.480469 1176.351562 L 158.121094 1180.277344 L 163 1184.347656 L 165.734375 1188.683594 L 167.464844 1193.207031 L 169.96875 1197.777344 L 174.460938 1202.246094 L 179.9375 1206.4375 L 184.847656 1210.160156 L 187.929688 1213.289062 L 189.117188 1215.992188 L 188.628906 1218.511719 L 186.6875 1221.074219 L 183.910156 1223.878906 L 182.484375 1226.925781 L 184.988281 1230.179688 L 192.871094 1233.601562 L 203.03125 1237.167969 L 211.242188 1240.863281 L 214.4375 1244.679688 L 214.175781 1248.671875 L 213.191406 1252.898438 L 213.691406 1257.398438 L 215.84375 1262.097656 L 219.308594 1266.898438 L 223.671875 1271.71875 L 228.25 1276.558594 L 232.296875 1281.433594 L 235.386719 1286.371094 L 238.417969 1291.402344 L 242.628906 1296.5625 L 248.847656 1301.855469 L 256.363281 1307.164062 L 264.0625 1312.335938 L 270.925781 1317.230469 L 276.335938 1321.738281 L 279.75 1325.773438 L 281.03125 1329.304688 L 281.550781 1332.535156 L 283.085938 1335.742188 L 286.839844 1339.132812 L 291.796875 1342.675781 L 296.382812 1346.269531 L 299.414062 1349.824219 L 301.230469 1353.238281 L 302.558594 1356.402344 L 304.125 1359.214844 L 306.367188 1361.632812 L 308.542969 1363.855469 L 309.609375 1366.136719 L 309.785156 1368.667969 L 314.308594 1371.371094 L 329.667969 1374.089844 L 359.132812 1376.671875 L 393.121094 1378.914062 L 418.828125 1380.605469 L 427.398438 1381.597656 L 425.746094 1381.960938 L 424.738281 1381.824219 L 432.519531 1381.296875 L 446.382812 1380.378906 L 460.898438 1379.046875 L 471.777344 1377.289062 L 479.246094 1375.171875 L 484.675781 1372.765625 L 489.355469 1370.152344 L 494.316406 1367.429688 L 500.507812 1364.691406 L 508.46875 1362.015625 L 517.117188 1359.359375 L 524.945312 1356.664062 L 530.714844 1353.722656 L 534.207031 1349.761719 L 535.464844 1343.859375 L 534.746094 1335.285156 L 533.160156 1323.996094 L 532.042969 1310.132812 L 532.394531 1293.5625 L 533.917969 1273.070312 L 536 1247.15625 L 538.015625 1214.332031 L 539.492188 1173.996094 L 540.578125 1129.09375 L 541.566406 1083.46875 L 542.640625 1040.316406 L 543.574219 1000.300781 L 544.027344 963.445312 L 543.835938 929.9375 L 543.503906 900.671875 L 543.703125 876.710938 L 544.890625 858.707031 L 546.691406 845.691406 L 548.523438 836.296875 L 549.929688 829.226562 L 551.054688 823.519531 L 552.167969 818.289062 L 553.476562 812.832031 L 554.925781 807.191406 L 556.375 801.578125 L 557.734375 796.160156 L 559.027344 790.855469 L 560.320312 785.527344 L 561.65625 780.027344 L 563.019531 774.1875 L 564.382812 767.839844 L 565.722656 760.820312 L 567.046875 752.992188 L 568.378906 744.238281 L 569.730469 734.574219 L 571.097656 724.570312 L 572.453125 714.945312 L 573.785156 706.414062 L 575.085938 699.492188 L 576.386719 693.957031 L 577.738281 689.378906 L 579.164062 685.378906 L 580.585938 681.714844 L 581.910156 678.171875 L 583.085938 674.574219 L 584.28125 670.824219 L 585.703125 666.859375 L 587.4375 662.558594 L 589.035156 657.609375 L 589.921875 651.640625 L 589.691406 644.457031 L 588.644531 636.578125 L 587.269531 628.6875 L 585.9375 621.351562 L 584.636719 614.632812 L 583.238281 608.453125 L 581.6875 602.714844 L 580.175781 597.1875 L 578.960938 591.59375 L 578.132812 585.753906 L 577.125 579.824219 L 575.203125 574.042969 L 571.941406 568.597656 L 568.171875 563.449219 L 565.027344 558.507812 L 563.167969 553.648438 L 561.34375 548.679688 L 557.824219 543.386719 L 551.421875 537.652344 L 543.152344 531.785156 L 534.570312 526.199219 L 527.238281 521.304688 L 522.261719 517.425781 L 518.980469 514.503906 L 516.285156 512.386719 L 513.300781 510.9375 L 510.128906 510.0625 L 507.101562 509.683594 L 504.417969 509.65625 L 501.753906 509.613281 L 498.636719 509.136719 L 494.8125 507.871094 L 490.835938 505.769531 L 487.472656 502.863281 L 485.144531 499.191406 L 482.9375 494.882812 L 479.589844 490.085938 L 474.164062 484.980469 L 466.957031 479.871094 L 458.589844 475.09375 L 449.757812 470.90625 L 441.539062 467.230469 L 435.085938 463.917969 L 430.949219 460.800781 L 427.21875 457.722656 L 421.375 454.515625 L 411.625 451.054688 L 399.089844 447.378906 L 385.609375 443.566406 L 372.246094 439.6875 L 356.957031 435.789062 L 336.914062 431.925781 L 309.285156 428.144531 L 308.125 430.925781 "/>
<path style="fill:none;stroke-width:0.75;stroke-linecap:round;stroke-linejoin:round;stroke:rgb(0%,0%,0%);stroke-opacity:1;stroke-miterlimit:10;" d="M 487.964844 265.902344 L 473.8125 274.617188 L 468.394531 280.484375 L 465.550781 284.386719 L 463.617188 287.03125 L 462.125 288.945312 L 458.34375 291.167969 L 454.503906 294.757812 L 453.003906 300.746094 L 451.695312 309.714844 L 450.054688 320.28125 L 448.765625 329.460938 L 448.71875 335.496094 L 450.355469 341.707031 L 450.972656 349.015625 L 448.792969 357.402344 L 447.460938 366.585938 L 446.652344 375.390625 L 444.851562 384.03125 L 442.445312 393.234375 L 444.785156 403.5625 L 449.210938 413.644531 L 451.78125 421.8125 L 453.113281 427.574219 L 454.320312 432.023438 L 455.566406 436.125 L 457.289062 440.332031 L 460.925781 443.792969 L 464.699219 446.257812 L 467.027344 447.839844 L 469.769531 449.144531 L 472.515625 450.535156 L 476.773438 451.898438 L 483.933594 452.75 L 491.964844 452.015625 L 497.824219 450.03125 L 506.304688 448.054688 L 536.007812 448.496094 L 555.003906 450.609375 L 563.367188 452.234375 L 570.703125 451.820312 L 576.15625 450.582031 L 580.515625 449.183594 L 584.816406 447.867188 L 587.722656 446.367188 L 591.179688 444.152344 L 594.730469 440.824219 L 597.800781 436.160156 L 601.910156 430.535156 L 605.183594 424.621094 L 606.0625 418.832031 L 607.320312 413.023438 L 608.6875 408.828125 L 609.21875 405.910156 L 607.980469 402.808594 L 604.367188 396.738281 L 600.226562 386.511719 L 598.503906 373.160156 L 601.023438 362.566406 L 600.933594 354.171875 L 599.140625 345.421875 L 598.082031 335.164062 L 596.542969 326.695312 L 595.167969 320.429688 L 593.902344 315.710938 L 592.539062 311.921875 L 591.40625 308.597656 L 589.472656 305.03125 L 586.265625 300.710938 L 584.230469 295.988281 L 583.320312 290.867188 L 582.066406 285.488281 L 576.851562 280.789062 L 566.277344 276.699219 L 559 272.855469 L 558.511719 268.992188 L 541.410156 265.285156 L 491.578125 262.066406 L 487.964844 265.902344 "/>
<path style="fill:none;stroke-width:0.75;stroke-linecap:round;stroke-linejoin:round;stroke:rgb(0%,0%,0%);stroke-opacity:1;stroke-miterlimit:10;" d="M 512.703125 488.058594 L 507.335938 495.453125 L 507.335938 503.535156 L 512.703125 508.886719 L 515.386719 510.867188 L 518.070312 512.203125 L 520.753906 513.933594 L 526.125 516.742188 L 528.808594 518.628906 L 531.492188 519.980469 L 534.175781 520.765625 L 536.859375 522.5625 L 539.542969 527.871094 L 558.332031 538.152344 L 558.332031 544.773438 L 561.015625 547.960938 L 561.015625 550.878906 L 566.382812 554.890625 L 566.382812 559.519531 L 574.433594 564.90625 L 574.433594 568.941406 L 577.117188 572.90625 L 577.117188 578.394531 L 579.800781 584.328125 L 579.800781 591.320312 L 582.488281 596.5625 L 582.488281 600.824219 L 585.171875 604.34375 L 585.171875 607.601562 L 590.539062 609.210938 L 598.589844 606.347656 L 598.589844 601.886719 L 601.273438 592.730469 L 601.273438 576.238281 L 609.324219 563.457031 L 609.324219 556.050781 L 606.640625 552.386719 L 606.640625 549.890625 L 603.957031 547.429688 L 603.957031 545.296875 L 606.640625 543.984375 L 609.324219 541.277344 L 614.695312 529.691406 L 614.695312 508.445312 L 622.746094 494.136719 L 617.378906 488.535156 L 512.703125 487.476562 L 512.703125 488.058594 "/>
<path style="fill:none;stroke-width:0.75;stroke-linecap:round;stroke-linejoin:round;stroke:rgb(0%,0%,0%);stroke-opacity:1;stroke-miterlimit:10;" d="M 848.164062 528.847656 L 847.777344 531.308594 L 847.390625 533.714844 L 846.984375 536.230469 L 846.523438 539.035156 L 846.003906 542.265625 L 845.488281 545.960938 L 845.074219 550.128906 L 844.835938 554.785156 L 844.847656 559.902344 L 845.070312 565.355469 L 845.441406 570.980469 L 845.910156 576.621094 L 846.382812 582.101562 L 846.636719 587.226562 L 846.417969 591.78125 L 845.476562 595.558594 L 843.683594 598.457031 L 841.417969 600.835938 L 839.1875 603.164062 L 837.5 605.902344 L 836.703125 609.40625 L 836.511719 613.53125 L 836.480469 618.023438 L 836.171875 622.621094 L 835.261719 627.117188 L 833.894531 631.519531 L 832.347656 635.878906 L 830.886719 640.261719 L 829.742188 644.691406 L 829 649.097656 L 828.703125 653.382812 L 828.898438 657.445312 L 829.632812 661.183594 L 830.867188 664.539062 L 832.230469 667.601562 L 833.273438 670.496094 L 833.535156 673.355469 L 832.703125 676.332031 L 830.964844 679.675781 L 828.660156 683.664062 L 826.109375 688.574219 L 823.640625 694.542969 L 821.5625 701.144531 L 820.175781 707.8125 L 819.777344 713.984375 L 820.589844 719.222656 L 822.464844 723.566406 L 825.1875 727.191406 L 828.519531 730.265625 L 832.226562 732.96875 L 836.003906 735.519531 L 839.535156 738.144531 L 842.5 741.074219 L 844.648438 744.46875 L 846.019531 748.203125 L 846.703125 752.09375 L 846.8125 755.949219 L 846.488281 759.621094 L 846.089844 763.109375 L 846.019531 766.457031 L 846.683594 769.707031 L 848.308594 772.957031 L 850.453125 776.558594 L 852.496094 780.914062 L 853.820312 786.429688 L 853.808594 793.515625 L 852.050781 802.242188 L 848.964844 811.351562 L 845.175781 819.253906 L 841.320312 824.355469 L 837.867188 825.546875 L 834.671875 823.617188 L 831.441406 819.832031 L 827.875 815.460938 L 823.820312 811.597656 L 819.667969 808.613281 L 815.949219 806.703125 L 813.199219 806.066406 L 811.695312 806.894531 L 810.703125 809.378906 L 809.226562 813.710938 L 806.273438 820.070312 L 801.253906 828.480469 L 795.191406 838.273438 L 789.519531 848.617188 L 785.660156 858.671875 L 784.558594 867.738281 L 785.175781 875.65625 L 785.980469 882.402344 L 785.445312 887.953125 L 782.523438 892.351562 L 778.054688 895.875 L 773.367188 898.878906 L 769.785156 901.707031 L 768.628906 904.707031 L 770.792969 908.125 L 775.449219 911.761719 L 781.339844 915.320312 L 787.203125 918.503906 L 791.847656 921.121094 L 794.359375 923.445312 L 793.890625 925.863281 L 789.589844 928.75 L 781.101562 932.371094 L 770.023438 936.460938 L 758.449219 940.640625 L 748.464844 944.519531 L 741.609375 947.75 L 737.167969 950.109375 L 733.882812 951.417969 L 730.488281 951.488281 L 726.078125 950.207031 L 721.191406 947.765625 L 716.71875 944.433594 L 713.558594 940.472656 L 712.324219 936.136719 L 712.535156 931.640625 L 713.433594 927.175781 L 714.253906 922.949219 L 714.355469 919.078125 L 713.59375 915.355469 L 711.925781 911.496094 L 709.320312 907.214844 L 705.839844 902.332031 L 701.886719 897.109375 L 697.957031 891.90625 L 694.542969 887.09375 L 692.148438 883.035156 L 691.078125 879.847656 L 690.933594 876.621094 L 691.125 872.199219 L 691.066406 865.429688 L 690.351562 855.613281 L 689.320312 843.878906 L 688.5 831.828125 L 688.417969 821.050781 L 689.445312 812.746094 L 691.367188 806.503906 L 693.8125 801.53125 L 696.414062 797.027344 L 698.820312 792.316406 L 700.777344 787.242188 L 702.046875 781.761719 L 702.394531 775.847656 L 701.71875 769.507812 L 700.503906 762.953125 L 699.378906 756.445312 L 698.964844 750.242188 L 699.65625 744.566406 L 700.9375 739.523438 L 702.054688 735.175781 L 702.269531 731.597656 L 701.054688 728.75 L 698.804688 726.207031 L 696.125 723.4375 L 693.636719 719.914062 L 691.816406 715.238281 L 690.597656 709.5625 L 689.785156 703.171875 L 689.179688 696.359375 L 688.574219 689.40625 L 687.933594 682.597656 L 687.871094 676.214844 L 689.164062 670.527344 L 692.585938 665.816406 L 698.492188 662.21875 L 705.589844 659.371094 L 712.167969 656.757812 L 716.511719 653.878906 L 717.445312 650.375 L 715.960938 646.460938 L 713.589844 642.484375 L 711.855469 638.804688 L 711.945312 635.617188 L 713.683594 632.484375 L 716.558594 628.800781 L 720.050781 623.964844 L 723.691406 617.605469 L 727.214844 610.25 L 730.40625 602.664062 L 733.046875 595.605469 L 734.929688 589.679688 L 735.871094 584.867188 L 735.703125 580.992188 L 734.257812 577.882812 L 731.484375 575.359375 L 727.84375 573.25 L 723.929688 571.371094 L 720.320312 569.535156 L 717.609375 567.570312 L 716.257812 565.332031 L 716.230469 562.851562 L 717.367188 560.191406 L 719.507812 557.425781 L 722.273438 554.632812 L 724.40625 551.941406 L 724.425781 549.496094 L 720.851562 547.441406 L 712.851562 545.898438 L 702.199219 544.9375 L 691.304688 544.601562 L 682.589844 544.949219 L 677.792969 545.976562 L 675.984375 547.476562 L 675.539062 549.203125 L 674.855469 550.894531 L 672.683594 552.359375 L 669.257812 553.65625 L 665.179688 554.898438 L 661.054688 556.195312 L 657.371094 557.625 L 654.148438 559.105469 L 651.292969 560.515625 L 648.714844 561.734375 L 646.296875 562.691406 L 643.808594 563.554688 L 641 564.550781 L 637.625 565.890625 L 633.511719 567.796875 L 628.839844 570.453125 L 623.863281 574.027344 L 618.851562 578.699219 L 614.058594 584.644531 L 609.726562 591.925781 L 605.980469 600.152344 L 602.929688 608.824219 L 600.6875 617.441406 L 599.277344 625.550781 L 598.421875 632.898438 L 597.777344 639.28125 L 596.988281 644.496094 L 595.789062 648.453125 L 594.273438 651.535156 L 592.625 654.238281 L 591.027344 657.054688 L 589.617188 660.382812 L 588.351562 664.195312 L 587.148438 668.355469 L 585.925781 672.738281 L 584.613281 677.199219 L 583.234375 681.546875 L 581.828125 685.574219 L 580.433594 689.078125 L 579.078125 692.03125 L 577.753906 695.074219 L 576.445312 699.027344 L 575.128906 704.710938 L 573.789062 712.667969 L 572.433594 722.300781 L 571.074219 732.75 L 569.722656 743.140625 L 568.382812 752.757812 L 567.054688 761.480469 L 565.726562 769.332031 L 564.390625 776.347656 L 563.046875 782.554688 L 561.679688 788.042969 L 560.3125 793.140625 L 558.957031 798.234375 L 557.625 803.722656 L 556.332031 809.84375 L 555.046875 816.265625 L 553.738281 822.496094 L 552.367188 828.054688 L 550.921875 832.742188 L 549.445312 837.492188 L 548.003906 843.527344 L 546.660156 852.0625 L 545.476562 864.230469 L 544.503906 880.792969 L 543.792969 902.425781 L 543.402344 929.804688 L 543.320312 963.289062 L 543.304688 1001.960938 L 543.050781 1044.59375 L 542.257812 1089.953125 L 540.742188 1136.5625 L 538.789062 1181.953125 L 536.808594 1223.398438 L 535.199219 1258.183594 L 534.265625 1284.335938 L 533.890625 1302.902344 L 533.84375 1315.679688 L 533.902344 1324.460938 L 533.839844 1331.050781 L 533.566406 1336.890625 L 533.558594 1342.050781 L 534.425781 1346.246094 L 536.777344 1349.191406 L 541.109375 1350.691406 L 547.46875 1350.90625 L 555.792969 1350.074219 L 566.015625 1348.441406 L 577.925781 1346.289062 L 590.722656 1344.054688 L 603.472656 1342.21875 L 615.226562 1341.261719 L 625.316406 1341.511719 L 634.160156 1342.691406 L 642.441406 1344.386719 L 650.84375 1346.171875 L 659.847656 1347.707031 L 669.089844 1348.933594 L 678 1349.882812 L 686.007812 1350.578125 L 692.710938 1351.027344 L 698.421875 1351.1875 L 703.617188 1350.996094 L 708.773438 1350.386719 L 714.289062 1349.324219 L 720.207031 1347.878906 L 726.488281 1346.144531 L 733.09375 1344.203125 L 739.949219 1342.140625 L 746.871094 1339.949219 L 753.636719 1337.617188 L 760.035156 1335.128906 L 765.839844 1332.460938 L 770.976562 1329.601562 L 775.90625 1326.519531 L 781.222656 1323.1875 L 787.527344 1319.578125 L 795.148438 1315.699219 L 803.367188 1311.691406 L 811.183594 1307.738281 L 817.617188 1304.019531 L 822.015625 1300.652344 L 825.113281 1297.527344 L 827.992188 1294.46875 L 831.730469 1291.300781 L 837.082031 1287.898438 L 843.496094 1284.3125 L 850.101562 1280.632812 L 856.023438 1276.957031 L 860.648438 1273.359375 L 864.378906 1269.796875 L 867.871094 1266.21875 L 871.78125 1262.5625 L 876.582031 1258.769531 L 881.972656 1254.78125 L 887.46875 1250.535156 L 892.574219 1245.976562 L 897.058594 1241.003906 L 901.726562 1235.375 L 907.628906 1228.808594 L 915.820312 1221.023438 L 926.917969 1211.925781 L 939.78125 1202.195312 L 952.820312 1192.695312 L 964.460938 1184.289062 L 973.109375 1177.847656 L 977.667969 1173.910156 L 978.914062 1171.738281 L 978.121094 1170.253906 L 976.539062 1168.390625 L 975.269531 1165.324219 L 974.71875 1161.214844 L 975.125 1156.460938 L 976.726562 1151.464844 L 979.609375 1146.558594 L 983.28125 1141.796875 L 987.089844 1137.15625 L 990.382812 1132.621094 L 992.6875 1128.171875 L 994.191406 1123.804688 L 995.269531 1119.527344 L 996.28125 1115.328125 L 997.515625 1111.203125 L 998.941406 1107.078125 L 1000.457031 1102.878906 L 1001.953125 1098.519531 L 1003.347656 1093.960938 L 1004.660156 1089.304688 L 1005.9375 1084.691406 L 1007.226562 1080.257812 L 1008.554688 1076.097656 L 1009.898438 1072.066406 L 1011.214844 1067.980469 L 1012.464844 1063.644531 L 1013.605469 1058.863281 L 1014.640625 1053.53125 L 1015.730469 1047.84375 L 1017.089844 1042.085938 L 1018.921875 1036.53125 L 1021.34375 1031.355469 L 1024.089844 1026.300781 L 1026.808594 1021 L 1029.144531 1015.09375 L 1030.84375 1008.242188 L 1032.046875 1000.261719 L 1032.992188 990.996094 L 1033.921875 980.285156 L 1035.027344 968.160156 L 1036.328125 955.390625 L 1037.796875 942.925781 L 1039.40625 931.714844 L 1041.101562 922.464844 L 1042.71875 914.894531 L 1044.066406 908.464844 L 1044.953125 902.648438 L 1045.265625 896.882812 L 1045.203125 890.480469 L 1045.042969 882.726562 L 1045.0625 872.902344 L 1045.472656 860.601562 L 1046.191406 846.664062 L 1047.0625 832.238281 L 1047.941406 818.46875 L 1048.683594 806.253906 L 1049.1875 795.464844 L 1049.363281 785.707031 L 1049.113281 776.601562 L 1048.351562 767.753906 L 1047.042969 758.824219 L 1045.355469 749.636719 L 1043.535156 740.046875 L 1041.8125 729.925781 L 1040.355469 719.257812 L 1039.121094 708.546875 L 1037.988281 698.414062 L 1036.84375 689.484375 L 1035.601562 682.214844 L 1034.261719 676.398438 L 1032.847656 671.648438 L 1031.390625 667.589844 L 1029.914062 663.898438 L 1028.472656 660.511719 L 1027.113281 657.417969 L 1025.886719 654.601562 L 1024.808594 652.039062 L 1023.75 649.582031 L 1022.539062 647.074219 L 1021.011719 644.34375 L 1019.050781 641.269531 L 1016.765625 637.855469 L 1014.328125 634.152344 L 1011.90625 630.203125 L 1009.636719 626.0625 L 1007.570312 621.839844 L 1005.738281 617.648438 L 1004.167969 613.613281 L 1002.859375 609.820312 L 1001.722656 606.21875 L 1000.640625 602.746094 L 999.492188 599.316406 L 998.167969 595.859375 L 996.53125 592.308594 L 994.425781 588.644531 L 991.660156 584.851562 L 988.058594 580.917969 L 983.566406 576.871094 L 978.59375 572.925781 L 973.679688 569.328125 L 969.355469 566.335938 L 965.992188 564.109375 L 963.273438 562.410156 L 960.714844 560.921875 L 957.828125 559.3125 L 954.269531 557.335938 L 950.242188 555.046875 L 946.089844 552.574219 L 942.152344 550.046875 L 938.582031 547.589844 L 934.785156 545.277344 L 929.976562 543.167969 L 923.363281 541.335938 L 914.460938 539.804688 L 903.949219 538.5 L 892.808594 537.3125 L 882.019531 536.125 L 872.398438 534.855469 L 864.097656 533.5 L 857.109375 532.082031 L 851.425781 530.617188 L 847.035156 529.136719 L 848.164062 528.847656 "/>
<path style="fill:none;stroke-width:0.75;stroke-linecap:round;stroke-linejoin:round;stroke:rgb(0%,0%,0%);stroke-opacity:1;stroke-miterlimit:10;" d="M 692.535156 182.980469 L 689.957031 184.324219 L 686.90625 185.589844 L 684.316406 186.753906 L 682.046875 188.003906 L 679.660156 189.574219 L 676.753906 191.683594 L 672.960938 194.433594 L 667.941406 197.902344 L 661.640625 202.097656 L 655.152344 206.671875 L 649.871094 211.21875 L 646.773438 215.40625 L 645.210938 219.253906 L 644.113281 222.875 L 642.65625 226.359375 L 640.933594 229.757812 L 639.273438 233.09375 L 637.917969 236.414062 L 636.761719 239.816406 L 635.609375 243.410156 L 634.304688 247.308594 L 632.886719 251.628906 L 631.429688 256.503906 L 630.007812 261.996094 L 628.664062 267.964844 L 627.4375 274.207031 L 626.304688 280.761719 L 624.980469 288.652344 L 623.261719 298.941406 L 621.609375 311.875 L 620.636719 327.511719 L 620.777344 345.800781 L 621.792969 366.277344 L 623.261719 388.378906 L 624.820312 411.363281 L 626.292969 433.769531 L 627.558594 453.953125 L 628.59375 470.515625 L 629.769531 483.054688 L 631.550781 491.40625 L 634.257812 495.707031 L 637.621094 497.253906 L 641.222656 497.632812 L 644.722656 498.152344 L 648.078125 498.996094 L 651.320312 500.050781 L 654.496094 501.226562 L 657.730469 502.480469 L 661.160156 503.78125 L 664.886719 505.109375 L 668.875 506.453125 L 673.066406 507.8125 L 677.324219 509.210938 L 681.21875 510.757812 L 684.476562 512.546875 L 687.714844 514.519531 L 691.769531 516.582031 L 697.1875 518.605469 L 703.3125 520.363281 L 709.191406 521.601562 L 713.992188 522.097656 L 717.386719 521.789062 L 719.160156 520.644531 L 719.074219 518.671875 L 716.738281 516.011719 L 711.734375 512.851562 L 704.132812 509.378906 L 695.960938 505.855469 L 689.746094 502.542969 L 687.160156 499.585938 L 686.488281 496.597656 L 685.160156 493.074219 L 681.476562 488.640625 L 677.210938 483.464844 L 675.003906 477.859375 L 676.507812 472.128906 L 679.421875 466.542969 L 680.453125 461.378906 L 677.589844 456.847656 L 673.941406 452.886719 L 673.890625 449.371094 L 680.089844 446.113281 L 688.242188 442.597656 L 693.328125 438.429688 L 694.441406 433.878906 L 691.691406 429.398438 L 685.605469 425.320312 L 678.328125 421.472656 L 672.433594 417.578125 L 669.785156 413.335938 L 669.480469 408.445312 L 669.925781 402.59375 L 669.824219 395.621094 L 669.097656 387.992188 L 667.972656 380.320312 L 666.640625 373.140625 L 665.1875 366.640625 L 663.664062 360.914062 L 662.136719 355.992188 L 660.699219 351.609375 L 659.449219 347.433594 L 658.433594 343.148438 L 657.460938 338.503906 L 656.296875 333.285156 L 654.921875 327.332031 L 654.265625 320.78125 L 655.480469 313.851562 L 658.917969 306.773438 L 661.726562 299.898438 L 661.378906 293.585938 L 659.9375 288.050781 L 660.597656 283.484375 L 665.414062 279.953125 L 671.863281 277.023438 L 676.261719 274.140625 L 676.027344 270.867188 L 672.882812 267.214844 L 669.648438 263.3125 L 668.59375 259.304688 L 669.84375 255.378906 L 672.972656 251.753906 L 677.398438 248.5625 L 681.84375 245.703125 L 684.855469 242.992188 L 685.449219 240.289062 L 684.4375 237.527344 L 683.101562 234.667969 L 682.871094 231.675781 L 685.792969 228.515625 L 694.074219 225.144531 L 708.675781 221.589844 L 725.597656 218.097656 L 739.609375 214.972656 L 746.9375 212.523438 L 749.644531 211.074219 L 751.265625 210.953125 L 754.785156 212.34375 L 760.976562 214.878906 L 769.753906 218.09375 L 779.683594 221.746094 L 789.011719 225.648438 L 796.296875 229.617188 L 801.324219 233.519531 L 804.203125 237.230469 L 805.25 240.707031 L 805.640625 244.257812 L 806.757812 248.269531 L 809.601562 252.972656 L 813.609375 257.984375 L 817.828125 262.765625 L 821.414062 266.960938 L 823.960938 270.960938 L 825.164062 275.34375 L 825.050781 280.5625 L 824.90625 286.535156 L 826.34375 293.042969 L 830.234375 299.871094 L 834.464844 306.75 L 836.175781 313.40625 L 833.773438 319.601562 L 830.722656 325.226562 L 831.761719 330.195312 L 839.546875 334.597656 L 848.5 339.199219 L 852.664062 344.6875 L 852.925781 350.84375 L 851.867188 357.203125 L 851.648438 363.332031 L 852.707031 368.847656 L 855.054688 373.390625 L 858.417969 376.738281 L 861.390625 379.222656 L 862.277344 381.320312 L 860.144531 383.476562 L 857.074219 386.0625 L 855.90625 389.429688 L 858.535156 393.808594 L 863.128906 398.964844 L 866.917969 404.546875 L 867.804688 410.214844 L 866.425781 415.636719 L 864.082031 420.492188 L 861.910156 424.613281 L 860.351562 428.394531 L 859.671875 432.375 L 860.148438 436.929688 L 862.085938 441.773438 L 865.8125 446.449219 L 871.179688 450.601562 L 876.203125 454.230469 L 878.429688 457.425781 L 876.507812 460.289062 L 873.429688 462.960938 L 872.328125 465.609375 L 872.488281 468.484375 L 872.242188 471.855469 L 870.277344 475.886719 L 866.722656 480.363281 L 862.070312 484.953125 L 856.992188 489.382812 L 852.851562 493.5625 L 851.195312 497.453125 L 853 500.984375 L 856.9375 504.003906 L 861.128906 506.34375 L 864.132812 507.851562 L 866.355469 508.480469 L 868.660156 508.199219 L 871.691406 507.039062 L 875.246094 505.269531 L 878.914062 503.199219 L 882.351562 501.121094 L 885.539062 499.148438 L 888.519531 497.367188 L 891.339844 495.828125 L 894.003906 494.464844 L 896.507812 493.175781 L 898.910156 491.859375 L 901.554688 490.421875 L 904.730469 488.785156 L 908.238281 486.984375 L 911.765625 485.078125 L 915.066406 483.085938 L 918.214844 480.902344 L 921.339844 478.398438 L 924.523438 475.472656 L 927.609375 472.167969 L 930.363281 468.566406 L 932.488281 464.714844 L 933.382812 460.542969 L 932.363281 455.949219 L 929.101562 450.894531 L 924.679688 445.613281 L 920.53125 440.398438 L 917.742188 435.488281 L 916.011719 430.882812 L 914.695312 426.503906 L 913.28125 422.292969 L 911.808594 418.199219 L 910.445312 414.183594 L 909.296875 410.101562 L 908.1875 405.425781 L 906.863281 399.523438 L 905.078125 391.988281 L 902.554688 383.285156 L 899.007812 374.113281 L 894.476562 365.148438 L 890.265625 357.007812 L 887.574219 350.164062 L 885.917969 344.496094 L 884.382812 339.734375 L 882.296875 335.601562 L 879.984375 331.742188 L 878.015625 327.785156 L 876.742188 323.457031 L 875.65625 318.832031 L 874.035156 314.085938 L 871.402344 309.382812 L 868.273438 304.835938 L 865.417969 300.550781 L 863.402344 296.621094 L 862.039062 293.070312 L 860.933594 289.914062 L 859.761719 287.121094 L 858.480469 284.480469 L 857.101562 281.738281 L 855.601562 278.683594 L 853.78125 275.324219 L 851.390625 271.707031 L 848.351562 267.917969 L 845.230469 264.171875 L 842.765625 260.710938 L 841.441406 257.695312 L 840.746094 254.898438 L 839.976562 252.050781 L 838.691406 249.03125 L 836.511719 245.75 L 833.296875 242.179688 L 829.886719 238.511719 L 827.347656 234.988281 L 826.34375 231.753906 L 825.886719 228.503906 L 824.570312 224.84375 L 821.34375 220.484375 L 816.554688 215.667969 L 810.90625 210.746094 L 805.042969 206.070312 L 799.417969 201.933594 L 794.433594 198.621094 L 790.433594 196.304688 L 787.574219 194.71875 L 785.953125 193.484375 L 785.285156 192.292969 L 783.722656 191.066406 L 779.042969 189.808594 L 770.25 188.507812 L 761.273438 187.191406 L 757.285156 185.875 L 758.550781 184.578125 L 745.765625 183.3125 L 694.714844 182.089844 L 692.535156 182.980469 "/>
<path style="fill:none;stroke-width:0.75;stroke-linecap:round;stroke-linejoin:round;stroke:rgb(0%,0%,0%);stroke-opacity:1;stroke-miterlimit:10;" d="M 935.601562 326.082031 L 930.925781 330.726562 L 927.785156 334.566406 L 925.699219 337.867188 L 923.929688 342.339844 L 922.046875 349.4375 L 921.160156 358.109375 L 922.378906 366.691406 L 925.214844 373.449219 L 928.636719 377.226562 L 931 379.207031 L 930.90625 380.890625 L 928.550781 382.738281 L 925.027344 384.878906 L 923.429688 387.050781 L 926.175781 390.183594 L 930.996094 400.296875 L 935.015625 421.617188 L 937.675781 446.125 L 939.140625 464.679688 L 940.167969 475.945312 L 941.449219 481.09375 L 942.804688 483.566406 L 943.972656 486.59375 L 945.257812 490.28125 L 947.074219 494.109375 L 949.707031 498.152344 L 953.128906 502.496094 L 956.203125 506.695312 L 957.925781 510.5625 L 958.972656 515.433594 L 960.203125 522.398438 L 961.597656 530.042969 L 962.964844 536.628906 L 964.28125 541.667969 L 965.578125 545.144531 L 966.964844 547.75 L 968.441406 550.207031 L 969.632812 552.785156 L 970.339844 555.703125 L 971.53125 559.554688 L 974.449219 564.964844 L 980.261719 572.359375 L 989.117188 581.535156 L 997.167969 589.941406 L 1000.886719 595.359375 L 1002.054688 599.203125 L 1003.210938 603.355469 L 1004.597656 607.890625 L 1005.9375 612.429688 L 1007.203125 616.515625 L 1008.441406 619.84375 L 1009.792969 622.761719 L 1011.398438 625.726562 L 1013.351562 628.914062 L 1015.640625 632.367188 L 1017.832031 635.828125 L 1019.601562 639.078125 L 1021.4375 642.332031 L 1023.765625 645.847656 L 1026 649.527344 L 1027.539062 653.207031 L 1028.71875 656.6875 L 1030.007812 659.863281 L 1031.382812 662.949219 L 1032.726562 666.230469 L 1034.058594 669.984375 L 1035.402344 674.582031 L 1036.75 680.84375 L 1038.085938 689.246094 L 1039.414062 698.515625 L 1040.738281 707.191406 L 1042.019531 714.882812 L 1043.355469 721.433594 L 1045.511719 726.59375 L 1048.808594 730.308594 L 1051.074219 733.398438 L 1051.667969 736.882812 L 1058.523438 741.617188 L 1078.152344 747.882812 L 1102.859375 753.730469 L 1123.269531 757.050781 L 1137.488281 757.21875 L 1145.953125 754.308594 L 1151.003906 749.761719 L 1154.898438 745.125 L 1157.652344 741.089844 L 1159.042969 737.996094 L 1160.144531 735.738281 L 1162.117188 733.871094 L 1165.125 731.085938 L 1169.109375 726.253906 L 1174.101562 719.878906 L 1179.777344 712.851562 L 1184.351562 705.976562 L 1186.371094 699.902344 L 1187.167969 694.734375 L 1188.328125 690.386719 L 1189.707031 686.5625 L 1190.929688 683.019531 L 1192.414062 679.941406 L 1194.589844 677.503906 L 1197.054688 675.414062 L 1199.238281 673.351562 L 1200.707031 671.355469 L 1201.152344 669.335938 L 1200.535156 666.355469 L 1199.101562 661.421875 L 1197.925781 654.21875 L 1197.890625 644.6875 L 1198.265625 633.179688 L 1198.078125 620.386719 L 1196.914062 607.957031 L 1194.597656 597.191406 L 1191.246094 587.015625 L 1187.386719 576.269531 L 1184.875 565.835938 L 1184.824219 556.941406 L 1184.035156 550.140625 L 1179.609375 545.453125 L 1174.117188 541.429688 L 1170.507812 536.292969 L 1167.789062 528.433594 L 1164.539062 517.125 L 1161.566406 505.054688 L 1159.878906 495.09375 L 1159.015625 487.46875 L 1158.023438 481.746094 L 1155.367188 477.507812 L 1150.1875 474.257812 L 1144.878906 471.121094 L 1141.949219 467.414062 L 1141.179688 463.496094 L 1141.539062 459.863281 L 1141.527344 456.511719 L 1139.886719 453.074219 L 1136.824219 448.183594 L 1133.007812 440.738281 L 1129.457031 431.582031 L 1126.980469 422.117188 L 1125.109375 414.0625 L 1123.164062 408.597656 L 1120.796875 404.472656 L 1117.832031 400.285156 L 1114.371094 396.507812 L 1110.90625 393.667969 L 1109.183594 390.703125 L 1110.390625 386.507812 L 1112.296875 381.375 L 1112.367188 375.820312 L 1110.324219 369.863281 L 1106.648438 363.667969 L 1102.578125 358.503906 L 1099.234375 355.625 L 1096.554688 355.179688 L 1094.144531 356.691406 L 1091.457031 358.3125 L 1088.1875 358.3125 L 1085.191406 356.78125 L 1083.226562 354.433594 L 1081.550781 352.691406 L 1079.359375 352.765625 L 1077.121094 354.394531 L 1075.34375 356.8125 L 1073.511719 358.6875 L 1071.148438 358.851562 L 1069.007812 357.34375 L 1067.828125 354.519531 L 1067.007812 350.765625 L 1065.136719 346.480469 L 1058.898438 342.054688 L 1045.515625 338.027344 L 1026.308594 335.496094 L 1004.507812 335.222656 L 986.917969 336.050781 L 978.832031 336.582031 L 975.945312 336.363281 L 972.644531 335.261719 L 967.707031 333.449219 L 961.21875 331.210938 L 954.101562 328.941406 L 947.363281 327 L 941.410156 325.441406 L 936.511719 324.242188 L 935.601562 326.082031 "/>
</g>
</svg>
