<?xml version="1.0" encoding="UTF-8"?>
<svg xmlns="http://www.w3.org/2000/svg" xmlns:xlink="http://www.w3.org/1999/xlink" width="1428pt" height="1605pt" viewBox="0 0 1428 1605" version="1.1">
<g id="surface314">
<rect x="0" y="0" width="1428" height="1605" style="fill:rgb(100%,100%,100%);fill-opacity:1;stroke:none;"/>
<path style="fill:none;stroke-width:0.75;stroke-linecap:round;stroke-linejoin:round;stroke:rgb(0%,0%,0%);stroke-opacity:1;stroke-miterlimit:10;" d="M 738.441406 158 L 735.8125 160.21875 L 727.0625 162.625 L 714.386719 165.304688 L 699.976562 168.355469 L 686.03125 171.863281 L 674.335938 175.890625 L 665.007812 180.320312 L 657.765625 185.015625 L 652.3125 189.824219 L 648.363281 194.605469 L 645.609375 199.261719 L 643.667969 203.867188 L 642.136719 208.558594 L 640.613281 213.457031 L 638.699219 218.695312 L 636.113281 224.351562 L 633.042969 230.332031 L 629.804688 236.488281 L 626.710938 242.667969 L 624.070312 248.734375 L 622.113281 254.570312 L 620.734375 260.203125 L 619.738281 265.679688 L 618.933594 271.066406 L 618.125 276.414062 L 617.171875 281.792969 L 616.117188 287.320312 L 615.046875 293.121094 L 614.050781 299.332031 L 613.222656 306.078125 L 612.636719 313.421875 L 612.304688 321.179688 L 612.21875 329.101562 L 612.386719 336.929688 L 612.796875 344.414062 L 613.429688 351.359375 L 614.179688 357.757812 L 614.933594 363.65625 L 615.5625 369.113281 L 615.945312 374.171875 L 615.964844 378.878906 L 615.523438 383.238281 L 614.632812 387.019531 L 613.335938 389.953125 L 611.671875 391.761719 L 609.6875 392.167969 L 607.449219 390.964844 L 605.15625 388.195312 L 603.042969 383.972656 L 601.34375 378.402344 L 600.285156 371.597656 L 600.011719 363.734375 L 600.300781 355.261719 L 600.828125 346.699219 L 601.289062 338.5625 L 601.363281 331.375 L 600.808594 325.496094 L 599.6875 320.6875 L 598.125 316.566406 L 596.257812 312.738281 L 594.210938 308.8125 L 592.085938 304.496094 L 589.859375 299.863281 L 587.472656 295.09375 L 584.863281 290.351562 L 581.972656 285.816406 L 578.6875 281.617188 L 574.65625 277.769531 L 569.457031 274.238281 L 562.683594 270.996094 L 553.914062 268.015625 L 542.957031 265.324219 L 530.449219 263.167969 L 517.246094 261.863281 L 504.207031 261.710938 L 492.183594 263.015625 L 481.867188 265.964844 L 473.296875 270.238281 L 466.339844 275.386719 L 460.871094 280.960938 L 456.753906 286.523438 L 453.867188 291.621094 L 452.050781 295.984375 L 451.03125 300.03125 L 450.511719 304.363281 L 450.195312 309.574219 L 449.777344 316.253906 L 449.027344 324.796875 L 447.949219 334.792969 L 446.617188 345.625 L 445.101562 356.671875 L 443.480469 367.320312 L 441.835938 377.058594 L 440.351562 385.761719 L 439.207031 393.410156 L 438.601562 399.992188 L 438.726562 405.484375 L 439.703125 409.953125 L 441.359375 413.792969 L 443.464844 417.496094 L 445.773438 421.535156 L 448.050781 426.394531 L 450.140625 432.375 L 452.207031 439.023438 L 454.492188 445.703125 L 457.246094 451.777344 L 460.707031 456.609375 L 465.089844 459.714844 L 470.445312 461.210938 L 476.796875 461.355469 L 484.160156 460.421875 L 492.554688 458.667969 L 501.882812 456.382812 L 511.554688 453.910156 L 520.871094 451.617188 L 529.121094 449.867188 L 535.605469 449.03125 L 539.613281 449.46875 L 540.675781 451.417969 L 539.257812 454.585938 L 536.050781 458.550781 L 531.757812 462.882812 L 527.066406 467.164062 L 522.570312 471.085938 L 518.390625 474.796875 L 514.558594 478.558594 L 511.085938 482.636719 L 507.996094 487.296875 L 505.300781 492.65625 L 502.945312 498.226562 L 500.878906 503.382812 L 499.039062 507.492188 L 497.375 509.925781 L 495.789062 510.226562 L 494.066406 508.640625 L 491.964844 505.589844 L 489.234375 501.492188 L 485.625 496.769531 L 480.976562 491.792969 L 475.445312 486.742188 L 469.28125 481.742188 L 462.722656 476.925781 L 456.019531 472.421875 L 449.351562 468.320312 L 442.648438 464.546875 L 435.769531 461 L 428.589844 457.566406 L 420.964844 454.140625 L 412.816406 450.648438 L 404.257812 447.148438 L 395.445312 443.738281 L 386.542969 440.511719 L 377.710938 437.566406 L 369.011719 435 L 360.113281 432.953125 L 350.574219 431.570312 L 339.964844 430.992188 L 327.847656 431.367188 L 313.785156 432.832031 L 297.675781 435.460938 L 280.75 438.984375 L 264.578125 443.066406 L 250.714844 447.363281 L 240.734375 451.535156 L 235.625 455.316406 L 234.128906 458.714844 L 234.414062 461.820312 L 234.640625 464.71875 L 232.988281 467.496094 L 228.097656 470.265625 L 220.546875 473.21875 L 211.390625 476.585938 L 201.6875 480.585938 L 192.488281 485.445312 L 184.636719 491.265625 L 178.128906 497.6875 L 172.746094 504.234375 L 168.269531 510.425781 L 164.476562 515.777344 L 161.171875 519.988281 L 158.199219 523.433594 L 155.421875 526.660156 L 152.707031 530.21875 L 149.921875 534.652344 L 146.964844 540.34375 L 143.90625 546.988281 L 140.859375 554.109375 L 137.921875 561.230469 L 135.210938 567.878906 L 132.796875 573.695312 L 130.601562 578.796875 L 128.519531 583.425781 L 126.441406 587.816406 L 124.253906 592.199219 L 121.847656 596.820312 L 119.160156 601.851562 L 116.277344 607.25 L 113.339844 612.914062 L 110.488281 618.738281 L 107.855469 624.625 L 105.527344 630.515625 L 103.386719 636.535156 L 101.273438 642.863281 L 99.011719 649.675781 L 96.441406 657.140625 L 93.464844 665.316406 L 90.257812 673.75 L 87.066406 681.875 L 84.136719 689.113281 L 81.71875 694.898438 L 79.980469 698.863281 L 78.785156 701.441406 L 77.921875 703.285156 L 77.171875 705.03125 L 76.324219 707.328125 L 75.210938 710.6875 L 73.851562 715.121094 L 72.308594 720.503906 L 70.644531 726.71875 L 68.925781 733.648438 L 67.214844 741.121094 L 65.574219 748.792969 L 64.074219 756.261719 L 62.769531 763.136719 L 61.734375 769.019531 L 60.996094 773.625 L 60.464844 777.121094 L 60.007812 779.789062 L 59.503906 781.910156 L 58.832031 783.761719 L 57.898438 785.582031 L 56.785156 787.445312 L 55.613281 789.386719 L 54.496094 791.449219 L 53.558594 793.65625 L 52.910156 796.046875 L 52.617188 798.6875 L 52.511719 801.761719 L 52.363281 805.472656 L 51.949219 810.039062 L 51.042969 815.671875 L 49.503906 822.535156 L 47.535156 830.601562 L 45.425781 839.800781 L 43.472656 850.054688 L 41.960938 861.296875 L 41.109375 873.398438 L 40.855469 886.015625 L 41.046875 898.746094 L 41.554688 911.191406 L 42.226562 922.957031 L 42.957031 933.714844 L 43.765625 943.441406 L 44.691406 952.179688 L 45.785156 959.984375 L 47.09375 966.898438 L 48.652344 973.046875 L 50.425781 978.847656 L 52.375 984.796875 L 54.460938 991.386719 L 56.636719 999.109375 L 58.855469 1008.238281 L 61.050781 1018.152344 L 63.152344 1028.007812 L 65.085938 1036.96875 L 66.78125 1044.191406 L 68.199219 1049.113281 L 69.453125 1052.304688 L 70.675781 1054.605469 L 72.011719 1056.863281 L 73.601562 1059.921875 L 75.582031 1064.632812 L 78.0625 1071.535156 L 81.007812 1079.949219 L 84.351562 1088.898438 L 88.023438 1097.402344 L 91.949219 1104.476562 L 96.0625 1109.417969 L 100.253906 1112.632812 L 104.421875 1114.800781 L 108.449219 1116.609375 L 112.234375 1118.738281 L 115.699219 1121.707031 L 118.902344 1125.382812 L 121.9375 1129.476562 L 124.898438 1133.699219 L 127.871094 1137.753906 L 130.917969 1141.421875 L 133.945312 1144.746094 L 136.820312 1147.84375 L 139.421875 1150.824219 L 141.617188 1153.804688 L 143.34375 1156.890625 L 144.785156 1160.125 L 146.203125 1163.542969 L 147.839844 1167.179688 L 149.953125 1171.070312 L 152.730469 1175.230469 L 156.101562 1179.605469 L 159.933594 1184.132812 L 164.085938 1188.730469 L 168.433594 1193.335938 L 172.8125 1197.871094 L 176.984375 1202.242188 L 180.683594 1206.351562 L 183.652344 1210.105469 L 185.621094 1213.402344 L 186.46875 1216.199219 L 186.59375 1218.699219 L 186.546875 1221.152344 L 186.867188 1223.8125 L 188.097656 1226.933594 L 190.78125 1230.765625 L 195.242188 1235.476562 L 200.949219 1240.84375 L 207.140625 1246.570312 L 213.066406 1252.347656 L 217.96875 1257.871094 L 221.335938 1262.914062 L 223.621094 1267.578125 L 225.511719 1272.050781 L 227.703125 1276.511719 L 230.886719 1281.144531 L 235.546875 1286.085938 L 241.324219 1291.277344 L 247.65625 1296.609375 L 253.984375 1301.96875 L 259.730469 1307.253906 L 264.496094 1312.359375 L 268.476562 1317.210938 L 272.03125 1321.742188 L 275.511719 1325.886719 L 279.277344 1329.574219 L 283.535156 1332.796875 L 287.871094 1335.761719 L 291.722656 1338.726562 L 294.535156 1341.964844 L 295.746094 1345.730469 L 295.222656 1350.207031 L 294.5625 1355.199219 L 295.792969 1360.429688 L 300.941406 1365.621094 L 312.03125 1370.496094 L 330.382812 1374.789062 L 354.480469 1378.328125 L 382.101562 1380.957031 L 411.015625 1382.519531 L 439.007812 1382.859375 L 463.84375 1381.820312 L 483.835938 1379.351562 L 499.414062 1375.828125 L 511.539062 1371.726562 L 521.171875 1367.527344 L 529.273438 1363.710938 L 536.71875 1360.628906 L 544.027344 1358.167969 L 551.628906 1356.089844 L 559.957031 1354.148438 L 569.441406 1352.113281 L 580.503906 1349.808594 L 593.511719 1347.34375 L 608.824219 1344.898438 L 626.796875 1342.644531 L 647.789062 1340.769531 L 671.761719 1339.363281 L 697.101562 1338.226562 L 721.792969 1337.066406 L 743.828125 1335.601562 L 761.191406 1333.542969 L 772.519531 1330.695312 L 779.027344 1327.199219 L 782.578125 1323.296875 L 785.03125 1319.214844 L 788.25 1315.195312 L 793.644531 1311.410156 L 800.804688 1307.847656 L 808.878906 1304.425781 L 817.011719 1301.074219 L 824.339844 1297.714844 L 830.226562 1294.289062 L 834.898438 1290.816406 L 838.789062 1287.324219 L 842.347656 1283.839844 L 846.003906 1280.402344 L 850.113281 1277.023438 L 854.636719 1273.671875 L 859.4375 1270.296875 L 864.390625 1266.847656 L 869.355469 1263.28125 L 874.207031 1259.550781 L 878.859375 1255.613281 L 883.394531 1251.492188 L 887.945312 1247.207031 L 892.648438 1242.792969 L 897.636719 1238.277344 L 902.980469 1233.679688 L 908.503906 1229.007812 L 913.980469 1224.261719 L 919.171875 1219.433594 L 923.847656 1214.53125 L 927.859375 1209.574219 L 931.386719 1204.683594 L 934.707031 1200.007812 L 938.078125 1195.6875 L 941.78125 1191.867188 L 945.976562 1188.644531 L 950.453125 1185.914062 L 954.886719 1183.519531 L 958.960938 1181.300781 L 962.355469 1179.105469 L 964.863281 1176.777344 L 966.695312 1174.171875 L 968.171875 1171.140625 L 969.609375 1167.542969 L 971.328125 1163.226562 L 973.5625 1158.132812 L 976.207031 1152.511719 L 979.066406 1146.699219 L 981.953125 1141.03125 L 984.667969 1135.84375 L 987.066406 1131.386719 L 989.152344 1127.59375 L 990.96875 1124.304688 L 992.570312 1121.375 L 994 1118.652344 L 995.308594 1115.984375 L 996.539062 1113.214844 L 997.734375 1110.203125 L 998.941406 1106.800781 L 1000.207031 1102.863281 L 1001.570312 1098.242188 L 1003.066406 1092.867188 L 1004.65625 1086.96875 L 1006.300781 1080.847656 L 1007.953125 1074.800781 L 1009.566406 1069.136719 L 1011.089844 1064.089844 L 1012.449219 1059.636719 L 1013.566406 1055.6875 L 1014.363281 1052.148438 L 1014.757812 1048.933594 L 1014.730469 1045.960938 L 1014.503906 1043.164062 L 1014.359375 1040.484375 L 1014.570312 1037.867188 L 1015.421875 1035.253906 L 1017.089844 1032.566406 L 1019.367188 1029.648438 L 1021.9375 1026.328125 L 1024.488281 1022.425781 L 1026.710938 1017.765625 L 1028.363281 1012.234375 L 1029.507812 1005.9375 L 1030.269531 999.035156 L 1030.78125 991.691406 L 1031.179688 984.070312 L 1031.578125 976.335938 L 1032.066406 968.648438 L 1032.71875 961.164062 L 1033.601562 954.042969 L 1034.796875 947.441406 L 1036.339844 941.433594 L 1038.097656 935.765625 L 1039.917969 930.097656 L 1041.632812 924.082031 L 1043.078125 917.378906 L 1044.09375 909.652344 L 1044.582031 900.699219 L 1044.6875 890.90625 L 1044.628906 880.796875 L 1044.617188 870.898438 L 1044.863281 861.734375 L 1045.507812 853.617188 L 1046.363281 845.972656 L 1047.160156 838.015625 L 1047.640625 828.957031 L 1047.535156 818.007812 L 1046.730469 804.761719 L 1045.664062 790.339844 L 1044.933594 776.253906 L 1045.128906 764.007812 L 1046.839844 755.109375 L 1050.558594 750.609375 L 1056.394531 749.78125 L 1064.363281 751.429688 L 1074.472656 754.367188 L 1086.734375 757.414062 L 1100.960938 759.578125 L 1116.117188 760.664062 L 1130.976562 760.679688 L 1144.308594 759.632812 L 1154.875 757.523438 L 1161.828125 754.378906 L 1165.832031 750.324219 L 1167.929688 745.488281 L 1169.164062 740.011719 L 1170.585938 734.03125 L 1173 727.710938 L 1176.289062 721.316406 L 1180.097656 715.125 L 1184.078125 709.429688 L 1187.867188 704.511719 L 1191.121094 700.664062 L 1193.582031 697.949219 L 1195.402344 695.570312 L 1196.835938 692.507812 L 1198.128906 687.746094 L 1199.535156 680.269531 L 1201.210938 669.40625 L 1202.914062 655.851562 L 1204.304688 640.660156 L 1205.039062 624.875 L 1204.785156 609.546875 L 1203.3125 595.535156 L 1200.84375 583.003906 L 1197.722656 571.929688 L 1194.285156 562.292969 L 1190.867188 554.066406 L 1187.75 547.195312 L 1184.957031 541.488281 L 1182.460938 536.710938 L 1180.226562 532.636719 L 1178.21875 529.03125 L 1176.414062 525.679688 L 1174.800781 522.40625 L 1173.378906 519.054688 L 1172.140625 515.460938 L 1171.089844 511.46875 L 1170.207031 506.972656 L 1169.398438 502.121094 L 1168.558594 497.109375 L 1167.582031 492.148438 L 1166.363281 487.433594 L 1164.816406 483.105469 L 1162.9375 479.046875 L 1160.742188 475.070312 L 1158.246094 470.988281 L 1155.464844 466.621094 L 1152.433594 461.832031 L 1149.261719 456.667969 L 1146.078125 451.238281 L 1143.011719 445.644531 L 1140.1875 439.988281 L 1137.734375 434.375 L 1135.734375 428.882812 L 1134.078125 423.507812 L 1132.617188 418.222656 L 1131.191406 413.011719 L 1129.648438 407.839844 L 1127.878906 402.683594 L 1125.921875 397.480469 L 1123.875 392.171875 L 1121.816406 386.699219 L 1119.835938 380.996094 L 1117.949219 375.050781 L 1115.875 369.082031 L 1113.253906 363.34375 L 1109.730469 358.097656 L 1104.949219 353.613281 L 1098.730469 350.050781 L 1091.605469 347.21875 L 1084.292969 344.816406 L 1077.503906 342.554688 L 1071.949219 340.136719 L 1068.0625 337.359375 L 1065.171875 334.355469 L 1062.324219 331.355469 L 1058.566406 328.582031 L 1052.949219 326.261719 L 1044.863281 324.566406 L 1035.035156 323.472656 L 1024.554688 322.902344 L 1014.488281 322.785156 L 1005.917969 323.039062 L 999.65625 323.578125 L 995.488281 324.242188 L 992.921875 324.855469 L 991.480469 325.242188 L 990.679688 325.230469 L 990.039062 324.644531 L 989.128906 323.355469 L 987.769531 321.421875 L 985.828125 318.953125 L 983.179688 316.054688 L 979.699219 312.832031 L 975.304688 309.445312 L 970.152344 306.285156 L 964.433594 303.789062 L 958.351562 302.398438 L 952.109375 302.554688 L 945.898438 304.546875 L 939.867188 308.078125 L 934.160156 312.691406 L 928.921875 317.9375 L 924.296875 323.363281 L 920.398438 328.632812 L 917.257812 333.847656 L 914.863281 339.226562 L 913.214844 344.984375 L 912.3125 351.335938 L 912.078125 358.339844 L 912.183594 365.402344 L 912.222656 371.78125 L 911.792969 376.726562 L 910.488281 379.488281 L 908.054688 379.5625 L 904.792969 377.414062 L 901.160156 373.753906 L 897.605469 369.296875 L 894.578125 364.742188 L 892.402344 360.660156 L 890.925781 357.019531 L 889.859375 353.644531 L 888.917969 350.359375 L 887.820312 346.992188 L 886.347656 343.394531 L 884.5625 339.550781 L 882.578125 335.464844 L 880.527344 331.148438 L 878.53125 326.617188 L 876.714844 321.875 L 875.164062 316.933594 L 873.835938 311.8125 L 872.664062 306.515625 L 871.5625 301.058594 L 870.460938 295.457031 L 869.292969 289.746094 L 868.035156 284.0625 L 866.6875 278.570312 L 865.234375 273.433594 L 863.671875 268.808594 L 861.980469 264.796875 L 860.105469 261.230469 L 857.988281 257.878906 L 855.574219 254.519531 L 852.792969 250.917969 L 849.617188 246.886719 L 846.105469 242.4375 L 842.351562 237.617188 L 838.441406 232.46875 L 834.464844 227.050781 L 830.507812 221.417969 L 826.644531 215.691406 L 822.941406 209.992188 L 819.464844 204.453125 L 816.28125 199.195312 L 813.394531 194.324219 L 810.519531 189.824219 L 807.300781 185.65625 L 803.390625 181.777344 L 798.433594 178.152344 L 792.101562 174.730469 L 784.160156 171.417969 L 774.394531 168.125 L 762.597656 164.753906 L 748.554688 161.203125 L 732.054688 157.378906 L 738.441406 158 "/>
<path style="fill:none;stroke-width:0.75;stroke-linecap:round;stroke-linejoin:round;stroke:rgb(0%,0%,0%);stroke-opacity:1;stroke-miterlimit:10;" d="M 301.785156 430.472656 L 289.351562 435.089844 L 271.972656 439.429688 L 258.441406 443.871094 L 249.523438 448.25 L 243.980469 452.269531 L 240.632812 455.699219 L 238.542969 458.628906 L 236.84375 461.230469 L 234.695312 463.707031 L 231.390625 466.445312 L 226.261719 469.859375 L 218.941406 474.164062 L 210.253906 478.773438 L 201.339844 482.886719 L 193.125 486.082031 L 185.757812 489.402344 L 179.171875 494.265625 L 173.335938 501.539062 L 168.273438 509.882812 L 164.050781 517.402344 L 160.640625 522.65625 L 157.75 525.980469 L 155 528.171875 L 152.125 530.070312 L 149.289062 532.804688 L 146.761719 537.558594 L 144.664062 545.027344 L 142.550781 553.949219 L 139.820312 562.574219 L 136.117188 569.535156 L 132.058594 574.984375 L 128.496094 579.457031 L 126.117188 583.421875 L 124.917969 587.101562 L 124.550781 590.753906 L 123.960938 595.023438 L 121.921875 600.644531 L 117.695312 607.960938 L 112.523438 615.707031 L 108.144531 622.210938 L 105.820312 626.394531 L 104.917969 629.464844 L 104.335938 633.207031 L 103.113281 639.050781 L 100.910156 646.957031 L 97.519531 656.53125 L 92.984375 667.164062 L 88.285156 677.421875 L 84.640625 685.652344 L 82.875 690.75 L 82.273438 693.753906 L 81.738281 696.242188 L 80.429688 699.398438 L 78.636719 702.882812 L 76.914062 705.964844 L 75.664062 708.242188 L 74.644531 710.609375 L 73.476562 714.285156 L 71.90625 720.09375 L 70.226562 727.265625 L 68.882812 734.621094 L 68.085938 741.316406 L 67.175781 747.757812 L 65.269531 754.671875 L 61.960938 762.417969 L 58.757812 769.859375 L 57.664062 775.496094 L 59.808594 778.382812 L 62.867188 779.828125 L 64.179688 781.375 L 63.15625 783.253906 L 59.722656 785.363281 L 54.292969 787.578125 L 49.238281 789.675781 L 47.429688 791.410156 L 50.582031 792.738281 L 55.875 794.445312 L 59.332031 797.523438 L 58.136719 802.550781 L 54.023438 808.449219 L 49.882812 813.730469 L 47.882812 817.476562 L 47.347656 821.085938 L 46.886719 826.515625 L 45.484375 835.269531 L 43.617188 846.996094 L 42.136719 860.875 L 41.640625 875.941406 L 41.78125 890.667969 L 41.945312 903.382812 L 41.726562 913.027344 L 41.5 921.050781 L 41.816406 929.519531 L 43.058594 939.886719 L 44.855469 951.152344 L 46.65625 961.710938 L 48.039062 970.222656 L 49.121094 976.429688 L 50.152344 980.347656 L 51.394531 982.546875 L 53.171875 985.839844 L 55.816406 993.585938 L 59.363281 1007.5 L 62.609375 1022.671875 L 64.441406 1033.84375 L 65.339844 1040.945312 L 66.183594 1045.222656 L 67.613281 1047.835938 L 69.324219 1049.644531 L 70.785156 1051.425781 L 71.695312 1053.949219 L 72.707031 1057.976562 L 74.703125 1064.265625 L 78.21875 1073.125 L 82.429688 1083.054688 L 86.167969 1092.109375 L 88.675781 1098.824219 L 90.855469 1103.625 L 94.019531 1107.417969 L 99.011719 1110.929688 L 104.84375 1114.203125 L 110.058594 1117.113281 L 113.589844 1119.625 L 115.980469 1122.136719 L 118.164062 1125.132812 L 120.875 1128.949219 L 124.097656 1133.269531 L 127.609375 1137.621094 L 131.191406 1141.617188 L 134.605469 1145.207031 L 137.605469 1148.433594 L 140.003906 1151.34375 L 141.863281 1154.03125 L 143.304688 1156.589844 L 144.464844 1159.222656 L 145.519531 1162.507812 L 146.746094 1166.882812 L 148.71875 1171.78125 L 152.082031 1176.386719 L 157.105469 1180.15625 L 162.554688 1183.605469 L 166.8125 1187.519531 L 168.878906 1192.433594 L 170.230469 1197.859375 L 172.941406 1203.058594 L 178.332031 1207.4375 L 184.648438 1210.984375 L 189.371094 1213.835938 L 190.609375 1216.15625 L 189.023438 1218.230469 L 185.914062 1220.367188 L 182.773438 1222.882812 L 181.894531 1226.101562 L 185.765625 1230.359375 L 195.589844 1235.808594 L 207.390625 1241.867188 L 215.90625 1247.769531 L 217.554688 1252.945312 L 215.425781 1257.597656 L 214.304688 1262.128906 L 217.695312 1266.851562 L 224.0625 1271.757812 L 230.617188 1276.757812 L 235.222656 1281.761719 L 238.441406 1286.679688 L 241.5 1291.417969 L 245.429688 1295.984375 L 250.488281 1300.777344 L 256.742188 1306.308594 L 263.976562 1312.714844 L 270.90625 1318.710938 L 276.238281 1323.0625 L 279.792969 1326.191406 L 281.667969 1328.9375 L 282.226562 1331.96875 L 282.863281 1335.300781 L 285.238281 1338.789062 L 290.304688 1342.335938 L 296.199219 1346.089844 L 300.363281 1350.25 L 301.195312 1354.925781 L 300.945312 1359.917969 L 302.828125 1364.917969 L 309.800781 1369.691406 L 323.8125 1374.195312 L 346.546875 1378.4375 L 378.257812 1382.25 L 413.4375 1384.75 L 445.140625 1384.867188 L 468 1382.035156 L 482.925781 1377.707031 L 492.410156 1373.820312 L 498.808594 1371.742188 L 503.960938 1370.511719 L 509.566406 1368.585938 L 516.757812 1364.90625 L 524.390625 1360.339844 L 530.765625 1356.242188 L 534.542969 1353.382812 L 535.90625 1350.269531 L 535.421875 1344.832031 L 533.765625 1335.515625 L 532.066406 1322.855469 L 531.578125 1307.910156 L 533.042969 1291.492188 L 535.144531 1273.421875 L 536.488281 1252.59375 L 537.355469 1225.097656 L 538.441406 1186.335938 L 540.207031 1134.316406 L 542.152344 1077.453125 L 543.53125 1026.757812 L 543.832031 990.066406 L 543.484375 962.476562 L 543.15625 935.902344 L 543.375 904.804688 L 544.140625 873.847656 L 545.304688 850.242188 L 546.722656 838.925781 L 548.246094 835.703125 L 549.726562 834.101562 L 551.0625 829.089844 L 552.308594 821.417969 L 553.566406 813.285156 L 554.914062 806.425781 L 556.3125 800.738281 L 557.703125 795.65625 L 559.039062 790.675781 L 560.339844 785.546875 L 561.652344 780.066406 L 563.007812 774.109375 L 564.378906 767.78125 L 565.738281 761.25 L 567.0625 754.488281 L 568.378906 746.664062 L 569.714844 736.742188 L 571.09375 724.441406 L 572.460938 712.492188 L 573.761719 703.605469 L 575.050781 697.5 L 576.386719 693.125 L 577.816406 689.539062 L 579.253906 686.183594 L 580.585938 682.597656 L 581.75 678.484375 L 582.910156 674.183594 L 584.28125 670.191406 L 585.976562 666.777344 L 587.679688 663.3125 L 588.976562 658.953125 L 589.546875 653.035156 L 589.433594 645.691406 L 588.765625 637.234375 L 587.671875 628.128906 L 586.246094 619.378906 L 584.585938 612.128906 L 582.8125 607.089844 L 581.199219 603.195312 L 580.0625 598.949219 L 579.511719 593.238281 L 578.898438 586.476562 L 577.371094 579.46875 L 574.417969 572.925781 L 570.84375 567.160156 L 567.789062 562.398438 L 565.972656 558.648438 L 564.441406 555.074219 L 561.816406 550.628906 L 557.058594 544.617188 L 550.488281 537.730469 L 542.761719 531.015625 L 534.683594 525.304688 L 527.644531 520.605469 L 522.734375 516.777344 L 519.273438 513.917969 L 516.128906 512.195312 L 512.40625 511.613281 L 508.152344 511.570312 L 503.632812 511.292969 L 499.105469 510.195312 L 494.726562 508.347656 L 490.632812 506.007812 L 487.027344 503.371094 L 484.378906 500.40625 L 483.222656 497.035156 L 483.492188 493.160156 L 482.683594 488.652344 L 477.6875 483.359375 L 466.699219 477.316406 L 453.101562 471.324219 L 441.578125 466.363281 L 435.492188 463.078125 L 432.9375 460.773438 L 430.679688 458.421875 L 426.027344 455.234375 L 418.445312 451.386719 L 407.945312 447.296875 L 394.9375 443.367188 L 381.472656 439.875 L 369.992188 437.085938 L 362.398438 435.152344 L 358.371094 433.804688 L 357.046875 432.667969 L 355.457031 431.445312 L 342.234375 430.203125 L 303.910156 429.089844 L 301.785156 430.472656 "/>
<path style="fill:none;stroke-width:0.75;stroke-linecap:round;stroke-linejoin:round;stroke:rgb(0%,0%,0%);stroke-opacity:1;stroke-miterlimit:10;" d="M 505.789062 260.25 L 492.851562 261.925781 L 480.433594 264.527344 L 470.480469 269.265625 L 464.34375 276.332031 L 460.445312 282.636719 L 457.800781 287.054688 L 455.691406 290.019531 L 453.386719 294.335938 L 451.3125 300.265625 L 450.105469 307.101562 L 449.757812 313.78125 L 449.550781 319.382812 L 448.824219 323.515625 L 447.71875 328.148438 L 446.410156 337.71875 L 445.007812 354.210938 L 443.554688 369.867188 L 442.070312 382.136719 L 440.601562 390.765625 L 439.296875 396.597656 L 438.511719 400.902344 L 438.601562 404.699219 L 439.683594 407.988281 L 441.5 411.25 L 443.652344 414.933594 L 445.582031 418.921875 L 447.332031 424.449219 L 449.230469 431.707031 L 451.902344 436.664062 L 455.492188 440.128906 L 459.742188 443.675781 L 463.636719 446.167969 L 466.941406 447.738281 L 469.742188 448.96875 L 472.339844 450.226562 L 475.078125 451.566406 L 478.292969 453.015625 L 482.304688 454.578125 L 487.445312 455.699219 L 494.019531 455.714844 L 502.277344 454.179688 L 512.558594 451.117188 L 524.964844 447.789062 L 538.429688 448.292969 L 551.332031 450.890625 L 562.152344 452.496094 L 570.324219 452.019531 L 576.355469 450.460938 L 580.964844 448.988281 L 584.777344 447.722656 L 588.179688 446.335938 L 591.492188 444.347656 L 594.859375 441.019531 L 598.304688 436.222656 L 601.675781 430.375 L 604.410156 424.765625 L 606.441406 418.921875 L 607.847656 412.660156 L 608.53125 408.289062 L 608.207031 405.589844 L 606.640625 403.035156 L 604.152344 397.746094 L 601.761719 388.328125 L 600.515625 376.1875 L 600.703125 368.84375 L 601.679688 363.605469 L 602.59375 355.625 L 602.714844 344.882812 L 602.058594 336.015625 L 600.867188 331.992188 L 599.464844 327.328125 L 598.019531 321.625 L 596.625 316.257812 L 595.308594 311.800781 L 594.046875 307.863281 L 592.78125 304.101562 L 591.335938 300.820312 L 589.445312 296.996094 L 586.824219 291.644531 L 583.199219 285.621094 L 578.277344 280.34375 L 572.0625 276.605469 L 565.605469 273.191406 L 559.5625 270.480469 L 553.746094 268.832031 L 545.769531 266.816406 L 534.308594 264.527344 L 519.171875 262.4375 L 502.996094 260.421875 L 505.789062 260.25 "/>
<path style="fill:none;stroke-width:0.75;stroke-linecap:round;stroke-linejoin:round;stroke:rgb(0%,0%,0%);stroke-opacity:1;stroke-miterlimit:10;" d="M 510.019531 488.601562 L 504.652344 493.953125 L 504.652344 498.632812 L 507.335938 502.101562 L 507.335938 505.394531 L 512.703125 508.726562 L 515.386719 510.574219 L 518.070312 512.109375 L 520.753906 513.929688 L 526.125 516.757812 L 528.808594 518.636719 L 531.492188 519.988281 L 534.175781 520.765625 L 536.859375 522.546875 L 539.542969 527.84375 L 558.332031 538.175781 L 558.332031 544.792969 L 561.015625 547.957031 L 561.015625 550.867188 L 566.382812 554.886719 L 566.382812 559.515625 L 574.433594 564.914062 L 574.433594 568.941406 L 577.117188 572.898438 L 577.117188 578.414062 L 579.800781 584.367188 L 579.800781 591.289062 L 582.488281 596.09375 L 582.488281 599.808594 L 587.855469 603.117188 L 595.90625 603.046875 L 601.273438 598.695312 L 601.273438 592.253906 L 598.589844 584.632812 L 598.589844 573.453125 L 606.640625 563.433594 L 606.640625 556.347656 L 603.957031 552.578125 L 603.957031 550.503906 L 601.273438 548.660156 L 601.273438 544.015625 L 609.324219 530.390625 L 609.324219 508.296875 L 617.378906 493.972656 L 612.011719 488.496094 L 510.019531 487.519531 L 510.019531 488.601562 "/>
<path style="fill:none;stroke-width:0.75;stroke-linecap:round;stroke-linejoin:round;stroke:rgb(0%,0%,0%);stroke-opacity:1;stroke-miterlimit:10;" d="M 845.492188 528.847656 L 845.226562 531.285156 L 844.695312 533.65625 L 844.078125 536.164062 L 843.566406 539.027344 L 843.285156 542.398438 L 843.140625 546.269531 L 842.96875 550.578125 L 842.609375 555.265625 L 842.003906 560.230469 L 841.449219 565.160156 L 841.339844 569.707031 L 842.074219 573.515625 L 843.835938 576.367188 L 845.976562 578.542969 L 847.636719 580.464844 L 847.953125 582.546875 L 846.328125 585.125 L 843.199219 588.214844 L 839.257812 591.746094 L 835.199219 595.644531 L 831.652344 599.832031 L 828.929688 604.195312 L 827.292969 608.609375 L 826.988281 612.945312 L 828.074219 617.125 L 829.859375 621.28125 L 831.457031 625.585938 L 831.988281 630.210938 L 830.863281 635.261719 L 828.703125 640.507812 L 826.421875 645.648438 L 824.929688 650.386719 L 824.898438 654.492188 L 825.996094 658.046875 L 827.644531 661.210938 L 829.269531 664.148438 L 830.371094 667.011719 L 830.777344 669.976562 L 830.40625 673.210938 L 829.164062 676.882812 L 827.066406 681.105469 L 824.570312 685.738281 L 822.226562 690.578125 L 820.59375 695.425781 L 820.058594 700.117188 L 820.34375 704.628906 L 821.003906 708.964844 L 821.582031 713.136719 L 821.800781 717.148438 L 822.03125 720.9375 L 822.808594 724.445312 L 824.667969 727.609375 L 827.957031 730.402344 L 832.277344 732.964844 L 837.039062 735.480469 L 841.648438 738.128906 L 845.589844 741.082031 L 848.601562 744.4375 L 850.488281 748.289062 L 851.0625 752.726562 L 850.253906 757.8125 L 848.472656 763.472656 L 846.25 769.609375 L 844.121094 776.121094 L 842.507812 782.894531 L 841.398438 789.746094 L 840.667969 796.484375 L 840.195312 802.910156 L 839.859375 808.832031 L 839.457031 813.992188 L 838.484375 817.886719 L 836.347656 819.953125 L 832.457031 819.628906 L 826.492188 816.769531 L 819.191406 812.929688 L 811.5625 810.078125 L 804.609375 810.191406 L 799.070312 814.640625 L 794.621094 822.371094 L 790.664062 831.726562 L 786.613281 841.054688 L 782.082031 849.054688 L 777.527344 855.835938 L 773.605469 861.859375 L 770.984375 867.589844 L 770.019531 873.382812 L 769.871094 879.152344 L 769.390625 884.703125 L 767.429688 889.835938 L 763.414062 894.421875 L 759.035156 898.566406 L 756.566406 902.441406 L 758.269531 906.207031 L 765.410156 910.039062 L 775.238281 914.113281 L 783.996094 918.609375 L 787.925781 923.703125 L 784.394531 929.476562 L 775.242188 935.613281 L 763.4375 941.707031 L 751.945312 947.339844 L 743.085938 952.082031 L 736.597656 955.40625 L 731.574219 956.769531 L 727.105469 955.625 L 722.535156 951.6875 L 718.226562 945.71875 L 714.777344 938.734375 L 712.796875 931.75 L 712.613281 925.574219 L 713.441406 920.136719 L 714.207031 915.15625 L 713.84375 910.351562 L 711.613281 905.53125 L 708.066406 900.929688 L 704.070312 896.871094 L 700.507812 893.679688 L 698.027344 891.433594 L 696.40625 889.195312 L 695.207031 885.792969 L 693.984375 880.042969 L 692.460938 871.125 L 690.984375 859.714844 L 690.074219 846.835938 L 690.242188 833.519531 L 691.789062 820.667969 L 694.195312 808.640625 L 696.726562 797.65625 L 698.652344 787.941406 L 699.441406 779.621094 L 699.378906 772.421875 L 698.953125 765.96875 L 698.644531 759.886719 L 698.945312 753.808594 L 700.121094 747.484375 L 701.589844 741.210938 L 702.554688 735.414062 L 702.210938 730.515625 L 700.050781 726.730469 L 696.757812 723.457031 L 693.296875 719.878906 L 690.648438 715.179688 L 689.5 708.816406 L 689.410156 701.285156 L 689.664062 693.367188 L 689.535156 685.828125 L 688.636719 679.289062 L 687.882812 673.769531 L 688.515625 669.136719 L 691.777344 665.257812 L 698.347656 661.976562 L 706.648438 659.035156 L 714.53125 656.148438 L 719.851562 653.03125 L 721.117188 649.488281 L 719.472656 645.660156 L 716.703125 641.777344 L 714.605469 638.070312 L 714.523438 634.6875 L 716.050781 631.464844 L 718.335938 628.15625 L 720.519531 624.515625 L 721.996094 620.386719 L 723.144531 616.003906 L 724.585938 611.683594 L 726.949219 607.746094 L 730.53125 604.378906 L 734.324219 601.222656 L 736.996094 597.792969 L 737.214844 593.59375 L 734.09375 588.320312 L 728.519531 582.4375 L 721.828125 576.585938 L 715.347656 571.414062 L 710.28125 567.398438 L 707.300781 564.335938 L 706.949219 561.847656 L 709.765625 559.558594 L 715.722656 557.171875 L 722.53125 554.695312 L 727.339844 552.21875 L 727.289062 549.832031 L 720.546875 547.648438 L 709.367188 545.851562 L 697.027344 544.660156 L 686.800781 544.273438 L 681.109375 544.824219 L 678.964844 546.074219 L 678.523438 547.703125 L 677.945312 549.398438 L 675.800781 550.902344 L 672.339844 552.25 L 668.226562 553.53125 L 664.113281 554.851562 L 660.527344 556.269531 L 657.429688 557.738281 L 654.628906 559.160156 L 651.945312 560.449219 L 649.222656 561.550781 L 646.390625 562.546875 L 643.414062 563.566406 L 640.257812 564.71875 L 636.875 566.128906 L 633.226562 567.945312 L 629.25 570.425781 L 624.871094 573.863281 L 620.019531 578.546875 L 614.738281 584.660156 L 609.511719 591.949219 L 604.925781 600.0625 L 601.582031 608.644531 L 599.847656 617.324219 L 599.257812 625.671875 L 599.117188 633.257812 L 598.738281 639.632812 L 597.605469 644.515625 L 595.894531 648.234375 L 593.953125 651.261719 L 592.128906 654.078125 L 590.6875 657.09375 L 589.53125 660.429688 L 588.496094 664.140625 L 587.398438 668.277344 L 586.109375 672.828125 L 584.671875 677.488281 L 583.175781 681.890625 L 581.707031 685.664062 L 580.335938 688.625 L 579.039062 691.351562 L 577.773438 694.605469 L 576.496094 699.152344 L 575.175781 705.542969 L 573.816406 713.527344 L 572.441406 722.640625 L 571.0625 732.417969 L 569.703125 742.410156 L 568.355469 752.203125 L 567.023438 761.398438 L 565.703125 769.601562 L 564.390625 776.542969 L 563.074219 782.511719 L 561.742188 787.925781 L 560.378906 793.214844 L 558.988281 798.703125 L 557.585938 804.363281 L 556.210938 810.066406 L 554.898438 815.691406 L 553.660156 821.175781 L 552.4375 826.660156 L 551.15625 832.347656 L 549.738281 838.445312 L 548.15625 845.304688 L 546.558594 853.910156 L 545.148438 865.402344 L 544.132812 880.914062 L 543.636719 901.476562 L 543.5 927.683594 L 543.488281 960.027344 L 543.371094 998.996094 L 542.949219 1044.382812 L 542.167969 1093.207031 L 541.007812 1141.785156 L 539.449219 1186.445312 L 537.527344 1224.238281 L 535.515625 1255.164062 L 533.734375 1279.964844 L 532.519531 1299.371094 L 532.1875 1314.117188 L 532.917969 1324.976562 L 534.289062 1332.847656 L 535.714844 1338.675781 L 536.617188 1343.394531 L 536.738281 1347.726562 L 537.054688 1351.503906 L 538.863281 1354.351562 L 543.46875 1355.882812 L 551.679688 1355.851562 L 562.394531 1354.550781 L 574.027344 1352.40625 L 584.996094 1349.84375 L 594.480469 1347.246094 L 604.738281 1344.796875 L 618.789062 1342.640625 L 639.648438 1340.910156 L 668.851562 1339.675781 L 701.941406 1338.652344 L 732.964844 1337.484375 L 755.976562 1335.824219 L 766.90625 1333.398438 L 769.226562 1330.320312 L 768.300781 1326.796875 L 769.476562 1323.035156 L 776.695312 1319.203125 L 788.210938 1315.378906 L 800.847656 1311.597656 L 811.441406 1307.898438 L 817.664062 1304.320312 L 820.578125 1300.855469 L 822.085938 1297.496094 L 824.089844 1294.234375 L 828.054688 1291.042969 L 833.679688 1287.832031 L 840.234375 1284.496094 L 846.984375 1280.933594 L 853.285156 1277.097656 L 858.882812 1273.140625 L 863.609375 1269.277344 L 867.296875 1265.730469 L 869.957031 1262.609375 L 872.261719 1259.648438 L 875.078125 1256.488281 L 879.253906 1252.757812 L 885.324219 1248.222656 L 892.566406 1243.128906 L 899.925781 1237.851562 L 906.359375 1232.765625 L 911.121094 1228.136719 L 914.695312 1223.804688 L 917.855469 1219.507812 L 921.390625 1214.984375 L 925.851562 1210.066406 L 930.882812 1204.96875 L 935.902344 1200.007812 L 940.332031 1195.5 L 943.769531 1191.691406 L 946.585938 1188.515625 L 949.335938 1185.847656 L 952.566406 1183.550781 L 956.636719 1181.476562 L 961.09375 1179.414062 L 965.277344 1177.132812 L 968.539062 1174.40625 L 970.425781 1171.054688 L 971.347656 1167.105469 L 971.914062 1162.625 L 972.734375 1157.691406 L 974.425781 1152.375 L 977.378906 1146.796875 L 981.117188 1141.230469 L 984.945312 1136 L 988.160156 1131.433594 L 990.265625 1127.742188 L 991.519531 1124.699219 L 992.382812 1121.96875 L 993.308594 1119.214844 L 994.648438 1116.171875 L 996.28125 1112.851562 L 997.984375 1109.328125 L 999.53125 1105.683594 L 1000.761719 1101.945312 L 1001.804688 1097.933594 L 1002.855469 1093.414062 L 1004.101562 1088.148438 L 1005.6875 1082.039062 L 1007.515625 1075.5 L 1009.441406 1069.089844 L 1011.308594 1063.347656 L 1012.972656 1058.691406 L 1014.277344 1054.964844 L 1015.070312 1051.871094 L 1015.195312 1049.113281 L 1014.621094 1046.445312 L 1013.78125 1043.777344 L 1013.238281 1041.074219 L 1013.542969 1038.292969 L 1015.074219 1035.394531 L 1017.5 1032.332031 L 1020.304688 1029.066406 L 1022.976562 1025.554688 L 1025.105469 1021.730469 L 1026.71875 1017.429688 L 1027.941406 1012.460938 L 1028.898438 1006.632812 L 1029.710938 999.84375 L 1030.429688 992.292969 L 1031.09375 984.277344 L 1031.746094 976.085938 L 1032.425781 968.007812 L 1033.179688 960.292969 L 1034.054688 953.203125 L 1035.101562 946.988281 L 1036.347656 941.738281 L 1037.761719 936.882812 L 1039.289062 931.691406 L 1040.878906 925.421875 L 1042.460938 917.574219 L 1043.890625 908.539062 L 1045.015625 898.925781 L 1045.675781 889.359375 L 1045.78125 880.3125 L 1045.527344 871.699219 L 1045.175781 863.300781 L 1044.992188 854.886719 L 1045.167969 846.234375 L 1045.632812 837.097656 L 1046.238281 827.234375 L 1046.84375 816.394531 L 1047.320312 804.488281 L 1047.59375 792.023438 L 1047.609375 779.65625 L 1047.300781 768.042969 L 1046.617188 757.847656 L 1045.546875 749.519531 L 1044.269531 742.695312 L 1043.023438 736.804688 L 1042.035156 731.28125 L 1041.460938 725.628906 L 1041.105469 719.660156 L 1040.707031 713.253906 L 1039.988281 706.300781 L 1038.761719 698.785156 L 1037.171875 691.089844 L 1035.4375 683.703125 L 1033.789062 677.113281 L 1032.382812 671.671875 L 1031.167969 667.25 L 1030.023438 663.582031 L 1028.832031 660.414062 L 1027.503906 657.515625 L 1026.089844 654.78125 L 1024.664062 652.15625 L 1023.3125 649.5625 L 1022.0625 646.9375 L 1020.777344 644.1875 L 1019.265625 641.214844 L 1017.34375 637.925781 L 1014.910156 634.257812 L 1012.183594 630.289062 L 1009.472656 626.132812 L 1007.078125 621.894531 L 1005.230469 617.675781 L 1003.847656 613.566406 L 1002.773438 609.644531 L 1001.847656 605.980469 L 1000.917969 602.609375 L 999.839844 599.386719 L 998.460938 596.125 L 996.644531 592.636719 L 994.261719 588.792969 L 991.296875 584.710938 L 987.742188 580.582031 L 983.605469 576.582031 L 978.949219 572.875 L 974.125 569.542969 L 969.546875 566.648438 L 965.636719 564.246094 L 962.644531 562.351562 L 960.207031 560.753906 L 957.785156 559.179688 L 954.855469 557.375 L 951.042969 555.140625 L 946.613281 552.613281 L 941.988281 549.984375 L 937.589844 547.460938 L 933.613281 545.207031 L 929.339844 543.21875 L 923.816406 541.46875 L 916.105469 539.917969 L 905.660156 538.523438 L 893.59375 537.238281 L 881.425781 536 L 870.679688 534.753906 L 862.503906 533.460938 L 856.5625 532.136719 L 852.144531 530.8125 L 848.546875 529.523438 L 845.054688 528.300781 L 845.492188 528.847656 "/>
<path style="fill:none;stroke-width:0.75;stroke-linecap:round;stroke-linejoin:round;stroke:rgb(0%,0%,0%);stroke-opacity:1;stroke-miterlimit:10;" d="M 692.558594 182.9375 L 689.914062 184.453125 L 686.910156 185.8125 L 684.34375 186.9375 L 682.0625 188.046875 L 679.65625 189.433594 L 676.738281 191.367188 L 672.945312 194.027344 L 667.933594 197.570312 L 661.640625 202.015625 L 655.164062 206.898438 L 649.886719 211.625 L 646.785156 215.722656 L 645.214844 219.265625 L 644.109375 222.4375 L 642.644531 225.441406 L 640.917969 228.480469 L 639.269531 231.769531 L 637.933594 235.445312 L 636.789062 239.363281 L 635.625 243.308594 L 634.289062 247.179688 L 632.835938 251.371094 L 631.394531 256.382812 L 630.046875 262.496094 L 628.765625 269.105469 L 627.492188 275.371094 L 626.171875 280.941406 L 624.78125 287.402344 L 623.316406 296.804688 L 621.847656 310.605469 L 620.78125 327.8125 L 620.597656 346.832031 L 621.589844 366.449219 L 623.292969 386.972656 L 625.035156 409.09375 L 626.324219 432.84375 L 627.339844 455.597656 L 628.429688 474.070312 L 629.894531 485.863281 L 631.855469 492.164062 L 634.375 495.042969 L 637.480469 496.34375 L 640.964844 496.9375 L 644.582031 497.464844 L 648.125 498.425781 L 651.511719 499.738281 L 654.707031 501.1875 L 657.734375 502.589844 L 660.902344 503.925781 L 664.589844 505.214844 L 668.988281 506.484375 L 673.578125 507.785156 L 677.65625 509.183594 L 680.800781 510.742188 L 683.707031 512.496094 L 687.34375 514.492188 L 692.394531 516.664062 L 698.363281 518.589844 L 704.453125 519.738281 L 709.730469 519.695312 L 712.65625 518.453125 L 711.550781 516.125 L 705.546875 512.875 L 697.039062 509.171875 L 689.238281 505.546875 L 684.566406 502.386719 L 682.21875 499.5 L 680.609375 496.550781 L 678.484375 493.210938 L 675.957031 489.171875 L 673.484375 484.136719 L 671.535156 478.023438 L 670.601562 471.601562 L 671.183594 465.875 L 673.375 461.574219 L 675.589844 458.429688 L 675.847656 455.90625 L 673.109375 453.554688 L 670.183594 451.21875 L 670.828125 448.816406 L 677.398438 446.214844 L 686.621094 443.113281 L 693.808594 439.152344 L 695.359375 434.1875 L 691.992188 428.882812 L 685.515625 424.117188 L 677.757812 420.53125 L 670.671875 417.84375 L 666.230469 415.527344 L 665.710938 413.148438 L 667.621094 410.558594 L 669.765625 407.6875 L 670.4375 404.511719 L 669.882812 401.15625 L 668.839844 397.796875 L 667.917969 394.503906 L 667.242188 390.964844 L 666.8125 386.78125 L 666.570312 381.71875 L 666.15625 376.242188 L 665.148438 370.992188 L 663.300781 366.46875 L 661.070312 362.679688 L 659.097656 359.484375 L 657.816406 356.707031 L 656.910156 353.980469 L 655.933594 350.933594 L 654.710938 347.351562 L 653.132812 343.066406 L 651.246094 337.972656 L 649.691406 332.296875 L 649.265625 326.335938 L 650.4375 320.289062 L 652.308594 314 L 653.664062 307.21875 L 653.738281 299.902344 L 653.589844 292.855469 L 654.742188 287.085938 L 658.164062 283.257812 L 662.609375 280.613281 L 666.277344 278.042969 L 667.8125 274.660156 L 667.625 270.484375 L 666.5625 265.753906 L 665.417969 260.753906 L 664.769531 255.988281 L 665.132812 252 L 666.824219 249.15625 L 669.339844 247.078125 L 671.964844 245.214844 L 674.046875 243.101562 L 675.117188 240.671875 L 674.757812 237.945312 L 673.042969 234.960938 L 671.988281 231.796875 L 674.101562 228.542969 L 681.058594 225.261719 L 691.175781 221.90625 L 701.953125 218.40625 L 711.746094 214.828125 L 722.367188 211.769531 L 736.5 209.976562 L 755.53125 210.085938 L 775.648438 212.359375 L 791.742188 216.957031 L 800.199219 223.84375 L 803.417969 232.199219 L 805.296875 241 L 808.902344 249.347656 L 813.960938 256.800781 L 819.367188 263.035156 L 824.074219 267.875 L 827.25 271.734375 L 828.117188 275.167969 L 826.410156 278.664062 L 823.902344 282.386719 L 822.882812 286.425781 L 824.925781 290.882812 L 828.800781 295.933594 L 832.5625 301.78125 L 834.714844 308.445312 L 835.554688 315.3125 L 835.820312 321.59375 L 836.261719 326.71875 L 837.652344 330.996094 L 840.78125 334.941406 L 845.902344 339.074219 L 851.167969 343.871094 L 854.207031 349.800781 L 853.539062 357.019531 L 851.296875 364.429688 L 850.5 370.609375 L 853.144531 374.597656 L 857.054688 377.230469 L 859.027344 379.78125 L 856.984375 383.242188 L 853.402344 387.414062 L 851.878906 391.8125 L 854.886719 395.996094 L 860.378906 399.746094 L 865.179688 402.898438 L 866.890625 405.421875 L 866.261719 407.832031 L 864.828125 410.785156 L 863.761719 414.71875 L 862.761719 419.179688 L 861.164062 423.492188 L 858.59375 427.132812 L 855.867188 430.109375 L 854.082031 432.574219 L 854.097656 434.734375 L 855.789062 436.992188 L 858.785156 439.804688 L 862.667969 443.441406 L 866.859375 447.449219 L 870.730469 451.203125 L 873.75 454.257812 L 875.769531 456.972656 L 876.726562 459.894531 L 876.527344 463.484375 L 874.929688 467.835938 L 871.652344 472.960938 L 866.695312 478.796875 L 861.171875 485.011719 L 856.484375 491.21875 L 853.816406 497.03125 L 853.527344 502.140625 L 855.769531 506.238281 L 860.257812 509.050781 L 864.917969 510.382812 L 867.855469 510.179688 L 869.707031 508.859375 L 871.714844 506.949219 L 874.816406 504.898438 L 878.632812 502.84375 L 882.464844 500.851562 L 885.765625 498.976562 L 888.609375 497.261719 L 891.222656 495.75 L 893.792969 494.449219 L 896.394531 493.230469 L 899.0625 491.925781 L 901.84375 490.414062 L 904.804688 488.738281 L 908.015625 486.972656 L 911.496094 485.167969 L 915.0625 483.203125 L 918.472656 480.941406 L 921.554688 478.257812 L 924.429688 475.191406 L 927.289062 471.804688 L 930.183594 468.203125 L 932.605469 464.65625 L 933.902344 461.464844 L 933.617188 458.851562 L 932.03125 456.648438 L 929.617188 454.609375 L 926.902344 452.519531 L 924.671875 450.378906 L 923.757812 448.230469 L 924.519531 445.976562 L 925.324219 442.925781 L 924.074219 438.25 L 919.445312 431.382812 L 913.335938 422.824219 L 908.429688 413.339844 L 906.597656 403.648438 L 906.453125 394.28125 L 905.792969 385.734375 L 903.039062 378.398438 L 899.117188 372.257812 L 895.570312 367.203125 L 893.558594 363.085938 L 892.648438 359.648438 L 892.015625 356.589844 L 890.992188 353.644531 L 889.554688 350.613281 L 887.847656 347.328125 L 885.988281 343.667969 L 884.039062 339.6875 L 882.042969 335.484375 L 880.066406 331.164062 L 878.253906 326.847656 L 876.769531 322.65625 L 875.671875 318.671875 L 874.605469 314.871094 L 873.121094 311.183594 L 870.933594 307.574219 L 868.449219 304.101562 L 866.238281 300.855469 L 864.707031 297.882812 L 863.589844 295.125 L 862.464844 292.480469 L 861.019531 289.867188 L 859.453125 287.261719 L 858.085938 284.65625 L 857.082031 282 L 855.988281 279.105469 L 854.191406 275.746094 L 851.320312 271.808594 L 847.964844 267.652344 L 844.953125 263.746094 L 842.914062 260.441406 L 841.660156 257.59375 L 840.796875 254.945312 L 839.925781 252.238281 L 838.628906 249.300781 L 836.480469 245.957031 L 833.308594 242.144531 L 829.921875 238.214844 L 827.382812 234.613281 L 826.347656 231.609375 L 825.851562 228.738281 L 824.527344 225.347656 L 821.34375 220.980469 L 816.605469 215.933594 L 810.957031 210.703125 L 805.023438 205.753906 L 799.320312 201.449219 L 794.339844 198.140625 L 790.484375 196.019531 L 787.773438 194.714844 L 786.132812 193.699219 L 785.1875 192.550781 L 783.347656 191.25 L 778.722656 189.878906 L 770.472656 188.515625 L 762.003906 187.171875 L 757.777344 185.84375 L 757.835938 184.542969 L 744.519531 183.292969 L 695.738281 182.125 L 692.558594 182.9375 "/>
<path style="fill:none;stroke-width:0.75;stroke-linecap:round;stroke-linejoin:round;stroke:rgb(0%,0%,0%);stroke-opacity:1;stroke-miterlimit:10;" d="M 951.035156 300.265625 L 943.265625 304.542969 L 935 310.117188 L 927.433594 318.117188 L 921.742188 326.203125 L 918.660156 331.902344 L 917.128906 335.628906 L 915.871094 338.707031 L 914.542969 343.171875 L 913.089844 350.371094 L 911.71875 358.109375 L 910.742188 364.265625 L 910.625 370.578125 L 911.640625 378.824219 L 913.160156 387.117188 L 914.523438 393.304688 L 915.863281 397.816406 L 917.464844 401.628906 L 919.457031 405.410156 L 921.800781 409.507812 L 923.9375 413.292969 L 925.410156 416.128906 L 926.652344 418.242188 L 928.203125 420.476562 L 930.191406 425.214844 L 932.519531 434.238281 L 934.6875 445.414062 L 936.253906 455.976562 L 937.492188 464.546875 L 938.777344 470.503906 L 940.128906 474.824219 L 941.496094 478.695312 L 942.773438 482.507812 L 943.9375 486.386719 L 945.28125 490.265625 L 947.152344 494.097656 L 949.773438 498.1875 L 953.09375 502.703125 L 956.09375 506.90625 L 957.882812 510.390625 L 959.015625 514.972656 L 960.246094 522.191406 L 961.597656 530.246094 L 962.949219 536.949219 L 964.28125 541.867188 L 965.601562 545.175781 L 966.976562 547.683594 L 968.398438 550.1875 L 969.539062 552.84375 L 970.269531 555.738281 L 971.585938 559.410156 L 974.6875 564.546875 L 980.507812 571.976562 L 989.039062 581.753906 L 996.828125 590.605469 L 1000.710938 595.664062 L 1002.15625 598.953125 L 1003.339844 603.035156 L 1004.617188 607.808594 L 1005.914062 612.527344 L 1007.1875 616.660156 L 1008.441406 619.910156 L 1009.800781 622.714844 L 1011.425781 625.632812 L 1013.375 628.851562 L 1015.613281 632.394531 L 1017.789062 635.902344 L 1019.617188 639.097656 L 1021.492188 642.273438 L 1023.769531 645.785156 L 1025.945312 649.519531 L 1027.511719 653.253906 L 1028.742188 656.761719 L 1030.03125 659.914062 L 1031.378906 662.988281 L 1032.722656 666.300781 L 1034.058594 670.003906 L 1035.398438 674.375 L 1036.746094 680.507812 L 1038.09375 689.105469 L 1039.433594 698.621094 L 1040.765625 707.308594 L 1042.09375 714.996094 L 1043.414062 721.875 L 1044.65625 728.027344 L 1045.914062 733.484375 L 1048.007812 738.167969 L 1051.503906 742.082031 L 1055.25 745.675781 L 1058.980469 749.433594 L 1067.683594 753.582031 L 1085.269531 758.101562 L 1106.03125 762.269531 L 1123.285156 765.140625 L 1136.050781 765.554688 L 1145 762.765625 L 1151.6875 757.941406 L 1157.582031 752.445312 L 1162.933594 746.558594 L 1167.574219 740.527344 L 1170.8125 735.65625 L 1172.28125 732.820312 L 1173.367188 730.183594 L 1175.613281 725.765625 L 1179.515625 719.714844 L 1184.824219 712.78125 L 1189.445312 705.890625 L 1191.585938 699.839844 L 1192.519531 694.660156 L 1193.914062 690.171875 L 1195.90625 686.132812 L 1198.21875 682.546875 L 1200.414062 680.433594 L 1202.132812 679.066406 L 1203.433594 669.714844 L 1204.363281 646.015625 L 1204.460938 619.085938 L 1203.414062 601.023438 L 1201.980469 590.300781 L 1200.875 582.382812 L 1199.597656 574.269531 L 1197.324219 564.257812 L 1193.140625 554.316406 L 1186.847656 546.691406 L 1181.234375 541.101562 L 1178.914062 536.703125 L 1178.859375 532.910156 L 1179.273438 529.304688 L 1178.894531 525.828125 L 1177.015625 522.457031 L 1174.511719 518.972656 L 1172.425781 515.152344 L 1170.828125 510.972656 L 1169.511719 506.5625 L 1168.125 502.382812 L 1166.558594 498.644531 L 1165.769531 494.160156 L 1166.4375 487.996094 L 1167.074219 481.683594 L 1165.953125 476.894531 L 1162.582031 473.472656 L 1157.289062 470.65625 L 1152.507812 467.128906 L 1150.3125 462.015625 L 1149.296875 456.769531 L 1147.554688 452.6875 L 1144.753906 448.210938 L 1141.117188 441.691406 L 1137.558594 434.066406 L 1134.933594 426.769531 L 1133.136719 420.652344 L 1131.832031 416.148438 L 1130.65625 412.585938 L 1129.347656 409.085938 L 1128.066406 405.011719 L 1126.917969 399.816406 L 1125.359375 393.070312 L 1122.914062 384.964844 L 1120.039062 378.039062 L 1117.273438 374.246094 L 1114.492188 370.859375 L 1111.484375 365.097656 L 1108.382812 358.683594 L 1105.128906 353.808594 L 1100.550781 349.957031 L 1093.675781 346.242188 L 1085.464844 342.929688 L 1077.402344 340.433594 L 1071.070312 338.640625 L 1067.433594 337.324219 L 1064.785156 336.34375 L 1061.21875 335.398438 L 1056.714844 333.402344 L 1051.59375 329.433594 L 1045.675781 324.015625 L 1038.417969 318.355469 L 1028.3125 315.003906 L 1014.972656 316.109375 L 1003.523438 320.878906 L 998.425781 327.382812 L 995.957031 332.113281 L 991.957031 332.183594 L 988.617188 328.824219 L 988.636719 324.253906 L 990.351562 320.492188 L 991.347656 318.910156 L 990.539062 318.421875 L 987.578125 317.625 L 983.707031 316.265625 L 979.996094 314.339844 L 975.125 311.730469 L 968 308.496094 L 960.757812 305.539062 L 955.683594 303.65625 L 952.417969 302.382812 L 949.933594 300.945312 L 951.035156 300.265625 "/>
</g>
</svg>
