<?xml version="1.0" encoding="UTF-8"?>
<svg xmlns="http://www.w3.org/2000/svg" xmlns:xlink="http://www.w3.org/1999/xlink" width="1428pt" height="1605pt" viewBox="0 0 1428 1605" version="1.1">
<g id="surface319">
<rect x="0" y="0" width="1428" height="1605" style="fill:rgb(100%,100%,100%);fill-opacity:1;stroke:none;"/>
<path style="fill:none;stroke-width:0.75;stroke-linecap:round;stroke-linejoin:round;stroke:rgb(0%,0%,0%);stroke-opacity:1;stroke-miterlimit:10;" d="M 711.03125 152.28125 L 703.875 157.613281 L 697.046875 161.875 L 690.554688 165.273438 L 684.398438 168.035156 L 678.589844 170.363281 L 673.128906 172.476562 L 668.015625 174.554688 L 663.25 176.765625 L 658.839844 179.292969 L 654.78125 182.308594 L 651.066406 185.953125 L 647.636719 190.226562 L 644.429688 195.09375 L 641.375 200.523438 L 638.40625 206.476562 L 635.472656 212.898438 L 632.550781 219.617188 L 629.636719 226.449219 L 626.714844 233.203125 L 623.789062 239.6875 L 620.863281 245.78125 L 618.046875 251.648438 L 615.46875 257.519531 L 613.253906 263.628906 L 611.53125 270.203125 L 610.429688 277.484375 L 609.996094 285.582031 L 609.957031 294.140625 L 609.957031 302.691406 L 609.644531 310.765625 L 608.664062 317.890625 L 606.804688 323.628906 L 604.429688 327.664062 L 602.042969 329.726562 L 600.15625 329.535156 L 599.269531 326.8125 L 599.65625 321.464844 L 600.640625 314.15625 L 601.320312 305.742188 L 600.78125 297.070312 L 598.121094 288.996094 L 592.683594 282.175781 L 584.828125 276.511719 L 575.179688 271.710938 L 564.351562 267.484375 L 552.964844 263.542969 L 541.59375 259.667969 L 530.65625 255.964844 L 520.523438 252.609375 L 511.574219 249.78125 L 504.183594 247.660156 L 498.722656 246.421875 L 495.359375 246.203125 L 493.445312 246.9375 L 492.105469 248.527344 L 490.480469 250.863281 L 487.707031 253.839844 L 483.171875 257.351562 L 477.273438 261.289062 L 470.667969 265.535156 L 464.011719 269.984375 L 457.953125 274.523438 L 453.003906 279.105469 L 449.109375 283.949219 L 446.074219 289.335938 L 443.699219 295.550781 L 441.789062 302.875 L 440.179688 311.457031 L 438.871094 320.894531 L 437.886719 330.652344 L 437.265625 340.191406 L 437.03125 348.976562 L 437.195312 356.617188 L 437.667969 363.285156 L 438.335938 369.304688 L 439.082031 374.992188 L 439.796875 380.675781 L 440.367188 386.667969 L 440.714844 393.203125 L 440.898438 400.152344 L 441.023438 407.292969 L 441.183594 414.40625 L 441.484375 421.273438 L 442.03125 427.714844 L 442.996094 433.753906 L 444.570312 439.460938 L 446.941406 444.902344 L 450.289062 450.144531 L 454.769531 455.179688 L 460.394531 459.707031 L 467.148438 463.351562 L 475.011719 465.738281 L 483.960938 466.484375 L 493.859375 465.402344 L 504.070312 463.050781 L 513.835938 460.160156 L 522.398438 457.480469 L 529 455.742188 L 533.074219 455.519531 L 534.800781 456.714844 L 534.558594 459.054688 L 532.71875 462.265625 L 529.65625 466.085938 L 525.738281 470.242188 L 521.328125 474.507812 L 516.71875 478.800781 L 512.191406 483.097656 L 508.019531 487.359375 L 504.480469 491.558594 L 501.773438 495.59375 L 499.746094 499.128906 L 498.15625 501.761719 L 496.769531 503.089844 L 495.347656 502.710938 L 493.648438 500.390625 L 491.421875 496.558594 L 488.398438 491.800781 L 484.328125 486.714844 L 478.945312 481.890625 L 472.140625 477.785156 L 464.414062 474.28125 L 456.40625 471.128906 L 448.765625 468.082031 L 442.140625 464.886719 L 436.890625 461.355469 L 432.234375 457.5625 L 427.109375 453.65625 L 420.453125 449.765625 L 411.199219 446.039062 L 398.28125 442.617188 L 381.113281 439.632812 L 361.019531 437.199219 L 339.792969 435.433594 L 319.226562 434.449219 L 301.125 434.351562 L 286.867188 435.199219 L 276.199219 436.828125 L 268.457031 439.003906 L 262.976562 441.507812 L 259.085938 444.113281 L 256.164062 446.648438 L 253.78125 449.148438 L 251.542969 451.703125 L 249.0625 454.402344 L 245.945312 457.332031 L 241.894531 460.550781 L 236.957031 464.015625 L 231.28125 467.644531 L 225.007812 471.359375 L 218.273438 475.085938 L 211.242188 478.761719 L 204.148438 482.394531 L 197.253906 486.015625 L 190.8125 489.652344 L 185.078125 493.328125 L 180.308594 497.070312 L 176.644531 500.925781 L 173.769531 504.992188 L 171.25 509.386719 L 168.652344 514.226562 L 165.542969 519.625 L 161.628906 525.625 L 157.191406 531.980469 L 152.648438 538.378906 L 148.425781 544.5 L 144.941406 550.023438 L 142.488281 554.734375 L 140.878906 558.800781 L 139.78125 562.484375 L 138.882812 566.050781 L 137.863281 569.769531 L 136.449219 573.871094 L 134.59375 578.460938 L 132.304688 583.601562 L 129.589844 589.367188 L 126.445312 595.828125 L 122.910156 602.988281 L 119.121094 610.597656 L 115.246094 618.34375 L 111.441406 625.910156 L 107.878906 632.992188 L 104.722656 639.265625 L 102.089844 644.53125 L 99.910156 649.023438 L 98.066406 653.074219 L 96.445312 657.023438 L 94.921875 661.21875 L 93.402344 665.914062 L 91.855469 671.078125 L 90.269531 676.605469 L 88.628906 682.382812 L 86.917969 688.300781 L 85.140625 694.261719 L 83.335938 700.222656 L 81.5625 706.15625 L 79.867188 712.03125 L 78.3125 717.820312 L 76.925781 723.492188 L 75.675781 729.023438 L 74.492188 734.378906 L 73.320312 739.539062 L 72.097656 744.476562 L 70.777344 749.175781 L 69.363281 753.683594 L 67.867188 758.066406 L 66.3125 762.378906 L 64.703125 766.691406 L 63.066406 771.058594 L 61.414062 775.539062 L 59.78125 780.152344 L 58.207031 784.90625 L 56.734375 789.8125 L 55.398438 794.886719 L 54.21875 800.132812 L 53.171875 805.519531 L 52.210938 811.011719 L 51.285156 816.574219 L 50.351562 822.164062 L 49.375 827.804688 L 48.355469 833.742188 L 47.292969 840.277344 L 46.207031 847.710938 L 45.097656 856.347656 L 43.996094 866.335938 L 42.984375 877.25 L 42.179688 888.503906 L 41.683594 899.523438 L 41.605469 909.722656 L 42.019531 918.644531 L 42.851562 926.28125 L 43.996094 932.75 L 45.339844 938.164062 L 46.785156 942.636719 L 48.21875 946.277344 L 49.542969 949.238281 L 50.6875 951.785156 L 51.585938 954.222656 L 52.179688 956.855469 L 52.398438 959.984375 L 52.242188 963.8125 L 51.894531 968.152344 L 51.617188 972.722656 L 51.648438 977.238281 L 52.242188 981.40625 L 53.554688 985.042969 L 55.367188 988.320312 L 57.367188 991.519531 L 59.253906 994.90625 L 60.714844 998.761719 L 61.527344 1003.273438 L 61.84375 1008.339844 L 61.898438 1013.765625 L 61.941406 1019.371094 L 62.203125 1024.964844 L 62.875 1030.390625 L 63.945312 1035.578125 L 65.347656 1040.5 L 67.019531 1045.117188 L 68.898438 1049.390625 L 70.914062 1053.289062 L 73.003906 1056.808594 L 75.066406 1060.089844 L 76.988281 1063.304688 L 78.667969 1066.628906 L 79.996094 1070.238281 L 80.933594 1074.257812 L 81.703125 1078.636719 L 82.597656 1083.269531 L 83.910156 1088.050781 L 85.933594 1092.878906 L 88.859375 1097.65625 L 92.484375 1102.277344 L 96.507812 1106.636719 L 100.621094 1110.640625 L 104.527344 1114.175781 L 108 1117.210938 L 111.125 1119.921875 L 114.070312 1122.566406 L 117 1125.390625 L 120.082031 1128.636719 L 123.433594 1132.484375 L 126.980469 1136.824219 L 130.601562 1141.484375 L 134.167969 1146.285156 L 137.558594 1151.042969 L 140.652344 1155.585938 L 143.375 1159.785156 L 145.851562 1163.726562 L 148.261719 1167.550781 L 150.777344 1171.390625 L 153.578125 1175.386719 L 156.796875 1179.636719 L 160.386719 1184.09375 L 164.253906 1188.671875 L 168.3125 1193.289062 L 172.46875 1197.855469 L 176.609375 1202.285156 L 180.511719 1206.484375 L 183.941406 1210.347656 L 186.652344 1213.777344 L 188.402344 1216.671875 L 189.089844 1219.003906 L 189.164062 1221.019531 L 189.210938 1223.035156 L 189.820312 1225.375 L 191.574219 1228.351562 L 194.890625 1232.203125 L 199.457031 1236.824219 L 204.785156 1242.035156 L 210.394531 1247.644531 L 215.792969 1253.46875 L 220.496094 1259.324219 L 224.175781 1265.054688 L 227.140625 1270.65625 L 229.847656 1276.148438 L 232.757812 1281.554688 L 236.339844 1286.902344 L 240.921875 1292.199219 L 246.3125 1297.425781 L 252.183594 1302.539062 L 258.214844 1307.515625 L 264.082031 1312.3125 L 269.496094 1316.898438 L 274.320312 1321.253906 L 278.449219 1325.359375 L 281.78125 1329.191406 L 284.214844 1332.734375 L 285.753906 1336 L 286.816406 1339.148438 L 287.921875 1342.367188 L 289.597656 1345.847656 L 292.367188 1349.777344 L 296.644531 1354.28125 L 302.445312 1359.199219 L 309.664062 1364.300781 L 318.207031 1369.351562 L 327.976562 1374.132812 L 338.871094 1378.40625 L 350.734375 1381.996094 L 363.128906 1384.921875 L 375.554688 1387.242188 L 387.519531 1389.03125 L 398.519531 1390.355469 L 408.292969 1391.25 L 417.519531 1391.632812 L 427.109375 1391.386719 L 437.976562 1390.40625 L 451.035156 1388.578125 L 466.785156 1385.875 L 484.066406 1382.617188 L 501.3125 1379.214844 L 516.953125 1376.082031 L 529.414062 1373.625 L 537.613281 1372.109375 L 542.429688 1371.238281 L 545.21875 1370.558594 L 547.339844 1369.625 L 550.160156 1367.992188 L 554.816406 1365.339844 L 561.5625 1361.863281 L 570.433594 1357.875 L 581.460938 1353.699219 L 594.675781 1349.652344 L 610.117188 1346.050781 L 627.636719 1343.148438 L 646.382812 1340.898438 L 665.320312 1339.199219 L 683.417969 1337.9375 L 699.640625 1337.003906 L 713.207031 1336.289062 L 724.328125 1335.640625 L 733.457031 1334.914062 L 741.054688 1333.949219 L 747.582031 1332.605469 L 753.46875 1330.761719 L 759.058594 1328.453125 L 764.671875 1325.75 L 770.632812 1322.726562 L 777.253906 1319.453125 L 784.738281 1315.992188 L 792.78125 1312.398438 L 800.972656 1308.710938 L 808.878906 1304.980469 L 816.089844 1301.25 L 822.296875 1297.546875 L 827.667969 1293.84375 L 832.488281 1290.085938 L 837.042969 1286.226562 L 841.613281 1282.21875 L 846.484375 1278.011719 L 851.871094 1273.582031 L 857.699219 1269.019531 L 863.8125 1264.4375 L 870.066406 1259.949219 L 876.316406 1255.664062 L 882.453125 1251.625 L 888.539062 1247.582031 L 894.679688 1243.210938 L 900.980469 1238.183594 L 907.539062 1232.183594 L 914.417969 1225.003906 L 921.464844 1216.941406 L 928.492188 1208.40625 L 935.300781 1199.8125 L 941.695312 1191.578125 L 947.515625 1184.042969 L 952.746094 1177.257812 L 957.410156 1171.207031 L 961.523438 1165.859375 L 965.105469 1161.203125 L 968.199219 1157.171875 L 970.9375 1153.570312 L 973.46875 1150.15625 L 975.941406 1146.695312 L 978.507812 1142.941406 L 981.324219 1138.660156 L 984.476562 1133.691406 L 987.792969 1128.175781 L 991.039062 1122.34375 L 993.992188 1116.414062 L 996.410156 1110.605469 L 998.144531 1105.097656 L 999.375 1099.855469 L 1000.355469 1094.808594 L 1001.347656 1089.878906 L 1002.605469 1084.984375 L 1004.308594 1080.078125 L 1006.308594 1075.253906 L 1008.375 1070.621094 L 1010.28125 1066.304688 L 1011.804688 1062.414062 L 1012.773438 1059.019531 L 1013.292969 1055.988281 L 1013.53125 1053.140625 L 1013.65625 1050.292969 L 1013.835938 1047.257812 L 1014.207031 1043.921875 L 1014.800781 1040.394531 L 1015.609375 1036.855469 L 1016.632812 1033.484375 L 1017.871094 1030.460938 L 1019.324219 1027.960938 L 1020.964844 1026.011719 L 1022.726562 1024.03125 L 1024.515625 1021.285156 L 1026.234375 1017.046875 L 1027.789062 1010.578125 L 1029.128906 1001.433594 L 1030.304688 990.285156 L 1031.417969 978.105469 L 1032.558594 965.847656 L 1033.820312 954.480469 L 1035.265625 944.722656 L 1036.8125 936.347656 L 1038.351562 928.886719 L 1039.769531 921.875 L 1040.953125 914.835938 L 1041.828125 907.398438 L 1042.4375 899.539062 L 1042.863281 891.332031 L 1043.183594 882.839844 L 1043.480469 874.140625 L 1043.820312 865.277344 L 1044.210938 856.230469 L 1044.65625 846.945312 L 1045.144531 837.378906 L 1045.679688 827.484375 L 1046.257812 817.214844 L 1046.855469 806.59375 L 1047.371094 795.9375 L 1047.6875 785.640625 L 1047.683594 776.085938 L 1047.242188 767.667969 L 1046.351562 760.714844 L 1045.476562 755.339844 L 1045.1875 751.597656 L 1046.054688 749.542969 L 1048.660156 749.226562 L 1053.382812 750.621094 L 1059.898438 753.34375 L 1067.6875 756.925781 L 1076.226562 760.90625 L 1085.003906 764.816406 L 1093.554688 768.265625 L 1101.652344 771.191406 L 1109.121094 773.605469 L 1115.785156 775.511719 L 1121.46875 776.929688 L 1126.101562 777.84375 L 1129.984375 778.152344 L 1133.527344 777.722656 L 1137.144531 776.429688 L 1141.234375 774.148438 L 1146.207031 770.746094 L 1152.292969 766.199219 L 1159.03125 760.894531 L 1165.773438 755.320312 L 1171.878906 749.960938 L 1176.703125 745.308594 L 1179.8125 741.6875 L 1181.578125 738.753906 L 1182.585938 736.003906 L 1183.421875 732.941406 L 1184.660156 729.054688 L 1186.738281 724.007812 L 1189.492188 718.109375 L 1192.605469 711.828125 L 1195.765625 705.644531 L 1198.65625 700.023438 L 1201.03125 695.3125 L 1202.914062 691.324219 L 1204.386719 687.734375 L 1205.539062 684.226562 L 1206.457031 680.480469 L 1207.230469 676.21875 L 1207.933594 671.339844 L 1208.644531 665.785156 L 1209.445312 659.488281 L 1210.414062 652.390625 L 1211.628906 644.429688 L 1213.117188 635.65625 L 1214.71875 626.53125 L 1216.21875 617.640625 L 1217.40625 609.550781 L 1218.070312 602.84375 L 1218.078125 597.90625 L 1217.605469 594.355469 L 1216.914062 591.625 L 1216.261719 589.148438 L 1215.902344 586.351562 L 1215.980469 582.792969 L 1216.179688 578.523438 L 1216.082031 573.71875 L 1215.25 568.554688 L 1213.261719 563.203125 L 1209.839844 557.816406 L 1205.328125 552.433594 L 1200.207031 547.058594 L 1194.976562 541.710938 L 1190.117188 536.394531 L 1186.035156 531.113281 L 1182.730469 525.835938 L 1180.121094 520.523438 L 1178.125 515.132812 L 1176.652344 509.621094 L 1175.625 503.953125 L 1174.917969 498.109375 L 1174.292969 492.152344 L 1173.476562 486.167969 L 1172.195312 480.246094 L 1170.175781 474.476562 L 1167.246094 468.910156 L 1163.644531 463.460938 L 1159.71875 458.019531 L 1155.808594 452.46875 L 1152.261719 446.6875 L 1149.332031 440.605469 L 1146.929688 434.332031 L 1144.871094 428.007812 L 1142.976562 421.785156 L 1141.066406 415.808594 L 1139.003906 410.1875 L 1136.855469 404.859375 L 1134.722656 399.726562 L 1132.707031 394.695312 L 1130.921875 389.65625 L 1129.410156 384.539062 L 1127.960938 379.339844 L 1126.304688 374.085938 L 1124.179688 368.796875 L 1121.3125 363.5 L 1117.433594 358.214844 L 1112.390625 352.988281 L 1106.472656 347.960938 L 1100.089844 343.292969 L 1093.648438 339.140625 L 1087.554688 335.667969 L 1082.125 332.949219 L 1077.304688 330.699219 L 1072.949219 328.558594 L 1068.910156 326.152344 L 1065.046875 323.113281 L 1061.230469 319.207031 L 1057.457031 314.707031 L 1053.734375 310.011719 L 1050.074219 305.53125 L 1046.492188 301.664062 L 1043 298.695312 L 1039.609375 296.425781 L 1036.332031 294.527344 L 1033.179688 292.679688 L 1030.164062 290.5625 L 1027.277344 287.972656 L 1024.421875 285.195312 L 1021.480469 282.648438 L 1018.332031 280.738281 L 1014.859375 279.875 L 1010.945312 280.46875 L 1006.5 282.730469 L 1001.566406 286.03125 L 996.207031 289.546875 L 990.496094 292.453125 L 984.496094 293.921875 L 978.3125 293.394531 L 972.160156 291.394531 L 966.28125 288.714844 L 960.917969 286.148438 L 956.324219 284.492188 L 952.636719 284.335938 L 949.59375 285.5 L 946.839844 287.59375 L 944.003906 290.234375 L 940.730469 293.039062 L 936.765625 295.734375 L 932.324219 298.515625 L 927.726562 301.683594 L 923.296875 305.542969 L 919.355469 310.394531 L 916.148438 316.445312 L 913.585938 323.457031 L 911.492188 331.089844 L 909.699219 339.007812 L 908.035156 346.875 L 906.324219 354.34375 L 904.441406 361.070312 L 902.414062 366.648438 L 900.304688 370.65625 L 898.183594 372.679688 L 896.125 372.296875 L 894.160156 369.277344 L 892.238281 364.101562 L 890.269531 357.441406 L 888.164062 349.964844 L 885.835938 342.34375 L 883.25 335.140625 L 880.558594 328.492188 L 877.96875 322.433594 L 875.6875 317 L 873.914062 312.226562 L 872.773438 308.066406 L 872.011719 304.164062 L 871.304688 300.089844 L 870.320312 295.410156 L 868.726562 289.695312 L 866.28125 282.660156 L 863.09375 274.621094 L 859.359375 266.054688 L 855.285156 257.421875 L 851.0625 249.191406 L 846.894531 241.835938 L 842.953125 235.691406 L 839.277344 230.566406 L 835.898438 226.140625 L 832.828125 222.089844 L 830.089844 218.097656 L 827.679688 213.898438 L 825.492188 209.476562 L 823.40625 204.878906 L 821.292969 200.144531 L 819.027344 195.316406 L 816.460938 190.445312 L 813.355469 185.59375 L 809.445312 180.832031 L 804.472656 176.226562 L 798.175781 171.84375 L 790.289062 167.734375 L 780.554688 163.847656 L 768.699219 160.121094 L 754.464844 156.484375 L 737.574219 152.867188 L 717.773438 149.203125 L 711.03125 152.28125 "/>
<path style="fill:none;stroke-width:0.75;stroke-linecap:round;stroke-linejoin:round;stroke:rgb(0%,0%,0%);stroke-opacity:1;stroke-miterlimit:10;" d="M 310.203125 432.183594 L 295.589844 434.738281 L 281.132812 437.023438 L 272.851562 438.921875 L 269.160156 440.566406 L 266.566406 442.152344 L 262.40625 443.867188 L 257.304688 445.859375 L 252.710938 448.277344 L 249.671875 451.199219 L 247.558594 454.445312 L 245.339844 457.78125 L 242.183594 461.019531 L 238.046875 464.25 L 233.089844 467.617188 L 227.375 471.222656 L 220.574219 474.972656 L 212.265625 478.722656 L 202.464844 482.371094 L 192.953125 485.925781 L 185.953125 489.425781 L 182.894531 492.941406 L 182.019531 496.660156 L 180.78125 500.796875 L 177.304688 505.472656 L 172.417969 510.476562 L 167.617188 515.515625 L 163.984375 520.398438 L 160.875 525.386719 L 157.230469 530.847656 L 152.449219 536.988281 L 147.761719 543.390625 L 144.496094 549.527344 L 142.507812 555.058594 L 141.292969 559.695312 L 140.367188 563.300781 L 139.402344 566.375 L 138.085938 569.585938 L 136.214844 573.476562 L 133.980469 578.15625 L 131.671875 583.609375 L 129.460938 589.792969 L 127.003906 596.535156 L 123.84375 603.613281 L 119.714844 610.835938 L 115.140625 618.066406 L 110.835938 625.199219 L 107.347656 632.097656 L 104.5625 638.542969 L 102.195312 644.304688 L 100.015625 649.234375 L 98.019531 653.550781 L 96.25 657.574219 L 94.734375 661.601562 L 93.375 665.917969 L 92.054688 670.796875 L 90.65625 676.40625 L 89.070312 682.464844 L 87.195312 688.585938 L 85.003906 694.472656 L 82.792969 700.191406 L 80.9375 705.898438 L 79.671875 711.710938 L 78.617188 717.605469 L 77.363281 723.507812 L 75.945312 729.285156 L 74.507812 734.777344 L 73.160156 739.875 L 71.863281 744.609375 L 70.546875 749.054688 L 69.175781 753.292969 L 67.808594 757.460938 L 66.527344 761.699219 L 65.34375 766.140625 L 63.96875 770.851562 L 62.035156 775.886719 L 59.386719 781.210938 L 56.710938 786.484375 L 54.914062 791.289062 L 54.566406 795.378906 L 54.933594 799.222656 L 54.953125 803.464844 L 53.855469 808.613281 L 52.027344 814.671875 L 50.136719 821.496094 L 48.695312 828.886719 L 47.554688 836.394531 L 46.382812 843.496094 L 45.023438 849.957031 L 43.921875 856.675781 L 43.679688 864.828125 L 44.507812 875.1875 L 45.066406 886.925781 L 44.117188 898.871094 L 42.34375 910.066406 L 40.9375 919.605469 L 40.804688 926.878906 L 41.761719 932.433594 L 43.355469 937.101562 L 45.242188 941.550781 L 47.5 945.742188 L 50.316406 949.460938 L 53.59375 952.578125 L 56.070312 955.292969 L 56.199219 957.882812 L 53.15625 960.609375 L 48.96875 963.703125 L 46.394531 967.382812 L 47.382812 971.746094 L 50.691406 976.453125 L 54.269531 981.046875 L 56.53125 985.171875 L 57.722656 988.878906 L 58.546875 992.320312 L 59.53125 995.664062 L 60.453125 999.179688 L 60.917969 1003.167969 L 60.714844 1007.832031 L 60.359375 1013.089844 L 60.5625 1018.757812 L 61.808594 1024.65625 L 63.664062 1030.546875 L 65.480469 1036.167969 L 66.78125 1041.28125 L 67.8125 1045.722656 L 68.9375 1049.421875 L 70.3125 1052.683594 L 72.019531 1055.90625 L 74.089844 1059.394531 L 76.308594 1063.117188 L 78.398438 1066.949219 L 80.140625 1070.808594 L 81.5625 1074.757812 L 82.742188 1078.902344 L 83.789062 1083.320312 L 84.871094 1087.964844 L 86.1875 1092.757812 L 87.957031 1097.605469 L 90.53125 1102.304688 L 94.308594 1106.644531 L 99.417969 1110.460938 L 104.992188 1113.824219 L 109.914062 1116.859375 L 113.351562 1119.707031 L 115.65625 1122.554688 L 117.460938 1125.609375 L 119.367188 1129.035156 L 121.773438 1132.859375 L 125.046875 1137.082031 L 129.367188 1141.65625 L 134.210938 1146.359375 L 138.863281 1150.945312 L 142.65625 1155.230469 L 145.0625 1159.339844 L 145.9375 1163.433594 L 146.511719 1167.539062 L 148.351562 1171.632812 L 152.488281 1175.722656 L 157.808594 1179.867188 L 162.65625 1184.152344 L 165.851562 1188.621094 L 168.089844 1193.207031 L 170.546875 1197.816406 L 174.148438 1202.328125 L 178.839844 1206.550781 L 184.320312 1210.277344 L 189.957031 1213.371094 L 193.800781 1216.015625 L 193.578125 1218.472656 L 188.296875 1220.960938 L 182.101562 1223.566406 L 180.429688 1226.328125 L 186.882812 1229.316406 L 197.761719 1232.695312 L 207.542969 1236.648438 L 212.136719 1241.3125 L 213.171875 1246.667969 L 213.714844 1252.636719 L 216.171875 1259.082031 L 220.324219 1265.605469 L 225.300781 1271.726562 L 230.308594 1277.117188 L 234.875 1281.996094 L 238.613281 1286.71875 L 241.503906 1291.585938 L 245.003906 1296.65625 L 250.464844 1301.902344 L 257.28125 1307.191406 L 264.367188 1312.363281 L 270.753906 1317.261719 L 275.925781 1321.773438 L 279.472656 1325.785156 L 281.261719 1329.253906 L 282.226562 1332.394531 L 283.582031 1335.492188 L 286.207031 1338.78125 L 289.664062 1342.332031 L 293.203125 1346.179688 L 296.246094 1350.339844 L 298.945312 1354.785156 L 301.628906 1359.46875 L 304.921875 1364.324219 L 310.605469 1369.183594 L 320.746094 1373.839844 L 336.425781 1378.113281 L 354.757812 1381.855469 L 371.863281 1384.933594 L 384.695312 1387.265625 L 393.539062 1388.980469 L 399.519531 1390.253906 L 404 1391.207031 L 409.304688 1391.691406 L 418 1391.5 L 431.964844 1390.445312 L 450.296875 1388.410156 L 471.164062 1385.425781 L 491.789062 1382.015625 L 509.148438 1378.824219 L 521.0625 1376.351562 L 528.636719 1374.53125 L 533.816406 1373.152344 L 538.21875 1371.988281 L 542.167969 1370.765625 L 545.667969 1369.199219 L 549.042969 1367.066406 L 553.890625 1364.410156 L 562.121094 1361.335938 L 574.714844 1357.941406 L 588.898438 1354.328125 L 600.960938 1350.582031 L 608.097656 1346.789062 L 611.089844 1343.03125 L 611.625 1339.382812 L 611.148438 1335.910156 L 610.132812 1332.613281 L 608.816406 1329.480469 L 607.410156 1326.507812 L 605.980469 1323.675781 L 604.578125 1320.964844 L 603.234375 1318.335938 L 601.929688 1315.644531 L 600.625 1312.714844 L 599.296875 1309.222656 L 597.945312 1304.203125 L 596.570312 1296.535156 L 595.183594 1285.035156 L 593.835938 1268.285156 L 592.570312 1244.847656 L 591.3125 1213.460938 L 589.96875 1172.921875 L 588.488281 1122.214844 L 586.976562 1061.113281 L 585.570312 989.605469 L 584.417969 908.902344 L 583.660156 825.144531 L 583.441406 745.707031 L 583.773438 677.144531 L 584.105469 622.753906 L 583.753906 585 L 582.292969 564.878906 L 580.332031 557.484375 L 578.738281 556.445312 L 578.011719 556.335938 L 577.226562 555.601562 L 575.074219 553.636719 L 570.695312 550.035156 L 564.976562 545.144531 L 559.242188 539.503906 L 554.515625 533.621094 L 550.617188 527.898438 L 547.082031 522.714844 L 543.550781 518.375 L 540.117188 514.886719 L 536.996094 512.1875 L 534.226562 510.167969 L 531.214844 508.546875 L 527.382812 507.066406 L 522.941406 505.691406 L 518.289062 504.457031 L 513.839844 503.429688 L 510.050781 502.761719 L 507.402344 502.640625 L 506.007812 503.097656 L 504.503906 503.539062 L 501.171875 503.214844 L 495.0625 501.558594 L 488.339844 498.773438 L 483.941406 495.242188 L 483.667969 491.3125 L 484.792969 487.160156 L 483.453125 482.914062 L 476.910156 478.703125 L 466.9375 474.644531 L 456.4375 470.84375 L 447.742188 467.367188 L 440.917969 464.125 L 435.464844 460.988281 L 430.765625 457.839844 L 425.746094 454.582031 L 419.214844 451.132812 L 410.210938 447.4375 L 398.699219 443.570312 L 384.863281 439.644531 L 368.230469 435.746094 L 345.652344 431.910156 L 313.308594 428.152344 L 310.203125 432.183594 "/>
<path style="fill:none;stroke-width:0.75;stroke-linecap:round;stroke-linejoin:round;stroke:rgb(0%,0%,0%);stroke-opacity:1;stroke-miterlimit:10;" d="M 496.003906 244.800781 L 493.214844 248.886719 L 490.765625 252.085938 L 487.296875 254.464844 L 482.128906 257.082031 L 475.316406 260.597656 L 468.476562 264.121094 L 463.019531 268.976562 L 458.339844 275.28125 L 453.859375 282.023438 L 450.511719 286.429688 L 447.632812 288.714844 L 444.730469 292.011719 L 441.777344 299.488281 L 439.570312 311.082031 L 437.871094 322.445312 L 436.5 332.605469 L 435.550781 341.933594 L 435.6875 350.667969 L 437.015625 356.539062 L 439.109375 361.292969 L 441.191406 367.492188 L 441.847656 375.074219 L 441.066406 381.113281 L 439.628906 386.578125 L 438.449219 393.238281 L 438.339844 400.980469 L 439.101562 408.003906 L 440.347656 413.28125 L 442.179688 419.585938 L 445.300781 427.722656 L 449.660156 435.191406 L 454.886719 439.980469 L 460.109375 443.820312 L 464.214844 446.296875 L 467.324219 447.765625 L 469.867188 448.957031 L 472.171875 450.253906 L 474.382812 451.636719 L 477.269531 453.042969 L 482.050781 454.445312 L 491.050781 455.601562 L 506.160156 455.511719 L 527.285156 454.476562 L 551.34375 453.085938 L 568.179688 451.597656 L 577.277344 450.214844 L 581.953125 448.953125 L 585.277344 447.757812 L 588.351562 446.441406 L 591.46875 444.289062 L 594.558594 440.707031 L 596.742188 435.785156 L 597.914062 428.617188 L 597.925781 419.890625 L 596.792969 410.46875 L 595.316406 400.058594 L 593.78125 388.054688 L 592.476562 370.796875 L 591.800781 343.644531 L 592.203125 308.378906 L 592.859375 287.222656 L 591.507812 278.5625 L 585.367188 273.496094 L 572.191406 266.890625 L 554.800781 261.085938 L 536.4375 256.890625 L 520.644531 254.09375 L 511.613281 251.984375 L 507.855469 250.308594 L 506.070312 248.902344 L 503.539062 247.578125 L 500.1875 246.1875 L 496.578125 244.550781 L 496.003906 244.800781 "/>
<path style="fill:none;stroke-width:0.75;stroke-linecap:round;stroke-linejoin:round;stroke:rgb(0%,0%,0%);stroke-opacity:1;stroke-miterlimit:10;" d="M 507.335938 488.328125 L 504.652344 491.09375 L 504.652344 495.066406 L 512.703125 500.25 L 515.386719 502.675781 L 518.070312 504.164062 L 523.441406 505.199219 L 526.125 506.636719 L 531.492188 507.550781 L 534.175781 509.039062 L 536.859375 512.691406 L 550.277344 520.890625 L 550.277344 526.46875 L 555.648438 530.785156 L 555.648438 537.007812 L 571.75 547.339844 L 571.75 553.800781 L 577.117188 558.046875 L 577.117188 561.019531 L 579.800781 563.503906 L 579.800781 566.320312 L 582.488281 570.804688 L 582.488281 576.152344 L 587.855469 573.59375 L 587.855469 560.90625 L 595.90625 551.070312 L 595.90625 547.023438 L 598.589844 544.683594 L 598.589844 541.59375 L 603.957031 537.445312 L 603.957031 534.132812 L 606.640625 530.921875 L 606.640625 526.746094 L 603.957031 522.164062 L 603.957031 516.390625 L 606.640625 512.492188 L 606.640625 509.808594 L 603.957031 507.242188 L 603.957031 504.605469 L 606.640625 501.964844 L 606.640625 499.214844 L 609.324219 495.886719 L 609.324219 492.230469 L 606.640625 490.398438 L 603.957031 488.929688 L 507.335938 488.292969 L 507.335938 488.328125 "/>
<path style="fill:none;stroke-width:0.75;stroke-linecap:round;stroke-linejoin:round;stroke:rgb(0%,0%,0%);stroke-opacity:1;stroke-miterlimit:10;" d="M 673.488281 543.734375 L 670.75 544.371094 L 661.085938 544.828125 L 647.507812 544.914062 L 632.746094 544.554688 L 618.457031 544.175781 L 606.019531 544.316406 L 596.816406 545.507812 L 591.699219 549.191406 L 589.40625 560.347656 L 588.148438 584.855469 L 586.523438 626.929688 L 584.710938 684.109375 L 583.285156 752.261719 L 582.8125 827.265625 L 583.660156 904.964844 L 585.371094 981.089844 L 587.289062 1051.347656 L 588.882812 1112.214844 L 590.171875 1163.242188 L 591.308594 1204.753906 L 592.445312 1237.082031 L 593.699219 1260.773438 L 595.0625 1277.320312 L 596.5 1288.429688 L 597.964844 1295.824219 L 599.417969 1301.046875 L 600.808594 1304.988281 L 602.082031 1308.359375 L 603.214844 1311.757812 L 604.339844 1315.25 L 605.613281 1318.769531 L 607.199219 1322.261719 L 609.109375 1325.65625 L 610.777344 1328.828125 L 611.488281 1331.652344 L 611.066406 1334.019531 L 611.433594 1335.90625 L 615.054688 1337.308594 L 624.382812 1338.222656 L 640.84375 1338.652344 L 661.675781 1338.675781 L 683.070312 1338.378906 L 701.855469 1337.839844 L 717.339844 1337.089844 L 729.453125 1336.15625 L 738.132812 1335.054688 L 743.5625 1333.792969 L 746.972656 1332.324219 L 749.851562 1330.566406 L 753.6875 1328.453125 L 759.632812 1325.929688 L 767.527344 1322.992188 L 776.878906 1319.648438 L 787.097656 1315.945312 L 797.253906 1312.050781 L 806.320312 1308.152344 L 813.265625 1304.449219 L 817.511719 1301.058594 L 820.242188 1297.816406 L 823.09375 1294.476562 L 827.367188 1290.835938 L 833.058594 1286.859375 L 839.832031 1282.550781 L 847.363281 1277.914062 L 855.210938 1273.015625 L 862.542969 1268.144531 L 868.4375 1263.652344 L 872.339844 1259.765625 L 875.25 1256.199219 L 878.558594 1252.542969 L 883.644531 1248.382812 L 891.410156 1243.398438 L 900.792969 1237.609375 L 910.242188 1231.132812 L 918.21875 1224.074219 L 923.726562 1216.542969 L 927.976562 1208.65625 L 932.746094 1200.515625 L 939.296875 1192.28125 L 946.855469 1184.304688 L 954.148438 1176.988281 L 959.898438 1170.726562 L 963.257812 1165.765625 L 965.109375 1161.710938 L 966.753906 1158.015625 L 969.222656 1154.226562 L 972.398438 1150.28125 L 975.882812 1146.214844 L 979.277344 1142.070312 L 982.285156 1137.832031 L 985.03125 1133.34375 L 987.738281 1128.382812 L 990.558594 1122.832031 L 993.371094 1116.886719 L 995.984375 1110.835938 L 998.207031 1104.96875 L 999.902344 1099.496094 L 1001.167969 1094.386719 L 1002.15625 1089.542969 L 1003.019531 1084.855469 L 1003.933594 1080.25 L 1005.113281 1075.71875 L 1006.808594 1071.28125 L 1009.128906 1066.957031 L 1011.652344 1062.820312 L 1013.84375 1058.9375 L 1015.152344 1055.394531 L 1015.230469 1052.226562 L 1014.53125 1049.335938 L 1013.6875 1046.585938 L 1013.25 1043.851562 L 1013.378906 1041.0625 L 1014.140625 1038.15625 L 1015.59375 1035.066406 L 1017.71875 1031.789062 L 1020.109375 1028.511719 L 1022.285156 1025.484375 L 1023.875 1022.78125 L 1025.023438 1019.75 L 1026.003906 1015.574219 L 1027.082031 1009.433594 L 1028.449219 1000.792969 L 1030.007812 990.246094 L 1031.566406 978.683594 L 1032.949219 966.992188 L 1034.054688 955.929688 L 1035.101562 945.78125 L 1036.378906 936.695312 L 1038.078125 928.722656 L 1039.917969 921.460938 L 1041.519531 914.40625 L 1042.484375 907.046875 L 1042.605469 899.023438 L 1042.328125 890.53125 L 1042.289062 881.914062 L 1042.9375 873.488281 L 1044.011719 865.4375 L 1045.085938 857.925781 L 1045.726562 851.109375 L 1045.613281 844.972656 L 1044.867188 838.777344 L 1043.714844 831.609375 L 1042.371094 822.78125 L 1040.921875 812.519531 L 1039.441406 801.273438 L 1037.996094 789.488281 L 1036.636719 777.628906 L 1035.339844 766.203125 L 1034.066406 755.730469 L 1032.773438 746.738281 L 1031.429688 739.59375 L 1030.054688 734.078125 L 1028.675781 729.824219 L 1027.320312 726.472656 L 1025.984375 723.738281 L 1024.660156 721.347656 L 1023.332031 719.03125 L 1022 716.546875 L 1020.65625 713.820312 L 1019.304688 710.796875 L 1017.949219 707.445312 L 1016.597656 703.820312 L 1015.25 699.988281 L 1013.917969 696.011719 L 1012.605469 691.960938 L 1011.292969 687.886719 L 1009.949219 683.847656 L 1008.566406 679.867188 L 1007.167969 675.917969 L 1005.785156 671.941406 L 1004.457031 667.886719 L 1003.203125 663.699219 L 1001.980469 659.304688 L 1000.71875 654.625 L 999.363281 649.585938 L 997.871094 644.148438 L 996.273438 638.402344 L 994.617188 632.476562 L 992.84375 626.457031 L 990.460938 620.230469 L 986.867188 613.648438 L 981.464844 606.558594 L 973.984375 598.945312 L 965.488281 591.347656 L 957.371094 584.4375 L 950.652344 578.765625 L 944.867188 574.324219 L 939.179688 570.996094 L 932.746094 568.636719 L 924.96875 567.09375 L 916.214844 566.042969 L 907.089844 565.148438 L 898.171875 564.121094 L 889.902344 562.929688 L 882.6875 561.597656 L 876.949219 560.160156 L 872.902344 558.644531 L 870.015625 557.089844 L 867.570312 555.535156 L 864.839844 554.023438 L 861.222656 552.683594 L 856.550781 552.027344 L 850.773438 552.65625 L 844.09375 554.976562 L 837.734375 558.578125 L 833.167969 562.863281 L 831.867188 567.21875 L 834.582031 571.179688 L 839.128906 574.839844 L 842.605469 578.417969 L 842.78125 582.113281 L 840.140625 585.972656 L 835.851562 590.019531 L 831.074219 594.269531 L 826.84375 598.742188 L 823.648438 603.433594 L 821.839844 608.347656 L 821.609375 613.519531 L 822.445312 619.148438 L 823.675781 625.460938 L 824.628906 632.695312 L 824.773438 640.941406 L 824.15625 649.761719 L 822.96875 658.570312 L 821.402344 666.789062 L 819.664062 673.953125 L 818.054688 680.082031 L 816.871094 685.308594 L 816.351562 689.796875 L 816.433594 693.789062 L 816.964844 697.5625 L 817.808594 701.390625 L 818.742188 705.445312 L 819.253906 709.519531 L 818.753906 713.296875 L 816.988281 716.5625 L 815.082031 719.484375 L 814.5 722.328125 L 816.699219 725.359375 L 822.539062 728.78125 L 830.4375 732.550781 L 838.214844 736.574219 L 844.113281 740.792969 L 848.070312 745.316406 L 850.460938 750.296875 L 851.65625 755.890625 L 851.964844 762.140625 L 851.429688 768.644531 L 850.023438 774.894531 L 847.730469 780.378906 L 844.644531 784.742188 L 841.355469 788.21875 L 838.5625 791.203125 L 836.652344 794.019531 L 834.75 796.746094 L 831.65625 799.386719 L 826.175781 801.957031 L 817.640625 804.488281 L 807.453125 807.113281 L 797.546875 809.988281 L 789.601562 813.207031 L 784.339844 816.636719 L 782.226562 820.082031 L 783.738281 823.347656 L 788.746094 826.292969 L 794.753906 828.992188 L 798.667969 831.570312 L 798.167969 834.199219 L 794.019531 837.210938 L 787.765625 840.980469 L 780.953125 845.882812 L 774.832031 852.160156 L 769.480469 859.527344 L 764.683594 867.566406 L 760.234375 875.855469 L 756.21875 884.019531 L 753.921875 891.84375 L 754.929688 899.152344 L 760.195312 905.800781 L 768.148438 911.800781 L 776.582031 917.1875 L 783.289062 922.003906 L 786.425781 926.308594 L 785.609375 930.234375 L 780.832031 933.929688 L 772.484375 937.527344 L 762.621094 941.078125 L 753.722656 944.621094 L 748.25 948.179688 L 747.648438 951.703125 L 749.222656 954.765625 L 749.253906 956.851562 L 744.972656 957.5 L 737.40625 956.503906 L 728.539062 953.699219 L 720.359375 948.9375 L 714.492188 942.21875 L 711.164062 934.175781 L 710.234375 925.59375 L 711.574219 917.269531 L 714.78125 909.90625 L 718.398438 903.882812 L 720.691406 899.507812 L 720.367188 896.90625 L 717.839844 895.535156 L 713.960938 894.679688 L 709.574219 893.628906 L 705.40625 891.769531 L 701.679688 888.898438 L 698.507812 884.929688 L 695.941406 879.824219 L 693.855469 873.828125 L 692.074219 867.25 L 690.429688 860.402344 L 688.816406 853.585938 L 687.398438 847.074219 L 686.421875 841.136719 L 686.0625 835.960938 L 686.285156 831.414062 L 687 827.277344 L 688.109375 823.34375 L 689.527344 819.398438 L 691.171875 815.273438 L 692.953125 810.804688 L 694.792969 805.832031 L 696.578125 800.175781 L 698.054688 793.597656 L 698.953125 785.851562 L 699.113281 776.871094 L 698.867188 767.378906 L 698.664062 758.28125 L 698.957031 750.480469 L 700.035156 744.636719 L 701.589844 740.367188 L 703.148438 737.042969 L 704.269531 734.109375 L 704.675781 731.320312 L 704.113281 728.5 L 702.339844 725.480469 L 699.285156 722.117188 L 695.597656 718.417969 L 692.113281 714.414062 L 689.492188 710.15625 L 687.746094 705.699219 L 686.71875 701.117188 L 686.261719 696.480469 L 686.222656 691.855469 L 686.476562 687.339844 L 686.921875 683.03125 L 687.433594 679.027344 L 687.996094 675.394531 L 688.976562 672.0625 L 690.832031 668.9375 L 693.941406 665.910156 L 698.347656 662.84375 L 704.003906 659.609375 L 710.878906 656.0625 L 718.507812 652.140625 L 724.746094 648.085938 L 727.03125 644.21875 L 723.804688 640.765625 L 717.53125 637.582031 L 711.675781 634.449219 L 709.707031 631.128906 L 713.761719 627.476562 L 720.640625 623.699219 L 725.8125 620.074219 L 725.972656 616.828125 L 722.679688 613.933594 L 718.722656 611.308594 L 716.890625 608.855469 L 719.148438 606.488281 L 724.222656 604.070312 L 730.007812 601.460938 L 734.414062 598.511719 L 735.863281 595.128906 L 734.875 591.402344 L 732.476562 587.472656 L 729.425781 583.460938 L 725.355469 579.460938 L 719.613281 575.554688 L 711.550781 571.816406 L 701.402344 568.328125 L 692.992188 565.125 L 691.019531 562.246094 L 698.40625 559.695312 L 710.921875 557.355469 L 722.542969 555.089844 L 727.25 552.75 L 720.824219 550.222656 L 706.28125 547.527344 L 688.441406 544.726562 L 672.121094 541.863281 L 673.488281 543.734375 "/>
<path style="fill:none;stroke-width:0.75;stroke-linecap:round;stroke-linejoin:round;stroke:rgb(0%,0%,0%);stroke-opacity:1;stroke-miterlimit:10;" d="M 711.53125 150.480469 L 703.925781 157.207031 L 696.457031 163.257812 L 690.089844 167.175781 L 684.523438 169.371094 L 679.136719 170.703125 L 673.496094 171.9375 L 667.886719 173.398438 L 662.773438 175.308594 L 658.476562 177.894531 L 654.730469 181.460938 L 651.195312 186.164062 L 647.808594 191.578125 L 644.582031 197.125 L 641.503906 202.367188 L 638.527344 207.386719 L 635.582031 212.394531 L 632.609375 217.652344 L 629.570312 223.554688 L 626.441406 230.523438 L 623.253906 238.671875 L 620.332031 246.796875 L 617.949219 253.765625 L 616.007812 260 L 614.296875 266.328125 L 612.664062 273.246094 L 611.117188 279.960938 L 609.71875 285.363281 L 608.546875 289.054688 L 607.804688 293.53125 L 607.699219 302 L 608.195312 315.933594 L 608.207031 329.851562 L 606.757812 337.867188 L 604.40625 339.378906 L 602.09375 335.117188 L 600.5 326.117188 L 599.316406 314.65625 L 597.96875 303.332031 L 596.089844 295.527344 L 594.039062 297.8125 L 592.363281 314.761719 L 591.515625 339.746094 L 591.921875 363.34375 L 593.789062 378.25 L 596.386719 385.65625 L 598.753906 388.886719 L 600.105469 390.789062 L 600.347656 392.296875 L 599.558594 393.878906 L 598.007812 396.046875 L 596.738281 399.453125 L 596.691406 404.828125 L 597.640625 413.03125 L 599.074219 424.941406 L 600.550781 440.683594 L 601.9375 457.359375 L 603.183594 471.300781 L 604.339844 479.84375 L 605.855469 484.277344 L 608.28125 486.890625 L 611.9375 489.480469 L 616.238281 491.859375 L 620.535156 493.535156 L 624.890625 494.722656 L 629.539062 495.8125 L 634.648438 497.101562 L 640.066406 498.523438 L 645.570312 499.921875 L 651.003906 501.207031 L 656.457031 502.5625 L 661.96875 504.132812 L 667.089844 505.597656 L 671.25 506.507812 L 673.984375 506.472656 L 675.203125 505.308594 L 674.9375 502.878906 L 673.308594 499.050781 L 670.90625 493.695312 L 668.421875 486.683594 L 666.496094 478.300781 L 665.5625 470.496094 L 665.84375 465.035156 L 666.949219 461.316406 L 668.332031 458.15625 L 669.746094 454.617188 L 672.136719 450.761719 L 676.738281 446.898438 L 684 443.195312 L 691.167969 439.242188 L 694.703125 434.480469 L 692.144531 428.738281 L 685.398438 423.421875 L 677.269531 419.878906 L 669.761719 417.640625 L 664.695312 415.78125 L 663.285156 413.546875 L 664.386719 410.859375 L 666.242188 407.808594 L 667.394531 404.511719 L 667.539062 401.214844 L 666.734375 397.960938 L 665.320312 393.90625 L 663.707031 387.984375 L 662.234375 379.648438 L 660.914062 370.433594 L 659.691406 362.398438 L 658.480469 357.0625 L 657.128906 353.777344 L 655.449219 351.359375 L 653.359375 348.640625 L 651.121094 344.515625 L 649.046875 338.277344 L 647.25 330.75 L 645.808594 323.144531 L 644.875 316.425781 L 644.898438 310.585938 L 646.417969 305.367188 L 649.539062 300.597656 L 652.652344 296.453125 L 653.722656 293.195312 L 651.617188 290.871094 L 648.832031 288.679688 L 648.132812 285.890625 L 649.765625 282.914062 L 653.355469 280.441406 L 658.226562 278.75 L 662.53125 276.464844 L 664.121094 271.789062 L 661.902344 263.878906 L 658.980469 255.621094 L 658.613281 250.015625 L 660.484375 246.761719 L 663.367188 244.71875 L 666.109375 242.925781 L 667.804688 241.132812 L 667.609375 239.257812 L 665.183594 237.269531 L 662.183594 235.289062 L 660.777344 233.480469 L 662.332031 231.71875 L 665.035156 228.726562 L 667.660156 223.519531 L 674.496094 217.417969 L 691.195312 212.332031 L 720.667969 209.777344 L 754.757812 209.761719 L 782.558594 211.90625 L 796.015625 215.757812 L 798.515625 220.550781 L 796.296875 225.445312 L 794.695312 229.699219 L 795.394531 232.929688 L 798.789062 235.125 L 803.695312 237.320312 L 808.539062 240.824219 L 812.171875 246.519531 L 815.132812 253.621094 L 818.375 260.914062 L 822.417969 267.304688 L 826.046875 272.175781 L 827.964844 275.261719 L 828.339844 277.226562 L 827.695312 278.96875 L 826.589844 281.203125 L 825.675781 283.894531 L 825.636719 286.835938 L 826.949219 290.019531 L 829.246094 294.304688 L 831.960938 300.757812 L 834.472656 309.746094 L 835.953125 318.832031 L 835.960938 325.527344 L 835.855469 329.917969 L 837.4375 332.730469 L 841.792969 334.78125 L 847.179688 337.253906 L 851.136719 341.433594 L 851.898438 348.085938 L 850.492188 355.960938 L 848.632812 363.304688 L 847.6875 368.824219 L 847.625 373.066406 L 848.085938 376.886719 L 848.839844 380.589844 L 849.683594 384.347656 L 850.527344 388.304688 L 851.730469 392.554688 L 853.78125 397.183594 L 856.835938 402.21875 L 859.742188 407.53125 L 861.335938 412.90625 L 861.605469 417.949219 L 860.84375 422.222656 L 859.375 425.449219 L 857.667969 427.960938 L 856.234375 430.253906 L 855.601562 432.835938 L 856.363281 436.234375 L 859.132812 440.992188 L 863.9375 447.375 L 868.496094 454.570312 L 870.589844 461.640625 L 870.601562 468.21875 L 869.558594 474.09375 L 868.207031 479.132812 L 866.175781 483.539062 L 862.808594 487.597656 L 857.980469 491.460938 L 853.671875 494.785156 L 852.386719 497.082031 L 855.625 498.003906 L 860.820312 497.714844 L 865.132812 496.515625 L 868.640625 494.652344 L 872.140625 492.367188 L 876.234375 489.878906 L 880.691406 487.320312 L 885.082031 484.800781 L 889.246094 482.203125 L 894.128906 478.507812 L 900.46875 472.90625 L 907.179688 466.300781 L 912.703125 460.035156 L 915.871094 455.035156 L 917.097656 450.519531 L 917.183594 445.292969 L 916.792969 438.519531 L 916.050781 430.792969 L 914.945312 423.058594 L 913.511719 416.050781 L 911.960938 409.585938 L 910.5 403.347656 L 909.167969 397.304688 L 907.964844 391.507812 L 906.828125 386.0625 L 905.476562 381.292969 L 903.585938 377.59375 L 900.933594 375.0625 L 897.746094 372.671875 L 894.351562 369.113281 L 891.144531 363.503906 L 888.6875 356.675781 L 887.328125 349.675781 L 886.3125 342.648438 L 884.617188 335.53125 L 881.589844 328.351562 L 878.050781 321.5625 L 875.195312 315.726562 L 873.808594 311.222656 L 873 307.757812 L 871.773438 304.78125 L 870.277344 301.449219 L 868.957031 296.84375 L 868.050781 290.339844 L 866.941406 282.449219 L 864.800781 273.984375 L 861.0625 265.617188 L 856.21875 257.4375 L 851.023438 249.410156 L 846.132812 241.648438 L 841.835938 234.945312 L 838.261719 229.949219 L 835.253906 226.070312 L 832.574219 222.425781 L 830.058594 218.328125 L 827.792969 213.898438 L 825.925781 209.464844 L 824.453125 205.226562 L 822.738281 200.875 L 819.996094 195.972656 L 815.804688 190.320312 L 811.226562 184.710938 L 807.289062 179.929688 L 803.386719 175.835938 L 798.507812 172.046875 L 791.742188 168.234375 L 782.566406 164.332031 L 770.558594 160.332031 L 755.367188 156.289062 L 736.949219 152.503906 L 715.328125 149.351562 L 711.53125 150.480469 "/>
<path style="fill:none;stroke-width:0.75;stroke-linecap:round;stroke-linejoin:round;stroke:rgb(0%,0%,0%);stroke-opacity:1;stroke-miterlimit:10;" d="M 952.125 279.742188 L 948.953125 283.59375 L 946.976562 287.050781 L 945.796875 290.179688 L 943.304688 293.148438 L 937.789062 296.1875 L 930.796875 299.59375 L 924.679688 303.683594 L 921.140625 308.46875 L 919.269531 312.671875 L 917.6875 315.425781 L 915.765625 318.71875 L 913.039062 325.269531 L 909.425781 336.597656 L 906.292969 349.457031 L 904.980469 360.21875 L 905.214844 368.410156 L 906.328125 374.351562 L 907.734375 378.523438 L 909.226562 382.050781 L 910.6875 385.933594 L 912.054688 389.988281 L 913.285156 393.75 L 914.402344 396.910156 L 915.71875 399.851562 L 917.519531 403.007812 L 919.636719 406.347656 L 921.808594 409.730469 L 923.785156 413.011719 L 925.484375 416.074219 L 926.875 418.820312 L 928.097656 421.28125 L 929.320312 423.503906 L 930.675781 425.867188 L 932.085938 430.042969 L 933.453125 437.363281 L 934.773438 446.472656 L 936.066406 455.578125 L 937.382812 463.785156 L 938.769531 470.410156 L 940.230469 475.101562 L 941.582031 478.769531 L 942.695312 482.433594 L 943.804688 486.277344 L 945.25 490.28125 L 947.292969 494.382812 L 949.90625 498.417969 L 952.914062 502.269531 L 955.824219 506.238281 L 958.070312 510.71875 L 959.320312 516.050781 L 960.203125 522.355469 L 961.410156 529.484375 L 962.875 536.4375 L 964.351562 541.996094 L 965.671875 545.398438 L 966.933594 547.679688 L 968.277344 550.097656 L 969.660156 552.96875 L 971.015625 556.378906 L 972.296875 560.304688 L 973.613281 564.332031 L 975.058594 568.035156 L 976.496094 571.433594 L 977.730469 574.640625 L 978.714844 577.820312 L 979.960938 581.296875 L 981.996094 585.324219 L 984.765625 589.675781 L 988.078125 594.007812 L 991.632812 598.148438 L 994.679688 602.660156 L 996.628906 608.164062 L 997.933594 614.792969 L 999.195312 622.371094 L 1000.507812 629.886719 L 1001.851562 636.144531 L 1003.191406 640.382812 L 1004.535156 643.679688 L 1005.878906 647.269531 L 1007.222656 651.277344 L 1008.566406 655.53125 L 1009.90625 659.914062 L 1011.25 664.53125 L 1012.589844 669.421875 L 1013.929688 674.195312 L 1015.269531 678.34375 L 1016.613281 681.601562 L 1017.953125 684.601562 L 1019.296875 688.023438 L 1020.640625 691.789062 L 1021.984375 695.636719 L 1023.328125 699.421875 L 1024.667969 703.5625 L 1026.011719 708.429688 L 1027.351562 713.761719 L 1028.691406 719.132812 L 1030.03125 724.34375 L 1031.371094 730.109375 L 1032.71875 737.074219 L 1034.066406 744.699219 L 1035.40625 752.140625 L 1036.738281 758.785156 L 1038.078125 764.894531 L 1039.4375 770.816406 L 1040.792969 776.289062 L 1042.105469 780.914062 L 1043.382812 784.28125 L 1044.765625 785.976562 L 1046.34375 785.703125 L 1047.789062 783.644531 L 1048.710938 780.109375 L 1048.8125 775.445312 L 1047.824219 770 L 1045.835938 764.113281 L 1044.359375 758.085938 L 1044.835938 752.394531 L 1046.914062 748.191406 L 1049.808594 746.808594 L 1053.125 749.003906 L 1058.011719 753.195312 L 1065.570312 757.554688 L 1075.152344 761.617188 L 1085.667969 765.246094 L 1095.929688 768.375 L 1104.367188 771.191406 L 1109.925781 773.839844 L 1114.007812 776.035156 L 1118.636719 777.390625 L 1125.074219 777.6875 L 1131.589844 777.382812 L 1136.226562 776.933594 L 1139.1875 776.113281 L 1141.199219 774.515625 L 1143.351562 771.75 L 1148.140625 767.4375 L 1157.28125 761.476562 L 1167.886719 754.882812 L 1175.933594 748.933594 L 1178.765625 744.5625 L 1179.171875 741.261719 L 1180.378906 738.320312 L 1181.898438 735.605469 L 1182.742188 732.988281 L 1183.648438 729.808594 L 1185.796875 725.25 L 1189.816406 718.902344 L 1194.210938 711.894531 L 1197.359375 705.488281 L 1199.363281 699.863281 L 1200.734375 694.9375 L 1201.917969 690.617188 L 1203.117188 686.769531 L 1204.421875 683.21875 L 1205.800781 679.726562 L 1207.191406 676.027344 L 1208.558594 671.90625 L 1209.96875 667.285156 L 1211.414062 661.988281 L 1212.417969 655.175781 L 1212.390625 645.867188 L 1211.257812 633.894531 L 1210.972656 622.402344 L 1213.261719 614.390625 L 1216.871094 609.074219 L 1219.808594 604.695312 L 1220.582031 599.9375 L 1219.703125 595.207031 L 1218.097656 591.175781 L 1216.335938 587.867188 L 1214.914062 585.136719 L 1214.21875 582.703125 L 1214.21875 579.75 L 1214.710938 575.515625 L 1215.132812 570.046875 L 1214.863281 563.597656 L 1213.078125 556.597656 L 1208.191406 550.273438 L 1199.605469 545.566406 L 1191.359375 541.59375 L 1187.34375 537.230469 L 1186.132812 532.214844 L 1184.976562 526.507812 L 1181.917969 520.273438 L 1178.171875 514.53125 L 1175.40625 510.019531 L 1173.972656 505.5625 L 1173.890625 499.496094 L 1174.84375 491.042969 L 1175.175781 482.945312 L 1173.417969 477.871094 L 1170.144531 474.65625 L 1166.429688 471.175781 L 1163.089844 465.828125 L 1159.847656 459.160156 L 1156.300781 452.152344 L 1152.640625 445.386719 L 1149.214844 439.355469 L 1146.328125 434.222656 L 1144.117188 428.851562 L 1142.574219 422.234375 L 1141.210938 415.167969 L 1139.433594 408.902344 L 1136.9375 404.269531 L 1134.617188 400.441406 L 1133.304688 396.328125 L 1132.332031 391.480469 L 1130.667969 385.597656 L 1127.675781 378.667969 L 1124.253906 371.824219 L 1121.425781 366.207031 L 1119.148438 361.785156 L 1117.089844 358.257812 L 1114.691406 355.117188 L 1110.429688 351.097656 L 1103.199219 345.3125 L 1094.574219 339.214844 L 1086.488281 334.453125 L 1079.59375 331.082031 L 1074.234375 328.769531 L 1070.574219 327.160156 L 1068.066406 325.765625 L 1065.976562 324.050781 L 1063.570312 321.378906 L 1060.101562 317.082031 L 1055.195312 310.980469 L 1049.914062 304.789062 L 1045.402344 300.253906 L 1041.707031 297.34375 L 1038.582031 295.578125 L 1035.789062 294.410156 L 1033.0625 293.019531 L 1030.207031 290.777344 L 1027.320312 288.070312 L 1024.585938 285.550781 L 1022.066406 283.664062 L 1019.355469 282.074219 L 1015.984375 280.496094 L 1011.652344 279.667969 L 1006.097656 280.570312 L 999.488281 283.785156 L 993.660156 288.246094 L 990.0625 292.546875 L 986.90625 295.523438 L 981.601562 296.078125 L 972.785156 293.660156 L 964.007812 289.941406 L 958.867188 286.648438 L 956.148438 283.542969 L 953.457031 279.886719 L 952.125 279.742188 "/>
</g>
</svg>
