<?xml version="1.0" encoding="UTF-8"?>
<svg xmlns="http://www.w3.org/2000/svg" xmlns:xlink="http://www.w3.org/1999/xlink" width="1428pt" height="1605pt" viewBox="0 0 1428 1605" version="1.1">
<g id="surface324">
<rect x="0" y="0" width="1428" height="1605" style="fill:rgb(100%,100%,100%);fill-opacity:1;stroke:none;"/>
<path style="fill:none;stroke-width:0.75;stroke-linecap:round;stroke-linejoin:round;stroke:rgb(0%,0%,0%);stroke-opacity:1;stroke-miterlimit:10;" d="M 734.863281 141.695312 L 731.214844 145.734375 L 728.070312 147.242188 L 725.09375 147.15625 L 721.9375 146.402344 L 718.265625 145.910156 L 713.820312 146.421875 L 708.703125 147.902344 L 703.113281 150.125 L 697.234375 152.867188 L 691.261719 155.898438 L 685.382812 158.996094 L 679.769531 161.980469 L 674.484375 164.828125 L 669.574219 167.566406 L 665.082031 170.226562 L 661.046875 172.835938 L 657.496094 175.414062 L 654.382812 177.984375 L 651.632812 180.574219 L 649.179688 183.195312 L 646.953125 185.878906 L 644.878906 188.640625 L 642.898438 191.527344 L 640.933594 194.652344 L 638.914062 198.164062 L 636.773438 202.207031 L 634.4375 206.917969 L 631.859375 212.410156 L 629.066406 218.660156 L 626.101562 225.613281 L 623.011719 233.210938 L 619.851562 241.398438 L 616.664062 250.121094 L 613.476562 259.183594 L 610.246094 267.859375 L 606.910156 275.273438 L 603.40625 280.5625 L 599.671875 282.847656 L 595.640625 281.574219 L 591.222656 277.414062 L 586.328125 271.355469 L 580.859375 264.375 L 574.726562 257.464844 L 567.839844 251.597656 L 560.121094 247.550781 L 551.570312 245.226562 L 542.203125 244.316406 L 532.035156 244.515625 L 521.085938 245.511719 L 509.46875 247.03125 L 497.726562 248.917969 L 486.492188 251.039062 L 476.40625 253.277344 L 468.109375 255.5 L 462.230469 257.582031 L 459.144531 259.46875 L 458.113281 261.394531 L 458.125 263.65625 L 458.175781 266.554688 L 457.253906 270.390625 L 454.621094 275.402344 L 450.605469 281.546875 L 445.800781 288.722656 L 440.804688 296.824219 L 436.207031 305.738281 L 432.609375 315.371094 L 430.449219 325.542969 L 429.550781 335.851562 L 429.589844 345.816406 L 430.230469 354.964844 L 431.144531 362.824219 L 432.082031 369.121094 L 433.082031 374.402344 L 434.257812 379.425781 L 435.734375 384.933594 L 437.621094 391.683594 L 440.042969 400.425781 L 443.007812 411.566406 L 446.125 424.109375 L 448.902344 436.730469 L 450.84375 448.085938 L 451.449219 456.851562 L 450.359375 462.027344 L 447.703125 464.003906 L 443.746094 463.519531 L 438.746094 461.304688 L 432.96875 458.089844 L 426.667969 454.617188 L 420.070312 451.476562 L 413.210938 448.734375 L 406.089844 446.308594 L 398.703125 444.125 L 391.042969 442.105469 L 383.140625 440.195312 L 375.15625 438.402344 L 367.269531 436.765625 L 359.671875 435.316406 L 352.550781 434.082031 L 346.097656 433.101562 L 340.4375 432.390625 L 335.472656 431.9375 L 331.050781 431.726562 L 327.015625 431.734375 L 323.210938 431.9375 L 319.476562 432.324219 L 315.589844 432.921875 L 311.339844 433.761719 L 306.496094 434.882812 L 300.835938 436.316406 L 294.136719 438.097656 L 286.28125 440.261719 L 277.546875 442.835938 L 268.328125 445.84375 L 259.003906 449.304688 L 249.964844 453.246094 L 241.519531 457.660156 L 233.679688 462.410156 L 226.382812 467.320312 L 219.566406 472.222656 L 213.160156 476.945312 L 207.105469 481.316406 L 201.355469 485.21875 L 195.914062 488.761719 L 190.816406 492.097656 L 186.089844 495.386719 L 181.765625 498.789062 L 177.863281 502.460938 L 174.398438 506.515625 L 171.289062 510.882812 L 168.433594 515.457031 L 165.738281 520.113281 L 163.09375 524.742188 L 160.433594 529.25 L 157.773438 533.613281 L 155.164062 537.832031 L 152.648438 541.902344 L 150.277344 545.820312 L 148.09375 549.585938 L 146.125 553.195312 L 144.332031 556.660156 L 142.648438 559.984375 L 141.007812 563.183594 L 139.347656 566.265625 L 137.621094 569.265625 L 135.820312 572.335938 L 133.953125 575.660156 L 132.03125 579.417969 L 130.058594 583.785156 L 128.050781 588.945312 L 126.003906 594.984375 L 123.886719 601.585938 L 121.652344 608.355469 L 119.265625 614.878906 L 116.683594 620.753906 L 113.886719 625.683594 L 110.96875 629.828125 L 108.046875 633.441406 L 105.242188 636.789062 L 102.667969 640.136719 L 100.441406 643.746094 L 98.640625 647.816406 L 97.175781 652.292969 L 95.90625 657.046875 L 94.699219 661.96875 L 93.425781 666.925781 L 91.976562 671.84375 L 90.367188 676.773438 L 88.652344 681.8125 L 86.875 687.054688 L 85.078125 692.597656 L 83.320312 698.53125 L 81.625 704.925781 L 79.988281 711.71875 L 78.382812 718.828125 L 76.78125 726.164062 L 75.164062 733.644531 L 73.507812 741.167969 L 71.808594 748.597656 L 70.082031 755.792969 L 68.320312 762.605469 L 66.539062 768.882812 L 64.734375 774.488281 L 62.925781 779.3125 L 61.152344 783.457031 L 59.460938 787.054688 L 57.902344 790.253906 L 56.53125 793.1875 L 55.367188 796.078125 L 54.367188 799.464844 L 53.453125 803.972656 L 52.550781 810.222656 L 51.59375 818.835938 L 50.5 830.429688 L 49.238281 845.304688 L 47.898438 862.433594 L 46.601562 880.476562 L 45.484375 898.082031 L 44.664062 913.90625 L 44.25 926.914062 L 44.269531 937.335938 L 44.722656 945.707031 L 45.617188 952.574219 L 46.960938 958.476562 L 48.753906 963.953125 L 50.964844 969.433594 L 53.417969 974.898438 L 55.890625 980.207031 L 58.167969 985.226562 L 60.039062 989.828125 L 61.339844 993.933594 L 62.160156 997.714844 L 62.652344 1001.410156 L 62.964844 1005.25 L 63.25 1009.46875 L 63.652344 1014.304688 L 64.296875 1019.882812 L 65.171875 1025.910156 L 66.246094 1031.992188 L 67.484375 1037.726562 L 68.851562 1042.722656 L 70.3125 1046.703125 L 71.824219 1049.878906 L 73.34375 1052.589844 L 74.839844 1055.167969 L 76.265625 1057.957031 L 77.582031 1061.285156 L 78.777344 1065.40625 L 79.964844 1070.199219 L 81.289062 1075.460938 L 82.886719 1080.988281 L 84.902344 1086.566406 L 87.429688 1092.015625 L 90.390625 1097.226562 L 93.652344 1102.121094 L 97.085938 1106.605469 L 100.566406 1110.597656 L 103.960938 1114.015625 L 107.183594 1116.832031 L 110.289062 1119.304688 L 113.371094 1121.742188 L 116.535156 1124.464844 L 119.871094 1127.78125 L 123.445312 1131.929688 L 127.222656 1136.789062 L 131.125 1142.167969 L 135.078125 1147.859375 L 139.019531 1153.664062 L 142.871094 1159.390625 L 146.585938 1164.871094 L 150.230469 1170.113281 L 153.894531 1175.160156 L 157.664062 1180.058594 L 161.621094 1184.851562 L 165.863281 1189.578125 L 170.40625 1194.265625 L 174.96875 1198.820312 L 179.214844 1203.136719 L 182.792969 1207.101562 L 185.363281 1210.605469 L 186.714844 1213.589844 L 187.203125 1216.175781 L 187.324219 1218.550781 L 187.574219 1220.890625 L 188.445312 1223.371094 L 190.425781 1226.175781 L 193.84375 1229.425781 L 198.300781 1233.0625 L 203.230469 1236.960938 L 208.070312 1241.003906 L 212.246094 1245.078125 L 215.339844 1249.082031 L 217.484375 1252.984375 L 218.964844 1256.773438 L 220.058594 1260.4375 L 221.046875 1263.96875 L 222.210938 1267.347656 L 223.800781 1270.597656 L 225.933594 1273.863281 L 228.691406 1277.328125 L 232.167969 1281.160156 L 236.449219 1285.546875 L 241.546875 1290.585938 L 247.226562 1296.101562 L 253.179688 1301.84375 L 259.097656 1307.554688 L 264.671875 1312.988281 L 269.59375 1317.890625 L 273.644531 1322.089844 L 276.976562 1325.726562 L 279.824219 1329.019531 L 282.429688 1332.1875 L 285.023438 1335.449219 L 287.78125 1338.976562 L 290.632812 1342.71875 L 293.4375 1346.566406 L 296.058594 1350.421875 L 298.351562 1354.179688 L 300.1875 1357.738281 L 301.550781 1361.023438 L 302.953125 1364.058594 L 305.035156 1366.898438 L 308.4375 1369.605469 L 313.796875 1372.230469 L 321.53125 1374.824219 L 331.175781 1377.445312 L 342.035156 1380.140625 L 353.429688 1382.957031 L 364.660156 1385.949219 L 375.042969 1389.164062 L 384.070312 1392.59375 L 391.976562 1395.972656 L 399.179688 1398.980469 L 406.097656 1401.300781 L 413.144531 1402.601562 L 420.722656 1402.65625 L 429.128906 1401.5625 L 438.648438 1399.511719 L 449.558594 1396.695312 L 462.148438 1393.300781 L 476.691406 1389.515625 L 493.25 1385.519531 L 510.980469 1381.449219 L 528.820312 1377.4375 L 545.707031 1373.609375 L 560.578125 1370.09375 L 572.640625 1366.964844 L 582.203125 1364.078125 L 589.847656 1361.234375 L 596.152344 1358.242188 L 601.707031 1354.898438 L 607.085938 1351.007812 L 612.769531 1346.480469 L 618.796875 1341.675781 L 625.109375 1337.046875 L 631.648438 1333.0625 L 638.351562 1330.183594 L 645.179688 1328.730469 L 652.203125 1328.496094 L 659.515625 1329.125 L 667.210938 1330.265625 L 675.375 1331.570312 L 684.105469 1332.683594 L 693.414062 1333.320312 L 702.964844 1333.457031 L 712.351562 1333.144531 L 721.164062 1332.421875 L 728.984375 1331.332031 L 735.558594 1329.910156 L 741.226562 1328.175781 L 746.484375 1326.136719 L 751.824219 1323.800781 L 757.746094 1321.167969 L 764.742188 1318.257812 L 773.125 1315.082031 L 782.480469 1311.703125 L 792.199219 1308.195312 L 801.6875 1304.625 L 810.339844 1301.066406 L 817.707031 1297.574219 L 823.925781 1294.136719 L 829.277344 1290.722656 L 834.050781 1287.304688 L 838.523438 1283.851562 L 842.984375 1280.332031 L 847.652344 1276.738281 L 852.484375 1273.097656 L 857.367188 1269.46875 L 862.199219 1265.898438 L 866.867188 1262.4375 L 871.265625 1259.136719 L 875.34375 1256.003906 L 879.285156 1252.863281 L 883.332031 1249.5 L 887.726562 1245.691406 L 892.710938 1241.222656 L 898.433594 1235.957031 L 904.65625 1230.105469 L 911.050781 1223.949219 L 917.289062 1217.78125 L 923.039062 1211.886719 L 927.96875 1206.5625 L 931.871094 1201.996094 L 935.003906 1198.035156 L 937.757812 1194.425781 L 940.507812 1190.917969 L 943.640625 1187.253906 L 947.449219 1183.214844 L 951.859375 1178.660156 L 956.714844 1173.492188 L 961.851562 1167.59375 L 967.113281 1160.859375 L 972.332031 1153.183594 L 977.371094 1144.5625 L 982.140625 1135.414062 L 986.574219 1126.25 L 990.601562 1117.597656 L 994.160156 1109.976562 L 997.179688 1103.769531 L 999.605469 1098.808594 L 1001.382812 1094.789062 L 1002.453125 1091.414062 L 1002.765625 1088.375 L 1002.257812 1085.367188 L 1000.972656 1082.167969 L 999.277344 1078.855469 L 997.644531 1075.589844 L 996.535156 1072.527344 L 996.414062 1069.828125 L 997.601562 1067.585938 L 999.839844 1065.632812 L 1002.726562 1063.734375 L 1005.863281 1061.664062 L 1008.839844 1059.1875 L 1011.261719 1056.074219 L 1012.835938 1052.183594 L 1013.734375 1047.757812 L 1014.238281 1043.125 L 1014.625 1038.628906 L 1015.1875 1034.59375 L 1016.132812 1031.25 L 1017.417969 1028.410156 L 1018.925781 1025.773438 L 1020.539062 1023.039062 L 1022.152344 1019.914062 L 1023.644531 1016.101562 L 1024.933594 1011.328125 L 1026.085938 1005.433594 L 1027.195312 998.289062 L 1028.347656 989.765625 L 1029.648438 979.726562 L 1031.152344 968.183594 L 1032.792969 955.730469 L 1034.46875 943.101562 L 1036.074219 931.023438 L 1037.515625 920.238281 L 1038.683594 911.476562 L 1039.523438 905.121094 L 1040.140625 900.175781 L 1040.679688 895.296875 L 1041.289062 889.128906 L 1042.121094 880.332031 L 1043.25 867.976562 L 1044.488281 852.816406 L 1045.585938 836.023438 L 1046.289062 818.769531 L 1046.34375 802.230469 L 1045.496094 787.578125 L 1043.648438 775.738281 L 1041.34375 766.636719 L 1039.28125 759.957031 L 1038.15625 755.382812 L 1038.675781 752.59375 L 1041.335938 751.296875 L 1045.851562 751.316406 L 1051.738281 752.507812 L 1058.511719 754.726562 L 1065.691406 757.820312 L 1072.792969 761.644531 L 1079.449219 766.011719 L 1085.78125 770.574219 L 1092.035156 774.949219 L 1098.445312 778.753906 L 1105.261719 781.59375 L 1112.597656 783.207031 L 1120.101562 783.773438 L 1127.289062 783.59375 L 1133.691406 782.96875 L 1138.832031 782.199219 L 1142.226562 781.585938 L 1143.585938 781.421875 L 1143.375 781.960938 L 1142.234375 783.460938 L 1140.808594 786.167969 L 1139.746094 790.332031 L 1139.535156 796.074219 L 1140.042969 802.980469 L 1140.984375 810.507812 L 1142.074219 818.105469 L 1143.027344 825.230469 L 1143.554688 831.335938 L 1143.476562 836.066406 L 1143 839.828125 L 1142.4375 843.21875 L 1142.105469 846.828125 L 1142.3125 851.253906 L 1143.304688 856.921875 L 1145.042969 863.574219 L 1147.417969 870.777344 L 1150.324219 878.113281 L 1153.648438 885.148438 L 1157.285156 891.457031 L 1161.195312 896.71875 L 1165.609375 901.050781 L 1170.828125 904.675781 L 1177.148438 907.820312 L 1184.875 910.710938 L 1194.300781 913.570312 L 1205.472656 916.570312 L 1217.375 919.671875 L 1228.75 922.78125 L 1238.324219 925.816406 L 1244.832031 928.675781 L 1247.425781 931.292969 L 1246.960938 933.671875 L 1244.710938 935.832031 L 1241.941406 937.792969 L 1239.933594 939.578125 L 1239.953125 941.210938 L 1242.882812 942.753906 L 1248 944.433594 L 1254.191406 946.527344 L 1260.34375 949.296875 L 1265.339844 953.023438 L 1268.394531 957.835938 L 1270.03125 963.335938 L 1271.109375 968.984375 L 1272.480469 974.246094 L 1274.992188 978.582031 L 1279.507812 981.460938 L 1286.527344 982.460938 L 1295.164062 981.664062 L 1304.1875 979.257812 L 1312.355469 975.445312 L 1318.433594 970.417969 L 1321.539062 964.40625 L 1322.160156 957.757812 L 1321.136719 950.867188 L 1319.308594 944.121094 L 1317.515625 937.898438 L 1316.597656 932.59375 L 1317.167969 928.449219 L 1318.910156 925.1875 L 1321.289062 922.375 L 1323.765625 919.59375 L 1325.796875 916.414062 L 1326.988281 912.507812 L 1327.519531 907.902344 L 1327.726562 902.710938 L 1327.933594 897.0625 L 1328.464844 891.070312 L 1329.652344 884.855469 L 1331.679688 878.542969 L 1334.164062 872.292969 L 1336.574219 866.269531 L 1338.390625 860.636719 L 1339.085938 855.558594 L 1338.28125 851.136719 L 1336.207031 847.234375 L 1333.238281 843.636719 L 1329.757812 840.148438 L 1326.140625 836.554688 L 1322.765625 832.652344 L 1319.949219 828.257812 L 1317.738281 823.265625 L 1316.121094 817.601562 L 1315.082031 811.175781 L 1314.605469 803.910156 L 1314.640625 795.804688 L 1314.957031 787.203125 L 1315.289062 778.535156 L 1315.375 770.222656 L 1314.941406 762.691406 L 1313.730469 756.375 L 1311.53125 751.515625 L 1308.394531 747.644531 L 1304.425781 744.109375 L 1299.730469 740.269531 L 1294.421875 735.46875 L 1288.597656 729.285156 L 1282.320312 722.1875 L 1275.648438 714.867188 L 1268.636719 708.015625 L 1261.339844 702.332031 L 1253.816406 698.5 L 1246.15625 697.023438 L 1238.609375 697.644531 L 1231.46875 699.902344 L 1225.019531 703.351562 L 1219.550781 707.527344 L 1215.261719 712.007812 L 1211.996094 716.429688 L 1209.507812 720.457031 L 1207.558594 723.757812 L 1205.902344 725.992188 L 1204.292969 726.828125 L 1202.570312 726.042969 L 1200.894531 723.867188 L 1199.515625 720.640625 L 1198.675781 716.707031 L 1198.617188 712.417969 L 1199.511719 708.03125 L 1201.207031 703.527344 L 1203.476562 698.808594 L 1206.089844 693.765625 L 1208.820312 688.304688 L 1211.4375 682.324219 L 1213.757812 675.769531 L 1215.75 668.742188 L 1217.4375 661.398438 L 1218.828125 653.890625 L 1219.941406 646.367188 L 1220.8125 638.972656 L 1221.558594 631.800781 L 1222.316406 624.929688 L 1223.21875 618.449219 L 1224.40625 612.4375 L 1226.011719 606.984375 L 1228.070312 602.085938 L 1230.191406 597.417969 L 1231.882812 592.570312 L 1232.648438 587.136719 L 1231.996094 580.714844 L 1229.59375 573.054688 L 1225.714844 564.605469 L 1220.796875 555.96875 L 1215.285156 547.753906 L 1209.605469 540.570312 L 1204.199219 535.023438 L 1199.425781 531.492188 L 1195.300781 529.453125 L 1191.777344 528.15625 L 1188.792969 526.847656 L 1186.292969 524.773438 L 1184.222656 521.179688 L 1182.507812 515.5625 L 1181.011719 508.386719 L 1179.585938 500.355469 L 1178.078125 492.183594 L 1176.335938 484.578125 L 1174.246094 478.058594 L 1171.84375 472.433594 L 1169.191406 467.304688 L 1166.363281 462.292969 L 1163.429688 457.011719 L 1160.457031 451.074219 L 1157.507812 444.234375 L 1154.632812 436.800781 L 1151.871094 429.226562 L 1149.261719 421.960938 L 1146.84375 415.449219 L 1144.652344 410.019531 L 1142.660156 405.46875 L 1140.832031 401.476562 L 1139.136719 397.71875 L 1137.535156 393.863281 L 1135.996094 389.59375 L 1134.480469 384.667969 L 1132.945312 379.226562 L 1131.347656 373.488281 L 1129.636719 367.691406 L 1127.769531 362.050781 L 1125.671875 356.746094 L 1123.132812 351.746094 L 1119.929688 346.96875 L 1115.820312 342.324219 L 1110.574219 337.730469 L 1103.957031 333.105469 L 1095.902344 328.386719 L 1087.042969 323.574219 L 1078.164062 318.703125 L 1070.070312 313.800781 L 1063.546875 308.890625 L 1059.109375 304.003906 L 1056.085938 299.203125 L 1053.535156 294.550781 L 1050.5 290.113281 L 1046.03125 285.949219 L 1039.175781 282.121094 L 1029.300781 278.738281 L 1017.03125 276.058594 L 1003.3125 274.382812 L 989.089844 274.011719 L 975.304688 275.246094 L 962.746094 278.242188 L 951.578125 282.605469 L 941.800781 287.800781 L 933.425781 293.28125 L 926.457031 298.511719 L 920.898438 302.957031 L 916.714844 306.277344 L 913.691406 308.941406 L 911.554688 311.628906 L 910.054688 315.003906 L 908.917969 319.746094 L 907.917969 326.292969 L 906.929688 334.140625 L 905.855469 342.5625 L 904.601562 350.816406 L 903.074219 358.171875 L 901.175781 363.894531 L 898.851562 367.382812 L 896.175781 368.546875 L 893.265625 367.4375 L 890.234375 364.09375 L 887.195312 358.5625 L 884.257812 350.992188 L 881.460938 341.960938 L 878.839844 332.140625 L 876.433594 322.214844 L 874.273438 312.859375 L 872.390625 304.753906 L 870.808594 298.390625 L 869.476562 293.554688 L 868.335938 289.84375 L 867.316406 286.855469 L 866.359375 284.1875 L 865.398438 281.480469 L 864.355469 278.546875 L 863.148438 275.25 L 861.695312 271.4375 L 859.917969 266.972656 L 857.730469 261.707031 L 855.097656 255.597656 L 852.160156 248.988281 L 849.101562 242.320312 L 846.113281 236.035156 L 843.375 230.578125 L 841.03125 226.261719 L 839.039062 222.890625 L 837.324219 220.136719 L 835.796875 217.675781 L 834.375 215.179688 L 832.980469 212.324219 L 831.5 208.855469 L 829.707031 204.757812 L 827.351562 200.105469 L 824.183594 194.949219 L 819.953125 189.355469 L 814.484375 183.414062 L 807.925781 177.3125 L 800.503906 171.277344 L 792.445312 165.53125 L 783.980469 160.285156 L 775.332031 155.769531 L 766.742188 152.121094 L 758.480469 149.152344 L 750.835938 146.601562 L 744.089844 144.207031 L 738.527344 141.699219 L 734.433594 138.816406 L 734.863281 141.695312 "/>
<path style="fill:none;stroke-width:0.75;stroke-linecap:round;stroke-linejoin:round;stroke:rgb(0%,0%,0%);stroke-opacity:1;stroke-miterlimit:10;" d="M 327.789062 430.351562 L 324.824219 431.453125 L 321.402344 432.410156 L 318.773438 433.101562 L 317.636719 433.496094 L 316.46875 433.847656 L 313.199219 434.484375 L 306.269531 435.691406 L 296.214844 437.554688 L 284.085938 440.125 L 271.117188 443.375 L 259.316406 447.015625 L 250.875 450.691406 L 247.058594 454.148438 L 245.363281 457.617188 L 242.359375 461.425781 L 235.484375 465.820312 L 225.625 470.695312 L 214.546875 475.855469 L 203.902344 481.070312 L 194.953125 485.980469 L 188.847656 490.195312 L 186.199219 493.476562 L 185.449219 496.199219 L 184.5 498.882812 L 181.75 501.984375 L 177.625 505.667969 L 173.046875 510.019531 L 168.789062 515.027344 L 165.023438 520.296875 L 161.761719 525.335938 L 159.003906 529.777344 L 156.691406 533.773438 L 154.742188 537.597656 L 153.046875 541.472656 L 151.324219 545.414062 L 149.246094 549.371094 L 146.644531 553.292969 L 143.90625 557.03125 L 141.558594 560.441406 L 139.980469 563.429688 L 138.875 566.183594 L 137.804688 568.957031 L 136.410156 571.976562 L 134.710938 575.371094 L 132.824219 579.261719 L 130.816406 583.757812 L 128.558594 589.015625 L 125.878906 595.199219 L 122.746094 602.28125 L 119.726562 609.503906 L 117.519531 615.917969 L 116.492188 620.851562 L 115.65625 624.714844 L 113.664062 628.191406 L 109.683594 631.855469 L 104.863281 635.824219 L 100.851562 640.125 L 98.839844 644.714844 L 98.148438 649.335938 L 97.648438 653.675781 L 96.46875 657.558594 L 94.824219 661.363281 L 93.195312 665.601562 L 91.917969 670.652344 L 90.730469 676.351562 L 89.234375 682.398438 L 87.164062 688.496094 L 84.835938 694.394531 L 82.703125 699.855469 L 81.097656 704.820312 L 79.851562 709.941406 L 78.679688 716.058594 L 77.332031 723.75 L 75.710938 732.582031 L 73.746094 741.878906 L 71.464844 750.957031 L 69.230469 759.132812 L 67.5 765.734375 L 66.511719 770.355469 L 65.6875 773.664062 L 64.238281 776.59375 L 61.671875 779.914062 L 58.71875 783.746094 L 56.414062 788.050781 L 55.480469 792.75 L 55.371094 797.605469 L 55.238281 802.355469 L 54.433594 806.980469 L 53.136719 812.476562 L 51.734375 820.085938 L 50.507812 830.789062 L 49.292969 844.492188 L 47.820312 860.839844 L 45.988281 879.175781 L 44.351562 897.648438 L 43.613281 914.105469 L 44.21875 926.945312 L 45.492188 936.75 L 46.488281 944.652344 L 46.585938 951.632812 L 46.507812 958.097656 L 47.304688 964.292969 L 49.691406 970.378906 L 53.007812 976.140625 L 56.269531 981.28125 L 58.6875 985.605469 L 60.34375 989.382812 L 61.53125 993 L 62.472656 996.789062 L 63.125 1000.851562 L 63.390625 1005.242188 L 63.257812 1010 L 63.117188 1015.117188 L 63.460938 1020.578125 L 64.617188 1026.308594 L 66.277344 1032.011719 L 67.980469 1037.339844 L 69.375 1042.015625 L 70.566406 1046.039062 L 71.777344 1049.488281 L 73.160156 1052.476562 L 74.605469 1055.308594 L 75.949219 1058.332031 L 77.101562 1061.84375 L 78.324219 1065.875 L 79.976562 1070.410156 L 82.238281 1075.40625 L 84.652344 1080.761719 L 86.582031 1086.335938 L 87.683594 1091.980469 L 88.75 1097.410156 L 90.867188 1102.316406 L 94.753906 1106.476562 L 99.730469 1110.042969 L 104.753906 1113.265625 L 108.988281 1116.347656 L 112.410156 1119.371094 L 115.199219 1122.375 L 117.566406 1125.421875 L 119.835938 1128.675781 L 122.359375 1132.335938 L 125.445312 1136.558594 L 129.183594 1141.394531 L 133.632812 1146.863281 L 138.703125 1152.910156 L 143.796875 1159.195312 L 148.171875 1165.304688 L 151.390625 1170.898438 L 154.195312 1175.976562 L 157.621094 1180.625 L 162.308594 1184.953125 L 167.292969 1189.1875 L 171.21875 1193.585938 L 173.285156 1198.289062 L 174.976562 1202.976562 L 178.335938 1207.21875 L 184.488281 1210.703125 L 190.871094 1213.566406 L 193.980469 1216.070312 L 191.636719 1218.460938 L 186.863281 1220.894531 L 184.003906 1223.519531 L 186.230469 1226.453125 L 192.058594 1229.691406 L 198.84375 1233.203125 L 204.464844 1236.945312 L 208.867188 1240.867188 L 212.523438 1244.898438 L 215.761719 1248.976562 L 218.363281 1253 L 219.953125 1256.855469 L 220.394531 1260.46875 L 220.40625 1263.878906 L 220.9375 1267.140625 L 222.710938 1270.34375 L 225.59375 1273.6875 L 229.242188 1277.390625 L 233.328125 1281.605469 L 237.652344 1286.242188 L 242.03125 1291.160156 L 246.40625 1296.226562 L 251.171875 1301.445312 L 256.84375 1306.832031 L 263.617188 1312.34375 L 270.46875 1317.636719 L 276.054688 1322.289062 L 279.425781 1326.039062 L 281.210938 1329.199219 L 282.433594 1332.238281 L 283.980469 1335.519531 L 286.179688 1339.0625 L 289.222656 1342.785156 L 293.082031 1346.601562 L 296.808594 1350.402344 L 299.238281 1354.082031 L 299.738281 1357.550781 L 299.832031 1360.832031 L 301.589844 1363.972656 L 306.402344 1367.003906 L 312.964844 1369.871094 L 319.296875 1372.5 L 324.078125 1374.878906 L 328.621094 1377.21875 L 334.882812 1379.785156 L 344.402344 1382.773438 L 356.945312 1386.09375 L 371.855469 1389.585938 L 388.050781 1393.070312 L 402.832031 1396.308594 L 413.082031 1399.050781 L 416.820312 1401.058594 L 416.597656 1402.171875 L 416.101562 1402.25 L 418.558594 1401.214844 L 425.375 1399.226562 L 437.492188 1396.511719 L 455.3125 1393.273438 L 477.046875 1389.652344 L 500.378906 1385.753906 L 522.960938 1381.707031 L 542.429688 1377.664062 L 556.398438 1373.792969 L 563.566406 1370.21875 L 566.917969 1366.90625 L 570.515625 1363.789062 L 577.375 1360.808594 L 586.308594 1358.027344 L 595.070312 1355.527344 L 601.851562 1353.324219 L 606.558594 1351.148438 L 609.515625 1348.664062 L 611.054688 1345.625 L 611.472656 1342.089844 L 611.0625 1338.207031 L 610.097656 1334.140625 L 608.800781 1330.136719 L 607.375 1326.460938 L 605.984375 1323.296875 L 604.632812 1320.511719 L 603.292969 1317.882812 L 601.941406 1315.171875 L 600.585938 1312.0625 L 599.242188 1308.210938 L 597.925781 1303.132812 L 596.609375 1295.769531 L 595.265625 1284.917969 L 593.878906 1269.242188 L 592.492188 1246.90625 L 591.164062 1215.945312 L 589.917969 1174.773438 L 588.644531 1123.351562 L 587.207031 1062.035156 L 585.566406 991.476562 L 584.125 913.601562 L 583.390625 830.640625 L 583.640625 746.195312 L 584.238281 669.363281 L 584.328125 610.609375 L 583.316406 577.148438 L 581.699219 563.226562 L 580.242188 559.828125 L 579.449219 559.257812 L 578.714844 559.050781 L 577.160156 558.046875 L 574.148438 555.355469 L 569.949219 551.121094 L 565.082031 545.75 L 560.019531 539.667969 L 555.074219 533.378906 L 550.546875 527.417969 L 546.632812 522.222656 L 543.246094 517.917969 L 540.214844 514.542969 L 537.339844 512.074219 L 534.375 510.253906 L 531.035156 508.765625 L 527.144531 507.351562 L 522.867188 506.035156 L 518.464844 504.902344 L 514.128906 504 L 509.730469 503.21875 L 505.074219 502.410156 L 500.066406 501.34375 L 495.015625 499.480469 L 490.335938 496.203125 L 486.34375 491.191406 L 482.949219 485.304688 L 479.972656 479.6875 L 477.257812 475.28125 L 474.78125 472.164062 L 472.558594 470.195312 L 470.4375 469.171875 L 467.609375 468.605469 L 463.117188 467.941406 L 456.492188 466.734375 L 449.289062 465.019531 L 443.570312 462.941406 L 440.585938 460.632812 L 438.375 458.175781 L 434.160156 455.628906 L 426.082031 453.058594 L 415.890625 450.542969 L 406.246094 448.148438 L 399.179688 445.941406 L 394.273438 443.921875 L 390.480469 442.089844 L 386.71875 440.421875 L 381.738281 438.878906 L 374.242188 437.402344 L 363.628906 435.949219 L 352.054688 434.542969 L 342.367188 433.21875 L 336.480469 431.996094 L 332.605469 430.796875 L 328.035156 429.519531 L 327.789062 430.351562 "/>
<path style="fill:none;stroke-width:0.75;stroke-linecap:round;stroke-linejoin:round;stroke:rgb(0%,0%,0%);stroke-opacity:1;stroke-miterlimit:10;" d="M 480.417969 244.253906 L 477.703125 245.9375 L 475.183594 247.882812 L 473.324219 251.527344 L 471.726562 255.851562 L 469.8125 259.238281 L 467.136719 261.039062 L 463.386719 262.457031 L 459.089844 264.671875 L 455.203125 268.367188 L 452.992188 272.71875 L 451.804688 276.722656 L 450.652344 280.386719 L 448.398438 284.398438 L 443.59375 290.953125 L 437.121094 301.472656 L 431.753906 314.285156 L 429.464844 328.148438 L 428.390625 343.574219 L 428.097656 353.234375 L 428.605469 357.726562 L 429.824219 360.371094 L 431.703125 364.152344 L 434.765625 370.292969 L 437.6875 377.515625 L 438.941406 384.515625 L 438.699219 392.019531 L 438.957031 401.105469 L 441.304688 412.667969 L 444.789062 425.636719 L 449.546875 434.847656 L 455.039062 440.480469 L 460.3125 444.125 L 464.335938 446.316406 L 467.347656 447.761719 L 469.859375 448.976562 L 472.269531 450.285156 L 474.640625 451.605469 L 477.328125 453.035156 L 482.03125 454.46875 L 490.96875 455.550781 L 506.804688 455.523438 L 529.601562 454.519531 L 552.820312 453.046875 L 569.332031 451.566406 L 577.425781 450.246094 L 581.765625 449.007812 L 584.859375 447.792969 L 588.027344 446.421875 L 591.476562 444.21875 L 594.582031 440.726562 L 596.789062 435.625 L 598.082031 428.753906 L 597.9375 420.140625 L 596.816406 410.320312 L 595.371094 399.871094 L 593.78125 388.0625 L 592.234375 370.644531 L 591.234375 343.976562 L 591.347656 310.597656 L 592.832031 289.976562 L 594.816406 281.949219 L 595.277344 278.730469 L 591.683594 273.761719 L 582.378906 267.152344 L 572.324219 261.433594 L 565.152344 256.199219 L 562.351562 250.984375 L 560.996094 247.960938 L 560.019531 247.671875 L 558 248.285156 L 550.851562 247.847656 L 528.5 246.039062 L 491.972656 243.914062 L 480.417969 244.253906 "/>
<path style="fill:none;stroke-width:0.75;stroke-linecap:round;stroke-linejoin:round;stroke:rgb(0%,0%,0%);stroke-opacity:1;stroke-miterlimit:10;" d="M 507.335938 488.167969 L 504.652344 491.355469 L 504.652344 495.339844 L 512.703125 499.832031 L 515.386719 502.566406 L 518.070312 504.207031 L 523.441406 505.292969 L 526.125 506.4375 L 531.492188 507.460938 L 534.175781 509.335938 L 536.859375 513.34375 L 550.277344 520.230469 L 550.277344 526.023438 L 555.648438 531.179688 L 555.648438 537.820312 L 571.75 546.757812 L 571.75 553.457031 L 577.117188 557.957031 L 577.117188 561.023438 L 579.800781 563.683594 L 579.800781 566.949219 L 582.488281 571.363281 L 582.488281 575.105469 L 587.855469 572.4375 L 587.855469 562.421875 L 593.222656 551.90625 L 593.222656 542.421875 L 601.273438 535.28125 L 601.273438 531.1875 L 603.957031 528.582031 L 603.957031 525.859375 L 601.273438 521.910156 L 601.273438 516.789062 L 603.957031 512.71875 L 603.957031 509.769531 L 601.273438 507.226562 L 601.273438 504.699219 L 603.957031 501.910156 L 603.957031 498.355469 L 609.324219 493.875 L 603.957031 489.929688 L 507.335938 487.65625 L 507.335938 488.167969 "/>
<path style="fill:none;stroke-width:0.75;stroke-linecap:round;stroke-linejoin:round;stroke:rgb(0%,0%,0%);stroke-opacity:1;stroke-miterlimit:10;" d="M 672.121094 543.460938 L 672.148438 544.351562 L 662.113281 545.070312 L 647.242188 545.386719 L 632.039062 545.21875 L 618.082031 544.996094 L 606.210938 545.292969 L 597.269531 546.671875 L 591.777344 550.429688 L 588.917969 560.777344 L 587.566406 582.644531 L 586.582031 620.960938 L 585.144531 678.628906 L 583.691406 750.371094 L 582.96875 828.875 L 583.519531 907.613281 L 585.039062 983.164062 L 587.015625 1052.886719 L 588.921875 1114.148438 L 590.378906 1164.90625 L 591.488281 1205.554688 L 592.484375 1237.097656 L 593.601562 1260.523438 L 594.996094 1276.960938 L 596.550781 1288.03125 L 598.074219 1295.484375 L 599.414062 1300.875 L 600.636719 1304.953125 L 601.839844 1308.273438 L 603.128906 1311.394531 L 604.570312 1314.75 L 606.082031 1318.316406 L 607.542969 1321.960938 L 608.832031 1325.542969 L 609.894531 1328.941406 L 610.941406 1332.117188 L 612.25 1335.050781 L 614.09375 1337.714844 L 616.664062 1340.011719 L 619.800781 1341.519531 L 623.25 1341.734375 L 626.804688 1340.355469 L 630.40625 1337.855469 L 634.039062 1334.894531 L 637.683594 1332.144531 L 641.464844 1330.160156 L 646.070312 1329.042969 L 652.324219 1328.789062 L 661.058594 1329.390625 L 672.660156 1330.738281 L 685.761719 1332.328125 L 698.5625 1333.550781 L 709.558594 1333.933594 L 718.484375 1333.539062 L 725.390625 1332.5625 L 730.3125 1331.199219 L 733.523438 1329.617188 L 736.207031 1327.832031 L 739.777344 1325.84375 L 745.648438 1323.632812 L 754.714844 1321.1875 L 765.835938 1318.441406 L 777.359375 1315.332031 L 787.886719 1311.832031 L 797.085938 1308.105469 L 804.890625 1304.34375 L 811.226562 1300.757812 L 816.171875 1297.476562 L 820.378906 1294.371094 L 824.640625 1291.253906 L 829.753906 1287.921875 L 836.238281 1284.25 L 843.484375 1280.339844 L 850.601562 1276.363281 L 856.699219 1272.484375 L 861.15625 1268.851562 L 864.378906 1265.488281 L 867.050781 1262.402344 L 869.773438 1259.550781 L 872.859375 1256.710938 L 876.550781 1253.613281 L 881.082031 1249.988281 L 886.601562 1245.632812 L 892.871094 1240.636719 L 899.546875 1235.144531 L 906.300781 1229.308594 L 912.796875 1223.308594 L 918.710938 1217.441406 L 923.726562 1212.03125 L 927.65625 1207.300781 L 930.828125 1203.089844 L 933.699219 1199.148438 L 936.734375 1195.21875 L 940.277344 1191.09375 L 944.234375 1186.773438 L 948.394531 1182.3125 L 952.550781 1177.757812 L 956.59375 1173.058594 L 960.84375 1167.726562 L 965.710938 1161.179688 L 971.4375 1153.046875 L 977.554688 1143.871094 L 983.417969 1134.429688 L 988.375 1125.480469 L 991.96875 1117.648438 L 994.476562 1110.917969 L 996.351562 1105.132812 L 998.058594 1100.128906 L 999.910156 1095.742188 L 1001.652344 1091.8125 L 1002.882812 1088.175781 L 1003.210938 1084.660156 L 1002.378906 1081.164062 L 1000.710938 1077.839844 L 998.671875 1074.898438 L 996.753906 1072.472656 L 995.515625 1070.410156 L 995.527344 1068.476562 L 997.371094 1066.441406 L 1001.300781 1064.109375 L 1006.277344 1061.449219 L 1010.945312 1058.449219 L 1013.949219 1055.109375 L 1014.414062 1051.453125 L 1013.410156 1047.566406 L 1012.496094 1043.566406 L 1012.882812 1039.566406 L 1014.359375 1035.65625 L 1016.367188 1031.9375 L 1018.34375 1028.5 L 1019.867188 1025.378906 L 1021.015625 1022.367188 L 1022.015625 1019.203125 L 1023.078125 1015.625 L 1024.367188 1011.335938 L 1025.832031 1005.929688 L 1027.359375 998.96875 L 1028.839844 990.011719 L 1030.195312 978.890625 L 1031.460938 966.519531 L 1032.703125 954.082031 L 1033.972656 942.5625 L 1035.289062 932.105469 L 1036.667969 922.660156 L 1038.109375 914.167969 L 1039.597656 906.53125 L 1041.007812 899.464844 L 1042.175781 892.640625 L 1042.949219 885.738281 L 1043.230469 878.429688 L 1043.164062 870.417969 L 1042.960938 861.398438 L 1042.773438 851.164062 L 1042.515625 839.855469 L 1042.046875 827.707031 L 1041.21875 814.949219 L 1039.945312 801.851562 L 1038.375 788.835938 L 1036.707031 776.371094 L 1035.136719 764.917969 L 1033.8125 754.875 L 1032.636719 746.355469 L 1031.460938 739.402344 L 1030.171875 734 L 1028.789062 729.855469 L 1027.363281 726.613281 L 1025.953125 723.925781 L 1024.597656 721.46875 L 1023.285156 719.070312 L 1021.988281 716.582031 L 1020.675781 713.871094 L 1019.332031 710.828125 L 1017.96875 707.46875 L 1016.601562 703.847656 L 1015.246094 700.015625 L 1013.917969 696.03125 L 1012.601562 691.957031 L 1011.273438 687.867188 L 1009.921875 683.816406 L 1008.550781 679.804688 L 1007.1875 675.824219 L 1005.84375 671.863281 L 1004.535156 667.886719 L 1003.238281 663.789062 L 1001.925781 659.4375 L 1000.574219 654.707031 L 999.164062 649.519531 L 997.746094 643.996094 L 996.382812 638.3125 L 995.03125 632.59375 L 993.273438 626.710938 L 990.601562 620.484375 L 986.492188 613.734375 L 980.632812 606.382812 L 973.515625 598.769531 L 965.832031 591.34375 L 958.277344 584.550781 L 951.359375 578.769531 L 944.882812 574.128906 L 938.460938 570.6875 L 931.75 568.421875 L 924.5625 567.027344 L 916.75 566.117188 L 908.164062 565.308594 L 898.855469 564.285156 L 889.65625 563.050781 L 881.605469 561.679688 L 875.738281 560.238281 L 872.648438 558.789062 L 871.144531 557.328125 L 869.601562 555.847656 L 866.386719 554.328125 L 860.417969 552.828125 L 852.839844 551.730469 L 845.34375 551.480469 L 839.328125 552.425781 L 834.960938 554.4375 L 832.117188 557.28125 L 830.675781 560.730469 L 830.507812 564.527344 L 831.507812 568.375 L 833.574219 571.960938 L 836.601562 574.972656 L 840.21875 577.273438 L 842.976562 579.429688 L 843.144531 582.191406 L 839.628906 586.171875 L 833.792969 591.441406 L 827.628906 597.9375 L 823.125 605.59375 L 821.683594 614.238281 L 822.355469 623.257812 L 823.601562 631.933594 L 823.882812 639.535156 L 822.117188 645.523438 L 819.027344 650.066406 L 815.796875 653.5 L 813.421875 656.160156 L 812.199219 658.320312 L 812.242188 660.242188 L 813.667969 662.183594 L 816.382812 664.382812 L 819.417969 666.941406 L 821.605469 669.933594 L 821.765625 673.4375 L 819.226562 677.460938 L 815.304688 681.757812 L 811.839844 686.027344 L 810.648438 689.957031 L 812.847656 693.34375 L 816.6875 696.386719 L 819.71875 699.386719 L 820.101562 702.585938 L 818.511719 705.980469 L 816.257812 709.503906 L 814.636719 713.09375 L 814.644531 716.683594 L 816.046875 720.207031 L 818.296875 723.59375 L 820.851562 726.773438 L 823.390625 729.726562 L 826.457031 732.574219 L 830.820312 735.5 L 836.890625 738.648438 L 843.613281 742.054688 L 849.574219 745.726562 L 853.355469 749.683594 L 854.015625 753.917969 L 852.53125 758.378906 L 850.355469 762.988281 L 848.929688 767.683594 L 849.222656 772.386719 L 850.269531 777.023438 L 850.617188 781.503906 L 848.8125 785.746094 L 843.914062 789.6875 L 837.007812 793.371094 L 829.699219 796.859375 L 823.160156 800.214844 L 816.878906 803.5 L 809.925781 806.777344 L 801.363281 810.113281 L 790.953125 813.539062 L 781.242188 816.976562 L 775.480469 820.3125 L 776.917969 823.445312 L 787 826.308594 L 799.992188 829.015625 L 808.359375 831.730469 L 806.574219 834.617188 L 797.140625 837.890625 L 784.5625 841.761719 L 773.34375 846.457031 L 766.914062 852.066406 L 764.347656 858.203125 L 763.640625 864.355469 L 762.792969 870.011719 L 760.363281 874.800781 L 757.207031 878.964844 L 754.746094 882.875 L 754.070312 886.828125 L 754.957031 890.78125 L 756.847656 894.597656 L 759.195312 898.144531 L 761.554688 901.347656 L 763.984375 904.316406 L 766.640625 907.21875 L 769.691406 910.222656 L 773.28125 913.433594 L 777.464844 916.738281 L 782.269531 919.964844 L 787.730469 922.941406 L 793.417969 925.570312 L 797.046875 928.078125 L 795.878906 930.773438 L 788.191406 933.921875 L 776.375 937.632812 L 763.828125 941.992188 L 753.96875 947.0625 L 749.199219 952.757812 L 747.941406 958.265625 L 747.621094 962.613281 L 745.660156 964.824219 L 740.269531 964.222656 L 732.8125 961.367188 L 725.433594 957.113281 L 719.855469 952.191406 L 716.039062 946.800781 L 713.519531 941.019531 L 711.832031 934.917969 L 710.65625 928.59375 L 710.238281 922.289062 L 710.980469 916.265625 L 713.269531 910.796875 L 717.152344 906.089844 L 721.242188 902.140625 L 723.792969 898.886719 L 723.496094 896.21875 L 720.78125 893.839844 L 716.507812 891.390625 L 711.535156 888.527344 L 706.617188 884.964844 L 702.058594 880.679688 L 698.0625 875.722656 L 694.832031 870.136719 L 692.492188 863.984375 L 690.914062 857.421875 L 689.894531 850.613281 L 689.230469 843.726562 L 688.78125 836.929688 L 688.640625 830.351562 L 688.953125 824.128906 L 689.820312 818.339844 L 691.144531 812.871094 L 692.765625 807.566406 L 694.535156 802.257812 L 696.300781 796.835938 L 697.921875 791.355469 L 699.265625 785.90625 L 700.183594 780.589844 L 700.625 775.378906 L 700.855469 769.71875 L 701.214844 762.929688 L 701.882812 754.570312 L 702.324219 745.105469 L 701.828125 735.230469 L 699.691406 725.652344 L 695.523438 716.917969 L 690.222656 709.023438 L 684.996094 701.800781 L 681.066406 695.101562 L 679.441406 688.777344 L 680.332031 682.730469 L 683.742188 676.871094 L 689.511719 671.144531 L 696.769531 665.636719 L 704.480469 660.464844 L 711.605469 655.746094 L 717.25 651.542969 L 721.09375 647.707031 L 722.964844 644.035156 L 722.683594 640.324219 L 720.386719 636.425781 L 717.449219 632.414062 L 715.558594 628.414062 L 716.402344 624.546875 L 720.734375 620.941406 L 725.601562 617.710938 L 727.128906 614.96875 L 722.746094 612.761719 L 715.125 610.890625 L 708.253906 609.09375 L 706.117188 607.113281 L 711.335938 604.707031 L 721.058594 601.730469 L 731.054688 598.066406 L 737.105469 593.59375 L 736.019531 588.304688 L 728.738281 582.660156 L 717.226562 577.222656 L 703.679688 572.457031 L 691.214844 568.386719 L 683.160156 564.925781 L 682.855469 561.988281 L 692.015625 559.472656 L 705.882812 557.21875 L 718.078125 555.046875 L 722.230469 552.777344 L 714.148438 550.277344 L 698.40625 547.570312 L 681.757812 544.730469 L 670.960938 541.828125 L 672.121094 543.460938 "/>
<path style="fill:none;stroke-width:0.75;stroke-linecap:round;stroke-linejoin:round;stroke:rgb(0%,0%,0%);stroke-opacity:1;stroke-miterlimit:10;" d="M 732.664062 142.292969 L 731.414062 145.457031 L 729.296875 148.085938 L 724.6875 149.164062 L 719.042969 148.882812 L 714.59375 147.742188 L 712.75 146.320312 L 711.601562 145.574219 L 708.398438 146.539062 L 701.289062 149.875 L 691.941406 154.726562 L 682.921875 159.871094 L 676.214844 164.269531 L 671.570312 167.679688 L 668.164062 170.042969 L 665.253906 171.441406 L 662.394531 172.453125 L 659.222656 173.785156 L 655.546875 175.964844 L 651.84375 178.835938 L 648.769531 182.0625 L 646.722656 185.378906 L 645.136719 188.824219 L 643.203125 192.515625 L 640.410156 196.476562 L 637.449219 200.402344 L 635.3125 203.890625 L 634.5 206.890625 L 633.5625 210.738281 L 631.007812 216.667969 L 627.160156 224.203125 L 622.804688 232.417969 L 618.617188 240.652344 L 614.875 249.230469 L 611.765625 258.734375 L 609.328125 269.195312 L 607.023438 278.449219 L 604.15625 283.792969 L 600.335938 283.894531 L 596.277344 282.933594 L 592.992188 286.464844 L 591.25 298.53125 L 590.867188 317.136719 L 591.433594 338.78125 L 592.578125 359.980469 L 594.136719 377.359375 L 595.992188 387.550781 L 598.035156 388.644531 L 600.214844 384.507812 L 602.484375 380.449219 L 604.664062 380.542969 L 606.027344 383.964844 L 605.710938 388.652344 L 603.296875 392.792969 L 600.152344 395.609375 L 597.800781 397.042969 L 596.574219 399.011719 L 596.503906 403.902344 L 597.527344 413.421875 L 599.144531 426.496094 L 600.765625 441.367188 L 601.960938 456.285156 L 602.972656 469.582031 L 604.214844 479.601562 L 606.035156 485.28125 L 608.558594 487.917969 L 611.855469 489.394531 L 615.921875 491.203125 L 620.464844 493.222656 L 625.128906 494.929688 L 629.675781 496.003906 L 634.402344 496.910156 L 639.714844 498.304688 L 645.804688 500.53125 L 651.917969 502.609375 L 657.082031 503.25 L 660.585938 501.371094 L 662.824219 496.75 L 664.464844 489.386719 L 665.980469 479.65625 L 667.09375 469.410156 L 667.335938 460.878906 L 666.585938 455.648438 L 666.066406 452.742188 L 667.109375 450.722656 L 670.019531 448.898438 L 674.863281 446.75 L 681.378906 443.898438 L 687.996094 440.488281 L 692.824219 436.789062 L 694.367188 433.050781 L 692.734375 429.4375 L 688.425781 426.101562 L 682.09375 423.140625 L 675.007812 420.492188 L 668.578125 418.0625 L 663.988281 415.730469 L 661.460938 413.355469 L 660.988281 410.773438 L 662.316406 407.875 L 664.277344 404.695312 L 665.464844 401.304688 L 664.847656 397.699219 L 662.871094 393.484375 L 660.355469 388.191406 L 658.082031 381.636719 L 656.71875 374.789062 L 656.898438 368.921875 L 658.679688 364.796875 L 659.84375 361.167969 L 658.339844 356.660156 L 655.078125 351.417969 L 651.707031 345.96875 L 649.472656 340.757812 L 647.941406 335.898438 L 646.277344 331.429688 L 644.023438 327.214844 L 642.238281 322.464844 L 642.355469 316.214844 L 645.089844 308.011719 L 648.234375 299.40625 L 648.867188 292.457031 L 645.230469 288.628906 L 640.296875 286.984375 L 638.214844 285.996094 L 641.835938 284.402344 L 648.808594 281.980469 L 655.476562 278.789062 L 658.996094 274.835938 L 659.738281 270.019531 L 658.867188 264.195312 L 657.527344 257.46875 L 656.71875 250.972656 L 657.414062 246.074219 L 660.109375 243.671875 L 663.398438 242.726562 L 665.390625 241.71875 L 664.71875 239.574219 L 662.035156 237.058594 L 658.574219 235.089844 L 655.828125 233.421875 L 655.363281 231.503906 L 658.128906 228.929688 L 662.625 225.816406 L 666.738281 222.40625 L 668.960938 218.929688 L 670.191406 215.519531 L 671.941406 212.28125 L 675.597656 209.261719 L 682.054688 206.234375 L 692.070312 202.90625 L 705.949219 199.269531 L 722.105469 196.414062 L 738.476562 195.714844 L 753.324219 198.035156 L 766.140625 202.261719 L 776.734375 206.765625 L 784.992188 210.332031 L 791.140625 213.332031 L 795.488281 216.535156 L 798.21875 220.441406 L 799.035156 224.476562 L 797.515625 227.789062 L 793.953125 229.824219 L 791.460938 231.207031 L 792.914062 232.75 L 797.320312 234.835938 L 802.722656 237.742188 L 807.546875 241.707031 L 811.730469 246.777344 L 815.585938 252.96875 L 819.328125 260.074219 L 822.757812 267.027344 L 825.578125 272.554688 L 827.515625 275.785156 L 828.40625 277.496094 L 828.109375 278.871094 L 826.730469 280.871094 L 825.304688 283.542969 L 825.113281 286.710938 L 826.988281 290.335938 L 829.96875 294.9375 L 832.660156 301.167969 L 834.035156 309.273438 L 834.617188 317.84375 L 835.320312 325.058594 L 836.902344 329.753906 L 839.542969 333.339844 L 843.285156 337.894531 L 847.820312 344.773438 L 851.445312 352.507812 L 852.109375 358.929688 L 848.878906 362.699219 L 845.277344 365.804688 L 844.792969 370.453125 L 846.335938 376.320312 L 847.679688 382.460938 L 847.285156 388.054688 L 846.464844 392.8125 L 847.210938 396.570312 L 850.796875 399.339844 L 855.5 401.859375 L 858.859375 405.027344 L 859.109375 409.554688 L 857.289062 415.371094 L 855.121094 422.199219 L 854.082031 429.671875 L 854.597656 437.046875 L 856.835938 443.46875 L 860.726562 448.332031 L 865.226562 451.945312 L 869.050781 454.84375 L 871.160156 457.503906 L 871.445312 460.140625 L 870.050781 462.902344 L 867.378906 465.933594 L 864.929688 469.304688 L 864.460938 473.070312 L 866.839844 477.128906 L 869.328125 480.738281 L 869.050781 483.296875 L 866.152344 485.34375 L 861.523438 487.71875 L 856.238281 490.953125 L 852.015625 494.386719 L 850.761719 497.050781 L 853.683594 498.195312 L 859.242188 497.921875 L 865.21875 496.550781 L 869.875 494.421875 L 873.414062 491.972656 L 876.523438 489.675781 L 879.84375 487.777344 L 883.804688 485.652344 L 888.785156 482.460938 L 894.933594 477.660156 L 901.496094 471.890625 L 907.488281 466.085938 L 912.097656 460.914062 L 915.242188 456.003906 L 917.007812 450.710938 L 917.53125 444.5625 L 917.117188 437.757812 L 916.105469 430.660156 L 914.804688 423.582031 L 913.367188 416.625 L 911.902344 409.835938 L 910.511719 403.199219 L 909.269531 396.433594 L 908.152344 389.402344 L 906.84375 382.902344 L 904.953125 377.941406 L 902.203125 375.054688 L 898.78125 372.863281 L 894.984375 369.492188 L 891.085938 363.597656 L 887.25 355.867188 L 883.601562 347.519531 L 880.289062 339.480469 L 877.464844 331.542969 L 875.296875 323.210938 L 873.855469 314.261719 L 872.832031 305.542969 L 871.832031 298.175781 L 870.550781 292.96875 L 869.070312 289.449219 L 867.578125 286.84375 L 866.210938 284.449219 L 864.933594 281.871094 L 863.664062 278.789062 L 862.339844 275 L 861.019531 270.777344 L 859.78125 266.5 L 858.527344 262.265625 L 856.515625 256.988281 L 853.152344 249.789062 L 849.105469 241.8125 L 845.371094 234.699219 L 842.683594 229.667969 L 840.761719 226.242188 L 839.074219 223.511719 L 837.21875 220.746094 L 835.371094 217.835938 L 833.832031 214.847656 L 832.773438 211.800781 L 831.800781 208.542969 L 830.378906 204.886719 L 828.035156 200.65625 L 824.5625 195.730469 L 819.816406 190.015625 L 813.785156 183.523438 L 807.023438 176.769531 L 800.230469 170.375 L 793.765625 164.832031 L 786.671875 160.074219 L 777.660156 155.890625 L 766.121094 152.128906 L 754.191406 148.855469 L 744.695312 146.203125 L 739.503906 144.238281 L 736.714844 142.839844 L 733.46875 141.824219 L 732.664062 142.292969 "/>
<path style="fill:none;stroke-width:0.75;stroke-linecap:round;stroke-linejoin:round;stroke:rgb(0%,0%,0%);stroke-opacity:1;stroke-miterlimit:10;" d="M 986.324219 272.433594 L 969.792969 276.691406 L 955.589844 280.355469 L 944.992188 283.570312 L 938.640625 286.578125 L 934.644531 290.035156 L 930.464844 294.683594 L 924.34375 300.902344 L 917.628906 307.570312 L 912.4375 313.191406 L 910.25 316.738281 L 909.980469 319.019531 L 909.910156 321.320312 L 908.722656 324.738281 L 906.75 329.683594 L 904.738281 336.390625 L 903.3125 344.792969 L 902.632812 353.613281 L 902.734375 361.265625 L 903.597656 366.625 L 904.972656 370.402344 L 906.542969 373.761719 L 908.050781 377.613281 L 909.433594 381.835938 L 910.691406 386.046875 L 911.839844 389.949219 L 913.011719 393.535156 L 914.34375 396.878906 L 915.949219 400.054688 L 917.773438 403.164062 L 919.71875 406.308594 L 921.6875 409.589844 L 923.59375 413.023438 L 925.359375 416.277344 L 926.917969 418.929688 L 928.234375 420.816406 L 929.425781 422.789062 L 930.640625 425.960938 L 931.992188 431.160156 L 933.414062 438.105469 L 934.8125 446.234375 L 936.113281 454.914062 L 937.382812 463.25 L 938.71875 470.28125 L 940.167969 475.367188 L 941.605469 479.121094 L 942.867188 482.492188 L 943.902344 486.210938 L 945.105469 490.230469 L 947 494.289062 L 949.878906 498.21875 L 953.160156 502.171875 L 956.054688 506.375 L 957.96875 511.050781 L 959.191406 516.359375 L 960.214844 522.4375 L 961.4375 529.246094 L 962.835938 535.972656 L 964.285156 541.632812 L 965.691406 545.519531 L 967.042969 548.148438 L 968.351562 550.316406 L 969.632812 552.832031 L 970.910156 556.265625 L 972.222656 560.292969 L 973.625 564.34375 L 975.121094 568 L 976.570312 571.34375 L 977.792969 574.605469 L 978.738281 577.980469 L 979.863281 581.535156 L 981.75 585.3125 L 984.761719 589.347656 L 988.359375 593.652344 L 991.792969 598.21875 L 994.46875 603.101562 L 996.457031 608.550781 L 998.003906 614.863281 L 999.324219 622.113281 L 1000.550781 629.464844 L 1001.792969 635.851562 L 1003.125 640.539062 L 1004.519531 644.085938 L 1005.910156 647.371094 L 1007.257812 651.121094 L 1008.578125 655.355469 L 1009.890625 659.9375 L 1011.226562 664.71875 L 1012.578125 669.492188 L 1013.933594 674.039062 L 1015.285156 678.140625 L 1016.617188 681.667969 L 1017.949219 684.867188 L 1019.289062 688.0625 L 1020.648438 691.535156 L 1022.007812 695.347656 L 1023.34375 699.507812 L 1024.644531 704.007812 L 1025.949219 708.742188 L 1027.3125 713.59375 L 1028.746094 718.542969 L 1030.160156 723.992188 L 1031.4375 730.453125 L 1032.535156 738.113281 L 1033.761719 745.933594 L 1035.511719 752.554688 L 1037.910156 756.800781 L 1040.042969 758.261719 L 1040.734375 756.695312 L 1039.484375 752.410156 L 1038.460938 747.832031 L 1040.507812 745.914062 L 1047.515625 748.683594 L 1057.527344 754.410156 L 1067.632812 760.445312 L 1075.578125 764.746094 L 1081.738281 767.800781 L 1087.144531 770.707031 L 1092.664062 774.265625 L 1098.53125 778.089844 L 1104.808594 781.46875 L 1111.574219 783.714844 L 1118.785156 784.335938 L 1126.007812 783.691406 L 1132.683594 782.355469 L 1138.300781 780.921875 L 1142.472656 780.089844 L 1144.84375 780.585938 L 1145.261719 782.835938 L 1144.351562 786.09375 L 1142.945312 789.320312 L 1141.671875 791.894531 L 1140.367188 794.851562 L 1138.675781 799.644531 L 1136.574219 807.207031 L 1135.390625 816.339844 L 1136.785156 825.320312 L 1141.621094 832.730469 L 1147.570312 838.34375 L 1151.507812 842.246094 L 1151.171875 844.71875 L 1147.761719 846.871094 L 1143.34375 850.023438 L 1139.78125 855.167969 L 1138.140625 861.996094 L 1139.277344 869.886719 L 1143.714844 878.183594 L 1150.566406 886.097656 L 1158.601562 892.816406 L 1166.652344 897.765625 L 1173.820312 901.332031 L 1179.269531 904.136719 L 1182.167969 906.8125 L 1182.625 909.847656 L 1184.5625 913.210938 L 1192.84375 916.742188 L 1210.277344 920.265625 L 1231.382812 923.597656 L 1248.617188 926.546875 L 1256.167969 928.984375 L 1255.097656 931.082031 L 1248.199219 933.085938 L 1238.578125 935.164062 L 1230.5625 937.226562 L 1228.808594 939.101562 L 1236.128906 940.726562 L 1248.074219 942.46875 L 1258.355469 944.789062 L 1262.398438 947.976562 L 1262.421875 951.597656 L 1262.351562 955.042969 L 1265.019531 957.972656 L 1268.902344 961.089844 L 1271.371094 965.359375 L 1270.925781 971.296875 L 1270.488281 977.625 L 1274.089844 982.605469 L 1284.378906 984.855469 L 1298.449219 984.375 L 1312.003906 981.515625 L 1320.75 976.617188 L 1321.878906 970.113281 L 1318.519531 962.777344 L 1315.285156 955.46875 L 1315.570312 948.894531 L 1317.921875 943.160156 L 1319.65625 938.21875 L 1318.96875 933.980469 L 1317.5 930.140625 L 1317.757812 926.351562 L 1321.328125 922.382812 L 1326.109375 918.445312 L 1329.066406 914.855469 L 1328.175781 911.742188 L 1325.355469 908.449219 L 1323.527344 904.125 L 1324.820312 898.203125 L 1328.191406 891.261719 L 1331.808594 884.175781 L 1334.230469 877.640625 L 1335.578125 871.683594 L 1336.367188 866.171875 L 1336.992188 860.992188 L 1337.410156 856.136719 L 1337.449219 851.628906 L 1336.910156 847.464844 L 1335.378906 843.496094 L 1332.417969 839.546875 L 1327.839844 835.492188 L 1322.539062 831.394531 L 1317.683594 827.355469 L 1314.433594 823.488281 L 1313.578125 819.644531 L 1314.386719 814.679688 L 1315.757812 807.191406 L 1316.746094 796.449219 L 1317.03125 784.398438 L 1316.449219 773.636719 L 1314.96875 766.125 L 1313.09375 761.21875 L 1311.441406 757.617188 L 1310.375 754.210938 L 1309.191406 750.601562 L 1306.90625 746.574219 L 1302.746094 741.886719 L 1296.691406 736.167969 L 1288.914062 729.019531 L 1279.867188 720.390625 L 1271.109375 711.640625 L 1264.464844 704.472656 L 1260.90625 700.203125 L 1257.960938 698.59375 L 1252.296875 699.015625 L 1241.835938 700.832031 L 1229.527344 703.382812 L 1219.582031 706.003906 L 1215.03125 708.234375 L 1214.195312 710.445312 L 1214.222656 713.207031 L 1212.84375 716.878906 L 1210.164062 720.945312 L 1206.871094 724.691406 L 1203.667969 727.382812 L 1201.125 728.394531 L 1199.363281 727.4375 L 1198.382812 724.320312 L 1198.175781 719.074219 L 1198.707031 712.605469 L 1199.921875 706.046875 L 1201.746094 700.308594 L 1204.019531 695.414062 L 1206.554688 691.152344 L 1209.164062 687.253906 L 1211.652344 683.152344 L 1213.824219 678.207031 L 1215.542969 671.917969 L 1216.890625 664.351562 L 1218.007812 655.710938 L 1219.039062 646.335938 L 1220.1875 637.035156 L 1221.652344 628.75 L 1223.523438 622.167969 L 1225.386719 616.933594 L 1226.714844 612.429688 L 1227.164062 608.109375 L 1227.152344 603.699219 L 1227.300781 598.992188 L 1228.039062 593.773438 L 1229.121094 587.824219 L 1230.136719 580.917969 L 1230.65625 572.824219 L 1230.128906 563.582031 L 1227.433594 554.246094 L 1221.320312 546.136719 L 1211.367188 540.234375 L 1200.480469 536.160156 L 1192.40625 533.191406 L 1189.710938 530.683594 L 1190.257812 528.300781 L 1190.746094 525.792969 L 1188.730469 522.902344 L 1185.269531 519.410156 L 1182.277344 515.101562 L 1181.109375 509.761719 L 1180.835938 503.222656 L 1179.96875 495.308594 L 1177.429688 486.136719 L 1173.8125 476.917969 L 1170.121094 469.160156 L 1167.152344 463.882812 L 1164.84375 460.203125 L 1162.925781 456.761719 L 1161.105469 452.398438 L 1159.054688 446.707031 L 1156.421875 439.488281 L 1153.023438 430.804688 L 1149.34375 421.832031 L 1146.03125 414.023438 L 1143.574219 408.429688 L 1141.804688 404.503906 L 1140.398438 401.292969 L 1139.03125 397.847656 L 1137.472656 393.5 L 1135.886719 388.675781 L 1134.53125 384.078125 L 1133.523438 380.113281 L 1132.40625 375.988281 L 1130.582031 370.605469 L 1127.695312 363.335938 L 1124.371094 355.429688 L 1121.484375 348.609375 L 1119.464844 344.085938 L 1116.988281 341.027344 L 1112.277344 338.101562 L 1104.25 334.265625 L 1094.5625 329.667969 L 1085.542969 324.761719 L 1078.851562 319.867188 L 1073.445312 314.824219 L 1067.582031 309.355469 L 1060.164062 303.355469 L 1052.539062 297.453125 L 1046.695312 292.46875 L 1043.910156 288.9375 L 1042.675781 286.300781 L 1040.78125 283.722656 L 1036.125 280.574219 L 1026.96875 277.019531 L 1011.683594 273.425781 L 988.632812 270.15625 L 986.324219 272.433594 "/>
</g>
</svg>
