<?xml version="1.0" encoding="UTF-8"?>
<svg xmlns="http://www.w3.org/2000/svg" xmlns:xlink="http://www.w3.org/1999/xlink" width="1428pt" height="1605pt" viewBox="0 0 1428 1605" version="1.1">
<g id="surface329">
<rect x="0" y="0" width="1428" height="1605" style="fill:rgb(100%,100%,100%);fill-opacity:1;stroke:none;"/>
<path style="fill:none;stroke-width:0.75;stroke-linecap:round;stroke-linejoin:round;stroke:rgb(0%,0%,0%);stroke-opacity:1;stroke-miterlimit:10;" d="M 694.105469 140.496094 L 691.894531 143.871094 L 690.058594 147.007812 L 687.941406 150.109375 L 684.886719 153.394531 L 680.234375 157.058594 L 673.605469 161.253906 L 665.699219 165.847656 L 657.492188 170.648438 L 649.964844 175.46875 L 644.09375 180.109375 L 640.554688 184.4375 L 638.835938 188.542969 L 638.121094 192.558594 L 637.59375 196.636719 L 636.441406 200.914062 L 634.066406 205.484375 L 630.765625 210.238281 L 627.039062 215.011719 L 623.402344 219.640625 L 620.359375 223.964844 L 618.269531 227.882812 L 616.914062 231.527344 L 615.917969 235.089844 L 614.910156 238.769531 L 613.523438 242.753906 L 611.382812 247.242188 L 608.28125 252.289062 L 604.675781 257.40625 L 601.1875 261.976562 L 598.433594 265.371094 L 597.039062 266.96875 L 597.230469 266.347656 L 597.671875 263.886719 L 596.644531 260.160156 L 592.425781 255.75 L 583.285156 251.234375 L 568.171875 247.136719 L 548.703125 243.789062 L 527.167969 241.472656 L 505.855469 240.457031 L 487.054688 241.027344 L 472.542969 243.328125 L 462.0625 246.972656 L 454.839844 251.457031 L 450.105469 256.265625 L 447.089844 260.878906 L 445.019531 264.792969 L 443.242188 267.664062 L 441.535156 269.859375 L 439.785156 271.90625 L 437.886719 274.351562 L 435.730469 277.722656 L 433.242188 282.425781 L 430.5 288.3125 L 427.617188 295.101562 L 424.703125 302.515625 L 421.878906 310.265625 L 419.246094 318.097656 L 416.902344 325.824219 L 414.941406 333.289062 L 413.445312 340.335938 L 412.511719 346.796875 L 412.1875 352.585938 L 412.398438 357.890625 L 413.023438 362.960938 L 413.953125 368.058594 L 415.070312 373.4375 L 416.257812 379.351562 L 417.492188 386 L 419.109375 393.339844 L 421.550781 401.273438 L 425.242188 409.699219 L 430.613281 418.519531 L 437.566406 427.535156 L 443.886719 436.117188 L 446.828125 443.554688 L 443.644531 449.121094 L 431.585938 452.09375 L 409.054688 452.070312 L 379.023438 449.929688 L 345.609375 446.875 L 312.933594 444.097656 L 285.117188 442.796875 L 265.28125 443.863281 L 252.585938 446.945312 L 245.191406 451.371094 L 241.257812 456.484375 L 238.945312 461.621094 L 236.417969 466.113281 L 232.226562 469.496094 L 226.507812 472.109375 L 219.773438 474.484375 L 212.546875 477.152344 L 205.355469 480.648438 L 198.621094 485.355469 L 192.375 491.042969 L 186.558594 497.332031 L 181.113281 503.847656 L 175.972656 510.210938 L 171.089844 516.144531 L 166.4375 521.78125 L 162.015625 527.355469 L 157.804688 533.105469 L 153.796875 539.269531 L 149.980469 546.015625 L 146.339844 553.265625 L 142.851562 560.878906 L 139.503906 568.71875 L 136.277344 576.632812 L 133.148438 584.488281 L 130.09375 592.140625 L 127.066406 599.480469 L 124.003906 606.386719 L 120.851562 612.75 L 117.546875 618.460938 L 114.074219 623.480469 L 110.582031 628.09375 L 107.253906 632.671875 L 104.269531 637.574219 L 101.824219 643.171875 L 100.011719 649.710938 L 98.601562 656.988281 L 97.28125 664.695312 L 95.734375 672.511719 L 93.648438 680.125 L 90.820312 687.277344 L 87.523438 693.949219 L 84.152344 700.179688 L 81.09375 706.007812 L 78.742188 711.480469 L 77.371094 716.636719 L 76.800781 721.554688 L 76.726562 726.320312 L 76.855469 731.011719 L 76.890625 735.71875 L 76.53125 740.523438 L 75.558594 745.492188 L 74.046875 750.628906 L 72.152344 755.921875 L 70.027344 761.359375 L 67.828125 766.933594 L 65.6875 772.59375 L 63.675781 778.136719 L 61.84375 783.320312 L 60.238281 787.902344 L 58.914062 791.640625 L 57.894531 794.46875 L 57.078125 797.011719 L 56.34375 800.0625 L 55.566406 804.421875 L 54.621094 810.886719 L 53.425781 820.003906 L 52.046875 831.328125 L 50.601562 844.152344 L 49.203125 857.78125 L 47.957031 871.515625 L 46.980469 884.660156 L 46.363281 896.625 L 46.105469 907.296875 L 46.195312 916.679688 L 46.605469 924.765625 L 47.324219 931.5625 L 48.304688 937.125 L 49.425781 941.75 L 50.542969 945.796875 L 51.507812 949.613281 L 52.167969 953.5625 L 52.449219 957.902344 L 52.515625 962.53125 L 52.601562 967.253906 L 52.945312 971.878906 L 53.773438 976.203125 L 55.242188 980.109375 L 57.199219 983.785156 L 59.410156 987.484375 L 61.632812 991.46875 L 63.640625 995.992188 L 65.195312 1001.316406 L 66.144531 1007.589844 L 66.667969 1014.535156 L 67.03125 1021.765625 L 67.496094 1028.898438 L 68.320312 1035.539062 L 69.699219 1041.398438 L 71.503906 1046.542969 L 73.546875 1051.125 L 75.628906 1055.308594 L 77.554688 1059.246094 L 79.1875 1063.070312 L 80.589844 1066.820312 L 81.878906 1070.511719 L 83.183594 1074.152344 L 84.617188 1077.761719 L 86.28125 1081.355469 L 88.191406 1084.996094 L 90.355469 1088.753906 L 92.765625 1092.691406 L 95.421875 1096.875 L 98.324219 1101.378906 L 101.480469 1106.238281 L 104.921875 1111.394531 L 108.6875 1116.742188 L 112.828125 1122.199219 L 117.371094 1127.671875 L 122.324219 1133.082031 L 127.488281 1138.457031 L 132.636719 1143.84375 L 137.527344 1149.28125 L 141.929688 1154.820312 L 145.707031 1160.488281 L 149.113281 1166.277344 L 152.492188 1172.15625 L 156.195312 1178.101562 L 160.574219 1184.085938 L 165.835938 1190.066406 L 171.597656 1195.902344 L 177.34375 1201.429688 L 182.554688 1206.488281 L 186.710938 1210.917969 L 189.289062 1214.558594 L 190.007812 1217.328125 L 189.527344 1219.5 L 188.746094 1221.414062 L 188.554688 1223.425781 L 189.863281 1225.878906 L 193.265625 1229.03125 L 198.207031 1232.757812 L 203.839844 1236.851562 L 209.3125 1241.097656 L 213.773438 1245.28125 L 216.609375 1249.234375 L 218.113281 1252.972656 L 218.832031 1256.566406 L 219.296875 1260.078125 L 220.042969 1263.574219 L 221.5 1267.105469 L 223.660156 1270.710938 L 226.417969 1274.414062 L 229.652344 1278.234375 L 233.253906 1282.199219 L 237.132812 1286.324219 L 241.242188 1290.570312 L 245.574219 1294.898438 L 250.105469 1299.257812 L 254.8125 1303.609375 L 259.683594 1307.90625 L 264.671875 1312.128906 L 269.632812 1316.367188 L 274.398438 1320.738281 L 278.804688 1325.355469 L 282.679688 1330.332031 L 285.925781 1335.722656 L 288.710938 1341.328125 L 291.269531 1346.894531 L 293.84375 1352.160156 L 296.664062 1356.863281 L 299.953125 1360.832031 L 303.855469 1364.246094 L 308.507812 1367.359375 L 314.039062 1370.4375 L 320.578125 1373.738281 L 328.214844 1377.453125 L 336.886719 1381.46875 L 346.488281 1385.613281 L 356.910156 1389.699219 L 368.046875 1393.546875 L 379.789062 1396.980469 L 392.078125 1399.824219 L 405.035156 1401.914062 L 418.824219 1403.105469 L 433.605469 1403.234375 L 449.542969 1402.15625 L 466.628906 1399.8125 L 484.144531 1396.570312 L 501.191406 1392.890625 L 516.882812 1389.234375 L 530.320312 1386.070312 L 540.871094 1383.738281 L 548.933594 1382.078125 L 555.164062 1380.804688 L 560.214844 1379.644531 L 564.75 1378.308594 L 569.332031 1376.570312 L 574.1875 1374.375 L 579.453125 1371.730469 L 585.265625 1368.636719 L 591.757812 1365.097656 L 599.070312 1361.113281 L 607.230469 1356.703125 L 615.839844 1351.984375 L 624.394531 1347.085938 L 632.382812 1342.140625 L 639.308594 1337.28125 L 644.855469 1332.664062 L 649.503906 1328.507812 L 653.929688 1325.054688 L 658.808594 1322.554688 L 664.816406 1321.246094 L 672.472656 1321.242188 L 681.675781 1322.125 L 692.179688 1323.34375 L 703.730469 1324.347656 L 716.074219 1324.589844 L 728.933594 1323.652344 L 741.933594 1321.652344 L 754.664062 1318.839844 L 766.730469 1315.464844 L 777.71875 1311.78125 L 787.234375 1308.039062 L 795.027344 1304.4375 L 801.480469 1300.980469 L 807.132812 1297.628906 L 812.53125 1294.332031 L 818.210938 1291.050781 L 824.578125 1287.738281 L 831.457031 1284.378906 L 838.539062 1280.949219 L 845.515625 1277.433594 L 852.074219 1273.8125 L 857.996094 1270.058594 L 863.449219 1266.109375 L 868.679688 1261.890625 L 873.945312 1257.328125 L 879.5 1252.351562 L 885.507812 1246.929688 L 891.800781 1241.230469 L 898.105469 1235.464844 L 904.164062 1229.839844 L 909.710938 1224.5625 L 914.484375 1219.851562 L 918.308594 1215.839844 L 921.378906 1212.390625 L 923.976562 1209.296875 L 926.390625 1206.351562 L 928.902344 1203.34375 L 931.738281 1200.101562 L 934.90625 1196.578125 L 938.351562 1192.761719 L 942.023438 1188.640625 L 945.871094 1184.207031 L 949.820312 1179.476562 L 953.753906 1174.59375 L 957.53125 1169.738281 L 961.007812 1165.085938 L 964.046875 1160.808594 L 966.5625 1157.03125 L 968.699219 1153.648438 L 970.652344 1150.503906 L 972.621094 1147.441406 L 974.796875 1144.304688 L 977.324219 1140.953125 L 980.109375 1137.359375 L 983.007812 1133.5 L 985.871094 1129.363281 L 988.546875 1124.933594 L 990.894531 1120.203125 L 992.8125 1115.140625 L 994.414062 1109.707031 L 995.875 1103.832031 L 997.351562 1097.464844 L 999.015625 1090.546875 L 1000.972656 1083.09375 L 1003.117188 1075.402344 L 1005.269531 1067.847656 L 1007.265625 1060.804688 L 1008.9375 1054.652344 L 1010.171875 1049.632812 L 1011.125 1045.507812 L 1012.007812 1041.917969 L 1013.039062 1038.492188 L 1014.429688 1034.867188 L 1016.328125 1030.742188 L 1018.597656 1026.046875 L 1021.039062 1020.78125 L 1023.453125 1014.9375 L 1025.632812 1008.511719 L 1027.382812 1001.496094 L 1028.570312 993.867188 L 1029.328125 985.515625 L 1029.871094 976.316406 L 1030.410156 966.144531 L 1031.148438 954.871094 L 1032.242188 942.464844 L 1033.632812 929.296875 L 1035.199219 915.828125 L 1036.828125 902.527344 L 1038.398438 889.863281 L 1039.8125 878.160156 L 1041.019531 867.191406 L 1042 856.601562 L 1042.722656 846.023438 L 1043.152344 835.097656 L 1043.28125 823.585938 L 1043.148438 811.765625 L 1042.804688 800.023438 L 1042.308594 788.761719 L 1041.714844 778.367188 L 1041.078125 769.246094 L 1040.496094 761.734375 L 1040.25 755.945312 L 1040.675781 751.945312 L 1042.097656 749.792969 L 1044.839844 749.554688 L 1049.101562 751.195312 L 1054.507812 754.320312 L 1060.554688 758.4375 L 1066.742188 763.0625 L 1072.5625 767.703125 L 1077.640625 771.953125 L 1082.128906 775.730469 L 1086.316406 779.042969 L 1090.488281 781.886719 L 1094.921875 784.269531 L 1099.820312 786.214844 L 1105.007812 787.851562 L 1110.21875 789.328125 L 1115.191406 790.796875 L 1119.660156 792.402344 L 1123.363281 794.296875 L 1126.09375 796.640625 L 1127.871094 799.625 L 1128.78125 803.460938 L 1128.898438 808.34375 L 1128.304688 814.484375 L 1127.15625 821.984375 L 1125.917969 830.523438 L 1125.128906 839.691406 L 1125.328125 849.074219 L 1127.054688 858.25 L 1130.601562 866.863281 L 1135.238281 874.773438 L 1139.988281 881.902344 L 1143.875 888.164062 L 1145.925781 893.476562 L 1145.542969 897.8125 L 1143.691406 901.359375 L 1141.714844 904.367188 L 1140.964844 907.074219 L 1142.78125 909.726562 L 1148.519531 912.570312 L 1158.929688 915.769531 L 1172.425781 919.207031 L 1186.824219 922.6875 L 1199.945312 926.015625 L 1209.609375 928.996094 L 1214.269531 931.484375 L 1214.917969 933.5625 L 1213.179688 935.363281 L 1210.671875 937.019531 L 1209.027344 938.660156 L 1209.472656 940.425781 L 1211.6875 942.46875 L 1214.941406 944.949219 L 1218.527344 948.023438 L 1221.71875 951.851562 L 1224 956.511719 L 1225.640625 961.769531 L 1227.113281 967.3125 L 1228.890625 972.824219 L 1231.441406 977.988281 L 1235.164062 982.554688 L 1240.105469 986.5 L 1246.25 989.871094 L 1253.574219 992.710938 L 1262.046875 995.0625 L 1271.652344 996.960938 L 1282.238281 998.433594 L 1293.144531 999.40625 L 1303.585938 999.785156 L 1312.785156 999.476562 L 1319.949219 998.382812 L 1324.539062 996.394531 L 1326.941406 993.359375 L 1327.789062 989.097656 L 1327.710938 983.4375 L 1327.339844 976.203125 L 1327.179688 967.386719 L 1327.285156 957.613281 L 1327.578125 947.660156 L 1327.992188 938.3125 L 1328.449219 930.359375 L 1328.910156 924.355469 L 1329.429688 919.960938 L 1330.101562 916.601562 L 1331.015625 913.714844 L 1332.253906 910.726562 L 1333.910156 907.074219 L 1336.011719 902.324219 L 1338.339844 896.609375 L 1340.605469 890.207031 L 1342.539062 883.378906 L 1343.851562 876.40625 L 1344.328125 869.492188 L 1343.984375 862.613281 L 1342.90625 855.664062 L 1341.175781 848.554688 L 1338.878906 841.195312 L 1336.117188 833.515625 L 1333.097656 825.585938 L 1330.042969 817.503906 L 1327.179688 809.371094 L 1324.738281 801.285156 L 1322.882812 793.347656 L 1321.511719 785.667969 L 1320.472656 778.355469 L 1319.601562 771.527344 L 1318.742188 765.285156 L 1317.734375 759.746094 L 1316.464844 754.972656 L 1314.988281 750.832031 L 1313.40625 747.140625 L 1311.8125 743.722656 L 1310.3125 740.390625 L 1308.972656 737 L 1307.714844 733.539062 L 1306.441406 730.019531 L 1305.046875 726.460938 L 1303.425781 722.878906 L 1301.488281 719.300781 L 1299.21875 715.738281 L 1296.613281 712.210938 L 1293.671875 708.742188 L 1290.390625 705.355469 L 1286.777344 702.054688 L 1282.871094 698.792969 L 1278.714844 695.511719 L 1274.363281 692.15625 L 1269.863281 688.660156 L 1265.257812 684.972656 L 1260.59375 681.042969 L 1255.902344 676.878906 L 1251.207031 672.5 L 1246.535156 667.925781 L 1241.910156 663.175781 L 1237.40625 658.296875 L 1233.253906 653.429688 L 1229.734375 648.757812 L 1227.121094 644.449219 L 1225.695312 640.683594 L 1225.632812 637.519531 L 1226.691406 634.582031 L 1228.535156 631.375 L 1230.824219 627.414062 L 1233.210938 622.210938 L 1235.394531 615.40625 L 1237.195312 607.199219 L 1238.472656 597.929688 L 1239.082031 587.933594 L 1238.878906 577.546875 L 1237.71875 567.101562 L 1235.5 556.933594 L 1232.28125 547.363281 L 1228.160156 538.714844 L 1223.242188 531.304688 L 1217.621094 525.453125 L 1211.453125 521.3125 L 1205.148438 518.367188 L 1199.15625 515.941406 L 1193.9375 513.347656 L 1189.957031 509.90625 L 1187.503906 505.140625 L 1186.234375 499.394531 L 1185.636719 493.207031 L 1185.203125 487.125 L 1184.417969 481.699219 L 1182.90625 477.3125 L 1180.847656 473.765625 L 1178.546875 470.691406 L 1176.3125 467.726562 L 1174.453125 464.515625 L 1173.179688 460.765625 L 1172.292969 456.46875 L 1171.488281 451.695312 L 1170.46875 446.507812 L 1168.929688 440.972656 L 1166.566406 435.152344 L 1163.203125 429.085938 L 1159.140625 422.675781 L 1154.796875 415.789062 L 1150.589844 408.300781 L 1146.945312 400.082031 L 1144.140625 391.097656 L 1141.90625 381.699219 L 1139.828125 372.324219 L 1137.492188 363.425781 L 1134.492188 355.445312 L 1130.53125 348.707031 L 1125.785156 343.09375 L 1120.542969 338.359375 L 1115.097656 334.269531 L 1109.746094 330.585938 L 1104.71875 327.109375 L 1100.011719 323.820312 L 1095.554688 320.75 L 1091.285156 317.921875 L 1087.136719 315.363281 L 1083.046875 313.09375 L 1078.960938 311.09375 L 1074.882812 309.105469 L 1070.835938 306.828125 L 1066.832031 303.957031 L 1062.898438 300.1875 L 1059.015625 295.324219 L 1055.039062 289.617188 L 1050.796875 283.429688 L 1046.105469 277.121094 L 1040.792969 271.054688 L 1034.78125 265.539062 L 1028.375 260.695312 L 1021.980469 256.59375 L 1016.003906 253.304688 L 1010.855469 250.890625 L 1006.773438 249.417969 L 1003.34375 248.902344 L 999.988281 249.347656 L 996.121094 250.761719 L 991.167969 253.152344 L 984.546875 256.53125 L 975.941406 260.8125 L 966.105469 265.597656 L 956.058594 270.386719 L 946.820312 274.695312 L 939.402344 278.023438 L 934.503906 280.136719 L 931.515625 281.773438 L 929.496094 283.9375 L 927.519531 287.621094 L 924.652344 293.820312 L 920.222656 303.148438 L 914.652344 314.6875 L 908.625 327.132812 L 902.828125 339.183594 L 897.949219 349.539062 L 894.492188 357.144531 L 892.25 361.957031 L 890.832031 364.179688 L 889.851562 364.019531 L 888.921875 361.683594 L 887.65625 357.375 L 885.777344 351.378906 L 883.445312 344.300781 L 880.9375 336.832031 L 878.535156 329.660156 L 876.511719 323.472656 L 875.0625 318.753906 L 874.085938 315.1875 L 873.398438 312.238281 L 872.820312 309.394531 L 872.171875 306.125 L 871.289062 302 L 870.085938 296.972656 L 868.503906 291.085938 L 866.476562 284.375 L 863.941406 276.890625 L 860.871094 268.726562 L 857.386719 260.210938 L 853.652344 251.730469 L 849.832031 243.667969 L 846.078125 236.398438 L 842.5625 230.316406 L 839.421875 225.65625 L 836.75 222.109375 L 834.628906 219.214844 L 833.125 216.519531 L 832.320312 213.570312 L 832.152344 209.984375 L 832.011719 205.695312 L 831.15625 200.71875 L 828.839844 195.0625 L 824.316406 188.738281 L 817.199219 181.816406 L 808.519531 174.589844 L 799.660156 167.417969 L 792.011719 160.644531 L 786.957031 154.632812 L 785.066406 149.65625 L 783.636719 145.710938 L 779.152344 142.710938 L 768.09375 140.578125 L 746.9375 139.226562 L 712.171875 138.570312 L 694.105469 140.496094 "/>
<path style="fill:none;stroke-width:0.75;stroke-linecap:round;stroke-linejoin:round;stroke:rgb(0%,0%,0%);stroke-opacity:1;stroke-miterlimit:10;" d="M 279.410156 439.054688 L 271.308594 443.335938 L 259.09375 447.425781 L 252.507812 451.234375 L 250.167969 454.761719 L 247.902344 458.023438 L 242.613281 461.066406 L 235.46875 464.089844 L 228.714844 467.320312 L 223.878906 470.914062 L 219.609375 474.714844 L 213.851562 478.488281 L 205.511719 482.121094 L 197.398438 485.992188 L 192.253906 490.527344 L 188.65625 495.910156 L 184.160156 502.25 L 177.117188 509.488281 L 169.167969 516.894531 L 162.753906 523.5625 L 159.546875 528.910156 L 158.097656 533.660156 L 156.175781 538.855469 L 152.195312 545.269531 L 147.132812 552.5625 L 142.363281 560.222656 L 138.300781 568.140625 L 135.109375 576.304688 L 132.796875 584.640625 L 130.734375 592.804688 L 128.132812 600.398438 L 124.476562 607.097656 L 120.347656 612.941406 L 116.589844 618.050781 L 113.765625 622.628906 L 111.28125 627.175781 L 108.257812 632.273438 L 104.277344 638.261719 L 100.757812 644.546875 L 99.082031 650.53125 L 98.582031 656.5625 L 98.09375 663.21875 L 96.660156 670.890625 L 94.191406 679.207031 L 90.828125 687.613281 L 86.835938 695.5625 L 83.015625 702.582031 L 80.300781 708.210938 L 79.214844 712.253906 L 78.660156 715.605469 L 77.519531 719.269531 L 76.257812 723.597656 L 75.742188 728.777344 L 76.445312 734.867188 L 77.308594 741.359375 L 76.878906 747.605469 L 74.265625 753.101562 L 70.800781 757.933594 L 68.375 762.316406 L 68.0625 766.523438 L 67.683594 771.039062 L 65.0625 776.203125 L 61.3125 781.667969 L 58.367188 786.898438 L 57.589844 791.457031 L 58.09375 795.324219 L 58.433594 798.589844 L 57.53125 801.519531 L 55.820312 805.164062 L 54.117188 810.761719 L 52.992188 819.253906 L 52.0625 830.414062 L 50.710938 843.714844 L 48.652344 858.390625 L 46.9375 872.714844 L 46.578125 885.183594 L 47.050781 896.058594 L 47.460938 906.066406 L 47.179688 915.703125 L 46.625 924.570312 L 46.488281 932.042969 L 47.273438 937.710938 L 48.761719 942.027344 L 50.558594 945.652344 L 52.21875 949.214844 L 53.121094 953.222656 L 52.867188 957.972656 L 52.109375 963.089844 L 51.765625 968.007812 L 52.507812 972.3125 L 54.023438 976.109375 L 55.75 979.640625 L 57.296875 983.15625 L 58.960938 986.898438 L 61.199219 991.117188 L 64.109375 996.027344 L 66.308594 1001.730469 L 66.589844 1008.210938 L 65.878906 1015.164062 L 65.636719 1022.191406 L 66.90625 1028.953125 L 69.070312 1035.261719 L 71.085938 1040.976562 L 72.226562 1046.019531 L 73.007812 1050.574219 L 74.242188 1054.875 L 76.484375 1059.113281 L 79.175781 1063.304688 L 81.492188 1067.402344 L 82.875 1071.34375 L 83.882812 1074.960938 L 85.160156 1078.144531 L 86.605469 1081.125 L 87.949219 1084.214844 L 89.101562 1087.699219 L 90.742188 1091.734375 L 93.738281 1096.453125 L 98.535156 1101.851562 L 103.820312 1107.433594 L 107.855469 1112.570312 L 109.679688 1116.929688 L 111.398438 1121.375 L 115.257812 1126.757812 L 120.917969 1132.796875 L 127.398438 1138.902344 L 133.761719 1144.617188 L 139.230469 1149.972656 L 143.078125 1155.132812 L 145.039062 1160.261719 L 146.773438 1165.53125 L 150.398438 1171.128906 L 157.054688 1177.191406 L 163.964844 1183.6875 L 168.308594 1190.457031 L 171.125 1197.011719 L 174.40625 1202.796875 L 179.527344 1207.390625 L 185.375 1210.953125 L 190.222656 1213.804688 L 192.683594 1216.242188 L 192.722656 1218.527344 L 190.636719 1220.910156 L 187.261719 1223.597656 L 185.5625 1226.574219 L 189.042969 1229.761719 L 199.167969 1233.132812 L 209.242188 1236.789062 L 212.769531 1240.804688 L 212.136719 1245 L 211.957031 1249.140625 L 215.496094 1253.039062 L 220.59375 1256.726562 L 223.753906 1260.277344 L 222.6875 1263.761719 L 220.023438 1267.1875 L 219.621094 1270.542969 L 223.988281 1273.890625 L 230.289062 1277.566406 L 235.183594 1281.851562 L 238.734375 1286.523438 L 241.855469 1291.226562 L 245.3125 1295.679688 L 249.332031 1299.855469 L 253.984375 1303.800781 L 259.269531 1307.589844 L 264.847656 1311.453125 L 270.296875 1315.652344 L 275.1875 1320.363281 L 279.089844 1325.457031 L 281.820312 1330.75 L 284.226562 1336.15625 L 287.390625 1341.609375 L 291.960938 1347.007812 L 296.796875 1352.128906 L 300.296875 1356.699219 L 301.511719 1360.554688 L 302.039062 1363.925781 L 304.125 1367.140625 L 309.492188 1370.480469 L 317.824219 1374.015625 L 328.304688 1377.769531 L 339.996094 1381.722656 L 351.578125 1385.726562 L 361.914062 1389.617188 L 371.082031 1393.304688 L 379.449219 1396.738281 L 387.75 1399.792969 L 398.089844 1402.132812 L 412.933594 1403.351562 L 433.433594 1403.167969 L 455.46875 1401.753906 L 473.601562 1399.410156 L 484.839844 1396.414062 L 495.960938 1393.011719 L 513.460938 1389.476562 L 532.941406 1386.21875 L 547.269531 1383.6875 L 551.679688 1382.152344 L 550.847656 1381.1875 L 551.808594 1380.199219 L 559.566406 1378.6875 L 570.996094 1376.597656 L 580.949219 1373.980469 L 585.792969 1370.914062 L 588.046875 1367.601562 L 591.035156 1364.21875 L 595.160156 1360.652344 L 600.105469 1356.730469 L 605.390625 1352.339844 L 609.941406 1347.636719 L 612.515625 1342.828125 L 612.332031 1338.128906 L 610.398438 1333.707031 L 608.171875 1329.730469 L 606.769531 1326.308594 L 605.910156 1323.304688 L 604.972656 1320.527344 L 603.519531 1317.8125 L 601.867188 1315.121094 L 600.429688 1312.304688 L 599.171875 1308.691406 L 597.960938 1303.476562 L 596.679688 1295.796875 L 595.320312 1284.527344 L 593.902344 1268.488281 L 592.449219 1246.339844 L 591.058594 1216.109375 L 589.828125 1175.671875 L 588.761719 1123.566406 L 587.464844 1061.078125 L 585.667969 990.140625 L 583.929688 912.640625 L 583.03125 830.441406 L 583.429688 746.804688 L 584.339844 670.585938 L 584.660156 612.03125 L 583.617188 578.230469 L 581.792969 563.667969 L 580.085938 559.675781 L 579.113281 558.796875 L 578.316406 558.410156 L 576.9375 557.304688 L 574.542969 555.019531 L 570.800781 551.265625 L 565.601562 545.949219 L 559.75 539.6875 L 554.285156 533.269531 L 549.984375 527.382812 L 546.601562 522.246094 L 543.636719 517.972656 L 540.65625 514.617188 L 537.527344 512.066406 L 534.175781 510.144531 L 530.578125 508.691406 L 526.875 507.519531 L 523.148438 506.480469 L 519.128906 505.582031 L 514.457031 504.859375 L 508.925781 504.257812 L 502.929688 503.320312 L 497.027344 501.488281 L 491.773438 498.378906 L 487.730469 494.308594 L 485.464844 489.765625 L 485.050781 485.207031 L 484.542969 480.984375 L 482.128906 477.347656 L 478.480469 474.335938 L 474.898438 471.921875 L 472.289062 470.046875 L 469.984375 468.550781 L 466.9375 467.253906 L 462.5 466.015625 L 457.644531 464.882812 L 453.75 463.953125 L 451.570312 463.289062 L 449.351562 462.765625 L 445.453125 462.238281 L 441.230469 461.582031 L 438.773438 460.679688 L 439.199219 459.433594 L 439.734375 457.816406 L 436.632812 455.824219 L 427.730469 453.449219 L 417.222656 450.6875 L 410.882812 447.523438 L 407.417969 443.984375 L 377.210938 440.253906 L 283.566406 436.558594 L 279.410156 439.054688 "/>
<path style="fill:none;stroke-width:0.75;stroke-linecap:round;stroke-linejoin:round;stroke:rgb(0%,0%,0%);stroke-opacity:1;stroke-miterlimit:10;" d="M 482.902344 237.179688 L 474.789062 242.148438 L 467.574219 245.507812 L 462.6875 248.351562 L 459.824219 252.046875 L 457.175781 257.015625 L 450.820312 261.039062 L 443.269531 264.007812 L 438.507812 266.769531 L 437.972656 270.382812 L 439.128906 273.6875 L 439.566406 276.207031 L 437.753906 278.054688 L 434.503906 280.414062 L 430.875 284.867188 L 427.367188 292.597656 L 423.484375 302.671875 L 420.867188 312.601562 L 419.039062 320.988281 L 417.058594 327.453125 L 415.164062 333.578125 L 414.402344 338.980469 L 414.863281 343.140625 L 413.324219 348.265625 L 410.234375 357.878906 L 409.019531 368.214844 L 412.230469 374.566406 L 417.175781 376.976562 L 420.21875 378.5625 L 418.746094 382.414062 L 415.410156 389.3125 L 417.933594 398.332031 L 426.199219 406.257812 L 436.441406 411.359375 L 442.226562 418.273438 L 445.578125 426.929688 L 449.964844 435.113281 L 455.054688 440.136719 L 460.1875 443.765625 L 464.460938 446.335938 L 467.34375 447.777344 L 469.867188 449 L 472.238281 450.242188 L 474.433594 451.539062 L 477.074219 453.011719 L 482.460938 454.539062 L 494.78125 455.566406 L 515.960938 455.566406 L 538.5625 454.539062 L 557.71875 453.015625 L 570.464844 451.535156 L 577.058594 450.230469 L 581.246094 448.976562 L 584.621094 447.757812 L 587.941406 446.425781 L 591.480469 444.242188 L 594.625 440.761719 L 596.808594 435.679688 L 598.136719 428.804688 L 597.964844 420.058594 L 596.796875 410.058594 L 595.367188 399.582031 L 593.808594 388.308594 L 592.242188 371.804688 L 591.203125 344.78125 L 591.246094 309.382812 L 592.453125 289.054688 L 594.230469 281.496094 L 595.464844 276.980469 L 594.214844 270.777344 L 590.746094 265.074219 L 586.5 261.902344 L 584.007812 257.609375 L 582.046875 251.480469 L 577.398438 245.660156 L 565.132812 241.765625 L 537.011719 238.238281 L 493.335938 235.351562 L 482.902344 237.179688 "/>
<path style="fill:none;stroke-width:0.75;stroke-linecap:round;stroke-linejoin:round;stroke:rgb(0%,0%,0%);stroke-opacity:1;stroke-miterlimit:10;" d="M 510.019531 489.878906 L 504.652344 494.648438 L 512.703125 498.839844 L 515.386719 501.863281 L 518.070312 503.855469 L 523.441406 505.191406 L 526.125 506.394531 L 531.492188 507.9375 L 534.175781 510.421875 L 536.859375 514.316406 L 550.277344 519.652344 L 550.277344 525.570312 L 555.648438 531.894531 L 555.648438 538.777344 L 571.75 546 L 571.75 552.386719 L 577.117188 557.574219 L 577.117188 561.625 L 579.800781 564.757812 L 579.800781 567.007812 L 582.488281 568.023438 L 585.171875 567.285156 L 587.855469 564.566406 L 587.855469 560.25 L 590.539062 555.136719 L 590.539062 549.660156 L 587.855469 544.109375 L 587.855469 538.320312 L 601.273438 532.402344 L 598.589844 527.261719 L 598.589844 523.035156 L 595.90625 519.355469 L 595.90625 515.949219 L 598.589844 512.851562 L 598.589844 510.011719 L 595.90625 507.28125 L 595.90625 504.476562 L 598.589844 501.421875 L 598.589844 497.984375 L 603.957031 494.246094 L 598.589844 490.597656 L 510.019531 487.269531 L 510.019531 489.878906 "/>
<path style="fill:none;stroke-width:0.75;stroke-linecap:round;stroke-linejoin:round;stroke:rgb(0%,0%,0%);stroke-opacity:1;stroke-miterlimit:10;" d="M 672.171875 543.410156 L 672.171875 544.359375 L 662.03125 545.132812 L 647.105469 545.492188 L 631.984375 545.339844 L 618.179688 545.113281 L 606.4375 545.402344 L 597.492188 546.78125 L 591.800781 550.546875 L 588.675781 560.84375 L 587.148438 582.527344 L 586.238281 620.460938 L 585.203125 677.574219 L 584.183594 749.121094 L 583.550781 828.429688 L 583.667969 908.820312 L 584.773438 984.515625 L 586.5625 1053.324219 L 588.585938 1113.941406 L 590.414062 1165.058594 L 591.726562 1205.820312 L 592.71875 1237.128906 L 593.710938 1260.328125 L 594.949219 1276.792969 L 596.386719 1287.996094 L 597.90625 1295.429688 L 599.386719 1300.597656 L 600.746094 1304.78125 L 602.011719 1308.417969 L 603.253906 1311.726562 L 604.535156 1314.929688 L 605.902344 1318.207031 L 607.316406 1321.582031 L 608.722656 1325.019531 L 610.070312 1328.5 L 611.332031 1331.984375 L 612.609375 1335.367188 L 614.03125 1338.539062 L 615.734375 1341.386719 L 617.859375 1343.75 L 620.605469 1345.292969 L 624.183594 1345.640625 L 628.796875 1344.40625 L 634.46875 1341.421875 L 640.445312 1337.304688 L 645.78125 1332.886719 L 649.875 1328.886719 L 653.472656 1325.597656 L 657.675781 1323.207031 L 663.570312 1321.902344 L 671.929688 1321.753906 L 682.253906 1322.371094 L 693.726562 1323.25 L 705.535156 1323.886719 L 717.050781 1323.855469 L 728.429688 1323.046875 L 740.019531 1321.449219 L 752.171875 1319.039062 L 764.988281 1315.84375 L 777.59375 1312.125 L 788.855469 1308.191406 L 797.652344 1304.351562 L 803.355469 1300.835938 L 807.304688 1297.554688 L 811.351562 1294.34375 L 816.925781 1291.0625 L 823.800781 1287.710938 L 831.347656 1284.304688 L 838.933594 1280.878906 L 846.023438 1277.4375 L 852.5 1273.914062 L 858.347656 1270.226562 L 863.550781 1266.296875 L 868.195312 1262.046875 L 872.78125 1257.421875 L 877.910156 1252.382812 L 884.179688 1246.875 L 891.886719 1240.933594 L 900.085938 1234.878906 L 907.527344 1229.125 L 912.960938 1224.066406 L 915.601562 1219.972656 L 916.539062 1216.582031 L 917.320312 1213.496094 L 919.507812 1210.316406 L 924.101562 1206.761719 L 929.894531 1202.984375 L 935.140625 1199.253906 L 938.535156 1195.75 L 940.574219 1192.300781 L 942.199219 1188.644531 L 944.355469 1184.523438 L 947.738281 1179.777344 L 952.019531 1174.671875 L 956.613281 1169.578125 L 960.941406 1164.855469 L 964.546875 1160.78125 L 967.445312 1157.238281 L 969.773438 1154.007812 L 971.671875 1150.882812 L 973.300781 1147.679688 L 974.894531 1144.332031 L 976.699219 1140.808594 L 978.96875 1137.078125 L 981.851562 1133.121094 L 985.101562 1128.957031 L 988.367188 1124.617188 L 991.292969 1120.140625 L 993.613281 1115.488281 L 995.386719 1110.386719 L 996.75 1104.492188 L 997.867188 1097.589844 L 998.953125 1090.003906 L 1000.246094 1082.179688 L 1001.984375 1074.570312 L 1004.292969 1067.550781 L 1006.859375 1061.191406 L 1009.261719 1055.496094 L 1011.078125 1050.464844 L 1012.035156 1046.058594 L 1012.492188 1042.074219 L 1012.953125 1038.273438 L 1013.929688 1034.421875 L 1015.785156 1030.304688 L 1018.277344 1025.796875 L 1021.023438 1020.792969 L 1023.632812 1015.199219 L 1025.792969 1008.914062 L 1027.449219 1001.855469 L 1028.636719 993.949219 L 1029.402344 985.144531 L 1029.925781 975.480469 L 1030.425781 965.042969 L 1031.109375 953.898438 L 1032.144531 942.132812 L 1033.484375 929.847656 L 1035.042969 917.160156 L 1036.730469 904.179688 L 1038.449219 891.085938 L 1040.054688 878.292969 L 1041.410156 866.285156 L 1042.367188 855.539062 L 1042.808594 846.277344 L 1042.742188 837.695312 L 1042.207031 828.734375 L 1041.238281 818.332031 L 1039.898438 805.820312 L 1038.328125 792.117188 L 1036.691406 778.523438 L 1035.15625 766.347656 L 1033.835938 756.566406 L 1032.648438 748.824219 L 1031.457031 742.433594 L 1030.160156 736.820312 L 1028.777344 731.886719 L 1027.359375 727.636719 L 1025.957031 724.089844 L 1024.605469 721.207031 L 1023.292969 718.738281 L 1021.992188 716.382812 L 1020.679688 713.839844 L 1019.328125 710.875 L 1017.960938 707.511719 L 1016.589844 703.855469 L 1015.238281 699.988281 L 1013.921875 696.003906 L 1012.617188 691.953125 L 1011.300781 687.875 L 1009.945312 683.8125 L 1008.539062 679.800781 L 1007.128906 675.824219 L 1005.769531 671.863281 L 1004.5 667.882812 L 1003.28125 663.777344 L 1002.046875 659.429688 L 1000.734375 654.722656 L 999.296875 649.578125 L 997.753906 644.070312 L 996.148438 638.320312 L 994.523438 632.441406 L 992.8125 626.496094 L 990.515625 620.359375 L 987.042969 613.855469 L 981.785156 606.800781 L 974.433594 599.160156 L 965.84375 591.425781 L 957.164062 584.226562 L 949.535156 578.195312 L 943.703125 573.789062 L 938.800781 570.78125 L 933.558594 568.777344 L 926.695312 567.367188 L 917.4375 566.210938 L 906.953125 565.15625 L 896.894531 564.105469 L 888.601562 562.964844 L 882.125 561.722656 L 877.179688 560.363281 L 873.496094 558.878906 L 870.71875 557.289062 L 868.183594 555.683594 L 865.148438 554.183594 L 860.867188 552.898438 L 854.90625 551.984375 L 848.054688 551.683594 L 841.402344 552.277344 L 836.042969 554.050781 L 832.828125 557.136719 L 831.617188 561.113281 L 832.027344 565.414062 L 833.683594 569.472656 L 836.140625 572.847656 L 838.699219 575.625 L 840.605469 578.003906 L 841.097656 580.191406 L 839.679688 582.382812 L 836.886719 584.707031 L 833.511719 587.292969 L 830.226562 590.265625 L 827.234375 593.765625 L 824.625 597.953125 L 822.472656 602.980469 L 820.867188 608.898438 L 819.886719 615.382812 L 819.609375 621.996094 L 820.117188 628.320312 L 821.308594 634.007812 L 822.394531 639.03125 L 822.40625 643.453125 L 820.375 647.324219 L 815.828125 650.734375 L 810.25 653.863281 L 805.632812 656.921875 L 803.953125 660.121094 L 806.398438 663.636719 L 810.953125 667.515625 L 814.792969 671.769531 L 815.792969 676.351562 L 814.570312 680.960938 L 812.445312 685.226562 L 810.722656 688.792969 L 810.433594 691.414062 L 811.472656 693.367188 L 813.441406 695.050781 L 815.953125 696.871094 L 818.582031 699.148438 L 820.742188 701.898438 L 821.8125 705.054688 L 821.179688 708.5625 L 818.554688 712.332031 L 815.003906 716.203125 L 811.921875 719.992188 L 810.699219 723.519531 L 812.398438 726.667969 L 816.699219 729.589844 L 822.949219 732.511719 L 830.496094 735.652344 L 838.570312 739.171875 L 845.957031 742.980469 L 851.328125 746.9375 L 853.757812 750.921875 L 853.964844 754.925781 L 853.070312 758.972656 L 852.199219 763.082031 L 852.183594 767.246094 L 852.714844 771.316406 L 853.199219 775.113281 L 853.039062 778.457031 L 851.78125 781.230469 L 849.515625 783.613281 L 846.476562 785.84375 L 842.894531 788.160156 L 839.003906 790.742188 L 835.050781 793.511719 L 831.28125 796.335938 L 827.9375 799.070312 L 824.890625 801.648438 L 820.453125 804.257812 L 812.558594 807.152344 L 800.207031 810.496094 L 786.679688 814.121094 L 776.304688 817.773438 L 773.429688 821.1875 L 780.660156 824.183594 L 793.699219 826.875 L 806.515625 829.441406 L 813.074219 832.070312 L 809.175781 834.933594 L 797.910156 838.179688 L 784.203125 841.949219 L 772.972656 846.378906 L 767.851562 851.511719 L 767.3125 857.015625 L 768.535156 862.472656 L 768.710938 867.449219 L 765.855469 871.632812 L 761.355469 875.121094 L 757.425781 878.125 L 756.292969 880.851562 L 759.226562 883.460938 L 763.722656 885.914062 L 766.328125 888.132812 L 764.613281 890.074219 L 760.1875 891.886719 L 755.679688 893.761719 L 753.726562 895.894531 L 756.195312 898.433594 L 761.941406 901.375 L 769.074219 904.671875 L 775.6875 908.28125 L 780.355469 912.132812 L 783.492188 916.039062 L 785.984375 919.792969 L 788.71875 923.183594 L 792.15625 926.074219 L 795.019531 928.628906 L 795.621094 931.082031 L 792.253906 933.675781 L 784.039062 936.628906 L 773.367188 940.140625 L 763.441406 944.394531 L 757.460938 949.578125 L 757.40625 955.785156 L 760.328125 962.726562 L 762.046875 970.015625 L 759.449219 977.234375 L 753.671875 983.777344 L 746.910156 988.992188 L 741.371094 992.238281 L 738.707031 993.074219 L 738.429688 991.933594 L 739.511719 989.460938 L 740.925781 986.296875 L 741.820312 982.972656 L 742.085938 979.550781 L 741.785156 975.976562 L 740.980469 972.199219 L 739.679688 968.183594 L 737.632812 963.972656 L 734.53125 959.628906 L 730.0625 955.21875 L 724.183594 950.753906 L 717.9375 946.019531 L 712.625 940.753906 L 709.3125 934.808594 L 708.089844 928.433594 L 708.800781 922 L 711.289062 915.871094 L 715.226562 910.355469 L 719.582031 905.554688 L 723.140625 901.519531 L 724.699219 898.292969 L 723.433594 895.851562 L 720.046875 893.882812 L 715.636719 892.003906 L 711.296875 889.835938 L 707.875 887.0625 L 705.269531 883.632812 L 703.128906 879.558594 L 701.105469 874.859375 L 698.949219 869.558594 L 696.757812 863.707031 L 694.738281 857.375 L 693.085938 850.621094 L 691.953125 843.527344 L 691.316406 836.214844 L 691.109375 828.824219 L 691.296875 821.496094 L 692.035156 814.367188 L 693.507812 807.578125 L 695.902344 801.265625 L 699.214844 795.503906 L 702.632812 790.125 L 705.152344 784.90625 L 705.765625 779.613281 L 703.902344 774.078125 L 700.730469 768.371094 L 697.847656 762.617188 L 696.863281 756.949219 L 698.769531 751.410156 L 702.148438 745.75 L 704.984375 739.621094 L 705.25 732.695312 L 701.578125 724.824219 L 695.230469 716.625 L 688.121094 708.902344 L 681.910156 702.253906 L 677.269531 696.40625 L 674.613281 690.875 L 674.355469 685.175781 L 676.789062 678.972656 L 681.699219 672.523438 L 688.738281 666.242188 L 697.5625 660.535156 L 707.570312 655.695312 L 717.074219 651.507812 L 724.128906 647.636719 L 726.789062 643.746094 L 723.96875 639.585938 L 718.019531 635.265625 L 712.160156 630.96875 L 709.597656 626.886719 L 712.351562 623.179688 L 717.621094 619.894531 L 721.417969 617.035156 L 719.742188 614.621094 L 710.433594 612.625 L 698.683594 610.871094 L 691.515625 609.140625 L 694.03125 607.226562 L 703.632812 604.90625 L 715.792969 601.960938 L 725.992188 598.183594 L 730.5625 593.453125 L 729.289062 588.101562 L 722.808594 582.554688 L 711.753906 577.25 L 697.347656 572.539062 L 683.097656 568.449219 L 673.101562 564.941406 L 671.445312 561.957031 L 680.375 559.433594 L 694.738281 557.191406 L 707.539062 555.046875 L 711.777344 552.796875 L 703.054688 550.300781 L 687.363281 547.582031 L 673.296875 544.730469 L 669.449219 541.8125 L 672.171875 543.410156 "/>
<path style="fill:none;stroke-width:0.75;stroke-linecap:round;stroke-linejoin:round;stroke:rgb(0%,0%,0%);stroke-opacity:1;stroke-miterlimit:10;" d="M 694.480469 140.207031 L 691.257812 144.046875 L 689.234375 147.484375 L 687.972656 150.46875 L 686.050781 153.355469 L 681.8125 156.605469 L 674.226562 160.585938 L 664.777344 165.257812 L 655.597656 170.5 L 648.4375 176.074219 L 643.605469 181.328125 L 641.046875 185.515625 L 640.398438 188.3125 L 640.113281 191.085938 L 638.707031 195.226562 L 636.15625 200.433594 L 632.8125 205.992188 L 629.070312 211.285156 L 625.53125 216.085938 L 622.851562 220.273438 L 621.40625 223.816406 L 620.472656 227.109375 L 619.0625 230.625 L 616.484375 234.714844 L 613.316406 239.132812 L 610.445312 243.5 L 608.507812 247.5625 L 607.183594 251.570312 L 605.988281 255.828125 L 604.757812 260.324219 L 603.417969 264.972656 L 601.910156 269.59375 L 600.285156 273.625 L 598.597656 276.421875 L 596.914062 277.917969 L 595.257812 280.402344 L 593.65625 286.765625 L 592.195312 299.125 L 591.234375 316.550781 L 591.195312 337.351562 L 592.289062 359.375 L 593.871094 378.582031 L 595.257812 391.898438 L 596.496094 401.878906 L 597.804688 412.511719 L 599.324219 426.640625 L 600.855469 442.628906 L 602.128906 457.703125 L 603.015625 469.632812 L 603.996094 478.332031 L 605.691406 484.25 L 608.542969 487.914062 L 612.222656 490.105469 L 616.214844 491.679688 L 620.191406 493.292969 L 624.570312 494.753906 L 629.746094 495.839844 L 635.289062 496.945312 L 640.550781 498.628906 L 645.050781 501 L 648.972656 502.40625 L 652.664062 500.753906 L 656.308594 494.671875 L 659.421875 485.675781 L 661.355469 476.019531 L 661.847656 467.554688 L 662.164062 460.578125 L 663.957031 454.980469 L 668.527344 450.636719 L 675.753906 447.320312 L 684.695312 444.648438 L 692.527344 441.800781 L 695.96875 437.835938 L 692.769531 432.214844 L 684.839844 426.019531 L 675.128906 420.722656 L 666.292969 417.382812 L 659.808594 415.3125 L 656.847656 413.40625 L 657.933594 410.8125 L 660.957031 407.71875 L 663.152344 404.566406 L 662.617188 401.5625 L 660.855469 397.949219 L 659.679688 393.058594 L 658.757812 387.507812 L 657.195312 382.238281 L 654.496094 378.003906 L 651.644531 374.761719 L 650.011719 372.277344 L 650.550781 370.308594 L 652.558594 368.570312 L 654.910156 366.769531 L 656.617188 364.589844 L 657.179688 361.625 L 656.21875 357.445312 L 653.46875 351.640625 L 649.0625 343.855469 L 643.53125 334.074219 L 638.605469 323.539062 L 636.300781 313.800781 L 637.832031 306.085938 L 641.183594 300.332031 L 643.539062 296.140625 L 642.820312 293.089844 L 639.949219 290.675781 L 636.578125 288.359375 L 634.367188 285.746094 L 634.929688 282.988281 L 639.875 280.359375 L 649.320312 278.109375 L 657.390625 276.328125 L 658.632812 274.855469 L 655.246094 272.65625 L 651.328125 268.480469 L 650.078125 261.652344 L 651.046875 253.789062 L 652.863281 247.085938 L 654.394531 243.050781 L 655.367188 240.457031 L 655.738281 237.40625 L 655.558594 232.542969 L 655.238281 226.695312 L 655.273438 221.253906 L 656.148438 217.269531 L 658.277344 214.480469 L 661.835938 212.28125 L 666.191406 210.046875 L 670.492188 207.144531 L 674.359375 203.160156 L 679.238281 198.53125 L 687.042969 193.921875 L 699.074219 190.015625 L 714.238281 187.601562 L 730.824219 187.492188 L 747.148438 190.136719 L 761.617188 194.539062 L 772.652344 199.34375 L 779.335938 203.460938 L 783.390625 206.914062 L 786.839844 209.96875 L 790.25 212.785156 L 793.847656 215.5 L 797.628906 218.207031 L 800.761719 220.816406 L 802.195312 223.195312 L 801.238281 225.265625 L 798.628906 227.148438 L 795.460938 229.023438 L 792.859375 231.027344 L 792.09375 233.195312 L 794.472656 235.515625 L 800.421875 238.074219 L 806.855469 241.277344 L 810.722656 245.457031 L 812.550781 250.308594 L 813.78125 255.347656 L 815.570312 260.179688 L 817.941406 264.707031 L 820.644531 268.910156 L 823.417969 272.878906 L 825.933594 277.210938 L 827.851562 282.609375 L 829.003906 289.425781 L 829.910156 296.601562 L 831.253906 302.714844 L 833.292969 306.921875 L 834.539062 310.648438 L 833.714844 315.398438 L 832.171875 320.761719 L 831.914062 325.84375 L 834.324219 330.011719 L 838.320312 333.710938 L 842.203125 337.644531 L 844.613281 342.429688 L 845.597656 348.265625 L 845.550781 355.25 L 844.914062 363.230469 L 844.34375 371.003906 L 844.554688 377.109375 L 845.632812 380.664062 L 845.226562 383.121094 L 841.449219 386.089844 L 836.839844 389.53125 L 835.035156 392.984375 L 838.460938 396.121094 L 844.703125 399.179688 L 850.132812 402.535156 L 852.046875 406.542969 L 851.425781 411.476562 L 850.179688 417.605469 L 849.808594 424.9375 L 850.214844 432.476562 L 850.914062 438.988281 L 851.832031 443.644531 L 854.574219 447.34375 L 860.292969 451.101562 L 866.566406 454.753906 L 870.089844 457.839844 L 868.726562 460.132812 L 865.023438 462.359375 L 862.703125 465.46875 L 864.28125 470.085938 L 867.433594 475.492188 L 868.617188 480.628906 L 865.351562 484.710938 L 859.324219 488.046875 L 853.285156 491.210938 L 849.644531 494.503906 L 849.511719 497.109375 L 853.195312 498.179688 L 859.117188 497.839844 L 865.21875 496.46875 L 869.910156 494.441406 L 873.449219 492.109375 L 876.539062 489.828125 L 879.847656 487.785156 L 883.792969 485.476562 L 888.746094 482.234375 L 894.855469 477.613281 L 901.398438 472.097656 L 907.449219 466.398438 L 912.199219 461.03125 L 915.421875 455.785156 L 917.101562 450.296875 L 917.527344 444.398438 L 917.0625 437.976562 L 916.050781 430.988281 L 914.730469 423.71875 L 913.308594 416.53125 L 911.949219 409.683594 L 910.632812 403.035156 L 909.289062 396.347656 L 907.878906 389.527344 L 906.5 383.054688 L 905.277344 377.570312 L 904.148438 373.664062 L 902.300781 371.753906 L 899.082031 371.808594 L 895.207031 372.15625 L 891.746094 370.71875 L 889.476562 366.058594 L 888.007812 359.367188 L 886.664062 352.46875 L 884.917969 346.746094 L 882.816406 341.742188 L 880.546875 336.5625 L 878.339844 330.605469 L 876.496094 324.507812 L 875.355469 319.214844 L 875.023438 315.347656 L 874.660156 312.21875 L 873.46875 308.984375 L 871.753906 305.460938 L 870.09375 301.621094 L 868.894531 297.359375 L 867.90625 292.292969 L 866.707031 285.949219 L 864.910156 278.054688 L 862.242188 269.066406 L 858.46875 259.625 L 853.570312 250.367188 L 848.382812 241.921875 L 843.964844 234.890625 L 841.082031 229.695312 L 839.320312 225.957031 L 838.050781 223.09375 L 836.941406 220.566406 L 835.730469 217.828125 L 834.199219 214.414062 L 832.238281 210.132812 L 829.78125 204.867188 L 826.847656 198.695312 L 823.832031 192.441406 L 821.222656 187.125 L 819.125 183.285156 L 816.085938 179.5625 L 810.273438 174.117188 L 800.910156 166.050781 L 791.457031 158.238281 L 785.289062 153.613281 L 781.195312 151.574219 L 776.820312 150.636719 L 770.441406 149.585938 L 762.847656 148.296875 L 755.460938 146.914062 L 749.351562 145.554688 L 744.175781 144.222656 L 739.226562 142.902344 L 733.132812 141.582031 L 721.824219 140.328125 L 700.5625 139.21875 L 694.480469 140.207031 "/>
<path style="fill:none;stroke-width:0.75;stroke-linecap:round;stroke-linejoin:round;stroke:rgb(0%,0%,0%);stroke-opacity:1;stroke-miterlimit:10;" d="M 1003.171875 245.109375 L 1000.257812 248.566406 L 998.238281 251.621094 L 994.21875 254.546875 L 986.128906 257.589844 L 975.152344 260.949219 L 963.292969 264.796875 L 952.394531 269.179688 L 943.628906 273.664062 L 938.011719 277.699219 L 935.980469 280.90625 L 935.621094 283.671875 L 934.441406 286.554688 L 930.558594 290.128906 L 924.5 295 L 917.398438 301.785156 L 910.355469 310.785156 L 904.367188 321.074219 L 900.402344 331.410156 L 899.09375 340.761719 L 899.707031 348.871094 L 901.171875 355.6875 L 902.613281 361.234375 L 903.925781 365.851562 L 905.203125 369.957031 L 906.511719 373.910156 L 907.863281 377.847656 L 909.253906 381.847656 L 910.660156 385.941406 L 912.03125 389.953125 L 913.308594 393.664062 L 914.480469 396.933594 L 915.75 399.957031 L 917.378906 403.011719 L 919.515625 406.296875 L 921.847656 409.699219 L 923.957031 413.023438 L 925.550781 416.101562 L 926.796875 418.832031 L 927.980469 421.132812 L 929.328125 423.144531 L 930.769531 425.867188 L 932.164062 430.519531 L 933.421875 437.855469 L 934.632812 446.765625 L 935.933594 455.671875 L 937.414062 463.296875 L 938.964844 469.585938 L 940.421875 474.78125 L 941.632812 479.136719 L 942.535156 482.90625 L 943.507812 486.441406 L 945.035156 490.105469 L 947.421875 494.152344 L 950.320312 498.382812 L 953.199219 502.503906 L 955.636719 506.382812 L 957.613281 510.585938 L 959.199219 515.855469 L 960.496094 522.605469 L 961.652344 529.898438 L 962.832031 536.476562 L 964.164062 541.386719 L 965.589844 544.941406 L 967.011719 547.765625 L 968.351562 550.421875 L 969.648438 553.226562 L 970.957031 556.441406 L 972.316406 560.210938 L 973.703125 564.222656 L 975.058594 568.046875 L 976.355469 571.386719 L 977.613281 574.503906 L 978.871094 577.804688 L 980.226562 581.570312 L 981.980469 585.621094 L 984.492188 589.65625 L 987.917969 593.523438 L 991.632812 597.652344 L 994.796875 602.609375 L 996.824219 608.761719 L 998.058594 615.671875 L 999.074219 622.695312 L 1000.328125 629.269531 L 1001.78125 635.132812 L 1003.257812 640.101562 L 1004.636719 644.128906 L 1005.9375 647.664062 L 1007.207031 651.296875 L 1008.503906 655.464844 L 1009.832031 660.046875 L 1011.203125 664.765625 L 1012.609375 669.382812 L 1014.019531 673.792969 L 1015.386719 677.914062 L 1016.667969 681.671875 L 1017.851562 685.050781 L 1019.0625 688.277344 L 1020.46875 691.640625 L 1022.136719 695.375 L 1023.785156 699.460938 L 1025.027344 703.816406 L 1025.691406 708.40625 L 1026.40625 713.335938 L 1028.007812 718.765625 L 1030.953125 724.746094 L 1034.230469 730.96875 L 1036.453125 737.03125 L 1036.726562 742.476562 L 1036.109375 746.636719 L 1036.148438 748.789062 L 1037.949219 748.628906 L 1040.886719 747.53125 L 1043.890625 747.28125 L 1046.269531 749.203125 L 1048.859375 752.804688 L 1052.875 757.117188 L 1059.074219 761.3125 L 1066.363281 765.085938 L 1073.199219 768.253906 L 1078.4375 770.78125 L 1082.574219 773.214844 L 1086.519531 776.242188 L 1090.957031 780.269531 L 1095.675781 784.589844 L 1100.242188 788.214844 L 1104.394531 790.414062 L 1108.550781 791.433594 L 1113.304688 791.789062 L 1118.917969 792.011719 L 1124.351562 792.765625 L 1128.25 794.734375 L 1129.648438 798.402344 L 1129.179688 803.410156 L 1127.882812 809.179688 L 1126.648438 815.304688 L 1125.804688 822.015625 L 1125.53125 829.699219 L 1125.992188 838.589844 L 1127.191406 848.261719 L 1129.121094 858.132812 L 1131.757812 867.609375 L 1134.960938 876.167969 L 1138.089844 883.507812 L 1140.378906 889.382812 L 1141.410156 893.710938 L 1142.179688 897.019531 L 1144.042969 899.984375 L 1147.695312 903.148438 L 1151.253906 906.488281 L 1152.167969 909.820312 L 1149.507812 913.035156 L 1148.710938 916.214844 L 1156.828125 919.488281 L 1177.800781 922.917969 L 1203.160156 926.25 L 1221.335938 929.148438 L 1224.144531 931.402344 L 1216.917969 933.238281 L 1208.378906 935.003906 L 1205.320312 936.953125 L 1206.855469 938.996094 L 1210.160156 940.941406 L 1213.027344 942.71875 L 1215.632812 944.710938 L 1218.769531 947.417969 L 1222.78125 951.21875 L 1226.261719 955.996094 L 1227.355469 961.527344 L 1225.234375 967.527344 L 1223.140625 973.492188 L 1225.328125 978.875 L 1234.402344 983.253906 L 1246.351562 986.691406 L 1255.507812 989.390625 L 1258.195312 991.578125 L 1258.710938 993.660156 L 1263.351562 996.058594 L 1276.324219 998.941406 L 1293.550781 1001.328125 L 1308.859375 1001.980469 L 1317.605469 1000.113281 L 1321.171875 996.832031 L 1322.460938 993.703125 L 1323.828125 991.761719 L 1325.492188 989.890625 L 1327.121094 986.433594 L 1328.390625 979.746094 L 1329.046875 968.921875 L 1329.089844 956.070312 L 1328.578125 944.042969 L 1327.683594 935.082031 L 1326.976562 928.953125 L 1327.128906 924.804688 L 1328.550781 921.769531 L 1330.632812 918.957031 L 1332.507812 915.460938 L 1333.570312 910.683594 L 1334.285156 905.273438 L 1335.371094 900.183594 L 1337.332031 895.988281 L 1339.773438 891.71875 L 1342.066406 886.027344 L 1343.699219 878.054688 L 1344.5625 868.90625 L 1344.640625 860.195312 L 1343.90625 853.105469 L 1342.246094 847.164062 L 1339.523438 841.488281 L 1335.773438 835.28125 L 1331.734375 828.105469 L 1328.3125 819.613281 L 1326.167969 809.75 L 1324.921875 799.65625 L 1323.949219 790.777344 L 1322.757812 784.078125 L 1321.355469 778.6875 L 1319.882812 773.265625 L 1318.464844 766.863281 L 1317.113281 760.125 L 1315.835938 754.085938 L 1314.609375 749.511719 L 1313.351562 746.105469 L 1311.964844 743.300781 L 1310.410156 740.597656 L 1308.867188 737.742188 L 1307.582031 734.550781 L 1306.671875 730.902344 L 1305.753906 726.929688 L 1304.320312 722.832031 L 1301.996094 718.789062 L 1298.972656 714.925781 L 1295.5625 711.339844 L 1292.097656 708.132812 L 1288.84375 705.332031 L 1285.878906 702.632812 L 1283.230469 699.65625 L 1280.757812 696.132812 L 1277.644531 692.257812 L 1272.910156 688.339844 L 1266.035156 684.601562 L 1258.378906 680.890625 L 1251.75 676.96875 L 1247.472656 672.648438 L 1244.871094 667.953125 L 1242.78125 662.957031 L 1240.195312 657.800781 L 1236.835938 652.933594 L 1232.585938 648.871094 L 1227.664062 645.851562 L 1223.597656 643 L 1222.253906 639.175781 L 1224.738281 633.664062 L 1229.132812 627.496094 L 1232.769531 622.144531 L 1233.8125 618.542969 L 1233.734375 615.515625 L 1234.839844 611.34375 L 1238.519531 604.582031 L 1242.515625 594.847656 L 1243.667969 582.027344 L 1239.871094 566.5625 L 1233.285156 551.109375 L 1227.125 538.878906 L 1223.722656 532.128906 L 1221.855469 529.316406 L 1219.394531 527.9375 L 1214.738281 525.914062 L 1208.316406 522.867188 L 1201.085938 518.839844 L 1194.015625 513.929688 L 1188.203125 508.484375 L 1184.777344 502.90625 L 1184.359375 497.519531 L 1185.570312 492.382812 L 1186.527344 487.46875 L 1185.777344 482.761719 L 1183.605469 478.289062 L 1180.742188 474.082031 L 1177.898438 470.167969 L 1175.667969 466.574219 L 1174.125 463.25 L 1173.214844 460.140625 L 1172.78125 457.089844 L 1172.269531 453.484375 L 1171.035156 448.621094 L 1168.625 442.082031 L 1165.429688 434.621094 L 1162.046875 427.292969 L 1158.902344 420.847656 L 1155.808594 414.808594 L 1152.402344 408.402344 L 1148.46875 400.996094 L 1144.371094 392.539062 L 1140.601562 383.113281 L 1137.546875 372.976562 L 1135.117188 363.019531 L 1133.113281 354.296875 L 1131.207031 347.570312 L 1128.539062 342.4375 L 1124.117188 338.199219 L 1117.40625 334.285156 L 1109.640625 330.617188 L 1102.511719 327.253906 L 1097.28125 324.207031 L 1093.523438 321.351562 L 1090.402344 318.523438 L 1087.210938 315.625 L 1083.835938 312.816406 L 1080.289062 310.316406 L 1076.550781 308.234375 L 1072.417969 306.242188 L 1067.632812 303.882812 L 1062.160156 300.746094 L 1056.800781 296.542969 L 1052.570312 291.007812 L 1049.992188 284.109375 L 1047.632812 276.71875 L 1043.566406 269.929688 L 1036.535156 264.582031 L 1027.945312 260.492188 L 1019.878906 257.226562 L 1013.945312 254.363281 L 1009.894531 251.59375 L 1007.011719 248.617188 L 1004.582031 245.152344 L 1003.171875 245.109375 "/>
</g>
</svg>
