<?xml version="1.0" encoding="UTF-8"?>
<svg xmlns="http://www.w3.org/2000/svg" xmlns:xlink="http://www.w3.org/1999/xlink" width="1428pt" height="1605pt" viewBox="0 0 1428 1605" version="1.1">
<g id="surface334">
<rect x="0" y="0" width="1428" height="1605" style="fill:rgb(100%,100%,100%);fill-opacity:1;stroke:none;"/>
<path style="fill:none;stroke-width:0.75;stroke-linecap:round;stroke-linejoin:round;stroke:rgb(0%,0%,0%);stroke-opacity:1;stroke-miterlimit:10;" d="M 706.089844 136.558594 L 699.507812 138.914062 L 693.597656 141.398438 L 688.160156 144.042969 L 683 146.878906 L 677.917969 149.949219 L 672.765625 153.265625 L 667.613281 156.800781 L 662.589844 160.492188 L 657.820312 164.292969 L 653.421875 168.144531 L 649.527344 171.996094 L 646.203125 175.816406 L 643.320312 179.664062 L 640.6875 183.609375 L 638.117188 187.738281 L 635.425781 192.121094 L 632.480469 196.808594 L 629.382812 201.710938 L 626.296875 206.71875 L 623.375 211.710938 L 620.777344 216.574219 L 618.660156 221.195312 L 617.113281 225.492188 L 615.921875 229.554688 L 614.8125 233.511719 L 613.496094 237.488281 L 611.691406 241.613281 L 609.21875 245.9375 L 606.273438 250.214844 L 603.152344 254.109375 L 600.15625 257.296875 L 597.578125 259.453125 L 595.714844 260.246094 L 594.648438 259.464844 L 593.621094 257.320312 L 591.652344 254.148438 L 587.765625 250.28125 L 580.980469 246.042969 L 570.660156 241.761719 L 557.507812 237.726562 L 542.554688 234.230469 L 526.84375 231.554688 L 511.410156 229.988281 L 497.292969 229.820312 L 485.289062 231.226562 L 475.277344 233.964844 L 466.878906 237.6875 L 459.738281 242.042969 L 453.480469 246.675781 L 447.804688 251.289062 L 442.6875 255.757812 L 438.160156 260.007812 L 434.261719 263.957031 L 431.027344 267.535156 L 428.492188 270.667969 L 426.648438 273.328125 L 425.289062 275.707031 L 424.160156 278.050781 L 423.019531 280.597656 L 421.609375 283.597656 L 419.746094 287.238281 L 417.519531 291.511719 L 415.09375 296.351562 L 412.621094 301.691406 L 410.261719 307.472656 L 408.179688 313.628906 L 406.484375 320.105469 L 405.140625 326.90625 L 404.066406 334.039062 L 403.179688 341.511719 L 402.402344 349.339844 L 401.703125 357.5 L 401.246094 365.867188 L 401.242188 374.292969 L 401.910156 382.617188 L 403.464844 390.6875 L 406.121094 398.351562 L 410 405.484375 L 414.855469 412.09375 L 420.351562 418.210938 L 426.148438 423.875 L 431.917969 429.121094 L 437.136719 433.953125 L 440.605469 438.273438 L 440.9375 441.941406 L 436.753906 444.828125 L 426.667969 446.796875 L 409.296875 447.714844 L 384.089844 447.570312 L 353.800781 446.792969 L 322 445.941406 L 292.277344 445.574219 L 268.210938 446.242188 L 252.429688 448.34375 L 243.75 451.652344 L 240.046875 455.785156 L 239.191406 460.359375 L 239.046875 464.988281 L 237.492188 469.292969 L 232.933594 472.984375 L 225.929688 476.1875 L 217.582031 479.121094 L 208.996094 482.003906 L 201.269531 485.0625 L 195.246094 488.472656 L 190.726562 492.253906 L 187.261719 496.390625 L 184.390625 500.859375 L 181.660156 505.640625 L 178.621094 510.714844 L 174.9375 516.042969 L 170.785156 521.484375 L 166.472656 526.886719 L 162.300781 532.089844 L 158.570312 536.941406 L 155.503906 541.320312 L 153.015625 545.296875 L 150.929688 548.976562 L 149.085938 552.464844 L 147.304688 555.875 L 145.425781 559.3125 L 143.320312 562.863281 L 141.074219 566.535156 L 138.808594 570.3125 L 136.652344 574.179688 L 134.730469 578.117188 L 133.125 582.128906 L 131.71875 586.269531 L 130.359375 590.605469 L 128.886719 595.207031 L 127.140625 600.140625 L 124.960938 605.480469 L 122.253906 611.242188 L 119.171875 617.273438 L 115.929688 623.367188 L 112.742188 629.320312 L 109.828125 634.933594 L 107.351562 640.058594 L 105.300781 644.8125 L 103.617188 649.359375 L 102.234375 653.875 L 101.09375 658.535156 L 100.132812 663.503906 L 99.289062 668.875 L 98.449219 674.417969 L 97.507812 679.816406 L 96.347656 684.761719 L 94.859375 688.933594 L 92.96875 692.160156 L 90.785156 694.816406 L 88.445312 697.417969 L 86.09375 700.476562 L 83.875 704.503906 L 81.9375 710.019531 L 80.375 717.328125 L 79.128906 725.917969 L 78.082031 735.0625 L 77.125 744.039062 L 76.152344 752.132812 L 75.066406 758.800781 L 73.820312 764.246094 L 72.394531 768.84375 L 70.757812 772.980469 L 68.878906 777.035156 L 66.730469 781.390625 L 64.324219 786.335938 L 61.796875 791.785156 L 59.332031 797.566406 L 57.097656 803.5 L 55.273438 809.410156 L 53.988281 815.152344 L 53.160156 820.714844 L 52.660156 826.121094 L 52.359375 831.386719 L 52.125 836.527344 L 51.828125 841.574219 L 51.378906 846.566406 L 50.824219 851.695312 L 50.257812 857.164062 L 49.773438 863.191406 L 49.457031 869.988281 L 49.382812 877.714844 L 49.53125 886.320312 L 49.871094 895.699219 L 50.363281 905.746094 L 50.980469 916.359375 L 51.679688 927.433594 L 52.4375 938.804688 L 53.269531 950.050781 L 54.199219 960.703125 L 55.25 970.277344 L 56.445312 978.304688 L 57.800781 984.476562 L 59.273438 989.210938 L 60.820312 993.085938 L 62.386719 996.695312 L 63.929688 1000.625 L 65.398438 1005.460938 L 66.757812 1011.601562 L 68.03125 1018.683594 L 69.265625 1026.167969 L 70.488281 1033.507812 L 71.75 1040.148438 L 73.074219 1045.6875 L 74.449219 1050.238281 L 75.855469 1054.054688 L 77.265625 1057.390625 L 78.664062 1060.503906 L 80.027344 1063.640625 L 81.339844 1067.003906 L 82.613281 1070.554688 L 83.871094 1074.210938 L 85.128906 1077.878906 L 86.40625 1081.46875 L 87.722656 1084.917969 L 89.117188 1088.242188 L 90.617188 1091.492188 L 92.257812 1094.707031 L 94.070312 1097.929688 L 96.085938 1101.210938 L 98.355469 1104.605469 L 100.980469 1108.214844 L 104.070312 1112.15625 L 107.738281 1116.546875 L 112.105469 1121.503906 L 117.203125 1127.074219 L 122.746094 1133.027344 L 128.371094 1139.054688 L 133.710938 1144.859375 L 138.402344 1150.140625 L 142.078125 1154.59375 L 144.542969 1158.0625 L 146.273438 1160.945312 L 147.910156 1163.796875 L 150.09375 1167.164062 L 153.46875 1171.589844 L 158.460938 1177.441406 L 164.605469 1184.363281 L 171.230469 1191.808594 L 177.652344 1199.230469 L 183.199219 1206.089844 L 187.191406 1211.847656 L 189.199219 1216.121094 L 189.789062 1219.226562 L 189.78125 1221.636719 L 189.988281 1223.835938 L 191.226562 1226.292969 L 194.082031 1229.382812 L 198.21875 1233.027344 L 203.066406 1237.039062 L 208.058594 1241.226562 L 212.628906 1245.410156 L 216.199219 1249.394531 L 218.390625 1253.054688 L 219.519531 1256.46875 L 220.089844 1259.777344 L 220.597656 1263.117188 L 221.550781 1266.625 L 223.335938 1270.40625 L 225.925781 1274.414062 L 229.179688 1278.570312 L 232.953125 1282.792969 L 237.109375 1287.003906 L 241.507812 1291.125 L 246.027344 1295.105469 L 250.621094 1299.015625 L 255.261719 1302.964844 L 259.925781 1307.054688 L 264.585938 1311.390625 L 269.210938 1316.042969 L 273.722656 1320.960938 L 278.054688 1326.0625 L 282.128906 1331.257812 L 285.867188 1336.46875 L 289.191406 1341.609375 L 292.085938 1346.601562 L 294.746094 1351.398438 L 297.425781 1355.953125 L 300.375 1360.226562 L 303.847656 1364.171875 L 308.050781 1367.777344 L 313.007812 1371.148438 L 318.699219 1374.417969 L 325.097656 1377.726562 L 332.1875 1381.207031 L 339.945312 1384.988281 L 348.453125 1389.128906 L 358.25 1393.332031 L 369.972656 1397.226562 L 384.265625 1400.4375 L 401.765625 1402.589844 L 422.785156 1403.402344 L 446.28125 1402.988281 L 470.871094 1401.558594 L 495.183594 1399.316406 L 517.839844 1396.46875 L 537.460938 1393.226562 L 553.0625 1389.769531 L 565.246094 1386.152344 L 575.003906 1382.402344 L 583.328125 1378.546875 L 591.210938 1374.613281 L 599.410156 1370.625 L 607.71875 1366.570312 L 615.695312 1362.4375 L 622.902344 1358.210938 L 628.894531 1353.882812 L 633.230469 1349.429688 L 635.769531 1344.871094 L 637.570312 1340.308594 L 639.988281 1335.882812 L 644.378906 1331.726562 L 652.105469 1327.976562 L 664.085938 1324.71875 L 679.464844 1321.882812 L 696.96875 1319.347656 L 715.300781 1316.992188 L 733.183594 1314.695312 L 749.324219 1312.335938 L 762.757812 1309.820312 L 773.777344 1307.121094 L 782.992188 1304.242188 L 791.015625 1301.175781 L 798.457031 1297.925781 L 805.816406 1294.5 L 813.15625 1290.953125 L 820.425781 1287.339844 L 827.574219 1283.730469 L 834.550781 1280.183594 L 841.308594 1276.761719 L 847.804688 1273.496094 L 854.015625 1270.296875 L 859.9375 1267.046875 L 865.546875 1263.617188 L 870.84375 1259.894531 L 875.820312 1255.792969 L 880.53125 1251.382812 L 885.035156 1246.785156 L 889.40625 1242.105469 L 893.695312 1237.457031 L 897.976562 1232.957031 L 902.304688 1228.675781 L 906.707031 1224.53125 L 911.207031 1220.402344 L 915.832031 1216.164062 L 920.605469 1211.703125 L 925.519531 1206.933594 L 930.472656 1201.960938 L 935.320312 1196.933594 L 939.933594 1191.992188 L 944.167969 1187.289062 L 947.894531 1182.960938 L 951.023438 1179.101562 L 953.683594 1175.578125 L 956.046875 1172.191406 L 958.292969 1168.753906 L 960.59375 1165.070312 L 963.09375 1160.984375 L 965.789062 1156.507812 L 968.652344 1151.683594 L 971.644531 1146.558594 L 974.726562 1141.175781 L 977.875 1135.582031 L 981.039062 1129.835938 L 984.148438 1124.007812 L 987.125 1118.183594 L 989.894531 1112.449219 L 992.375 1106.890625 L 994.511719 1101.5625 L 996.34375 1096.417969 L 997.933594 1091.382812 L 999.351562 1086.386719 L 1000.65625 1081.347656 L 1001.910156 1076.199219 L 1003.171875 1070.90625 L 1004.453125 1065.617188 L 1005.761719 1060.523438 L 1007.101562 1055.820312 L 1008.476562 1051.699219 L 1009.890625 1048.28125 L 1011.320312 1045.375 L 1012.746094 1042.734375 L 1014.140625 1040.089844 L 1015.484375 1037.195312 L 1016.753906 1033.785156 L 1017.9375 1029.644531 L 1019.082031 1024.730469 L 1020.257812 1019.03125 L 1021.527344 1012.539062 L 1022.949219 1005.253906 L 1024.5625 997.175781 L 1026.292969 988.363281 L 1028.03125 978.882812 L 1029.671875 968.808594 L 1031.117188 958.210938 L 1032.253906 947.152344 L 1033.027344 935.742188 L 1033.570312 924.210938 L 1034.058594 912.824219 L 1034.671875 901.839844 L 1035.589844 891.535156 L 1036.917969 882.085938 L 1038.492188 873.382812 L 1040.074219 865.21875 L 1041.425781 857.402344 L 1042.308594 849.734375 L 1042.484375 842.023438 L 1041.832031 834.074219 L 1040.644531 825.753906 L 1039.335938 816.941406 L 1038.316406 807.503906 L 1037.996094 797.316406 L 1038.691406 786.429688 L 1040.351562 775.574219 L 1042.820312 765.664062 L 1045.953125 757.601562 L 1049.601562 752.296875 L 1053.613281 750.65625 L 1057.871094 753.203125 L 1062.390625 758.890625 L 1067.214844 766.296875 L 1072.390625 773.996094 L 1077.957031 780.554688 L 1083.914062 784.921875 L 1090.074219 787.539062 L 1096.191406 789.21875 L 1102.027344 790.78125 L 1107.34375 793.042969 L 1111.902344 796.8125 L 1115.519531 802.671875 L 1118.261719 810.214844 L 1120.246094 818.804688 L 1121.601562 827.804688 L 1122.441406 836.570312 L 1122.90625 844.601562 L 1123.1875 851.988281 L 1123.492188 858.945312 L 1124.019531 865.695312 L 1124.980469 872.472656 L 1126.578125 879.488281 L 1129.003906 886.882812 L 1132.375 894.421875 L 1136.796875 901.789062 L 1142.375 908.65625 L 1149.210938 914.707031 L 1157.265625 919.699219 L 1165.898438 923.722656 L 1174.332031 926.9375 L 1181.78125 929.519531 L 1187.460938 931.628906 L 1190.589844 933.4375 L 1190.71875 935.101562 L 1188.75 936.738281 L 1185.910156 938.460938 L 1183.433594 940.378906 L 1182.554688 942.601562 L 1184.160156 945.210938 L 1187.734375 948.160156 L 1192.425781 951.375 L 1197.371094 954.789062 L 1201.710938 958.324219 L 1204.59375 961.90625 L 1205.5 965.484375 L 1205.285156 969.089844 L 1205.152344 972.769531 L 1206.292969 976.570312 L 1209.917969 980.546875 L 1216.820312 984.722656 L 1226.222656 989.03125 L 1236.953125 993.382812 L 1247.835938 997.6875 L 1257.691406 1001.847656 L 1265.34375 1005.78125 L 1270.03125 1009.414062 L 1272.613281 1012.753906 L 1274.359375 1015.824219 L 1276.539062 1018.652344 L 1280.425781 1021.265625 L 1286.90625 1023.640625 L 1295.355469 1025.582031 L 1304.761719 1026.839844 L 1314.121094 1027.167969 L 1322.417969 1026.320312 L 1328.652344 1024.042969 L 1332.113281 1020.234375 L 1333.316406 1015.320312 L 1333.082031 1009.867188 L 1332.230469 1004.449219 L 1331.582031 999.628906 L 1331.777344 995.816406 L 1332.757812 992.816406 L 1334.277344 990.273438 L 1336.105469 987.824219 L 1338.003906 985.125 L 1339.726562 981.808594 L 1341.074219 977.621094 L 1341.960938 972.667969 L 1342.335938 967.140625 L 1342.148438 961.246094 L 1341.347656 955.179688 L 1339.9375 949.113281 L 1338.164062 943.105469 L 1336.320312 937.195312 L 1334.703125 931.410156 L 1333.613281 925.789062 L 1333.347656 920.363281 L 1334.101562 915.164062 L 1335.683594 910.191406 L 1337.796875 905.449219 L 1340.148438 900.933594 L 1342.445312 896.648438 L 1344.433594 892.554688 L 1346.039062 888.445312 L 1347.222656 884.078125 L 1347.945312 879.214844 L 1348.179688 873.605469 L 1347.886719 867.007812 L 1347.054688 859.300781 L 1345.773438 850.828125 L 1344.160156 842.042969 L 1342.332031 833.414062 L 1340.394531 825.402344 L 1338.460938 818.359375 L 1336.570312 812.214844 L 1334.769531 806.792969 L 1333.085938 801.917969 L 1331.5625 797.417969 L 1330.234375 793.105469 L 1329.109375 788.832031 L 1328.097656 784.507812 L 1327.070312 780.054688 L 1325.917969 775.410156 L 1324.507812 770.496094 L 1322.78125 765.265625 L 1320.878906 759.78125 L 1318.988281 754.117188 L 1317.3125 748.355469 L 1316.039062 742.574219 L 1315.367188 736.851562 L 1315.390625 731.273438 L 1315.820312 725.949219 L 1316.269531 720.984375 L 1316.355469 716.488281 L 1315.691406 712.578125 L 1313.976562 709.304688 L 1311.273438 706.515625 L 1307.734375 704.003906 L 1303.515625 701.554688 L 1298.761719 698.964844 L 1293.628906 696.019531 L 1288.296875 692.582031 L 1283.066406 688.765625 L 1278.273438 684.75 L 1274.246094 680.726562 L 1271.320312 676.867188 L 1269.6875 673.320312 L 1269.015625 670.0625 L 1268.824219 667.035156 L 1268.640625 664.175781 L 1267.988281 661.425781 L 1266.398438 658.71875 L 1263.542969 656.003906 L 1259.714844 653.257812 L 1255.355469 650.464844 L 1250.90625 647.609375 L 1246.8125 644.671875 L 1243.441406 641.601562 L 1240.890625 638.171875 L 1239.183594 634.128906 L 1238.355469 629.210938 L 1238.421875 623.15625 L 1239.410156 615.703125 L 1241.257812 606.742188 L 1243.5 596.71875 L 1245.585938 586.230469 L 1246.964844 575.871094 L 1247.082031 566.234375 L 1245.527344 557.769531 L 1242.460938 550.34375 L 1238.179688 543.679688 L 1232.984375 537.488281 L 1227.175781 531.5 L 1221.046875 525.425781 L 1214.890625 519.0625 L 1208.925781 512.472656 L 1203.367188 505.785156 L 1198.417969 499.140625 L 1194.289062 492.671875 L 1191.125 486.496094 L 1188.785156 480.675781 L 1187.070312 475.265625 L 1185.773438 470.3125 L 1184.699219 465.867188 L 1183.632812 461.976562 L 1182.429688 458.636719 L 1181.113281 455.628906 L 1179.765625 452.683594 L 1178.46875 449.523438 L 1177.296875 445.878906 L 1176.296875 441.554688 L 1175.351562 436.6875 L 1174.308594 431.488281 L 1173.015625 426.175781 L 1171.324219 420.964844 L 1169.074219 416.070312 L 1166.1875 411.625 L 1162.847656 407.441406 L 1159.304688 403.242188 L 1155.816406 398.769531 L 1152.632812 393.742188 L 1149.9375 387.980469 L 1147.660156 381.625 L 1145.652344 374.90625 L 1143.773438 368.050781 L 1141.875 361.28125 L 1139.820312 354.835938 L 1137.472656 348.894531 L 1134.75 343.492188 L 1131.582031 338.632812 L 1127.898438 334.308594 L 1123.625 330.511719 L 1118.730469 327.210938 L 1113.296875 324.230469 L 1107.453125 321.363281 L 1101.324219 318.40625 L 1095.027344 315.144531 L 1088.691406 311.378906 L 1082.441406 306.976562 L 1076.398438 302.125 L 1070.6875 297.09375 L 1065.441406 292.140625 L 1060.777344 287.539062 L 1056.785156 283.476562 L 1053.398438 279.859375 L 1050.507812 276.511719 L 1048 273.269531 L 1045.773438 269.953125 L 1043.714844 266.398438 L 1041.675781 262.492188 L 1039.339844 258.398438 L 1036.351562 254.332031 L 1032.351562 250.515625 L 1026.984375 247.167969 L 1020.035156 244.480469 L 1011.898438 242.554688 L 1003.105469 241.457031 L 994.183594 241.257812 L 985.671875 242.027344 L 978.105469 243.832031 L 971.863281 246.675781 L 966.707031 250.289062 L 962.246094 254.339844 L 958.089844 258.492188 L 953.851562 262.410156 L 949.230469 265.855469 L 944.3125 268.964844 L 939.277344 271.976562 L 934.304688 275.125 L 929.574219 278.648438 L 925.261719 282.777344 L 921.496094 287.648438 L 918.207031 292.984375 L 915.277344 298.410156 L 912.578125 303.550781 L 909.988281 308.019531 L 907.429688 311.578125 L 904.96875 314.488281 L 902.707031 317.140625 L 900.753906 319.933594 L 899.21875 323.265625 L 898.207031 327.523438 L 897.757812 332.941406 L 897.675781 339.070312 L 897.691406 345.304688 L 897.546875 351.027344 L 896.972656 355.632812 L 895.78125 358.640625 L 894.089844 360.085938 L 892.078125 360.132812 L 889.9375 358.949219 L 887.851562 356.703125 L 886.007812 353.558594 L 884.539062 349.683594 L 883.363281 345.277344 L 882.328125 340.519531 L 881.300781 335.609375 L 880.132812 330.738281 L 878.726562 326.050781 L 877.136719 321.503906 L 875.457031 317.011719 L 873.78125 312.484375 L 872.203125 307.832031 L 870.824219 302.964844 L 869.699219 297.835938 L 868.761719 292.5625 L 867.914062 287.308594 L 867.046875 282.238281 L 866.066406 277.507812 L 864.886719 273.234375 L 863.511719 269.367188 L 861.96875 265.808594 L 860.273438 262.457031 L 858.453125 259.21875 L 856.53125 255.996094 L 854.535156 252.703125 L 852.5 249.316406 L 850.480469 245.8125 L 848.507812 242.183594 L 846.636719 238.414062 L 844.878906 234.480469 L 843.128906 230.34375 L 841.253906 225.957031 L 839.117188 221.265625 L 836.589844 216.230469 L 833.539062 210.796875 L 829.90625 204.960938 L 825.964844 198.898438 L 822.058594 192.816406 L 818.542969 186.9375 L 815.761719 181.464844 L 813.894531 176.5625 L 812.417969 172.128906 L 810.640625 168.007812 L 807.871094 164.046875 L 803.414062 160.085938 L 796.578125 155.972656 L 786.816406 151.621094 L 774.179688 147.238281 L 758.855469 143.105469 L 741.039062 139.503906 L 720.925781 136.707031 L 698.714844 135.003906 L 706.089844 136.558594 "/>
<path style="fill:none;stroke-width:0.75;stroke-linecap:round;stroke-linejoin:round;stroke:rgb(0%,0%,0%);stroke-opacity:1;stroke-miterlimit:10;" d="M 291.261719 438.792969 L 278.664062 443.460938 L 259.414062 447.871094 L 250.164062 451.890625 L 249.007812 455.496094 L 249.382812 458.703125 L 246.21875 461.578125 L 240.402344 464.390625 L 234.3125 467.472656 L 229.570312 471.054688 L 224.777344 474.960938 L 217.78125 478.914062 L 207.6875 482.675781 L 198.621094 486.140625 L 194.492188 489.300781 L 193.316406 492.445312 L 191.617188 495.933594 L 186.917969 500.054688 L 180.640625 504.859375 L 175.199219 510.332031 L 172.277344 516.363281 L 170.65625 522.449219 L 168.394531 527.992188 L 164.148438 532.582031 L 159.007812 536.53125 L 154.664062 540.34375 L 152.261719 544.414062 L 150.765625 548.652344 L 148.914062 552.863281 L 146.71875 556.835938 L 144.519531 560.347656 L 142.609375 563.292969 L 141.132812 566.023438 L 140.199219 568.992188 L 139.660156 572.59375 L 138.308594 576.929688 L 134.675781 582.035156 L 128.414062 587.734375 L 123.652344 593.046875 L 124.105469 597.136719 L 127.316406 600.636719 L 129.289062 604.539062 L 127.066406 609.605469 L 121.851562 615.660156 L 115.890625 622.285156 L 111.046875 629.066406 L 107.652344 635.535156 L 105.660156 641.214844 L 104.863281 645.8125 L 104.441406 649.769531 L 103.410156 653.714844 L 101.238281 658.160156 L 99.144531 663.191406 L 98.371094 668.710938 L 98.445312 674.375 L 98.476562 679.769531 L 97.71875 684.546875 L 96.027344 688.660156 L 93.40625 692.113281 L 90.023438 695.015625 L 86.652344 697.800781 L 84.242188 700.988281 L 83.324219 705.070312 L 82.859375 710.375 L 81.734375 717.097656 L 80.089844 725.023438 L 78.394531 733.839844 L 77.003906 743.132812 L 75.820312 752.089844 L 74.640625 759.78125 L 73.316406 765.554688 L 71.917969 769.800781 L 70.566406 773.1875 L 69.277344 776.386719 L 67.65625 780.15625 L 65.203125 785.273438 L 61.75 792.054688 L 58.445312 798.988281 L 56.40625 804.597656 L 55.292969 809.324219 L 54.417969 814.089844 L 53.285156 819.605469 L 52.222656 825.660156 L 51.769531 831.824219 L 52.203125 837.691406 L 52.78125 842.957031 L 52.488281 847.339844 L 50.804688 850.894531 L 49.09375 855.035156 L 48.761719 861.128906 L 49.367188 869.019531 L 50.023438 878.175781 L 50.089844 888.066406 L 49.917969 898.164062 L 50.097656 907.9375 L 51.019531 917.097656 L 52.222656 926.289062 L 53.035156 936.40625 L 53.0625 947.9375 L 53.023438 959.824219 L 53.894531 970.625 L 56.234375 979.175781 L 58.839844 985.507812 L 60.453125 990.023438 L 61.355469 993.46875 L 62.203125 996.664062 L 63.496094 1000.363281 L 65.089844 1005.003906 L 66.667969 1010.9375 L 68.003906 1018.3125 L 69.195312 1026.371094 L 70.417969 1034.152344 L 71.792969 1040.832031 L 73.226562 1046.144531 L 74.597656 1050.105469 L 75.917969 1053.265625 L 77.226562 1056.320312 L 78.554688 1059.796875 L 79.902344 1063.625 L 81.253906 1067.582031 L 82.609375 1071.453125 L 83.957031 1075.132812 L 85.296875 1078.519531 L 86.621094 1081.574219 L 87.953125 1084.464844 L 89.304688 1087.410156 L 90.675781 1090.597656 L 91.992188 1094.050781 L 93.28125 1097.742188 L 94.988281 1101.546875 L 97.683594 1105.324219 L 101.652344 1108.984375 L 106.085938 1112.691406 L 109.902344 1116.664062 L 112.5 1121.117188 L 115.203125 1126.257812 L 119.816406 1132.292969 L 127.246094 1139.152344 L 134.765625 1145.65625 L 139.589844 1150.679688 L 142.285156 1154.476562 L 144.273438 1157.628906 L 146.664062 1160.675781 L 149.378906 1163.90625 L 152.042969 1167.570312 L 154.476562 1171.914062 L 157.34375 1177.195312 L 161.511719 1183.6875 L 167.582031 1191.421875 L 175.128906 1199.472656 L 183.464844 1206.667969 L 191.351562 1212.128906 L 195.371094 1216.070312 L 193.039062 1218.988281 L 187.800781 1221.386719 L 184.585938 1223.777344 L 186.988281 1226.5625 L 193.28125 1229.738281 L 200.40625 1233.195312 L 205.921875 1236.847656 L 209.792969 1240.703125 L 212.609375 1244.796875 L 214.90625 1249.09375 L 217.085938 1253.277344 L 219.335938 1257.050781 L 221.21875 1260.480469 L 222.132812 1263.734375 L 221.867188 1266.964844 L 221.75 1270.292969 L 223.503906 1273.835938 L 228.195312 1277.6875 L 234.335938 1281.859375 L 239.789062 1286.351562 L 243.070312 1291.109375 L 245.324219 1295.832031 L 248.347656 1300.175781 L 253.390625 1303.933594 L 259.554688 1307.515625 L 265.574219 1311.398438 L 270.898438 1315.652344 L 275.160156 1320.265625 L 278.222656 1325.21875 L 280.867188 1330.476562 L 284.113281 1336.003906 L 288.566406 1341.71875 L 293.257812 1347.316406 L 296.808594 1352.441406 L 298.449219 1356.828125 L 299.828125 1360.585938 L 302.707031 1363.925781 L 306.894531 1367.089844 L 311.714844 1370.34375 L 316.878906 1373.882812 L 323.683594 1377.671875 L 333.808594 1381.613281 L 347.609375 1385.613281 L 360.140625 1389.558594 L 365.140625 1393.328125 L 360.210938 1396.796875 L 358.429688 1399.777344 L 376.738281 1402.070312 L 423.523438 1403.449219 L 472.882812 1403.589844 L 498.460938 1402.269531 L 506.320312 1399.820312 L 510.640625 1396.722656 L 522.429688 1393.359375 L 540.023438 1389.777344 L 558.601562 1385.929688 L 574.101562 1381.78125 L 585.578125 1377.3125 L 592.851562 1372.5 L 596.328125 1367.375 L 598.777344 1362.148438 L 602.714844 1357.027344 L 607.285156 1352.035156 L 610.796875 1347.148438 L 611.996094 1342.359375 L 611.410156 1337.777344 L 610.011719 1333.523438 L 608.605469 1329.691406 L 607.285156 1326.265625 L 605.996094 1323.191406 L 604.671875 1320.390625 L 603.316406 1317.691406 L 601.9375 1314.902344 L 600.550781 1311.769531 L 599.207031 1307.855469 L 597.933594 1302.59375 L 596.667969 1295.144531 L 595.324219 1284.605469 L 593.855469 1269.757812 L 592.382812 1248.160156 L 591.070312 1217.058594 L 589.988281 1174.59375 L 588.867188 1122.460938 L 587.359375 1063.253906 L 585.359375 998.011719 L 583.769531 921.542969 L 583.425781 830.902344 L 583.863281 738.296875 L 584.300781 659.722656 L 584.113281 607.328125 L 583.308594 577.820312 L 582.070312 564.042969 L 580.574219 559.410156 L 579.066406 559.574219 L 577.796875 560.753906 L 576.777344 559.886719 L 575.046875 556.761719 L 571.402344 551.894531 L 565.300781 545.832031 L 558.816406 539.300781 L 554.046875 532.964844 L 550.589844 527.136719 L 547.40625 522.027344 L 543.742188 517.804688 L 539.953125 514.4375 L 536.679688 511.84375 L 534.242188 509.929688 L 531.726562 508.511719 L 527.898438 507.390625 L 522.179688 506.507812 L 516.585938 506.351562 L 513.117188 507.289062 L 511.140625 508.65625 L 509.355469 509.527344 L 506.671875 509.046875 L 502.828125 506.648438 L 497.765625 501.824219 L 491.605469 494.464844 L 485.175781 486.070312 L 479.484375 478.523438 L 475.269531 473.285156 L 472.160156 470.074219 L 469.523438 468.175781 L 466.734375 466.929688 L 463.191406 465.914062 L 458.535156 464.808594 L 453.363281 463.527344 L 448.492188 462.042969 L 444.429688 460.328125 L 440.398438 458.363281 L 435.3125 456.128906 L 428.480469 453.609375 L 420.824219 450.753906 L 413.675781 447.523438 L 404.1875 443.914062 L 372.78125 440.136719 L 295.710938 436.449219 L 291.261719 438.792969 "/>
<path style="fill:none;stroke-width:0.75;stroke-linecap:round;stroke-linejoin:round;stroke:rgb(0%,0%,0%);stroke-opacity:1;stroke-miterlimit:10;" d="M 488.832031 228.035156 L 486.125 230.027344 L 482.714844 232.25 L 478.035156 234.898438 L 471.472656 238.097656 L 462.636719 241.820312 L 453.886719 246.121094 L 447.566406 251.027344 L 442.960938 256.195312 L 437.957031 260.730469 L 431.722656 264.082031 L 428.0625 267.242188 L 427.410156 270.429688 L 428.457031 273.496094 L 428.480469 276.148438 L 426.765625 278.480469 L 423.625 280.738281 L 420.554688 283.347656 L 418.183594 286.347656 L 416.492188 289.941406 L 414.433594 295.195312 L 412.171875 302.378906 L 410.183594 310.664062 L 408.625 316.90625 L 407.265625 321.15625 L 405.851562 324.890625 L 404.402344 330.871094 L 403.421875 340.769531 L 403.425781 354.253906 L 404.417969 366.015625 L 405.878906 375.371094 L 407.265625 383.273438 L 408.457031 390.613281 L 409.726562 397.203125 L 411.574219 402.945312 L 415.066406 409.027344 L 421.417969 416.007812 L 430.316406 423.445312 L 436.851562 428.730469 L 440.75 431.753906 L 443.289062 433.296875 L 445.617188 434.386719 L 448.097656 435.589844 L 451.089844 437.363281 L 455.351562 440.015625 L 460.082031 443.003906 L 464.199219 445.625 L 467.335938 447.574219 L 469.851562 449.070312 L 472.105469 450.433594 L 474.152344 451.808594 L 476.84375 453.179688 L 482.667969 454.445312 L 497.273438 455.273438 L 517.882812 455.316406 L 539.429688 454.4375 L 557.867188 453.140625 L 570.679688 451.730469 L 577.125 450.398438 L 581.273438 449.160156 L 584.714844 447.910156 L 588.027344 446.394531 L 591.488281 444.070312 L 594.601562 440.5625 L 596.800781 435.542969 L 598.003906 428.761719 L 598.007812 420.515625 L 596.824219 411.136719 L 595.3125 400.261719 L 593.765625 386.488281 L 592.316406 367.625 L 591.292969 341.492188 L 591.273438 314.355469 L 592.554688 293.777344 L 594.199219 282.054688 L 595.082031 275.335938 L 594.207031 269.632812 L 591.390625 265.207031 L 588.210938 261.609375 L 586.425781 257.972656 L 586.285156 253.796875 L 585.367188 249.53125 L 581.316406 245.628906 L 574.507812 241.835938 L 565.863281 238.023438 L 554.015625 234.191406 L 531.214844 230.488281 L 497.808594 227.089844 L 488.832031 228.035156 "/>
<path style="fill:none;stroke-width:0.75;stroke-linecap:round;stroke-linejoin:round;stroke:rgb(0%,0%,0%);stroke-opacity:1;stroke-miterlimit:10;" d="M 515.386719 489.351562 L 510.019531 493.683594 L 510.019531 497.777344 L 518.070312 501.355469 L 523.441406 504.078125 L 526.125 506.171875 L 531.492188 508.175781 L 534.175781 510.8125 L 536.859375 514.640625 L 550.277344 519.789062 L 550.277344 525.628906 L 555.648438 532 L 555.648438 538.976562 L 571.75 546.300781 L 571.75 552.953125 L 577.117188 558.417969 L 577.117188 562.359375 L 582.488281 564.324219 L 585.171875 563.6875 L 587.855469 560.257812 L 587.855469 554.601562 L 585.171875 547.835938 L 585.171875 540.390625 L 598.589844 532.515625 L 598.589844 524.597656 L 595.90625 516.460938 L 595.90625 508.347656 L 598.589844 501.585938 L 598.589844 496.492188 L 601.273438 492.621094 L 595.90625 489.484375 L 515.386719 486.785156 L 515.386719 489.351562 "/>
<path style="fill:none;stroke-width:0.75;stroke-linecap:round;stroke-linejoin:round;stroke:rgb(0%,0%,0%);stroke-opacity:1;stroke-miterlimit:10;" d="M 669.101562 545.855469 L 650.011719 545.933594 L 630.640625 545.949219 L 614.28125 544.867188 L 603.390625 542.480469 L 597.078125 541.914062 L 593.617188 547.121094 L 591.285156 562.050781 L 588.726562 589.882812 L 586.089844 630.671875 L 583.898438 683.699219 L 582.667969 748.238281 L 582.757812 822.734375 L 583.878906 902.289062 L 585.5625 981.160156 L 587.359375 1053.613281 L 588.898438 1115.046875 L 590.195312 1165.347656 L 591.355469 1205.554688 L 592.492188 1236.683594 L 593.691406 1259.839844 L 594.976562 1276.425781 L 596.351562 1287.910156 L 597.824219 1295.773438 L 599.375 1301.34375 L 600.925781 1305.410156 L 602.363281 1308.605469 L 603.589844 1311.574219 L 604.554688 1314.820312 L 605.449219 1318.308594 L 606.515625 1321.871094 L 608.003906 1325.34375 L 610.035156 1328.597656 L 612.261719 1331.707031 L 614.21875 1334.789062 L 615.4375 1337.953125 L 615.734375 1341.222656 L 616.0625 1344.21875 L 617.675781 1346.460938 L 621.808594 1347.480469 L 629.101562 1346.941406 L 637.742188 1345.105469 L 645.308594 1342.371094 L 649.378906 1339.144531 L 648.648438 1335.773438 L 646.214844 1332.386719 L 646.304688 1329.058594 L 653.125 1325.863281 L 669.449219 1322.855469 L 692.242188 1320.007812 L 717.019531 1317.273438 L 739.304688 1314.605469 L 755.675781 1311.957031 L 766.984375 1309.292969 L 775.144531 1306.582031 L 782.070312 1303.785156 L 789.308594 1300.871094 L 796.953125 1297.835938 L 804.734375 1294.65625 L 812.382812 1291.332031 L 819.699219 1287.855469 L 826.789062 1284.273438 L 833.824219 1280.628906 L 840.976562 1276.980469 L 848.324219 1273.359375 L 855.503906 1269.789062 L 862.058594 1266.261719 L 867.515625 1262.785156 L 871.628906 1259.332031 L 874.964844 1255.773438 L 878.304688 1251.949219 L 882.421875 1247.699219 L 887.832031 1242.941406 L 893.941406 1237.898438 L 899.898438 1232.871094 L 904.84375 1228.152344 L 908.238281 1223.949219 L 910.816406 1220.042969 L 913.625 1216.121094 L 917.710938 1211.875 L 923.738281 1207.089844 L 930.839844 1201.957031 L 937.777344 1196.777344 L 943.292969 1191.839844 L 946.527344 1187.367188 L 948.152344 1183.300781 L 949.234375 1179.496094 L 950.824219 1175.820312 L 953.699219 1172.148438 L 957.464844 1168.429688 L 961.441406 1164.609375 L 964.941406 1160.652344 L 967.496094 1156.496094 L 969.433594 1152.039062 L 971.296875 1147.152344 L 973.621094 1141.722656 L 976.78125 1135.703125 L 980.496094 1129.367188 L 984.3125 1123.0625 L 987.777344 1117.140625 L 990.550781 1111.847656 L 992.726562 1107.003906 L 994.503906 1102.324219 L 996.078125 1097.523438 L 997.613281 1092.382812 L 999.125 1086.949219 L 1000.585938 1081.335938 L 1001.980469 1075.664062 L 1003.292969 1070.058594 L 1004.558594 1064.722656 L 1005.824219 1059.859375 L 1007.140625 1055.691406 L 1008.535156 1052.316406 L 1009.957031 1049.390625 L 1011.335938 1046.464844 L 1012.632812 1043.191406 L 1013.882812 1039.652344 L 1015.144531 1036.039062 L 1016.488281 1032.546875 L 1017.941406 1029.222656 L 1019.441406 1025.554688 L 1020.890625 1020.894531 L 1022.191406 1014.589844 L 1023.300781 1006.238281 L 1024.351562 996.394531 L 1025.527344 985.871094 L 1027.015625 975.46875 L 1028.90625 965.78125 L 1030.941406 956.589844 L 1032.765625 947.453125 L 1034.035156 937.945312 L 1034.523438 927.722656 L 1034.554688 916.851562 L 1034.585938 905.488281 L 1035.0625 893.800781 L 1036.304688 882.023438 L 1038.035156 870.726562 L 1039.84375 860.566406 L 1041.324219 852.195312 L 1042.144531 845.878906 L 1042.308594 840.339844 L 1041.914062 833.921875 L 1041.050781 824.96875 L 1039.820312 812.386719 L 1038.351562 797.402344 L 1036.78125 781.804688 L 1035.253906 767.382812 L 1033.867188 755.566406 L 1032.59375 746.296875 L 1031.367188 739.148438 L 1030.117188 733.703125 L 1028.792969 729.546875 L 1027.417969 726.335938 L 1026.015625 723.726562 L 1024.628906 721.386719 L 1023.273438 719.027344 L 1021.945312 716.527344 L 1020.628906 713.8125 L 1019.3125 710.8125 L 1017.984375 707.472656 L 1016.644531 703.84375 L 1015.292969 700.003906 L 1013.933594 696.015625 L 1012.574219 691.953125 L 1011.21875 687.867188 L 1009.871094 683.804688 L 1008.542969 679.8125 L 1007.234375 675.90625 L 1005.925781 672.007812 L 1004.601562 668.003906 L 1003.234375 663.785156 L 1001.820312 659.265625 L 1000.410156 654.453125 L 999.058594 649.386719 L 997.839844 644.097656 L 996.730469 638.597656 L 995.378906 632.832031 L 993.363281 626.71875 L 990.246094 620.1875 L 985.734375 613.210938 L 980.039062 605.976562 L 973.503906 598.722656 L 966.480469 591.683594 L 959.269531 585.105469 L 952.015625 579.234375 L 944.828125 574.3125 L 937.8125 570.59375 L 930.996094 568.210938 L 924.082031 566.828125 L 916.703125 566 L 908.488281 565.28125 L 899.308594 564.3125 L 890.03125 563.085938 L 881.769531 561.6875 L 875.632812 560.203125 L 872.289062 558.703125 L 870.648438 557.214844 L 869.175781 555.75 L 866.335938 554.324219 L 861.105469 553.003906 L 854.472656 552.046875 L 847.941406 551.769531 L 843.019531 552.476562 L 840.75 554.363281 L 840.359375 557.140625 L 840.625 560.398438 L 840.324219 563.722656 L 838.601562 566.785156 L 836.136719 569.53125 L 833.96875 571.992188 L 833.152344 574.191406 L 834.335938 576.167969 L 836.582031 578.039062 L 838.554688 579.921875 L 838.917969 581.953125 L 836.789062 584.230469 L 833.097656 586.757812 L 829.238281 589.523438 L 826.585938 592.507812 L 826.074219 595.6875 L 826.816406 599.027344 L 827.472656 602.484375 L 826.691406 606.019531 L 823.640625 609.632812 L 819.46875 613.460938 L 815.835938 617.695312 L 814.402344 622.511719 L 816.066406 627.988281 L 818.730469 633.78125 L 819.546875 639.441406 L 816.519531 644.601562 L 811.113281 649.25 L 805.648438 653.457031 L 802.457031 657.292969 L 803.15625 660.847656 L 806.574219 664.316406 L 810.84375 667.914062 L 814.082031 671.847656 L 814.90625 676.230469 L 813.839844 680.761719 L 811.890625 685.039062 L 810.070312 688.652344 L 809.234375 691.332031 L 809.609375 693.34375 L 811.265625 695.078125 L 814.277344 696.9375 L 818.460938 699.238281 L 822.597656 701.976562 L 825.203125 705.074219 L 824.808594 708.445312 L 820.625 712.027344 L 814.625 715.808594 L 809.472656 719.789062 L 807.835938 723.96875 L 811.597656 728.332031 L 819.519531 732.734375 L 829.578125 737.027344 L 839.753906 741.046875 L 848.328125 744.675781 L 854.792969 747.980469 L 858.953125 751.054688 L 860.597656 754.007812 L 859.746094 756.949219 L 857.292969 760.03125 L 854.339844 763.414062 L 852.003906 767.257812 L 851.03125 771.640625 L 850.753906 776.296875 L 850.140625 780.882812 L 848.160156 785.058594 L 844.160156 788.566406 L 838.964844 791.519531 L 833.769531 794.117188 L 829.777344 796.5625 L 827.640625 799.027344 L 825.867188 801.585938 L 822.414062 804.273438 L 815.242188 807.136719 L 803.410156 810.203125 L 790.34375 813.421875 L 780.566406 816.722656 L 778.597656 820.046875 L 787.113281 823.320312 L 801.410156 826.480469 L 814.933594 829.460938 L 821.136719 832.199219 L 815.585938 834.683594 L 802.308594 837.113281 L 787.449219 839.753906 L 777.15625 842.863281 L 775.753906 846.613281 L 780.261719 850.820312 L 785.882812 855.21875 L 787.816406 859.539062 L 782.753906 863.566406 L 773.351562 867.316406 L 763.75 870.84375 L 758.097656 874.214844 L 759.292969 877.472656 L 765.253906 880.5625 L 772.652344 883.414062 L 778.15625 885.953125 L 779.335938 888.140625 L 777.324219 890.089844 L 774.140625 891.960938 L 771.8125 893.898438 L 771.855469 896.046875 L 773.75 898.492188 L 776.453125 901.304688 L 778.933594 904.558594 L 780.503906 908.269531 L 781.839844 912.203125 L 783.960938 916.0625 L 787.886719 919.554688 L 794.050781 922.503906 L 800.515625 925.1875 L 804.753906 928.011719 L 804.246094 931.371094 L 797.433594 935.589844 L 786.625 940.695312 L 775.101562 946.644531 L 766.144531 953.386719 L 762.175781 960.800781 L 762.167969 968.460938 L 764.242188 975.855469 L 766.515625 982.484375 L 767.496094 987.992188 L 767.28125 992.636719 L 766.351562 996.828125 L 765.191406 1000.980469 L 764.191406 1005.4375 L 763.382812 1010.273438 L 762.703125 1015.492188 L 762.089844 1021.097656 L 761.40625 1027.007812 L 760.261719 1032.742188 L 758.199219 1037.722656 L 754.757812 1041.375 L 749.84375 1043.246094 L 744.824219 1043.359375 L 741.425781 1041.867188 L 740.886719 1038.933594 L 742.445312 1034.804688 L 744.855469 1029.746094 L 746.855469 1024.023438 L 747.503906 1017.910156 L 747.054688 1011.699219 L 746.082031 1005.703125 L 745.144531 1000.230469 L 744.679688 995.492188 L 744.585938 991.324219 L 744.621094 987.46875 L 744.558594 983.667969 L 744.136719 979.722656 L 743.015625 975.648438 L 740.828125 971.523438 L 737.21875 967.421875 L 732.050781 963.390625 L 726.164062 959.359375 L 720.617188 955.238281 L 716.484375 950.929688 L 714.480469 946.347656 L 713.964844 941.464844 L 713.9375 936.257812 L 713.40625 930.710938 L 711.757812 924.855469 L 709.859375 918.964844 L 708.976562 913.363281 L 710.355469 908.378906 L 714.671875 904.253906 L 720.28125 900.902344 L 724.957031 898.152344 L 726.476562 895.84375 L 723.359375 893.820312 L 717.113281 892 L 710 890.304688 L 704.273438 888.675781 L 701.574219 886.933594 L 701.121094 884.503906 L 701.503906 880.699219 L 701.328125 874.839844 L 699.585938 866.507812 L 696.882812 856.375 L 694.210938 845.375 L 692.570312 834.445312 L 692.691406 824.351562 L 694.21875 815.222656 L 696.539062 807.019531 L 699.019531 799.691406 L 701.117188 793.179688 L 702.5625 787.316406 L 703.148438 781.914062 L 702.683594 776.785156 L 701.117188 771.777344 L 699.015625 766.898438 L 697.097656 762.183594 L 696.085938 757.675781 L 696.496094 753.402344 L 698.035156 749.351562 L 700.21875 745.488281 L 702.550781 741.785156 L 704.5625 738.199219 L 705.851562 734.632812 L 706.035156 730.976562 L 704.738281 727.121094 L 701.75 723 L 697.523438 718.703125 L 692.691406 714.371094 L 687.878906 710.136719 L 683.609375 706.0625 L 679.980469 701.933594 L 676.980469 697.457031 L 674.601562 692.34375 L 673 686.414062 L 673.011719 679.933594 L 675.640625 673.285156 L 681.890625 666.839844 L 692.113281 660.921875 L 704.074219 655.605469 L 714.886719 650.90625 L 721.65625 646.835938 L 722.414062 643.378906 L 718.828125 640.339844 L 713.484375 637.492188 L 708.96875 634.617188 L 707.242188 631.542969 L 707.746094 628.351562 L 709.308594 625.1875 L 710.742188 622.191406 L 711.089844 619.484375 L 710.238281 617.085938 L 708.308594 614.992188 L 705.402344 613.203125 L 701.847656 611.628906 L 698.839844 609.890625 L 697.78125 607.511719 L 700.082031 604.03125 L 706.257812 599.152344 L 713.25 593.25 L 717.117188 586.867188 L 713.90625 580.546875 L 701.410156 574.761719 L 684.363281 569.640625 L 669.238281 565.25 L 662.511719 561.640625 L 668.328125 558.824219 L 681.546875 556.585938 L 694.691406 554.664062 L 700.300781 552.800781 L 693.519531 550.789062 L 679.96875 548.652344 L 667.894531 546.464844 L 665.542969 544.3125 L 669.101562 545.855469 "/>
<path style="fill:none;stroke-width:0.75;stroke-linecap:round;stroke-linejoin:round;stroke:rgb(0%,0%,0%);stroke-opacity:1;stroke-miterlimit:10;" d="M 689.132812 140.332031 L 685.960938 143.953125 L 684.546875 147.097656 L 680.261719 149.898438 L 673.753906 152.769531 L 666.976562 156.203125 L 661.472656 160.480469 L 657.113281 165.125 L 653.351562 169.4375 L 649.761719 172.933594 L 646.394531 175.890625 L 643.421875 178.796875 L 640.902344 182.09375 L 638.457031 186.109375 L 635.589844 191.144531 L 632.039062 197.257812 L 628.40625 203.578125 L 625.511719 209 L 623.863281 212.8125 L 622.707031 215.824219 L 620.96875 219.25 L 617.953125 223.933594 L 614.476562 229.320312 L 611.726562 234.496094 L 610.5 238.789062 L 609.980469 242.46875 L 609.15625 245.960938 L 607.871094 249.277344 L 606.179688 252.34375 L 604.160156 255.171875 L 602.03125 258.152344 L 600.039062 261.78125 L 598.351562 266.453125 L 596.824219 272.238281 L 595.238281 279.109375 L 593.492188 287.375 L 591.972656 298.617188 L 591.171875 314.746094 L 591.4375 336.492188 L 592.472656 359.902344 L 593.820312 379.851562 L 595.117188 392.851562 L 596.402344 401.960938 L 597.8125 411.882812 L 599.414062 425.992188 L 600.972656 442.40625 L 602.1875 457.925781 L 602.9375 469.984375 L 603.828125 478.558594 L 605.636719 484.277344 L 608.820312 487.796875 L 612.550781 489.984375 L 615.988281 491.632812 L 619.566406 493.117188 L 624.027344 494.691406 L 629.851562 496.464844 L 636.453125 497.9375 L 642.972656 498.457031 L 648.660156 497.464844 L 653.199219 494.789062 L 656.382812 490.351562 L 658.09375 484.261719 L 658.625 477.367188 L 658.371094 470.695312 L 657.878906 465.046875 L 658.324219 460.332031 L 661.046875 456.214844 L 666.886719 452.414062 L 674.746094 448.785156 L 683.03125 445.234375 L 690.085938 441.609375 L 693.945312 437.605469 L 692.574219 432.867188 L 684.9375 427.285156 L 673.984375 421.707031 L 663.667969 417.230469 L 657.167969 414.574219 L 654.632812 413.03125 L 655.261719 411.546875 L 657.570312 409.191406 L 659.894531 405.074219 L 660.828125 398.691406 L 659.945312 391.167969 L 657.058594 384.03125 L 652.371094 378.496094 L 647.535156 374.566406 L 644.589844 371.933594 L 644.96875 370.226562 L 647.691406 368.78125 L 651.195312 366.855469 L 654.035156 363.9375 L 655.320312 360.414062 L 654.296875 356.878906 L 650.695312 353.800781 L 646.253906 351.050781 L 643.203125 348.363281 L 643.039062 345.515625 L 644.375 342.453125 L 645.089844 339.164062 L 643.683594 335.441406 L 641.097656 330.296875 L 638.695312 322.976562 L 637.078125 314.476562 L 636.644531 306.238281 L 637.449219 299.425781 L 638.175781 294.132812 L 637.152344 290.175781 L 633.59375 287.328125 L 630.210938 285.175781 L 630.585938 283.261719 L 636.910156 281.171875 L 645.773438 278.644531 L 652.371094 275.472656 L 653.273438 271.488281 L 650.53125 266.753906 L 647.570312 261.367188 L 647.027344 255.566406 L 648.394531 250.070312 L 650.375 245.730469 L 651.894531 242.992188 L 652.777344 240.734375 L 653.070312 237.445312 L 652.828125 232.132812 L 652.128906 225.90625 L 651.046875 220.398438 L 650.101562 216.796875 L 651.515625 214.488281 L 656.878906 212.488281 L 663.445312 210.203125 L 667.382812 207.113281 L 666.558594 202.925781 L 665.582031 198.167969 L 670.746094 193.585938 L 686.316406 189.898438 L 708.402344 187.777344 L 731.085938 187.855469 L 749.550781 190.472656 L 763.433594 194.710938 L 773.472656 199.339844 L 780.425781 203.375 L 785.117188 206.8125 L 788.386719 209.894531 L 791.011719 212.824219 L 793.550781 215.621094 L 796.488281 218.273438 L 799.957031 220.765625 L 802.601562 223.09375 L 802.703125 225.265625 L 799.320312 227.273438 L 794.613281 229.09375 L 791.535156 230.691406 L 792.253906 232.304688 L 795.886719 235.269531 L 800.898438 240.65625 L 806.230469 247.480469 L 810.941406 254.246094 L 814.375 259.78125 L 816.988281 264.296875 L 819.523438 268.34375 L 822.496094 272.445312 L 825.535156 277.089844 L 828.046875 282.730469 L 829.625 289.550781 L 830.589844 296.59375 L 831.453125 302.613281 L 832.515625 306.777344 L 833.222656 309.871094 L 832.816406 313.089844 L 830.941406 317.300781 L 828.902344 322.09375 L 828.398438 326.734375 L 830.625 330.6875 L 834.710938 334.191406 L 839.269531 337.691406 L 842.945312 341.746094 L 844.53125 347.417969 L 843.410156 355.355469 L 841.214844 364.082031 L 840.148438 371.601562 L 841.574219 376.496094 L 843.527344 379.753906 L 843.210938 382.953125 L 839 387.222656 L 833.917969 391.925781 L 832.160156 395.96875 L 836.421875 398.707031 L 843.449219 401.230469 L 848.503906 405.058594 L 848.296875 411.308594 L 845.382812 419.464844 L 843.761719 428.597656 L 846.398438 437.777344 L 852.039062 446.046875 L 858.371094 452.4375 L 863.398438 456.335938 L 866.363281 458.546875 L 866.824219 460.210938 L 864.722656 462.296875 L 861.582031 465.0625 L 859.3125 468.570312 L 859.433594 472.730469 L 861.921875 476.789062 L 865.894531 480.058594 L 868.59375 482.78125 L 866.796875 485.4375 L 858.796875 488.375 L 848.984375 491.402344 L 843.273438 494.210938 L 845.796875 496.472656 L 853.546875 497.851562 L 861.734375 498 L 866.703125 496.746094 L 869.351562 494.582031 L 871.710938 492.164062 L 875.355469 489.976562 L 880.042969 487.777344 L 885.0625 485.148438 L 889.910156 481.746094 L 894.835938 477.539062 L 900.285156 472.578125 L 906.402344 466.96875 L 912.179688 461.074219 L 916.304688 455.328125 L 917.867188 449.964844 L 917.578125 444.511719 L 916.53125 438.3125 L 915.601562 431 L 914.710938 423.410156 L 913.613281 416.410156 L 912.269531 409.835938 L 910.710938 403.25 L 909.007812 396.378906 L 907.414062 389.539062 L 906.226562 383.210938 L 905.574219 377.789062 L 904.855469 373.425781 L 903.300781 370.195312 L 900.398438 368.015625 L 896.691406 366.175781 L 892.988281 363.808594 L 889.941406 360.28125 L 887.621094 355.929688 L 885.941406 351.324219 L 884.773438 346.941406 L 883.808594 342.890625 L 882.6875 339.183594 L 881.183594 335.726562 L 879.554688 332.042969 L 878.171875 327.5625 L 877.234375 322.050781 L 876.167969 316.644531 L 874.425781 312.382812 L 872.335938 308.550781 L 870.425781 303.992188 L 869.109375 297.960938 L 868.277344 291.351562 L 867.710938 285.460938 L 867.1875 281.207031 L 866.496094 277.953125 L 865.433594 274.667969 L 863.871094 270.601562 L 861.953125 266.105469 L 859.910156 261.8125 L 857.917969 258.207031 L 856.03125 255.160156 L 854.253906 252.40625 L 852.589844 249.679688 L 850.976562 246.730469 L 849.359375 243.308594 L 847.644531 239.234375 L 845.644531 234.609375 L 843.144531 229.601562 L 840.070312 224.4375 L 836.921875 219.554688 L 834.335938 215.445312 L 832.648438 212.140625 L 830.921875 207.785156 L 828.214844 200.777344 L 824.71875 192.433594 L 820.917969 184.785156 L 817.207031 179.351562 L 813.640625 175.597656 L 810.179688 172.476562 L 806.800781 169.167969 L 803.546875 165.824219 L 800.464844 162.832031 L 797.550781 160.453125 L 794.53125 158.488281 L 791.074219 156.628906 L 786.902344 154.636719 L 781.980469 152.640625 L 776.320312 150.847656 L 769.976562 149.40625 L 763.144531 148.183594 L 756.054688 146.988281 L 749.054688 145.667969 L 742.917969 144.261719 L 738.542969 142.855469 L 734.914062 141.53125 L 723.40625 140.316406 L 693.480469 139.246094 L 689.132812 140.332031 "/>
<path style="fill:none;stroke-width:0.75;stroke-linecap:round;stroke-linejoin:round;stroke:rgb(0%,0%,0%);stroke-opacity:1;stroke-miterlimit:10;" d="M 990.207031 237.613281 L 981.722656 241.820312 L 975.398438 245.613281 L 970.828125 248.925781 L 967.496094 251.78125 L 964.464844 254.507812 L 960.699219 257.527344 L 955.464844 261.125 L 949.289062 265.101562 L 943 269.128906 L 937.308594 272.949219 L 932.386719 276.574219 L 928.296875 280.082031 L 925.089844 283.554688 L 922.683594 287.117188 L 920.433594 291.085938 L 917.570312 295.820312 L 913.613281 301.480469 L 909.273438 307.410156 L 905.554688 312.753906 L 903.203125 316.863281 L 901.898438 319.914062 L 901.070312 322.304688 L 900.132812 324.425781 L 898.734375 326.710938 L 897.417969 329.753906 L 896.9375 334.195312 L 897.816406 340.382812 L 899.5625 347.507812 L 901.433594 354.484375 L 902.867188 360.449219 L 903.988281 365.5 L 905.09375 369.972656 L 906.40625 374.152344 L 907.871094 378.148438 L 909.359375 382.035156 L 910.742188 385.882812 L 911.945312 389.71875 L 913.097656 393.453125 L 914.382812 396.949219 L 915.9375 400.140625 L 917.71875 403.183594 L 919.640625 406.304688 L 921.625 409.636719 L 923.570312 412.996094 L 925.390625 416.105469 L 926.984375 418.691406 L 928.308594 420.695312 L 929.472656 422.886719 L 930.632812 426.257812 L 931.914062 431.53125 L 933.300781 438.410156 L 934.738281 446.34375 L 936.183594 454.734375 L 937.585938 462.832031 L 938.902344 469.839844 L 940.117188 475.199219 L 941.292969 479.308594 L 942.527344 482.785156 L 943.910156 486.257812 L 945.535156 490.183594 L 947.496094 494.359375 L 949.878906 498.402344 L 952.679688 502.113281 L 955.519531 505.976562 L 957.929688 510.644531 L 959.574219 516.546875 L 960.664062 523.203125 L 961.554688 529.914062 L 962.585938 535.976562 L 964.007812 540.859375 L 965.632812 544.71875 L 967.171875 547.875 L 968.425781 550.667969 L 969.550781 553.4375 L 970.789062 556.527344 L 972.296875 560.164062 L 973.898438 564.09375 L 975.324219 567.933594 L 976.402344 571.40625 L 977.347656 574.652344 L 978.453125 577.902344 L 980.03125 581.402344 L 982.289062 585.3125 L 985.082031 589.523438 L 988.164062 593.84375 L 991.300781 598.199219 L 994.207031 602.925781 L 996.613281 608.488281 L 998.324219 615.136719 L 999.539062 622.339844 L 1000.535156 629.371094 L 1001.605469 635.507812 L 1002.953125 640.246094 L 1004.480469 644.035156 L 1005.996094 647.539062 L 1007.363281 651.316406 L 1008.628906 655.460938 L 1009.871094 659.953125 L 1011.164062 664.730469 L 1012.511719 669.515625 L 1013.894531 674.007812 L 1015.304688 677.96875 L 1016.707031 681.515625 L 1018.066406 684.847656 L 1019.347656 688.164062 L 1020.542969 691.65625 L 1021.761719 695.429688 L 1023.144531 699.589844 L 1024.757812 704.160156 L 1026.390625 708.84375 L 1027.753906 713.273438 L 1028.679688 717.175781 L 1029.480469 720.65625 L 1030.578125 723.914062 L 1032.394531 727.15625 L 1035.113281 730.535156 L 1037.886719 734.019531 L 1039.636719 737.535156 L 1039.777344 741.046875 L 1039.765625 744.6875 L 1041.5625 748.648438 L 1046.535156 753.023438 L 1053.613281 757.628906 L 1061.125 762.195312 L 1067.402344 766.457031 L 1071.308594 770.238281 L 1073.863281 773.738281 L 1076.625 777.25 L 1080.839844 780.980469 L 1086.535156 784.789062 L 1093.429688 788.449219 L 1101.089844 791.835938 L 1108.472656 795.214844 L 1114.382812 798.949219 L 1117.957031 803.410156 L 1119.671875 808.964844 L 1120.335938 815.980469 L 1120.75 824.835938 L 1121.519531 835.507812 L 1122.402344 846.425781 L 1122.945312 855.625 L 1122.953125 861.800781 L 1123.210938 866.265625 L 1124.757812 870.992188 L 1128.203125 877.488281 L 1132.488281 885.386719 L 1136.121094 893.855469 L 1137.625 902.070312 L 1136.683594 909.320312 L 1137.703125 915.425781 L 1146.273438 920.3125 L 1165.304688 924 L 1187.054688 926.796875 L 1201.101562 929.089844 L 1200.21875 931.207031 L 1189.941406 933.21875 L 1178.992188 935.140625 L 1174.265625 936.992188 L 1175.363281 938.847656 L 1180.0625 940.777344 L 1186.132812 942.859375 L 1191.648438 945.171875 L 1195.835938 947.773438 L 1198.210938 950.738281 L 1198.640625 954.097656 L 1198.355469 957.804688 L 1198.933594 961.773438 L 1201.464844 965.90625 L 1208.589844 973.921875 L 1210.558594 977.402344 L 1210.628906 980.421875 L 1212.089844 983.53125 L 1219.136719 987.425781 L 1234.136719 992.527344 L 1252.070312 998.109375 L 1266.078125 1003.167969 L 1271.242188 1006.957031 L 1270.378906 1009.800781 L 1268.253906 1012.296875 L 1268.765625 1014.917969 L 1272.414062 1017.699219 L 1278.835938 1020.550781 L 1287.667969 1023.390625 L 1298.28125 1026.042969 L 1308.921875 1027.957031 L 1317.582031 1028.492188 L 1322.855469 1027.171875 L 1325.820312 1024.175781 L 1328.167969 1019.851562 L 1331.136719 1014.582031 L 1334.097656 1008.949219 L 1335.964844 1003.574219 L 1335.652344 999.078125 L 1332.746094 995.863281 L 1329.515625 993.460938 L 1328.910156 991.183594 L 1332.808594 988.460938 L 1338.835938 985.195312 L 1343.566406 981.414062 L 1344.492188 977.140625 L 1342.882812 972.378906 L 1340.925781 967.140625 L 1340.296875 961.460938 L 1340.535156 955.460938 L 1340.667969 949.296875 L 1339.714844 943.109375 L 1337.117188 937.046875 L 1334.023438 931.203125 L 1332.003906 925.660156 L 1332.195312 920.457031 L 1334.011719 915.449219 L 1336.429688 910.453125 L 1338.621094 905.351562 L 1340.523438 900.351562 L 1342.269531 895.722656 L 1343.988281 891.75 L 1345.738281 888.496094 L 1347.261719 885.1875 L 1348.246094 880.839844 L 1348.441406 874.726562 L 1347.96875 867.152344 L 1347.023438 858.679688 L 1345.773438 849.847656 L 1344.253906 841.089844 L 1342.457031 832.816406 L 1340.417969 825.351562 L 1338.285156 818.667969 L 1336.242188 812.652344 L 1334.46875 807.195312 L 1333.078125 802.175781 L 1331.914062 797.484375 L 1330.746094 793.003906 L 1329.410156 788.625 L 1327.964844 784.257812 L 1326.53125 779.824219 L 1325.203125 775.253906 L 1323.9375 770.480469 L 1322.667969 765.460938 L 1321.335938 760.140625 L 1319.894531 754.492188 L 1318.402344 748.632812 L 1316.941406 742.695312 L 1315.617188 736.8125 L 1314.636719 731.09375 L 1314.234375 725.640625 L 1314.519531 720.558594 L 1315.078125 715.992188 L 1315.367188 712.09375 L 1314.851562 709.015625 L 1313.070312 706.78125 L 1309.90625 704.875 L 1305.308594 702.671875 L 1299.390625 699.675781 L 1292.851562 696.03125 L 1286.539062 692.019531 L 1281.167969 687.917969 L 1276.925781 683.914062 L 1273.867188 680.191406 L 1271.976562 676.867188 L 1270.878906 673.816406 L 1270.140625 670.84375 L 1269.3125 667.769531 L 1268.0625 664.476562 L 1266.53125 661.132812 L 1264.960938 657.976562 L 1263.433594 655.203125 L 1261.363281 652.753906 L 1257.996094 650.527344 L 1252.914062 648.367188 L 1247.050781 645.925781 L 1241.675781 642.792969 L 1238.066406 638.566406 L 1237.082031 633.035156 L 1237.960938 626.746094 L 1239.53125 620.421875 L 1240.875 614.488281 L 1242.058594 608.128906 L 1243.402344 600.214844 L 1245.050781 590.023438 L 1246.429688 578.453125 L 1246.789062 566.804688 L 1245.550781 556.199219 L 1242.820312 547.027344 L 1238.875 539.511719 L 1233.992188 533.867188 L 1228.394531 530.023438 L 1222.109375 526.773438 L 1215.101562 522.609375 L 1207.566406 516.4375 L 1200.578125 508.730469 L 1195.429688 500.351562 L 1192.972656 492.09375 L 1192.261719 484.445312 L 1191.910156 477.8125 L 1190.53125 472.601562 L 1187.257812 469.003906 L 1183.347656 466.34375 L 1180.589844 463.738281 L 1180.183594 460.488281 L 1181.019531 456.726562 L 1181.40625 452.78125 L 1180.125 448.898438 L 1177.820312 445 L 1175.613281 440.929688 L 1174.332031 436.5625 L 1173.671875 431.902344 L 1173.042969 426.988281 L 1171.855469 421.867188 L 1169.671875 416.601562 L 1166.636719 411.375 L 1163.046875 406.398438 L 1159.207031 401.804688 L 1155.476562 397.429688 L 1152.214844 393.027344 L 1149.675781 388.359375 L 1147.65625 383.152344 L 1145.832031 377.152344 L 1143.882812 370.082031 L 1141.601562 361.929688 L 1139.214844 353.695312 L 1137.050781 346.628906 L 1135.226562 341.601562 L 1132.96875 337.996094 L 1129.296875 334.8125 L 1123.625 331.285156 L 1117.015625 327.617188 L 1110.941406 324.234375 L 1106.421875 321.414062 L 1102.636719 318.789062 L 1098.300781 315.828125 L 1092.136719 312 L 1083.46875 307.007812 L 1074.027344 301.410156 L 1066.144531 296.007812 L 1061.519531 291.402344 L 1059.300781 287.480469 L 1058 283.941406 L 1056.355469 280.523438 L 1054.0625 277.09375 L 1051.054688 273.554688 L 1047.253906 269.804688 L 1042.765625 265.8125 L 1038.378906 261.808594 L 1035.0625 258.09375 L 1033.34375 254.867188 L 1032.015625 251.90625 L 1029.429688 248.890625 L 1024.21875 245.582031 L 1016.117188 242.082031 L 1005.132812 238.578125 L 991.269531 235.261719 L 990.207031 237.613281 "/>
</g>
</svg>
