<?xml version="1.0" encoding="UTF-8"?>
<svg xmlns="http://www.w3.org/2000/svg" xmlns:xlink="http://www.w3.org/1999/xlink" width="1428pt" height="1605pt" viewBox="0 0 1428 1605" version="1.1">
<g id="surface339">
<rect x="0" y="0" width="1428" height="1605" style="fill:rgb(100%,100%,100%);fill-opacity:1;stroke:none;"/>
<path style="fill:none;stroke-width:0.75;stroke-linecap:round;stroke-linejoin:round;stroke:rgb(0%,0%,0%);stroke-opacity:1;stroke-miterlimit:10;" d="M 689.941406 133.414062 L 682.09375 137.203125 L 675.503906 140.515625 L 669.9375 143.566406 L 665.164062 146.578125 L 660.949219 149.765625 L 657.097656 153.289062 L 653.539062 157.089844 L 650.242188 161.039062 L 647.171875 165.011719 L 644.296875 168.890625 L 641.582031 172.550781 L 638.996094 175.914062 L 636.507812 179.074219 L 634.082031 182.175781 L 631.683594 185.363281 L 629.28125 188.773438 L 626.84375 192.546875 L 624.34375 196.804688 L 621.808594 201.574219 L 619.265625 206.851562 L 616.746094 212.636719 L 614.285156 218.9375 L 611.914062 225.75 L 609.652344 232.992188 L 607.476562 240.214844 L 605.363281 246.894531 L 603.277344 252.5 L 601.191406 256.496094 L 599.058594 258.496094 L 596.78125 258.664062 L 594.246094 257.304688 L 591.335938 254.722656 L 587.941406 251.226562 L 583.945312 247.113281 L 579.257812 242.679688 L 573.855469 238.148438 L 567.75 233.734375 L 560.9375 229.640625 L 553.425781 226.082031 L 545.21875 223.273438 L 536.328125 221.382812 L 526.820312 220.4375 L 516.785156 220.425781 L 506.292969 221.34375 L 495.433594 223.171875 L 484.28125 225.902344 L 472.976562 229.484375 L 461.859375 233.683594 L 451.339844 238.230469 L 441.8125 242.847656 L 433.675781 247.265625 L 427.214844 251.304688 L 422.199219 255.160156 L 418.277344 259.121094 L 415.109375 263.472656 L 412.34375 268.515625 L 409.628906 274.53125 L 406.707031 281.710938 L 403.695312 289.84375 L 400.792969 298.613281 L 398.203125 307.714844 L 396.136719 316.828125 L 394.789062 325.644531 L 394.292969 333.925781 L 394.484375 341.753906 L 395.125 349.277344 L 395.984375 356.652344 L 396.816406 364.035156 L 397.390625 371.574219 L 397.597656 379.375 L 397.839844 387.328125 L 398.65625 395.277344 L 400.578125 403.0625 L 404.140625 410.523438 L 409.613281 417.511719 L 416.195312 423.925781 L 422.832031 429.664062 L 428.453125 434.636719 L 431.996094 438.75 L 432.402344 441.902344 L 428.886719 444.046875 L 421.804688 445.308594 L 411.785156 445.84375 L 399.46875 445.824219 L 385.484375 445.414062 L 370.464844 444.777344 L 354.996094 444.078125 L 339.433594 443.503906 L 324.082031 443.230469 L 309.246094 443.445312 L 295.238281 444.328125 L 282.355469 446.058594 L 270.867188 448.742188 L 260.890625 452.132812 L 252.492188 455.90625 L 245.757812 459.730469 L 240.75 463.28125 L 237.445312 466.3125 L 235.367188 468.875 L 233.945312 471.101562 L 232.59375 473.128906 L 230.738281 475.085938 L 227.804688 477.105469 L 223.378906 479.308594 L 217.730469 481.773438 L 211.300781 484.558594 L 204.519531 487.730469 L 197.832031 491.347656 L 191.671875 495.480469 L 186.363281 500.164062 L 181.789062 505.347656 L 177.71875 510.953125 L 173.921875 516.90625 L 170.171875 523.132812 L 166.234375 529.554688 L 161.949219 536.105469 L 157.433594 542.734375 L 152.867188 549.40625 L 148.4375 556.074219 L 144.332031 562.707031 L 140.726562 569.253906 L 137.757812 575.683594 L 135.324219 581.945312 L 133.28125 587.992188 L 131.46875 593.777344 L 129.742188 599.253906 L 127.972656 604.398438 L 126.148438 609.246094 L 124.285156 613.871094 L 122.386719 618.335938 L 120.472656 622.699219 L 118.554688 627.03125 L 116.644531 631.382812 L 114.757812 635.757812 L 112.910156 640.152344 L 111.113281 644.5625 L 109.382812 648.976562 L 107.730469 653.390625 L 106.171875 657.800781 L 104.679688 662.195312 L 103.21875 666.566406 L 101.761719 670.90625 L 100.277344 675.207031 L 98.730469 679.460938 L 97.109375 683.652344 L 95.433594 687.75 L 93.746094 691.722656 L 92.082031 695.527344 L 90.484375 699.132812 L 88.980469 702.535156 L 87.570312 705.859375 L 86.238281 709.269531 L 84.980469 712.929688 L 83.777344 716.996094 L 82.625 721.632812 L 81.503906 726.953125 L 80.355469 732.890625 L 79.121094 739.332031 L 77.734375 746.167969 L 76.132812 753.277344 L 74.257812 760.550781 L 72.070312 767.925781 L 69.648438 775.527344 L 67.097656 783.535156 L 64.523438 792.125 L 62.027344 801.472656 L 59.722656 811.761719 L 57.699219 823.097656 L 56.011719 835.335938 L 54.707031 848.261719 L 53.832031 861.660156 L 53.429688 875.320312 L 53.519531 889.027344 L 54.011719 902.582031 L 54.785156 915.785156 L 55.722656 928.4375 L 56.699219 940.335938 L 57.605469 951.285156 L 58.347656 961.128906 L 58.972656 969.933594 L 59.566406 977.804688 L 60.199219 984.855469 L 60.960938 991.1875 L 61.921875 996.917969 L 63.140625 1002.148438 L 64.566406 1007 L 66.125 1011.574219 L 67.738281 1015.992188 L 69.332031 1020.359375 L 70.835938 1024.792969 L 72.1875 1029.371094 L 73.421875 1034.074219 L 74.597656 1038.84375 L 75.761719 1043.628906 L 76.96875 1048.378906 L 78.269531 1053.058594 L 79.6875 1057.71875 L 81.246094 1062.4375 L 82.96875 1067.289062 L 84.871094 1072.34375 L 86.976562 1077.679688 L 89.304688 1083.335938 L 91.882812 1089.242188 L 94.738281 1095.300781 L 97.890625 1101.402344 L 101.367188 1107.453125 L 105.191406 1113.34375 L 109.371094 1118.996094 L 113.828125 1124.40625 L 118.460938 1129.59375 L 123.171875 1134.578125 L 127.863281 1139.371094 L 132.4375 1143.992188 L 136.800781 1148.453125 L 140.875 1152.707031 L 144.597656 1156.703125 L 147.894531 1160.394531 L 150.699219 1163.726562 L 152.984375 1166.675781 L 154.871094 1169.332031 L 156.535156 1171.816406 L 158.136719 1174.246094 L 159.847656 1176.742188 L 161.835938 1179.421875 L 164.214844 1182.371094 L 166.894531 1185.5625 L 169.738281 1188.925781 L 172.601562 1192.410156 L 175.34375 1195.941406 L 177.824219 1199.46875 L 179.941406 1202.925781 L 181.761719 1206.292969 L 183.394531 1209.554688 L 184.945312 1212.695312 L 186.519531 1215.691406 L 188.230469 1218.53125 L 190.164062 1221.222656 L 192.339844 1223.878906 L 194.769531 1226.632812 L 197.457031 1229.628906 L 200.40625 1233.003906 L 203.625 1236.890625 L 207.089844 1241.378906 L 210.6875 1246.3125 L 214.273438 1251.492188 L 217.695312 1256.707031 L 220.820312 1261.757812 L 223.550781 1266.484375 L 226.007812 1270.902344 L 228.375 1275.082031 L 230.820312 1279.085938 L 233.519531 1282.984375 L 236.652344 1286.839844 L 240.34375 1290.71875 L 244.546875 1294.652344 L 249.160156 1298.679688 L 254.089844 1302.832031 L 259.234375 1307.140625 L 264.496094 1311.648438 L 269.765625 1316.363281 L 274.875 1321.253906 L 279.632812 1326.265625 L 283.859375 1331.339844 L 287.367188 1336.429688 L 289.96875 1341.476562 L 291.625 1346.429688 L 292.832031 1351.230469 L 294.238281 1355.824219 L 296.488281 1360.152344 L 300.222656 1364.160156 L 305.859375 1367.816406 L 312.910156 1371.210938 L 320.671875 1374.457031 L 328.421875 1377.664062 L 335.453125 1380.945312 L 341.050781 1384.417969 L 344.773438 1388.152344 L 347.246094 1392.035156 L 349.359375 1395.921875 L 352.003906 1399.65625 L 356.074219 1403.09375 L 362.464844 1406.074219 L 371.820312 1408.484375 L 383.851562 1410.3125 L 398.019531 1411.578125 L 413.785156 1412.300781 L 430.617188 1412.503906 L 447.976562 1412.207031 L 465.285156 1411.449219 L 481.800781 1410.359375 L 496.742188 1409.09375 L 509.324219 1407.800781 L 518.761719 1406.632812 L 524.574219 1405.699219 L 527.46875 1404.949219 L 528.457031 1404.296875 L 528.550781 1403.644531 L 528.753906 1402.902344 L 530.082031 1401.988281 L 533.320312 1400.8125 L 538.398438 1399.339844 L 545.011719 1397.542969 L 552.867188 1395.390625 L 561.671875 1392.859375 L 571.125 1389.921875 L 580.933594 1386.5625 L 590.8125 1382.820312 L 600.476562 1378.761719 L 609.648438 1374.4375 L 618.035156 1369.90625 L 625.363281 1365.234375 L 631.457031 1360.457031 L 636.578125 1355.582031 L 641.109375 1350.601562 L 645.425781 1345.503906 L 649.902344 1340.28125 L 654.808594 1334.960938 L 659.96875 1329.742188 L 665.105469 1324.859375 L 669.933594 1320.546875 L 674.167969 1317.039062 L 677.53125 1314.570312 L 679.886719 1313.285156 L 681.691406 1312.949219 L 683.546875 1313.230469 L 686.058594 1313.800781 L 689.828125 1314.328125 L 695.460938 1314.488281 L 703.359375 1314.023438 L 713.136719 1312.949219 L 724.199219 1311.359375 L 735.960938 1309.34375 L 747.832031 1306.996094 L 759.226562 1304.40625 L 769.675781 1301.65625 L 779.230469 1298.789062 L 788.070312 1295.847656 L 796.371094 1292.863281 L 804.308594 1289.878906 L 812.019531 1286.921875 L 819.472656 1284.007812 L 826.59375 1281.136719 L 833.3125 1278.320312 L 839.554688 1275.558594 L 845.25 1272.863281 L 850.378906 1270.214844 L 855.128906 1267.492188 L 859.738281 1264.558594 L 864.457031 1261.277344 L 869.519531 1257.5 L 875.167969 1253.09375 L 881.558594 1247.972656 L 888.472656 1242.269531 L 895.613281 1236.179688 L 902.679688 1229.902344 L 909.363281 1223.621094 L 915.367188 1217.535156 L 920.46875 1211.796875 L 924.785156 1206.433594 L 928.515625 1201.425781 L 931.851562 1196.753906 L 934.992188 1192.410156 L 938.136719 1188.371094 L 941.441406 1184.59375 L 944.910156 1180.917969 L 948.507812 1177.140625 L 952.195312 1173.078125 L 955.941406 1168.523438 L 959.707031 1163.359375 L 963.449219 1157.730469 L 967.132812 1151.851562 L 970.707031 1145.933594 L 974.136719 1140.191406 L 977.378906 1134.839844 L 980.398438 1130.023438 L 983.203125 1125.574219 L 985.804688 1121.253906 L 988.222656 1116.832031 L 990.472656 1112.070312 L 992.5625 1106.730469 L 994.503906 1100.65625 L 996.308594 1094.035156 L 997.972656 1087.128906 L 999.492188 1080.203125 L 1000.875 1073.523438 L 1002.117188 1067.355469 L 1003.238281 1061.894531 L 1004.3125 1057.042969 L 1005.4375 1052.632812 L 1006.707031 1048.496094 L 1008.214844 1044.46875 L 1010.023438 1040.402344 L 1012.0625 1036.230469 L 1014.230469 1031.902344 L 1016.429688 1027.375 L 1018.554688 1022.601562 L 1020.503906 1017.53125 L 1022.199219 1012.132812 L 1023.640625 1006.382812 L 1024.84375 1000.277344 L 1025.835938 993.808594 L 1026.632812 986.972656 L 1027.257812 979.753906 L 1027.730469 972.207031 L 1028.0625 964.585938 L 1028.257812 957.199219 L 1028.328125 950.367188 L 1028.285156 944.394531 L 1028.132812 939.59375 L 1027.898438 936.140625 L 1027.660156 933.660156 L 1027.527344 931.632812 L 1027.585938 929.554688 L 1027.945312 926.902344 L 1028.664062 923.300781 L 1029.648438 918.914062 L 1030.769531 914.027344 L 1031.894531 908.945312 L 1032.890625 903.960938 L 1033.636719 899.363281 L 1034.035156 895.335938 L 1034.171875 891.589844 L 1034.167969 887.710938 L 1034.148438 883.292969 L 1034.238281 877.933594 L 1034.554688 871.222656 L 1035.1875 862.894531 L 1036.050781 853.277344 L 1037.027344 842.839844 L 1038 832.050781 L 1038.84375 821.378906 L 1039.441406 811.296875 L 1039.695312 802.152344 L 1039.613281 793.816406 L 1039.226562 786.042969 L 1038.566406 778.585938 L 1037.664062 771.191406 L 1036.574219 763.714844 L 1035.4375 756.417969 L 1034.417969 749.664062 L 1033.683594 743.808594 L 1033.394531 739.21875 L 1033.71875 736.25 L 1034.792969 735.171875 L 1036.648438 735.878906 L 1039.292969 738.175781 L 1042.734375 741.855469 L 1046.976562 746.722656 L 1052.019531 752.574219 L 1057.835938 759.199219 L 1064.210938 766.332031 L 1070.898438 773.695312 L 1077.640625 781.007812 L 1084.195312 787.992188 L 1090.304688 794.371094 L 1095.765625 799.957031 L 1100.527344 804.929688 L 1104.589844 809.570312 L 1107.953125 814.144531 L 1110.609375 818.933594 L 1112.558594 824.210938 L 1113.839844 830.175781 L 1114.640625 836.707031 L 1115.199219 843.621094 L 1115.75 850.726562 L 1116.527344 857.828125 L 1117.699219 864.753906 L 1119.207031 871.398438 L 1120.929688 877.675781 L 1122.738281 883.496094 L 1124.515625 888.777344 L 1126.132812 893.425781 L 1127.515625 897.398438 L 1128.78125 900.835938 L 1130.089844 903.910156 L 1131.601562 906.808594 L 1133.484375 909.703125 L 1135.890625 912.78125 L 1138.933594 916.171875 L 1142.480469 919.820312 L 1146.34375 923.632812 L 1150.335938 927.511719 L 1154.265625 931.355469 L 1157.953125 935.070312 L 1161.253906 938.59375 L 1164.195312 942.015625 L 1166.855469 945.464844 L 1169.3125 949.066406 L 1171.644531 952.957031 L 1173.933594 957.214844 L 1176.277344 961.75 L 1178.78125 966.4375 L 1181.554688 971.136719 L 1184.699219 975.71875 L 1188.328125 980.050781 L 1192.5 984.054688 L 1197.128906 987.863281 L 1202.085938 991.652344 L 1207.234375 995.609375 L 1212.445312 999.921875 L 1217.59375 1004.765625 L 1222.664062 1010.226562 L 1228.132812 1015.976562 L 1234.59375 1021.578125 L 1242.640625 1026.601562 L 1252.871094 1030.613281 L 1265.878906 1033.183594 L 1281.867188 1034.019531 L 1299.496094 1033.425781 L 1317.03125 1031.84375 L 1332.734375 1029.710938 L 1344.875 1027.476562 L 1352.195312 1025.488281 L 1355.332031 1023.734375 L 1355.394531 1022.105469 L 1353.5 1020.5 L 1350.753906 1018.808594 L 1348.273438 1016.925781 L 1346.96875 1014.777344 L 1346.953125 1012.394531 L 1348.132812 1009.839844 L 1350.429688 1007.183594 L 1353.75 1004.488281 L 1358.003906 1001.816406 L 1363.027344 999.207031 L 1368.328125 996.613281 L 1373.34375 993.957031 L 1377.5 991.171875 L 1380.230469 988.175781 L 1380.964844 984.902344 L 1379.363281 981.324219 L 1376.003906 977.632812 L 1371.695312 974.054688 L 1367.238281 970.832031 L 1363.449219 968.199219 L 1360.941406 966.300781 L 1359.597656 964.929688 L 1359.117188 963.792969 L 1359.1875 962.59375 L 1359.515625 961.03125 L 1359.785156 958.816406 L 1359.746094 955.742188 L 1359.316406 952.007812 L 1358.476562 947.898438 L 1357.191406 943.710938 L 1355.433594 939.734375 L 1353.175781 936.253906 L 1350.445312 933.484375 L 1347.472656 931.289062 L 1344.558594 929.449219 L 1341.992188 927.757812 L 1340.0625 925.996094 L 1339.070312 923.945312 L 1339.199219 921.421875 L 1340.273438 918.359375 L 1341.996094 914.710938 L 1344.082031 910.4375 L 1346.253906 905.5 L 1348.257812 899.902344 L 1350.03125 893.816406 L 1351.542969 887.464844 L 1352.765625 881.066406 L 1353.667969 874.839844 L 1354.222656 869.003906 L 1354.417969 863.738281 L 1354.269531 859.035156 L 1353.816406 854.847656 L 1353.09375 851.125 L 1352.128906 847.820312 L 1350.960938 844.882812 L 1349.632812 842.226562 L 1348.230469 839.625 L 1346.839844 836.804688 L 1345.558594 833.5 L 1344.480469 829.441406 L 1343.695312 824.359375 L 1343.25 818.128906 L 1343.007812 811.167969 L 1342.777344 804.035156 L 1342.371094 797.300781 L 1341.609375 791.523438 L 1340.292969 787.261719 L 1338.332031 784.828125 L 1335.953125 783.519531 L 1333.480469 782.382812 L 1331.230469 780.464844 L 1329.527344 776.808594 L 1328.574219 770.730469 L 1328.121094 762.628906 L 1327.816406 753.171875 L 1327.292969 743.027344 L 1326.191406 732.863281 L 1324.15625 723.347656 L 1320.941406 715.003906 L 1316.757812 707.800781 L 1311.941406 701.5625 L 1306.824219 696.113281 L 1301.734375 691.273438 L 1297.003906 686.875 L 1292.914062 682.75 L 1289.535156 678.792969 L 1286.894531 674.917969 L 1285.011719 671.027344 L 1283.910156 667.03125 L 1283.613281 662.839844 L 1284.078125 658.386719 L 1285.007812 653.722656 L 1286.039062 648.921875 L 1286.808594 644.058594 L 1286.953125 639.207031 L 1286.191406 634.472656 L 1284.542969 630.0625 L 1282.109375 626.203125 L 1278.984375 623.140625 L 1275.269531 621.097656 L 1271.066406 620.3125 L 1266.5 620.882812 L 1261.8125 622.339844 L 1257.277344 624.082031 L 1253.160156 625.511719 L 1249.742188 626.019531 L 1247.285156 625.007812 L 1245.976562 622.070312 L 1245.625 617.570312 L 1245.953125 612.074219 L 1246.691406 606.144531 L 1247.550781 600.34375 L 1248.265625 595.242188 L 1248.621094 591.222656 L 1248.699219 587.992188 L 1248.640625 585.070312 L 1248.59375 581.996094 L 1248.710938 578.289062 L 1249.054688 573.597656 L 1249.40625 568.03125 L 1249.460938 561.824219 L 1248.914062 555.195312 L 1247.46875 548.382812 L 1244.820312 541.605469 L 1240.792969 535.074219 L 1235.71875 528.871094 L 1230.039062 523.050781 L 1224.214844 517.683594 L 1218.695312 512.816406 L 1213.925781 508.515625 L 1210.261719 504.804688 L 1207.613281 501.554688 L 1205.796875 498.609375 L 1204.625 495.808594 L 1203.90625 492.988281 L 1203.453125 489.992188 L 1203.09375 486.6875 L 1202.683594 483.085938 L 1202.09375 479.214844 L 1201.203125 475.113281 L 1199.875 470.820312 L 1198.039062 466.367188 L 1195.824219 461.820312 L 1193.40625 457.230469 L 1190.96875 452.664062 L 1188.695312 448.179688 L 1186.761719 443.839844 L 1185.292969 439.683594 L 1184.199219 435.695312 L 1183.328125 431.847656 L 1182.53125 428.101562 L 1181.660156 424.425781 L 1180.566406 420.792969 L 1179.136719 417.167969 L 1177.417969 413.539062 L 1175.496094 409.90625 L 1173.457031 406.253906 L 1171.390625 402.578125 L 1169.371094 398.875 L 1167.46875 395.117188 L 1165.628906 391.222656 L 1163.78125 387.085938 L 1161.851562 382.613281 L 1159.761719 377.699219 L 1157.472656 372.300781 L 1155.058594 366.59375 L 1152.625 360.816406 L 1150.285156 355.203125 L 1148.136719 349.988281 L 1146.292969 345.40625 L 1144.769531 341.597656 L 1143.238281 338.363281 L 1141.269531 335.40625 L 1138.453125 332.433594 L 1134.359375 329.144531 L 1128.574219 325.25 L 1120.859375 320.558594 L 1111.746094 315.316406 L 1101.941406 309.875 L 1092.167969 304.582031 L 1083.136719 299.792969 L 1075.5625 295.851562 L 1069.960938 292.96875 L 1066.078125 290.761719 L 1063.460938 288.699219 L 1061.652344 286.257812 L 1060.199219 282.90625 L 1058.652344 278.117188 L 1056.546875 271.597656 L 1053.378906 263.992188 L 1048.644531 256.171875 L 1041.835938 249.011719 L 1032.441406 243.394531 L 1020.226562 239.980469 L 1006.023438 238.613281 L 990.941406 238.925781 L 976.097656 240.550781 L 962.589844 243.125 L 951.53125 246.273438 L 943.71875 249.691406 L 938.699219 253.296875 L 935.699219 257.078125 L 933.957031 261.003906 L 932.703125 265.058594 L 931.167969 269.226562 L 928.765625 273.472656 L 925.585938 277.765625 L 921.910156 282.050781 L 918.011719 286.289062 L 914.15625 290.433594 L 910.628906 294.441406 L 907.628906 298.316406 L 905.109375 302.300781 L 902.964844 306.683594 L 901.078125 311.761719 L 899.339844 317.820312 L 897.65625 324.988281 L 895.980469 332.710938 L 894.296875 340.265625 L 892.578125 346.9375 L 890.808594 352.003906 L 888.957031 354.742188 L 887.019531 354.648438 L 885.027344 352.074219 L 883.027344 347.597656 L 881.070312 341.789062 L 879.199219 335.214844 L 877.460938 328.449219 L 875.886719 321.964844 L 874.453125 315.847656 L 873.109375 310.085938 L 871.8125 304.664062 L 870.519531 299.570312 L 869.183594 294.789062 L 867.769531 290.300781 L 866.265625 286.019531 L 864.671875 281.859375 L 862.980469 277.71875 L 861.199219 273.515625 L 859.316406 269.179688 L 857.355469 264.746094 L 855.324219 260.277344 L 853.242188 255.828125 L 851.121094 251.464844 L 848.980469 247.25 L 846.835938 243.21875 L 844.710938 239.34375 L 842.625 235.574219 L 840.605469 231.863281 L 838.671875 228.15625 L 836.855469 224.40625 L 835.160156 220.582031 L 833.554688 216.738281 L 831.996094 212.941406 L 830.445312 209.261719 L 828.847656 205.769531 L 827.167969 202.542969 L 825.371094 199.597656 L 823.484375 196.777344 L 821.542969 193.875 L 819.585938 190.679688 L 817.648438 186.984375 L 815.730469 182.65625 L 813.664062 177.847656 L 811.238281 172.789062 L 808.25 167.703125 L 804.484375 162.820312 L 799.738281 158.371094 L 793.902344 154.53125 L 787.296875 151.328125 L 780.335938 148.734375 L 773.441406 146.726562 L 767.027344 145.28125 L 761.519531 144.378906 L 757.203125 143.960938 L 753.882812 143.835938 L 751.226562 143.78125 L 748.902344 143.578125 L 746.589844 143.003906 L 743.953125 141.832031 L 740.667969 139.941406 L 736.414062 137.585938 L 730.875 135.121094 L 723.734375 132.90625 L 714.675781 131.296875 L 703.375 130.648438 L 689.941406 133.414062 "/>
<path style="fill:none;stroke-width:0.75;stroke-linecap:round;stroke-linejoin:round;stroke:rgb(0%,0%,0%);stroke-opacity:1;stroke-miterlimit:10;" d="M 328.304688 437.191406 L 323.441406 439.378906 L 316.144531 441.753906 L 304.800781 444.550781 L 288.773438 447.890625 L 271.378906 451.496094 L 256.914062 454.996094 L 248.476562 458.085938 L 244.375 460.769531 L 241.722656 463.121094 L 238.300781 465.230469 L 234.582031 467.238281 L 231.714844 469.289062 L 230.835938 471.542969 L 232.289062 474.109375 L 233.183594 476.976562 L 229.828125 480.089844 L 219.972656 483.375 L 207.195312 486.625 L 196.519531 489.617188 L 191.578125 492.265625 L 190.457031 495.050781 L 189.84375 498.589844 L 187.117188 503.351562 L 182.34375 509.207031 L 176.277344 515.867188 L 169.671875 523.054688 L 163.277344 530.457031 L 157.84375 537.6875 L 154.125 544.332031 L 152.417969 550.15625 L 151.261719 555.65625 L 148.742188 561.511719 L 143.621094 568.1875 L 137.351562 575.320312 L 132.066406 582.339844 L 129.371094 588.773438 L 128.746094 594.582031 L 129.152344 599.820312 L 129.539062 604.539062 L 129.035156 608.84375 L 127.449219 612.980469 L 124.761719 617.246094 L 121.113281 621.851562 L 117.269531 626.726562 L 114.15625 631.714844 L 112.429688 636.664062 L 111.621094 641.402344 L 110.976562 645.75 L 109.917969 649.613281 L 108.480469 653.21875 L 106.867188 656.878906 L 105.277344 660.914062 L 103.84375 665.519531 L 102.390625 670.445312 L 100.683594 675.316406 L 98.582031 679.859375 L 96.359375 684.128906 L 94.390625 688.277344 L 92.9375 692.375 L 91.824219 696.25 L 90.753906 699.640625 L 89.503906 702.433594 L 88.09375 705.027344 L 86.625 707.953125 L 85.191406 711.746094 L 83.855469 716.75 L 82.578125 722.554688 L 81.292969 728.554688 L 79.945312 734.28125 L 78.589844 739.804688 L 77.289062 745.316406 L 76.054688 751.089844 L 74.652344 757.71875 L 72.785156 765.878906 L 70.273438 775.914062 L 67.359375 786.855469 L 64.40625 797.40625 L 61.777344 806.269531 L 59.707031 812.84375 L 57.96875 819.316406 L 56.207031 828.570312 L 54.246094 842.582031 L 52.617188 859.652344 L 52.03125 877.175781 L 52.921875 893.003906 L 54.664062 906.824219 L 56.363281 918.777344 L 57.328125 929.117188 L 57.664062 938.539062 L 57.667969 947.847656 L 57.644531 957.84375 L 57.859375 968.90625 L 58.417969 979.742188 L 59.386719 988.621094 L 60.773438 994.367188 L 62.386719 997.953125 L 63.96875 1000.890625 L 65.339844 1004.429688 L 66.5625 1008.734375 L 67.777344 1013.71875 L 69.089844 1019.25 L 70.476562 1025.078125 L 71.886719 1030.929688 L 73.265625 1036.523438 L 74.578125 1041.601562 L 75.867188 1046 L 77.179688 1049.570312 L 78.554688 1052.347656 L 79.964844 1055.105469 L 81.371094 1058.796875 L 82.773438 1064.113281 L 84.34375 1070.675781 L 86.304688 1077.832031 L 88.820312 1085.011719 L 91.820312 1091.917969 L 95.179688 1098.320312 L 98.761719 1103.996094 L 102.449219 1108.820312 L 106.121094 1113.09375 L 109.652344 1117.222656 L 113.035156 1121.59375 L 116.664062 1126.496094 L 121.03125 1132.199219 L 126.4375 1138.769531 L 132.34375 1145.4375 L 138.019531 1151.21875 L 142.855469 1155.398438 L 146.722656 1158.308594 L 149.621094 1160.535156 L 151.554688 1162.675781 L 152.617188 1165.195312 L 153.308594 1168.050781 L 154.222656 1171.082031 L 155.867188 1174.148438 L 158.382812 1177.179688 L 161.8125 1180.136719 L 166.011719 1182.992188 L 170.042969 1185.847656 L 172.761719 1188.820312 L 173.476562 1192.011719 L 173.207031 1195.414062 L 173.417969 1199 L 175.570312 1202.742188 L 180.480469 1206.574219 L 186.355469 1210.246094 L 190.75 1213.472656 L 191.90625 1216.078125 L 190.796875 1218.34375 L 189.074219 1220.667969 L 188.210938 1223.359375 L 188.980469 1226.394531 L 191.988281 1229.652344 L 197.484375 1233.082031 L 204.367188 1236.824219 L 211.183594 1241.074219 L 216.484375 1246.023438 L 219.246094 1251.71875 L 220.144531 1257.574219 L 220.277344 1262.855469 L 220.660156 1267.050781 L 221.910156 1270.550781 L 224.5625 1273.964844 L 228.871094 1277.78125 L 234.011719 1281.996094 L 238.882812 1286.476562 L 242.6875 1291.082031 L 245.878906 1295.667969 L 249.21875 1300.078125 L 253.464844 1304.15625 L 259.0625 1307.847656 L 265.207031 1311.449219 L 270.777344 1315.367188 L 274.972656 1319.90625 L 278.238281 1325.007812 L 281.328125 1330.515625 L 284.832031 1336.265625 L 288.625 1341.992188 L 292.40625 1347.417969 L 295.90625 1352.316406 L 298.960938 1356.6875 L 301.453125 1360.589844 L 303.242188 1364.082031 L 304.554688 1367.253906 L 307.015625 1370.339844 L 312.597656 1373.597656 L 322.367188 1377.214844 L 333.714844 1381.074219 L 343.117188 1384.972656 L 348.117188 1388.757812 L 350.492188 1392.402344 L 353.078125 1395.921875 L 357.957031 1399.324219 L 364.117188 1402.566406 L 369.800781 1405.589844 L 373.230469 1408.351562 L 374.144531 1410.742188 L 378.253906 1412.460938 L 392.78125 1413.15625 L 421.792969 1412.648438 L 456.738281 1411.472656 L 485.921875 1410.34375 L 500.777344 1409.761719 L 505.25 1409.433594 L 506.421875 1408.851562 L 509.933594 1407.652344 L 515.679688 1406.0625 L 522.125 1404.445312 L 527.730469 1403.164062 L 531.316406 1402.46875 L 533.175781 1402.148438 L 533.953125 1401.871094 L 534.460938 1401.332031 L 536.152344 1400.324219 L 540.636719 1398.667969 L 548.964844 1396.246094 L 559.953125 1393.183594 L 571.867188 1389.675781 L 583.226562 1385.898438 L 593.609375 1381.957031 L 602.855469 1377.941406 L 610.8125 1373.949219 L 617.460938 1370.003906 L 623.339844 1365.886719 L 629.148438 1361.320312 L 635.371094 1356.132812 L 641.722656 1350.597656 L 647.730469 1345.105469 L 652.980469 1339.910156 L 657.328125 1334.742188 L 660.707031 1329.207031 L 663.066406 1322.972656 L 664.46875 1315.992188 L 665 1308.292969 L 664.75 1299.902344 L 663.835938 1290.890625 L 662.5 1281.511719 L 661.019531 1272.066406 L 659.613281 1262.855469 L 658.285156 1254.214844 L 656.976562 1246.488281 L 655.644531 1239.550781 L 654.292969 1231.445312 L 652.933594 1219.757812 L 651.585938 1202.730469 L 650.246094 1181.28125 L 648.910156 1156.988281 L 647.574219 1131.429688 L 646.234375 1106.429688 L 644.894531 1084.808594 L 643.550781 1069.628906 L 642.203125 1062.488281 L 640.859375 1059.078125 L 639.515625 1053.621094 L 638.175781 1041.585938 L 636.835938 1023.425781 L 635.496094 1000.832031 L 634.15625 975.480469 L 632.816406 948.960938 L 631.472656 922.84375 L 630.128906 898.695312 L 628.78125 877.878906 L 627.4375 860.933594 L 626.09375 848.199219 L 624.757812 839.613281 L 623.417969 833.515625 L 622.082031 827.84375 L 620.738281 821.101562 L 619.394531 813.992188 L 618.046875 807.78125 L 616.703125 803.253906 L 615.359375 799.296875 L 614.019531 794.328125 L 612.679688 786.753906 L 611.339844 775.578125 L 610 762.152344 L 608.660156 748.425781 L 607.316406 736.042969 L 605.96875 725.464844 L 604.625 716.847656 L 603.28125 710.21875 L 601.941406 705.074219 L 600.601562 700.769531 L 599.265625 696.796875 L 597.925781 693.136719 L 596.585938 689.90625 L 595.238281 687.222656 L 593.886719 685.0625 L 592.535156 682.882812 L 591.195312 679.992188 L 589.871094 675.703125 L 588.550781 669.277344 L 587.210938 659.957031 L 585.839844 647.550781 L 584.464844 634.066406 L 583.113281 622.074219 L 581.808594 613.535156 L 580.519531 608.019531 L 579.210938 604.484375 L 577.84375 601.894531 L 576.394531 599.175781 L 574.957031 595.058594 L 573.644531 588.242188 L 572.449219 578.023438 L 570.902344 566.152344 L 568.417969 554.976562 L 564.554688 546.289062 L 559.4375 539.628906 L 553.339844 533.964844 L 546.582031 528.511719 L 539.699219 523.449219 L 533.277344 519.179688 L 527.90625 516.125 L 523.9375 514.507812 L 520.839844 513.824219 L 517.851562 513.386719 L 514.394531 512.621094 L 510.6875 511.390625 L 507.128906 509.675781 L 503.984375 507.453125 L 500.964844 504.679688 L 497.632812 501.304688 L 493.671875 497.351562 L 489.226562 493.164062 L 484.554688 489.167969 L 479.917969 485.78125 L 475.554688 483.304688 L 471.59375 481.53125 L 468.152344 480.140625 L 465.230469 478.824219 L 462.417969 477.359375 L 459.191406 475.53125 L 455.207031 473.1875 L 450.761719 470.40625 L 446.332031 467.324219 L 442.214844 464.097656 L 438.054688 460.921875 L 433.316406 458.03125 L 427.46875 455.636719 L 420.4375 453.886719 L 413.96875 452.609375 L 410.261719 451.554688 L 410.132812 450.496094 L 408.816406 449.238281 L 400.167969 447.613281 L 380.453125 445.496094 L 355.636719 442.957031 L 334.085938 440.117188 L 324.179688 437.09375 L 328.304688 437.191406 "/>
<path style="fill:none;stroke-width:0.75;stroke-linecap:round;stroke-linejoin:round;stroke:rgb(0%,0%,0%);stroke-opacity:1;stroke-miterlimit:10;" d="M 491.769531 221.058594 L 479.726562 225.964844 L 467.71875 230.210938 L 457.652344 234.183594 L 449.148438 238.082031 L 441.308594 241.996094 L 434.246094 246.078125 L 428.636719 250.835938 L 424.613281 256.320312 L 420.460938 261.011719 L 416.210938 265.214844 L 412.523438 269.589844 L 410.035156 273.792969 L 408.398438 277.386719 L 407.0625 280.679688 L 405.722656 286.734375 L 404.445312 299.035156 L 403.515625 319.632812 L 403.582031 344.410156 L 404.472656 365.199219 L 405.800781 376.550781 L 407.222656 384.644531 L 408.625 391.605469 L 409.980469 397.519531 L 411.332031 402.050781 L 412.851562 405.675781 L 414.683594 409.039062 L 416.777344 412.414062 L 419.167969 415.570312 L 422.203125 418.539062 L 426.847656 422.296875 L 432.175781 426.285156 L 436.867188 429.53125 L 440.359375 431.597656 L 443.078125 432.933594 L 445.589844 434.109375 L 448.234375 435.410156 L 451.414062 437.234375 L 455.4375 439.890625 L 459.933594 443.03125 L 464.0625 445.824219 L 467.175781 447.675781 L 469.605469 449.085938 L 471.675781 450.359375 L 473.78125 451.679688 L 477.183594 453.117188 L 484.382812 454.496094 L 497.816406 455.390625 L 518 455.390625 L 539.054688 454.496094 L 557.027344 453.109375 L 569.546875 451.660156 L 577.046875 450.304688 L 581.574219 449.050781 L 585.125 447.847656 L 588.371094 446.429688 L 591.519531 444.1875 L 594.53125 440.578125 L 596.738281 435.578125 L 597.871094 428.832031 L 597.84375 420.246094 L 596.855469 410.785156 L 595.351562 400.214844 L 593.769531 387.273438 L 592.328125 368.734375 L 591.445312 342.882812 L 591.515625 312.582031 L 592.511719 292.230469 L 593.886719 281.605469 L 594.925781 275.773438 L 594.949219 270.648438 L 594.167969 266.164062 L 593.054688 262.808594 L 591.96875 259.539062 L 590.644531 255.992188 L 588.285156 251.84375 L 583.105469 246.269531 L 575.164062 240.105469 L 565.585938 234.464844 L 556.851562 229.652344 L 549.226562 225.589844 L 542.472656 222.476562 L 536.660156 221.335938 L 530.964844 221.394531 L 523.789062 221.445312 L 512.40625 220.898438 L 497.246094 220.089844 L 491.769531 221.058594 "/>
<path style="fill:none;stroke-width:0.75;stroke-linecap:round;stroke-linejoin:round;stroke:rgb(0%,0%,0%);stroke-opacity:1;stroke-miterlimit:10;" d="M 523.441406 488.683594 L 518.070312 493.777344 L 518.070312 498.574219 L 515.386719 503.007812 L 515.386719 507.40625 L 520.753906 511.097656 L 523.441406 513.359375 L 526.125 514.832031 L 531.492188 515.925781 L 534.175781 517.210938 L 536.859375 518.949219 L 542.226562 521.828125 L 544.910156 526.15625 L 555.648438 532.867188 L 555.648438 540.761719 L 571.75 548.171875 L 577.117188 550.890625 L 582.488281 549.046875 L 582.488281 545.617188 L 585.171875 542.347656 L 585.171875 539.75 L 587.855469 537.882812 L 590.539062 536.179688 L 590.539062 533.050781 L 595.90625 527.511719 L 595.90625 520.128906 L 593.222656 512.453125 L 593.222656 504.890625 L 595.90625 499.484375 L 595.90625 495.863281 L 598.589844 492.800781 L 593.222656 489.933594 L 523.441406 487.773438 L 523.441406 488.683594 "/>
<path style="fill:none;stroke-width:0.75;stroke-linecap:round;stroke-linejoin:round;stroke:rgb(0%,0%,0%);stroke-opacity:1;stroke-miterlimit:10;" d="M 626.164062 531.601562 L 620.285156 533.246094 L 614.28125 535.03125 L 608.734375 536.671875 L 604.214844 537.863281 L 601.074219 538.464844 L 598.757812 538.933594 L 596.484375 539.882812 L 593.460938 541.925781 L 589.175781 545.515625 L 584.128906 550.46875 L 579.101562 556.460938 L 574.855469 563.144531 L 572.171875 570.195312 L 571.570312 577.257812 L 572.578125 583.929688 L 574.492188 589.789062 L 576.589844 594.414062 L 578.300781 597.632812 L 579.636719 600.261719 L 580.746094 603.363281 L 581.785156 608 L 582.894531 615.234375 L 584.199219 625.664062 L 585.644531 638.023438 L 587.148438 650.578125 L 588.628906 661.601562 L 590.023438 669.765625 L 591.335938 675.363281 L 592.609375 679.101562 L 593.875 681.675781 L 595.164062 683.785156 L 596.496094 686.035156 L 597.867188 688.609375 L 599.253906 691.605469 L 600.632812 695.105469 L 601.988281 699.25 L 603.320312 704.367188 L 604.644531 710.839844 L 605.96875 719.042969 L 607.292969 729.355469 L 608.632812 741.855469 L 609.980469 755.410156 L 611.335938 768.578125 L 612.6875 779.933594 L 614.03125 788.410156 L 615.375 794.472656 L 616.714844 798.949219 L 618.054688 802.679688 L 619.390625 806.496094 L 620.726562 811.121094 L 622.066406 816.828125 L 623.40625 823.777344 L 624.75 832.132812 L 626.101562 842.148438 L 627.453125 854.457031 L 628.800781 869.777344 L 630.148438 888.839844 L 631.480469 912.371094 L 632.804688 940.363281 L 634.125 969.914062 L 635.453125 997.390625 L 636.800781 1019.152344 L 638.167969 1032.746094 L 639.550781 1040.421875 L 640.925781 1045.621094 L 642.28125 1051.769531 L 643.601562 1062.296875 L 644.875 1079.613281 L 646.136719 1101.992188 L 647.421875 1126.679688 L 648.777344 1150.933594 L 650.21875 1172.496094 L 651.707031 1191.144531 L 653.179688 1207.144531 L 654.570312 1220.777344 L 655.824219 1232.308594 L 656.910156 1242.03125 L 657.949219 1250.332031 L 659.085938 1257.609375 L 660.480469 1264.257812 L 662.210938 1270.605469 L 664.109375 1276.6875 L 665.929688 1282.449219 L 667.429688 1287.851562 L 668.371094 1292.847656 L 668.664062 1297.382812 L 668.84375 1301.371094 L 669.601562 1304.703125 L 671.621094 1307.285156 L 675.324219 1309.070312 L 680.0625 1310.234375 L 684.914062 1311.015625 L 688.960938 1311.648438 L 691.285156 1312.367188 L 691.460938 1313.3125 L 691.023438 1314.265625 L 692.011719 1314.921875 L 696.449219 1314.964844 L 705.746094 1314.164062 L 718.804688 1312.574219 L 733.894531 1310.328125 L 749.289062 1307.554688 L 763.265625 1304.386719 L 774.515625 1300.96875 L 783.402344 1297.515625 L 790.714844 1294.246094 L 797.238281 1291.390625 L 803.636719 1289.082031 L 810.109375 1287.121094 L 816.746094 1285.210938 L 823.625 1283.0625 L 830.832031 1280.386719 L 838.347656 1277.003906 L 845.769531 1273.160156 L 852.589844 1269.222656 L 858.308594 1265.554688 L 862.628906 1262.402344 L 866.085938 1259.53125 L 869.425781 1256.601562 L 873.390625 1253.265625 L 878.730469 1249.167969 L 885.902344 1244.066406 L 894.230469 1238.117188 L 902.769531 1231.5625 L 910.554688 1224.660156 L 916.847656 1217.667969 L 921.777344 1210.867188 L 925.683594 1204.558594 L 928.910156 1199.03125 L 931.800781 1194.582031 L 934.652344 1191.339844 L 937.617188 1188.808594 L 940.792969 1186.324219 L 944.292969 1183.234375 L 948.164062 1179.042969 L 952.265625 1173.921875 L 956.40625 1168.210938 L 960.386719 1162.242188 L 964.011719 1156.359375 L 967.171875 1150.824219 L 970.058594 1145.605469 L 972.957031 1140.585938 L 976.144531 1135.664062 L 979.792969 1130.75 L 983.632812 1125.824219 L 987.28125 1120.894531 L 990.367188 1115.964844 L 992.503906 1111.039062 L 993.492188 1106.085938 L 993.8125 1100.898438 L 994.117188 1095.25 L 995.0625 1088.890625 L 997.101562 1081.722656 L 999.894531 1074.160156 L 1002.890625 1066.765625 L 1005.550781 1060.085938 L 1007.328125 1054.671875 L 1007.890625 1050.859375 L 1007.722656 1048.074219 L 1007.53125 1045.515625 L 1008.007812 1042.394531 L 1009.671875 1038.113281 L 1012.273438 1032.894531 L 1015.378906 1027.164062 L 1018.558594 1021.351562 L 1021.378906 1015.878906 L 1023.503906 1011.011719 L 1024.972656 1006.355469 L 1025.917969 1001.355469 L 1026.476562 995.449219 L 1026.777344 988.273438 L 1026.921875 980.1875 L 1027.015625 971.726562 L 1027.152344 963.445312 L 1027.429688 955.882812 L 1027.902344 949.472656 L 1028.417969 944.203125 L 1028.773438 939.957031 L 1028.765625 936.617188 L 1028.285156 934.007812 L 1027.582031 931.792969 L 1026.996094 929.574219 L 1026.863281 926.957031 L 1027.527344 923.558594 L 1029.164062 919.125 L 1031.316406 914.007812 L 1033.351562 908.699219 L 1034.652344 903.695312 L 1034.78125 899.347656 L 1034.082031 895.457031 L 1033.078125 891.679688 L 1032.304688 887.683594 L 1032.285156 883.125 L 1033.359375 877.6875 L 1035.09375 871.160156 L 1036.859375 863.359375 L 1038.027344 854.097656 L 1038.132812 843.339844 L 1037.324219 831.660156 L 1035.910156 819.777344 L 1034.199219 808.414062 L 1032.5 798.292969 L 1031.054688 789.945312 L 1029.8125 783.140625 L 1028.65625 777.449219 L 1027.476562 772.453125 L 1026.179688 767.777344 L 1024.789062 763.257812 L 1023.351562 758.789062 L 1021.914062 754.257812 L 1020.527344 749.550781 L 1019.21875 744.574219 L 1017.960938 739.257812 L 1016.703125 733.558594 L 1015.394531 727.417969 L 1014 720.835938 L 1011.109375 707.179688 L 1009.710938 700.59375 L 1008.410156 694.496094 L 1007.234375 689.054688 L 1006.097656 684.15625 L 1004.910156 679.609375 L 1003.558594 675.222656 L 1001.980469 670.851562 L 1000.226562 666.570312 L 998.378906 662.492188 L 996.523438 658.738281 L 994.742188 655.421875 L 993.097656 652.597656 L 991.550781 650.050781 L 990.046875 647.492188 L 988.515625 644.644531 L 986.925781 641.269531 L 985.34375 637.359375 L 983.859375 632.941406 L 982.558594 628.050781 L 981.53125 622.730469 L 980.792969 617.039062 L 980.039062 611.171875 L 978.878906 605.355469 L 976.933594 599.808594 L 973.9375 594.71875 L 970.085938 590.09375 L 965.707031 585.90625 L 961.113281 582.125 L 956.628906 578.71875 L 952.464844 575.625 L 948.421875 572.644531 L 944.179688 569.546875 L 939.433594 566.105469 L 933.945312 562.191406 L 927.753906 558.082031 L 920.984375 554.164062 L 913.753906 550.816406 L 906.175781 548.421875 L 898.421875 547.191406 L 890.839844 546.65625 L 883.828125 546.175781 L 877.792969 545.109375 L 872.992188 543.042969 L 869.152344 540.476562 L 865.875 538.144531 L 862.753906 536.773438 L 859.375 537.089844 L 855.492188 539.585938 L 851.445312 543.808594 L 847.734375 549.070312 L 844.851562 554.671875 L 843.125 560.035156 L 842.1875 564.988281 L 841.511719 569.472656 L 840.5625 573.433594 L 838.804688 576.808594 L 835.945312 579.578125 L 832.636719 581.894531 L 829.769531 583.9375 L 828.234375 585.898438 L 828.621094 587.9375 L 830.308594 590.082031 L 832.375 592.335938 L 833.894531 594.699219 L 833.953125 597.175781 L 831.953125 599.75 L 828.667969 602.335938 L 825.195312 604.824219 L 822.636719 607.113281 L 821.777344 609.140625 L 822.164062 610.984375 L 823.03125 612.777344 L 823.613281 614.640625 L 823.144531 616.703125 L 821.09375 619.09375 L 817.886719 621.964844 L 814.175781 625.480469 L 810.617188 629.800781 L 807.746094 634.96875 L 805.574219 640.609375 L 803.996094 646.226562 L 802.898438 651.324219 L 802.175781 655.414062 L 801.738281 658.179688 L 801.566406 660.015625 L 801.671875 661.496094 L 802.054688 663.195312 L 802.726562 665.574219 L 803.730469 668.621094 L 805.105469 672.207031 L 806.898438 676.207031 L 809.15625 680.496094 L 811.859375 684.933594 L 814.765625 689.320312 L 817.574219 693.453125 L 819.980469 697.117188 L 821.726562 700.183594 L 822.707031 702.839844 L 822.859375 705.339844 L 822.125 707.953125 L 820.441406 710.933594 L 817.90625 714.460938 L 815.285156 718.375 L 813.503906 722.433594 L 813.484375 726.398438 L 815.890625 730.070312 L 820.355469 733.449219 L 826.242188 736.585938 L 832.917969 739.527344 L 839.753906 742.320312 L 846.160156 745.023438 L 851.753906 747.722656 L 856.1875 750.519531 L 859.128906 753.507812 L 860.339844 756.769531 L 860.023438 760.296875 L 858.472656 764.0625 L 856 768.046875 L 852.90625 772.226562 L 849.5 776.542969 L 846.132812 780.839844 L 843.148438 784.933594 L 840.902344 788.636719 L 839.527344 791.816406 L 838.300781 794.558594 L 836.277344 797.007812 L 832.507812 799.3125 L 826.046875 801.609375 L 816.550781 804.027344 L 806.058594 806.640625 L 797.207031 809.496094 L 792.632812 812.644531 L 794.101562 816.101562 L 799.921875 819.722656 L 807.527344 823.328125 L 814.359375 826.730469 L 817.855469 829.75 L 816.253906 832.285156 L 811.023438 834.554688 L 804.4375 836.859375 L 798.773438 839.5 L 795.738281 842.6875 L 794.824219 846.257812 L 794.953125 849.964844 L 795.054688 853.550781 L 794.054688 856.765625 L 791.195312 859.453125 L 786.964844 861.824219 L 782.164062 864.183594 L 777.601562 866.835938 L 773.992188 869.996094 L 771.734375 873.511719 L 771.125 877.144531 L 772.476562 880.648438 L 776.09375 883.777344 L 781.949219 886.371094 L 788.664062 888.546875 L 794.523438 890.503906 L 797.820312 892.4375 L 797.375 894.523438 L 794.167969 896.863281 L 789.710938 899.523438 L 785.523438 902.585938 L 783.117188 906.125 L 783.632812 910.128906 L 786.675781 914.25 L 791.472656 918.050781 L 797.257812 921.09375 L 803.222656 923.121094 L 808.421875 924.578125 L 811.867188 926.089844 L 812.582031 928.277344 L 809.582031 931.769531 L 802.449219 937.023438 L 793.019531 943.847656 L 783.691406 951.886719 L 776.867188 960.78125 L 774.277344 970.15625 L 774.996094 979.542969 L 777.417969 988.457031 L 779.945312 996.410156 L 780.984375 1002.917969 L 779.40625 1007.722656 L 776 1011.527344 L 772.027344 1015.269531 L 768.746094 1019.878906 L 767.074219 1026.003906 L 766.570312 1033.132812 L 766.449219 1040.460938 L 765.925781 1047.1875 L 764.210938 1052.503906 L 760.824219 1055.78125 L 756.480469 1057.050781 L 752.199219 1056.5 L 749 1054.335938 L 747.625 1050.753906 L 747.71875 1045.957031 L 748.644531 1040.15625 L 749.773438 1033.5625 L 750.472656 1026.382812 L 750.332031 1018.871094 L 749.84375 1011.453125 L 749.730469 1004.605469 L 750.703125 998.804688 L 753.1875 994.363281 L 756.429688 990.984375 L 759.386719 988.207031 L 761.007812 985.574219 L 760.25 982.628906 L 756.433594 979.0625 L 750.355469 975.160156 L 743.179688 971.347656 L 736.074219 968.066406 L 729.988281 965.585938 L 725.042969 963.570312 L 721.148438 961.523438 L 718.214844 958.949219 L 716.152344 955.351562 L 714.824219 950.386719 L 713.917969 944.320312 L 713.078125 937.574219 L 711.949219 930.558594 L 710.335938 923.667969 L 708.71875 917.183594 L 707.742188 911.359375 L 708.050781 906.449219 L 710.285156 902.707031 L 714.695312 900.265625 L 719.96875 898.75 L 724.382812 897.664062 L 726.230469 896.515625 L 724.316406 894.914062 L 719.542969 892.894531 L 713.328125 890.605469 L 707.097656 888.195312 L 702.273438 885.804688 L 699.867188 883.425781 L 699.230469 880.410156 L 699.324219 875.949219 L 699.09375 869.234375 L 697.777344 859.785156 L 695.8125 848.410156 L 693.921875 836.238281 L 692.824219 824.398438 L 693.246094 814.027344 L 695.601562 805.960938 L 699.050781 799.875 L 702.433594 795.144531 L 704.605469 791.152344 L 704.734375 787.367188 L 703.308594 783.582031 L 701.128906 779.6875 L 699.011719 775.570312 L 697.761719 771.109375 L 697.90625 766.175781 L 698.847656 760.59375 L 699.714844 754.164062 L 699.621094 746.695312 L 697.917969 738.140625 L 694.847656 729.046875 L 690.878906 720.121094 L 686.480469 712.058594 L 682.117188 705.5625 L 678.183594 701.070312 L 674.78125 697.976562 L 671.929688 695.402344 L 669.65625 692.480469 L 668.066406 688.535156 L 667.636719 683.667969 L 668.917969 678.1875 L 672.472656 672.386719 L 678.863281 666.574219 L 688.167969 661.011719 L 698.589844 655.835938 L 707.855469 651.15625 L 713.6875 647.074219 L 714.527344 643.632812 L 711.632812 640.65625 L 706.980469 637.90625 L 702.546875 635.152344 L 700.300781 632.152344 L 701.5625 628.765625 L 705.019531 625.21875 L 708.699219 621.828125 L 710.640625 618.910156 L 709.421875 616.664062 L 705.832031 614.816406 L 701.207031 612.964844 L 696.878906 610.710938 L 694.191406 607.660156 L 694.070312 603.566406 L 695.816406 598.800781 L 698.320312 593.882812 L 700.476562 589.335938 L 701.339844 585.558594 L 700.605469 582.425781 L 698.125 579.683594 L 693.761719 577.082031 L 687.367188 574.371094 L 679.164062 571.375 L 670.824219 568.214844 L 664.382812 565.085938 L 661.882812 562.1875 L 664.582031 559.652344 L 670.613281 557.382812 L 677.339844 555.210938 L 682.125 552.972656 L 682.320312 550.507812 L 676.320312 547.707031 L 666.613281 544.730469 L 656.722656 541.785156 L 650.167969 539.09375 L 649.171875 536.816406 L 650.78125 534.933594 L 650.753906 533.371094 L 644.832031 532.058594 L 628.769531 530.925781 L 626.164062 531.601562 "/>
<path style="fill:none;stroke-width:0.75;stroke-linecap:round;stroke-linejoin:round;stroke:rgb(0%,0%,0%);stroke-opacity:1;stroke-miterlimit:10;" d="M 693.3125 137.117188 L 687.476562 138.613281 L 681.476562 140.132812 L 675.523438 142.082031 L 669.832031 144.699219 L 664.714844 147.601562 L 660.484375 150.242188 L 657.335938 152.289062 L 654.957031 154.269531 L 652.894531 156.917969 L 650.753906 160.722656 L 648.3125 165.179688 L 645.382812 169.535156 L 641.90625 173.21875 L 638.3125 176.355469 L 635.152344 179.257812 L 632.839844 182.167969 L 631.207031 185.074219 L 629.949219 187.890625 L 628.796875 190.589844 L 627.621094 193.359375 L 626.339844 196.429688 L 624.847656 200.011719 L 622.933594 204.195312 L 620.371094 209.042969 L 617.089844 214.558594 L 613.621094 220.46875 L 610.664062 226.433594 L 608.695312 232.207031 L 607.339844 237.917969 L 606.003906 243.789062 L 604.246094 249.9375 L 602.199219 256.105469 L 600.152344 261.933594 L 598.320312 267.261719 L 596.65625 272.691406 L 595.046875 279.027344 L 593.457031 287.195312 L 592.140625 298.648438 L 591.441406 314.960938 L 591.597656 336.625 L 592.425781 359.8125 L 593.648438 379.605469 L 595.027344 392.667969 L 596.472656 401.96875 L 597.933594 412.054688 L 599.363281 426.195312 L 600.703125 442.523438 L 601.898438 457.898438 L 602.960938 469.8125 L 604.199219 478.320312 L 605.992188 484.121094 L 608.625 487.890625 L 612 490.246094 L 615.929688 491.785156 L 620.21875 493.113281 L 624.769531 494.671875 L 629.8125 496.3125 L 635.671875 497.714844 L 642.394531 498.496094 L 648.941406 497.953125 L 654.003906 495.3125 L 656.640625 490.089844 L 657.445312 483.050781 L 657.375 475.242188 L 657.328125 467.644531 L 657.9375 460.890625 L 659.757812 455.53125 L 663.21875 451.902344 L 668.214844 449.453125 L 674.496094 447.421875 L 681.578125 445.199219 L 688 442.835938 L 692.070312 440.535156 L 692.609375 438.382812 L 690.519531 435.976562 L 687.238281 432.800781 L 683.796875 428.589844 L 679.632812 424.109375 L 673.789062 420.378906 L 665.890625 418.015625 L 657.84375 416.050781 L 652.144531 413.097656 L 650.546875 408.179688 L 651.816406 401.875 L 653.992188 395.15625 L 655.34375 388.886719 L 655.097656 383.464844 L 652.707031 379.183594 L 648.125 376.195312 L 643.242188 374.160156 L 640.445312 372.597656 L 641.394531 371.066406 L 644.917969 369.292969 L 649.125 367.039062 L 652.328125 364.15625 L 653.59375 360.894531 L 652.195312 357.597656 L 647.882812 354.523438 L 642.367188 351.550781 L 637.855469 348.464844 L 635.960938 345.097656 L 635.960938 341.429688 L 636.539062 337.480469 L 636.640625 333.261719 L 636.214844 328.761719 L 635.453125 323.949219 L 634.539062 318.816406 L 633.554688 313.414062 L 632.578125 307.8125 L 631.675781 302.078125 L 630.976562 296.332031 L 630.839844 290.953125 L 631.679688 286.375 L 633.730469 282.875 L 636.488281 280.15625 L 639.269531 277.761719 L 641.480469 275.28125 L 642.929688 272.460938 L 643.519531 269.089844 L 643.273438 265.058594 L 642.695312 260.667969 L 642.421875 256.3125 L 642.910156 252.320312 L 643.914062 248.746094 L 645.027344 245.570312 L 645.855469 242.644531 L 646.128906 239.300781 L 645.59375 234.726562 L 644.261719 228.507812 L 643.167969 221.78125 L 643.605469 216.0625 L 646.429688 212.410156 L 650.742188 210.023438 L 655.214844 207.617188 L 658.890625 204.164062 L 662.320312 199.59375 L 666.429688 194.078125 L 672.117188 187.941406 L 680.148438 182.113281 L 691.269531 177.667969 L 705.578125 175.441406 L 720.632812 175.28125 L 733.34375 176.800781 L 741.554688 179.589844 L 746.769531 183.234375 L 751.410156 187.308594 L 757.355469 191.449219 L 764.320312 195.519531 L 771.480469 199.449219 L 778.101562 203.175781 L 783.886719 206.675781 L 788.621094 209.933594 L 792.214844 212.941406 L 794.957031 215.722656 L 797.253906 218.3125 L 799.328125 220.71875 L 800.683594 222.910156 L 800.644531 224.828125 L 798.894531 226.554688 L 796.511719 228.746094 L 794.929688 232.183594 L 795.589844 237.652344 L 799.378906 245.460938 L 804.996094 254.015625 L 810.597656 261.234375 L 814.757812 265.667969 L 817.707031 268.367188 L 820.082031 271.007812 L 822.394531 274.972656 L 824.609375 280.457031 L 826.5625 287.359375 L 828.039062 295.367188 L 828.699219 303.304688 L 828.15625 309.78125 L 826.246094 313.867188 L 823.691406 316.464844 L 821.4375 318.945312 L 820.328125 322.34375 L 820.800781 326.398438 L 823.203125 330.535156 L 827.597656 334.316406 L 832.914062 337.941406 L 837.796875 341.75 L 841.109375 345.941406 L 842.523438 350.121094 L 841.921875 353.75 L 839.425781 356.503906 L 836.125 358.929688 L 833.355469 361.804688 L 832.199219 365.632812 L 832.742188 369.878906 L 834.8125 373.742188 L 838.011719 376.636719 L 841.019531 378.828125 L 842.285156 380.804688 L 840.734375 382.988281 L 837.253906 385.585938 L 833.214844 388.75 L 829.882812 392.496094 L 828.160156 396.304688 L 828.835938 399.527344 L 832.230469 401.742188 L 836.726562 403.472656 L 840.234375 405.480469 L 841.253906 408.394531 L 840.691406 412.324219 L 840.046875 417.261719 L 840.515625 423.078125 L 842.027344 429.199219 L 844.199219 434.9375 L 846.6875 439.769531 L 849.304688 443.800781 L 851.898438 447.308594 L 854.34375 450.558594 L 856.570312 453.820312 L 858.535156 457.359375 L 860.199219 461.441406 L 861.402344 466.230469 L 861.546875 471.507812 L 859.917969 476.941406 L 856.230469 482.226562 L 851.882812 487.117188 L 848.699219 491.371094 L 848.109375 494.769531 L 849.921875 497.105469 L 853.550781 498.175781 L 858.382812 497.882812 L 863.71875 496.535156 L 868.835938 494.539062 L 873.1875 492.25 L 876.996094 489.847656 L 880.65625 487.453125 L 884.558594 485.070312 L 889.042969 482.1875 L 894.429688 478.171875 L 900.789062 472.65625 L 907.1875 466.382812 L 912.421875 460.355469 L 915.605469 455.261719 L 917.027344 450.472656 L 917.289062 445.03125 L 916.90625 438.277344 L 916.070312 430.746094 L 914.894531 423.257812 L 913.503906 416.417969 L 912.011719 409.941406 L 910.546875 403.332031 L 909.195312 396.289062 L 907.914062 389.308594 L 906.609375 383.101562 L 905.226562 378.152344 L 903.839844 374.105469 L 902.546875 370.382812 L 901.382812 366.621094 L 900.117188 363.269531 L 898.449219 360.996094 L 896.199219 360.167969 L 893.621094 359.917969 L 891.09375 359.09375 L 888.890625 356.816406 L 886.941406 353.40625 L 885.070312 349.464844 L 883.152344 345.421875 L 881.210938 340.988281 L 879.308594 335.6875 L 877.5 329.257812 L 875.8125 322.273438 L 874.261719 315.511719 L 872.851562 309.578125 L 871.542969 304.378906 L 870.289062 299.652344 L 869.046875 295.128906 L 867.773438 290.597656 L 866.464844 286.046875 L 865.117188 281.511719 L 863.695312 277.054688 L 862.011719 272.777344 L 859.824219 268.792969 L 857.046875 265.121094 L 854.121094 261.421875 L 851.644531 257.253906 L 850.007812 252.347656 L 848.863281 247.167969 L 847.671875 242.351562 L 845.996094 238.351562 L 843.878906 234.871094 L 841.464844 231.425781 L 838.914062 227.675781 L 836.433594 223.835938 L 834.242188 220.269531 L 832.5 217.203125 L 831.132812 214.34375 L 830.003906 211.261719 L 828.964844 207.628906 L 827.800781 203.539062 L 826.292969 199.167969 L 824.285156 194.738281 L 821.90625 190.589844 L 819.355469 187.105469 L 816.824219 184.492188 L 814.492188 182.320312 L 812.53125 179.984375 L 810.964844 177.019531 L 809.238281 173.445312 L 806.652344 169.40625 L 802.8125 165.121094 L 798.53125 161.085938 L 794.933594 157.859375 L 792.652344 155.824219 L 790.378906 154.59375 L 786.316406 153.609375 L 779.269531 152.417969 L 770.445312 151.039062 L 761.640625 149.609375 L 754.324219 148.242188 L 748.628906 146.921875 L 744.339844 145.613281 L 741.121094 144.28125 L 738.082031 142.925781 L 734.210938 141.558594 L 728.589844 140.191406 L 720.769531 138.867188 L 710.40625 137.636719 L 697.152344 136.550781 L 693.3125 137.117188 "/>
<path style="fill:none;stroke-width:0.75;stroke-linecap:round;stroke-linejoin:round;stroke:rgb(0%,0%,0%);stroke-opacity:1;stroke-miterlimit:10;" d="M 974.515625 229.957031 L 972.535156 233.402344 L 966.367188 237.316406 L 959.628906 241.257812 L 955.117188 244.894531 L 952.230469 248.289062 L 949.535156 251.609375 L 945.917969 254.992188 L 941.542969 258.441406 L 936.898438 261.929688 L 932.476562 265.433594 L 928.660156 268.949219 L 925.421875 272.578125 L 922.640625 276.449219 L 920.171875 280.652344 L 917.8125 285.136719 L 915.34375 289.816406 L 912.550781 294.601562 L 909.3125 299.414062 L 905.910156 304.160156 L 902.734375 308.765625 L 900.128906 313.234375 L 898.25 317.96875 L 897.222656 323.464844 L 897.167969 330.214844 L 898.101562 338.417969 L 899.648438 347.113281 L 901.320312 355.046875 L 902.742188 361.269531 L 903.964844 366.074219 L 905.136719 370.0625 L 906.40625 373.835938 L 907.871094 377.851562 L 909.402344 382.011719 L 910.816406 386.078125 L 911.996094 389.863281 L 913.074219 393.394531 L 914.257812 396.757812 L 915.738281 400.03125 L 917.648438 403.277344 L 919.785156 406.507812 L 921.882812 409.714844 L 923.71875 412.867188 L 925.320312 415.882812 L 926.761719 418.660156 L 928.125 421.101562 L 929.46875 423.300781 L 930.800781 426.15625 L 932.105469 430.757812 L 933.375 437.804688 L 934.648438 446.445312 L 935.964844 455.433594 L 937.375 463.53125 L 938.886719 469.820312 L 940.371094 474.675781 L 941.667969 478.808594 L 942.699219 482.800781 L 943.71875 486.734375 L 945.066406 490.574219 L 947.085938 494.273438 L 949.949219 497.867188 L 953.140625 501.660156 L 955.988281 506.027344 L 957.980469 511.234375 L 959.304688 517.078125 L 960.3125 523.257812 L 961.363281 529.457031 L 962.71875 535.367188 L 964.257812 540.671875 L 965.769531 545.046875 L 967.09375 548.320312 L 968.300781 550.910156 L 969.507812 553.371094 L 970.839844 556.265625 L 972.363281 559.964844 L 973.914062 564.089844 L 975.273438 568.066406 L 976.316406 571.492188 L 977.273438 574.601562 L 978.484375 577.808594 L 980.203125 581.421875 L 982.421875 585.394531 L 985.050781 589.582031 L 988.007812 593.847656 L 991.164062 598.144531 L 994.183594 602.847656 L 996.695312 608.410156 L 998.429688 615.105469 L 999.601562 622.375 L 1000.535156 629.457031 L 1001.550781 635.59375 L 1002.890625 640.28125 L 1004.441406 643.996094 L 1005.992188 647.472656 L 1007.394531 651.300781 L 1008.671875 655.515625 L 1009.902344 660.011719 L 1011.160156 664.675781 L 1012.503906 669.386719 L 1013.902344 673.925781 L 1015.300781 678.050781 L 1016.660156 681.625 L 1017.988281 684.875 L 1019.304688 688.121094 L 1020.621094 691.6875 L 1021.957031 695.773438 L 1023.304688 700.058594 L 1024.667969 704.101562 L 1026.027344 707.578125 L 1027.378906 710.640625 L 1028.707031 713.554688 L 1029.996094 716.585938 L 1031.289062 719.960938 L 1032.871094 723.714844 L 1035.085938 727.828125 L 1038.148438 732.300781 L 1041.804688 737.148438 L 1045.671875 742.386719 L 1049.371094 748.042969 L 1052.722656 754.117188 L 1056.332031 760.53125 L 1061 767.179688 L 1067.289062 773.957031 L 1074.796875 780.726562 L 1082.875 787.34375 L 1090.878906 793.664062 L 1098.175781 799.574219 L 1104.179688 805.101562 L 1108.308594 810.304688 L 1110.238281 815.257812 L 1110.664062 820.085938 L 1110.527344 824.929688 L 1110.769531 829.917969 L 1112.074219 835.242188 L 1114.089844 841.253906 L 1116.195312 848.347656 L 1117.898438 856.6875 L 1119.207031 865.523438 L 1120.253906 873.878906 L 1121.167969 880.769531 L 1122.101562 885.554688 L 1123.265625 888.945312 L 1124.886719 891.996094 L 1127.085938 895.527344 L 1129.527344 899.441406 L 1131.769531 903.410156 L 1133.375 907.109375 L 1134.148438 910.324219 L 1134.933594 913.28125 L 1136.824219 916.328125 L 1140.566406 919.730469 L 1145.539062 923.46875 L 1150.78125 927.445312 L 1155.480469 931.550781 L 1159.421875 935.566406 L 1162.546875 939.253906 L 1164.78125 942.378906 L 1166.234375 944.890625 L 1167.632812 947.496094 L 1169.875 951.089844 L 1173.519531 956.257812 L 1177.816406 962.378906 L 1181.675781 968.515625 L 1184.007812 973.738281 L 1184.324219 977.417969 L 1184.527344 980.132812 L 1187.109375 982.75 L 1193.765625 985.996094 L 1202.992188 989.949219 L 1212.484375 994.527344 L 1219.9375 999.660156 L 1223.742188 1005.234375 L 1225.0625 1011.027344 L 1225.769531 1016.78125 L 1227.730469 1022.21875 L 1232.832031 1027 L 1242.96875 1030.761719 L 1260.039062 1033.144531 L 1284.433594 1033.90625 L 1310.554688 1033.3125 L 1331.3125 1031.746094 L 1341.5625 1029.585938 L 1344.023438 1027.210938 L 1343.367188 1024.984375 L 1344.269531 1023.277344 L 1349.8125 1022.273438 L 1356.757812 1021.425781 L 1360.265625 1020.003906 L 1356.996094 1017.507812 L 1349.511719 1014.363281 L 1341.871094 1011.21875 L 1338.121094 1008.734375 L 1341.0625 1007.199219 L 1348.464844 1005.457031 L 1356.835938 1001.980469 L 1363.285156 995.769531 L 1367.265625 987.894531 L 1368.824219 979.953125 L 1368.011719 973.53125 L 1365.050781 969.753906 L 1360.878906 967.875 L 1356.613281 966.679688 L 1353.277344 965.171875 L 1351.574219 963.183594 L 1352.117188 960.765625 L 1355.519531 957.972656 L 1361.710938 954.855469 L 1367.871094 951.472656 L 1370.511719 947.886719 L 1367.171875 944.171875 L 1359.574219 940.460938 L 1350.476562 936.894531 L 1342.648438 933.625 L 1338.238281 930.773438 L 1337 928.390625 L 1338.0625 926.507812 L 1340.546875 925.082031 L 1343.441406 923.765625 L 1345.707031 922.132812 L 1346.308594 919.765625 L 1344.726562 916.316406 L 1342.535156 911.757812 L 1341.8125 906.140625 L 1344.027344 899.597656 L 1348.136719 892.59375 L 1352.476562 885.6875 L 1355.375 879.433594 L 1355.703125 874.199219 L 1354.476562 869.605469 L 1353.230469 865.082031 L 1353.113281 860.234375 L 1353.628906 855.367188 L 1353.878906 850.945312 L 1353.179688 847.324219 L 1351.679688 844.363281 L 1349.742188 841.8125 L 1347.726562 839.40625 L 1345.960938 836.863281 L 1344.597656 833.753906 L 1343.765625 829.621094 L 1343.507812 824.179688 L 1343.589844 817.816406 L 1343.707031 811.089844 L 1343.550781 804.554688 L 1342.875 798.65625 L 1341.667969 793.390625 L 1339.984375 788.652344 L 1337.90625 784.378906 L 1335.652344 780.714844 L 1333.484375 777.855469 L 1331.660156 776 L 1330.335938 774.96875 L 1329.277344 773.097656 L 1328.167969 768.34375 L 1326.765625 759.316406 L 1325.207031 747.25 L 1323.710938 734.015625 L 1322.503906 721.5 L 1321.574219 711.222656 L 1319.964844 703.324219 L 1316.488281 697.570312 L 1310.410156 693.660156 L 1302.820312 690.894531 L 1295.25 688.496094 L 1289.234375 685.6875 L 1285.898438 681.871094 L 1284.660156 677.222656 L 1284.523438 672.101562 L 1284.660156 666.835938 L 1284.921875 661.621094 L 1285.335938 656.621094 L 1285.917969 652.011719 L 1286.625 647.863281 L 1287.125 643.921875 L 1287.019531 639.835938 L 1286.007812 635.394531 L 1284.15625 630.898438 L 1281.632812 626.773438 L 1278.597656 623.460938 L 1275.183594 621.300781 L 1271.390625 620.304688 L 1267.1875 620.398438 L 1262.601562 621.429688 L 1257.886719 622.925781 L 1253.355469 624.347656 L 1249.332031 625.136719 L 1246.144531 624.804688 L 1244.199219 623.050781 L 1243.914062 619.636719 L 1245.449219 614.472656 L 1247.914062 608.140625 L 1250.160156 601.375 L 1251.03125 594.910156 L 1249.8125 589.375 L 1247.550781 584.953125 L 1245.730469 581.703125 L 1245.5 579.539062 L 1246.628906 577.722656 L 1248.5625 575.355469 L 1250.726562 571.535156 L 1252.46875 565.628906 L 1252.765625 558.046875 L 1250.5 549.476562 L 1245.085938 540.617188 L 1238.09375 532.292969 L 1231.617188 525.359375 L 1227.214844 520.386719 L 1224.230469 516.832031 L 1221.457031 513.867188 L 1217.6875 510.664062 L 1212.230469 506.65625 L 1206.457031 502.28125 L 1202.246094 498.230469 L 1200.960938 495.003906 L 1201.875 492.347656 L 1203.746094 489.816406 L 1205.335938 486.957031 L 1205.644531 483.4375 L 1204.65625 479.402344 L 1202.605469 475.109375 L 1199.773438 470.765625 L 1196.613281 466.375 L 1193.644531 461.898438 L 1191.371094 457.296875 L 1190.101562 452.570312 L 1189.328125 447.882812 L 1188.351562 443.441406 L 1186.664062 439.390625 L 1184.585938 435.664062 L 1182.625 432.121094 L 1181.304688 428.636719 L 1180.910156 425.078125 L 1180.820312 421.359375 L 1180.175781 417.398438 L 1178.367188 413.171875 L 1175.753906 408.902344 L 1172.929688 404.886719 L 1170.496094 401.410156 L 1168.855469 398.601562 L 1167.640625 395.964844 L 1166.285156 392.847656 L 1164.359375 388.738281 L 1161.960938 383.714844 L 1159.332031 377.996094 L 1156.703125 371.808594 L 1154.292969 365.414062 L 1152.21875 359.25 L 1150.589844 353.796875 L 1149.394531 349.394531 L 1148.1875 345.804688 L 1146.410156 342.652344 L 1143.5 339.550781 L 1139.183594 336.191406 L 1134.300781 332.535156 L 1129.976562 328.613281 L 1126.847656 324.445312 L 1123.582031 320.035156 L 1118.371094 315.367188 L 1109.394531 310.445312 L 1095.859375 305.328125 L 1081.035156 300.390625 L 1069.214844 296.074219 L 1063.539062 292.679688 L 1062.566406 289.957031 L 1063.695312 287.515625 L 1064.332031 284.964844 L 1062.53125 281.914062 L 1058.953125 277.996094 L 1054.90625 272.839844 L 1051.359375 266.285156 L 1047.945312 258.992188 L 1043.960938 251.832031 L 1038.691406 245.660156 L 1031.957031 241.132812 L 1025.621094 237.984375 L 1022.082031 235.742188 L 1022.070312 233.996094 L 1019.71875 232.585938 L 1007.5 231.429688 L 977.890625 230.4375 L 974.515625 229.957031 "/>
</g>
</svg>
