<?xml version="1.0" encoding="UTF-8"?>
<svg xmlns="http://www.w3.org/2000/svg" xmlns:xlink="http://www.w3.org/1999/xlink" width="1428pt" height="1605pt" viewBox="0 0 1428 1605" version="1.1">
<g id="surface344">
<rect x="0" y="0" width="1428" height="1605" style="fill:rgb(100%,100%,100%);fill-opacity:1;stroke:none;"/>
<path style="fill:none;stroke-width:0.75;stroke-linecap:round;stroke-linejoin:round;stroke:rgb(0%,0%,0%);stroke-opacity:1;stroke-miterlimit:10;" d="M 697.316406 121.269531 L 686.300781 127.914062 L 674.425781 136.910156 L 662.453125 147.386719 L 651.144531 158.46875 L 641.253906 169.289062 L 633.367188 179.117188 L 627.332031 187.777344 L 622.824219 195.242188 L 619.515625 201.484375 L 617.082031 206.46875 L 615.191406 210.167969 L 613.566406 212.644531 L 612.128906 214.359375 L 610.839844 215.863281 L 609.671875 217.710938 L 608.589844 220.453125 L 607.5625 224.648438 L 606.535156 230.585938 L 605.386719 237.550781 L 603.972656 244.558594 L 602.148438 250.628906 L 599.769531 254.78125 L 596.714844 256.285156 L 592.925781 255.386719 L 588.363281 252.578125 L 582.988281 248.359375 L 576.765625 243.222656 L 569.65625 237.660156 L 561.679688 232.125 L 553.097656 226.867188 L 544.242188 222.097656 L 535.429688 218.03125 L 526.984375 214.875 L 519.234375 212.835938 L 512.367188 212.070312 L 506.054688 212.460938 L 499.832031 213.839844 L 493.234375 216.039062 L 485.796875 218.882812 L 477.21875 222.21875 L 467.820312 225.933594 L 458.082031 229.933594 L 448.480469 234.121094 L 439.5 238.398438 L 431.613281 242.671875 L 425.1875 246.84375 L 420.078125 250.824219 L 416.039062 254.515625 L 412.8125 257.828125 L 410.144531 260.667969 L 407.773438 262.945312 L 405.496094 264.679688 L 403.28125 266.355469 L 401.136719 268.578125 L 399.082031 271.949219 L 397.125 277.066406 L 395.296875 284.359375 L 393.675781 293.542969 L 392.34375 304.164062 L 391.394531 315.765625 L 390.917969 327.882812 L 391 340.070312 L 391.683594 351.902344 L 392.8125 363.121094 L 394.183594 373.515625 L 395.597656 382.867188 L 396.847656 390.957031 L 397.734375 397.566406 L 398.167969 402.605469 L 398.539062 406.472656 L 399.347656 409.699219 L 401.101562 412.804688 L 404.296875 416.316406 L 409.203125 420.617188 L 415.132812 425.488281 L 421.160156 430.578125 L 426.367188 435.523438 L 429.828125 439.972656 L 430.613281 443.5625 L 427.96875 446.046875 L 421.773438 447.597656 L 412.074219 448.511719 L 398.917969 449.070312 L 382.347656 449.558594 L 362.410156 450.265625 L 339.46875 451.425781 L 315.148438 453.046875 L 291.394531 455.074219 L 270.15625 457.472656 L 253.375 460.1875 L 242.414062 463.179688 L 236.289062 466.433594 L 233.445312 469.941406 L 232.3125 473.691406 L 231.328125 477.675781 L 228.929688 481.882812 L 223.960938 486.292969 L 216.882812 490.832031 L 208.570312 495.417969 L 199.886719 499.964844 L 191.707031 504.386719 L 184.898438 508.605469 L 180.089844 512.5625 L 176.964844 516.328125 L 174.957031 519.992188 L 173.503906 523.65625 L 172.046875 527.417969 L 170.128906 531.355469 L 167.710938 535.484375 L 164.863281 539.8125 L 161.65625 544.332031 L 158.152344 549.050781 L 154.425781 553.96875 L 150.554688 559.074219 L 146.679688 564.328125 L 142.949219 569.675781 L 139.519531 575.0625 L 136.542969 580.433594 L 134.167969 585.738281 L 132.484375 590.933594 L 131.320312 596.023438 L 130.433594 601.03125 L 129.582031 605.976562 L 128.527344 610.871094 L 127.085938 615.722656 L 125.316406 620.46875 L 123.328125 625.03125 L 121.230469 629.335938 L 119.136719 633.308594 L 117.160156 636.863281 L 115.382812 639.984375 L 113.773438 642.84375 L 112.277344 645.667969 L 110.835938 648.6875 L 109.386719 652.128906 L 107.878906 656.222656 L 106.261719 661.136719 L 104.523438 666.824219 L 102.667969 673.175781 L 100.699219 680.085938 L 98.613281 687.445312 L 96.429688 695.128906 L 94.199219 702.941406 L 91.996094 710.671875 L 89.894531 718.097656 L 87.957031 725.011719 L 86.257812 731.199219 L 84.839844 736.515625 L 83.632812 741.128906 L 82.535156 745.277344 L 81.441406 749.207031 L 80.261719 753.15625 L 78.890625 757.363281 L 77.265625 762.007812 L 75.472656 766.984375 L 73.632812 772.140625 L 71.875 777.304688 L 70.320312 782.324219 L 69.089844 787.027344 L 68.261719 791.289062 L 67.726562 795.132812 L 67.324219 798.605469 L 66.902344 801.757812 L 66.296875 804.652344 L 65.398438 807.378906 L 64.226562 810.238281 L 62.851562 813.566406 L 61.335938 817.707031 L 59.753906 822.996094 L 58.164062 829.773438 L 56.644531 838.210938 L 55.285156 847.765625 L 54.1875 857.734375 L 53.460938 867.410156 L 53.203125 876.074219 L 53.511719 883.027344 L 54.433594 887.808594 L 55.757812 890.949219 L 57.21875 893.238281 L 58.554688 895.460938 L 59.492188 898.40625 L 59.84375 902.699219 L 59.738281 908.335938 L 59.378906 915.160156 L 58.976562 923.007812 L 58.730469 931.71875 L 58.851562 941.132812 L 59.480469 951.0625 L 60.515625 961.210938 L 61.800781 971.253906 L 63.171875 980.859375 L 64.46875 989.710938 L 65.53125 997.480469 L 66.246094 1003.953125 L 66.722656 1009.339844 L 67.109375 1013.964844 L 67.5625 1018.152344 L 68.238281 1022.21875 L 69.253906 1026.425781 L 70.566406 1030.785156 L 72.089844 1035.246094 L 73.753906 1039.753906 L 75.472656 1044.257812 L 77.167969 1048.707031 L 78.773438 1053.070312 L 80.3125 1057.425781 L 81.816406 1061.859375 L 83.316406 1066.472656 L 84.855469 1071.355469 L 86.464844 1076.609375 L 88.175781 1082.257812 L 90.011719 1088.070312 L 91.992188 1093.761719 L 94.136719 1099.03125 L 96.46875 1103.589844 L 99.003906 1107.242188 L 101.746094 1110.210938 L 104.707031 1112.808594 L 107.890625 1115.355469 L 111.300781 1118.171875 L 114.949219 1121.582031 L 118.816406 1125.796875 L 122.820312 1130.632812 L 126.871094 1135.808594 L 130.859375 1141.035156 L 134.6875 1146.027344 L 138.261719 1150.5 L 141.503906 1154.25 L 144.445312 1157.398438 L 147.140625 1160.152344 L 149.65625 1162.714844 L 152.039062 1165.292969 L 154.351562 1168.054688 L 156.644531 1171.042969 L 158.972656 1174.253906 L 161.382812 1177.695312 L 163.925781 1181.367188 L 166.660156 1185.277344 L 169.609375 1189.414062 L 172.695312 1193.695312 L 175.820312 1198.039062 L 178.882812 1202.347656 L 181.785156 1206.53125 L 184.421875 1210.503906 L 186.753906 1214.207031 L 188.945312 1217.742188 L 191.226562 1221.238281 L 193.820312 1224.832031 L 196.957031 1228.65625 L 200.769531 1232.796875 L 205.019531 1237.167969 L 209.386719 1241.621094 L 213.539062 1246.019531 L 217.152344 1250.21875 L 219.90625 1254.085938 L 221.585938 1257.53125 L 222.476562 1260.679688 L 222.976562 1263.707031 L 223.488281 1266.792969 L 224.40625 1270.109375 L 226.140625 1273.839844 L 228.96875 1278.09375 L 232.707031 1282.695312 L 237.058594 1287.410156 L 241.71875 1292 L 246.394531 1296.226562 L 250.847656 1299.9375 L 255.121094 1303.324219 L 259.324219 1306.671875 L 263.570312 1310.257812 L 267.964844 1314.359375 L 272.617188 1319.261719 L 277.601562 1325.144531 L 282.832031 1331.832031 L 288.1875 1339.046875 L 293.535156 1346.519531 L 298.765625 1353.96875 L 303.742188 1361.128906 L 308.441406 1367.773438 L 313.199219 1373.914062 L 318.4375 1379.609375 L 324.589844 1384.917969 L 332.078125 1389.90625 L 341.21875 1394.613281 L 351.886719 1399.015625 L 363.832031 1403.074219 L 376.820312 1406.746094 L 390.601562 1409.992188 L 404.941406 1412.769531 L 419.574219 1415.042969 L 434.167969 1416.792969 L 448.367188 1418.007812 L 461.816406 1418.667969 L 474.167969 1418.769531 L 485.058594 1418.289062 L 494.3125 1417.230469 L 502.414062 1415.660156 L 510.023438 1413.648438 L 517.804688 1411.28125 L 526.414062 1408.625 L 536.3125 1405.757812 L 547.183594 1402.699219 L 558.511719 1399.476562 L 569.773438 1396.105469 L 580.457031 1392.605469 L 590.046875 1389 L 598.15625 1385.308594 L 604.949219 1381.578125 L 610.71875 1377.847656 L 615.757812 1374.167969 L 620.367188 1370.578125 L 624.835938 1367.128906 L 629.394531 1363.84375 L 634.007812 1360.664062 L 638.574219 1357.511719 L 642.988281 1354.3125 L 647.15625 1350.984375 L 650.972656 1347.453125 L 654.382812 1343.660156 L 657.523438 1339.648438 L 660.582031 1335.488281 L 663.746094 1331.238281 L 667.195312 1326.964844 L 671.109375 1322.742188 L 675.644531 1318.667969 L 680.933594 1314.84375 L 687.125 1311.378906 L 694.359375 1308.375 L 702.78125 1305.9375 L 712.46875 1304.109375 L 723.261719 1302.691406 L 734.945312 1301.429688 L 747.292969 1300.0625 L 760.085938 1298.335938 L 773.101562 1295.984375 L 786.109375 1292.835938 L 798.832031 1289.0625 L 810.96875 1284.917969 L 822.238281 1280.652344 L 832.335938 1276.523438 L 841.074219 1272.714844 L 848.632812 1269.164062 L 855.277344 1265.734375 L 861.292969 1262.296875 L 866.949219 1258.71875 L 872.519531 1254.867188 L 878.230469 1250.632812 L 884.101562 1245.992188 L 890.097656 1240.949219 L 896.191406 1235.496094 L 902.347656 1229.640625 L 908.535156 1223.378906 L 914.703125 1216.75 L 920.722656 1209.960938 L 926.457031 1203.253906 L 931.753906 1196.875 L 936.46875 1191.0625 L 940.5 1186.003906 L 943.914062 1181.617188 L 946.820312 1177.773438 L 949.332031 1174.324219 L 951.554688 1171.132812 L 953.597656 1168.0625 L 955.566406 1164.992188 L 957.535156 1161.871094 L 959.574219 1158.675781 L 961.746094 1155.378906 L 964.125 1151.949219 L 966.777344 1148.355469 L 969.722656 1144.59375 L 972.78125 1140.730469 L 975.722656 1136.851562 L 978.324219 1133.042969 L 980.355469 1129.394531 L 981.65625 1125.976562 L 982.355469 1122.816406 L 982.644531 1119.925781 L 982.726562 1117.324219 L 982.796875 1115.019531 L 983.046875 1113.03125 L 983.636719 1111.324219 L 984.554688 1109.707031 L 985.75 1107.933594 L 987.167969 1105.769531 L 988.757812 1102.976562 L 990.46875 1099.304688 L 992.253906 1094.613281 L 994.082031 1089.101562 L 995.914062 1083.058594 L 997.730469 1076.785156 L 999.496094 1070.566406 L 1001.191406 1064.640625 L 1002.839844 1059.042969 L 1004.46875 1053.75 L 1006.117188 1048.734375 L 1007.8125 1043.976562 L 1009.582031 1039.453125 L 1011.453125 1035.117188 L 1013.363281 1030.816406 L 1015.257812 1026.375 L 1017.0625 1021.617188 L 1018.71875 1016.367188 L 1020.15625 1010.449219 L 1021.328125 1003.742188 L 1022.28125 996.328125 L 1023.070312 988.339844 L 1023.761719 979.917969 L 1024.40625 971.191406 L 1025.066406 962.316406 L 1025.75 953.523438 L 1026.460938 945.058594 L 1027.210938 937.171875 L 1027.996094 930.109375 L 1028.828125 924.125 L 1029.703125 919.34375 L 1030.582031 915.453125 L 1031.425781 912.015625 L 1032.1875 908.59375 L 1032.824219 904.757812 L 1033.292969 900.070312 L 1033.570312 894.128906 L 1033.710938 886.625 L 1033.792969 877.28125 L 1033.886719 865.824219 L 1034.070312 851.980469 L 1034.386719 835.691406 L 1034.761719 817.808594 L 1035.082031 799.394531 L 1035.238281 781.519531 L 1035.128906 765.253906 L 1034.636719 751.664062 L 1033.714844 741.546875 L 1032.550781 734.601562 L 1031.386719 730.242188 L 1030.460938 727.898438 L 1030.019531 726.996094 L 1030.308594 726.949219 L 1031.480469 727.296875 L 1033.367188 728.015625 L 1035.703125 729.199219 L 1038.230469 730.929688 L 1040.691406 733.304688 L 1042.882812 736.363281 L 1044.851562 739.976562 L 1046.699219 743.964844 L 1048.527344 748.148438 L 1050.445312 752.351562 L 1052.554688 756.398438 L 1054.941406 760.171875 L 1057.644531 763.828125 L 1060.679688 767.585938 L 1064.066406 771.664062 L 1067.824219 776.277344 L 1071.976562 781.648438 L 1076.5 787.878906 L 1081.207031 794.621094 L 1085.886719 801.414062 L 1090.304688 807.796875 L 1094.246094 813.3125 L 1097.546875 817.65625 L 1100.289062 821.1875 L 1102.613281 824.433594 L 1104.660156 827.910156 L 1106.570312 832.144531 L 1108.488281 837.65625 L 1110.523438 844.792969 L 1112.664062 853.207031 L 1114.867188 862.375 L 1117.089844 871.773438 L 1119.289062 880.886719 L 1121.425781 889.183594 L 1123.480469 896.273438 L 1125.546875 902.261719 L 1127.742188 907.375 L 1130.183594 911.847656 L 1132.996094 915.910156 L 1136.292969 919.792969 L 1140.136719 923.699219 L 1144.34375 927.742188 L 1148.679688 932.003906 L 1152.90625 936.566406 L 1156.78125 941.511719 L 1160.140625 946.882812 L 1163.105469 952.558594 L 1165.878906 958.375 L 1168.648438 964.179688 L 1171.617188 969.800781 L 1174.976562 975.082031 L 1178.867188 979.914062 L 1183.191406 984.382812 L 1187.785156 988.636719 L 1192.492188 992.816406 L 1197.15625 997.066406 L 1201.617188 1001.527344 L 1205.773438 1006.289062 L 1209.71875 1011.222656 L 1213.605469 1016.148438 L 1217.589844 1020.882812 L 1221.820312 1025.238281 L 1226.4375 1029.078125 L 1231.550781 1032.417969 L 1237.242188 1035.3125 L 1243.617188 1037.820312 L 1250.757812 1040.003906 L 1258.765625 1041.914062 L 1267.644531 1043.605469 L 1277.058594 1045.117188 L 1286.582031 1046.472656 L 1295.792969 1047.714844 L 1304.269531 1048.863281 L 1311.585938 1049.957031 L 1317.457031 1050.984375 L 1322.136719 1051.777344 L 1326.015625 1052.121094 L 1329.484375 1051.8125 L 1332.933594 1050.640625 L 1336.691406 1048.464844 L 1340.796875 1045.414062 L 1345.230469 1041.691406 L 1349.976562 1037.5 L 1355.007812 1033.03125 L 1360.308594 1028.492188 L 1365.804688 1024.058594 L 1371.234375 1019.808594 L 1376.285156 1015.796875 L 1380.640625 1012.085938 L 1383.992188 1008.726562 L 1386.023438 1005.777344 L 1386.5625 1003.261719 L 1385.996094 1001.066406 L 1384.851562 999.058594 L 1383.652344 997.085938 L 1382.929688 995.015625 L 1383.085938 992.742188 L 1384.027344 990.3125 L 1385.542969 987.820312 L 1387.410156 985.355469 L 1389.417969 983 L 1391.347656 980.851562 L 1393.015625 978.96875 L 1394.332031 977.339844 L 1395.242188 975.910156 L 1395.683594 974.640625 L 1395.597656 973.484375 L 1394.929688 972.402344 L 1393.625 971.304688 L 1391.6875 969.972656 L 1389.125 968.128906 L 1385.941406 965.519531 L 1382.148438 961.875 L 1377.8125 957.046875 L 1373.214844 951.386719 L 1368.699219 945.347656 L 1364.609375 939.394531 L 1361.285156 933.996094 L 1359.070312 929.609375 L 1358.183594 926.546875 L 1358.355469 924.527344 L 1359.1875 923.113281 L 1360.289062 921.863281 L 1361.261719 920.347656 L 1361.71875 918.125 L 1361.378906 914.890625 L 1360.453125 910.839844 L 1359.261719 906.300781 L 1358.136719 901.601562 L 1357.402344 897.070312 L 1357.296875 892.953125 L 1357.726562 889.191406 L 1358.503906 885.644531 L 1359.445312 882.179688 L 1360.371094 878.65625 L 1361.089844 874.933594 L 1361.457031 870.921875 L 1361.457031 866.742188 L 1361.109375 862.542969 L 1360.441406 858.488281 L 1359.46875 854.738281 L 1358.214844 851.457031 L 1356.726562 848.691406 L 1355.152344 846.082031 L 1353.671875 843.148438 L 1352.453125 839.425781 L 1351.679688 834.433594 L 1351.453125 827.878906 L 1351.578125 820.183594 L 1351.792969 811.9375 L 1351.835938 803.742188 L 1351.445312 796.191406 L 1350.355469 789.875 L 1348.398438 785.203125 L 1345.796875 781.804688 L 1342.871094 779.113281 L 1339.9375 776.570312 L 1337.316406 773.605469 L 1335.324219 769.660156 L 1334.164062 764.316406 L 1333.566406 757.738281 L 1333.148438 750.234375 L 1332.53125 742.125 L 1331.324219 733.710938 L 1329.238281 725.292969 L 1326.355469 717.09375 L 1322.84375 709.316406 L 1318.875 702.175781 L 1314.617188 695.871094 L 1310.246094 690.617188 L 1305.929688 686.449219 L 1301.839844 682.777344 L 1298.140625 678.828125 L 1295.003906 673.839844 L 1292.597656 667.046875 L 1291.09375 657.691406 L 1290.527344 645.421875 L 1290.414062 631.5625 L 1290.136719 617.855469 L 1289.082031 606.046875 L 1286.632812 597.875 L 1282.390625 594.550781 L 1276.824219 595.167969 L 1270.613281 598.28125 L 1264.445312 602.449219 L 1259.003906 606.234375 L 1254.976562 608.195312 L 1252.832031 607.222656 L 1252.21875 603.527344 L 1252.582031 597.65625 L 1253.351562 590.148438 L 1253.96875 581.558594 L 1253.875 572.417969 L 1252.648438 563.234375 L 1250.433594 554.300781 L 1247.519531 545.875 L 1244.1875 538.210938 L 1240.726562 531.558594 L 1237.421875 526.175781 L 1234.496094 522.183594 L 1231.921875 519.21875 L 1229.609375 516.78125 L 1227.464844 514.375 L 1225.398438 511.507812 L 1223.328125 507.789062 L 1221.199219 503.277344 L 1218.96875 498.136719 L 1216.59375 492.539062 L 1214.035156 486.648438 L 1211.242188 480.625 L 1208.210938 474.617188 L 1205.050781 468.632812 L 1201.910156 462.664062 L 1198.9375 456.699219 L 1196.269531 450.722656 L 1194.0625 444.726562 L 1192.394531 438.714844 L 1191.09375 432.789062 L 1189.929688 427.050781 L 1188.667969 421.621094 L 1187.078125 416.605469 L 1184.992188 412.082031 L 1182.511719 407.953125 L 1179.8125 404.074219 L 1177.058594 400.304688 L 1174.421875 396.507812 L 1172.078125 392.546875 L 1170.140625 388.320312 L 1168.519531 383.90625 L 1167.070312 379.421875 L 1165.648438 374.988281 L 1164.113281 370.722656 L 1162.3125 366.742188 L 1160.175781 363.128906 L 1157.886719 359.777344 L 1155.691406 356.550781 L 1153.84375 353.308594 L 1152.589844 349.910156 L 1152.046875 346.238281 L 1151.75 342.285156 L 1151.101562 338.066406 L 1149.503906 333.601562 L 1146.359375 328.910156 L 1141.0625 324.003906 L 1133.257812 318.929688 L 1123.53125 313.820312 L 1112.703125 308.847656 L 1101.605469 304.171875 L 1091.054688 299.960938 L 1081.882812 296.371094 L 1074.691406 293.457031 L 1069.230469 290.800781 L 1065.023438 287.871094 L 1061.59375 284.136719 L 1058.476562 279.070312 L 1055.207031 272.34375 L 1051.355469 264.441406 L 1046.519531 256.058594 L 1040.277344 247.882812 L 1032.226562 240.613281 L 1021.945312 234.9375 L 1009.257812 231.410156 L 994.894531 230.039062 L 979.824219 230.695312 L 965.003906 233.25 L 951.402344 237.574219 L 939.988281 243.539062 L 931.449219 250.929688 L 925.425781 259.214844 L 921.285156 267.765625 L 918.390625 275.960938 L 916.113281 283.183594 L 913.929688 288.960938 L 911.777344 293.441406 L 909.699219 296.921875 L 907.746094 299.707031 L 905.964844 302.09375 L 904.402344 304.382812 L 903.082031 306.847656 L 901.949219 309.671875 L 900.910156 313.003906 L 899.894531 317.007812 L 898.8125 321.835938 L 897.585938 327.640625 L 896.152344 334.425781 L 894.53125 341.550781 L 892.757812 348.222656 L 890.882812 353.652344 L 888.9375 357.046875 L 886.960938 357.828125 L 884.988281 356.277344 L 883.039062 352.898438 L 881.140625 348.1875 L 879.324219 342.648438 L 877.613281 336.777344 L 876.023438 330.980469 L 874.511719 325.28125 L 873.03125 319.597656 L 871.523438 313.863281 L 869.945312 308 L 868.242188 301.933594 L 866.375 295.628906 L 864.347656 289.21875 L 862.175781 282.878906 L 859.875 276.773438 L 857.472656 271.078125 L 854.980469 265.921875 L 852.453125 261.25 L 849.945312 256.976562 L 847.511719 253 L 845.207031 249.226562 L 843.085938 245.5625 L 841.1875 241.925781 L 839.46875 238.277344 L 837.875 234.585938 L 836.347656 230.824219 L 834.824219 226.96875 L 833.25 222.988281 L 831.574219 218.855469 L 829.746094 214.550781 L 827.726562 210.066406 L 825.480469 205.382812 L 822.960938 200.480469 L 820.132812 195.367188 L 816.925781 190.097656 L 813.289062 184.742188 L 809.15625 179.378906 L 804.464844 174.082031 L 799.152344 168.917969 L 793.183594 163.960938 L 786.605469 159.230469 L 779.5 154.75 L 771.941406 150.535156 L 764.007812 146.605469 L 755.773438 142.976562 L 747.269531 139.644531 L 738.347656 136.480469 L 728.808594 133.332031 L 718.464844 130.039062 L 707.113281 126.453125 L 694.566406 122.417969 L 697.316406 121.269531 "/>
<path style="fill:none;stroke-width:0.75;stroke-linecap:round;stroke-linejoin:round;stroke:rgb(0%,0%,0%);stroke-opacity:1;stroke-miterlimit:10;" d="M 296.589844 447.152344 L 281.980469 451.132812 L 268.738281 454.804688 L 259.085938 458.085938 L 254.414062 460.964844 L 252.773438 463.742188 L 251.390625 466.8125 L 248 470.441406 L 242.367188 474.425781 L 234.765625 478.4375 L 225.65625 482.253906 L 216.199219 486.019531 L 207.75 489.976562 L 201.304688 494.300781 L 196.480469 498.925781 L 192.558594 503.71875 L 188.804688 508.550781 L 184.707031 513.265625 L 180.550781 517.640625 L 176.839844 521.429688 L 173.898438 524.519531 L 171.382812 527.347656 L 168.785156 530.5 L 165.757812 534.402344 L 162.625 538.945312 L 159.871094 543.871094 L 157.785156 548.957031 L 155.863281 554.148438 L 153.398438 559.433594 L 149.671875 564.796875 L 144.359375 570.207031 L 138.597656 575.570312 L 133.90625 580.777344 L 131.425781 585.757812 L 130.75 590.59375 L 131.097656 595.402344 L 131.703125 600.289062 L 131.859375 605.320312 L 130.867188 610.539062 L 128.304688 615.941406 L 124.8125 621.25 L 121.3125 626.136719 L 118.714844 630.273438 L 117.621094 633.476562 L 117.359375 636.15625 L 116.929688 638.867188 L 115.582031 642.035156 L 113.496094 645.546875 L 111.09375 649.160156 L 108.75 652.738281 L 106.6875 656.582031 L 105.078125 661.097656 L 104 666.601562 L 103.089844 672.976562 L 101.890625 680.011719 L 99.9375 687.5 L 96.984375 695.230469 L 93.640625 703.039062 L 90.734375 710.75 L 88.863281 718.1875 L 87.710938 725.085938 L 86.730469 731.15625 L 85.492188 736.238281 L 84.042969 740.664062 L 82.546875 744.894531 L 81.144531 749.28125 L 79.832031 753.796875 L 78.582031 758.3125 L 77.363281 762.707031 L 76.113281 766.921875 L 74.617188 771.222656 L 72.636719 775.941406 L 70.113281 781.265625 L 67.757812 786.777344 L 66.472656 791.921875 L 66.804688 796.25 L 67.886719 799.796875 L 68.496094 802.703125 L 67.722656 805.144531 L 65.910156 807.382812 L 63.710938 809.707031 L 61.789062 812.398438 L 60.59375 815.855469 L 59.792969 820.886719 L 58.855469 828.410156 L 57.402344 838.84375 L 55.671875 850.582031 L 54.0625 861.507812 L 52.9375 869.992188 L 52.46875 876.261719 L 52.804688 881.027344 L 53.992188 884.941406 L 55.703125 888.433594 L 57.527344 891.871094 L 59.042969 895.628906 L 59.933594 899.988281 L 60.253906 904.847656 L 60.152344 910.019531 L 59.78125 915.46875 L 59.28125 921.8125 L 58.785156 929.824219 L 58.457031 939.9375 L 58.546875 951.238281 L 59.339844 962.472656 L 60.980469 972.625 L 63.09375 981.628906 L 65.179688 989.644531 L 66.738281 996.839844 L 67.410156 1003.320312 L 67.40625 1009.003906 L 67.082031 1013.746094 L 66.804688 1017.574219 L 66.976562 1021.207031 L 68.011719 1025.523438 L 70.125 1031.070312 L 72.742188 1037.042969 L 75.089844 1042.300781 L 76.601562 1046.050781 L 77.539062 1048.882812 L 78.367188 1051.71875 L 79.476562 1055.324219 L 80.925781 1059.804688 L 82.714844 1065.085938 L 84.824219 1071.105469 L 87.171875 1077.6875 L 89.398438 1084.226562 L 91.066406 1090.007812 L 91.976562 1094.542969 L 92.851562 1098.28125 L 94.652344 1101.882812 L 98.011719 1105.832031 L 102.230469 1109.871094 L 106.285156 1113.539062 L 109.429688 1116.546875 L 111.988281 1119.214844 L 114.566406 1122.019531 L 117.765625 1125.445312 L 121.957031 1129.824219 L 126.5625 1134.917969 L 130.765625 1140.351562 L 134.050781 1145.738281 L 137.058594 1150.710938 L 140.722656 1154.902344 L 145.546875 1158.082031 L 150.332031 1160.570312 L 153.453125 1162.835938 L 153.871094 1165.261719 L 152.871094 1167.921875 L 152.332031 1170.8125 L 154.121094 1173.929688 L 159.328125 1177.289062 L 165.871094 1180.964844 L 170.882812 1185.066406 L 172.417969 1189.609375 L 172.289062 1194.308594 L 173.222656 1198.796875 L 177.113281 1202.804688 L 182.453125 1206.46875 L 186.886719 1210.015625 L 188.722656 1213.632812 L 188.921875 1217.355469 L 189.101562 1221.171875 L 190.890625 1225.074219 L 195.34375 1229.046875 L 201.253906 1233.105469 L 206.847656 1237.257812 L 210.8125 1241.496094 L 213.691406 1245.726562 L 216.484375 1249.824219 L 219.824219 1253.707031 L 222.898438 1257.371094 L 224.511719 1260.851562 L 223.957031 1264.183594 L 222.429688 1267.460938 L 221.609375 1270.777344 L 223.171875 1274.238281 L 228.09375 1277.9375 L 234.582031 1281.933594 L 240.132812 1286.289062 L 243.054688 1290.988281 L 244.839844 1295.75 L 247.792969 1300.222656 L 253.476562 1304.160156 L 260.515625 1307.757812 L 266.800781 1311.300781 L 270.824219 1315.085938 L 273.441406 1319.386719 L 276.101562 1324.480469 L 280.257812 1330.640625 L 286.734375 1337.980469 L 293.8125 1345.988281 L 299.160156 1353.976562 L 301.496094 1361.402344 L 303.789062 1368.210938 L 310.078125 1374.46875 L 322.683594 1380.234375 L 337.089844 1385.507812 L 347.054688 1390.265625 L 348.46875 1394.523438 L 345.703125 1398.417969 L 345.242188 1402.113281 L 353.578125 1405.78125 L 374.824219 1409.496094 L 403.570312 1412.960938 L 432.019531 1415.785156 L 453.769531 1417.667969 L 467.945312 1418.664062 L 475.066406 1418.921875 L 476.351562 1418.582031 L 475.90625 1417.785156 L 478.527344 1416.664062 L 487.734375 1415.320312 L 501.855469 1413.679688 L 517.921875 1411.625 L 532.976562 1409.042969 L 544.753906 1405.894531 L 553.839844 1402.441406 L 561.527344 1399.027344 L 568.976562 1395.878906 L 576.804688 1392.796875 L 585.484375 1389.453125 L 595.195312 1385.644531 L 604.902344 1381.574219 L 613.257812 1377.550781 L 619.265625 1373.832031 L 623.328125 1370.402344 L 626.199219 1367.199219 L 628.628906 1364.152344 L 631.332031 1361.136719 L 634.917969 1357.792969 L 639.953125 1353.71875 L 646.609375 1348.691406 L 653.480469 1343.296875 L 658.757812 1338.3125 L 661.195312 1334.1875 L 661.769531 1330.085938 L 662.023438 1324.847656 L 663.085938 1317.636719 L 664.4375 1308.957031 L 665.164062 1299.644531 L 664.582031 1290.390625 L 663.015625 1281.316406 L 661.019531 1272.398438 L 659.164062 1263.621094 L 657.855469 1254.976562 L 656.878906 1246.539062 L 655.867188 1238.398438 L 654.539062 1230.175781 L 653.011719 1219.613281 L 651.488281 1203.984375 L 650.121094 1181.667969 L 648.863281 1155.484375 L 647.613281 1129.363281 L 646.300781 1106.601562 L 644.929688 1087.921875 L 643.539062 1073.410156 L 642.164062 1063.164062 L 640.832031 1056.582031 L 639.519531 1050.355469 L 638.203125 1040.484375 L 636.859375 1023.980469 L 635.496094 1001.863281 L 634.136719 976.164062 L 632.792969 948.914062 L 631.460938 922.167969 L 630.132812 897.996094 L 628.792969 878.023438 L 627.449219 862.09375 L 626.105469 849.628906 L 624.757812 840.039062 L 623.414062 832.667969 L 622.070312 826.59375 L 620.730469 820.832031 L 619.390625 814.675781 L 618.050781 808.539062 L 616.710938 803.117188 L 615.371094 798.683594 L 614.027344 793.785156 L 612.679688 786.554688 L 611.335938 775.730469 L 609.992188 762.46875 L 608.648438 748.535156 L 607.308594 735.6875 L 605.976562 725.304688 L 604.640625 717.171875 L 603.296875 710.6875 L 601.945312 705.304688 L 600.589844 700.714844 L 599.242188 696.65625 L 597.917969 692.957031 L 596.59375 689.726562 L 595.257812 687.164062 L 593.898438 685.277344 L 592.53125 683.332031 L 591.171875 680.417969 L 589.84375 675.617188 L 588.554688 668.257812 L 587.257812 658.625 L 585.902344 647.242188 L 584.457031 634.863281 L 583.007812 623.113281 L 581.671875 613.84375 L 580.507812 608.277344 L 579.382812 605.125 L 578.097656 602.460938 L 576.535156 598.671875 L 574.828125 593.359375 L 573.195312 586.425781 L 571.839844 577.773438 L 570.761719 567.546875 L 569.082031 556.855469 L 565.71875 547.046875 L 559.984375 539.148438 L 552.785156 532.917969 L 545.433594 527.796875 L 538.96875 523.339844 L 533.390625 519.597656 L 528.417969 516.738281 L 523.835938 514.847656 L 519.636719 513.6875 L 515.871094 512.9375 L 512.585938 512.285156 L 509.765625 511.421875 L 507.09375 510.097656 L 504.195312 508.070312 L 500.78125 505.1875 L 496.929688 501.621094 L 492.816406 497.625 L 488.601562 493.476562 L 484.359375 489.515625 L 480.167969 486.097656 L 476.078125 483.484375 L 472.136719 481.535156 L 468.375 480.003906 L 464.828125 478.648438 L 461.511719 477.230469 L 458.359375 475.527344 L 455.296875 473.316406 L 452.128906 470.480469 L 448.234375 467.273438 L 442.875 464.054688 L 435.890625 461.105469 L 429.441406 458.394531 L 426.269531 455.8125 L 426.007812 453.265625 L 415.886719 450.683594 L 380.042969 448.007812 L 302.601562 445.171875 L 296.589844 447.152344 "/>
<path style="fill:none;stroke-width:0.75;stroke-linecap:round;stroke-linejoin:round;stroke:rgb(0%,0%,0%);stroke-opacity:1;stroke-miterlimit:10;" d="M 504.164062 210.210938 L 501.1875 213.625 L 499.109375 216.730469 L 492.035156 219.664062 L 476.65625 222.707031 L 463.386719 226.1875 L 453.804688 229.996094 L 446.265625 233.964844 L 439.289062 238.046875 L 431.832031 242.238281 L 424.667969 246.550781 L 419.648438 250.988281 L 417.804688 255.308594 L 416.558594 258.589844 L 413.738281 260.851562 L 408.226562 262.441406 L 401.800781 263.933594 L 397.503906 265.902344 L 398.640625 268.695312 L 401.253906 272.527344 L 400.660156 277.609375 L 397.285156 284.285156 L 393.769531 293.082031 L 392.167969 304.167969 L 391.230469 316.128906 L 389.761719 327.546875 L 389.5625 338.71875 L 391.011719 350.644531 L 393.640625 363.734375 L 395.976562 375.789062 L 396.585938 384.730469 L 395.574219 391.390625 L 394.917969 396.636719 L 396.242188 401.085938 L 398.601562 405.128906 L 401.882812 409.003906 L 406.027344 412.953125 L 409.566406 417.3125 L 411.28125 422.242188 L 412.535156 427.207031 L 415.882812 432.066406 L 422.230469 436.609375 L 426.84375 440.007812 L 429.726562 442.339844 L 432.269531 443.957031 L 434.863281 445.207031 L 437.554688 446.382812 L 440.140625 447.578125 L 442.792969 448.796875 L 445.882812 450.039062 L 450.105469 451.367188 L 456.339844 452.886719 L 464.835938 454.800781 L 472.085938 457.21875 L 475.640625 460.304688 L 479.886719 464.445312 L 486.582031 469.546875 L 495.503906 475.234375 L 503.15625 480.4375 L 506.863281 484.234375 L 509.871094 486.863281 L 514.527344 488.683594 L 522.621094 489.949219 L 535.023438 490.597656 L 547.554688 490.265625 L 556.238281 488.609375 L 563.050781 485.605469 L 570.058594 481.480469 L 574.929688 476.957031 L 578.730469 472.023438 L 583.464844 466.574219 L 589.460938 461.074219 L 594.28125 455.953125 L 595.925781 451.214844 L 596.570312 445.304688 L 598.101562 436.695312 L 598.0625 425.585938 L 596.75 413.09375 L 595.265625 399.925781 L 593.824219 384.679688 L 592.402344 365.304688 L 591.140625 340.78125 L 590.929688 315.839844 L 592.359375 296.039062 L 594.1875 283.496094 L 595.402344 275.84375 L 595.363281 270.203125 L 594.171875 265.441406 L 592.226562 260.714844 L 589.769531 254.898438 L 584.777344 248.113281 L 576.308594 241.050781 L 568.765625 234.964844 L 562.839844 229.949219 L 556.949219 225.773438 L 545.84375 222.300781 L 528.875 219.363281 L 521.292969 216.601562 L 519.140625 213.867188 L 514.164062 211.140625 L 505.628906 208.527344 L 504.164062 210.210938 "/>
<path style="fill:none;stroke-width:0.75;stroke-linecap:round;stroke-linejoin:round;stroke:rgb(0%,0%,0%);stroke-opacity:1;stroke-miterlimit:10;" d="M 561.015625 488.222656 L 558.332031 490.574219 L 528.808594 493.5 L 520.753906 497.589844 L 520.753906 501.480469 L 518.070312 505.042969 L 518.070312 508.945312 L 526.125 512.996094 L 531.492188 515.671875 L 534.175781 517.425781 L 536.859375 519.132812 L 542.226562 521.878906 L 544.910156 526.078125 L 555.648438 532.730469 L 555.648438 540.660156 L 571.75 548.386719 L 577.117188 551.816406 L 579.800781 551.007812 L 579.800781 548.222656 L 582.488281 544.957031 L 582.488281 541.683594 L 587.855469 538.691406 L 590.539062 536.238281 L 590.539062 532.773438 L 595.90625 527.207031 L 595.90625 520.464844 L 593.222656 514.835938 L 593.222656 510.472656 L 590.539062 507.230469 L 590.539062 504.527344 L 593.222656 501.699219 L 593.222656 498.195312 L 598.589844 493.988281 L 593.222656 490.171875 L 561.015625 487.5 L 561.015625 488.222656 "/>
<path style="fill:none;stroke-width:0.75;stroke-linecap:round;stroke-linejoin:round;stroke:rgb(0%,0%,0%);stroke-opacity:1;stroke-miterlimit:10;" d="M 626.148438 531.648438 L 620.234375 533.257812 L 614.222656 534.96875 L 608.703125 536.546875 L 604.246094 537.761719 L 601.199219 538.507812 L 598.960938 539.160156 L 596.683594 540.226562 L 593.535156 542.210938 L 588.96875 545.503906 L 583.65625 550.078125 L 578.554688 555.789062 L 574.636719 562.496094 L 572.621094 569.976562 L 572.269531 577.652344 L 573.09375 584.859375 L 574.613281 590.933594 L 576.34375 595.210938 L 577.894531 597.425781 L 579.265625 598.914062 L 580.53125 601.402344 L 581.785156 606.625 L 583.09375 615.726562 L 584.449219 627.492188 L 585.824219 640.121094 L 587.203125 651.816406 L 588.558594 661.15625 L 589.894531 668.273438 L 591.222656 673.679688 L 592.546875 677.886719 L 593.878906 681.40625 L 595.21875 684.660156 L 596.566406 687.667969 L 597.917969 690.371094 L 599.269531 692.699219 L 600.613281 694.769531 L 601.953125 697.425781 L 603.289062 701.699219 L 604.625 708.613281 L 605.964844 718.8125 L 607.308594 731.351562 L 608.652344 744.914062 L 609.996094 758.167969 L 611.339844 769.785156 L 612.683594 778.804688 L 614.023438 785.730469 L 615.367188 791.429688 L 616.707031 796.765625 L 618.046875 802.421875 L 619.390625 808.324219 L 620.730469 814.214844 L 622.074219 819.832031 L 623.417969 825.183594 L 624.761719 831.332031 L 626.101562 839.601562 L 627.445312 851.3125 L 628.785156 867.792969 L 630.125 889.769531 L 631.464844 915.570312 L 632.804688 942.929688 L 634.148438 969.578125 L 635.496094 993.558594 L 636.84375 1014.152344 L 638.191406 1030.960938 L 639.53125 1043.574219 L 640.863281 1052.101562 L 642.195312 1058.6875 L 643.523438 1066.003906 L 644.863281 1076.703125 L 646.214844 1093.453125 L 647.582031 1117.734375 L 648.953125 1146.3125 L 650.3125 1174.773438 L 651.640625 1198.695312 L 652.933594 1214.871094 L 654.214844 1224.882812 L 655.515625 1231.527344 L 656.867188 1237.589844 L 658.285156 1245.246094 L 659.734375 1254.199219 L 661.171875 1263.554688 L 662.550781 1272.394531 L 663.820312 1279.820312 L 664.960938 1285.210938 L 666.054688 1289.089844 L 667.210938 1292.269531 L 668.539062 1295.570312 L 670.125 1299.542969 L 671.96875 1303.746094 L 674.054688 1307.476562 L 676.351562 1310.03125 L 678.933594 1310.917969 L 682.210938 1310.4375 L 686.6875 1309.097656 L 692.855469 1307.402344 L 701.222656 1305.855469 L 712.027344 1304.816406 L 724.515625 1304.003906 L 737.664062 1303.003906 L 750.453125 1301.386719 L 762.148438 1298.847656 L 773.113281 1295.566406 L 783.988281 1291.835938 L 795.421875 1287.949219 L 807.800781 1284.152344 L 820.535156 1280.457031 L 832.78125 1276.828125 L 843.691406 1273.226562 L 852.425781 1269.609375 L 858.476562 1265.945312 L 862.679688 1262.226562 L 866.199219 1258.4375 L 870.210938 1254.574219 L 875.597656 1250.59375 L 882.113281 1246.328125 L 889.230469 1241.570312 L 896.425781 1236.117188 L 903.257812 1229.855469 L 909.664062 1223.023438 L 915.675781 1215.957031 L 921.328125 1208.988281 L 926.640625 1202.445312 L 931.632812 1196.59375 L 936.21875 1191.390625 L 940.296875 1186.714844 L 943.773438 1182.460938 L 946.601562 1178.511719 L 948.964844 1174.808594 L 951.105469 1171.285156 L 953.257812 1167.886719 L 955.597656 1164.558594 L 958.054688 1161.28125 L 960.488281 1158.042969 L 962.757812 1154.828125 L 964.78125 1151.617188 L 966.703125 1148.355469 L 968.722656 1144.976562 L 971.035156 1141.417969 L 973.84375 1137.625 L 977.203125 1133.574219 L 980.605469 1129.476562 L 983.398438 1125.578125 L 984.933594 1122.128906 L 984.8125 1119.316406 L 983.613281 1117.039062 L 982.183594 1115.132812 L 981.347656 1113.425781 L 981.746094 1111.761719 L 983.179688 1109.984375 L 985.253906 1107.949219 L 987.570312 1105.507812 L 989.730469 1102.515625 L 991.441406 1098.847656 L 992.824219 1094.496094 L 994.105469 1089.464844 L 995.511719 1083.765625 L 997.203125 1077.472656 L 999.113281 1070.886719 L 1001.097656 1064.390625 L 1003.023438 1058.347656 L 1004.792969 1053.03125 L 1006.4375 1048.324219 L 1008.023438 1044.003906 L 1009.621094 1039.859375 L 1011.300781 1035.664062 L 1013.101562 1031.238281 L 1014.96875 1026.503906 L 1016.8125 1021.421875 L 1018.550781 1015.957031 L 1020.109375 1010.046875 L 1021.46875 1003.59375 L 1022.617188 996.484375 L 1023.542969 988.601562 L 1024.242188 979.925781 L 1024.773438 970.804688 L 1025.195312 961.671875 L 1025.570312 952.96875 L 1025.960938 945.136719 L 1026.4375 938.449219 L 1027.085938 932.546875 L 1028 926.902344 L 1029.265625 920.996094 L 1030.90625 914.527344 L 1032.605469 908.097656 L 1033.988281 902.53125 L 1034.667969 898.65625 L 1034.394531 896.832031 L 1033.460938 895.605469 L 1032.300781 893.050781 L 1031.339844 887.246094 L 1031.003906 876.273438 L 1031.558594 859.101562 L 1032.589844 838.28125 L 1033.507812 817.242188 L 1033.730469 799.429688 L 1032.851562 787.390625 L 1031.136719 780.132812 L 1029.035156 775.785156 L 1026.996094 772.472656 L 1025.367188 768.660156 L 1024.09375 764.214844 L 1023.027344 759.335938 L 1022.023438 754.226562 L 1020.933594 749.09375 L 1019.644531 744.070312 L 1018.199219 738.988281 L 1016.6875 733.605469 L 1015.183594 727.679688 L 1013.753906 721.082031 L 1012.402344 714.085938 L 1011.109375 707.078125 L 1009.851562 700.441406 L 1008.613281 694.476562 L 1007.371094 689.117188 L 1006.09375 684.210938 L 1004.757812 679.613281 L 1003.335938 675.167969 L 1001.808594 670.769531 L 1000.191406 666.5 L 998.503906 662.480469 L 996.769531 658.835938 L 995.003906 655.644531 L 993.238281 652.769531 L 991.496094 650.039062 L 989.796875 647.269531 L 988.171875 644.296875 L 986.644531 641.019531 L 985.246094 637.335938 L 984.007812 633.164062 L 982.953125 628.40625 L 982.074219 623.027344 L 981.179688 617.21875 L 980.042969 611.21875 L 978.429688 605.273438 L 976.171875 599.601562 L 973.296875 594.34375 L 969.894531 589.609375 L 966.054688 585.519531 L 961.867188 582.117188 L 957.421875 579.167969 L 952.800781 576.355469 L 948.101562 573.378906 L 943.410156 569.921875 L 938.738281 565.8125 L 933.8125 561.40625 L 928.277344 557.179688 L 921.785156 553.628906 L 914.152344 551.089844 L 905.875 549.347656 L 897.613281 548.039062 L 890.03125 546.8125 L 883.640625 545.390625 L 878.320312 543.832031 L 873.808594 542.292969 L 869.832031 540.914062 L 866.121094 539.847656 L 862.492188 539.269531 L 859.136719 539.464844 L 856.324219 540.742188 L 854.332031 543.414062 L 853.238281 547.667969 L 852.347656 553.140625 L 850.777344 559.351562 L 847.632812 565.820312 L 842.449219 572.085938 L 836.433594 577.855469 L 831.226562 582.855469 L 828.453125 586.8125 L 829.203125 589.585938 L 832.371094 591.488281 L 836.308594 592.96875 L 839.367188 594.460938 L 839.894531 596.410156 L 836.855469 599.101562 L 831.632812 602.203125 L 826.222656 605.230469 L 822.625 607.699219 L 822.214844 609.304688 L 823.917969 610.457031 L 826.039062 611.746094 L 826.882812 613.769531 L 825.191406 616.96875 L 821.429688 621.195312 L 816.492188 626.152344 L 811.28125 631.550781 L 806.6875 637.089844 L 803.378906 642.488281 L 801.121094 647.507812 L 799.4375 651.925781 L 797.863281 655.511719 L 796.152344 658.207031 L 794.964844 660.597656 L 795.195312 663.429688 L 797.726562 667.457031 L 803.066406 673.164062 L 810.1875 680.019531 L 817.667969 687.21875 L 824.097656 693.972656 L 828.054688 699.476562 L 828.570312 703.207031 L 826.40625 705.6875 L 822.773438 707.714844 L 818.875 710.089844 L 815.765625 713.394531 L 813.839844 717.421875 L 813.351562 721.738281 L 814.539062 725.929688 L 817.539062 729.675781 L 822.050781 733.046875 L 827.652344 736.226562 L 833.929688 739.394531 L 840.472656 742.730469 L 846.828125 746.363281 L 852.394531 750.265625 L 856.542969 754.355469 L 858.632812 758.554688 L 858.328125 762.777344 L 856.445312 766.90625 L 854.101562 770.816406 L 852.402344 774.378906 L 852.09375 777.519531 L 852.46875 780.359375 L 852.441406 783.074219 L 850.929688 785.839844 L 846.855469 788.828125 L 839.625 792.1875 L 830.585938 796 L 821.578125 800.324219 L 814.4375 805.21875 L 810.554688 810.644531 L 809.507812 816.1875 L 810.421875 821.332031 L 812.425781 825.566406 L 814.71875 828.546875 L 816.777344 830.59375 L 818.144531 832.210938 L 818.375 833.882812 L 817.003906 836.109375 L 813.769531 839.246094 L 809.121094 843.105469 L 803.691406 847.367188 L 798.117188 851.703125 L 792.929688 855.859375 L 788.269531 859.808594 L 784.171875 863.605469 L 780.667969 867.289062 L 777.871094 870.886719 L 776.210938 874.363281 L 776.179688 877.660156 L 778.285156 880.722656 L 783.027344 883.492188 L 790.457031 885.945312 L 798.835938 888.195312 L 805.976562 890.378906 L 809.683594 892.636719 L 808.496094 895.089844 L 803.8125 897.746094 L 797.765625 900.59375 L 792.476562 903.613281 L 789.679688 906.785156 L 789.507812 910.054688 L 791.699219 913.355469 L 795.996094 916.632812 L 802.132812 919.816406 L 809.570312 922.863281 L 816.648438 925.78125 L 821.421875 928.605469 L 821.949219 931.363281 L 817.0625 934.089844 L 808.695312 936.867188 L 799.554688 939.792969 L 792.339844 942.953125 L 789.070312 946.425781 L 788.988281 950.191406 L 790.632812 954.210938 L 792.558594 958.453125 L 793.308594 962.878906 L 791.882812 967.453125 L 789.097656 972.144531 L 786.214844 976.914062 L 784.507812 981.734375 L 784.851562 986.519531 L 786.578125 990.96875 L 788.628906 994.738281 L 789.949219 997.472656 L 789.746094 999.066406 L 788.304688 1000.355469 L 786.179688 1002.40625 L 783.921875 1006.296875 L 781.933594 1012.757812 L 780.027344 1021.140625 L 777.863281 1030.453125 L 775.097656 1039.699219 L 771.390625 1047.890625 L 766.621094 1054.113281 L 761.523438 1057.765625 L 757.050781 1058.328125 L 754.148438 1055.277344 L 753.449219 1048.441406 L 754.328125 1039.011719 L 755.832031 1028.53125 L 757.015625 1018.539062 L 757.195312 1010.269531 L 756.777344 1003.707031 L 756.4375 998.523438 L 756.847656 994.394531 L 758.683594 991 L 762.171875 988.023438 L 765.777344 985.203125 L 767.527344 982.289062 L 765.433594 979.035156 L 758.246094 975.269531 L 747.574219 971.152344 L 735.753906 966.914062 L 725.125 962.796875 L 717.523438 958.953125 L 712.816406 955.21875 L 710.367188 951.347656 L 709.550781 947.09375 L 709.734375 942.214844 L 710.320312 936.582031 L 710.871094 930.515625 L 710.96875 924.460938 L 710.210938 918.855469 L 708.449219 914.050781 L 706.589844 910.035156 L 705.796875 906.710938 L 707.234375 903.96875 L 711.578125 901.707031 L 717.535156 899.78125 L 723.332031 898.039062 L 727.179688 896.335938 L 727.300781 894.519531 L 722.613281 892.453125 L 714.832031 890.042969 L 706.378906 887.207031 L 699.671875 883.867188 L 696.484375 879.953125 L 696.007812 875.429688 L 696.78125 870.273438 L 697.359375 864.464844 L 696.636719 858.011719 L 694.890625 851.039062 L 692.765625 843.714844 L 690.890625 836.195312 L 689.902344 828.640625 L 690.253906 821.257812 L 691.6875 814.4375 L 693.761719 808.601562 L 696.039062 804.183594 L 698.132812 801.394531 L 699.878906 799.53125 L 701.164062 797.6875 L 701.886719 794.941406 L 701.945312 790.53125 L 701.3125 784.285156 L 699.960938 776.191406 L 697.875 766.234375 L 695.03125 754.398438 L 691.441406 740.894531 L 687.214844 726.847656 L 682.496094 713.609375 L 677.417969 702.523438 L 672.285156 694.527344 L 668.046875 688.878906 L 665.804688 684.425781 L 666.671875 680.011719 L 671.300781 674.75 L 678.535156 668.828125 L 686.773438 662.703125 L 694.410156 656.839844 L 699.832031 651.6875 L 701.945312 647.550781 L 701.664062 644.09375 L 700.410156 640.816406 L 699.609375 637.226562 L 700.269531 632.964844 L 701.738281 628.238281 L 702.960938 623.386719 L 702.871094 618.753906 L 700.738281 614.597656 L 697.179688 610.847656 L 693.125 607.347656 L 689.523438 603.933594 L 687.308594 600.460938 L 687.144531 596.824219 L 688.53125 593.175781 L 690.703125 589.734375 L 692.878906 586.710938 L 694.308594 584.230469 L 694.328125 582.082031 L 692.300781 579.964844 L 687.585938 577.578125 L 679.972656 574.710938 L 670.9375 571.496094 L 662.390625 568.167969 L 656.234375 564.9375 L 654.375 562.039062 L 657.886719 559.617188 L 664.484375 557.492188 L 671.050781 555.421875 L 674.476562 553.148438 L 672.566406 550.496094 L 666.820312 547.550781 L 659.65625 544.476562 L 653.503906 541.433594 L 650.039062 538.566406 L 647.976562 535.972656 L 645.292969 533.734375 L 639.957031 531.933594 L 629.949219 530.65625 L 626.148438 531.648438 "/>
<path style="fill:none;stroke-width:0.75;stroke-linecap:round;stroke-linejoin:round;stroke:rgb(0%,0%,0%);stroke-opacity:1;stroke-miterlimit:10;" d="M 684.386719 137.554688 L 680.71875 138.296875 L 678.136719 138.867188 L 675.367188 140.222656 L 671.285156 143.203125 L 665.382812 148.125 L 657.308594 155.191406 L 647.207031 164.246094 L 637.257812 173.734375 L 630.125 181.753906 L 627.578125 186.972656 L 627.699219 190.355469 L 627.660156 193.425781 L 625.378906 197.347656 L 621.699219 201.761719 L 618.222656 205.953125 L 616.140625 209.367188 L 615.066406 212.195312 L 614.207031 214.808594 L 612.964844 217.480469 L 611.425781 220.164062 L 609.875 222.710938 L 608.515625 225.078125 L 607.28125 227.5625 L 606.042969 230.5625 L 604.695312 234.425781 L 603.289062 239.335938 L 601.898438 245.429688 L 600.574219 252.640625 L 599.285156 260.066406 L 597.972656 266.617188 L 596.59375 271.796875 L 595.164062 277.589844 L 593.71875 286.597656 L 592.355469 300.644531 L 591.394531 318.484375 L 591.234375 338.105469 L 592.105469 357.625 L 593.640625 375.742188 L 595.320312 391.28125 L 596.75 403.667969 L 597.984375 414.703125 L 599.203125 426.78125 L 600.535156 441.429688 L 601.910156 456.722656 L 603.21875 469.882812 L 604.433594 478.820312 L 605.953125 484.222656 L 608.261719 487.488281 L 611.699219 489.824219 L 615.949219 491.722656 L 620.554688 493.492188 L 625.152344 495.335938 L 629.839844 496.996094 L 634.816406 498.101562 L 640.179688 498.195312 L 645.574219 496.453125 L 650.542969 491.972656 L 654.644531 484.34375 L 657.53125 475.167969 L 658.878906 466.554688 L 658.761719 460.136719 L 658.792969 455.699219 L 660.996094 452.554688 L 666.671875 450.058594 L 674.308594 447.742188 L 681.667969 445.175781 L 686.882812 442.007812 L 689.503906 438.214844 L 689.425781 433.84375 L 686.628906 429.054688 L 681.34375 424.394531 L 673.875 420.519531 L 664.886719 417.808594 L 656.496094 415.539062 L 651.191406 412.710938 L 650.488281 408.613281 L 652.105469 403.707031 L 652.796875 398.746094 L 650.390625 394.351562 L 647.054688 390.605469 L 646.039062 387.472656 L 649.355469 384.886719 L 654.128906 382.679688 L 656.261719 380.65625 L 652.898438 378.660156 L 646.195312 376.6875 L 639.550781 374.769531 L 635.792969 372.898438 L 635.453125 370.96875 L 638.492188 368.835938 L 644.363281 366.386719 L 650.503906 363.632812 L 653.855469 360.609375 L 652.292969 357.378906 L 647.476562 354.070312 L 642.007812 350.851562 L 637.992188 347.769531 L 635.585938 344.464844 L 634.441406 340.460938 L 634.167969 335.394531 L 634.132812 329.292969 L 633.65625 322.28125 L 632.253906 314.601562 L 630.238281 306.949219 L 628.113281 300.121094 L 626.410156 294.726562 L 625.703125 290.589844 L 626.582031 287.332031 L 629.324219 284.460938 L 632.945312 281.039062 L 636.148438 276.007812 L 638.003906 268.792969 L 639.019531 260.71875 L 640.070312 253.59375 L 641.75 248.726562 L 643.527344 245.414062 L 644.601562 242.449219 L 644.324219 238.917969 L 642.703125 235.039062 L 639.898438 231.320312 L 636.261719 228.140625 L 632.875 225.394531 L 631.007812 222.851562 L 631.617188 220.328125 L 634.464844 217.828125 L 639 215.394531 L 644.53125 213.042969 L 649.765625 210.644531 L 653.246094 208.039062 L 654.132812 205.136719 L 654.003906 202.132812 L 655.027344 199.304688 L 658.65625 196.769531 L 663.394531 194.019531 L 667.035156 190.394531 L 668.351562 185.511719 L 670.113281 180.09375 L 676.09375 175.144531 L 688.726562 171.519531 L 705.101562 169.5 L 720.96875 169.214844 L 732.992188 170.730469 L 741.488281 173.816406 L 747.683594 178.171875 L 752.765625 183.445312 L 757.839844 189.109375 L 763.960938 194.574219 L 771.707031 199.375 L 779.664062 203.492188 L 785.925781 207.027344 L 789.234375 210.089844 L 790.945312 212.859375 L 793.058594 215.527344 L 796.875 218.21875 L 800.878906 220.808594 L 802.832031 223.109375 L 801.277344 225.023438 L 797.796875 226.828125 L 794.75 228.898438 L 793.9375 231.558594 L 794.964844 234.984375 L 796.898438 239.3125 L 799.015625 244.539062 L 801.445312 250.117188 L 804.539062 255.367188 L 808.5 259.859375 L 812.960938 264.1875 L 817.398438 269.199219 L 821.316406 275.515625 L 824.289062 282.871094 L 825.894531 290.769531 L 825.824219 298.691406 L 824.164062 306 L 821.089844 312.023438 L 817.140625 316.410156 L 814.289062 320.070312 L 814.859375 324.234375 L 820.253906 329.71875 L 828.1875 335.652344 L 835.441406 340.746094 L 839.492188 344.105469 L 840.523438 346.382812 L 839.410156 348.621094 L 836.984375 351.664062 L 833.882812 355.582031 L 830.714844 360.25 L 828.082031 365.429688 L 826.636719 370.480469 L 827.035156 374.640625 L 829.523438 377.414062 L 832.722656 379.316406 L 834.847656 381.113281 L 834.574219 383.429688 L 832.4375 386.28125 L 829.4375 389.539062 L 826.578125 393.035156 L 824.882812 396.414062 L 825.371094 399.28125 L 828.546875 401.410156 L 832.84375 403.214844 L 836.160156 405.273438 L 837.039062 408.085938 L 836.550781 411.855469 L 836.390625 416.722656 L 837.804688 422.648438 L 840.164062 428.96875 L 842.386719 434.851562 L 843.765625 439.675781 L 845.097656 443.675781 L 847.554688 447.296875 L 851.777344 450.878906 L 856.273438 454.390625 L 859.003906 457.679688 L 858.570312 460.632812 L 856.089844 463.195312 L 853.296875 465.34375 L 851.667969 467.128906 L 851.613281 468.933594 L 853.28125 471.238281 L 856.382812 474.382812 L 858.878906 478.234375 L 858.292969 482.53125 L 853.285156 486.976562 L 847.050781 491.136719 L 843.90625 494.554688 L 846.871094 496.835938 L 853.746094 497.917969 L 861.015625 497.804688 L 865.988281 496.574219 L 869.230469 494.609375 L 872.117188 492.371094 L 875.746094 490.179688 L 880.085938 487.847656 L 884.828125 485.066406 L 889.746094 481.574219 L 894.925781 477.367188 L 900.53125 472.503906 L 906.519531 467.070312 L 912.039062 461.324219 L 916.011719 455.542969 L 917.703125 449.90625 L 917.660156 444.175781 L 916.765625 437.988281 L 915.734375 431.121094 L 914.65625 423.847656 L 913.457031 416.578125 L 912.089844 409.617188 L 910.636719 402.90625 L 909.195312 396.28125 L 907.851562 389.6875 L 906.558594 383.453125 L 905.257812 378.015625 L 903.902344 373.660156 L 902.539062 370.113281 L 901.234375 366.957031 L 899.992188 363.921875 L 898.546875 361.296875 L 896.570312 359.523438 L 893.890625 358.832031 L 890.960938 358.660156 L 888.390625 358.25 L 886.59375 356.988281 L 885.199219 354.84375 L 883.644531 351.929688 L 881.527344 348.292969 L 879.175781 343.753906 L 877.078125 338.054688 L 875.578125 331.171875 L 874.429688 323.96875 L 873.246094 317.523438 L 871.71875 312.546875 L 869.914062 308.199219 L 867.996094 303.265625 L 866.09375 296.902344 L 864.253906 289.71875 L 862.484375 282.699219 L 860.734375 276.589844 L 858.664062 271.207031 L 855.859375 266.125 L 852.140625 261.0625 L 848.300781 256.246094 L 845.363281 252.046875 L 844.003906 248.679688 L 843.484375 245.734375 L 842.726562 242.644531 L 840.929688 239 L 838.492188 234.980469 L 836.09375 230.914062 L 834.253906 227.03125 L 832.824219 223.144531 L 831.496094 218.96875 L 829.960938 214.316406 L 827.96875 209.371094 L 825.277344 204.425781 L 821.824219 199.691406 L 818.28125 195.121094 L 815.5 190.597656 L 813.910156 185.984375 L 812.234375 181.023438 L 808.785156 175.445312 L 802.339844 169.152344 L 793.609375 162.785156 L 783.773438 157.15625 L 773.941406 152.894531 L 764.90625 149.878906 L 757.375 147.8125 L 751.789062 146.386719 L 747.519531 145.296875 L 743.652344 144.242188 L 739.410156 142.996094 L 734.480469 141.601562 L 728.679688 140.195312 L 721.261719 138.871094 L 709.265625 137.652344 L 689.175781 136.527344 L 684.386719 137.554688 "/>
<path style="fill:none;stroke-width:0.75;stroke-linecap:round;stroke-linejoin:round;stroke:rgb(0%,0%,0%);stroke-opacity:1;stroke-miterlimit:10;" d="M 961.160156 230.234375 L 957.835938 233.011719 L 953.75 236.285156 L 949.324219 240.546875 L 944.800781 246.179688 L 939.695312 253.105469 L 933.351562 261.121094 L 925.535156 269.847656 L 917.707031 278.179688 L 911.765625 284.824219 L 909.046875 288.917969 L 908.6875 291.253906 L 909.269531 293.054688 L 909.375 295.535156 L 907.984375 299.554688 L 905.648438 304.523438 L 903.316406 309.5 L 901.71875 313.757812 L 900.675781 317.484375 L 899.78125 321.070312 L 898.761719 324.898438 L 897.84375 329.226562 L 897.394531 334.277344 L 897.765625 340.285156 L 899.152344 347.273438 L 901.089844 354.488281 L 902.945312 360.960938 L 904.257812 366.011719 L 905.25 370.0625 L 906.316406 373.816406 L 907.738281 377.816406 L 909.34375 381.976562 L 910.847656 386.066406 L 912.0625 389.890625 L 913.121094 393.457031 L 914.261719 396.820312 L 915.710938 400.039062 L 917.617188 403.175781 L 919.769531 406.328125 L 921.878906 409.601562 L 923.722656 413.019531 L 925.324219 416.269531 L 926.777344 418.964844 L 928.164062 420.9375 L 929.496094 422.910156 L 930.792969 425.832031 L 932.054688 430.664062 L 933.300781 437.953125 L 934.589844 446.707031 L 936 455.527344 L 937.554688 463.265625 L 939.089844 469.734375 L 940.394531 474.992188 L 941.367188 479.171875 L 942.28125 482.746094 L 943.523438 486.257812 L 945.375 490.121094 L 947.707031 494.261719 L 950.304688 498.457031 L 952.945312 502.496094 L 955.421875 506.332031 L 957.597656 510.527344 L 959.355469 515.820312 L 960.640625 522.605469 L 961.675781 529.9375 L 962.746094 536.53125 L 964.066406 541.429688 L 965.5625 544.941406 L 967.082031 547.6875 L 968.480469 550.300781 L 969.664062 553.285156 L 970.800781 556.644531 L 972.109375 560.269531 L 973.71875 564.035156 L 975.371094 567.800781 L 976.714844 571.417969 L 977.566406 574.792969 L 978.363281 578.082031 L 979.714844 581.496094 L 982.042969 585.214844 L 985.09375 589.257812 L 988.421875 593.605469 L 991.597656 598.246094 L 994.261719 603.207031 L 996.410156 608.691406 L 998.109375 614.953125 L 999.457031 622.046875 L 1000.613281 629.246094 L 1001.761719 635.625 L 1003.050781 640.527344 L 1004.445312 644.324219 L 1005.882812 647.640625 L 1007.292969 651.109375 L 1008.632812 655.214844 L 1009.925781 659.832031 L 1011.21875 664.691406 L 1012.550781 669.527344 L 1013.90625 674.097656 L 1015.273438 678.164062 L 1016.632812 681.601562 L 1017.984375 684.734375 L 1019.320312 688.003906 L 1020.636719 691.738281 L 1021.953125 695.804688 L 1023.285156 699.96875 L 1024.648438 703.980469 L 1026.054688 707.652344 L 1027.4375 710.972656 L 1028.730469 713.976562 L 1029.90625 716.730469 L 1031.171875 719.4375 L 1032.777344 722.320312 L 1034.871094 725.53125 L 1037.203125 728.929688 L 1039.40625 732.296875 L 1041.125 735.414062 L 1042.191406 738.179688 L 1043.203125 740.941406 L 1044.949219 744.167969 L 1047.917969 748.144531 L 1051.402344 752.445312 L 1054.402344 756.460938 L 1056.25 759.796875 L 1057.613281 762.9375 L 1059.492188 766.578125 L 1062.660156 771.246094 L 1066.914062 776.75 L 1071.820312 782.734375 L 1076.941406 788.839844 L 1081.894531 794.777344 L 1086.492188 800.59375 L 1090.609375 806.40625 L 1094.160156 812.238281 L 1097.261719 817.734375 L 1100.089844 822.441406 L 1102.765625 826.113281 L 1105.226562 829.292969 L 1107.363281 832.726562 L 1109.0625 837.160156 L 1110.332031 843.210938 L 1111.605469 851.003906 L 1113.4375 860.539062 L 1116.175781 871.519531 L 1119.371094 882.503906 L 1122.382812 891.746094 L 1124.726562 898.039062 L 1126.542969 902.296875 L 1128.144531 905.957031 L 1129.84375 910.164062 L 1131.972656 914.878906 L 1134.875 919.746094 L 1138.894531 924.4375 L 1144.125 928.710938 L 1149.703125 932.792969 L 1154.515625 937.019531 L 1157.792969 941.65625 L 1160.113281 946.683594 L 1162.390625 952.011719 L 1165.324219 957.550781 L 1168.753906 963.230469 L 1172.292969 968.976562 L 1175.566406 974.71875 L 1178.410156 980.351562 L 1181.542969 985.613281 L 1185.898438 990.207031 L 1191.988281 993.992188 L 1198.6875 997.402344 L 1204.441406 1001.03125 L 1208.136719 1005.316406 L 1210.414062 1010.105469 L 1212.355469 1015.097656 L 1214.914062 1020.023438 L 1218.597656 1024.753906 L 1223.785156 1029.1875 L 1230.859375 1033.234375 L 1239.8125 1036.773438 L 1249.050781 1039.601562 L 1256.585938 1041.5 L 1261.226562 1042.386719 L 1264.925781 1042.761719 L 1270.433594 1043.261719 L 1279.695312 1044.386719 L 1291.480469 1046.0625 L 1303.761719 1048.078125 L 1314.515625 1050.226562 L 1322.203125 1052.25 L 1327.253906 1053.703125 L 1330.578125 1054.109375 L 1332.957031 1053.109375 L 1334.609375 1050.847656 L 1335.605469 1047.597656 L 1336.226562 1043.695312 L 1337.550781 1039.691406 L 1340.863281 1036.195312 L 1346.925781 1033.503906 L 1354.417969 1030.632812 L 1361.5 1026.292969 L 1366.339844 1019.179688 L 1367.773438 1008.460938 L 1367.347656 995.121094 L 1367.277344 980.601562 L 1368.996094 966.300781 L 1370.800781 953.441406 L 1370.199219 943.1875 L 1365.605469 936.359375 L 1359.023438 932.316406 L 1353.367188 930.054688 L 1351.535156 928.578125 L 1355.269531 927.03125 L 1361.605469 925.128906 L 1366.402344 922.742188 L 1366.628906 919.800781 L 1363.636719 916.507812 L 1359.882812 913.140625 L 1357.367188 909.871094 L 1356.222656 906.492188 L 1356.132812 902.683594 L 1356.78125 898.261719 L 1357.878906 893.515625 L 1359.136719 888.859375 L 1360.269531 884.699219 L 1361.039062 881.296875 L 1361.386719 878.28125 L 1361.300781 875.132812 L 1360.8125 871.449219 L 1360.125 867.339844 L 1359.492188 863.03125 L 1359.082031 858.742188 L 1358.808594 854.671875 L 1358.507812 851 L 1358.007812 847.921875 L 1357.148438 845.457031 L 1355.785156 843.003906 L 1353.773438 839.789062 L 1351.179688 835.164062 L 1348.921875 828.925781 L 1348.121094 821.007812 L 1349.457031 811.632812 L 1351.8125 802.277344 L 1353.617188 794.738281 L 1353.640625 790.261719 L 1352.007812 787.9375 L 1349.183594 786.324219 L 1345.640625 783.980469 L 1341.871094 779.925781 L 1338.5 775.035156 L 1336.1875 770.652344 L 1335.296875 767.625 L 1335.042969 764.820312 L 1334.347656 760.617188 L 1332.472656 753.808594 L 1330 744.867188 L 1327.855469 734.699219 L 1326.957031 724.195312 L 1327.660156 714.230469 L 1328.09375 705.550781 L 1325.8125 698.871094 L 1319.261719 694.589844 L 1310.40625 691.785156 L 1302.105469 689.214844 L 1296.574219 685.78125 L 1293.5 680.988281 L 1291.9375 674.480469 L 1291.113281 666.03125 L 1290.925781 655.859375 L 1291.433594 644.304688 L 1292.703125 631.707031 L 1294.421875 618.675781 L 1294.71875 606.871094 L 1291.351562 598.234375 L 1283.070312 594.171875 L 1272.597656 594.042969 L 1263.667969 596.683594 L 1259.046875 600.882812 L 1257.726562 605.253906 L 1257.742188 608.363281 L 1257.128906 608.773438 L 1254.605469 605.484375 L 1251.621094 599.253906 L 1250.308594 591.28125 L 1251.972656 582.542969 L 1254.675781 573.203125 L 1255.644531 563.214844 L 1252.949219 552.753906 L 1247.945312 542.886719 L 1242.832031 534.902344 L 1239.292969 529.695312 L 1236.972656 526.574219 L 1235.023438 524.46875 L 1232.59375 522.289062 L 1229.171875 519.199219 L 1225.640625 515.34375 L 1223.226562 511.109375 L 1222.679688 506.769531 L 1222.832031 502.167969 L 1222.039062 497.035156 L 1219.117188 491.230469 L 1214.722656 485.152344 L 1209.964844 479.328125 L 1205.960938 474.28125 L 1203.464844 470.230469 L 1201.78125 466.117188 L 1199.851562 460.578125 L 1196.96875 452.753906 L 1193.816406 443.839844 L 1191.425781 435.53125 L 1190.476562 429.140625 L 1190.242188 424.394531 L 1189.65625 420.640625 L 1187.910156 417.269531 L 1185.25 413.925781 L 1182.210938 410.324219 L 1179.304688 406.160156 L 1176.917969 401.285156 L 1174.851562 396.117188 L 1172.765625 391.203125 L 1170.441406 386.941406 L 1168.09375 383.09375 L 1166.050781 379.253906 L 1164.539062 375.136719 L 1163.324219 370.886719 L 1162.070312 366.75 L 1160.4375 362.992188 L 1158.289062 359.769531 L 1156.304688 356.894531 L 1155.367188 354.082031 L 1155.828125 351.03125 L 1155.929688 347.386719 L 1153.375 342.773438 L 1146.917969 337.054688 L 1139.457031 331.054688 L 1134.929688 325.828125 L 1135.796875 322.097656 L 1138.59375 319.277344 L 1138.371094 316.445312 L 1130.1875 312.6875 L 1111.363281 307.421875 L 1088.308594 301.414062 L 1069.703125 295.761719 L 1061.84375 291.300781 L 1061.535156 287.773438 L 1063.191406 284.648438 L 1062.394531 281.421875 L 1059.324219 277.695312 L 1055.328125 273.089844 L 1051.742188 267.230469 L 1049.394531 260.019531 L 1047.066406 252.453125 L 1043.03125 245.8125 L 1036.371094 241.0625 L 1029.425781 237.902344 L 1025.363281 235.722656 L 1025.222656 234.007812 L 1021.558594 232.601562 L 1004.8125 231.441406 L 965.429688 230.464844 L 961.160156 230.234375 "/>
</g>
</svg>
