<?xml version="1.0" encoding="UTF-8"?>
<svg xmlns="http://www.w3.org/2000/svg" xmlns:xlink="http://www.w3.org/1999/xlink" width="1428pt" height="1605pt" viewBox="0 0 1428 1605" version="1.1">
<g id="surface349">
<rect x="0" y="0" width="1428" height="1605" style="fill:rgb(100%,100%,100%);fill-opacity:1;stroke:none;"/>
<path style="fill:none;stroke-width:0.75;stroke-linecap:round;stroke-linejoin:round;stroke:rgb(0%,0%,0%);stroke-opacity:1;stroke-miterlimit:10;" d="M 696.164062 114.453125 L 689.417969 117.097656 L 682.804688 120.042969 L 676.566406 123.234375 L 670.945312 126.605469 L 666.183594 130.101562 L 662.425781 133.664062 L 659.4375 137.300781 L 656.882812 141.015625 L 654.429688 144.816406 L 651.746094 148.71875 L 648.496094 152.726562 L 644.460938 156.851562 L 639.839844 161.078125 L 634.945312 165.398438 L 630.089844 169.792969 L 625.585938 174.253906 L 621.738281 178.761719 L 618.78125 183.304688 L 616.582031 187.835938 L 614.929688 192.316406 L 613.609375 196.695312 L 612.40625 200.929688 L 611.113281 204.976562 L 609.554688 208.820312 L 607.746094 212.59375 L 605.738281 216.445312 L 603.589844 220.539062 L 601.355469 225.035156 L 599.09375 230.085938 L 596.851562 235.75 L 594.675781 241.640625 L 592.601562 247.265625 L 590.664062 252.128906 L 588.90625 255.746094 L 587.367188 257.621094 L 586.027344 257.417969 L 584.664062 255.410156 L 582.996094 252.039062 L 580.746094 247.730469 L 577.632812 242.917969 L 573.375 238.042969 L 567.785156 233.457031 L 561.03125 229.246094 L 553.371094 225.421875 L 545.0625 221.996094 L 536.363281 218.976562 L 527.53125 216.375 L 518.808594 214.210938 L 510.390625 212.535156 L 502.453125 211.410156 L 495.175781 210.894531 L 488.734375 211.046875 L 483.304688 211.933594 L 478.917969 213.585938 L 474.976562 215.917969 L 470.738281 218.832031 L 465.453125 222.21875 L 458.378906 225.96875 L 449.050781 229.988281 L 438.117188 234.1875 L 426.503906 238.5 L 415.140625 242.847656 L 404.957031 247.160156 L 396.882812 251.363281 L 391.574219 255.390625 L 388.632812 259.238281 L 387.382812 262.910156 L 387.164062 266.410156 L 387.296875 269.738281 L 387.117188 272.898438 L 386.109375 275.90625 L 384.402344 278.792969 L 382.28125 281.59375 L 380.035156 284.351562 L 377.945312 287.105469 L 376.300781 289.890625 L 375.320312 292.75 L 374.996094 295.730469 L 375.242188 298.886719 L 375.988281 302.265625 L 377.152344 305.914062 L 378.660156 309.886719 L 380.429688 314.242188 L 382.351562 319.09375 L 384.320312 324.574219 L 386.222656 330.800781 L 387.957031 337.902344 L 389.40625 346.007812 L 390.511719 355.140625 L 391.378906 364.921875 L 392.167969 374.871094 L 393.027344 384.515625 L 394.117188 393.375 L 395.59375 400.96875 L 397.554688 406.972656 L 399.894531 411.652344 L 402.457031 415.421875 L 405.085938 418.699219 L 407.617188 421.90625 L 409.894531 425.453125 L 411.746094 429.632812 L 412.914062 434.21875 L 413.136719 438.871094 L 412.144531 443.230469 L 409.664062 446.949219 L 405.433594 449.683594 L 399.300781 451.183594 L 391.59375 451.621094 L 382.757812 451.285156 L 373.246094 450.449219 L 363.5 449.394531 L 353.972656 448.402344 L 345.003906 447.71875 L 336.542969 447.441406 L 328.425781 447.648438 L 320.492188 448.402344 L 312.589844 449.773438 L 304.585938 451.792969 L 296.460938 454.367188 L 288.226562 457.363281 L 279.898438 460.640625 L 271.480469 464.070312 L 262.992188 467.519531 L 254.464844 470.886719 L 246.03125 474.214844 L 237.847656 477.574219 L 230.074219 481.035156 L 222.867188 484.679688 L 216.378906 488.570312 L 210.726562 492.753906 L 205.855469 497.136719 L 201.652344 501.59375 L 198.023438 505.996094 L 194.859375 510.21875 L 192.0625 514.136719 L 189.523438 517.671875 L 187.125 520.964844 L 184.734375 524.191406 L 182.234375 527.542969 L 179.496094 531.199219 L 176.394531 535.34375 L 172.828125 540.148438 L 168.785156 545.742188 L 164.277344 552.230469 L 159.3125 559.734375 L 153.902344 568.359375 L 148.0625 578.222656 L 141.847656 589.3125 L 135.523438 601.132812 L 129.398438 613.074219 L 123.789062 624.511719 L 119.003906 634.832031 L 115.359375 643.421875 L 113.050781 649.859375 L 111.832031 654.511719 L 111.34375 657.941406 L 111.226562 660.722656 L 111.121094 663.410156 L 110.671875 666.574219 L 109.597656 670.65625 L 107.96875 675.589844 L 105.9375 681.191406 L 103.652344 687.269531 L 101.265625 693.644531 L 98.933594 700.121094 L 96.769531 706.554688 L 94.753906 712.949219 L 92.835938 719.351562 L 90.960938 725.808594 L 89.078125 732.359375 L 87.125 739.050781 L 85.078125 745.894531 L 82.96875 752.753906 L 80.859375 759.464844 L 78.796875 765.859375 L 76.847656 771.765625 L 75.054688 777.074219 L 73.414062 781.878906 L 71.925781 786.328125 L 70.570312 790.5625 L 69.347656 794.734375 L 68.242188 798.988281 L 67.238281 803.472656 L 66.308594 808.308594 L 65.417969 813.628906 L 64.527344 819.558594 L 63.605469 826.214844 L 62.609375 833.734375 L 61.53125 842.179688 L 60.453125 851.414062 L 59.46875 861.238281 L 58.6875 871.460938 L 58.210938 881.882812 L 58.140625 892.308594 L 58.542969 902.570312 L 59.351562 912.609375 L 60.460938 922.40625 L 61.769531 931.921875 L 63.175781 941.136719 L 64.570312 950.019531 L 65.867188 958.535156 L 67.054688 966.636719 L 68.128906 974.269531 L 69.085938 981.382812 L 69.925781 987.917969 L 70.648438 993.820312 L 71.253906 999.070312 L 71.746094 1003.769531 L 72.136719 1008.046875 L 72.433594 1012.039062 L 72.640625 1015.878906 L 72.765625 1019.699219 L 72.828125 1023.597656 L 72.890625 1027.558594 L 73.03125 1031.527344 L 73.324219 1035.457031 L 73.839844 1039.296875 L 74.65625 1042.996094 L 75.820312 1046.519531 L 77.238281 1049.894531 L 78.796875 1053.171875 L 80.378906 1056.394531 L 81.863281 1059.609375 L 83.136719 1062.859375 L 84.121094 1066.191406 L 84.929688 1069.617188 L 85.710938 1073.140625 L 86.617188 1076.78125 L 87.808594 1080.539062 L 89.433594 1084.425781 L 91.605469 1088.445312 L 94.277344 1092.5625 L 97.367188 1096.730469 L 100.777344 1100.910156 L 104.433594 1105.058594 L 108.238281 1109.144531 L 112.097656 1113.175781 L 115.910156 1117.171875 L 119.578125 1121.152344 L 123 1125.140625 L 126.078125 1129.148438 L 128.746094 1133.183594 L 131.074219 1137.195312 L 133.164062 1141.113281 L 135.121094 1144.871094 L 137.039062 1148.394531 L 139.027344 1151.621094 L 141.167969 1154.511719 L 143.46875 1157.15625 L 145.917969 1159.671875 L 148.5 1162.183594 L 151.203125 1164.8125 L 154.015625 1167.671875 L 156.921875 1170.859375 L 159.867188 1174.328125 L 162.792969 1178.007812 L 165.636719 1181.824219 L 168.347656 1185.707031 L 170.859375 1189.585938 L 173.148438 1193.402344 L 175.308594 1197.1875 L 177.472656 1200.996094 L 179.769531 1204.875 L 182.328125 1208.875 L 185.273438 1213.046875 L 188.703125 1217.441406 L 192.554688 1222.101562 L 196.738281 1227.070312 L 201.15625 1232.382812 L 205.71875 1238.089844 L 210.328125 1244.226562 L 214.902344 1250.792969 L 219.402344 1257.621094 L 223.796875 1264.496094 L 228.054688 1271.199219 L 232.152344 1277.515625 L 236.050781 1283.230469 L 239.753906 1288.199219 L 243.347656 1292.546875 L 246.945312 1296.457031 L 250.664062 1300.125 L 254.617188 1303.742188 L 258.917969 1307.5 L 263.621094 1311.539062 L 268.546875 1315.824219 L 273.449219 1320.269531 L 278.089844 1324.800781 L 282.222656 1329.328125 L 285.605469 1333.769531 L 288.109375 1338.0625 L 290.058594 1342.25 L 291.890625 1346.382812 L 294.035156 1350.515625 L 296.929688 1354.710938 L 300.882812 1359.015625 L 305.6875 1363.417969 L 311.003906 1367.90625 L 316.5 1372.457031 L 321.832031 1377.058594 L 326.671875 1381.691406 L 330.808594 1386.335938 L 334.574219 1390.945312 L 338.429688 1395.476562 L 342.839844 1399.878906 L 348.261719 1404.113281 L 355.160156 1408.132812 L 363.851562 1411.882812 L 374.070312 1415.320312 L 385.40625 1418.398438 L 397.441406 1421.058594 L 409.773438 1423.257812 L 421.984375 1424.945312 L 433.765625 1426.078125 L 445.207031 1426.65625 L 456.488281 1426.679688 L 467.804688 1426.160156 L 479.339844 1425.09375 L 491.28125 1423.496094 L 503.707031 1421.386719 L 516.253906 1418.878906 L 528.460938 1416.101562 L 539.851562 1413.191406 L 549.960938 1410.277344 L 558.316406 1407.492188 L 564.640625 1404.929688 L 569.394531 1402.53125 L 573.230469 1400.1875 L 576.800781 1397.808594 L 580.75 1395.289062 L 585.738281 1392.527344 L 592.210938 1389.453125 L 599.855469 1386.09375 L 608.148438 1382.511719 L 616.570312 1378.757812 L 624.605469 1374.898438 L 631.738281 1370.984375 L 637.582031 1367.0625 L 642.324219 1363.125 L 646.28125 1359.152344 L 649.773438 1355.121094 L 653.117188 1351.019531 L 656.636719 1346.820312 L 660.554688 1342.515625 L 664.726562 1338.152344 L 668.917969 1333.777344 L 672.882812 1329.449219 L 676.390625 1325.21875 L 679.199219 1321.144531 L 681.222656 1317.269531 L 682.992188 1313.632812 L 685.175781 1310.257812 L 688.460938 1307.171875 L 693.515625 1304.410156 L 700.757812 1301.996094 L 709.511719 1299.9375 L 718.84375 1298.238281 L 727.8125 1296.914062 L 735.484375 1295.960938 L 740.921875 1295.394531 L 743.539062 1295.1875 L 744.175781 1295.195312 L 744.023438 1295.238281 L 744.269531 1295.144531 L 746.113281 1294.738281 L 750.738281 1293.84375 L 758.972656 1292.324219 L 770.144531 1290.222656 L 783.21875 1287.621094 L 797.15625 1284.605469 L 810.917969 1281.257812 L 823.472656 1277.65625 L 834.007812 1273.886719 L 842.636719 1270.035156 L 849.710938 1266.183594 L 855.570312 1262.410156 L 860.566406 1258.804688 L 865.035156 1255.449219 L 869.296875 1252.371094 L 873.519531 1249.417969 L 877.835938 1246.371094 L 882.378906 1243.019531 L 887.292969 1239.15625 L 892.707031 1234.5625 L 898.695312 1229.117188 L 905.070312 1223 L 911.59375 1216.484375 L 918.011719 1209.84375 L 924.082031 1203.34375 L 929.558594 1197.257812 L 934.265625 1191.777344 L 938.335938 1186.824219 L 941.976562 1182.238281 L 945.390625 1177.863281 L 948.785156 1173.535156 L 952.367188 1169.105469 L 956.28125 1164.441406 L 960.421875 1159.539062 L 964.625 1154.421875 L 968.730469 1149.109375 L 972.574219 1143.628906 L 975.988281 1138.003906 L 978.859375 1132.253906 L 981.273438 1126.378906 L 983.363281 1120.378906 L 985.265625 1114.257812 L 987.109375 1108.011719 L 989.03125 1101.644531 L 991.125 1095.171875 L 993.308594 1088.714844 L 995.464844 1082.414062 L 997.472656 1076.40625 L 999.21875 1070.828125 L 1000.621094 1065.78125 L 1001.789062 1061.199219 L 1002.867188 1056.976562 L 1004.011719 1053.007812 L 1005.367188 1049.191406 L 1007.082031 1045.417969 L 1009.253906 1041.570312 L 1011.738281 1037.464844 L 1014.34375 1032.917969 L 1016.863281 1027.738281 L 1019.109375 1021.730469 L 1020.878906 1014.703125 L 1022.039062 1006.546875 L 1022.703125 997.472656 L 1023.058594 987.777344 L 1023.277344 977.753906 L 1023.539062 967.695312 L 1024.027344 957.894531 L 1024.867188 948.601562 L 1025.964844 939.890625 L 1027.179688 931.789062 L 1028.371094 924.324219 L 1029.390625 917.53125 L 1030.101562 911.433594 L 1030.40625 906.050781 L 1030.382812 901.324219 L 1030.160156 897.1875 L 1029.863281 893.570312 L 1029.621094 890.402344 L 1029.5625 887.617188 L 1029.78125 885.121094 L 1030.238281 882.761719 L 1030.863281 880.351562 L 1031.59375 877.710938 L 1032.347656 874.660156 L 1033.066406 871.023438 L 1033.691406 866.652344 L 1034.226562 861.546875 L 1034.683594 855.75 L 1035.082031 849.296875 L 1035.441406 842.222656 L 1035.78125 834.566406 L 1036.101562 826.40625 L 1036.378906 817.949219 L 1036.582031 809.453125 L 1036.671875 801.171875 L 1036.617188 793.351562 L 1036.378906 786.242188 L 1035.941406 780.03125 L 1035.339844 774.625 L 1034.625 769.859375 L 1033.855469 765.570312 L 1033.078125 761.597656 L 1032.351562 757.777344 L 1031.699219 753.964844 L 1031.078125 750.082031 L 1030.40625 746.070312 L 1029.613281 741.871094 L 1028.625 737.425781 L 1027.417969 732.742188 L 1026.183594 728.136719 L 1025.164062 723.988281 L 1024.605469 720.6875 L 1024.753906 718.617188 L 1025.847656 718.164062 L 1028.042969 719.578125 L 1031.132812 722.597656 L 1034.832031 726.832031 L 1038.839844 731.886719 L 1042.867188 737.367188 L 1046.621094 742.882812 L 1049.878906 748.113281 L 1052.699219 753.054688 L 1055.222656 757.765625 L 1057.582031 762.316406 L 1059.90625 766.777344 L 1062.328125 771.203125 L 1064.949219 775.65625 L 1067.691406 780.117188 L 1070.445312 784.558594 L 1073.101562 788.960938 L 1075.542969 793.289062 L 1077.664062 797.523438 L 1079.394531 801.632812 L 1080.828125 805.609375 L 1082.105469 809.4375 L 1083.363281 813.109375 L 1084.742188 816.613281 L 1086.378906 819.941406 L 1088.375 823.097656 L 1090.675781 826.160156 L 1093.179688 829.214844 L 1095.800781 832.359375 L 1098.441406 835.683594 L 1101 839.28125 L 1103.40625 843.226562 L 1105.632812 847.542969 L 1107.671875 852.238281 L 1109.519531 857.3125 L 1111.164062 862.777344 L 1112.601562 868.636719 L 1113.847656 874.871094 L 1114.992188 881.328125 L 1116.152344 887.839844 L 1117.449219 894.230469 L 1118.996094 900.320312 L 1120.910156 905.9375 L 1123.28125 910.96875 L 1126.070312 915.515625 L 1129.21875 919.75 L 1132.664062 923.835938 L 1136.34375 927.945312 L 1140.199219 932.238281 L 1144.171875 936.851562 L 1148.246094 941.753906 L 1152.410156 946.886719 L 1156.652344 952.191406 L 1160.96875 957.605469 L 1165.324219 963.070312 L 1169.628906 968.546875 L 1173.773438 974 L 1177.648438 979.386719 L 1181.140625 984.671875 L 1184.140625 989.824219 L 1186.578125 994.804688 L 1188.527344 999.613281 L 1190.101562 1004.238281 L 1191.40625 1008.683594 L 1192.5625 1012.945312 L 1193.675781 1017.019531 L 1194.90625 1020.910156 L 1196.589844 1024.675781 L 1199.113281 1028.378906 L 1202.855469 1032.082031 L 1208.199219 1035.847656 L 1215.535156 1039.742188 L 1225.082031 1043.785156 L 1236.441406 1047.847656 L 1249.0625 1051.75 L 1262.386719 1055.324219 L 1275.855469 1058.390625 L 1288.917969 1060.777344 L 1301.097656 1062.359375 L 1312.253906 1063.203125 L 1322.324219 1063.433594 L 1331.25 1063.164062 L 1338.96875 1062.515625 L 1345.417969 1061.605469 L 1350.585938 1060.519531 L 1354.65625 1059.226562 L 1357.851562 1057.667969 L 1360.402344 1055.777344 L 1362.535156 1053.496094 L 1364.480469 1050.761719 L 1366.433594 1047.539062 L 1368.484375 1043.910156 L 1370.6875 1039.992188 L 1373.101562 1035.894531 L 1375.789062 1031.726562 L 1378.800781 1027.609375 L 1382.152344 1023.605469 L 1385.65625 1019.625 L 1389.070312 1015.535156 L 1392.167969 1011.203125 L 1394.703125 1006.492188 L 1396.449219 1001.265625 L 1397.234375 995.457031 L 1397.171875 989.222656 L 1396.433594 982.785156 L 1395.199219 976.375 L 1393.652344 970.203125 L 1391.960938 964.503906 L 1390.28125 959.441406 L 1388.660156 954.996094 L 1387.105469 951.097656 L 1385.636719 947.671875 L 1384.273438 944.648438 L 1383.019531 941.921875 L 1381.855469 939.28125 L 1380.738281 936.476562 L 1379.644531 933.265625 L 1378.535156 929.398438 L 1377.382812 924.636719 L 1376.160156 918.820312 L 1374.902344 912.160156 L 1373.652344 904.96875 L 1372.449219 897.546875 L 1371.34375 890.195312 L 1370.367188 883.222656 L 1369.550781 876.863281 L 1368.816406 871.089844 L 1368.074219 865.804688 L 1367.230469 860.90625 L 1366.1875 856.300781 L 1364.859375 851.886719 L 1363.1875 847.578125 L 1361.3125 843.296875 L 1359.414062 838.980469 L 1357.664062 834.558594 L 1356.25 829.964844 L 1355.34375 825.132812 L 1355.070312 820.03125 L 1355.316406 814.785156 L 1355.910156 809.550781 L 1356.679688 804.492188 L 1357.453125 799.765625 L 1358.0625 795.53125 L 1358.363281 791.898438 L 1358.300781 788.761719 L 1357.859375 785.96875 L 1357.015625 783.363281 L 1355.742188 780.792969 L 1354.023438 778.105469 L 1351.867188 775.152344 L 1349.4375 771.863281 L 1346.925781 768.164062 L 1344.527344 763.988281 L 1342.441406 759.273438 L 1340.863281 753.953125 L 1339.875 747.972656 L 1339.140625 741.335938 L 1338.210938 734.070312 L 1336.640625 726.1875 L 1333.980469 717.710938 L 1329.78125 708.660156 L 1323.828125 699.074219 L 1316.800781 689.070312 L 1309.613281 678.789062 L 1303.179688 668.367188 L 1298.40625 657.941406 L 1296.210938 647.648438 L 1297.097656 637.648438 L 1299.960938 628.15625 L 1303.296875 619.417969 L 1305.59375 611.667969 L 1305.339844 605.144531 L 1301.472656 599.976562 L 1294.699219 595.84375 L 1286.175781 592.304688 L 1277.046875 588.925781 L 1268.472656 585.269531 L 1261.601562 580.898438 L 1257.269531 575.496094 L 1255.066406 569.226562 L 1254.25 562.367188 L 1254.097656 555.195312 L 1253.875 547.992188 L 1252.851562 541.035156 L 1250.472656 534.53125 L 1246.90625 528.359375 L 1242.503906 522.320312 L 1237.613281 516.226562 L 1232.578125 509.875 L 1227.75 503.074219 L 1223.410156 495.710938 L 1219.578125 487.992188 L 1216.207031 480.207031 L 1213.246094 472.65625 L 1210.648438 465.625 L 1208.367188 459.40625 L 1206.359375 454.203125 L 1204.574219 449.855469 L 1202.976562 446.113281 L 1201.519531 442.734375 L 1200.164062 439.46875 L 1198.863281 436.066406 L 1197.578125 432.332031 L 1196.253906 428.257812 L 1194.832031 423.894531 L 1193.261719 419.289062 L 1191.488281 414.492188 L 1189.457031 409.550781 L 1187.140625 404.507812 L 1184.621094 399.410156 L 1182.019531 394.296875 L 1179.445312 389.210938 L 1177.015625 384.199219 L 1174.84375 379.300781 L 1173.003906 374.550781 L 1171.398438 369.953125 L 1169.898438 365.492188 L 1168.359375 361.171875 L 1166.65625 356.980469 L 1164.640625 352.914062 L 1162.234375 348.949219 L 1159.53125 345.023438 L 1156.679688 341.058594 L 1153.824219 336.972656 L 1151.109375 332.6875 L 1148.683594 328.125 L 1146.582031 323.277344 L 1144.386719 318.390625 L 1141.582031 313.796875 L 1137.636719 309.808594 L 1132.027344 306.757812 L 1124.4375 304.855469 L 1115.382812 303.910156 L 1105.578125 303.625 L 1095.75 303.703125 L 1086.613281 303.851562 L 1078.894531 303.769531 L 1073.117188 303.203125 L 1069.066406 302.074219 L 1066.316406 300.332031 L 1064.464844 297.941406 L 1063.089844 294.863281 L 1061.777344 291.046875 L 1060.1875 286.480469 L 1058.230469 281.210938 L 1055.894531 275.3125 L 1053.167969 268.855469 L 1050.027344 261.910156 L 1046.464844 254.546875 L 1042.457031 246.882812 L 1037.953125 239.1875 L 1032.890625 231.769531 L 1027.222656 224.949219 L 1020.882812 219.035156 L 1013.820312 214.339844 L 1006.042969 211.097656 L 997.828125 209.222656 L 989.515625 208.558594 L 981.453125 208.933594 L 973.984375 210.1875 L 967.449219 212.160156 L 962.089844 214.703125 L 957.734375 217.734375 L 954.105469 221.1875 L 950.925781 225 L 947.921875 229.105469 L 944.816406 233.441406 L 941.398438 237.941406 L 937.683594 242.582031 L 933.765625 247.324219 L 929.726562 252.148438 L 925.648438 257.027344 L 921.621094 261.925781 L 917.71875 266.875 L 913.988281 272.125 L 910.46875 277.96875 L 907.199219 284.710938 L 904.21875 292.65625 L 901.566406 302.097656 L 899.257812 313.140625 L 897.242188 325.066406 L 895.453125 336.957031 L 893.816406 347.894531 L 892.257812 356.957031 L 890.714844 363.230469 L 889.121094 366.0625 L 887.472656 365.875 L 885.757812 363.359375 L 883.988281 359.203125 L 882.15625 354.097656 L 880.269531 348.636719 L 878.371094 343.023438 L 876.5 337.367188 L 874.703125 331.773438 L 873.023438 326.347656 L 871.511719 321.203125 L 870.183594 316.410156 L 868.988281 311.921875 L 867.859375 307.65625 L 866.714844 303.527344 L 865.484375 299.453125 L 864.097656 295.359375 L 862.492188 291.175781 L 860.683594 286.902344 L 858.695312 282.570312 L 856.558594 278.191406 L 854.292969 273.792969 L 851.933594 269.390625 L 849.503906 265.007812 L 847.050781 260.648438 L 844.621094 256.3125 L 842.269531 251.996094 L 840.03125 247.707031 L 837.964844 243.445312 L 836.097656 239.210938 L 834.402344 234.992188 L 832.824219 230.789062 L 831.324219 226.589844 L 829.847656 222.390625 L 828.351562 218.183594 L 826.765625 213.945312 L 824.953125 209.597656 L 822.75 205.050781 L 819.996094 200.203125 L 816.527344 194.96875 L 812.179688 189.253906 L 806.871094 183.015625 L 800.800781 176.449219 L 794.234375 169.792969 L 787.445312 163.296875 L 780.710938 157.203125 L 774.296875 151.753906 L 768.402344 147.128906 L 762.933594 143.234375 L 757.714844 139.917969 L 752.574219 137.019531 L 747.34375 134.378906 L 741.847656 131.839844 L 735.933594 129.269531 L 729.519531 126.628906 L 722.539062 123.894531 L 714.933594 121.054688 L 706.628906 118.09375 L 697.570312 114.996094 L 696.164062 114.453125 "/>
<path style="fill:none;stroke-width:0.75;stroke-linecap:round;stroke-linejoin:round;stroke:rgb(0%,0%,0%);stroke-opacity:1;stroke-miterlimit:10;" d="M 307.878906 446.976562 L 298.132812 451.199219 L 289.554688 455 L 282.128906 458.238281 L 275.765625 460.898438 L 270.054688 463.421875 L 264.519531 466.367188 L 258.644531 470.132812 L 251.785156 474.441406 L 243.273438 478.847656 L 232.839844 482.984375 L 221.832031 486.742188 L 212.019531 490.09375 L 205.152344 493.003906 L 202.292969 495.5625 L 201.699219 498.386719 L 200.925781 502.214844 L 198.144531 507.492188 L 193.988281 513.527344 L 189.714844 519.335938 L 186.277344 524.136719 L 183.484375 528.003906 L 180.839844 531.226562 L 177.972656 534.074219 L 174.957031 536.792969 L 171.992188 539.617188 L 169.261719 542.777344 L 166.722656 546.71875 L 163.34375 552.707031 L 157.859375 562.214844 L 149.566406 576.015625 L 139.992188 592.070312 L 131.234375 607.636719 L 124.925781 620.492188 L 120.835938 630.441406 L 118.28125 637.804688 L 116.628906 642.980469 L 115.511719 646.726562 L 114.625 649.871094 L 113.660156 653.253906 L 112.394531 657.503906 L 110.925781 662.429688 L 109.445312 667.640625 L 108.078125 672.824219 L 106.699219 678.042969 L 105.125 683.445312 L 103.234375 689.101562 L 101.1875 694.796875 L 99.210938 700.230469 L 97.453125 705.265625 L 95.75 710.371094 L 93.871094 716.167969 L 91.570312 723.28125 L 88.757812 731.976562 L 85.917969 741.089844 L 83.671875 749.105469 L 82.40625 754.988281 L 81.554688 759.636719 L 80.296875 764.433594 L 78.070312 770.351562 L 75.300781 776.765625 L 72.65625 782.632812 L 70.671875 787.210938 L 69.347656 790.914062 L 68.566406 794.445312 L 68.1875 798.507812 L 68.039062 803.570312 L 67.730469 809.121094 L 66.820312 814.421875 L 65.066406 819.078125 L 62.984375 824.144531 L 61.296875 831.023438 L 60.507812 840.65625 L 60.316406 852.105469 L 60.214844 863.964844 L 59.699219 874.828125 L 58.5 883.765625 L 57.339844 891.738281 L 57.175781 900.191406 L 58.632812 910.15625 L 61.003906 921.066406 L 63.246094 931.949219 L 64.570312 942.007812 L 65.175781 951.160156 L 65.527344 959.507812 L 66.015625 967.152344 L 66.773438 974.246094 L 67.867188 980.945312 L 69.371094 987.402344 L 71.226562 993.691406 L 72.851562 999.515625 L 73.53125 1004.503906 L 72.859375 1008.441406 L 71.613281 1011.761719 L 70.878906 1015.070312 L 71.410156 1018.835938 L 72.675781 1023.019531 L 73.824219 1027.453125 L 74.21875 1031.957031 L 74.113281 1036.339844 L 73.976562 1040.398438 L 74.28125 1043.9375 L 75.351562 1046.839844 L 76.933594 1049.386719 L 78.617188 1051.9375 L 80.089844 1054.816406 L 81.382812 1058.15625 L 82.605469 1062.058594 L 83.859375 1066.519531 L 85.175781 1071.113281 L 86.570312 1075.320312 L 88.03125 1078.757812 L 89.457031 1081.632812 L 90.71875 1084.289062 L 91.691406 1087.070312 L 92.457031 1090.304688 L 93.910156 1094.226562 L 97.15625 1099.058594 L 102.816406 1104.816406 L 109.570312 1110.742188 L 115.617188 1115.871094 L 119.605469 1119.539062 L 121.984375 1122.273438 L 123.65625 1124.902344 L 125.363281 1128.085938 L 127.21875 1131.816406 L 129.183594 1135.921875 L 131.214844 1140.226562 L 133.320312 1144.546875 L 135.703125 1148.636719 L 138.621094 1152.230469 L 142.160156 1155.175781 L 145.785156 1157.695312 L 148.789062 1160.121094 L 150.699219 1162.703125 L 151.988281 1165.40625 L 153.351562 1168.105469 L 155.339844 1170.746094 L 157.933594 1173.492188 L 160.960938 1176.574219 L 164.265625 1180.210938 L 167.667969 1184.53125 L 170.992188 1189.273438 L 174.058594 1194.082031 L 176.742188 1198.644531 L 179.144531 1202.863281 L 181.425781 1206.703125 L 183.722656 1210.15625 L 186.074219 1213.433594 L 188.511719 1216.777344 L 191.046875 1220.433594 L 193.832031 1224.671875 L 197.472656 1229.824219 L 202.710938 1236.25 L 209.851562 1244.066406 L 217.519531 1252.441406 L 223.90625 1260.3125 L 227.738281 1266.871094 L 229.859375 1272.390625 L 231.660156 1277.410156 L 234.238281 1282.347656 L 237.609375 1287.191406 L 241.511719 1291.820312 L 245.6875 1296.109375 L 249.957031 1300.003906 L 254.449219 1303.707031 L 259.386719 1307.472656 L 264.832031 1311.527344 L 270.25 1315.863281 L 274.957031 1320.433594 L 278.480469 1325.164062 L 281.222656 1329.839844 L 283.792969 1334.21875 L 286.667969 1338.148438 L 289.789062 1341.832031 L 292.972656 1345.550781 L 296.027344 1349.59375 L 298.859375 1354.164062 L 301.742188 1359.074219 L 305.054688 1364.066406 L 309.089844 1368.902344 L 313.8125 1373.476562 L 319.101562 1377.714844 L 324.816406 1381.617188 L 330.71875 1385.488281 L 336.550781 1389.6875 L 342.101562 1394.464844 L 347.371094 1399.53125 L 352.410156 1404.472656 L 357.273438 1408.875 L 362.261719 1412.457031 L 368.722656 1415.453125 L 378.25 1418.242188 L 391.8125 1421.0625 L 407.863281 1423.601562 L 424.242188 1425.410156 L 439.074219 1426.1875 L 451.707031 1426.214844 L 461.78125 1425.929688 L 469.363281 1425.632812 L 476.230469 1425.144531 L 484.574219 1424.15625 L 496.589844 1422.355469 L 513.375 1419.570312 L 531.675781 1416.167969 L 547.125 1412.644531 L 556.507812 1409.429688 L 561.128906 1406.628906 L 563.429688 1404.28125 L 565.53125 1402.363281 L 568.273438 1400.617188 L 572.171875 1398.722656 L 577.75 1396.359375 L 585.292969 1393.296875 L 594.148438 1389.675781 L 603.441406 1385.71875 L 612.359375 1381.636719 L 620.414062 1377.585938 L 627.171875 1373.699219 L 632.355469 1370.085938 L 636.273438 1366.714844 L 639.371094 1363.539062 L 642.050781 1360.488281 L 644.535156 1357.480469 L 646.992188 1354.425781 L 649.597656 1351.230469 L 652.421875 1347.855469 L 655.152344 1344.433594 L 657.390625 1341.144531 L 658.871094 1338.039062 L 659.921875 1334.640625 L 661.015625 1330.335938 L 662.460938 1324.652344 L 663.890625 1317.644531 L 664.777344 1309.5 L 664.730469 1300.441406 L 663.90625 1290.835938 L 662.597656 1281.074219 L 661.109375 1271.554688 L 659.671875 1262.609375 L 658.304688 1254.304688 L 656.96875 1246.636719 L 655.625 1239.304688 L 654.28125 1230.773438 L 652.933594 1219.214844 L 651.59375 1203.1875 L 650.253906 1182.851562 L 648.914062 1158.761719 L 647.578125 1131.972656 L 646.234375 1105.519531 L 644.890625 1082.9375 L 643.546875 1067.757812 L 642.203125 1061.789062 L 640.859375 1059.910156 L 639.515625 1055.285156 L 638.175781 1042.667969 L 636.839844 1023.238281 L 635.5 999.78125 L 634.15625 974.738281 L 632.8125 949.222656 L 631.46875 924.011719 L 630.125 899.953125 L 628.78125 878.207031 L 627.441406 860.015625 L 626.101562 846.605469 L 624.761719 838.523438 L 623.421875 833.519531 L 622.078125 828.648438 L 620.734375 821.785156 L 619.390625 814.082031 L 618.042969 807.496094 L 616.703125 803.285156 L 615.363281 799.804688 L 614.023438 794.707031 L 612.683594 786.230469 L 611.34375 774.980469 L 610 762.160156 L 608.65625 748.960938 L 607.3125 736.488281 L 605.96875 725.445312 L 604.625 716.4375 L 603.285156 709.820312 L 601.945312 704.941406 L 600.605469 700.902344 L 599.261719 696.996094 L 597.921875 693.242188 L 596.582031 689.851562 L 595.238281 687.039062 L 593.890625 684.863281 L 592.546875 682.769531 L 591.203125 680.054688 L 589.867188 675.984375 L 588.53125 669.71875 L 587.191406 660.394531 L 585.84375 647.738281 L 584.496094 633.898438 L 583.148438 621.617188 L 581.808594 612.996094 L 580.476562 607.582031 L 579.144531 604.277344 L 577.8125 601.984375 L 576.480469 599.550781 L 575.152344 595.609375 L 573.851562 588.738281 L 572.507812 578.191406 L 570.746094 565.910156 L 568.125 554.523438 L 564.285156 545.988281 L 559.300781 539.644531 L 553.335938 534.183594 L 546.628906 528.621094 L 539.722656 523.292969 L 533.25 518.871094 L 527.820312 516.027344 L 523.800781 515.082031 L 520.507812 514.960938 L 516.996094 514.238281 L 512.507812 511.800781 L 506.992188 507.761719 L 500.582031 502.554688 L 493.519531 496.683594 L 486.429688 490.921875 L 480.054688 486.121094 L 474.949219 482.902344 L 470.972656 480.953125 L 467.808594 479.746094 L 465.140625 478.738281 L 462.605469 477.457031 L 459.671875 475.683594 L 455.75 473.257812 L 450.539062 470.191406 L 444.824219 467.136719 L 439.667969 464.90625 L 435.789062 464.003906 L 432.539062 463.65625 L 428.925781 462.777344 L 424.097656 460.585938 L 417.734375 457.511719 L 409.667969 454.277344 L 399.71875 451.621094 L 388.050781 450.078125 L 376.207031 449.417969 L 366.082031 449.21875 L 358.984375 449.117188 L 353.925781 449.007812 L 349.34375 448.855469 L 343.824219 448.59375 L 336.546875 448.105469 L 326.855469 447.242188 L 314.074219 445.855469 L 307.878906 446.976562 "/>
<path style="fill:none;stroke-width:0.75;stroke-linecap:round;stroke-linejoin:round;stroke:rgb(0%,0%,0%);stroke-opacity:1;stroke-miterlimit:10;" d="M 483.65625 209.796875 L 480.3125 214.191406 L 476.601562 217.132812 L 471.769531 219.464844 L 465.207031 222.382812 L 457.191406 225.945312 L 448.109375 229.960938 L 437.933594 234.257812 L 426.914062 238.28125 L 415.613281 241.71875 L 405.441406 245.625 L 397.675781 250.929688 L 392.242188 256.726562 L 388.679688 261.503906 L 386.488281 263.949219 L 385.652344 265.867188 L 386.070312 269.179688 L 386.785156 273.050781 L 386.78125 276.222656 L 385.648438 278.585938 L 383.363281 280.652344 L 380.710938 283.714844 L 378.210938 287.074219 L 376.207031 289.8125 L 374.808594 292.554688 L 374.089844 296.023438 L 374.226562 299.753906 L 375.347656 303.222656 L 377.1875 306.695312 L 379.308594 310.300781 L 381.316406 314.179688 L 383.097656 318.9375 L 384.625 324.84375 L 385.992188 330.453125 L 387.304688 334.808594 L 388.613281 340.523438 L 389.929688 350.480469 L 391.253906 365.839844 L 392.570312 381.433594 L 393.878906 391.96875 L 395.195312 397.878906 L 396.539062 401.214844 L 397.945312 404.25 L 399.53125 407.707031 L 401.382812 411.824219 L 403.402344 416.664062 L 405.519531 422.070312 L 407.933594 427.160156 L 410.898438 431.304688 L 414.492188 435.199219 L 418.398438 438.273438 L 422.257812 439.902344 L 425.886719 440.875 L 429.179688 442.101562 L 432.125 443.519531 L 434.785156 444.890625 L 437.320312 446.214844 L 439.957031 447.542969 L 442.949219 448.882812 L 446.65625 450.191406 L 451.386719 451.464844 L 457.15625 452.96875 L 463.601562 454.921875 L 469.589844 457.148438 L 475.183594 459.808594 L 480.878906 463.308594 L 487.347656 468.527344 L 495.1875 475.785156 L 504.402344 482.695312 L 514.863281 487.011719 L 526.242188 489.523438 L 537.46875 490.820312 L 547.488281 491.027344 L 556.097656 489.421875 L 563.351562 485.566406 L 569.519531 480.972656 L 574.921875 476.984375 L 579.871094 472.492188 L 584.597656 466.65625 L 589.160156 459.53125 L 593 453.867188 L 595.582031 451.507812 L 597.097656 447.980469 L 597.804688 438.535156 L 597.597656 424.234375 L 596.664062 409.773438 L 595.308594 398.769531 L 593.84375 388.175781 L 592.597656 372.804688 L 591.878906 345.550781 L 591.949219 308.042969 L 592.742188 288.339844 L 593.789062 282.023438 L 594.554688 276.898438 L 594.675781 271.296875 L 593.910156 266.1875 L 592.421875 262.574219 L 590.46875 260.878906 L 588.375 259.507812 L 586.433594 257.679688 L 584.851562 255.144531 L 583.484375 252.382812 L 582.066406 249.808594 L 580.191406 246.824219 L 577.441406 242.878906 L 573.511719 238.519531 L 568.445312 234.125 L 562.265625 229.925781 L 554.546875 225.960938 L 545.140625 222.304688 L 535.464844 219.390625 L 526.894531 217.089844 L 519.109375 213.621094 L 511.21875 210.71875 L 502.683594 210.332031 L 494.414062 211.089844 L 487.351562 211.136719 L 481.039062 210.007812 L 483.65625 209.796875 "/>
<path style="fill:none;stroke-width:0.75;stroke-linecap:round;stroke-linejoin:round;stroke:rgb(0%,0%,0%);stroke-opacity:1;stroke-miterlimit:10;" d="M 558.332031 488.667969 L 555.648438 490.226562 L 531.492188 491.742188 L 528.808594 493.800781 L 528.808594 496.71875 L 526.125 500.699219 L 526.125 505.503906 L 528.808594 510.03125 L 528.808594 514.269531 L 536.859375 518.167969 L 539.542969 520.855469 L 542.226562 523.101562 L 544.910156 526.101562 L 552.964844 530.6875 L 552.964844 535.710938 L 561.015625 539.75 L 587.855469 540.734375 L 593.222656 538.460938 L 593.222656 534.023438 L 595.90625 527.46875 L 595.90625 519.367188 L 593.222656 512.644531 L 593.222656 507.792969 L 590.539062 504.386719 L 593.222656 501.617188 L 593.222656 498.792969 L 595.90625 495.554688 L 595.90625 492.140625 L 593.222656 489.449219 L 558.332031 487.605469 L 558.332031 488.667969 "/>
<path style="fill:none;stroke-width:0.75;stroke-linecap:round;stroke-linejoin:round;stroke:rgb(0%,0%,0%);stroke-opacity:1;stroke-miterlimit:10;" d="M 626.058594 531.550781 L 620.039062 533.140625 L 614.3125 535 L 609.132812 536.765625 L 604.742188 538.078125 L 601.285156 538.726562 L 598.433594 539.144531 L 595.75 539.910156 L 592.796875 541.609375 L 589.140625 544.828125 L 584.554688 549.933594 L 579.671875 556.453125 L 575.335938 563.691406 L 572.402344 570.96875 L 571.472656 577.703125 L 572.195312 583.753906 L 573.980469 589.089844 L 576.238281 593.683594 L 578.375 597.503906 L 579.941406 600.691406 L 581.050781 604.089844 L 581.953125 608.722656 L 582.902344 615.605469 L 584.097656 625.363281 L 585.496094 637.046875 L 587.015625 649.304688 L 588.566406 660.789062 L 590.054688 670.160156 L 591.417969 676.445312 L 592.6875 680.214844 L 593.917969 682.40625 L 595.164062 683.96875 L 596.472656 685.714844 L 597.832031 687.929688 L 599.21875 690.777344 L 600.613281 694.40625 L 601.992188 698.976562 L 603.339844 704.648438 L 604.664062 711.609375 L 605.976562 720.042969 L 607.292969 730.136719 L 608.628906 741.890625 L 609.976562 754.542969 L 611.328125 767.128906 L 612.683594 778.695312 L 614.035156 788.292969 L 615.378906 795.261719 L 616.714844 800.183594 L 618.050781 803.925781 L 619.386719 807.367188 L 620.726562 811.3125 L 622.070312 816.261719 L 623.417969 822.636719 L 624.761719 830.855469 L 626.105469 841.351562 L 627.445312 854.519531 L 628.78125 870.6875 L 630.121094 890.15625 L 631.460938 913.222656 L 632.808594 939.734375 L 634.15625 967.667969 L 635.503906 994.546875 L 636.847656 1017.890625 L 638.1875 1035.222656 L 639.523438 1045.089844 L 640.855469 1050.171875 L 642.1875 1054.167969 L 643.523438 1060.78125 L 644.875 1073.714844 L 646.234375 1095.339844 L 647.601562 1122.6875 L 648.957031 1151.457031 L 650.296875 1177.34375 L 651.605469 1197.042969 L 652.90625 1211.261719 L 654.210938 1221.691406 L 655.539062 1230.03125 L 656.910156 1237.988281 L 658.328125 1246.832031 L 659.757812 1256.160156 L 661.160156 1265.15625 L 662.484375 1272.988281 L 663.707031 1279.074219 L 664.882812 1283.761719 L 666.082031 1287.628906 L 667.375 1291.265625 L 668.839844 1295.25 L 670.5 1299.960938 L 672.195312 1304.9375 L 673.71875 1309.523438 L 674.867188 1313.050781 L 675.550781 1315.015625 L 676.167969 1315.519531 L 677.246094 1314.8125 L 679.296875 1313.148438 L 682.84375 1310.789062 L 688.234375 1307.984375 L 695.132812 1305.019531 L 703.035156 1302.171875 L 711.433594 1299.726562 L 719.820312 1297.898438 L 727.695312 1296.636719 L 734.558594 1295.832031 L 739.90625 1295.371094 L 743.242188 1295.140625 L 744.378906 1295.027344 L 744.421875 1294.925781 L 744.785156 1294.730469 L 746.890625 1294.339844 L 751.851562 1293.652344 L 759.53125 1292.554688 L 769.492188 1290.941406 L 781.289062 1288.703125 L 794.484375 1285.734375 L 808.527344 1281.996094 L 822.445312 1277.746094 L 835.160156 1273.3125 L 845.589844 1269.023438 L 852.988281 1265.136719 L 857.9375 1261.640625 L 861.34375 1258.449219 L 864.121094 1255.488281 L 867.183594 1252.671875 L 871.238281 1249.894531 L 876.210938 1246.929688 L 881.816406 1243.53125 L 887.777344 1239.453125 L 893.847656 1234.519531 L 899.9375 1228.871094 L 905.996094 1222.726562 L 911.964844 1216.304688 L 917.789062 1209.820312 L 923.414062 1203.472656 L 928.761719 1197.394531 L 933.75 1191.6875 L 938.292969 1186.464844 L 942.3125 1181.839844 L 945.796875 1177.820312 L 949 1174.054688 L 952.25 1170.085938 L 955.878906 1165.464844 L 960.09375 1159.894531 L 964.652344 1153.691406 L 969.179688 1147.328125 L 973.316406 1141.277344 L 976.695312 1136.011719 L 979.085938 1131.78125 L 980.808594 1127.960938 L 982.320312 1123.710938 L 984.070312 1118.175781 L 986.394531 1110.808594 L 989.117188 1102.21875 L 991.9375 1093.304688 L 994.546875 1084.96875 L 996.652344 1078.113281 L 998.050781 1073.335938 L 998.96875 1070.042969 L 999.726562 1067.332031 L 1000.65625 1064.300781 L 1002.003906 1060.265625 L 1003.730469 1055.402344 L 1005.722656 1050.09375 L 1007.871094 1044.734375 L 1010.050781 1039.710938 L 1012.179688 1035.261719 L 1014.238281 1031.046875 L 1016.242188 1026.578125 L 1018.195312 1021.363281 L 1020.089844 1015.015625 L 1021.820312 1007.542969 L 1023.257812 999.066406 L 1024.269531 989.6875 L 1024.730469 979.527344 L 1024.601562 968.769531 L 1024.207031 957.898438 L 1023.964844 947.480469 L 1024.285156 938.070312 L 1025.449219 930.085938 L 1027.1875 923.335938 L 1029.089844 917.480469 L 1030.746094 912.183594 L 1031.757812 907.105469 L 1031.847656 902.011719 L 1031.257812 897.101562 L 1030.371094 892.683594 L 1029.5625 889.0625 L 1029.144531 886.425781 L 1029.128906 884.511719 L 1029.460938 882.9375 L 1030.089844 881.3125 L 1030.960938 879.261719 L 1032 876.449219 L 1033.109375 872.714844 L 1034.167969 867.960938 L 1035.058594 862.074219 L 1035.675781 855 L 1035.976562 846.851562 L 1035.933594 837.789062 L 1035.519531 827.972656 L 1034.703125 817.566406 L 1033.484375 806.792969 L 1031.96875 796.125 L 1030.296875 786.101562 L 1028.597656 777.261719 L 1027.011719 770.140625 L 1025.628906 765.050781 L 1024.40625 761.382812 L 1023.25 758.308594 L 1022.078125 755 L 1020.820312 750.785156 L 1019.484375 745.6875 L 1018.089844 739.898438 L 1016.664062 733.59375 L 1015.234375 726.972656 L 1013.820312 720.207031 L 1012.433594 713.464844 L 1011.09375 706.894531 L 1009.808594 700.65625 L 1008.578125 694.859375 L 1007.367188 689.472656 L 1006.132812 684.421875 L 1004.828125 679.636719 L 1003.402344 675.035156 L 1001.824219 670.582031 L 1000.140625 666.332031 L 998.394531 662.378906 L 996.648438 658.808594 L 994.9375 655.667969 L 993.265625 652.832031 L 991.617188 650.125 L 989.980469 647.375 L 988.34375 644.410156 L 986.714844 641.082031 L 985.164062 637.316406 L 983.785156 633.054688 L 982.671875 628.25 L 981.855469 622.890625 L 981.121094 617.148438 L 980.191406 611.234375 L 978.796875 605.363281 L 976.660156 599.75 L 973.597656 594.578125 L 969.816406 589.886719 L 965.613281 585.6875 L 961.277344 581.988281 L 957.042969 578.757812 L 952.835938 575.804688 L 948.53125 572.890625 L 943.984375 569.785156 L 939.066406 566.25 L 933.652344 562.171875 L 927.699219 557.90625 L 921.164062 553.925781 L 914.023438 550.714844 L 906.316406 548.59375 L 898.394531 547.316406 L 890.6875 546.484375 L 883.613281 545.695312 L 877.605469 544.554688 L 872.941406 542.820312 L 869.3125 540.910156 L 866.257812 539.390625 L 863.324219 538.835938 L 860.175781 539.664062 L 856.988281 541.679688 L 854.058594 544.527344 L 851.683594 547.855469 L 850.160156 551.3125 L 849.6875 554.609375 L 850.074219 557.714844 L 851.015625 560.667969 L 852.21875 563.496094 L 853.390625 566.246094 L 854.222656 568.9375 L 854.367188 571.609375 L 853.472656 574.277344 L 851.175781 576.972656 L 847.351562 579.707031 L 842.761719 582.445312 L 838.394531 585.148438 L 835.234375 587.765625 L 834.273438 590.253906 L 836.050781 592.59375 L 839.3125 594.855469 L 842.363281 597.148438 L 843.503906 599.570312 L 841.5625 602.171875 L 837.460938 604.835938 L 832.65625 607.382812 L 828.59375 609.648438 L 826.726562 611.453125 L 827.898438 612.753906 L 830.519531 613.949219 L 832.398438 615.570312 L 831.335938 618.144531 L 825.816406 622.042969 L 817.078125 627.019531 L 807.027344 632.6875 L 797.585938 638.652344 L 790.664062 644.511719 L 787.640625 649.910156 L 787.722656 654.632812 L 789.59375 658.492188 L 791.921875 661.304688 L 793.707031 663.027344 L 795.25 664.179688 L 797.171875 665.40625 L 800.097656 667.371094 L 804.652344 670.726562 L 811.101562 675.855469 L 818.300781 682.082031 L 824.75 688.457031 L 828.941406 694.027344 L 829.824219 698.113281 L 828.160156 701.109375 L 825.140625 703.667969 L 821.980469 706.445312 L 819.878906 710.105469 L 819.804688 715.101562 L 821.777344 721.128906 L 825.589844 727.679688 L 831.027344 734.242188 L 837.765625 740.417969 L 845.035156 746.210938 L 851.957031 751.738281 L 857.648438 757.105469 L 861.226562 762.425781 L 862.105469 767.75 L 860.859375 772.886719 L 858.355469 777.585938 L 855.460938 781.597656 L 852.808594 784.78125 L 850.132812 787.410156 L 846.929688 789.875 L 842.707031 792.566406 L 836.964844 795.867188 L 829.542969 800.039062 L 821.671875 804.816406 L 814.921875 809.8125 L 810.863281 814.636719 L 811.0625 818.894531 L 816.289062 822.3125 L 824.089844 825.066406 L 831.214844 827.449219 L 834.40625 829.75 L 831.425781 832.222656 L 824.105469 834.914062 L 815.289062 837.847656 L 807.820312 841.027344 L 804.550781 844.46875 L 807.183594 848.152344 L 812.859375 851.941406 L 817.578125 855.667969 L 817.34375 859.164062 L 809.492188 862.3125 L 796.6875 865.191406 L 782.917969 867.933594 L 772.183594 870.664062 L 768.480469 873.515625 L 774.34375 876.570312 L 786.488281 879.726562 L 800.171875 882.839844 L 810.65625 885.769531 L 814.441406 888.449219 L 812.988281 891.136719 L 809.007812 894.183594 L 805.210938 897.925781 L 804.308594 902.71875 L 808.085938 908.707031 L 814.6875 915.300781 L 821.328125 921.703125 L 825.234375 927.136719 L 824.421875 931.050781 L 820.09375 933.878906 L 814.242188 936.285156 L 808.875 938.949219 L 805.980469 942.535156 L 806.960938 947.480469 L 810.796875 953.28125 L 815.878906 959.199219 L 820.585938 964.488281 L 823.585938 968.554688 L 824.667969 971.402344 L 823.894531 973.171875 L 821.339844 974.007812 L 817.074219 974.0625 L 811.359375 973.53125 L 805.28125 972.847656 L 800.121094 972.496094 L 797.15625 972.957031 L 797.242188 974.582031 L 799.496094 977.132812 L 802.621094 980.242188 L 805.300781 983.539062 L 806.230469 986.652344 L 804.53125 989.320312 L 801.003906 991.714844 L 796.882812 994.113281 L 793.398438 996.796875 L 791.476562 999.976562 L 790.8125 1003.578125 L 790.804688 1007.457031 L 790.851562 1011.46875 L 790.347656 1015.472656 L 788.84375 1019.390625 L 786.53125 1023.457031 L 783.757812 1027.976562 L 780.867188 1033.25 L 778.214844 1039.582031 L 776.042969 1046.996094 L 774.203125 1054.386719 L 772.441406 1060.363281 L 770.503906 1063.535156 L 768.230469 1062.914062 L 765.800781 1059.089844 L 763.480469 1053.058594 L 761.539062 1045.808594 L 760.242188 1038.328125 L 759.753906 1031.453125 L 759.855469 1025.390625 L 760.21875 1020.195312 L 760.519531 1015.917969 L 760.535156 1012.566406 L 760.449219 1009.996094 L 760.550781 1008.007812 L 761.125 1006.414062 L 762.460938 1005.019531 L 764.730469 1003.617188 L 767.648438 1001.921875 L 770.828125 999.644531 L 773.867188 996.484375 L 776.367188 992.296875 L 777.898438 987.523438 L 778.015625 982.75 L 776.28125 978.574219 L 772.261719 975.585938 L 765.730469 974.082031 L 757.351562 973.191406 L 748.003906 971.738281 L 738.5625 968.554688 L 729.777344 962.828125 L 721.894531 955.125 L 715.023438 946.375 L 709.277344 937.5 L 704.769531 929.425781 L 701.65625 922.855469 L 700.261719 917.628906 L 700.972656 913.367188 L 704.152344 909.6875 L 709.847656 906.28125 L 716.753906 903.125 L 723.238281 900.253906 L 727.660156 897.71875 L 728.386719 895.5625 L 724.421875 893.777344 L 717.367188 892.175781 L 709.464844 890.523438 L 702.953125 888.582031 L 699.519531 886.1875 L 698.613281 883.425781 L 699.125 880.457031 L 699.941406 877.441406 L 699.953125 874.53125 L 698.371094 871.765625 L 695.648438 868.695312 L 692.570312 864.75 L 689.90625 859.351562 L 688.277344 852.164062 L 687.664062 843.753906 L 687.882812 834.925781 L 688.753906 826.472656 L 690.105469 819.203125 L 691.75 813.671875 L 693.507812 809.449219 L 695.203125 805.878906 L 696.65625 802.292969 L 697.683594 798.019531 L 698.167969 792.605469 L 698.230469 786.398438 L 698.042969 779.960938 L 697.789062 773.847656 L 697.585938 768.457031 L 697.300781 763.558594 L 696.757812 758.746094 L 695.765625 753.625 L 694.140625 747.800781 L 691.792969 741.066406 L 689.015625 733.992188 L 686.203125 727.34375 L 683.742188 721.890625 L 681.894531 718.125 L 680.371094 715.480469 L 678.75 713.121094 L 676.613281 710.203125 L 673.535156 705.890625 L 669.40625 699.636719 L 665.332031 692.042969 L 662.730469 683.996094 L 663.019531 676.390625 L 667.089844 669.929688 L 673.726562 664.582031 L 681.1875 660.117188 L 687.738281 656.324219 L 691.628906 652.972656 L 691.730469 649.847656 L 689.332031 646.710938 L 686.339844 643.332031 L 684.644531 639.480469 L 685.574219 635.015625 L 688.144531 630.207031 L 690.804688 625.410156 L 692.003906 620.988281 L 690.179688 617.304688 L 684.402344 614.589844 L 676.242188 612.570312 L 667.890625 610.828125 L 661.53125 608.964844 L 658.863281 606.648438 L 659.570312 603.886719 L 662.851562 600.769531 L 667.886719 597.390625 L 673.875 593.832031 L 679.929688 590.1875 L 684.867188 586.542969 L 687.433594 582.980469 L 686.363281 579.585938 L 680.964844 576.425781 L 672.757812 573.472656 L 663.835938 570.6875 L 656.28125 568.019531 L 652.183594 565.425781 L 652.886719 562.867188 L 656.800781 560.320312 L 661.59375 557.777344 L 664.9375 555.214844 L 665.070312 552.621094 L 662.492188 549.988281 L 658.261719 547.300781 L 653.449219 544.546875 L 649.121094 541.722656 L 645.992188 538.847656 L 643.378906 536.09375 L 640.25 533.671875 L 635.582031 531.789062 L 628.335938 530.652344 L 626.058594 531.550781 "/>
<path style="fill:none;stroke-width:0.75;stroke-linecap:round;stroke-linejoin:round;stroke:rgb(0%,0%,0%);stroke-opacity:1;stroke-miterlimit:10;" d="M 684.226562 137.191406 L 680.898438 138.039062 L 678.484375 138.9375 L 675.5 140.648438 L 670.75 143.800781 L 664.175781 148.507812 L 656.003906 154.765625 L 646.753906 162.339844 L 638.152344 170.054688 L 632.203125 176.492188 L 630.210938 180.6875 L 630.582031 183.429688 L 631.007812 185.957031 L 629.71875 189.234375 L 627.0625 193.1875 L 623.929688 197.484375 L 621.035156 201.835938 L 618.433594 206.175781 L 616.007812 210.496094 L 613.679688 214.753906 L 611.546875 218.800781 L 609.757812 222.457031 L 608.382812 225.59375 L 607.238281 228.3125 L 606.082031 230.761719 L 604.722656 233.121094 L 603.261719 235.71875 L 601.847656 238.910156 L 600.59375 243.007812 L 599.390625 248.175781 L 598.070312 254.523438 L 596.539062 262.289062 L 594.945312 272.199219 L 593.492188 285.09375 L 592.375 301.421875 L 591.714844 320.027344 L 591.601562 339.347656 L 592.136719 357.832031 L 593.34375 374.296875 L 594.96875 389.046875 L 596.675781 402.765625 L 598.195312 416.054688 L 599.511719 429.21875 L 600.65625 442.488281 L 601.703125 455.816406 L 602.835938 468.078125 L 604.261719 477.882812 L 606.175781 484.261719 L 608.683594 487.976562 L 611.882812 490.207031 L 615.800781 491.980469 L 620.269531 493.648438 L 625.046875 495.40625 L 629.925781 497.265625 L 634.785156 498.511719 L 639.519531 498.25 L 644.035156 495.773438 L 648.265625 491.136719 L 652.144531 484.574219 L 655.570312 476.507812 L 658.253906 468.152344 L 659.875 460.910156 L 660.46875 455.816406 L 661.574219 452.429688 L 665.089844 449.945312 L 672.085938 447.613281 L 680.273438 444.902344 L 686.535156 441.34375 L 688.410156 436.675781 L 686.113281 431.476562 L 680.511719 426.535156 L 672.632812 422.441406 L 664.039062 418.972656 L 656.441406 415.722656 L 651.554688 412.273438 L 650.359375 408.324219 L 650.933594 403.992188 L 650.636719 399.515625 L 647.773438 395.121094 L 644.46875 391.054688 L 643.804688 387.5625 L 647.640625 384.800781 L 652.996094 382.566406 L 655.679688 380.582031 L 652.757812 378.617188 L 646.386719 376.714844 L 639.976562 374.976562 L 636.28125 373.410156 L 635.375 371.613281 L 636.664062 369.097656 L 639.332031 365.457031 L 641.660156 360.617188 L 641.699219 354.589844 L 638.261719 347.5 L 633.191406 339.914062 L 629.101562 332.515625 L 627.863281 325.886719 L 628.421875 320.238281 L 628.976562 315.675781 L 628.175781 312.1875 L 626.398438 309.234375 L 624.457031 306.144531 L 623.101562 302.390625 L 622.8125 297.972656 L 624.011719 293.027344 L 626.875 287.757812 L 630.617188 282.605469 L 634.207031 278.074219 L 636.804688 274.5 L 638.285156 271.539062 L 638.703125 268.691406 L 638.113281 265.445312 L 636.71875 261.464844 L 635.316406 257.101562 L 634.855469 252.867188 L 635.933594 249.144531 L 637.769531 245.707031 L 639.234375 242.191406 L 639.394531 238.359375 L 638.09375 234.460938 L 635.371094 230.863281 L 631.507812 227.839844 L 627.769531 225.238281 L 625.675781 222.8125 L 626.34375 220.359375 L 629.339844 217.882812 L 633.824219 215.425781 L 638.898438 213.015625 L 643.382812 210.570312 L 646.023438 207.984375 L 646.175781 205.195312 L 645.609375 202.3125 L 646.703125 199.492188 L 650.886719 196.78125 L 655.832031 193.777344 L 658.257812 189.953125 L 656.476562 185.027344 L 655.160156 179.675781 L 660.566406 174.800781 L 676.800781 171.1875 L 699.347656 169.136719 L 721.542969 168.820312 L 737.996094 170.277344 L 748.464844 172.988281 L 753.984375 176.289062 L 755.792969 179.652344 L 755.9375 183.089844 L 756.660156 186.742188 L 760.21875 190.746094 L 767.976562 195.191406 L 777.789062 199.917969 L 786.636719 204.722656 L 792.226562 209.382812 L 795.199219 213.695312 L 796.925781 217.441406 L 798.433594 220.476562 L 799.355469 222.929688 L 798.96875 224.980469 L 796.941406 226.871094 L 794.46875 228.96875 L 793.125 231.695312 L 794.039062 235.359375 L 796.5625 239.867188 L 799.597656 245.015625 L 802.300781 250.542969 L 804.816406 255.925781 L 807.535156 260.570312 L 810.652344 264.070312 L 813.535156 266.761719 L 815.355469 269.15625 L 815.632812 271.671875 L 815.3125 274.363281 L 815.691406 277.183594 L 817.605469 280.203125 L 819.992188 283.957031 L 821.324219 289.089844 L 820.5 295.917969 L 818.066406 303.457031 L 814.996094 310.394531 L 812.207031 315.746094 L 810.386719 319.820312 L 810.160156 323.257812 L 812.164062 326.695312 L 816.671875 330.582031 L 822.554688 334.617188 L 828.324219 338.308594 L 832.648438 341.300781 L 834.8125 343.789062 L 834.253906 346.089844 L 830.894531 348.476562 L 826.574219 351.023438 L 823.613281 353.75 L 823.605469 356.644531 L 825.183594 359.558594 L 826.246094 362.296875 L 825.273438 364.710938 L 823.082031 366.785156 L 821.050781 368.550781 L 820.273438 370.125 L 820.621094 372 L 821.65625 374.777344 L 822.953125 378.839844 L 824.097656 383.78125 L 824.675781 388.984375 L 824.503906 393.90625 L 824.257812 398.246094 L 824.832031 401.777344 L 826.792969 404.386719 L 829.339844 406.414062 L 831.351562 408.320312 L 832.035156 410.542969 L 831.964844 413.441406 L 832.054688 417.363281 L 833.042969 422.496094 L 834.941406 428.441406 L 837.582031 434.632812 L 840.761719 440.578125 L 844.148438 446.066406 L 847.378906 450.9375 L 850.082031 455.046875 L 851.898438 458.300781 L 852.480469 460.886719 L 851.472656 463.046875 L 848.914062 465.011719 L 846.335938 466.984375 L 845.648438 469.152344 L 848 471.683594 L 851.503906 474.683594 L 853.523438 478.230469 L 852.207031 482.335938 L 848.882812 486.6875 L 845.679688 490.890625 L 844.316406 494.589844 L 844.875 497.511719 L 847.03125 499.414062 L 850.402344 500.148438 L 854.355469 499.929688 L 858.203125 499.054688 L 861.460938 497.792969 L 864.507812 496.226562 L 867.925781 494.402344 L 872.109375 492.363281 L 876.683594 490.113281 L 881.074219 487.660156 L 884.953125 484.949219 L 888.953125 481.710938 L 893.957031 477.632812 L 900.433594 472.527344 L 907.238281 466.804688 L 912.816406 461.015625 L 916.011719 455.550781 L 917.21875 450.148438 L 917.230469 444.382812 L 916.722656 437.953125 L 915.886719 431 L 914.792969 423.792969 L 913.507812 416.59375 L 912.109375 409.605469 L 910.652344 402.832031 L 909.199219 396.210938 L 907.808594 389.742188 L 906.484375 383.609375 L 905.21875 378.042969 L 903.992188 373.253906 L 902.722656 369.347656 L 901.304688 366.394531 L 899.65625 364.507812 L 897.75 363.941406 L 895.570312 364.980469 L 893.148438 367.5625 L 890.699219 370.222656 L 888.480469 371.152344 L 886.675781 369.023438 L 885.175781 364.4375 L 883.789062 358.488281 L 882.347656 352.152344 L 880.746094 345.964844 L 878.902344 340.367188 L 876.796875 335.621094 L 874.664062 331.339844 L 872.796875 326.96875 L 871.402344 322.113281 L 870.277344 317.039062 L 869.125 312.175781 L 867.738281 307.824219 L 866.242188 303.796875 L 864.835938 299.769531 L 863.660156 295.5 L 862.539062 291.042969 L 861.222656 286.53125 L 859.507812 282.074219 L 857.390625 277.703125 L 854.898438 273.441406 L 852.074219 269.308594 L 849.011719 265.285156 L 846.035156 261.242188 L 843.535156 257.003906 L 841.742188 252.46875 L 840.304688 247.765625 L 838.71875 243.089844 L 836.640625 238.605469 L 834.390625 234.371094 L 832.453125 230.40625 L 831.152344 226.683594 L 830.183594 222.941406 L 829.082031 218.851562 L 827.449219 214.210938 L 825.160156 209.265625 L 822.15625 204.363281 L 818.472656 199.734375 L 814.550781 195.042969 L 810.921875 189.835938 L 807.773438 183.777344 L 803.917969 177.035156 L 797.824219 169.902344 L 788.574219 162.75 L 777.734375 156.25 L 767.496094 151.152344 L 759.53125 147.953125 L 753.457031 146.15625 L 748.386719 145.019531 L 743.570312 143.914062 L 738.792969 142.738281 L 733.988281 141.503906 L 728.726562 140.230469 L 721.105469 138.945312 L 708.875 137.691406 L 689.777344 136.5 L 684.226562 137.191406 "/>
<path style="fill:none;stroke-width:0.75;stroke-linecap:round;stroke-linejoin:round;stroke:rgb(0%,0%,0%);stroke-opacity:1;stroke-miterlimit:10;" d="M 961.085938 230.847656 L 957.332031 232.410156 L 954.171875 234.058594 L 950.523438 235.96875 L 945.625 238.316406 L 940.035156 241.273438 L 934.625 245.019531 L 930.050781 249.675781 L 926.054688 255.101562 L 922.167969 261.101562 L 918.042969 267.484375 L 913.867188 274.125 L 909.949219 280.90625 L 906.546875 287.785156 L 903.660156 295.03125 L 901.230469 302.984375 L 899.238281 311.84375 L 897.839844 321.246094 L 897.238281 330.6875 L 897.628906 339.664062 L 899.078125 347.75 L 901.078125 354.824219 L 902.976562 360.847656 L 904.308594 365.84375 L 905.292969 370.136719 L 906.335938 374.109375 L 907.71875 378.074219 L 909.292969 382.046875 L 910.785156 385.964844 L 912.011719 389.769531 L 913.125 393.417969 L 914.363281 396.875 L 915.898438 400.128906 L 917.6875 403.269531 L 919.636719 406.421875 L 921.640625 409.648438 L 923.601562 412.835938 L 925.421875 415.808594 L 927 418.40625 L 928.285156 420.621094 L 929.421875 423.109375 L 930.59375 426.691406 L 931.9375 431.96875 L 933.386719 438.695312 L 934.820312 446.414062 L 936.15625 454.609375 L 937.4375 462.558594 L 938.742188 469.480469 L 940.125 474.839844 L 941.507812 479.058594 L 942.796875 482.804688 L 943.957031 486.613281 L 945.289062 490.496094 L 947.160156 494.332031 L 949.796875 498.070312 L 952.835938 501.929688 L 955.78125 506.195312 L 958.128906 511.152344 L 959.546875 516.964844 L 960.421875 523.265625 L 961.300781 529.566406 L 962.605469 535.417969 L 964.191406 540.5625 L 965.773438 544.785156 L 967.140625 548.003906 L 968.359375 550.691406 L 969.570312 553.457031 L 970.882812 556.746094 L 972.277344 560.410156 L 973.699219 564.132812 L 975.101562 567.675781 L 976.445312 571.097656 L 977.679688 574.527344 L 978.824219 578.066406 L 980.132812 581.730469 L 981.914062 585.511719 L 984.480469 589.394531 L 987.949219 593.425781 L 991.683594 597.871094 L 994.847656 603.046875 L 996.84375 609.136719 L 998.039062 615.789062 L 999.035156 622.527344 L 1000.308594 628.914062 L 1001.792969 634.726562 L 1003.289062 639.785156 L 1004.644531 644.027344 L 1005.90625 647.808594 L 1007.167969 651.597656 L 1008.503906 655.753906 L 1009.886719 660.203125 L 1011.273438 664.765625 L 1012.621094 669.273438 L 1013.945312 673.625 L 1015.261719 677.742188 L 1016.597656 681.539062 L 1017.960938 684.992188 L 1019.320312 688.320312 L 1020.636719 691.808594 L 1021.90625 695.65625 L 1023.25 699.773438 L 1024.824219 703.996094 L 1026.734375 708.210938 L 1028.882812 712.515625 L 1031.117188 717.046875 L 1033.34375 721.910156 L 1035.683594 727.03125 L 1038.3125 732.304688 L 1041.375 737.628906 L 1044.863281 742.992188 L 1048.746094 748.390625 L 1052.894531 753.785156 L 1056.863281 758.972656 L 1060.113281 763.695312 L 1062.113281 767.707031 L 1062.671875 770.949219 L 1062.96875 774.109375 L 1064.523438 778.054688 L 1068.3125 783.351562 L 1073.125 789.273438 L 1077.195312 794.789062 L 1079.253906 799.121094 L 1080 802.523438 L 1080.628906 805.511719 L 1082.019531 808.539062 L 1083.824219 811.765625 L 1085.394531 815.292969 L 1086.320312 819.160156 L 1087.222656 823.191406 L 1088.976562 827.148438 L 1092.152344 830.839844 L 1096.15625 834.214844 L 1100.085938 837.273438 L 1103.054688 840.011719 L 1104.484375 842.542969 L 1105.097656 845.453125 L 1105.945312 849.441406 L 1107.785156 855.003906 L 1110.238281 861.75 L 1112.632812 869.066406 L 1114.464844 876.402344 L 1115.894531 883.414062 L 1117.230469 889.8125 L 1118.703125 895.410156 L 1120.15625 900.421875 L 1121.34375 905.160156 L 1122.234375 909.875 L 1123.617188 914.5625 L 1126.511719 919.144531 L 1131.507812 923.585938 L 1137.585938 927.980469 L 1143.3125 932.457031 L 1147.246094 937.140625 L 1148.652344 942.113281 L 1149.53125 947.292969 L 1152.589844 952.550781 L 1159.5 957.777344 L 1167.859375 962.976562 L 1174.234375 968.167969 L 1176.300781 973.382812 L 1176.101562 978.691406 L 1176.785156 984.183594 L 1180.585938 989.863281 L 1186.082031 995.445312 L 1190.953125 1000.566406 L 1193.421875 1004.972656 L 1193.972656 1008.871094 L 1193.628906 1012.566406 L 1193.320312 1016.324219 L 1193.539062 1020.210938 L 1194.664062 1024.242188 L 1197.089844 1028.429688 L 1201.207031 1032.75 L 1207.476562 1036.972656 L 1216.367188 1040.824219 L 1227.898438 1044.144531 L 1240.253906 1047.199219 L 1251.175781 1050.375 L 1259.488281 1053.882812 L 1268.4375 1057.253906 L 1282.355469 1059.859375 L 1303.644531 1061.203125 L 1326.984375 1061.355469 L 1345.113281 1060.515625 L 1352.851562 1058.886719 L 1353.316406 1056.613281 L 1351.714844 1053.828125 L 1352.175781 1050.660156 L 1354.550781 1047.210938 L 1357.621094 1043.574219 L 1360.171875 1039.851562 L 1361.339844 1035.996094 L 1361.703125 1031.425781 L 1362.191406 1025.410156 L 1363.5 1017.375 L 1365.328125 1007.316406 L 1367.148438 995.386719 L 1368.554688 981.820312 L 1369.703125 967.234375 L 1370.886719 952.332031 L 1372.25 937.816406 L 1373.355469 924.414062 L 1373.621094 912.855469 L 1372.699219 903.601562 L 1371.167969 896.070312 L 1369.847656 889.40625 L 1369.332031 882.925781 L 1369.328125 876.585938 L 1369.335938 870.507812 L 1368.839844 864.816406 L 1367.503906 859.625 L 1365.675781 855.046875 L 1363.875 851.179688 L 1362.492188 847.992188 L 1361.390625 844.902344 L 1360.308594 841.171875 L 1359.039062 836.289062 L 1357.582031 830.550781 L 1356.003906 824.460938 L 1354.449219 818.484375 L 1353.375 812.90625 L 1353.316406 807.980469 L 1354.554688 803.839844 L 1356.320312 800.214844 L 1357.589844 796.71875 L 1357.585938 793.054688 L 1356.539062 789.292969 L 1354.9375 785.585938 L 1353.265625 782.101562 L 1351.898438 778.933594 L 1350.753906 775.9375 L 1349.652344 772.914062 L 1348.402344 769.613281 L 1346.78125 765.636719 L 1344.566406 760.546875 L 1341.667969 754.085938 L 1338.566406 746.730469 L 1335.878906 739.136719 L 1334.125 731.851562 L 1333.410156 724.957031 L 1333.746094 718.414062 L 1334.863281 712.230469 L 1335.367188 706.53125 L 1333.582031 701.480469 L 1328.382812 697.078125 L 1320.875 692.621094 L 1312.714844 687.242188 L 1305.5625 680.070312 L 1300.722656 670.558594 L 1298.066406 659.421875 L 1297.117188 647.695312 L 1297.476562 636.335938 L 1299.085938 626.011719 L 1301.972656 617.296875 L 1305.679688 610.566406 L 1307.859375 605.320312 L 1305.683594 600.847656 L 1297.402344 596.585938 L 1285.578125 592.59375 L 1273.851562 589.078125 L 1265.164062 586.019531 L 1259.621094 582.5 L 1256.628906 577.363281 L 1255.550781 569.882812 L 1255.5625 560.988281 L 1255.820312 552.046875 L 1255.457031 544.40625 L 1253.78125 538.988281 L 1250.734375 534.929688 L 1246.425781 530.941406 L 1241.097656 525.933594 L 1235.589844 519.644531 L 1230.871094 512.03125 L 1227.582031 503.195312 L 1224.980469 493.882812 L 1221.976562 484.996094 L 1217.84375 477.246094 L 1213.296875 470.613281 L 1209.398438 464.890625 L 1206.9375 459.882812 L 1205.519531 455.441406 L 1204.476562 451.4375 L 1203.261719 447.71875 L 1201.871094 444.089844 L 1200.425781 440.339844 L 1199.058594 436.265625 L 1197.832031 431.734375 L 1196.558594 426.953125 L 1195.007812 422.210938 L 1193.011719 417.726562 L 1190.773438 413.472656 L 1188.5625 409.359375 L 1186.585938 405.277344 L 1184.742188 401.003906 L 1182.859375 396.300781 L 1180.777344 391 L 1178.441406 385.253906 L 1175.808594 379.289062 L 1172.921875 373.363281 L 1170.117188 367.859375 L 1167.8125 363.183594 L 1166.296875 359.59375 L 1165.328125 356.691406 L 1164.53125 353.929688 L 1163.535156 350.753906 L 1161.976562 346.753906 L 1159.5 342.074219 L 1155.761719 337 L 1150.753906 331.816406 L 1145.800781 326.828125 L 1142.570312 322.335938 L 1142.015625 318.519531 L 1142.253906 315.085938 L 1140.6875 311.613281 L 1135.347656 307.882812 L 1126.738281 304.453125 L 1115.976562 302.085938 L 1104.253906 301.304688 L 1092.992188 301.710938 L 1083.667969 302.675781 L 1077.351562 303.628906 L 1073.425781 304.183594 L 1070.863281 304.015625 L 1068.621094 302.792969 L 1065.933594 300.257812 L 1063.027344 296.429688 L 1060.402344 291.402344 L 1058.429688 285.347656 L 1056.964844 278.789062 L 1055.757812 272.335938 L 1054.421875 266.417969 L 1052.09375 260.734375 L 1047.796875 254.816406 L 1041.136719 248.414062 L 1034.074219 242.222656 L 1029.164062 237.152344 L 1027.152344 233.867188 L 1021.523438 232.003906 L 1003.953125 230.941406 L 966.117188 230.058594 L 961.085938 230.847656 "/>
</g>
</svg>
