<?xml version="1.0" encoding="UTF-8"?>
<svg xmlns="http://www.w3.org/2000/svg" xmlns:xlink="http://www.w3.org/1999/xlink" width="1428pt" height="1605pt" viewBox="0 0 1428 1605" version="1.1">
<g id="surface84">
<rect x="0" y="0" width="1428" height="1605" style="fill:rgb(100%,100%,100%);fill-opacity:1;stroke:none;"/>
<path style="fill:none;stroke-width:0.75;stroke-linecap:round;stroke-linejoin:round;stroke:rgb(0%,0%,0%);stroke-opacity:1;stroke-miterlimit:10;" d="M 338.882812 725.929688 L 327.328125 730.527344 L 315.53125 733.476562 L 305.242188 735 L 299.523438 736.199219 L 299.238281 738.070312 L 295.070312 740.425781 L 279.121094 742.890625 L 259.269531 745.609375 L 245.0625 748.835938 L 236.917969 752.75 L 232.980469 757.386719 L 231.359375 762.257812 L 230.167969 766.746094 L 228.089844 770.371094 L 226.09375 773.203125 L 224.960938 775.492188 L 222.46875 777.707031 L 216.683594 780.339844 L 209.835938 783.816406 L 204.507812 788.308594 L 200.542969 793.117188 L 197.203125 797.480469 L 194.109375 801.277344 L 190.984375 804.542969 L 187.945312 807.472656 L 186.6875 810.878906 L 188.375 815.390625 L 190.457031 820.226562 L 190.058594 824.5 L 186.660156 828.230469 L 180.917969 831.824219 L 175.789062 836.34375 L 173.695312 842.414062 L 172.636719 848.261719 L 170.222656 852.109375 L 166.886719 854.578125 L 163.765625 856.886719 L 161.871094 859.949219 L 161.691406 863.441406 L 163.027344 866.785156 L 163.398438 869.535156 L 160.824219 871.53125 L 157.601562 873.550781 L 156.132812 876.585938 L 154.988281 881.53125 L 152.488281 888.765625 L 149.75 896.617188 L 148.585938 902.90625 L 150.164062 906.234375 L 153.070312 908.371094 L 155.328125 911.246094 L 155.359375 914.332031 L 152.367188 916.769531 L 148.292969 918.816406 L 145.484375 920.855469 L 145.140625 922.6875 L 147.667969 924.4375 L 151.394531 928.140625 L 154.332031 935.402344 L 155.351562 944.242188 L 153.523438 951.777344 L 148.75 956.195312 L 144.238281 959.960938 L 143.214844 965.8125 L 145.746094 973.34375 L 150.523438 981.351562 L 153.90625 988.632812 L 153.195312 994.355469 L 151.757812 999.242188 L 153.308594 1004.132812 L 156.953125 1008.789062 L 160.636719 1012.699219 L 162.863281 1016.175781 L 164.371094 1022.738281 L 166.324219 1034.964844 L 169.363281 1048.304688 L 173.601562 1058.085938 L 177.609375 1066.164062 L 180.222656 1075.234375 L 182.835938 1084.828125 L 186.902344 1093.769531 L 191.445312 1101.226562 L 195.296875 1106.703125 L 198.894531 1110.675781 L 203.0625 1113.863281 L 208.078125 1116.832031 L 211.925781 1119.539062 L 213.035156 1121.917969 L 213.832031 1124.484375 L 216.613281 1127.785156 L 219.21875 1131.910156 L 220.042969 1136.695312 L 224.160156 1141.449219 L 236.273438 1145.527344 L 252.835938 1148.992188 L 268.238281 1152.101562 L 278.378906 1155.054688 L 285.199219 1157.898438 L 291.335938 1160.324219 L 296.179688 1160.785156 L 299.277344 1158.199219 L 304.019531 1154.574219 L 313.46875 1151.9375 L 325.492188 1149.210938 L 337.019531 1145.222656 L 346.398438 1141.5 L 352.742188 1139.695312 L 356.765625 1139.351562 L 359.59375 1139.46875 L 362.359375 1139.019531 L 366.308594 1136.832031 L 372.542969 1132.59375 L 381.503906 1129.585938 L 392.832031 1130.5625 L 403.605469 1132.621094 L 411.472656 1132.351562 L 418.917969 1129.957031 L 428.167969 1126.488281 L 435.574219 1122.800781 L 437.382812 1119.417969 L 435.324219 1115.875 L 432.488281 1111.433594 L 430.976562 1105.917969 L 428.898438 1101.347656 L 424.660156 1099.324219 L 421.886719 1097.519531 L 423.792969 1093.539062 L 426.773438 1088.601562 L 426.898438 1084.464844 L 425.75 1081.398438 L 425.605469 1079.132812 L 425.960938 1076.683594 L 425.640625 1072.886719 L 423.832031 1067.03125 L 421.269531 1060.226562 L 418.824219 1053.945312 L 416.425781 1049.332031 L 414.167969 1046.777344 L 413.816406 1043.957031 L 416.753906 1038.777344 L 421.207031 1032.753906 L 425.0625 1027.777344 L 428.050781 1023.667969 L 430.355469 1019.722656 L 432.175781 1015.296875 L 433.804688 1009.90625 L 435.402344 1003.476562 L 436.574219 997.363281 L 437.039062 992.710938 L 437.558594 988.398438 L 438.339844 983.304688 L 436.347656 978.617188 L 429.625 975.625 L 423.726562 973.742188 L 424.230469 972.050781 L 429.324219 970.183594 L 435.339844 967.898438 L 439.164062 965.039062 L 439.921875 961.769531 L 438.167969 958.398438 L 437.910156 955.511719 L 442.535156 953.460938 L 449.441406 951.363281 L 454.828125 948.320312 L 456 944.542969 L 451.472656 940.515625 L 443.5 936.621094 L 435.253906 933.226562 L 429.726562 930.625 L 429.148438 928.835938 L 434.308594 927.503906 L 440.9375 925.128906 L 444.625 920.53125 L 445.433594 915 L 444.472656 910.019531 L 442.589844 905.390625 L 440.402344 900.519531 L 437.84375 894.882812 L 434.828125 888.242188 L 431.867188 881.414062 L 429.621094 875.46875 L 428.460938 870.542969 L 427.621094 863.015625 L 426.308594 850.238281 L 424.773438 837.210938 L 423.402344 829.125 L 422.128906 824.269531 L 420.808594 819.839844 L 419.441406 815.503906 L 418.066406 811.371094 L 416.726562 806.898438 L 415.449219 801.378906 L 414.21875 794.519531 L 412.746094 787.761719 L 410.746094 782.683594 L 408.15625 779.703125 L 405.167969 778.605469 L 402.722656 777.726562 L 401.292969 775.539062 L 398.746094 772.464844 L 393.296875 769.277344 L 387.167969 766.167969 L 382.914062 763.101562 L 380.390625 759.6875 L 378.773438 755.453125 L 377.4375 750.1875 L 376.546875 744.714844 L 376.078125 739.832031 L 374.46875 735.128906 L 370.210938 730.332031 L 363.59375 726.855469 L 355.683594 725.914062 L 348.9375 726.207031 L 345.230469 726.148438 L 342.785156 725.554688 L 338.910156 724.59375 L 338.882812 725.929688 "/>
<path style="fill:none;stroke-width:0.75;stroke-linecap:round;stroke-linejoin:round;stroke:rgb(0%,0%,0%);stroke-opacity:1;stroke-miterlimit:10;" d="M 338.882812 725.929688 L 327.328125 730.527344 L 315.53125 733.476562 L 305.242188 735 L 299.523438 736.199219 L 299.238281 738.070312 L 295.070312 740.425781 L 279.121094 742.890625 L 259.269531 745.609375 L 245.0625 748.835938 L 236.917969 752.75 L 232.980469 757.386719 L 231.359375 762.257812 L 230.167969 766.746094 L 228.089844 770.371094 L 226.09375 773.203125 L 224.960938 775.492188 L 222.46875 777.707031 L 216.683594 780.339844 L 209.835938 783.816406 L 204.507812 788.308594 L 200.542969 793.117188 L 197.203125 797.480469 L 194.109375 801.277344 L 190.984375 804.542969 L 187.945312 807.472656 L 186.6875 810.878906 L 188.375 815.390625 L 190.457031 820.226562 L 190.058594 824.5 L 186.660156 828.230469 L 180.917969 831.824219 L 175.789062 836.34375 L 173.695312 842.414062 L 172.636719 848.261719 L 170.222656 852.109375 L 166.886719 854.578125 L 163.765625 856.886719 L 161.871094 859.949219 L 161.691406 863.441406 L 163.027344 866.785156 L 163.398438 869.535156 L 160.824219 871.53125 L 157.601562 873.550781 L 156.132812 876.585938 L 154.988281 881.53125 L 152.488281 888.765625 L 149.75 896.617188 L 148.585938 902.90625 L 150.164062 906.234375 L 153.070312 908.371094 L 155.328125 911.246094 L 155.359375 914.332031 L 152.367188 916.769531 L 148.292969 918.816406 L 145.484375 920.855469 L 145.140625 922.6875 L 147.667969 924.4375 L 151.394531 928.140625 L 154.332031 935.402344 L 155.351562 944.242188 L 153.523438 951.777344 L 148.75 956.195312 L 144.238281 959.960938 L 143.214844 965.8125 L 145.746094 973.34375 L 150.523438 981.351562 L 153.90625 988.632812 L 153.195312 994.355469 L 151.757812 999.242188 L 153.308594 1004.132812 L 156.953125 1008.789062 L 160.636719 1012.699219 L 162.863281 1016.175781 L 164.371094 1022.738281 L 166.324219 1034.964844 L 169.363281 1048.304688 L 173.601562 1058.085938 L 177.609375 1066.164062 L 180.222656 1075.234375 L 182.835938 1084.828125 L 186.902344 1093.769531 L 191.445312 1101.226562 L 195.296875 1106.703125 L 198.894531 1110.675781 L 203.0625 1113.863281 L 208.078125 1116.832031 L 211.925781 1119.539062 L 213.035156 1121.917969 L 213.832031 1124.484375 L 216.613281 1127.785156 L 219.21875 1131.910156 L 220.042969 1136.695312 L 224.160156 1141.449219 L 236.273438 1145.527344 L 252.835938 1148.992188 L 268.238281 1152.101562 L 278.378906 1155.054688 L 285.199219 1157.898438 L 291.335938 1160.324219 L 296.179688 1160.785156 L 299.277344 1158.199219 L 304.019531 1154.574219 L 313.46875 1151.9375 L 325.492188 1149.210938 L 337.019531 1145.222656 L 346.398438 1141.5 L 352.742188 1139.695312 L 356.765625 1139.351562 L 359.59375 1139.46875 L 362.359375 1139.019531 L 366.308594 1136.832031 L 372.542969 1132.59375 L 381.503906 1129.585938 L 392.832031 1130.5625 L 403.605469 1132.621094 L 411.472656 1132.351562 L 418.917969 1129.957031 L 428.167969 1126.488281 L 435.574219 1122.800781 L 437.382812 1119.417969 L 435.324219 1115.875 L 432.488281 1111.433594 L 430.976562 1105.917969 L 428.898438 1101.347656 L 424.660156 1099.324219 L 421.886719 1097.519531 L 423.792969 1093.539062 L 426.773438 1088.601562 L 426.898438 1084.464844 L 425.75 1081.398438 L 425.605469 1079.132812 L 425.960938 1076.683594 L 425.640625 1072.886719 L 423.832031 1067.03125 L 421.269531 1060.226562 L 418.824219 1053.945312 L 416.425781 1049.332031 L 414.167969 1046.777344 L 413.816406 1043.957031 L 416.753906 1038.777344 L 421.207031 1032.753906 L 425.0625 1027.777344 L 428.050781 1023.667969 L 430.355469 1019.722656 L 432.175781 1015.296875 L 433.804688 1009.90625 L 435.402344 1003.476562 L 436.574219 997.363281 L 437.039062 992.710938 L 437.558594 988.398438 L 438.339844 983.304688 L 436.347656 978.617188 L 429.625 975.625 L 423.726562 973.742188 L 424.230469 972.050781 L 429.324219 970.183594 L 435.339844 967.898438 L 439.164062 965.039062 L 439.921875 961.769531 L 438.167969 958.398438 L 437.910156 955.511719 L 442.535156 953.460938 L 449.441406 951.363281 L 454.828125 948.320312 L 456 944.542969 L 451.472656 940.515625 L 443.5 936.621094 L 435.253906 933.226562 L 429.726562 930.625 L 429.148438 928.835938 L 434.308594 927.503906 L 440.9375 925.128906 L 444.625 920.53125 L 445.433594 915 L 444.472656 910.019531 L 442.589844 905.390625 L 440.402344 900.519531 L 437.84375 894.882812 L 434.828125 888.242188 L 431.867188 881.414062 L 429.621094 875.46875 L 428.460938 870.542969 L 427.621094 863.015625 L 426.308594 850.238281 L 424.773438 837.210938 L 423.402344 829.125 L 422.128906 824.269531 L 420.808594 819.839844 L 419.441406 815.503906 L 418.066406 811.371094 L 416.726562 806.898438 L 415.449219 801.378906 L 414.21875 794.519531 L 412.746094 787.761719 L 410.746094 782.683594 L 408.15625 779.703125 L 405.167969 778.605469 L 402.722656 777.726562 L 401.292969 775.539062 L 398.746094 772.464844 L 393.296875 769.277344 L 387.167969 766.167969 L 382.914062 763.101562 L 380.390625 759.6875 L 378.773438 755.453125 L 377.4375 750.1875 L 376.546875 744.714844 L 376.078125 739.832031 L 374.46875 735.128906 L 370.210938 730.332031 L 363.59375 726.855469 L 355.683594 725.914062 L 348.9375 726.207031 L 345.230469 726.148438 L 342.785156 725.554688 L 338.910156 724.59375 L 338.882812 725.929688 "/>
</g>
</svg>
