<?xml version="1.0" encoding="UTF-8"?>
<svg xmlns="http://www.w3.org/2000/svg" xmlns:xlink="http://www.w3.org/1999/xlink" width="1428pt" height="1605pt" viewBox="0 0 1428 1605" version="1.1">
<g id="surface89">
<rect x="0" y="0" width="1428" height="1605" style="fill:rgb(100%,100%,100%);fill-opacity:1;stroke:none;"/>
<path style="fill:none;stroke-width:0.75;stroke-linecap:round;stroke-linejoin:round;stroke:rgb(0%,0%,0%);stroke-opacity:1;stroke-miterlimit:10;" d="M 277.882812 697.816406 L 275.074219 704.441406 L 275.136719 710.429688 L 278.746094 714.6875 L 284.011719 717.828125 L 288.140625 720.558594 L 287.328125 722.320312 L 279.226562 722.527344 L 268.398438 721.773438 L 260.101562 720.882812 L 255.453125 720.421875 L 254.550781 720.914062 L 257.027344 722.765625 L 260.699219 725.96875 L 263.171875 730.078125 L 262.980469 733.285156 L 259.449219 734.164062 L 254.132812 734.234375 L 248.761719 735.378906 L 243.511719 738.035156 L 238.179688 742.277344 L 232.632812 747.851562 L 226.996094 753.164062 L 221.554688 757.046875 L 216.960938 761.300781 L 213.429688 767.738281 L 209.125 775.226562 L 202.605469 782.199219 L 196.152344 788.3125 L 192.128906 793.542969 L 189.582031 797.914062 L 186.726562 801.464844 L 182.566406 804.363281 L 179.257812 807.339844 L 178.941406 811.070312 L 180.535156 815.425781 L 182.179688 820.050781 L 182.089844 824.441406 L 179.136719 828.261719 L 174.679688 832.003906 L 170.71875 836.359375 L 168.582031 841.785156 L 166.933594 847.820312 L 164.253906 853.902344 L 160.894531 859.980469 L 157.605469 865.957031 L 154.8125 870.980469 L 152.722656 874.453125 L 150.992188 877.546875 L 149.132812 881.894531 L 146.867188 888.425781 L 144.753906 895.347656 L 143.535156 900.695312 L 143.890625 904.527344 L 145.871094 907.554688 L 147.113281 910.984375 L 145.65625 915.582031 L 143.621094 919.761719 L 143.484375 922.089844 L 145.066406 924.125 L 147.539062 928.152344 L 149.84375 935.511719 L 150.066406 943.671875 L 146.882812 949.953125 L 142.171875 954.914062 L 138.460938 959.835938 L 137.636719 965.695312 L 140.625 973.050781 L 145.175781 981.054688 L 148.234375 988.527344 L 147.871094 994.589844 L 146.605469 999.605469 L 147.363281 1004.238281 L 150.152344 1009.132812 L 154.105469 1015 L 157.722656 1022.828125 L 159.773438 1033.046875 L 160.75 1043.550781 L 161.566406 1051.605469 L 162.902344 1055.546875 L 164.519531 1058.015625 L 166 1061.855469 L 167.164062 1066.445312 L 168.0625 1070.726562 L 169.371094 1075.429688 L 171.722656 1081.414062 L 174.980469 1088.328125 L 178.84375 1095.492188 L 183.179688 1102.179688 L 187.898438 1107.65625 L 192.78125 1111.4375 L 197.117188 1114.042969 L 200.394531 1116.363281 L 203.445312 1119.707031 L 207.515625 1125.105469 L 214.109375 1132.015625 L 224 1139.492188 L 234.648438 1146.488281 L 242.703125 1151.941406 L 246.117188 1155.152344 L 248.097656 1156.921875 L 252.117188 1158.324219 L 257.464844 1160.105469 L 263.203125 1162.644531 L 271.722656 1165.183594 L 284.921875 1166.863281 L 299.46875 1167.46875 L 310.730469 1166.960938 L 315.683594 1165.574219 L 317.816406 1164.65625 L 321.105469 1165.117188 L 325.039062 1164.996094 L 328.464844 1162.378906 L 332.234375 1158.433594 L 337.46875 1154.84375 L 344.480469 1152.214844 L 352.992188 1150.664062 L 361.273438 1149.339844 L 367.214844 1147.160156 L 369.808594 1143.433594 L 372.386719 1139.019531 L 378.101562 1135.214844 L 384.933594 1133.476562 L 390.308594 1134.664062 L 394.53125 1137.042969 L 398.628906 1138.59375 L 403.605469 1138.761719 L 410.480469 1137.367188 L 419.546875 1134.328125 L 428.257812 1129.984375 L 433.972656 1124.664062 L 436.601562 1118.257812 L 436.789062 1110.894531 L 435.675781 1104.117188 L 434.347656 1099.28125 L 433.285156 1095.613281 L 432.800781 1091.789062 L 432.988281 1086.804688 L 433.011719 1080.886719 L 432.042969 1074.613281 L 430.199219 1068.707031 L 427.867188 1063.667969 L 425.566406 1059.007812 L 423.667969 1054.238281 L 421.839844 1049.929688 L 419.933594 1046.605469 L 419.214844 1043.515625 L 421.304688 1039.589844 L 427.144531 1033.957031 L 434.996094 1026.515625 L 442.4375 1017.707031 L 447.050781 1009.390625 L 447.398438 1003.171875 L 445.984375 998.179688 L 445.59375 993.238281 L 446.234375 988.453125 L 447.21875 984.226562 L 447.902344 980.664062 L 447.769531 976.589844 L 446.894531 970.945312 L 447.546875 964.351562 L 451.347656 957.675781 L 455.121094 951.09375 L 455.523438 944.664062 L 453.46875 938.667969 L 450.914062 933.460938 L 449.527344 929.257812 L 449.789062 925.792969 L 451.515625 922.601562 L 453.082031 918.917969 L 453.007812 914.242188 L 451.890625 909.378906 L 450.582031 905.210938 L 448.953125 901.675781 L 446.757812 898.421875 L 444.371094 894.949219 L 442.292969 890.722656 L 440.84375 885.484375 L 439.546875 880.121094 L 437.957031 875.621094 L 436.566406 872.1875 L 435.929688 869.621094 L 435.949219 866.808594 L 436.304688 862.703125 L 436.511719 857.433594 L 436.027344 851.414062 L 434.550781 845.1875 L 432.765625 839.738281 L 431.375 835.671875 L 430.1875 831.574219 L 428.886719 826.011719 L 427.496094 819.476562 L 426.117188 812.863281 L 424.773438 806.699219 L 423.472656 801.421875 L 422.191406 797.21875 L 420.792969 793.214844 L 419.238281 788.699219 L 418.039062 784.609375 L 417.445312 781.777344 L 416.195312 778.898438 L 413.054688 774.402344 L 408.382812 767.777344 L 402.957031 759.238281 L 397.652344 750.886719 L 393.359375 745.292969 L 390.613281 743.789062 L 388.546875 742.738281 L 385.464844 738.449219 L 377.808594 731.957031 L 363.421875 725.445312 L 347.640625 720.996094 L 336.035156 719.894531 L 327.585938 720.304688 L 319.625 719.625 L 310.40625 716.179688 L 301.804688 712.015625 L 295.910156 709.371094 L 291.984375 707.566406 L 288.820312 705.503906 L 286.207031 703.332031 L 284.074219 701.414062 L 281.972656 699.695312 L 279.355469 698.007812 L 277.882812 697.816406 "/>
<path style="fill:none;stroke-width:0.75;stroke-linecap:round;stroke-linejoin:round;stroke:rgb(0%,0%,0%);stroke-opacity:1;stroke-miterlimit:10;" d="M 277.882812 697.816406 L 275.074219 704.441406 L 275.136719 710.429688 L 278.746094 714.6875 L 284.011719 717.828125 L 288.140625 720.558594 L 287.328125 722.320312 L 279.226562 722.527344 L 268.398438 721.773438 L 260.101562 720.882812 L 255.453125 720.421875 L 254.550781 720.914062 L 257.027344 722.765625 L 260.699219 725.96875 L 263.171875 730.078125 L 262.980469 733.285156 L 259.449219 734.164062 L 254.132812 734.234375 L 248.761719 735.378906 L 243.511719 738.035156 L 238.179688 742.277344 L 232.632812 747.851562 L 226.996094 753.164062 L 221.554688 757.046875 L 216.960938 761.300781 L 213.429688 767.738281 L 209.125 775.226562 L 202.605469 782.199219 L 196.152344 788.3125 L 192.128906 793.542969 L 189.582031 797.914062 L 186.726562 801.464844 L 182.566406 804.363281 L 179.257812 807.339844 L 178.941406 811.070312 L 180.535156 815.425781 L 182.179688 820.050781 L 182.089844 824.441406 L 179.136719 828.261719 L 174.679688 832.003906 L 170.71875 836.359375 L 168.582031 841.785156 L 166.933594 847.820312 L 164.253906 853.902344 L 160.894531 859.980469 L 157.605469 865.957031 L 154.8125 870.980469 L 152.722656 874.453125 L 150.992188 877.546875 L 149.132812 881.894531 L 146.867188 888.425781 L 144.753906 895.347656 L 143.535156 900.695312 L 143.890625 904.527344 L 145.871094 907.554688 L 147.113281 910.984375 L 145.65625 915.582031 L 143.621094 919.761719 L 143.484375 922.089844 L 145.066406 924.125 L 147.539062 928.152344 L 149.84375 935.511719 L 150.066406 943.671875 L 146.882812 949.953125 L 142.171875 954.914062 L 138.460938 959.835938 L 137.636719 965.695312 L 140.625 973.050781 L 145.175781 981.054688 L 148.234375 988.527344 L 147.871094 994.589844 L 146.605469 999.605469 L 147.363281 1004.238281 L 150.152344 1009.132812 L 154.105469 1015 L 157.722656 1022.828125 L 159.773438 1033.046875 L 160.75 1043.550781 L 161.566406 1051.605469 L 162.902344 1055.546875 L 164.519531 1058.015625 L 166 1061.855469 L 167.164062 1066.445312 L 168.0625 1070.726562 L 169.371094 1075.429688 L 171.722656 1081.414062 L 174.980469 1088.328125 L 178.84375 1095.492188 L 183.179688 1102.179688 L 187.898438 1107.65625 L 192.78125 1111.4375 L 197.117188 1114.042969 L 200.394531 1116.363281 L 203.445312 1119.707031 L 207.515625 1125.105469 L 214.109375 1132.015625 L 224 1139.492188 L 234.648438 1146.488281 L 242.703125 1151.941406 L 246.117188 1155.152344 L 248.097656 1156.921875 L 252.117188 1158.324219 L 257.464844 1160.105469 L 263.203125 1162.644531 L 271.722656 1165.183594 L 284.921875 1166.863281 L 299.46875 1167.46875 L 310.730469 1166.960938 L 315.683594 1165.574219 L 317.816406 1164.65625 L 321.105469 1165.117188 L 325.039062 1164.996094 L 328.464844 1162.378906 L 332.234375 1158.433594 L 337.46875 1154.84375 L 344.480469 1152.214844 L 352.992188 1150.664062 L 361.273438 1149.339844 L 367.214844 1147.160156 L 369.808594 1143.433594 L 372.386719 1139.019531 L 378.101562 1135.214844 L 384.933594 1133.476562 L 390.308594 1134.664062 L 394.53125 1137.042969 L 398.628906 1138.59375 L 403.605469 1138.761719 L 410.480469 1137.367188 L 419.546875 1134.328125 L 428.257812 1129.984375 L 433.972656 1124.664062 L 436.601562 1118.257812 L 436.789062 1110.894531 L 435.675781 1104.117188 L 434.347656 1099.28125 L 433.285156 1095.613281 L 432.800781 1091.789062 L 432.988281 1086.804688 L 433.011719 1080.886719 L 432.042969 1074.613281 L 430.199219 1068.707031 L 427.867188 1063.667969 L 425.566406 1059.007812 L 423.667969 1054.238281 L 421.839844 1049.929688 L 419.933594 1046.605469 L 419.214844 1043.515625 L 421.304688 1039.589844 L 427.144531 1033.957031 L 434.996094 1026.515625 L 442.4375 1017.707031 L 447.050781 1009.390625 L 447.398438 1003.171875 L 445.984375 998.179688 L 445.59375 993.238281 L 446.234375 988.453125 L 447.21875 984.226562 L 447.902344 980.664062 L 447.769531 976.589844 L 446.894531 970.945312 L 447.546875 964.351562 L 451.347656 957.675781 L 455.121094 951.09375 L 455.523438 944.664062 L 453.46875 938.667969 L 450.914062 933.460938 L 449.527344 929.257812 L 449.789062 925.792969 L 451.515625 922.601562 L 453.082031 918.917969 L 453.007812 914.242188 L 451.890625 909.378906 L 450.582031 905.210938 L 448.953125 901.675781 L 446.757812 898.421875 L 444.371094 894.949219 L 442.292969 890.722656 L 440.84375 885.484375 L 439.546875 880.121094 L 437.957031 875.621094 L 436.566406 872.1875 L 435.929688 869.621094 L 435.949219 866.808594 L 436.304688 862.703125 L 436.511719 857.433594 L 436.027344 851.414062 L 434.550781 845.1875 L 432.765625 839.738281 L 431.375 835.671875 L 430.1875 831.574219 L 428.886719 826.011719 L 427.496094 819.476562 L 426.117188 812.863281 L 424.773438 806.699219 L 423.472656 801.421875 L 422.191406 797.21875 L 420.792969 793.214844 L 419.238281 788.699219 L 418.039062 784.609375 L 417.445312 781.777344 L 416.195312 778.898438 L 413.054688 774.402344 L 408.382812 767.777344 L 402.957031 759.238281 L 397.652344 750.886719 L 393.359375 745.292969 L 390.613281 743.789062 L 388.546875 742.738281 L 385.464844 738.449219 L 377.808594 731.957031 L 363.421875 725.445312 L 347.640625 720.996094 L 336.035156 719.894531 L 327.585938 720.304688 L 319.625 719.625 L 310.40625 716.179688 L 301.804688 712.015625 L 295.910156 709.371094 L 291.984375 707.566406 L 288.820312 705.503906 L 286.207031 703.332031 L 284.074219 701.414062 L 281.972656 699.695312 L 279.355469 698.007812 L 277.882812 697.816406 "/>
</g>
</svg>
