<?xml version="1.0" encoding="UTF-8"?>
<svg xmlns="http://www.w3.org/2000/svg" xmlns:xlink="http://www.w3.org/1999/xlink" width="1428pt" height="1605pt" viewBox="0 0 1428 1605" version="1.1">
<g id="surface94">
<rect x="0" y="0" width="1428" height="1605" style="fill:rgb(100%,100%,100%);fill-opacity:1;stroke:none;"/>
<path style="fill:none;stroke-width:0.75;stroke-linecap:round;stroke-linejoin:round;stroke:rgb(0%,0%,0%);stroke-opacity:1;stroke-miterlimit:10;" d="M 253.871094 697.976562 L 252.214844 702.816406 L 251.976562 707.460938 L 251.109375 711.652344 L 248.371094 715.398438 L 243.277344 718.996094 L 237.609375 723.539062 L 233.253906 729.738281 L 230.226562 735.933594 L 228.078125 740.425781 L 226.359375 743.652344 L 224.265625 746.613281 L 219.503906 750.425781 L 210.769531 755.882812 L 202.15625 762.335938 L 197.757812 768.871094 L 196.1875 774.976562 L 194.691406 780.234375 L 191.324219 784.441406 L 187.328125 788.300781 L 184.199219 792.472656 L 181.195312 796.640625 L 177.425781 800.46875 L 173.578125 804.515625 L 170.6875 809.277344 L 169.570312 814.105469 L 170.625 818.226562 L 172.71875 821.515625 L 174.355469 824.078125 L 174.105469 826.332031 L 171.097656 828.710938 L 166.628906 831.46875 L 162.539062 834.796875 L 160.183594 838.695312 L 158.945312 842.324219 L 157.839844 845.09375 L 156.417969 848.175781 L 154.457031 852.800781 L 152.074219 858.6875 L 149.414062 865.070312 L 146.355469 870.714844 L 143.046875 874.832031 L 141.035156 878.828125 L 141.390625 884.132812 L 141.9375 890.070312 L 140.519531 895.617188 L 138.429688 900.496094 L 137.8125 904.59375 L 139.886719 907.929688 L 142.144531 910.96875 L 141.921875 914.097656 L 139.695312 916.925781 L 136.769531 919.011719 L 134.71875 920.597656 L 134.796875 922.171875 L 136.78125 924.59375 L 139.808594 928.691406 L 142.007812 934.78125 L 141.761719 942.609375 L 139.484375 950.164062 L 136.207031 955.703125 L 133.390625 960.269531 L 132.601562 965.609375 L 134.691406 972.75 L 137.671875 979.792969 L 139.457031 984.742188 L 140.503906 988.074219 L 141.53125 990.75 L 141.78125 993.160156 L 140.523438 995.585938 L 138.582031 998.4375 L 137.265625 1001.894531 L 138.292969 1005.089844 L 142.703125 1007.898438 L 148.304688 1014.144531 L 152.726562 1027.09375 L 156.011719 1043.851562 L 158.8125 1059.972656 L 161.515625 1071.832031 L 163.425781 1079.050781 L 164.148438 1082.578125 L 165.621094 1085.390625 L 169.515625 1090.128906 L 174.195312 1096.042969 L 177.949219 1101.8125 L 182.125 1107.191406 L 187.957031 1112.175781 L 193.171875 1116.675781 L 195.746094 1120.800781 L 198.183594 1125.582031 L 203.289062 1131.855469 L 210.570312 1138.710938 L 218.699219 1144.800781 L 226.351562 1149.144531 L 232.226562 1152.207031 L 235.558594 1154.777344 L 237.761719 1157.402344 L 240.609375 1160.527344 L 245.128906 1164.332031 L 251.960938 1168.816406 L 260.996094 1173.453125 L 272.035156 1177.480469 L 285.363281 1179.71875 L 300.570312 1179.425781 L 314 1178.066406 L 322.515625 1177.179688 L 328.277344 1176.402344 L 334.78125 1174.902344 L 344.355469 1172.117188 L 354.683594 1168.601562 L 362.925781 1164.949219 L 368.730469 1160.863281 L 372.707031 1156.003906 L 376.757812 1150.757812 L 382.710938 1145.828125 L 390.796875 1142.464844 L 400.5625 1141.359375 L 410.378906 1140.449219 L 418.792969 1137.683594 L 426.21875 1133.757812 L 433.273438 1129.769531 L 439.527344 1125.59375 L 444.277344 1120.820312 L 447.03125 1115.277344 L 448.054688 1109.800781 L 447.699219 1105.230469 L 445.792969 1101.386719 L 442.382812 1097.800781 L 438.910156 1093.902344 L 436.722656 1089.367188 L 435.410156 1084.976562 L 434.222656 1081.359375 L 432.828125 1077.449219 L 431.195312 1072.0625 L 430.089844 1065.28125 L 430.214844 1057.625 L 431.277344 1050.007812 L 432.726562 1043.460938 L 434.132812 1038.765625 L 435.5 1035.707031 L 437.125 1033.804688 L 440.058594 1032.558594 L 444.929688 1031.453125 L 449.871094 1029.976562 L 452.714844 1027.667969 L 452.496094 1024.332031 L 449.589844 1020.085938 L 448.453125 1016.09375 L 452.753906 1013.222656 L 458.890625 1010.066406 L 462.445312 1005.132812 L 463.070312 998.75 L 461.429688 991.722656 L 458.199219 984.839844 L 454.046875 978.875 L 449.773438 974.28125 L 446.671875 970.242188 L 445.933594 965.925781 L 447.925781 961.621094 L 452.339844 957.769531 L 457.050781 954.261719 L 459.945312 950.9375 L 460.75 947.96875 L 459.832031 945.222656 L 458.332031 941.027344 L 457.226562 933.875 L 456.117188 924.453125 L 454.269531 914.019531 L 451.242188 903.617188 L 447.757812 893.511719 L 444.820312 883.789062 L 443.300781 874.566406 L 443.667969 865.660156 L 444.847656 855.648438 L 445.402344 843.648438 L 443.9375 832.269531 L 439.777344 824.089844 L 435.011719 818.097656 L 431.820312 812.695312 L 429.957031 807.527344 L 428.632812 802.566406 L 427.316406 797.859375 L 425.539062 793.476562 L 423.082031 789.234375 L 420.695312 783.972656 L 419.105469 776.789062 L 417.90625 768.820312 L 416.785156 761.480469 L 416.925781 755.261719 L 418.769531 750.371094 L 418.332031 746.832031 L 412.246094 744.464844 L 404.0625 742.480469 L 398.078125 740.152344 L 394.644531 737.605469 L 392.84375 735 L 390.703125 731.714844 L 385.964844 726.953125 L 377.175781 720.394531 L 366.09375 713.734375 L 355.101562 708.640625 L 345.902344 704.714844 L 338.179688 701.40625 L 324.25 699.570312 L 299.285156 700.085938 L 277.214844 702.398438 L 271.230469 705.457031 L 272.753906 707.660156 L 270.816406 707.679688 L 266.667969 705.875 L 263.546875 703 L 260.515625 699.785156 L 255.597656 696.933594 L 253.871094 697.976562 "/>
<path style="fill:none;stroke-width:0.75;stroke-linecap:round;stroke-linejoin:round;stroke:rgb(0%,0%,0%);stroke-opacity:1;stroke-miterlimit:10;" d="M 253.871094 697.976562 L 252.214844 702.816406 L 251.976562 707.460938 L 251.109375 711.652344 L 248.371094 715.398438 L 243.277344 718.996094 L 237.609375 723.539062 L 233.253906 729.738281 L 230.226562 735.933594 L 228.078125 740.425781 L 226.359375 743.652344 L 224.265625 746.613281 L 219.503906 750.425781 L 210.769531 755.882812 L 202.15625 762.335938 L 197.757812 768.871094 L 196.1875 774.976562 L 194.691406 780.234375 L 191.324219 784.441406 L 187.328125 788.300781 L 184.199219 792.472656 L 181.195312 796.640625 L 177.425781 800.46875 L 173.578125 804.515625 L 170.6875 809.277344 L 169.570312 814.105469 L 170.625 818.226562 L 172.71875 821.515625 L 174.355469 824.078125 L 174.105469 826.332031 L 171.097656 828.710938 L 166.628906 831.46875 L 162.539062 834.796875 L 160.183594 838.695312 L 158.945312 842.324219 L 157.839844 845.09375 L 156.417969 848.175781 L 154.457031 852.800781 L 152.074219 858.6875 L 149.414062 865.070312 L 146.355469 870.714844 L 143.046875 874.832031 L 141.035156 878.828125 L 141.390625 884.132812 L 141.9375 890.070312 L 140.519531 895.617188 L 138.429688 900.496094 L 137.8125 904.59375 L 139.886719 907.929688 L 142.144531 910.96875 L 141.921875 914.097656 L 139.695312 916.925781 L 136.769531 919.011719 L 134.71875 920.597656 L 134.796875 922.171875 L 136.78125 924.59375 L 139.808594 928.691406 L 142.007812 934.78125 L 141.761719 942.609375 L 139.484375 950.164062 L 136.207031 955.703125 L 133.390625 960.269531 L 132.601562 965.609375 L 134.691406 972.75 L 137.671875 979.792969 L 139.457031 984.742188 L 140.503906 988.074219 L 141.53125 990.75 L 141.78125 993.160156 L 140.523438 995.585938 L 138.582031 998.4375 L 137.265625 1001.894531 L 138.292969 1005.089844 L 142.703125 1007.898438 L 148.304688 1014.144531 L 152.726562 1027.09375 L 156.011719 1043.851562 L 158.8125 1059.972656 L 161.515625 1071.832031 L 163.425781 1079.050781 L 164.148438 1082.578125 L 165.621094 1085.390625 L 169.515625 1090.128906 L 174.195312 1096.042969 L 177.949219 1101.8125 L 182.125 1107.191406 L 187.957031 1112.175781 L 193.171875 1116.675781 L 195.746094 1120.800781 L 198.183594 1125.582031 L 203.289062 1131.855469 L 210.570312 1138.710938 L 218.699219 1144.800781 L 226.351562 1149.144531 L 232.226562 1152.207031 L 235.558594 1154.777344 L 237.761719 1157.402344 L 240.609375 1160.527344 L 245.128906 1164.332031 L 251.960938 1168.816406 L 260.996094 1173.453125 L 272.035156 1177.480469 L 285.363281 1179.71875 L 300.570312 1179.425781 L 314 1178.066406 L 322.515625 1177.179688 L 328.277344 1176.402344 L 334.78125 1174.902344 L 344.355469 1172.117188 L 354.683594 1168.601562 L 362.925781 1164.949219 L 368.730469 1160.863281 L 372.707031 1156.003906 L 376.757812 1150.757812 L 382.710938 1145.828125 L 390.796875 1142.464844 L 400.5625 1141.359375 L 410.378906 1140.449219 L 418.792969 1137.683594 L 426.21875 1133.757812 L 433.273438 1129.769531 L 439.527344 1125.59375 L 444.277344 1120.820312 L 447.03125 1115.277344 L 448.054688 1109.800781 L 447.699219 1105.230469 L 445.792969 1101.386719 L 442.382812 1097.800781 L 438.910156 1093.902344 L 436.722656 1089.367188 L 435.410156 1084.976562 L 434.222656 1081.359375 L 432.828125 1077.449219 L 431.195312 1072.0625 L 430.089844 1065.28125 L 430.214844 1057.625 L 431.277344 1050.007812 L 432.726562 1043.460938 L 434.132812 1038.765625 L 435.5 1035.707031 L 437.125 1033.804688 L 440.058594 1032.558594 L 444.929688 1031.453125 L 449.871094 1029.976562 L 452.714844 1027.667969 L 452.496094 1024.332031 L 449.589844 1020.085938 L 448.453125 1016.09375 L 452.753906 1013.222656 L 458.890625 1010.066406 L 462.445312 1005.132812 L 463.070312 998.75 L 461.429688 991.722656 L 458.199219 984.839844 L 454.046875 978.875 L 449.773438 974.28125 L 446.671875 970.242188 L 445.933594 965.925781 L 447.925781 961.621094 L 452.339844 957.769531 L 457.050781 954.261719 L 459.945312 950.9375 L 460.75 947.96875 L 459.832031 945.222656 L 458.332031 941.027344 L 457.226562 933.875 L 456.117188 924.453125 L 454.269531 914.019531 L 451.242188 903.617188 L 447.757812 893.511719 L 444.820312 883.789062 L 443.300781 874.566406 L 443.667969 865.660156 L 444.847656 855.648438 L 445.402344 843.648438 L 443.9375 832.269531 L 439.777344 824.089844 L 435.011719 818.097656 L 431.820312 812.695312 L 429.957031 807.527344 L 428.632812 802.566406 L 427.316406 797.859375 L 425.539062 793.476562 L 423.082031 789.234375 L 420.695312 783.972656 L 419.105469 776.789062 L 417.90625 768.820312 L 416.785156 761.480469 L 416.925781 755.261719 L 418.769531 750.371094 L 418.332031 746.832031 L 412.246094 744.464844 L 404.0625 742.480469 L 398.078125 740.152344 L 394.644531 737.605469 L 392.84375 735 L 390.703125 731.714844 L 385.964844 726.953125 L 377.175781 720.394531 L 366.09375 713.734375 L 355.101562 708.640625 L 345.902344 704.714844 L 338.179688 701.40625 L 324.25 699.570312 L 299.285156 700.085938 L 277.214844 702.398438 L 271.230469 705.457031 L 272.753906 707.660156 L 270.816406 707.679688 L 266.667969 705.875 L 263.546875 703 L 260.515625 699.785156 L 255.597656 696.933594 L 253.871094 697.976562 "/>
</g>
</svg>
