<?xml version="1.0" encoding="UTF-8"?>
<svg xmlns="http://www.w3.org/2000/svg" xmlns:xlink="http://www.w3.org/1999/xlink" width="1428pt" height="1605pt" viewBox="0 0 1428 1605" version="1.1">
<g id="surface99">
<rect x="0" y="0" width="1428" height="1605" style="fill:rgb(100%,100%,100%);fill-opacity:1;stroke:none;"/>
<path style="fill:none;stroke-width:0.75;stroke-linecap:round;stroke-linejoin:round;stroke:rgb(0%,0%,0%);stroke-opacity:1;stroke-miterlimit:10;" d="M 316.1875 677.074219 L 312.230469 680.007812 L 310.191406 682.503906 L 306.96875 685.257812 L 300.664062 688.378906 L 290.597656 691.828125 L 279.773438 695.511719 L 272.121094 699.320312 L 269.835938 703.058594 L 268.164062 706.148438 L 262.292969 707.960938 L 254.109375 708.019531 L 247.195312 705.878906 L 243.949219 701.816406 L 242.082031 698.988281 L 239.21875 700.203125 L 237.347656 704.078125 L 238.449219 708.519531 L 240.164062 712.761719 L 239.046875 716.355469 L 233.121094 719.175781 L 226.289062 722.277344 L 222.664062 726.605469 L 221.355469 731.46875 L 220.21875 735.746094 L 217.898438 738.667969 L 216.171875 740.769531 L 216.371094 742.925781 L 214.910156 745.988281 L 208.40625 750.542969 L 199.222656 756.199219 L 191.148438 762.304688 L 187.074219 768.25 L 186.230469 773.574219 L 186.925781 777.992188 L 187.425781 781.785156 L 185.980469 785.378906 L 181.621094 789.144531 L 176.417969 793.199219 L 172.644531 797.511719 L 170.246094 801.703125 L 168.585938 805.316406 L 167.132812 808.070312 L 165.75 810.445312 L 164.421875 813.039062 L 163.117188 816.210938 L 161.808594 820.128906 L 160.476562 824.492188 L 159.097656 828.863281 L 157.679688 832.996094 L 156.367188 837.378906 L 155.21875 842.4375 L 153.855469 847.628906 L 151.785156 852.171875 L 148.910156 855.605469 L 146.710938 858.773438 L 146.132812 862.542969 L 144.441406 866.640625 L 139.25 870.609375 L 133.351562 874.339844 L 130.828125 877.828125 L 134.160156 881.039062 L 139.402344 883.863281 L 142.046875 886.207031 L 141.746094 888.175781 L 139.1875 889.929688 L 135.328125 891.8125 L 132.234375 894.988281 L 131.601562 900.316406 L 132.578125 906.699219 L 133.667969 912.550781 L 133.808594 917.195312 L 133.613281 923.617188 L 133.714844 934.410156 L 133.144531 946.933594 L 131.070312 957.933594 L 128.839844 966.953125 L 128.332031 974.214844 L 130.691406 979.972656 L 134.046875 984.546875 L 136.226562 988.367188 L 136.828125 992.183594 L 135.902344 996.84375 L 134.078125 1002.59375 L 134.300781 1007.355469 L 138.734375 1009.699219 L 144.085938 1013.179688 L 146.828125 1021.292969 L 147.96875 1032.285156 L 149.652344 1043.121094 L 153.167969 1051.46875 L 156.410156 1057.941406 L 157.261719 1063.722656 L 156.996094 1069.363281 L 157.738281 1075.269531 L 160.816406 1081.519531 L 164.414062 1086.964844 L 166.582031 1090.617188 L 167.960938 1093.429688 L 169.851562 1096.832031 L 173.296875 1101.691406 L 178.347656 1106.574219 L 184.46875 1110.089844 L 189.769531 1113.304688 L 192.789062 1117.609375 L 195.164062 1123.257812 L 199.300781 1130.210938 L 206.46875 1138.0625 L 213.398438 1144.941406 L 216.800781 1149.21875 L 217.84375 1151.757812 L 218.804688 1154.035156 L 221.695312 1157.144531 L 227.429688 1160.5625 L 235.832031 1163.6875 L 243.386719 1167.078125 L 247.347656 1171.347656 L 251.359375 1176.070312 L 260.652344 1180.558594 L 277.816406 1184.269531 L 294.785156 1187.242188 L 303.402344 1189.5625 L 305.75 1190.917969 L 306.472656 1190.90625 L 309.394531 1189.375 L 315.117188 1187.253906 L 323.035156 1185.503906 L 330.972656 1184.15625 L 336.375 1183.003906 L 337.992188 1181.851562 L 339.886719 1180.5 L 345.90625 1178.722656 L 353.84375 1176.152344 L 360.703125 1172.5625 L 366.484375 1168.375 L 371.925781 1164.171875 L 377.269531 1160.441406 L 380.777344 1157.285156 L 381.289062 1154.632812 L 381.964844 1152.070312 L 387.039062 1149.105469 L 398.921875 1145.421875 L 412.726562 1141.414062 L 423.167969 1137.523438 L 430.742188 1133.726562 L 436.972656 1129.777344 L 441.730469 1124.992188 L 444.480469 1118.589844 L 444.949219 1110.390625 L 443.949219 1102.65625 L 442.425781 1097.570312 L 440.808594 1094.570312 L 439.402344 1092.410156 L 438.355469 1090.042969 L 437.15625 1087.230469 L 435.378906 1083.839844 L 433.636719 1079.347656 L 432.773438 1073.144531 L 433.464844 1065.246094 L 435.613281 1058.230469 L 438.675781 1054.464844 L 441.027344 1052.960938 L 441.277344 1052.039062 L 440.054688 1050.675781 L 438.480469 1048.007812 L 437.753906 1043.675781 L 439.363281 1039.285156 L 444.195312 1036.328125 L 450.480469 1033.808594 L 455.78125 1030.113281 L 458.59375 1024.023438 L 461.152344 1015.960938 L 465.28125 1007.074219 L 467.40625 999.859375 L 464.210938 996.273438 L 458.882812 994.742188 L 456.207031 992.804688 L 458.953125 988.710938 L 461.753906 983.597656 L 459.152344 978.929688 L 453.4375 974.671875 L 448.851562 970.421875 L 448.582031 965.976562 L 451.664062 962.003906 L 456.121094 958.914062 L 460.105469 955.273438 L 461.808594 949.195312 L 460.417969 939.539062 L 459.113281 928.242188 L 460.648438 917.585938 L 462.070312 908.21875 L 460.140625 900.371094 L 456.214844 894.226562 L 452.792969 889.953125 L 451.769531 887.296875 L 452.621094 884.25 L 454.257812 878.820312 L 455.707031 870.753906 L 456.03125 860.226562 L 454.699219 848.082031 L 452.820312 837.753906 L 451.535156 832.054688 L 450.449219 828.617188 L 448.992188 824.5625 L 447.425781 820.125 L 446.222656 816.3125 L 445.476562 813.605469 L 443.792969 810.367188 L 439.984375 805.089844 L 435.242188 798.925781 L 431.355469 793.679688 L 429.480469 790.046875 L 428.285156 784.246094 L 426.207031 772.949219 L 423.25 759.085938 L 419.8125 747.144531 L 416.167969 740.355469 L 412.097656 736.902344 L 407.484375 734.257812 L 403.167969 732.128906 L 399.953125 730.601562 L 397.539062 729.007812 L 395.355469 726.5 L 392.890625 722.605469 L 389.859375 718.328125 L 386.21875 714.75 L 382.667969 711.738281 L 380.101562 708.859375 L 378.910156 705.757812 L 377.476562 702.359375 L 374.300781 698.886719 L 370.300781 696.441406 L 366.75 696.019531 L 363.84375 697.285156 L 361.53125 699.566406 L 359.652344 701.992188 L 357.664062 702.855469 L 355.039062 700.808594 L 351.742188 696.765625 L 347.832031 692.203125 L 343.566406 688.257812 L 339.890625 684.695312 L 336.992188 681.121094 L 331.25 677.882812 L 318.09375 675.515625 L 316.1875 677.074219 "/>
<path style="fill:none;stroke-width:0.75;stroke-linecap:round;stroke-linejoin:round;stroke:rgb(0%,0%,0%);stroke-opacity:1;stroke-miterlimit:10;" d="M 312.203125 682.640625 L 300.941406 687.671875 L 289.007812 691.996094 L 279.410156 695.75 L 273.179688 699.382812 L 270.207031 703.148438 L 267.765625 706.199219 L 262.488281 707.417969 L 252.6875 706.332031 L 243.421875 705.050781 L 239.738281 705.679688 L 239.882812 707.757812 L 240.753906 710.328125 L 240.613281 713.101562 L 238.074219 715.949219 L 232.546875 718.867188 L 226.691406 722.347656 L 223.152344 726.757812 L 221.347656 731.472656 L 219.875 735.613281 L 217.855469 738.558594 L 216.472656 740.773438 L 216.445312 742.996094 L 214.625 746.066406 L 208.152344 750.601562 L 199.25 756.21875 L 191.402344 762.28125 L 187.273438 768.191406 L 186.25 773.515625 L 186.835938 777.976562 L 187.304688 781.820312 L 185.890625 785.417969 L 181.585938 789.125 L 176.460938 793.160156 L 172.753906 797.574219 L 170.328125 801.785156 L 168.53125 805.21875 L 167.074219 808.015625 L 165.757812 810.488281 L 164.425781 812.996094 L 163.105469 816.132812 L 161.828125 820.273438 L 160.5 824.71875 L 159.054688 828.757812 L 157.625 832.742188 L 156.386719 837.277344 L 155.363281 842.648438 L 153.902344 847.882812 L 151.488281 852.011719 L 148.851562 855.410156 L 147.039062 858.789062 L 146.351562 862.65625 L 144.171875 866.71875 L 138.554688 870.589844 L 133.230469 874.253906 L 132.148438 877.773438 L 134.515625 881.039062 L 138.34375 883.90625 L 141.644531 886.269531 L 142.382812 888.144531 L 139.371094 889.730469 L 134.820312 891.808594 L 131.785156 895.308594 L 132.214844 900.6875 L 133.554688 906.476562 L 133.1875 911.433594 L 132.613281 917.070312 L 133.589844 925.070312 L 134.769531 935.042969 L 134.011719 946.078125 L 130.339844 957.191406 L 127.351562 967.078125 L 128.46875 974.675781 L 131.804688 980.195312 L 134.628906 984.257812 L 136.175781 987.878906 L 136.183594 992.175781 L 134.835938 997.71875 L 134.125 1002.894531 L 135.863281 1006.253906 L 139.277344 1009.226562 L 142.949219 1013.949219 L 145.828125 1021.917969 L 148.355469 1032.050781 L 151.078125 1042.609375 L 153.503906 1051.757812 L 155.101562 1058.261719 L 156.210938 1063.3125 L 157.394531 1068.726562 L 159.085938 1075.609375 L 161.21875 1082.257812 L 163.589844 1086.886719 L 165.96875 1090.128906 L 168.109375 1093.234375 L 170.097656 1097.160156 L 173.332031 1101.714844 L 178.8125 1106.375 L 184.664062 1110.457031 L 188.933594 1113.617188 L 192.195312 1117.101562 L 195.667969 1122.542969 L 200.328125 1130.722656 L 206.179688 1138.988281 L 212.574219 1144.664062 L 217.148438 1148.449219 L 218.203125 1151.628906 L 218.285156 1154.566406 L 221.03125 1157.378906 L 228.546875 1160.234375 L 236.882812 1163.453125 L 242.054688 1167.300781 L 246 1171.589844 L 252.132812 1176.03125 L 262.949219 1180.339844 L 277.28125 1184.246094 L 292.472656 1187.464844 L 303.617188 1189.691406 L 307.105469 1190.683594 L 306.734375 1190.535156 L 308.167969 1189.421875 L 315.203125 1187.597656 L 324.222656 1185.640625 L 330.851562 1184.078125 L 335.105469 1182.855469 L 338.125 1181.796875 L 341.117188 1180.644531 L 345.671875 1178.855469 L 352.777344 1175.992188 L 360.699219 1172.339844 L 367.441406 1168.347656 L 372.6875 1164.339844 L 376.519531 1160.609375 L 379.152344 1157.378906 L 381.238281 1154.542969 L 383.742188 1151.882812 L 388.453125 1149.023438 L 397.359375 1145.574219 L 411.007812 1141.382812 L 424.207031 1137.328125 L 432.054688 1134.0625 L 436.597656 1130.28125 L 440.773438 1124.65625 L 444.183594 1117.675781 L 445.601562 1110.285156 L 444.363281 1103.417969 L 442.113281 1097.953125 L 440.582031 1094.441406 L 439.546875 1092.117188 L 438.40625 1089.996094 L 437.035156 1087.445312 L 435.410156 1083.910156 L 433.699219 1078.976562 L 432.8125 1072.714844 L 433.574219 1065.558594 L 435.625 1058.882812 L 438.34375 1054.300781 L 440.90625 1052.71875 L 441.765625 1052.203125 L 440.007812 1050.589844 L 437.894531 1047.660156 L 437.914062 1043.765625 L 440.195312 1039.675781 L 444.289062 1036.253906 L 449.597656 1033.789062 L 454.980469 1030.238281 L 459.378906 1023.742188 L 462.628906 1015.429688 L 464.78125 1007.191406 L 465.667969 1000.65625 L 464.234375 996.425781 L 460.179688 994.371094 L 457.085938 992.460938 L 458.054688 988.792969 L 460.363281 983.886719 L 459.851562 978.859375 L 454.207031 974.523438 L 448.609375 970.425781 L 448.375 966.089844 L 451.898438 962.121094 L 456.214844 958.953125 L 459.796875 955.203125 L 461.476562 949.027344 L 460.734375 939.355469 L 459.703125 928.136719 L 460.347656 917.65625 L 461.320312 908.449219 L 460.457031 900.613281 L 456.613281 894.292969 L 452.683594 889.867188 L 451.644531 887.238281 L 452.710938 884.230469 L 454.332031 878.667969 L 455.628906 870.472656 L 455.894531 860.09375 L 454.726562 848.4375 L 452.964844 838.253906 L 451.511719 831.878906 L 450.304688 828.085938 L 449.035156 824.757812 L 447.542969 820.441406 L 446.265625 816.296875 L 445.40625 813.445312 L 443.667969 810.25 L 439.933594 805.0625 L 435.3125 799 L 431.480469 793.855469 L 429.53125 790.265625 L 428.226562 784.167969 L 426.113281 772.203125 L 423.226562 758.542969 L 419.902344 748.070312 L 416.171875 741.054688 L 412 736.609375 L 407.484375 733.875 L 403.28125 732.140625 L 399.992188 730.734375 L 397.441406 729.019531 L 395.257812 726.378906 L 393.015625 722.5 L 390.042969 718.339844 L 386.039062 714.871094 L 382.386719 711.847656 L 380.355469 708.816406 L 379.125 705.640625 L 377.34375 702.277344 L 374.101562 698.898438 L 370.261719 696.535156 L 366.882812 696.136719 L 364.046875 697.371094 L 361.597656 699.589844 L 359.390625 701.933594 L 357.339844 702.710938 L 355.222656 700.605469 L 352.269531 696.582031 L 347.910156 692.082031 L 342.984375 688.183594 L 338.679688 685.863281 L 335.667969 685.597656 L 332.589844 685.875 L 327.863281 685.121094 L 321.074219 683.46875 L 312.101562 681.480469 L 312.203125 682.640625 "/>
</g>
</svg>
