<?xml version="1.0" encoding="UTF-8"?>
<svg xmlns="http://www.w3.org/2000/svg" xmlns:xlink="http://www.w3.org/1999/xlink" width="1428pt" height="1605pt" viewBox="0 0 1428 1605" version="1.1">
<g id="surface104">
<rect x="0" y="0" width="1428" height="1605" style="fill:rgb(100%,100%,100%);fill-opacity:1;stroke:none;"/>
<path style="fill:none;stroke-width:0.75;stroke-linecap:round;stroke-linejoin:round;stroke:rgb(0%,0%,0%);stroke-opacity:1;stroke-miterlimit:10;" d="M 308.214844 655.078125 L 304.488281 660.355469 L 302.445312 665.015625 L 301.34375 668.609375 L 300.152344 671.191406 L 298.058594 672.976562 L 295.335938 674.296875 L 292.519531 675.503906 L 290.046875 677.078125 L 287.894531 679.949219 L 285.824219 684.476562 L 283.109375 688.261719 L 279.265625 689.085938 L 275.167969 688.164062 L 272.054688 687.578125 L 269.824219 688.910156 L 263.078125 691.691406 L 247.730469 695.15625 L 230.203125 699.285156 L 219.542969 704.261719 L 221.125 709.828125 L 225.558594 713.964844 L 223.03125 715.332031 L 216.726562 717.039062 L 211.851562 722.1875 L 208.742188 729.398438 L 206.523438 736.171875 L 204.429688 740.691406 L 202.171875 743.859375 L 199.511719 746.984375 L 195.894531 750.242188 L 190.703125 753.523438 L 183.945312 756.859375 L 178.152344 760.875 L 175.664062 766.046875 L 175.5625 771.710938 L 176.199219 777.042969 L 176.246094 781.707031 L 174.460938 785.476562 L 170.175781 788.523438 L 165.027344 792.597656 L 160.808594 799.199219 L 157.660156 807.21875 L 155.300781 814.902344 L 153.5 820.875 L 152.171875 825.242188 L 151.179688 828.652344 L 150 832.375 L 148.242188 837.382812 L 146.480469 842.882812 L 145.523438 847.632812 L 145.5 850.996094 L 143.835938 854.808594 L 138.335938 860.804688 L 131.054688 867.871094 L 125.109375 874.179688 L 123.160156 878.425781 L 125.992188 881.355469 L 132.769531 883.976562 L 138.050781 886.238281 L 136.949219 887.992188 L 131.488281 889.679688 L 125.414062 891.890625 L 121.863281 895.058594 L 121.5 898.957031 L 123.96875 903.1875 L 127.28125 907.300781 L 129.03125 910.847656 L 127.855469 913.789062 L 126.574219 917.828125 L 127.917969 924.425781 L 130.128906 932.359375 L 130.90625 939.957031 L 130.199219 946.414062 L 128.550781 951.136719 L 126.457031 953.964844 L 124.296875 956.5 L 122.488281 960.246094 L 121.734375 964.585938 L 122.808594 968.363281 L 125.855469 970.820312 L 128.5625 972.765625 L 128.824219 975.707031 L 127.90625 982.335938 L 127.523438 994.226562 L 127.847656 1007.328125 L 128.652344 1016.183594 L 129.859375 1017.1875 L 131.933594 1014.132812 L 135.203125 1012.054688 L 138.851562 1013.523438 L 141.785156 1020.492188 L 143.300781 1033.285156 L 144.261719 1045.6875 L 145.617188 1051.945312 L 147.125 1054.667969 L 148.378906 1057.738281 L 149.542969 1061.765625 L 150.917969 1066.546875 L 152.632812 1071.683594 L 154.078125 1076.007812 L 154.796875 1078.667969 L 155.613281 1080.871094 L 157.660156 1084.34375 L 161.597656 1090.101562 L 166.132812 1096.371094 L 170.027344 1101.417969 L 174.171875 1106.457031 L 179.480469 1112.910156 L 184.890625 1120.089844 L 188.828125 1126.777344 L 190.519531 1132.136719 L 192.367188 1136.832031 L 196.761719 1141.703125 L 202.914062 1146.785156 L 209.230469 1151.90625 L 214.5625 1156.808594 L 219.515625 1160.921875 L 224.945312 1163.945312 L 230.902344 1167.015625 L 237.3125 1171.226562 L 244.386719 1176.074219 L 252.394531 1180.652344 L 260.972656 1184.265625 L 267.171875 1187.058594 L 268.734375 1189.3125 L 268.734375 1191.0625 L 270.664062 1192.347656 L 274.324219 1193.503906 L 278.59375 1194.953125 L 282.609375 1196.851562 L 286.5 1198.292969 L 290.558594 1198.492188 L 294.703125 1198.136719 L 298.761719 1198.296875 L 302.8125 1199.570312 L 307.964844 1200.753906 L 314.902344 1200.507812 L 321.589844 1198.804688 L 326.074219 1196.003906 L 329.460938 1192.691406 L 333.605469 1189.503906 L 340.265625 1186.601562 L 350.714844 1182.234375 L 365.152344 1174.960938 L 379.859375 1166.425781 L 390.140625 1159.0625 L 393.3125 1154.570312 L 394.71875 1151.742188 L 400 1148.914062 L 407.921875 1145.5625 L 416.070312 1141.550781 L 424.109375 1137.246094 L 432.222656 1133.136719 L 440.21875 1129.535156 L 446.382812 1126.046875 L 449.1875 1122.261719 L 449.308594 1118.378906 L 447.976562 1114.765625 L 446.285156 1111.355469 L 444.769531 1106.414062 L 443.65625 1098.691406 L 442.476562 1090.621094 L 440.804688 1084.835938 L 439.109375 1081.132812 L 438.082031 1078.585938 L 438.242188 1076.328125 L 439.421875 1073.683594 L 441.332031 1070.207031 L 443.878906 1066.195312 L 447.015625 1062.117188 L 450.34375 1058.394531 L 452.070312 1055.234375 L 451.195312 1052.347656 L 451.269531 1047.585938 L 455.640625 1039.257812 L 462.300781 1029.273438 L 467.910156 1020.445312 L 470.140625 1014.679688 L 470.761719 1010.234375 L 471.753906 1005.140625 L 471.882812 1000.074219 L 469.101562 996.371094 L 462.867188 994.691406 L 458.613281 992.964844 L 460.910156 989.179688 L 464.964844 984.316406 L 465.253906 979.742188 L 462.804688 975.386719 L 460.28125 970.8125 L 459.734375 965.820312 L 460.769531 961.144531 L 462.40625 957.417969 L 463.738281 953.839844 L 463.882812 949.265625 L 462.554688 943.203125 L 461.867188 937.796875 L 463.59375 934.855469 L 465.804688 932.171875 L 466.320312 927.019531 L 465.714844 918.585938 L 465.234375 906.523438 L 465.730469 891.433594 L 466.433594 877.679688 L 466.335938 868.730469 L 465.101562 860.722656 L 462.558594 847.957031 L 458.882812 827.542969 L 455.601562 807.8125 L 453.832031 797.046875 L 451.746094 792.03125 L 447.519531 787.832031 L 442.363281 784.050781 L 438.230469 781.425781 L 436.441406 780.066406 L 435.742188 777.535156 L 434.566406 771.546875 L 432.632812 762.992188 L 430 753.546875 L 426.855469 744.769531 L 423.953125 737.726562 L 421.535156 732.832031 L 417.238281 728.351562 L 409.207031 722.625 L 400.246094 716.449219 L 394.324219 711.25 L 393.652344 707.644531 L 393.433594 703.085938 L 388.769531 695.308594 L 381.40625 686.359375 L 374.738281 679.367188 L 371.03125 676.457031 L 367.996094 675.742188 L 363.246094 674.804688 L 358.527344 673.109375 L 355.675781 670.652344 L 352.746094 667.683594 L 346.839844 664.507812 L 336.429688 661.433594 L 325.492188 658.789062 L 318.105469 656.816406 L 313.304688 655.457031 L 308.863281 654.582031 L 308.214844 655.078125 "/>
<path style="fill:none;stroke-width:0.75;stroke-linecap:round;stroke-linejoin:round;stroke:rgb(0%,0%,0%);stroke-opacity:1;stroke-miterlimit:10;" d="M 308.214844 655.078125 L 304.488281 660.355469 L 302.445312 665.015625 L 301.34375 668.609375 L 300.152344 671.191406 L 298.058594 672.976562 L 295.335938 674.296875 L 292.519531 675.503906 L 290.046875 677.078125 L 287.894531 679.949219 L 285.824219 684.476562 L 283.109375 688.261719 L 279.265625 689.085938 L 275.167969 688.164062 L 272.054688 687.578125 L 269.824219 688.910156 L 263.078125 691.691406 L 247.730469 695.15625 L 230.203125 699.285156 L 219.542969 704.261719 L 221.125 709.828125 L 225.558594 713.964844 L 223.03125 715.332031 L 216.726562 717.039062 L 211.851562 722.1875 L 208.742188 729.398438 L 206.523438 736.171875 L 204.429688 740.691406 L 202.171875 743.859375 L 199.511719 746.984375 L 195.894531 750.242188 L 190.703125 753.523438 L 183.945312 756.859375 L 178.152344 760.875 L 175.664062 766.046875 L 175.5625 771.710938 L 176.199219 777.042969 L 176.246094 781.707031 L 174.460938 785.476562 L 170.175781 788.523438 L 165.027344 792.597656 L 160.808594 799.199219 L 157.660156 807.21875 L 155.300781 814.902344 L 153.5 820.875 L 152.171875 825.242188 L 151.179688 828.652344 L 150 832.375 L 148.242188 837.382812 L 146.480469 842.882812 L 145.523438 847.632812 L 145.5 850.996094 L 143.835938 854.808594 L 138.335938 860.804688 L 131.054688 867.871094 L 125.109375 874.179688 L 123.160156 878.425781 L 125.992188 881.355469 L 132.769531 883.976562 L 138.050781 886.238281 L 136.949219 887.992188 L 131.488281 889.679688 L 125.414062 891.890625 L 121.863281 895.058594 L 121.5 898.957031 L 123.96875 903.1875 L 127.28125 907.300781 L 129.03125 910.847656 L 127.855469 913.789062 L 126.574219 917.828125 L 127.917969 924.425781 L 130.128906 932.359375 L 130.90625 939.957031 L 130.199219 946.414062 L 128.550781 951.136719 L 126.457031 953.964844 L 124.296875 956.5 L 122.488281 960.246094 L 121.734375 964.585938 L 122.808594 968.363281 L 125.855469 970.820312 L 128.5625 972.765625 L 128.824219 975.707031 L 127.90625 982.335938 L 127.523438 994.226562 L 127.847656 1007.328125 L 128.652344 1016.183594 L 129.859375 1017.1875 L 131.933594 1014.132812 L 135.203125 1012.054688 L 138.851562 1013.523438 L 141.785156 1020.492188 L 143.300781 1033.285156 L 144.261719 1045.6875 L 145.617188 1051.945312 L 147.125 1054.667969 L 148.378906 1057.738281 L 149.542969 1061.765625 L 150.917969 1066.546875 L 152.632812 1071.683594 L 154.078125 1076.007812 L 154.796875 1078.667969 L 155.613281 1080.871094 L 157.660156 1084.34375 L 161.597656 1090.101562 L 166.132812 1096.371094 L 170.027344 1101.417969 L 174.171875 1106.457031 L 179.480469 1112.910156 L 184.890625 1120.089844 L 188.828125 1126.777344 L 190.519531 1132.136719 L 192.367188 1136.832031 L 196.761719 1141.703125 L 202.914062 1146.785156 L 209.230469 1151.90625 L 214.5625 1156.808594 L 219.515625 1160.921875 L 224.945312 1163.945312 L 230.902344 1167.015625 L 237.3125 1171.226562 L 244.386719 1176.074219 L 252.394531 1180.652344 L 260.972656 1184.265625 L 267.171875 1187.058594 L 268.734375 1189.3125 L 268.734375 1191.0625 L 270.664062 1192.347656 L 274.324219 1193.503906 L 278.59375 1194.953125 L 282.609375 1196.851562 L 286.5 1198.292969 L 290.558594 1198.492188 L 294.703125 1198.136719 L 298.761719 1198.296875 L 302.8125 1199.570312 L 307.964844 1200.753906 L 314.902344 1200.507812 L 321.589844 1198.804688 L 326.074219 1196.003906 L 329.460938 1192.691406 L 333.605469 1189.503906 L 340.265625 1186.601562 L 350.714844 1182.234375 L 365.152344 1174.960938 L 379.859375 1166.425781 L 390.140625 1159.0625 L 393.3125 1154.570312 L 394.71875 1151.742188 L 400 1148.914062 L 407.921875 1145.5625 L 416.070312 1141.550781 L 424.109375 1137.246094 L 432.222656 1133.136719 L 440.21875 1129.535156 L 446.382812 1126.046875 L 449.1875 1122.261719 L 449.308594 1118.378906 L 447.976562 1114.765625 L 446.285156 1111.355469 L 444.769531 1106.414062 L 443.65625 1098.691406 L 442.476562 1090.621094 L 440.804688 1084.835938 L 439.109375 1081.132812 L 438.082031 1078.585938 L 438.242188 1076.328125 L 439.421875 1073.683594 L 441.332031 1070.207031 L 443.878906 1066.195312 L 447.015625 1062.117188 L 450.34375 1058.394531 L 452.070312 1055.234375 L 451.195312 1052.347656 L 451.269531 1047.585938 L 455.640625 1039.257812 L 462.300781 1029.273438 L 467.910156 1020.445312 L 470.140625 1014.679688 L 470.761719 1010.234375 L 471.753906 1005.140625 L 471.882812 1000.074219 L 469.101562 996.371094 L 462.867188 994.691406 L 458.613281 992.964844 L 460.910156 989.179688 L 464.964844 984.316406 L 465.253906 979.742188 L 462.804688 975.386719 L 460.28125 970.8125 L 459.734375 965.820312 L 460.769531 961.144531 L 462.40625 957.417969 L 463.738281 953.839844 L 463.882812 949.265625 L 462.554688 943.203125 L 461.867188 937.796875 L 463.59375 934.855469 L 465.804688 932.171875 L 466.320312 927.019531 L 465.714844 918.585938 L 465.234375 906.523438 L 465.730469 891.433594 L 466.433594 877.679688 L 466.335938 868.730469 L 465.101562 860.722656 L 462.558594 847.957031 L 458.882812 827.542969 L 455.601562 807.8125 L 453.832031 797.046875 L 451.746094 792.03125 L 447.519531 787.832031 L 442.363281 784.050781 L 438.230469 781.425781 L 436.441406 780.066406 L 435.742188 777.535156 L 434.566406 771.546875 L 432.632812 762.992188 L 430 753.546875 L 426.855469 744.769531 L 423.953125 737.726562 L 421.535156 732.832031 L 417.238281 728.351562 L 409.207031 722.625 L 400.246094 716.449219 L 394.324219 711.25 L 393.652344 707.644531 L 393.433594 703.085938 L 388.769531 695.308594 L 381.40625 686.359375 L 374.738281 679.367188 L 371.03125 676.457031 L 367.996094 675.742188 L 363.246094 674.804688 L 358.527344 673.109375 L 355.675781 670.652344 L 352.746094 667.683594 L 346.839844 664.507812 L 336.429688 661.433594 L 325.492188 658.789062 L 318.105469 656.816406 L 313.304688 655.457031 L 308.863281 654.582031 L 308.214844 655.078125 "/>
</g>
</svg>
