<?xml version="1.0" encoding="UTF-8"?>
<svg xmlns="http://www.w3.org/2000/svg" xmlns:xlink="http://www.w3.org/1999/xlink" width="1428pt" height="1605pt" viewBox="0 0 1428 1605" version="1.1">
<g id="surface109">
<rect x="0" y="0" width="1428" height="1605" style="fill:rgb(100%,100%,100%);fill-opacity:1;stroke:none;"/>
<path style="fill:none;stroke-width:0.75;stroke-linecap:round;stroke-linejoin:round;stroke:rgb(0%,0%,0%);stroke-opacity:1;stroke-miterlimit:10;" d="M 302.945312 647.644531 L 296.691406 653.492188 L 293.25 658.4375 L 291.265625 662.316406 L 289.832031 665.574219 L 288.144531 668.800781 L 285.488281 672.214844 L 281.457031 674.574219 L 276.050781 674.886719 L 270.554688 674.597656 L 266.570312 675.777344 L 264.953125 679.746094 L 263.59375 684.902344 L 260.335938 689.246094 L 255.886719 692.152344 L 251.640625 693.339844 L 248.394531 692.84375 L 244.480469 691.96875 L 237.621094 692.339844 L 226.882812 695.027344 L 216.730469 698.929688 L 211.660156 702.65625 L 210.90625 705.925781 L 212.386719 708.726562 L 214.089844 711.105469 L 214.320312 713.320312 L 212 715.695312 L 208.222656 718.519531 L 204.628906 722.074219 L 202.398438 726.472656 L 200.816406 731.078125 L 198.707031 735.082031 L 195.402344 737.976562 L 192.296875 740.480469 L 190.675781 743.40625 L 189.410156 746.714844 L 186.75 750.148438 L 181.617188 753.554688 L 175.636719 757.164062 L 170.714844 761.1875 L 167.289062 765.371094 L 165.410156 769.332031 L 165.054688 772.785156 L 165.800781 775.804688 L 167.148438 778.550781 L 168.480469 781.121094 L 168.730469 783.335938 L 167.039062 785.214844 L 163.800781 787.84375 L 159.738281 792.585938 L 155.582031 800.050781 L 152.128906 807.816406 L 149.929688 813.566406 L 148.496094 818.402344 L 147.082031 824.28125 L 145.246094 832.367188 L 143.773438 840.597656 L 143.273438 846.824219 L 142.378906 851.667969 L 139.238281 856.457031 L 132.800781 862.148438 L 125.25 868.210938 L 119.578125 873.734375 L 118.164062 878.046875 L 120.921875 881.355469 L 126.625 884.050781 L 131.925781 886.273438 L 132.945312 888.105469 L 127.589844 889.742188 L 120.941406 891.851562 L 118.390625 895 L 119.421875 898.914062 L 122.023438 903.113281 L 124.417969 907.222656 L 125.675781 911.257812 L 125.097656 915.34375 L 122.648438 919.449219 L 121.027344 922.933594 L 122.636719 925.308594 L 126.027344 927.355469 L 128.796875 930.171875 L 129.128906 934.484375 L 127.613281 939.523438 L 125.335938 944.414062 L 123.023438 949.285156 L 121.304688 954.527344 L 120.636719 960.394531 L 120.742188 966.578125 L 121.171875 972.632812 L 121.613281 978.074219 L 122.324219 982.257812 L 123.535156 984.917969 L 124.765625 987.421875 L 125.347656 991.542969 L 124.941406 998.3125 L 124.488281 1005.796875 L 125.015625 1011.675781 L 126.632812 1015.023438 L 129.222656 1015.273438 L 132.4375 1012.90625 L 135.023438 1012.605469 L 136.027344 1018.578125 L 136.519531 1028.847656 L 138.097656 1039.894531 L 141.78125 1048.808594 L 146.324219 1055.109375 L 149.902344 1058.925781 L 151.214844 1060.878906 L 151.023438 1063.546875 L 150.515625 1069.117188 L 150.609375 1076.203125 L 152.136719 1082.539062 L 155.417969 1086.589844 L 158.710938 1089.769531 L 160.429688 1093.75 L 161.695312 1098.300781 L 164.308594 1102.71875 L 169.359375 1106.472656 L 175.117188 1109.761719 L 179.15625 1112.960938 L 180.140625 1116.601562 L 181.125 1121.847656 L 185.183594 1129.484375 L 191.101562 1138.152344 L 196.585938 1145.957031 L 200.238281 1151.632812 L 204.21875 1156.449219 L 210.878906 1161.894531 L 219.78125 1167.851562 L 229.792969 1173.796875 L 239.75 1179.25 L 248.359375 1183.894531 L 254.292969 1187.453125 L 256.960938 1189.894531 L 258.710938 1192.1875 L 262.054688 1195.277344 L 267.195312 1199.140625 L 273.753906 1203.492188 L 281.222656 1207.796875 L 288.554688 1210.46875 L 294.851562 1210.296875 L 300.359375 1208.65625 L 305.609375 1207.542969 L 310.84375 1208.160156 L 315.167969 1208.453125 L 317.945312 1206.296875 L 320.707031 1202.445312 L 325.53125 1198.375 L 333.632812 1195.257812 L 342.761719 1192.976562 L 349.800781 1191.117188 L 352.800781 1189.253906 L 354.425781 1186.988281 L 357.742188 1184.027344 L 362.835938 1180.445312 L 369.035156 1176.414062 L 375.722656 1172.160156 L 382.496094 1168.105469 L 389.050781 1164.542969 L 395.300781 1161.03125 L 401.21875 1156.945312 L 406.84375 1151.902344 L 412.480469 1146.453125 L 418.5 1141.382812 L 425.226562 1137.21875 L 432.835938 1133.4375 L 441.101562 1129.410156 L 448.449219 1125.171875 L 452.949219 1120.917969 L 453.410156 1116.691406 L 451.550781 1111.96875 L 449.441406 1106.289062 L 447.652344 1099.992188 L 446.382812 1093.613281 L 445.796875 1087.621094 L 445.878906 1082.21875 L 446.574219 1077.519531 L 447.835938 1073.554688 L 449.628906 1069.960938 L 451.863281 1066.375 L 454.179688 1062.796875 L 456.15625 1059.320312 L 457.40625 1055.921875 L 457.691406 1052.101562 L 457.058594 1047.492188 L 456.574219 1042.734375 L 457.550781 1038.726562 L 460.714844 1035.9375 L 464.402344 1033.0625 L 466.875 1028.808594 L 468.496094 1023.566406 L 470.160156 1018.167969 L 472.398438 1013.273438 L 474.335938 1008.882812 L 474.75 1004.847656 L 472.90625 1001.070312 L 470.058594 997.734375 L 467.664062 994.875 L 465.921875 991.738281 L 464.75 987.375 L 464.136719 981.261719 L 464.433594 974.589844 L 465.835938 968.628906 L 467.546875 963.167969 L 468.519531 957.636719 L 468.007812 951.71875 L 466.46875 946.148438 L 464.65625 941.929688 L 463.316406 939.316406 L 463.125 935.632812 L 464.402344 928.363281 L 466.109375 918.570312 L 466.875 908.21875 L 465.917969 899.144531 L 464.882812 892.695312 L 465.472656 889.542969 L 467.296875 888.121094 L 469.4375 886.320312 L 471.046875 882.328125 L 471.621094 875.5625 L 470.722656 865.734375 L 468.179688 853.3125 L 464.851562 841.707031 L 461.785156 833.730469 L 459.734375 826.84375 L 459.375 817.15625 L 460.675781 802.621094 L 460.800781 788.496094 L 457.292969 780.226562 L 452.019531 776.652344 L 447.925781 774.953125 L 446.917969 772.847656 L 446.699219 770.171875 L 444.738281 767.195312 L 441.714844 763.71875 L 439.121094 759.4375 L 437.90625 754.15625 L 436.867188 748.136719 L 434.265625 741.753906 L 429.144531 735.378906 L 423.660156 729.34375 L 420.035156 724.007812 L 417.726562 719.777344 L 415.484375 717.089844 L 412.382812 715.851562 L 408.824219 713.882812 L 405.292969 709.160156 L 401.324219 702.347656 L 396.207031 694.777344 L 389.734375 687.609375 L 383.730469 681.261719 L 380.515625 675.976562 L 381.335938 671.867188 L 383.097656 668.523438 L 382.589844 665.554688 L 380.410156 663.199219 L 378.113281 661.832031 L 376.152344 661.617188 L 370.550781 661.84375 L 358.179688 661.648438 L 343.671875 660.449219 L 333.601562 657.714844 L 331.164062 653.3125 L 326.0625 648.632812 L 304.628906 645.457031 L 302.945312 647.644531 "/>
<path style="fill:none;stroke-width:0.75;stroke-linecap:round;stroke-linejoin:round;stroke:rgb(0%,0%,0%);stroke-opacity:1;stroke-miterlimit:10;" d="M 302.945312 647.644531 L 296.691406 653.492188 L 293.25 658.4375 L 291.265625 662.316406 L 289.832031 665.574219 L 288.144531 668.800781 L 285.488281 672.214844 L 281.457031 674.574219 L 276.050781 674.886719 L 270.554688 674.597656 L 266.570312 675.777344 L 264.953125 679.746094 L 263.59375 684.902344 L 260.335938 689.246094 L 255.886719 692.152344 L 251.640625 693.339844 L 248.394531 692.84375 L 244.480469 691.96875 L 237.621094 692.339844 L 226.882812 695.027344 L 216.730469 698.929688 L 211.660156 702.65625 L 210.90625 705.925781 L 212.386719 708.726562 L 214.089844 711.105469 L 214.320312 713.320312 L 212 715.695312 L 208.222656 718.519531 L 204.628906 722.074219 L 202.398438 726.472656 L 200.816406 731.078125 L 198.707031 735.082031 L 195.402344 737.976562 L 192.296875 740.480469 L 190.675781 743.40625 L 189.410156 746.714844 L 186.75 750.148438 L 181.617188 753.554688 L 175.636719 757.164062 L 170.714844 761.1875 L 167.289062 765.371094 L 165.410156 769.332031 L 165.054688 772.785156 L 165.800781 775.804688 L 167.148438 778.550781 L 168.480469 781.121094 L 168.730469 783.335938 L 167.039062 785.214844 L 163.800781 787.84375 L 159.738281 792.585938 L 155.582031 800.050781 L 152.128906 807.816406 L 149.929688 813.566406 L 148.496094 818.402344 L 147.082031 824.28125 L 145.246094 832.367188 L 143.773438 840.597656 L 143.273438 846.824219 L 142.378906 851.667969 L 139.238281 856.457031 L 132.800781 862.148438 L 125.25 868.210938 L 119.578125 873.734375 L 118.164062 878.046875 L 120.921875 881.355469 L 126.625 884.050781 L 131.925781 886.273438 L 132.945312 888.105469 L 127.589844 889.742188 L 120.941406 891.851562 L 118.390625 895 L 119.421875 898.914062 L 122.023438 903.113281 L 124.417969 907.222656 L 125.675781 911.257812 L 125.097656 915.34375 L 122.648438 919.449219 L 121.027344 922.933594 L 122.636719 925.308594 L 126.027344 927.355469 L 128.796875 930.171875 L 129.128906 934.484375 L 127.613281 939.523438 L 125.335938 944.414062 L 123.023438 949.285156 L 121.304688 954.527344 L 120.636719 960.394531 L 120.742188 966.578125 L 121.171875 972.632812 L 121.613281 978.074219 L 122.324219 982.257812 L 123.535156 984.917969 L 124.765625 987.421875 L 125.347656 991.542969 L 124.941406 998.3125 L 124.488281 1005.796875 L 125.015625 1011.675781 L 126.632812 1015.023438 L 129.222656 1015.273438 L 132.4375 1012.90625 L 135.023438 1012.605469 L 136.027344 1018.578125 L 136.519531 1028.847656 L 138.097656 1039.894531 L 141.78125 1048.808594 L 146.324219 1055.109375 L 149.902344 1058.925781 L 151.214844 1060.878906 L 151.023438 1063.546875 L 150.515625 1069.117188 L 150.609375 1076.203125 L 152.136719 1082.539062 L 155.417969 1086.589844 L 158.710938 1089.769531 L 160.429688 1093.75 L 161.695312 1098.300781 L 164.308594 1102.71875 L 169.359375 1106.472656 L 175.117188 1109.761719 L 179.15625 1112.960938 L 180.140625 1116.601562 L 181.125 1121.847656 L 185.183594 1129.484375 L 191.101562 1138.152344 L 196.585938 1145.957031 L 200.238281 1151.632812 L 204.21875 1156.449219 L 210.878906 1161.894531 L 219.78125 1167.851562 L 229.792969 1173.796875 L 239.75 1179.25 L 248.359375 1183.894531 L 254.292969 1187.453125 L 256.960938 1189.894531 L 258.710938 1192.1875 L 262.054688 1195.277344 L 267.195312 1199.140625 L 273.753906 1203.492188 L 281.222656 1207.796875 L 288.554688 1210.46875 L 294.851562 1210.296875 L 300.359375 1208.65625 L 305.609375 1207.542969 L 310.84375 1208.160156 L 315.167969 1208.453125 L 317.945312 1206.296875 L 320.707031 1202.445312 L 325.53125 1198.375 L 333.632812 1195.257812 L 342.761719 1192.976562 L 349.800781 1191.117188 L 352.800781 1189.253906 L 354.425781 1186.988281 L 357.742188 1184.027344 L 362.835938 1180.445312 L 369.035156 1176.414062 L 375.722656 1172.160156 L 382.496094 1168.105469 L 389.050781 1164.542969 L 395.300781 1161.03125 L 401.21875 1156.945312 L 406.84375 1151.902344 L 412.480469 1146.453125 L 418.5 1141.382812 L 425.226562 1137.21875 L 432.835938 1133.4375 L 441.101562 1129.410156 L 448.449219 1125.171875 L 452.949219 1120.917969 L 453.410156 1116.691406 L 451.550781 1111.96875 L 449.441406 1106.289062 L 447.652344 1099.992188 L 446.382812 1093.613281 L 445.796875 1087.621094 L 445.878906 1082.21875 L 446.574219 1077.519531 L 447.835938 1073.554688 L 449.628906 1069.960938 L 451.863281 1066.375 L 454.179688 1062.796875 L 456.15625 1059.320312 L 457.40625 1055.921875 L 457.691406 1052.101562 L 457.058594 1047.492188 L 456.574219 1042.734375 L 457.550781 1038.726562 L 460.714844 1035.9375 L 464.402344 1033.0625 L 466.875 1028.808594 L 468.496094 1023.566406 L 470.160156 1018.167969 L 472.398438 1013.273438 L 474.335938 1008.882812 L 474.75 1004.847656 L 472.90625 1001.070312 L 470.058594 997.734375 L 467.664062 994.875 L 465.921875 991.738281 L 464.75 987.375 L 464.136719 981.261719 L 464.433594 974.589844 L 465.835938 968.628906 L 467.546875 963.167969 L 468.519531 957.636719 L 468.007812 951.71875 L 466.46875 946.148438 L 464.65625 941.929688 L 463.316406 939.316406 L 463.125 935.632812 L 464.402344 928.363281 L 466.109375 918.570312 L 466.875 908.21875 L 465.917969 899.144531 L 464.882812 892.695312 L 465.472656 889.542969 L 467.296875 888.121094 L 469.4375 886.320312 L 471.046875 882.328125 L 471.621094 875.5625 L 470.722656 865.734375 L 468.179688 853.3125 L 464.851562 841.707031 L 461.785156 833.730469 L 459.734375 826.84375 L 459.375 817.15625 L 460.675781 802.621094 L 460.800781 788.496094 L 457.292969 780.226562 L 452.019531 776.652344 L 447.925781 774.953125 L 446.917969 772.847656 L 446.699219 770.171875 L 444.738281 767.195312 L 441.714844 763.71875 L 439.121094 759.4375 L 437.90625 754.15625 L 436.867188 748.136719 L 434.265625 741.753906 L 429.144531 735.378906 L 423.660156 729.34375 L 420.035156 724.007812 L 417.726562 719.777344 L 415.484375 717.089844 L 412.382812 715.851562 L 408.824219 713.882812 L 405.292969 709.160156 L 401.324219 702.347656 L 396.207031 694.777344 L 389.734375 687.609375 L 383.730469 681.261719 L 380.515625 675.976562 L 381.335938 671.867188 L 383.097656 668.523438 L 382.589844 665.554688 L 380.410156 663.199219 L 378.113281 661.832031 L 376.152344 661.617188 L 370.550781 661.84375 L 358.179688 661.648438 L 343.671875 660.449219 L 333.601562 657.714844 L 331.164062 653.3125 L 326.0625 648.632812 L 304.628906 645.457031 L 302.945312 647.644531 "/>
</g>
</svg>
