<?xml version="1.0" encoding="UTF-8"?>
<svg xmlns="http://www.w3.org/2000/svg" xmlns:xlink="http://www.w3.org/1999/xlink" width="1428pt" height="1605pt" viewBox="0 0 1428 1605" version="1.1">
<g id="surface114">
<rect x="0" y="0" width="1428" height="1605" style="fill:rgb(100%,100%,100%);fill-opacity:1;stroke:none;"/>
<path style="fill:none;stroke-width:0.75;stroke-linecap:round;stroke-linejoin:round;stroke:rgb(0%,0%,0%);stroke-opacity:1;stroke-miterlimit:10;" d="M 329.351562 628.5625 L 327.078125 632.8125 L 324.855469 636.148438 L 317.328125 638.253906 L 307.640625 639.625 L 300.097656 640.851562 L 295.144531 642.078125 L 292.253906 643.339844 L 290.503906 644.699219 L 287.355469 646.402344 L 280.921875 648.710938 L 273.535156 651.800781 L 268.589844 655.84375 L 267.847656 660.921875 L 266.574219 666.785156 L 259.851562 673.101562 L 248.59375 679.433594 L 235.160156 685.34375 L 221.878906 690.523438 L 210.949219 695.261719 L 203.886719 700.035156 L 199.640625 705.535156 L 196.511719 712.503906 L 193.089844 721.210938 L 189.0625 730.023438 L 184.4375 737.304688 L 179.332031 743.269531 L 173.882812 748.601562 L 168.339844 753.761719 L 163.332031 758.359375 L 159.535156 762.039062 L 157.472656 765.488281 L 157.625 769.660156 L 159.933594 774.988281 L 162.230469 779.890625 L 162.351562 782.902344 L 160.320312 785.066406 L 156.699219 788.050781 L 152.144531 793.089844 L 147.667969 799.648438 L 144.160156 806.871094 L 141.683594 814.351562 L 140.097656 821.796875 L 139.078125 829.089844 L 137.628906 836.804688 L 134.910156 845.3125 L 131.488281 853.523438 L 128.261719 859.960938 L 125.683594 863.808594 L 122.390625 866.832031 L 117.503906 870.828125 L 113.886719 875.070312 L 114.375 878.515625 L 117.984375 881.285156 L 122.773438 883.808594 L 126.617188 886.328125 L 126.652344 888.363281 L 121.207031 889.613281 L 114.023438 891.238281 L 110.214844 894.75 L 112.972656 900.988281 L 117.839844 908.035156 L 119.863281 913.882812 L 119.78125 918.832031 L 119.761719 923.773438 L 121.246094 929.304688 L 122.757812 934.886719 L 122.578125 939.917969 L 120.90625 944.726562 L 118.40625 949.878906 L 115.835938 955.757812 L 114.304688 962.027344 L 114.613281 968.164062 L 115.992188 973.621094 L 117.285156 977.832031 L 117.667969 980.707031 L 117.667969 983.980469 L 118.078125 989.285156 L 119.429688 995.941406 L 122.191406 1002.699219 L 126.304688 1008.398438 L 129.617188 1012.257812 L 130.390625 1014.417969 L 130.664062 1018.320312 L 133.429688 1028.25 L 140.1875 1046.027344 L 146.519531 1063.683594 L 148.085938 1073.289062 L 146.808594 1076.917969 L 146.175781 1079.136719 L 148.726562 1083.523438 L 153.234375 1089.660156 L 157.882812 1096.242188 L 162.273438 1102.398438 L 166.363281 1107.367188 L 170.0625 1110.710938 L 173.121094 1113.296875 L 175.335938 1116.082031 L 176.859375 1119.082031 L 177.929688 1122.085938 L 178.835938 1125.023438 L 180.085938 1128.441406 L 182.242188 1132.996094 L 185.886719 1139.09375 L 191.332031 1146.757812 L 197.738281 1154.605469 L 203.988281 1160.910156 L 209.167969 1164.664062 L 213.230469 1167.71875 L 216.503906 1172.003906 L 219.953125 1176.960938 L 224.691406 1181.394531 L 231.121094 1184.476562 L 236.78125 1186.835938 L 239.359375 1189.25 L 240.046875 1191.597656 L 240.898438 1193.535156 L 243.53125 1194.933594 L 247.742188 1196.519531 L 252.992188 1199.046875 L 259.199219 1202.582031 L 266.386719 1207.015625 L 274.28125 1211.902344 L 281.417969 1215.472656 L 286.550781 1216.308594 L 290.613281 1215.710938 L 295.058594 1215.667969 L 301.074219 1217.328125 L 308.707031 1218.558594 L 317.457031 1217.125 L 325.738281 1213.707031 L 331.695312 1209.730469 L 334.507812 1206.40625 L 337.570312 1204.152344 L 343.8125 1202.980469 L 350.15625 1202.117188 L 352.019531 1200.605469 L 347.136719 1197.761719 L 342.464844 1194.089844 L 345.039062 1190.34375 L 352.925781 1187.144531 L 361.957031 1185.082031 L 368.800781 1184.347656 L 373.464844 1183.570312 L 376.96875 1181.351562 L 380.988281 1177.789062 L 387.363281 1173.363281 L 396.777344 1168.578125 L 405.253906 1164.074219 L 409.183594 1160.367188 L 411.097656 1157.3125 L 414.203125 1154.613281 L 418.234375 1151.929688 L 422.050781 1148.917969 L 425.195312 1145.292969 L 429.898438 1141.007812 L 438.023438 1136.109375 L 447.324219 1130.746094 L 454.511719 1125.085938 L 457.203125 1119.410156 L 456.644531 1114.382812 L 454.710938 1110.527344 L 452.175781 1107.351562 L 449.546875 1104.117188 L 447.339844 1100.429688 L 446.09375 1097.296875 L 446.179688 1095.507812 L 447.265625 1093.585938 L 448.820312 1089.484375 L 450.46875 1082.074219 L 452.386719 1073.855469 L 454.742188 1067.527344 L 457.046875 1062.964844 L 458.644531 1059.339844 L 459.347656 1055.480469 L 460.789062 1048.816406 L 464.460938 1037.503906 L 469.4375 1023.96875 L 474.1875 1011.707031 L 477.261719 1003.421875 L 477.546875 998.644531 L 474.605469 996.128906 L 470.367188 994.667969 L 467.359375 993.054688 L 467.34375 990.46875 L 469.027344 987.574219 L 470.613281 985.144531 L 471.339844 982.820312 L 470.699219 979.972656 L 468.699219 976.210938 L 467.355469 972.113281 L 468.488281 968.207031 L 471.089844 963.855469 L 473.445312 958.117188 L 474.289062 949.746094 L 474.132812 936.253906 L 473.792969 916.34375 L 473.457031 894.757812 L 473.152344 877.757812 L 472.992188 869.25 L 473.359375 863.789062 L 474.375 855.558594 L 474.789062 846.589844 L 473.453125 840.011719 L 470.972656 835.5 L 468.382812 831.859375 L 466.46875 828.140625 L 464.9375 824.355469 L 463.429688 820.644531 L 462.332031 816.742188 L 462.238281 812.269531 L 463.449219 807.042969 L 465.203125 801.640625 L 466.546875 796.570312 L 466.871094 791.289062 L 465.667969 784.996094 L 462.707031 777.40625 L 458.886719 770.339844 L 455.15625 765.441406 L 451.480469 761.53125 L 447.578125 756.722656 L 443.402344 749.957031 L 439.839844 743.445312 L 437.609375 739.445312 L 435.847656 737.089844 L 433.292969 734.746094 L 429.246094 731.21875 L 425.257812 727.082031 L 422.941406 723.109375 L 421.863281 719.058594 L 421.085938 714.441406 L 419.761719 709.066406 L 417.441406 703.964844 L 414.042969 700.09375 L 410.566406 696.878906 L 408.292969 693.359375 L 407.773438 688.828125 L 406.664062 683.585938 L 402.921875 678.136719 L 398.523438 672.894531 L 396.464844 668.238281 L 397.667969 664.351562 L 394.75 660.585938 L 381.257812 656.308594 L 362.746094 651.757812 L 347.765625 647.390625 L 342.234375 643.441406 L 341.53125 639.277344 L 339.679688 634.414062 L 335.824219 629.816406 L 330.398438 626.835938 L 329.351562 628.5625 "/>
<path style="fill:none;stroke-width:0.75;stroke-linecap:round;stroke-linejoin:round;stroke:rgb(0%,0%,0%);stroke-opacity:1;stroke-miterlimit:10;" d="M 329.351562 628.5625 L 327.078125 632.8125 L 324.855469 636.148438 L 317.328125 638.253906 L 307.640625 639.625 L 300.097656 640.851562 L 295.144531 642.078125 L 292.253906 643.339844 L 290.503906 644.699219 L 287.355469 646.402344 L 280.921875 648.710938 L 273.535156 651.800781 L 268.589844 655.84375 L 267.847656 660.921875 L 266.574219 666.785156 L 259.851562 673.101562 L 248.59375 679.433594 L 235.160156 685.34375 L 221.878906 690.523438 L 210.949219 695.261719 L 203.886719 700.035156 L 199.640625 705.535156 L 196.511719 712.503906 L 193.089844 721.210938 L 189.0625 730.023438 L 184.4375 737.304688 L 179.332031 743.269531 L 173.882812 748.601562 L 168.339844 753.761719 L 163.332031 758.359375 L 159.535156 762.039062 L 157.472656 765.488281 L 157.625 769.660156 L 159.933594 774.988281 L 162.230469 779.890625 L 162.351562 782.902344 L 160.320312 785.066406 L 156.699219 788.050781 L 152.144531 793.089844 L 147.667969 799.648438 L 144.160156 806.871094 L 141.683594 814.351562 L 140.097656 821.796875 L 139.078125 829.089844 L 137.628906 836.804688 L 134.910156 845.3125 L 131.488281 853.523438 L 128.261719 859.960938 L 125.683594 863.808594 L 122.390625 866.832031 L 117.503906 870.828125 L 113.886719 875.070312 L 114.375 878.515625 L 117.984375 881.285156 L 122.773438 883.808594 L 126.617188 886.328125 L 126.652344 888.363281 L 121.207031 889.613281 L 114.023438 891.238281 L 110.214844 894.75 L 112.972656 900.988281 L 117.839844 908.035156 L 119.863281 913.882812 L 119.78125 918.832031 L 119.761719 923.773438 L 121.246094 929.304688 L 122.757812 934.886719 L 122.578125 939.917969 L 120.90625 944.726562 L 118.40625 949.878906 L 115.835938 955.757812 L 114.304688 962.027344 L 114.613281 968.164062 L 115.992188 973.621094 L 117.285156 977.832031 L 117.667969 980.707031 L 117.667969 983.980469 L 118.078125 989.285156 L 119.429688 995.941406 L 122.191406 1002.699219 L 126.304688 1008.398438 L 129.617188 1012.257812 L 130.390625 1014.417969 L 130.664062 1018.320312 L 133.429688 1028.25 L 140.1875 1046.027344 L 146.519531 1063.683594 L 148.085938 1073.289062 L 146.808594 1076.917969 L 146.175781 1079.136719 L 148.726562 1083.523438 L 153.234375 1089.660156 L 157.882812 1096.242188 L 162.273438 1102.398438 L 166.363281 1107.367188 L 170.0625 1110.710938 L 173.121094 1113.296875 L 175.335938 1116.082031 L 176.859375 1119.082031 L 177.929688 1122.085938 L 178.835938 1125.023438 L 180.085938 1128.441406 L 182.242188 1132.996094 L 185.886719 1139.09375 L 191.332031 1146.757812 L 197.738281 1154.605469 L 203.988281 1160.910156 L 209.167969 1164.664062 L 213.230469 1167.71875 L 216.503906 1172.003906 L 219.953125 1176.960938 L 224.691406 1181.394531 L 231.121094 1184.476562 L 236.78125 1186.835938 L 239.359375 1189.25 L 240.046875 1191.597656 L 240.898438 1193.535156 L 243.53125 1194.933594 L 247.742188 1196.519531 L 252.992188 1199.046875 L 259.199219 1202.582031 L 266.386719 1207.015625 L 274.28125 1211.902344 L 281.417969 1215.472656 L 286.550781 1216.308594 L 290.613281 1215.710938 L 295.058594 1215.667969 L 301.074219 1217.328125 L 308.707031 1218.558594 L 317.457031 1217.125 L 325.738281 1213.707031 L 331.695312 1209.730469 L 334.507812 1206.40625 L 337.570312 1204.152344 L 343.8125 1202.980469 L 350.15625 1202.117188 L 352.019531 1200.605469 L 347.136719 1197.761719 L 342.464844 1194.089844 L 345.039062 1190.34375 L 352.925781 1187.144531 L 361.957031 1185.082031 L 368.800781 1184.347656 L 373.464844 1183.570312 L 376.96875 1181.351562 L 380.988281 1177.789062 L 387.363281 1173.363281 L 396.777344 1168.578125 L 405.253906 1164.074219 L 409.183594 1160.367188 L 411.097656 1157.3125 L 414.203125 1154.613281 L 418.234375 1151.929688 L 422.050781 1148.917969 L 425.195312 1145.292969 L 429.898438 1141.007812 L 438.023438 1136.109375 L 447.324219 1130.746094 L 454.511719 1125.085938 L 457.203125 1119.410156 L 456.644531 1114.382812 L 454.710938 1110.527344 L 452.175781 1107.351562 L 449.546875 1104.117188 L 447.339844 1100.429688 L 446.09375 1097.296875 L 446.179688 1095.507812 L 447.265625 1093.585938 L 448.820312 1089.484375 L 450.46875 1082.074219 L 452.386719 1073.855469 L 454.742188 1067.527344 L 457.046875 1062.964844 L 458.644531 1059.339844 L 459.347656 1055.480469 L 460.789062 1048.816406 L 464.460938 1037.503906 L 469.4375 1023.96875 L 474.1875 1011.707031 L 477.261719 1003.421875 L 477.546875 998.644531 L 474.605469 996.128906 L 470.367188 994.667969 L 467.359375 993.054688 L 467.34375 990.46875 L 469.027344 987.574219 L 470.613281 985.144531 L 471.339844 982.820312 L 470.699219 979.972656 L 468.699219 976.210938 L 467.355469 972.113281 L 468.488281 968.207031 L 471.089844 963.855469 L 473.445312 958.117188 L 474.289062 949.746094 L 474.132812 936.253906 L 473.792969 916.34375 L 473.457031 894.757812 L 473.152344 877.757812 L 472.992188 869.25 L 473.359375 863.789062 L 474.375 855.558594 L 474.789062 846.589844 L 473.453125 840.011719 L 470.972656 835.5 L 468.382812 831.859375 L 466.46875 828.140625 L 464.9375 824.355469 L 463.429688 820.644531 L 462.332031 816.742188 L 462.238281 812.269531 L 463.449219 807.042969 L 465.203125 801.640625 L 466.546875 796.570312 L 466.871094 791.289062 L 465.667969 784.996094 L 462.707031 777.40625 L 458.886719 770.339844 L 455.15625 765.441406 L 451.480469 761.53125 L 447.578125 756.722656 L 443.402344 749.957031 L 439.839844 743.445312 L 437.609375 739.445312 L 435.847656 737.089844 L 433.292969 734.746094 L 429.246094 731.21875 L 425.257812 727.082031 L 422.941406 723.109375 L 421.863281 719.058594 L 421.085938 714.441406 L 419.761719 709.066406 L 417.441406 703.964844 L 414.042969 700.09375 L 410.566406 696.878906 L 408.292969 693.359375 L 407.773438 688.828125 L 406.664062 683.585938 L 402.921875 678.136719 L 398.523438 672.894531 L 396.464844 668.238281 L 397.667969 664.351562 L 394.75 660.585938 L 381.257812 656.308594 L 362.746094 651.757812 L 347.765625 647.390625 L 342.234375 643.441406 L 341.53125 639.277344 L 339.679688 634.414062 L 335.824219 629.816406 L 330.398438 626.835938 L 329.351562 628.5625 "/>
</g>
</svg>
