<?xml version="1.0" encoding="UTF-8"?>
<svg xmlns="http://www.w3.org/2000/svg" xmlns:xlink="http://www.w3.org/1999/xlink" width="1428pt" height="1605pt" viewBox="0 0 1428 1605" version="1.1">
<g id="surface119">
<rect x="0" y="0" width="1428" height="1605" style="fill:rgb(100%,100%,100%);fill-opacity:1;stroke:none;"/>
<path style="fill:none;stroke-width:0.75;stroke-linecap:round;stroke-linejoin:round;stroke:rgb(0%,0%,0%);stroke-opacity:1;stroke-miterlimit:10;" d="M 294.617188 628.789062 L 291.4375 632.445312 L 289.507812 635.648438 L 287.523438 638.421875 L 283.34375 641.167969 L 275.398438 644.355469 L 265.390625 648.320312 L 255.824219 653.375 L 248.574219 659.480469 L 242.984375 665.234375 L 238.066406 669.351562 L 234.101562 672.464844 L 231.675781 675.675781 L 230.660156 679.757812 L 228.019531 684.164062 L 221.09375 688.207031 L 211.597656 691.976562 L 202.339844 695.746094 L 195.601562 699.761719 L 191.480469 704.199219 L 189.449219 709.089844 L 188.542969 714.011719 L 187.730469 718.636719 L 186.117188 723.425781 L 182.84375 729.027344 L 177.476562 735.765625 L 171.335938 742.558594 L 165.847656 748.300781 L 161.101562 753.152344 L 156.863281 757.570312 L 153.121094 761.949219 L 150.71875 766.402344 L 150.382812 770.90625 L 151.496094 775.238281 L 153.109375 779.117188 L 154.234375 782.414062 L 153.703125 785.539062 L 150.777344 789.050781 L 146.507812 793.449219 L 142.226562 798.996094 L 138.601562 805.097656 L 136.132812 810.925781 L 135.136719 815.828125 L 135.1875 819.855469 L 135.683594 823.226562 L 136.007812 826.242188 L 135.5625 829.207031 L 133.988281 832.578125 L 131.953125 837.367188 L 130.128906 844.242188 L 128.230469 851.910156 L 125.722656 858.585938 L 122.253906 863.0625 L 118.175781 866.515625 L 114.171875 870.320312 L 111.519531 874.359375 L 111.648438 878.140625 L 115.269531 881.28125 L 120.246094 883.882812 L 123.824219 886.109375 L 123.621094 887.941406 L 118.464844 889.488281 L 111.675781 891.613281 L 107.695312 895.359375 L 109.429688 901.648438 L 113.605469 910.929688 L 116.265625 923.144531 L 116.902344 936.675781 L 115.859375 949.511719 L 113.734375 959.984375 L 112.105469 967.730469 L 112.304688 973.0625 L 113.699219 977.667969 L 115.148438 983.582031 L 115.8125 991.945312 L 115.996094 1000.339844 L 116.367188 1006.34375 L 117.851562 1011.011719 L 121.039062 1016.078125 L 124.929688 1022.539062 L 128.121094 1031.203125 L 129.78125 1042.015625 L 131.347656 1051.546875 L 134.210938 1056.644531 L 137.3125 1058.703125 L 138.976562 1060.257812 L 138.308594 1063.382812 L 137.550781 1068.347656 L 139.082031 1074.84375 L 142.675781 1082.160156 L 147.46875 1089.472656 L 152.683594 1096.066406 L 157.925781 1101.617188 L 162.890625 1106.050781 L 167.207031 1109.777344 L 170.5625 1113.316406 L 172.851562 1117.089844 L 174.027344 1121.503906 L 174.480469 1126.828125 L 176.292969 1132.828125 L 181.105469 1139.097656 L 187.042969 1145.117188 L 191.351562 1150.320312 L 192.601562 1154.5625 L 194.660156 1159.386719 L 201.246094 1166.148438 L 210.144531 1173.773438 L 217.660156 1180.59375 L 221.6875 1185.671875 L 226.4375 1191.039062 L 236.175781 1198.609375 L 249.039062 1206.871094 L 261.625 1213.441406 L 271.191406 1216.59375 L 277.632812 1217.144531 L 281.671875 1216.554688 L 284.683594 1216.214844 L 287.921875 1217.125 L 291.527344 1218.726562 L 295.347656 1220.074219 L 299.347656 1220.480469 L 303.953125 1220.363281 L 309.886719 1220.074219 L 318.617188 1218.699219 L 331.789062 1215 L 349.320312 1208.421875 L 364.207031 1201.164062 L 370.101562 1195.539062 L 370.261719 1191.582031 L 370.34375 1188.757812 L 374.527344 1186.480469 L 381.101562 1183.925781 L 387.445312 1180.453125 L 393.261719 1176.390625 L 398.824219 1172.226562 L 404.367188 1168.144531 L 410.117188 1164.246094 L 415.953125 1160.632812 L 420.355469 1157.402344 L 422.246094 1154.578125 L 423.738281 1151.902344 L 427.734375 1149.054688 L 435.828125 1145.753906 L 444.355469 1141.882812 L 449.566406 1137.488281 L 452.585938 1133.066406 L 455.757812 1129.234375 L 460.363281 1126.226562 L 463.472656 1122.777344 L 462.210938 1117.644531 L 458.171875 1111.214844 L 454.074219 1104.292969 L 452.105469 1097.710938 L 452.34375 1092.460938 L 454.054688 1089.171875 L 455.308594 1086.890625 L 454.527344 1084.429688 L 452.710938 1081.277344 L 451.5 1077.09375 L 452.167969 1071.835938 L 454.503906 1066.578125 L 457.816406 1062.347656 L 460.953125 1058.765625 L 462.652344 1055.101562 L 462.304688 1050.734375 L 461.898438 1045.488281 L 463.480469 1039.449219 L 466.761719 1033.296875 L 470.855469 1027.863281 L 474.949219 1023.652344 L 478.542969 1019.894531 L 481.175781 1015.671875 L 482.316406 1010.8125 L 481.652344 1005.402344 L 479.878906 999.914062 L 477.9375 994.894531 L 476.6875 990.777344 L 476.664062 987.507812 L 477.96875 984.863281 L 479.308594 982.453125 L 479.03125 979.855469 L 476.300781 976.542969 L 473.507812 971.617188 L 473.089844 964.394531 L 474.382812 955.507812 L 475.976562 945.925781 L 476.75 936.015625 L 476.851562 923.796875 L 476.679688 907.90625 L 476.433594 891.808594 L 476.246094 879.203125 L 476.203125 869.855469 L 476.375 862.546875 L 476.746094 856.15625 L 476.960938 849.910156 L 476.671875 843.332031 L 475.886719 836.839844 L 474.714844 831.074219 L 473.28125 825.988281 L 471.761719 818.800781 L 470.3125 807.234375 L 468.984375 793.71875 L 467.792969 781.855469 L 466.65625 774.261719 L 465.167969 769.636719 L 462.976562 765.984375 L 460.332031 762.496094 L 457.632812 758.652344 L 455.199219 754.183594 L 453.039062 749.816406 L 451.15625 746.285156 L 449.875 743.382812 L 449.351562 740.703125 L 448.664062 738.015625 L 446.632812 735.121094 L 442.5 731.8125 L 437.1875 727.828125 L 431.953125 723.011719 L 427.65625 717.6875 L 425.058594 712.28125 L 424.445312 707.214844 L 424.140625 702.792969 L 422.441406 699.15625 L 419.523438 695.808594 L 416.019531 692.101562 L 412.457031 687.425781 L 408.925781 681.324219 L 405.433594 673.769531 L 402.144531 666.277344 L 399.136719 660.410156 L 396.089844 656.363281 L 392.570312 653.984375 L 388.246094 652.953125 L 383.15625 652.199219 L 377.425781 650.722656 L 371.082031 648.421875 L 364.136719 645.4375 L 356.898438 641.949219 L 350.847656 638.300781 L 347.058594 634.875 L 343.761719 632.054688 L 338.480469 630.21875 L 329.855469 629.550781 L 320.996094 629.457031 L 314.71875 629.269531 L 308.191406 628.832031 L 297.171875 628.125 L 294.617188 628.789062 "/>
<path style="fill:none;stroke-width:0.75;stroke-linecap:round;stroke-linejoin:round;stroke:rgb(0%,0%,0%);stroke-opacity:1;stroke-miterlimit:10;" d="M 294.617188 628.789062 L 291.4375 632.445312 L 289.507812 635.648438 L 287.523438 638.421875 L 283.34375 641.167969 L 275.398438 644.355469 L 265.390625 648.320312 L 255.824219 653.375 L 248.574219 659.480469 L 242.984375 665.234375 L 238.066406 669.351562 L 234.101562 672.464844 L 231.675781 675.675781 L 230.660156 679.757812 L 228.019531 684.164062 L 221.09375 688.207031 L 211.597656 691.976562 L 202.339844 695.746094 L 195.601562 699.761719 L 191.480469 704.199219 L 189.449219 709.089844 L 188.542969 714.011719 L 187.730469 718.636719 L 186.117188 723.425781 L 182.84375 729.027344 L 177.476562 735.765625 L 171.335938 742.558594 L 165.847656 748.300781 L 161.101562 753.152344 L 156.863281 757.570312 L 153.121094 761.949219 L 150.71875 766.402344 L 150.382812 770.90625 L 151.496094 775.238281 L 153.109375 779.117188 L 154.234375 782.414062 L 153.703125 785.539062 L 150.777344 789.050781 L 146.507812 793.449219 L 142.226562 798.996094 L 138.601562 805.097656 L 136.132812 810.925781 L 135.136719 815.828125 L 135.1875 819.855469 L 135.683594 823.226562 L 136.007812 826.242188 L 135.5625 829.207031 L 133.988281 832.578125 L 131.953125 837.367188 L 130.128906 844.242188 L 128.230469 851.910156 L 125.722656 858.585938 L 122.253906 863.0625 L 118.175781 866.515625 L 114.171875 870.320312 L 111.519531 874.359375 L 111.648438 878.140625 L 115.269531 881.28125 L 120.246094 883.882812 L 123.824219 886.109375 L 123.621094 887.941406 L 118.464844 889.488281 L 111.675781 891.613281 L 107.695312 895.359375 L 109.429688 901.648438 L 113.605469 910.929688 L 116.265625 923.144531 L 116.902344 936.675781 L 115.859375 949.511719 L 113.734375 959.984375 L 112.105469 967.730469 L 112.304688 973.0625 L 113.699219 977.667969 L 115.148438 983.582031 L 115.8125 991.945312 L 115.996094 1000.339844 L 116.367188 1006.34375 L 117.851562 1011.011719 L 121.039062 1016.078125 L 124.929688 1022.539062 L 128.121094 1031.203125 L 129.78125 1042.015625 L 131.347656 1051.546875 L 134.210938 1056.644531 L 137.3125 1058.703125 L 138.976562 1060.257812 L 138.308594 1063.382812 L 137.550781 1068.347656 L 139.082031 1074.84375 L 142.675781 1082.160156 L 147.46875 1089.472656 L 152.683594 1096.066406 L 157.925781 1101.617188 L 162.890625 1106.050781 L 167.207031 1109.777344 L 170.5625 1113.316406 L 172.851562 1117.089844 L 174.027344 1121.503906 L 174.480469 1126.828125 L 176.292969 1132.828125 L 181.105469 1139.097656 L 187.042969 1145.117188 L 191.351562 1150.320312 L 192.601562 1154.5625 L 194.660156 1159.386719 L 201.246094 1166.148438 L 210.144531 1173.773438 L 217.660156 1180.59375 L 221.6875 1185.671875 L 226.4375 1191.039062 L 236.175781 1198.609375 L 249.039062 1206.871094 L 261.625 1213.441406 L 271.191406 1216.59375 L 277.632812 1217.144531 L 281.671875 1216.554688 L 284.683594 1216.214844 L 287.921875 1217.125 L 291.527344 1218.726562 L 295.347656 1220.074219 L 299.347656 1220.480469 L 303.953125 1220.363281 L 309.886719 1220.074219 L 318.617188 1218.699219 L 331.789062 1215 L 349.320312 1208.421875 L 364.207031 1201.164062 L 370.101562 1195.539062 L 370.261719 1191.582031 L 370.34375 1188.757812 L 374.527344 1186.480469 L 381.101562 1183.925781 L 387.445312 1180.453125 L 393.261719 1176.390625 L 398.824219 1172.226562 L 404.367188 1168.144531 L 410.117188 1164.246094 L 415.953125 1160.632812 L 420.355469 1157.402344 L 422.246094 1154.578125 L 423.738281 1151.902344 L 427.734375 1149.054688 L 435.828125 1145.753906 L 444.355469 1141.882812 L 449.566406 1137.488281 L 452.585938 1133.066406 L 455.757812 1129.234375 L 460.363281 1126.226562 L 463.472656 1122.777344 L 462.210938 1117.644531 L 458.171875 1111.214844 L 454.074219 1104.292969 L 452.105469 1097.710938 L 452.34375 1092.460938 L 454.054688 1089.171875 L 455.308594 1086.890625 L 454.527344 1084.429688 L 452.710938 1081.277344 L 451.5 1077.09375 L 452.167969 1071.835938 L 454.503906 1066.578125 L 457.816406 1062.347656 L 460.953125 1058.765625 L 462.652344 1055.101562 L 462.304688 1050.734375 L 461.898438 1045.488281 L 463.480469 1039.449219 L 466.761719 1033.296875 L 470.855469 1027.863281 L 474.949219 1023.652344 L 478.542969 1019.894531 L 481.175781 1015.671875 L 482.316406 1010.8125 L 481.652344 1005.402344 L 479.878906 999.914062 L 477.9375 994.894531 L 476.6875 990.777344 L 476.664062 987.507812 L 477.96875 984.863281 L 479.308594 982.453125 L 479.03125 979.855469 L 476.300781 976.542969 L 473.507812 971.617188 L 473.089844 964.394531 L 474.382812 955.507812 L 475.976562 945.925781 L 476.75 936.015625 L 476.851562 923.796875 L 476.679688 907.90625 L 476.433594 891.808594 L 476.246094 879.203125 L 476.203125 869.855469 L 476.375 862.546875 L 476.746094 856.15625 L 476.960938 849.910156 L 476.671875 843.332031 L 475.886719 836.839844 L 474.714844 831.074219 L 473.28125 825.988281 L 471.761719 818.800781 L 470.3125 807.234375 L 468.984375 793.71875 L 467.792969 781.855469 L 466.65625 774.261719 L 465.167969 769.636719 L 462.976562 765.984375 L 460.332031 762.496094 L 457.632812 758.652344 L 455.199219 754.183594 L 453.039062 749.816406 L 451.15625 746.285156 L 449.875 743.382812 L 449.351562 740.703125 L 448.664062 738.015625 L 446.632812 735.121094 L 442.5 731.8125 L 437.1875 727.828125 L 431.953125 723.011719 L 427.65625 717.6875 L 425.058594 712.28125 L 424.445312 707.214844 L 424.140625 702.792969 L 422.441406 699.15625 L 419.523438 695.808594 L 416.019531 692.101562 L 412.457031 687.425781 L 408.925781 681.324219 L 405.433594 673.769531 L 402.144531 666.277344 L 399.136719 660.410156 L 396.089844 656.363281 L 392.570312 653.984375 L 388.246094 652.953125 L 383.15625 652.199219 L 377.425781 650.722656 L 371.082031 648.421875 L 364.136719 645.4375 L 356.898438 641.949219 L 350.847656 638.300781 L 347.058594 634.875 L 343.761719 632.054688 L 338.480469 630.21875 L 329.855469 629.550781 L 320.996094 629.457031 L 314.71875 629.269531 L 308.191406 628.832031 L 297.171875 628.125 L 294.617188 628.789062 "/>
<path style="fill:none;stroke-width:0.75;stroke-linecap:round;stroke-linejoin:round;stroke:rgb(0%,0%,0%);stroke-opacity:1;stroke-miterlimit:10;" d="M 765.058594 848.441406 L 761.621094 850.097656 L 758.242188 851.550781 L 754.691406 852.78125 L 750.5625 853.984375 L 745.40625 855.386719 L 739.25 857.15625 L 734.007812 859.164062 L 732.058594 861.210938 L 734.820312 863.15625 L 739.839844 865.09375 L 743.695312 867.167969 L 743.882812 869.457031 L 741.546875 871.703125 L 738.738281 873.570312 L 736.882812 874.832031 L 734.835938 875.660156 L 730.820312 876.34375 L 724.402344 877.074219 L 720.523438 877.699219 L 723.625 878.101562 L 730.691406 878.664062 L 736.847656 879.890625 L 738.316406 882.160156 L 735.703125 885.394531 L 730.703125 889.394531 L 724.785156 893.90625 L 718.515625 898.429688 L 712.230469 902.40625 L 706.324219 905.429688 L 701.390625 907.691406 L 698.09375 909.535156 L 696.609375 911.25 L 695.191406 912.972656 L 691.617188 914.777344 L 684.625 916.734375 L 676.769531 918.804688 L 671.5625 920.933594 L 671.441406 923.050781 L 674.5 925.0625 L 678.082031 926.898438 L 680.824219 928.671875 L 681.675781 930.546875 L 680.015625 932.746094 L 676.910156 935.777344 L 673.847656 940.214844 L 672.050781 946.296875 L 671.730469 952.929688 L 672.832031 958.679688 L 674.945312 962.585938 L 676.210938 965.542969 L 674.410156 968.914062 L 668.421875 973.65625 L 661.558594 979.09375 L 658.21875 984.152344 L 660.859375 987.996094 L 664.128906 990.785156 L 662.511719 992.925781 L 657.625 994.824219 L 652.886719 996.890625 L 650.917969 999.402344 L 651.183594 1002.085938 L 652.367188 1004.554688 L 653.296875 1006.550781 L 653.429688 1008.402344 L 652.375 1010.578125 L 650.027344 1013.519531 L 647.410156 1017.542969 L 645.84375 1022.925781 L 646.207031 1029.691406 L 647.679688 1036.78125 L 649 1042.863281 L 649.152344 1046.988281 L 648.015625 1049.6875 L 645.714844 1051.867188 L 643.066406 1054.421875 L 643.738281 1058.226562 L 650.183594 1063.765625 L 657.183594 1069.976562 L 657.585938 1075.421875 L 646.640625 1079.066406 L 629.148438 1081.535156 L 612.304688 1083.859375 L 601.835938 1086.800781 L 597.574219 1090.074219 L 597.871094 1093.117188 L 600.867188 1095.570312 L 603.796875 1097.828125 L 603.691406 1100.472656 L 598.632812 1103.648438 L 591.003906 1105.675781 L 584.257812 1104.4375 L 580.804688 1098.851562 L 578.90625 1091.996094 L 576.359375 1087.085938 L 573.28125 1083.675781 L 570.367188 1080.402344 L 568.019531 1076.242188 L 565.488281 1071.507812 L 561.714844 1066.851562 L 556.226562 1062.949219 L 550.871094 1060.625 L 548.066406 1060.734375 L 549.410156 1063.730469 L 553.164062 1068.441406 L 556.777344 1073.304688 L 558.230469 1077.023438 L 557.699219 1079.394531 L 555.890625 1080.503906 L 553.363281 1080.535156 L 550.023438 1080.132812 L 545.609375 1080.039062 L 539.839844 1080.792969 L 532.328125 1082.066406 L 523.3125 1083.441406 L 515.675781 1084.945312 L 512.964844 1086.726562 L 517.335938 1088.953125 L 525.441406 1091.878906 L 532.550781 1095.777344 L 535.289062 1100.734375 L 535.695312 1106.09375 L 537.160156 1111.011719 L 541.996094 1114.863281 L 548.1875 1117.910156 L 552.632812 1120.625 L 553.144531 1123.445312 L 551.183594 1126.636719 L 549.121094 1130.40625 L 548.527344 1134.773438 L 547.746094 1138.917969 L 544.914062 1142.140625 L 540.472656 1144.984375 L 535.449219 1148.324219 L 530.875 1152.855469 L 527.8125 1158.625 L 527.328125 1165.527344 L 530.089844 1173.191406 L 535.113281 1180.257812 L 541.007812 1185.113281 L 546.5625 1186.753906 L 551.328125 1186.59375 L 555.027344 1186.65625 L 557.546875 1188.390625 L 559.382812 1190.980469 L 561.1875 1193.03125 L 563.449219 1193.527344 L 565.972656 1192.914062 L 568.394531 1192.011719 L 570.441406 1191.148438 L 572.152344 1188.683594 L 573.730469 1183.179688 L 575.664062 1176 L 578.515625 1169.199219 L 582.621094 1164.398438 L 587.367188 1161.449219 L 591.921875 1159.761719 L 595.660156 1158.707031 L 598.785156 1157.515625 L 601.710938 1155.359375 L 604.917969 1151.769531 L 609.125 1147.625 L 615.109375 1144.15625 L 623.269531 1142.28125 L 632.472656 1141.710938 L 641.207031 1141.847656 L 648.261719 1142.132812 L 653.652344 1142.15625 L 657.753906 1141.710938 L 661.160156 1141.277344 L 664.527344 1141.496094 L 668.425781 1142.734375 L 673.125 1144.25 L 678.816406 1145.023438 L 685.46875 1144.359375 L 692.171875 1142.851562 L 697.796875 1141.410156 L 701.675781 1140.667969 L 705.03125 1140.082031 L 709.542969 1138.8125 L 716.234375 1136.269531 L 723.445312 1132.792969 L 728.855469 1128.960938 L 730.960938 1125.273438 L 731.539062 1121.933594 L 733.183594 1119.078125 L 737.730469 1116.765625 L 743.96875 1114.796875 L 750.21875 1112.929688 L 755.957031 1110.996094 L 760.933594 1108.859375 L 764.621094 1106.449219 L 765.285156 1103.945312 L 760.910156 1101.605469 L 750.988281 1099.582031 L 741.117188 1097.660156 L 738.410156 1095.539062 L 747.179688 1092.980469 L 760.585938 1090.082031 L 768.984375 1087.003906 L 765.691406 1083.910156 L 755.878906 1080.984375 L 747.667969 1078.40625 L 746.945312 1076.285156 L 750.605469 1074.464844 L 754.238281 1072.730469 L 757.234375 1070.910156 L 759.929688 1068.851562 L 762.675781 1066.460938 L 765.898438 1063.933594 L 770.035156 1061.515625 L 775.25 1059.375 L 780.589844 1057.34375 L 784.816406 1055.152344 L 786.933594 1052.640625 L 786.898438 1050.03125 L 784.902344 1047.644531 L 781.386719 1045.6875 L 777.726562 1043.90625 L 775.546875 1041.929688 L 776.015625 1039.480469 L 778.496094 1036.613281 L 781.910156 1033.476562 L 785.453125 1030.28125 L 789.484375 1027.46875 L 794.324219 1025.371094 L 799.078125 1023.617188 L 802.542969 1021.664062 L 803.65625 1019.140625 L 801.917969 1016.324219 L 796.964844 1013.65625 L 789.191406 1011.425781 L 781.992188 1009.347656 L 779.511719 1006.96875 L 784.328125 1004.015625 L 792.796875 1000.875 L 799.699219 998.101562 L 800.882812 996.121094 L 796.433594 994.878906 L 787.488281 994.1875 L 776.191406 993.785156 L 768.664062 993.113281 L 770.003906 991.605469 L 777.195312 989.015625 L 785.195312 985.179688 L 789.878906 980.144531 L 790.820312 974.824219 L 788.5 970.351562 L 783.804688 967.515625 L 779.128906 965.726562 L 777.269531 964.039062 L 779.992188 961.707031 L 785.019531 958.707031 L 789.042969 955.203125 L 789.851562 951.410156 L 789.589844 947.757812 L 791.503906 944.714844 L 797.582031 942.585938 L 804.847656 940.949219 L 809.082031 939.207031 L 806.613281 936.988281 L 795.980469 934.808594 L 778.367188 933.171875 L 763.296875 931.628906 L 762.398438 929.488281 L 782.699219 926.304688 L 812.894531 922.589844 L 837.105469 919.105469 L 843.664062 916.503906 L 837.820312 915.023438 L 829.058594 914.796875 L 824.769531 915.699219 L 824 916.574219 L 823.710938 915.996094 L 821.726562 912.992188 L 819.269531 908.347656 L 818.429688 903.300781 L 820.203125 898.847656 L 821.269531 895.097656 L 818.582031 891.90625 L 814.515625 889.066406 L 812.796875 886.339844 L 815.78125 883.535156 L 820.324219 880.625 L 821.902344 877.621094 L 817.53125 874.570312 L 810.339844 871.648438 L 804.980469 869.058594 L 804.871094 866.933594 L 808.417969 865.117188 L 812.789062 863.367188 L 815.609375 861.472656 L 816.394531 859.296875 L 815.128906 856.730469 L 810.671875 853.726562 L 797.351562 850.523438 L 768.378906 847.421875 L 765.058594 848.441406 "/>
</g>
</svg>
