<?xml version="1.0" encoding="UTF-8"?>
<svg xmlns="http://www.w3.org/2000/svg" xmlns:xlink="http://www.w3.org/1999/xlink" width="1428pt" height="1605pt" viewBox="0 0 1428 1605" version="1.1">
<g id="surface124">
<rect x="0" y="0" width="1428" height="1605" style="fill:rgb(100%,100%,100%);fill-opacity:1;stroke:none;"/>
<path style="fill:none;stroke-width:0.75;stroke-linecap:round;stroke-linejoin:round;stroke:rgb(0%,0%,0%);stroke-opacity:1;stroke-miterlimit:10;" d="M 321.742188 622.625 L 313.75 624.816406 L 306.816406 625.550781 L 302.046875 625.214844 L 298.105469 624.496094 L 293.042969 624.144531 L 285.617188 624.832031 L 277.371094 626.898438 L 270.101562 630.4375 L 263.8125 634.960938 L 258.066406 639.820312 L 252.460938 644.492188 L 246.796875 648.949219 L 240.917969 653.285156 L 234.949219 657.546875 L 230.152344 661.566406 L 227.574219 665.15625 L 226.21875 668.253906 L 224.585938 670.820312 L 221.609375 673 L 217.96875 675.605469 L 214.460938 679.339844 L 210.566406 683.757812 L 205.4375 688.113281 L 198.636719 691.902344 L 191.378906 695.5 L 185.285156 699.507812 L 181.488281 704.324219 L 179.167969 709.523438 L 177.222656 714.570312 L 175.34375 719.308594 L 173.4375 723.683594 L 171.46875 727.660156 L 169.691406 731.285156 L 168.417969 734.617188 L 167.664062 737.707031 L 166.234375 740.515625 L 163.082031 743.0625 L 158.902344 745.699219 L 154.835938 748.84375 L 151.675781 752.777344 L 148.851562 757.191406 L 145.746094 761.679688 L 142.964844 766.015625 L 141.402344 770.019531 L 141.703125 773.542969 L 143.460938 776.546875 L 146.011719 779.027344 L 148.519531 781.050781 L 149.503906 782.988281 L 147.808594 785.261719 L 144.265625 788.234375 L 140.191406 792.25 L 136.664062 797.574219 L 133.777344 804.117188 L 131.386719 811.710938 L 129.304688 820.003906 L 127.234375 827.925781 L 124.972656 834.535156 L 122.867188 840.113281 L 121.386719 845.246094 L 120.675781 850.339844 L 119.523438 855.046875 L 116.828125 859.042969 L 113.210938 862.742188 L 109.722656 866.761719 L 107.375 871.484375 L 107.019531 876.410156 L 109.46875 880.808594 L 114.558594 884.105469 L 118.207031 886.316406 L 116.726562 887.742188 L 111.945312 889.195312 L 107.070312 891.613281 L 104.671875 895.835938 L 104.789062 902.300781 L 106.835938 911.328125 L 109.96875 922.734375 L 112.351562 934.265625 L 112.417969 943.695312 L 110.730469 950.925781 L 108.367188 956.398438 L 106.441406 961.15625 L 106.195312 968.675781 L 108.445312 981.617188 L 112.175781 996.976562 L 115.917969 1010.324219 L 118.550781 1018.378906 L 120.300781 1022.390625 L 121.742188 1024.742188 L 123.273438 1027.453125 L 124.570312 1031.007812 L 125.207031 1035.394531 L 125.121094 1040.109375 L 124.320312 1044.507812 L 123.039062 1048.097656 L 122.375 1050.925781 L 123.289062 1053.246094 L 125.34375 1055.539062 L 127.730469 1058.359375 L 129.84375 1062.128906 L 131.796875 1066.777344 L 133.890625 1072.113281 L 136.425781 1077.796875 L 139.734375 1082.871094 L 144 1086.609375 L 148.796875 1089.828125 L 153.546875 1093.734375 L 157.769531 1099.140625 L 161.375 1105.3125 L 164.363281 1111.125 L 166.757812 1115.734375 L 168.644531 1119.394531 L 170.132812 1122.613281 L 171.355469 1125.746094 L 172.453125 1129.113281 L 173.578125 1132.902344 L 174.921875 1136.757812 L 176.65625 1140.417969 L 178.785156 1144.503906 L 181.269531 1149.867188 L 184.144531 1156.96875 L 187.707031 1164.710938 L 192.320312 1171.605469 L 197.996094 1176.574219 L 203.347656 1180.1875 L 207.058594 1183.292969 L 209.546875 1186.21875 L 211.65625 1189.148438 L 214.113281 1192.253906 L 217.199219 1195.589844 L 221.078125 1199.175781 L 226.011719 1203.03125 L 232.671875 1207.082031 L 241.671875 1211.222656 L 253.019531 1215.230469 L 266.574219 1218.878906 L 281.582031 1222.023438 L 294.851562 1224.945312 L 303.570312 1227.800781 L 308.917969 1229.804688 L 313.074219 1229.949219 L 317.890625 1227.644531 L 323.925781 1224.003906 L 331.40625 1220.554688 L 340.328125 1218.269531 L 349.734375 1215.910156 L 358.570312 1212.136719 L 366.316406 1207.398438 L 372.597656 1202.589844 L 377.234375 1198.441406 L 380.84375 1195.027344 L 384.226562 1192.253906 L 388.066406 1189.910156 L 392.476562 1187.324219 L 397.414062 1183.910156 L 402.71875 1179.886719 L 408.203125 1175.671875 L 413.476562 1171.601562 L 417.355469 1167.679688 L 419.03125 1163.875 L 419.996094 1160.308594 L 422.300781 1157.152344 L 427.464844 1154.46875 L 434.796875 1151.855469 L 443.066406 1148.808594 L 450.984375 1145.011719 L 457.046875 1140.910156 L 460.261719 1136.988281 L 461.898438 1133.167969 L 463.789062 1129.222656 L 467.136719 1125 L 470.59375 1120.578125 L 472.179688 1116.109375 L 470.683594 1111.660156 L 468.003906 1106.980469 L 466.304688 1101.90625 L 465.769531 1096.976562 L 466.082031 1092.894531 L 466.890625 1089.992188 L 467.707031 1087.035156 L 468.191406 1082.714844 L 468.695312 1076.949219 L 469.75 1069.957031 L 471.550781 1062.125 L 472.902344 1054.515625 L 472.261719 1048.347656 L 468.914062 1044.371094 L 465.433594 1041.414062 L 464.527344 1038.230469 L 466.140625 1035.0625 L 469.53125 1032.554688 L 473.964844 1030.925781 L 478.765625 1028.78125 L 483.234375 1024.699219 L 486.578125 1018.765625 L 487.980469 1011.445312 L 487.0625 1003.347656 L 485.191406 995.675781 L 484.179688 989.773438 L 485.15625 986.492188 L 486.601562 984.675781 L 486.804688 982.859375 L 486.054688 980.371094 L 485.128906 976.734375 L 484.640625 971.621094 L 484.542969 965.289062 L 484.632812 958.140625 L 484.648438 950.753906 L 484.109375 944.394531 L 482.703125 940.054688 L 480.945312 936.953125 L 479.574219 933.863281 L 479.085938 929.769531 L 479.042969 924.535156 L 478.929688 918.070312 L 478.800781 909.617188 L 478.863281 898.253906 L 479.277344 883.351562 L 480.019531 865.472656 L 481.03125 845.472656 L 482.105469 824.855469 L 482.503906 807.675781 L 481.613281 797.394531 L 479.824219 792.484375 L 477.78125 790.191406 L 475.996094 788.125 L 474.484375 785.378906 L 473.117188 781.421875 L 471.765625 776.109375 L 470.238281 770.789062 L 468.382812 766.730469 L 466.269531 763.300781 L 464.019531 759.398438 L 461.691406 754.28125 L 459.144531 748.640625 L 456.292969 743.355469 L 453.5625 738.574219 L 451.496094 734.269531 L 450.316406 730.390625 L 448.941406 726.769531 L 445.957031 723.226562 L 440.648438 719.59375 L 435.089844 715.761719 L 431.398438 711.679688 L 429.121094 707.394531 L 427.15625 702.96875 L 424.671875 698.394531 L 421.878906 693.339844 L 419.25 687.390625 L 417.136719 680.414062 L 415.390625 673.40625 L 413.738281 667.375 L 411.886719 662.214844 L 409.53125 657.566406 L 406.648438 653.152344 L 404.257812 649.09375 L 403.019531 645.578125 L 401.042969 642.699219 L 395.796875 640.515625 L 385.84375 639.003906 L 374.113281 637.753906 L 364.632812 636.253906 L 360.136719 634.164062 L 358.210938 631.84375 L 355.738281 629.703125 L 351.960938 627.710938 L 346.691406 625.730469 L 339.855469 623.664062 L 331.78125 621.566406 L 322.902344 619.53125 L 321.742188 622.625 "/>
<path style="fill:none;stroke-width:0.75;stroke-linecap:round;stroke-linejoin:round;stroke:rgb(0%,0%,0%);stroke-opacity:1;stroke-miterlimit:10;" d="M 322 622.632812 L 313.648438 624.8125 L 306.425781 625.542969 L 301.84375 625.210938 L 298.3125 624.496094 L 293.472656 624.148438 L 285.800781 624.835938 L 277.195312 626.898438 L 269.832031 630.441406 L 263.671875 634.964844 L 258.113281 639.816406 L 252.625 644.476562 L 246.972656 648.929688 L 240.992188 653.289062 L 234.832031 657.605469 L 229.90625 661.625 L 227.386719 665.109375 L 226.21875 668.101562 L 224.789062 670.726562 L 221.898438 673.167969 L 218.023438 675.84375 L 214.054688 679.242188 L 210.4375 683.585938 L 205.808594 688.085938 L 198.996094 691.96875 L 191.363281 695.574219 L 184.90625 699.527344 L 181.074219 704.253906 L 179.089844 709.449219 L 177.632812 714.621094 L 175.675781 719.371094 L 173.386719 723.679688 L 171.210938 727.621094 L 169.449219 731.253906 L 168.363281 734.628906 L 167.886719 737.765625 L 166.582031 740.574219 L 163.214844 743.046875 L 158.683594 745.589844 L 154.421875 748.710938 L 151.449219 752.75 L 149.152344 757.335938 L 146.503906 761.914062 L 143.058594 766.058594 L 140.675781 769.835938 L 141.136719 773.378906 L 143.589844 776.550781 L 146.539062 779.160156 L 148.652344 781.140625 L 149.261719 782.9375 L 147.882812 785.121094 L 144.394531 788.195312 L 140.160156 792.355469 L 136.585938 797.6875 L 133.75 804.132812 L 131.394531 811.582031 L 129.289062 819.78125 L 127.242188 827.902344 L 125.085938 834.964844 L 122.816406 840.371094 L 121.089844 845.019531 L 120.367188 849.890625 L 119.6875 854.824219 L 117.734375 859.355469 L 113.75 863.222656 L 109.265625 866.90625 L 106.371094 871.085938 L 106.664062 876.09375 L 109.765625 880.839844 L 114.457031 884.21875 L 118.179688 886.402344 L 118.035156 887.878906 L 112.578125 889.253906 L 106.246094 891.546875 L 103.679688 895.738281 L 104.53125 902.226562 L 107.214844 911.269531 L 110.222656 922.679688 L 112.417969 934.464844 L 112.761719 944.1875 L 110.742188 950.367188 L 108.007812 955.296875 L 106.410156 961.738281 L 106.449219 970.488281 L 108.277344 981.859375 L 111.792969 995.570312 L 115.855469 1008.988281 L 119.066406 1018.882812 L 120.535156 1023.25 L 121.421875 1024.949219 L 122.960938 1027.34375 L 124.667969 1030.863281 L 125.640625 1035.210938 L 125.25 1040.027344 L 124.050781 1044.664062 L 122.878906 1048.410156 L 122.480469 1050.867188 L 123.210938 1052.867188 L 125.167969 1055.367188 L 127.742188 1058.554688 L 130.152344 1062.421875 L 131.917969 1066.9375 L 133.714844 1071.992188 L 136.328125 1077.367188 L 139.792969 1082.566406 L 143.972656 1087.015625 L 148.664062 1090.441406 L 153.457031 1093.824219 L 157.875 1098.4375 L 161.546875 1104.933594 L 164.46875 1111.460938 L 166.738281 1116.121094 L 168.527344 1119.382812 L 170.011719 1122.296875 L 171.351562 1125.6875 L 172.59375 1129.394531 L 173.753906 1133.035156 L 174.921875 1136.414062 L 176.425781 1140.113281 L 178.574219 1144.769531 L 181.300781 1150.429688 L 184.453125 1157 L 187.964844 1164.21875 L 192.101562 1171.191406 L 197.210938 1176.859375 L 203.191406 1180.5625 L 208.109375 1183.253906 L 210.324219 1186.039062 L 211.214844 1189.082031 L 212.914062 1192.296875 L 216.925781 1195.632812 L 222.289062 1199.167969 L 227.410156 1203.015625 L 231.753906 1207.191406 L 239.003906 1211.324219 L 252.351562 1215.074219 L 268.839844 1218.550781 L 283.960938 1222.003906 L 294.402344 1225.46875 L 301.613281 1228.207031 L 307.820312 1229.457031 L 313.601562 1229.175781 L 319.109375 1227.496094 L 324.632812 1224.644531 L 330.980469 1221.226562 L 339.074219 1217.945312 L 349.242188 1215.191406 L 359.324219 1212.09375 L 367.136719 1207.824219 L 372.800781 1202.949219 L 377.019531 1198.382812 L 380.476562 1194.824219 L 383.847656 1192.074219 L 387.78125 1189.703125 L 392.691406 1187.265625 L 398.019531 1184.238281 L 403.101562 1180.257812 L 407.890625 1175.738281 L 412.476562 1171.265625 L 416.804688 1167.316406 L 420.238281 1163.820312 L 421.988281 1160.59375 L 422.203125 1157.480469 L 424.804688 1154.476562 L 433.085938 1151.570312 L 444.125 1148.546875 L 453.433594 1145.148438 L 457.792969 1141.207031 L 459.0625 1136.992188 L 460.347656 1132.867188 L 463.847656 1129.058594 L 468.074219 1125.199219 L 470.980469 1120.898438 L 471.996094 1116.234375 L 470.917969 1111.402344 L 468.023438 1106.574219 L 465.519531 1101.863281 L 465.375 1097.371094 L 466.679688 1093.253906 L 467.796875 1089.6875 L 467.621094 1086.597656 L 467.132812 1082.964844 L 467.835938 1077.53125 L 470.496094 1069.671875 L 472.941406 1061.316406 L 472.945312 1054.507812 L 471.03125 1049.210938 L 468.421875 1044.851562 L 466.234375 1040.992188 L 465.1875 1037.640625 L 465.90625 1034.9375 L 468.800781 1032.886719 L 473.402344 1030.984375 L 478.902344 1028.574219 L 483.988281 1024.929688 L 487.242188 1019.296875 L 487.722656 1011.378906 L 486.472656 1002.675781 L 485.027344 995.152344 L 484.59375 990.214844 L 485.109375 987.121094 L 486.109375 984.734375 L 486.914062 982.5 L 486.773438 980.003906 L 485.355469 976.78125 L 484.007812 972.070312 L 484.003906 965.40625 L 484.730469 957.777344 L 485.101562 950.523438 L 484.3125 944.699219 L 482.707031 940.222656 L 480.917969 936.726562 L 479.507812 933.695312 L 478.761719 930.089844 L 478.769531 924.902344 L 479.136719 917.882812 L 479.347656 908.953125 L 479.09375 897.910156 L 478.878906 883.976562 L 479.429688 866.242188 L 481.070312 844.851562 L 482.570312 824.132812 L 482.667969 808.445312 L 481.550781 798.011719 L 479.753906 792.035156 L 477.777344 789.460938 L 475.894531 788.226562 L 474.347656 786.019531 L 473.21875 781.300781 L 472.011719 775.667969 L 470.25 770.980469 L 468.136719 767.070312 L 466.027344 763.269531 L 464.144531 759.023438 L 462.117188 754.25 L 459.417969 748.984375 L 455.902344 743.402344 L 452.898438 738.242188 L 451.566406 734.125 L 450.867188 730.644531 L 449.226562 727.132812 L 445.539062 723.128906 L 440.597656 719.019531 L 435.578125 715.269531 L 431.25 711.828125 L 428.28125 708.53125 L 427 705.199219 L 426.351562 701.667969 L 424.933594 697.773438 L 421.863281 693.355469 L 418.292969 688.242188 L 415.574219 682.398438 L 413.738281 676.292969 L 412.496094 670.511719 L 411.539062 665.507812 L 410.4375 661.167969 L 408.738281 657.226562 L 406.257812 653.472656 L 403.878906 649.855469 L 402.199219 646.398438 L 399.609375 643.3125 L 393.941406 640.84375 L 384.039062 639.113281 L 372.730469 637.730469 L 363.863281 636.183594 L 359.980469 634.121094 L 358.460938 631.839844 L 356.058594 629.714844 L 352.140625 627.71875 L 346.722656 625.726562 L 339.875 623.660156 L 331.800781 621.566406 L 322.75 619.53125 L 322 622.632812 "/>
<path style="fill:none;stroke-width:0.75;stroke-linecap:round;stroke-linejoin:round;stroke:rgb(0%,0%,0%);stroke-opacity:1;stroke-miterlimit:10;" d="M 727.625 822.640625 L 718.964844 826.949219 L 710.816406 830.527344 L 706.34375 833.410156 L 704.5 836.117188 L 703.179688 839.277344 L 700.6875 843.324219 L 696.988281 847.914062 L 692.460938 852.503906 L 687.71875 856.664062 L 684.324219 860.335938 L 684.085938 863.582031 L 687.300781 866.472656 L 688.210938 869.191406 L 681.984375 871.929688 L 673.46875 874.742188 L 669.933594 877.652344 L 676.140625 880.652344 L 686.820312 883.546875 L 694.199219 886.097656 L 692.636719 888.203125 L 685.074219 890.320312 L 676.585938 893.039062 L 671.066406 896.671875 L 667.695312 900.46875 L 664.726562 903.613281 L 661.433594 906.144531 L 657.335938 908.3125 L 652.273438 910.382812 L 647.3125 912.730469 L 643.828125 915.753906 L 642.789062 919.722656 L 643.523438 924.433594 L 644.941406 929.542969 L 646.035156 934.726562 L 646.074219 939.667969 L 644.410156 944.054688 L 641 947.765625 L 638.234375 951.417969 L 638.226562 955.574219 L 639.429688 959.835938 L 639.40625 963.570312 L 636.390625 966.3125 L 631.347656 968.246094 L 625.929688 969.730469 L 621.355469 971.050781 L 617.132812 972.28125 L 612.332031 973.433594 L 606.292969 974.613281 L 599.378906 976.339844 L 592.722656 979.03125 L 589.390625 982.304688 L 592.9375 985.574219 L 604.84375 988.378906 L 618.238281 990.761719 L 624.167969 992.886719 L 616.851562 994.894531 L 603.136719 996.839844 L 593.050781 998.75 L 593.851562 1000.660156 L 601.785156 1002.628906 L 610.339844 1004.71875 L 614.453125 1006.96875 L 614.851562 1009.300781 L 613.402344 1011.628906 L 610.691406 1013.988281 L 607.003906 1016.429688 L 602.644531 1018.898438 L 598.015625 1020.925781 L 593.558594 1021.921875 L 589.570312 1021.378906 L 585.835938 1019.089844 L 581.996094 1014.917969 L 577.847656 1009.191406 L 573.785156 1004.105469 L 570.238281 1001.730469 L 567.199219 1001.824219 L 564.542969 1003.5625 L 562.074219 1006.253906 L 559.304688 1009.722656 L 555.660156 1013.914062 L 551.203125 1018.667969 L 548.472656 1023.339844 L 550.632812 1027.183594 L 559.253906 1029.753906 L 569.519531 1031.84375 L 575.003906 1034.5625 L 571.234375 1038.488281 L 561.507812 1042.109375 L 550.449219 1043.949219 L 540.265625 1044.808594 L 532.566406 1046.058594 L 528.332031 1048.730469 L 526.054688 1052.503906 L 523.589844 1056.714844 L 519.609375 1060.8125 L 515.960938 1064.683594 L 515.296875 1068.3125 L 519.042969 1071.664062 L 523.667969 1074.621094 L 525.414062 1077.117188 L 524.429688 1079.441406 L 521.863281 1081.96875 L 518.769531 1085.066406 L 515.882812 1089.042969 L 513.851562 1094.195312 L 513.148438 1100.574219 L 513.554688 1107.246094 L 514.671875 1113.03125 L 516.070312 1117.140625 L 517.195312 1120.308594 L 517.457031 1123.667969 L 516.636719 1128.199219 L 515.988281 1134.304688 L 516.730469 1142.015625 L 518.449219 1150.460938 L 520.320312 1158.535156 L 521.726562 1165.347656 L 522.8125 1170.84375 L 523.933594 1175.167969 L 525.335938 1178.515625 L 526.855469 1181.203125 L 528.242188 1183.574219 L 529.363281 1186.007812 L 530.664062 1188.929688 L 532.632812 1192.652344 L 535.382812 1196.867188 L 538.953125 1201.125 L 543.28125 1205.0625 L 547.964844 1208.6875 L 552.519531 1212.105469 L 556.628906 1215.316406 L 560.710938 1217.96875 L 565.351562 1219.601562 L 570.867188 1219.835938 L 576.453125 1218.585938 L 581.035156 1215.839844 L 583.878906 1211.988281 L 585.664062 1209.09375 L 587.304688 1208.960938 L 589.265625 1210.804688 L 591.894531 1213.179688 L 595.402344 1214.875 L 599.429688 1215.597656 L 603.488281 1215.289062 L 607.15625 1213.8125 L 610.296875 1210.75 L 612.84375 1205.601562 L 614.753906 1198.445312 L 616.042969 1191.660156 L 616.933594 1187.484375 L 618.390625 1185.273438 L 621.578125 1183.65625 L 627.261719 1181.601562 L 634.671875 1179.390625 L 642.640625 1177.640625 L 650.132812 1176.800781 L 656.625 1176.652344 L 661.71875 1176.808594 L 665.378906 1176.953125 L 669 1176.976562 L 674.324219 1176.847656 L 682.316406 1176.554688 L 690.8125 1176.199219 L 697.570312 1175.84375 L 703.242188 1175.207031 L 709.195312 1173.933594 L 716.277344 1171.722656 L 723.28125 1168.5 L 728.480469 1164.265625 L 730.808594 1159.164062 L 731.878906 1153.984375 L 733.96875 1149.660156 L 738.613281 1146.847656 L 744.398438 1145.035156 L 749.753906 1143.464844 L 755.5 1141.511719 L 763.039062 1138.597656 L 773.125 1134.40625 L 783.867188 1129.679688 L 792.722656 1125.433594 L 797.964844 1122.371094 L 801.128906 1119.96875 L 804.570312 1117.398438 L 809.742188 1114.0625 L 814.503906 1110.261719 L 815.820312 1106.539062 L 812.074219 1103.265625 L 807.320312 1100.15625 L 805.792969 1096.773438 L 806.707031 1092.714844 L 808.039062 1087.585938 L 808.335938 1081.199219 L 808.484375 1074.191406 L 809.957031 1067.398438 L 813.667969 1061.542969 L 818.324219 1056.875 L 822.082031 1053.519531 L 823.433594 1051.453125 L 822.203125 1050.09375 L 818.769531 1048.816406 L 814.414062 1047.433594 L 810.636719 1045.882812 L 808.699219 1044.082031 L 808.867188 1041.941406 L 811.160156 1039.351562 L 815.5 1036.25 L 821.382812 1032.710938 L 828.210938 1028.855469 L 835.09375 1024.808594 L 839.945312 1020.796875 L 840.390625 1017.054688 L 835.3125 1013.78125 L 828.625 1011.003906 L 824.636719 1008.6875 L 824.191406 1006.660156 L 827.269531 1004.738281 L 833.152344 1002.765625 L 838.304688 1000.75 L 838.484375 998.738281 L 831.230469 996.769531 L 821.175781 994.824219 L 814.742188 992.871094 L 816.53125 990.851562 L 823.90625 988.609375 L 832.710938 985.976562 L 839.941406 982.914062 L 842.890625 979.40625 L 839.925781 975.527344 L 833.757812 971.675781 L 828.167969 968.351562 L 826.101562 965.855469 L 827.117188 963.769531 L 829.917969 961.484375 L 833.390625 958.484375 L 837.125 954.640625 L 840.882812 949.917969 L 843.976562 944.488281 L 843.929688 939.382812 L 839.089844 935.550781 L 832.921875 932.808594 L 830.167969 930.683594 L 834.125 928.777344 L 842.3125 926.917969 L 850.800781 925.003906 L 856.371094 922.972656 L 858.628906 920.902344 L 857.878906 918.914062 L 854.769531 917.0625 L 851.285156 915.160156 L 849.222656 912.949219 L 848.304688 910.132812 L 847.742188 906.417969 L 846.832031 901.710938 L 845.273438 896.777344 L 842.851562 892.585938 L 839.683594 889.808594 L 837.226562 887.917969 L 837.265625 886.085938 L 840.695312 883.667969 L 844.832031 880.789062 L 846.089844 877.761719 L 842.507812 874.832031 L 838.578125 871.964844 L 838.777344 869.03125 L 841.097656 865.742188 L 841.902344 861.789062 L 838.621094 857.03125 L 832.960938 852.023438 L 827.699219 847.488281 L 824.996094 843.921875 L 824.574219 840.863281 L 825.542969 837.617188 L 827.054688 833.796875 L 828.4375 830.289062 L 829.050781 828.007812 L 828.277344 826.726562 L 825.492188 825.9375 L 819.898438 825.257812 L 809.980469 824.859375 L 794.042969 825.039062 L 771.945312 825.925781 L 749.75 826.992188 L 735.082031 827.539062 L 732.425781 827.011719 L 733.792969 825.359375 L 728.0625 822.679688 L 727.625 822.640625 "/>
</g>
</svg>
