<?xml version="1.0" encoding="UTF-8"?>
<svg xmlns="http://www.w3.org/2000/svg" xmlns:xlink="http://www.w3.org/1999/xlink" width="1428pt" height="1605pt" viewBox="0 0 1428 1605" version="1.1">
<g id="surface129">
<rect x="0" y="0" width="1428" height="1605" style="fill:rgb(100%,100%,100%);fill-opacity:1;stroke:none;"/>
<path style="fill:none;stroke-width:0.75;stroke-linecap:round;stroke-linejoin:round;stroke:rgb(0%,0%,0%);stroke-opacity:1;stroke-miterlimit:10;" d="M 303.199219 611.726562 L 300.878906 613.816406 L 298.855469 616.128906 L 290.394531 618.9375 L 278.324219 622.214844 L 267.851562 625.855469 L 262.597656 629.683594 L 259.828125 633.28125 L 256.070312 636.238281 L 251.25 638.460938 L 246.144531 639.933594 L 241.480469 640.847656 L 237.78125 642.207031 L 235.214844 644.917969 L 232.78125 648.644531 L 229.1875 652.753906 L 223.609375 656.789062 L 217.148438 661.070312 L 211.382812 666.09375 L 207.371094 672.09375 L 204.035156 678.242188 L 200.019531 683.636719 L 194.925781 688.199219 L 188.601562 692.054688 L 181.355469 695.402344 L 175.40625 698.730469 L 172.617188 702.550781 L 171.628906 707.234375 L 170.253906 713.105469 L 166.984375 720.222656 L 162.949219 727.5625 L 159.9375 733.84375 L 159.046875 738.167969 L 158.5625 741.21875 L 156.617188 743.9375 L 153.507812 746.707031 L 150.078125 749.773438 L 146.949219 753.320312 L 143.890625 757.304688 L 140.636719 761.578125 L 137.726562 765.875 L 135.882812 769.890625 L 135.699219 773.394531 L 137.207031 776.40625 L 140.300781 779.019531 L 144.257812 781.324219 L 145.847656 783.4375 L 142.542969 785.5 L 137.113281 787.722656 L 133.648438 790.335938 L 134.753906 793.421875 L 137.058594 796.417969 L 136.742188 798.871094 L 134.179688 801.347656 L 130.792969 804.6875 L 127.777344 809.507812 L 125.425781 815.574219 L 123.800781 822.433594 L 122.816406 829.5 L 121.816406 835.628906 L 120.238281 839.976562 L 118.496094 843.382812 L 117.25 847.128906 L 116.734375 852.074219 L 115.425781 857.414062 L 111.960938 862.183594 L 107.332031 866.417969 L 103.117188 870.398438 L 100.714844 874.316406 L 100.824219 878.015625 L 103.96875 881.253906 L 109.722656 883.855469 L 113.914062 885.976562 L 112.800781 887.878906 L 108.125 889.980469 L 103.007812 892.753906 L 100.105469 896.4375 L 100.21875 900.417969 L 103.246094 904.054688 L 107.324219 907.496094 L 110.140625 911.085938 L 110.109375 915.121094 L 108.574219 919.699219 L 107.597656 924.886719 L 108.503906 930.589844 L 109.632812 936.171875 L 109.128906 941.035156 L 107.300781 945.339844 L 105.023438 949.433594 L 103.136719 953.953125 L 102.425781 960.71875 L 103.449219 971.128906 L 105.925781 983.761719 L 109.382812 996.488281 L 113.238281 1007.523438 L 116.511719 1016.449219 L 118.109375 1023.183594 L 117.527344 1027.910156 L 116.523438 1031.851562 L 116.851562 1036.195312 L 117.925781 1040.898438 L 118.582031 1045.609375 L 118.277344 1050.144531 L 118.992188 1054.914062 L 122.515625 1060.324219 L 127.335938 1066.09375 L 131.132812 1071.777344 L 132.289062 1076.945312 L 132.074219 1081.265625 L 132.46875 1084.410156 L 134.769531 1086.328125 L 137.507812 1088.023438 L 139.113281 1090.519531 L 140.390625 1093.804688 L 142.734375 1097.632812 L 147.019531 1101.757812 L 152.027344 1106.011719 L 156.328125 1110.285156 L 159.703125 1114.613281 L 162.230469 1119.078125 L 164.046875 1123.699219 L 165.542969 1128.300781 L 167.167969 1132.632812 L 169.222656 1136.609375 L 171.429688 1140.691406 L 173.5 1145.308594 L 175.695312 1150.214844 L 178.417969 1154.980469 L 181.824219 1159.3125 L 185.066406 1163.46875 L 187.433594 1167.738281 L 189.699219 1172 L 193.011719 1176.046875 L 197.96875 1179.710938 L 202.988281 1183.054688 L 205.953125 1186.195312 L 205.925781 1189.234375 L 206.691406 1192.246094 L 211.722656 1195.3125 L 218.480469 1198.613281 L 222.917969 1202.347656 L 223.289062 1206.59375 L 227.042969 1210.96875 L 240.988281 1215.03125 L 260.234375 1218.679688 L 276.960938 1221.875 L 285.484375 1224.601562 L 288.71875 1226.882812 L 291.710938 1228.761719 L 298.277344 1230.1875 L 307.265625 1230.785156 L 316.558594 1230.230469 L 325.160156 1228.757812 L 332.363281 1226.738281 L 338.179688 1224.332031 L 345.511719 1220.878906 L 356.742188 1215.855469 L 369.214844 1210.160156 L 379.023438 1205.039062 L 383.582031 1201.421875 L 385.617188 1198.941406 L 389.175781 1196.921875 L 396.726562 1194.785156 L 404.441406 1192.425781 L 408.246094 1189.824219 L 409.488281 1186.878906 L 410.859375 1183.476562 L 414.429688 1179.589844 L 419.753906 1175.566406 L 425.941406 1171.757812 L 432.835938 1168.125 L 440.464844 1164.542969 L 448.566406 1160.863281 L 455.753906 1156.898438 L 460.355469 1152.445312 L 461.753906 1147.367188 L 463.542969 1141.847656 L 468.914062 1136.023438 L 475.230469 1129.617188 L 478.378906 1122.238281 L 475.964844 1113.625 L 472.398438 1104.054688 L 472.398438 1094.007812 L 475.121094 1084.242188 L 478.316406 1075.585938 L 480.269531 1068.664062 L 481.332031 1063.257812 L 482.375 1058.9375 L 483.882812 1055.257812 L 484.765625 1051.703125 L 484.128906 1047.828125 L 483.355469 1043.519531 L 484.40625 1038.746094 L 488.476562 1033.390625 L 493.71875 1027.015625 L 497.851562 1019.386719 L 499.886719 1011.457031 L 499.175781 1004.476562 L 495.613281 999.308594 L 491.335938 995.3125 L 489.042969 991.464844 L 490.289062 986.910156 L 492.128906 981.464844 L 491.546875 975.246094 L 489.800781 968.871094 L 489.214844 963.074219 L 491.265625 958.402344 L 493.996094 954.609375 L 495.203125 951.246094 L 495.070312 947.835938 L 494.375 943.886719 L 493.660156 939.058594 L 492.453125 933.582031 L 490.046875 927.820312 L 486.21875 921.832031 L 482.691406 914.390625 L 481.136719 904.292969 L 481.050781 891.691406 L 481.394531 877.085938 L 481.472656 861.308594 L 481.996094 846.589844 L 483.71875 834.867188 L 486.179688 825.492188 L 488.609375 817.1875 L 490.222656 808.890625 L 490.214844 800.417969 L 487.769531 791.824219 L 482.71875 783.308594 L 477.460938 775.726562 L 474.242188 769.847656 L 472.128906 765.464844 L 469.398438 762.121094 L 465.167969 759.355469 L 461.96875 756.671875 L 462.210938 753.535156 L 464.382812 749.359375 L 466.011719 743.535156 L 465.132812 735.84375 L 461.867188 727.589844 L 456.859375 720.449219 L 450.703125 715.464844 L 443.820312 711.09375 L 436.699219 705.53125 L 430.265625 698.53125 L 425.5625 690.21875 L 423.144531 680.929688 L 421.640625 671.742188 L 419.476562 663.710938 L 416.125 656.972656 L 411.328125 651.4375 L 405.167969 646.984375 L 399.054688 643.394531 L 394.75 640.414062 L 393.300781 637.839844 L 392.914062 635.652344 L 391.597656 633.882812 L 389.332031 632.625 L 386.582031 631.988281 L 383.53125 631.878906 L 379.125 631.417969 L 372.816406 629.753906 L 367.21875 626.925781 L 365.734375 623.203125 L 367.542969 618.890625 L 354.855469 614.453125 L 305.65625 610.386719 L 303.199219 611.726562 "/>
<path style="fill:none;stroke-width:0.75;stroke-linecap:round;stroke-linejoin:round;stroke:rgb(0%,0%,0%);stroke-opacity:1;stroke-miterlimit:10;" d="M 303.195312 611.742188 L 300.984375 613.851562 L 298.679688 616.148438 L 290.34375 618.871094 L 278.558594 622.066406 L 268.035156 625.742188 L 262.207031 629.78125 L 259.394531 633.625 L 256.632812 636.585938 L 251.765625 638.246094 L 245.855469 639.246094 L 240.777344 640.484375 L 237.804688 642.65625 L 235.847656 645.597656 L 233.214844 648.929688 L 228.695312 652.398438 L 222.945312 656.242188 L 217.113281 660.824219 L 212.085938 666.347656 L 207.742188 672.363281 L 203.71875 678.273438 L 199.609375 683.574219 L 194.847656 688.175781 L 188.832031 692.085938 L 181.554688 695.421875 L 175.402344 698.710938 L 172.496094 702.527344 L 171.503906 707.21875 L 170.226562 713.085938 L 167.105469 720.167969 L 163.136719 727.496094 L 159.960938 733.84375 L 158.675781 738.328125 L 158.246094 741.425781 L 157.097656 743.945312 L 154.121094 746.585938 L 150.054688 749.609375 L 146.101562 753.164062 L 143.167969 757.300781 L 140.941406 761.71875 L 138.816406 766.03125 L 136.535156 769.921875 L 135.179688 773.351562 L 136.1875 776.355469 L 140.195312 778.984375 L 144.632812 781.320312 L 146.144531 783.453125 L 142.625 785.5 L 137.011719 787.703125 L 133.507812 790.335938 L 134.757812 793.480469 L 137.179688 796.484375 L 136.773438 798.824219 L 134.042969 801.183594 L 130.625 804.558594 L 127.832031 809.648438 L 125.726562 815.949219 L 124.042969 822.65625 L 122.570312 829.074219 L 121.257812 834.898438 L 120.105469 839.929688 L 119.066406 844.105469 L 117.941406 847.902344 L 116.492188 851.9375 L 114.492188 856.640625 L 111.742188 861.6875 L 108.0625 866.5625 L 103.652344 870.863281 L 100.289062 874.621094 L 100.136719 877.96875 L 104.371094 881.015625 L 110.1875 883.726562 L 113.789062 886.027344 L 112.480469 887.964844 L 107.988281 889.996094 L 103.132812 892.707031 L 100.328125 896.414062 L 100.351562 900.441406 L 103.15625 904.070312 L 107.046875 907.480469 L 109.898438 911.054688 L 110.230469 915.125 L 109.050781 919.753906 L 107.984375 924.929688 L 108.195312 930.558594 L 108.945312 936.140625 L 109.027344 941.085938 L 107.601562 945.105469 L 105.347656 949.109375 L 103.320312 954.332031 L 102.4375 961.738281 L 103.070312 971.28125 L 105.457031 982.664062 L 109.519531 995.3125 L 113.90625 1007.578125 L 116.957031 1017.53125 L 117.5625 1023.886719 L 116.828125 1027.894531 L 116.417969 1031.449219 L 117.398438 1035.960938 L 118.46875 1040.917969 L 118.320312 1045.5625 L 117.980469 1050.097656 L 119.066406 1054.941406 L 122.601562 1060.386719 L 127.207031 1066.144531 L 130.925781 1071.785156 L 132.363281 1076.902344 L 132.46875 1081.203125 L 132.757812 1084.425781 L 134.351562 1086.496094 L 136.804688 1088.140625 L 139.269531 1090.28125 L 141.195312 1093.585938 L 143.238281 1097.707031 L 146.351562 1102.039062 L 151.078125 1106.132812 L 156.332031 1110.144531 L 160.601562 1114.371094 L 162.851562 1119.007812 L 163.863281 1123.8125 L 164.871094 1128.425781 L 166.796875 1132.609375 L 169.320312 1136.609375 L 171.785156 1140.785156 L 173.777344 1145.375 L 175.78125 1150.132812 L 178.335938 1154.753906 L 181.339844 1159.21875 L 184.511719 1163.589844 L 187.648438 1167.890625 L 190.78125 1172.058594 L 194.015625 1176.003906 L 197.40625 1179.664062 L 200.875 1183.054688 L 204.304688 1186.214844 L 207.5625 1189.207031 L 210.5 1192.179688 L 212.949219 1195.304688 L 215.039062 1198.722656 L 218.058594 1202.457031 L 223.578125 1206.5 L 232.699219 1210.785156 L 244.609375 1215.015625 L 258.03125 1218.832031 L 271.578125 1221.972656 L 283.464844 1224.554688 L 291.804688 1226.792969 L 295.71875 1228.789062 L 298.394531 1230.238281 L 304.015625 1230.730469 L 314.996094 1229.992188 L 326.636719 1228.339844 L 334.042969 1226.214844 L 338.578125 1224.03125 L 343.175781 1222.183594 L 349.9375 1220.898438 L 357.601562 1219.730469 L 364.0625 1218.054688 L 367.84375 1215.425781 L 369.949219 1212.089844 L 371.996094 1208.464844 L 375.300781 1204.933594 L 379.910156 1201.703125 L 385.5625 1198.9375 L 391.886719 1196.714844 L 398.105469 1194.730469 L 403.328125 1192.601562 L 406.964844 1190.003906 L 409.554688 1186.925781 L 411.941406 1183.417969 L 414.910156 1179.574219 L 419.082031 1175.597656 L 425.046875 1171.730469 L 432.972656 1168.125 L 441.421875 1164.570312 L 448.84375 1160.816406 L 454.898438 1156.691406 L 459.539062 1152.0625 L 462.84375 1146.90625 L 465.375 1141.660156 L 467.8125 1136.875 L 470.582031 1132.875 L 473.015625 1129.039062 L 474.1875 1124.507812 L 473.566406 1118.605469 L 472.214844 1111.335938 L 471.59375 1102.875 L 472.753906 1093.539062 L 475.164062 1084.152344 L 477.875 1075.6875 L 480.113281 1068.863281 L 481.769531 1063.449219 L 482.890625 1058.96875 L 483.554688 1054.992188 L 483.910156 1051.230469 L 484.117188 1047.449219 L 484.371094 1043.476562 L 484.925781 1039.460938 L 486.074219 1035.621094 L 487.894531 1032.113281 L 489.652344 1028.851562 L 490.695312 1025.6875 L 491.457031 1022.4375 L 492.640625 1018.921875 L 494.6875 1015.03125 L 496.914062 1010.964844 L 498.363281 1006.996094 L 498.332031 1003.359375 L 497.113281 1000.125 L 495.25 997.324219 L 493.253906 994.835938 L 491.464844 991.964844 L 490.207031 987.863281 L 489.699219 982.011719 L 489.828125 975.207031 L 490.378906 968.570312 L 491.171875 962.992188 L 492.121094 958.4375 L 493.15625 954.628906 L 494.167969 951.257812 L 494.878906 947.855469 L 494.953125 943.902344 L 494.121094 939.039062 L 492.34375 933.535156 L 489.625 927.800781 L 486.1875 921.90625 L 483.082031 914.496094 L 481.289062 904.261719 L 480.6875 891.511719 L 480.890625 876.953125 L 481.570312 861.472656 L 482.671875 846.667969 L 484.214844 834.308594 L 486.082031 825.59375 L 487.675781 819.402344 L 488.257812 814.042969 L 487.367188 808.222656 L 485.535156 802.238281 L 483.566406 796.789062 L 482.074219 792.40625 L 480.953125 788.976562 L 479.914062 786.21875 L 478.726562 783.832031 L 477.398438 781.449219 L 475.984375 778.6875 L 474.46875 775.210938 L 472.484375 770.851562 L 469.578125 765.496094 L 465.742188 759.289062 L 462.695312 753.425781 L 461.976562 749.019531 L 462.636719 745.808594 L 463.105469 743.179688 L 462.203125 740.617188 L 460.285156 737.941406 L 458.101562 735.078125 L 456.277344 731.960938 L 454.984375 728.609375 L 454.277344 725.0625 L 453.949219 721.378906 L 452.816406 717.699219 L 449.441406 714.1875 L 443.0625 710.972656 L 435.636719 708.0625 L 429.796875 705.425781 L 427.398438 703 L 427.148438 700.574219 L 426.96875 697.90625 L 425.289062 694.835938 L 422.601562 691.546875 L 419.90625 688.304688 L 417.964844 685.25 L 416.617188 682.011719 L 415.460938 678.113281 L 414.179688 673.222656 L 412.777344 667.679688 L 411.339844 661.996094 L 409.933594 656.742188 L 408.628906 652.5 L 407.386719 649.628906 L 405.800781 647.636719 L 403.355469 645.800781 L 399.726562 643.605469 L 395.367188 641.289062 L 390.90625 639.292969 L 386.890625 637.933594 L 383.46875 637.003906 L 380.683594 636.167969 L 378.535156 635.136719 L 376.796875 633.804688 L 375.179688 632.109375 L 373.324219 629.992188 L 370.519531 627.441406 L 365.984375 624.449219 L 359.558594 621.09375 L 353.589844 617.820312 L 351.054688 615.15625 L 351.660156 613.460938 L 341.996094 612.414062 L 305.386719 611.53125 L 303.195312 611.742188 "/>
<path style="fill:none;stroke-width:0.75;stroke-linecap:round;stroke-linejoin:round;stroke:rgb(0%,0%,0%);stroke-opacity:1;stroke-miterlimit:10;" d="M 745.5 786.691406 L 742.515625 792.066406 L 740.304688 796.480469 L 738.066406 798.972656 L 733.511719 800.464844 L 725.03125 802.109375 L 715.210938 804.226562 L 707.699219 806.910156 L 704.855469 810.128906 L 703.945312 813.347656 L 701.625 816.21875 L 697.253906 819.703125 L 691.234375 824.6875 L 685.464844 830.542969 L 682.210938 836.25 L 682.71875 841.011719 L 684.144531 844.910156 L 683.347656 848.238281 L 680.046875 851.324219 L 674.6875 854.5 L 668.003906 858.097656 L 661.9375 862.488281 L 658.289062 867.660156 L 657.191406 872.109375 L 658 874.695312 L 658.621094 877.257812 L 656.613281 882.394531 L 650.46875 891.527344 L 642.457031 901.433594 L 635.304688 908.59375 L 629.800781 912.890625 L 626.246094 915.070312 L 624.554688 916.242188 L 623.136719 918.957031 L 620.703125 925.117188 L 618.742188 932.582031 L 618.628906 938.886719 L 618.558594 944.320312 L 615.933594 949.851562 L 609.023438 956.273438 L 599.648438 963.648438 L 590.273438 971.710938 L 582.433594 979.574219 L 577.4375 986.199219 L 575.722656 990.605469 L 574.210938 992.0625 L 570.113281 990.628906 L 565.21875 989.25 L 561.828125 990.757812 L 559.644531 994.585938 L 557.738281 999.320312 L 555.332031 1003.980469 L 552.289062 1009.296875 L 548.734375 1016.003906 L 545.175781 1023.132812 L 542.21875 1029.300781 L 540.105469 1033.589844 L 537.644531 1037 L 533.878906 1040.679688 L 530.144531 1044.511719 L 527.898438 1048.132812 L 526.695312 1051.515625 L 525.613281 1054.710938 L 523.945312 1057.90625 L 521.863281 1061.816406 L 519.710938 1067.058594 L 517.640625 1073.34375 L 515.746094 1080.160156 L 514.191406 1087.785156 L 513.367188 1099.691406 L 513.566406 1117.871094 L 514.523438 1135.242188 L 515.847656 1144.796875 L 517.332031 1148.917969 L 518.800781 1152.335938 L 520.132812 1158.476562 L 521.414062 1165.558594 L 522.746094 1171.105469 L 524.117188 1175.132812 L 525.472656 1178.285156 L 526.777344 1181.09375 L 528.066406 1183.65625 L 529.402344 1186.074219 L 530.863281 1188.851562 L 532.613281 1192.433594 L 535.101562 1196.625 L 538.835938 1201.058594 L 543.902344 1205.371094 L 548.675781 1209.160156 L 551.765625 1212.160156 L 554.46875 1214.699219 L 558.75 1217.25 L 566.574219 1219.902344 L 579.898438 1221.171875 L 598.707031 1219.675781 L 615.183594 1215.9375 L 622.15625 1211.03125 L 622.90625 1206.34375 L 623.316406 1203.324219 L 627.820312 1202.859375 L 634.996094 1203.5625 L 642.421875 1203.871094 L 649.527344 1203.800781 L 656.207031 1203.761719 L 662.148438 1203.925781 L 666.21875 1203.457031 L 667.570312 1201.5 L 667.285156 1198.035156 L 666.800781 1193.492188 L 667.019531 1189.246094 L 668.703125 1186.914062 L 672.152344 1187.449219 L 675.835938 1189.207031 L 678.285156 1190.257812 L 680.09375 1190.269531 L 682.375 1189.289062 L 685.796875 1187.691406 L 689.171875 1187.105469 L 691.273438 1188.734375 L 692.445312 1190.738281 L 693.726562 1191.050781 L 697.253906 1189.738281 L 705.445312 1187.382812 L 718.921875 1184.410156 L 731.144531 1180.570312 L 736.160156 1175.894531 L 737.523438 1172.210938 L 740.117188 1171.046875 L 744.609375 1170.957031 L 750.601562 1169.726562 L 757.523438 1166.011719 L 764.109375 1161.851562 L 769.214844 1159.472656 L 772.910156 1158.460938 L 775.550781 1157.734375 L 777.480469 1156.386719 L 778.925781 1154.214844 L 780.363281 1151.214844 L 783.402344 1147.441406 L 789.199219 1143.089844 L 795.957031 1138.8125 L 801.136719 1135.386719 L 803.328125 1133.332031 L 805.609375 1132.113281 L 811.09375 1130.859375 L 818.539062 1128.332031 L 825.621094 1123.191406 L 830.378906 1115.050781 L 832.308594 1107.292969 L 831.457031 1103.117188 L 828.617188 1101.164062 L 824.894531 1099.382812 L 821.957031 1097.457031 L 821.597656 1095.515625 L 824.582031 1093.496094 L 827.59375 1090.542969 L 827.464844 1086.027344 L 825.757812 1080.921875 L 825.222656 1076.605469 L 827.828125 1073.878906 L 832.433594 1071.203125 L 837.34375 1067.058594 L 841.757812 1062.316406 L 845.097656 1058.152344 L 846.722656 1054.574219 L 845.984375 1051.296875 L 842.6875 1048.183594 L 838.414062 1045.734375 L 835.101562 1044.25 L 834.269531 1042.554688 L 837.34375 1039.113281 L 844.644531 1033.109375 L 852.058594 1026.574219 L 855.71875 1021.515625 L 857.148438 1017.042969 L 858.582031 1011.941406 L 859.691406 1006.550781 L 859.519531 1001.625 L 857.515625 997.726562 L 854.78125 994.726562 L 852.710938 992.339844 L 852.242188 990.378906 L 854.1875 988.691406 L 858.640625 987.074219 L 862.757812 985.15625 L 863.761719 982.527344 L 862.066406 978.816406 L 858.988281 973.816406 L 856.285156 968.003906 L 855.835938 962.019531 L 858.648438 956.316406 L 862.324219 950.613281 L 864.171875 944.667969 L 863.855469 939.144531 L 861.617188 934.949219 L 858.175781 932.582031 L 856.167969 930.976562 L 857.910156 929.015625 L 862.570312 926.941406 L 868.417969 925.136719 L 873.3125 923.1875 L 875.03125 920.484375 L 872.265625 916.4375 L 867.429688 910.554688 L 863.328125 902.777344 L 860.617188 894.707031 L 859.433594 888.347656 L 859.753906 884.972656 L 860.996094 882.871094 L 862.296875 880.128906 L 862.1875 876.945312 L 859.664062 873.9375 L 856.21875 871.324219 L 853.949219 869.199219 L 854.355469 867.523438 L 856.519531 865.664062 L 858.964844 863.03125 L 860.425781 859.722656 L 859.683594 856.03125 L 856.117188 852.101562 L 851.46875 847.507812 L 847.679688 841.824219 L 845.054688 835.179688 L 843.335938 827.890625 L 841.558594 820.492188 L 838.59375 813.550781 L 833.496094 807.695312 L 826.050781 803.691406 L 816.582031 802.011719 L 806.800781 801.710938 L 798.769531 801.492188 L 793.902344 800.296875 L 791.046875 798.039062 L 788.671875 795.035156 L 786.269531 792.265625 L 783.667969 790.632812 L 781.019531 789.984375 L 778.550781 789.914062 L 776.265625 790 L 773.277344 789.691406 L 768.472656 788.628906 L 760.734375 787.214844 L 748.925781 786.054688 L 745.5 786.691406 "/>
</g>
</svg>
