<?xml version="1.0" encoding="UTF-8"?>
<svg xmlns="http://www.w3.org/2000/svg" xmlns:xlink="http://www.w3.org/1999/xlink" width="1428pt" height="1605pt" viewBox="0 0 1428 1605" version="1.1">
<g id="surface134">
<rect x="0" y="0" width="1428" height="1605" style="fill:rgb(100%,100%,100%);fill-opacity:1;stroke:none;"/>
<path style="fill:none;stroke-width:0.75;stroke-linecap:round;stroke-linejoin:round;stroke:rgb(0%,0%,0%);stroke-opacity:1;stroke-miterlimit:10;" d="M 324.320312 604.449219 L 321.253906 605.847656 L 319.433594 606.875 L 316.867188 607.949219 L 311.554688 609.488281 L 302.117188 611.816406 L 289.671875 614.808594 L 275.941406 618.242188 L 262.65625 621.894531 L 251.550781 625.535156 L 243.878906 629 L 239.007812 632.3125 L 235.832031 635.566406 L 233.242188 638.84375 L 230.328125 642.207031 L 226.976562 645.625 L 223.269531 649.050781 L 219.285156 652.425781 L 215.109375 655.699219 L 210.839844 658.835938 L 206.628906 661.867188 L 202.660156 664.828125 L 199.097656 667.769531 L 196.125 670.730469 L 193.796875 673.753906 L 191.707031 676.902344 L 189.34375 680.226562 L 186.1875 683.785156 L 181.890625 687.652344 L 176.785156 691.96875 L 171.375 696.90625 L 166.15625 702.617188 L 161.632812 709.273438 L 158.164062 716.871094 L 155.546875 724.796875 L 153.429688 732.273438 L 151.460938 738.519531 L 149.363281 742.984375 L 147.109375 745.992188 L 144.75 748.109375 L 142.324219 749.882812 L 139.882812 751.875 L 137.484375 754.5 L 135.269531 757.65625 L 133.390625 761.097656 L 132.011719 764.585938 L 131.28125 767.882812 L 131.28125 770.808594 L 131.769531 773.425781 L 132.417969 775.863281 L 132.914062 778.253906 L 132.988281 780.710938 L 132.609375 783.289062 L 131.808594 786.046875 L 130.609375 789.019531 L 129.039062 792.261719 L 127.144531 795.835938 L 125.066406 799.898438 L 122.953125 804.617188 L 120.960938 810.167969 L 119.191406 816.632812 L 117.519531 823.761719 L 115.761719 831.214844 L 113.742188 838.660156 L 111.277344 845.75 L 108.296875 852.222656 L 105.167969 858.050781 L 102.371094 863.289062 L 100.382812 867.980469 L 99.679688 872.175781 L 100.515625 875.925781 L 102.242188 879.300781 L 103.984375 882.371094 L 104.867188 885.210938 L 104.273438 887.9375 L 102.605469 890.824219 L 100.519531 894.191406 L 98.667969 898.355469 L 97.714844 903.636719 L 98.101562 910.234375 L 99.464844 917.882812 L 101.222656 926.191406 L 102.796875 934.78125 L 103.730469 943.308594 L 104.078125 951.613281 L 104.015625 959.574219 L 103.710938 967.070312 L 103.347656 973.992188 L 103.089844 980.285156 L 103.078125 986.1875 L 103.449219 991.996094 L 104.335938 998.023438 L 105.871094 1004.566406 L 108.09375 1011.789062 L 110.628906 1019.296875 L 113.015625 1026.546875 L 114.78125 1033.007812 L 115.609375 1038.285156 L 115.765625 1042.5625 L 115.65625 1046.183594 L 115.707031 1049.480469 L 116.320312 1052.789062 L 117.789062 1056.410156 L 119.878906 1060.480469 L 122.234375 1065.121094 L 124.496094 1070.433594 L 126.417969 1076.4375 L 128.203125 1082.8125 L 130.160156 1089.144531 L 132.597656 1095.019531 L 135.828125 1100.023438 L 139.980469 1103.875 L 144.433594 1106.8125 L 148.386719 1109.210938 L 151.042969 1111.429688 L 151.859375 1113.78125 L 151.347656 1116.316406 L 150.28125 1119.019531 L 149.441406 1121.878906 L 149.59375 1124.875 L 151.296875 1128 L 154.203125 1131.222656 L 157.75 1134.523438 L 161.371094 1137.867188 L 164.5 1141.230469 L 166.738281 1144.585938 L 168.351562 1147.910156 L 169.777344 1151.171875 L 171.441406 1154.351562 L 173.675781 1157.4375 L 176.363281 1160.535156 L 179.277344 1163.753906 L 182.199219 1167.21875 L 184.902344 1171.046875 L 187.292969 1175.328125 L 189.777344 1180.042969 L 192.890625 1185.144531 L 197.175781 1190.582031 L 203.164062 1196.3125 L 211.140625 1202.25 L 220.375 1208.144531 L 229.878906 1213.722656 L 238.671875 1218.703125 L 245.972656 1222.832031 L 251.835938 1226.011719 L 256.53125 1228.171875 L 260.3125 1229.234375 L 263.453125 1229.140625 L 266.179688 1227.933594 L 268.609375 1226.171875 L 270.824219 1224.527344 L 272.914062 1223.675781 L 275.023438 1224.113281 L 277.546875 1225.609375 L 280.941406 1227.746094 L 285.664062 1230.109375 L 292.171875 1232.289062 L 300.757812 1233.894531 L 311.066406 1234.652344 L 322.566406 1234.300781 L 334.738281 1232.597656 L 347.0625 1229.28125 L 359.070312 1224.261719 L 370.554688 1218.058594 L 381.363281 1211.359375 L 391.34375 1204.84375 L 400.34375 1199.0625 L 408.179688 1194.03125 L 414.664062 1189.644531 L 419.613281 1185.792969 L 422.835938 1182.359375 L 424.367188 1179.289062 L 425.082031 1176.710938 L 426.078125 1174.808594 L 428.457031 1173.761719 L 432.976562 1173.625 L 439.097656 1173.898438 L 445.941406 1173.964844 L 452.625 1173.199219 L 458.28125 1170.976562 L 462.285156 1166.875 L 465.066406 1161.308594 L 467.300781 1154.886719 L 469.671875 1148.230469 L 472.863281 1141.949219 L 477.332031 1136.652344 L 482.644531 1132.90625 L 488.144531 1131.277344 L 493.171875 1132.324219 L 497.1875 1136.328125 L 500.136719 1142.453125 L 502.074219 1149.585938 L 503.0625 1156.613281 L 503.164062 1162.425781 L 502.507812 1166.304688 L 501.519531 1169.167969 L 500.699219 1172.320312 L 500.539062 1177.082031 L 501.390625 1184.355469 L 503.007812 1193.398438 L 504.996094 1203.0625 L 506.960938 1212.199219 L 508.503906 1219.660156 L 509.476562 1224.675781 L 510.722656 1228.011719 L 513.324219 1230.808594 L 518.367188 1234.21875 L 526.527344 1239.027344 L 536.816406 1244.589844 L 547.851562 1249.910156 L 558.234375 1253.984375 L 566.570312 1255.816406 L 572.011719 1254.707031 L 575.871094 1251.191406 L 579.992188 1246.101562 L 586.230469 1240.277344 L 596.433594 1234.554688 L 611.75 1229.621094 L 630.476562 1225.589844 L 650.203125 1222.4375 L 668.519531 1220.125 L 683.5 1218.566406 L 695.152344 1217.453125 L 703.957031 1216.414062 L 710.398438 1215.082031 L 714.964844 1213.085938 L 718.195312 1210.1875 L 720.8125 1206.628906 L 723.601562 1202.789062 L 727.34375 1199.042969 L 732.613281 1195.671875 L 739.160156 1192.609375 L 746.53125 1189.699219 L 754.269531 1186.78125 L 761.914062 1183.703125 L 769.144531 1180.335938 L 776.144531 1176.671875 L 783.226562 1172.738281 L 790.707031 1168.554688 L 798.898438 1164.148438 L 807.9375 1159.566406 L 817.285156 1154.945312 L 826.214844 1150.441406 L 834.007812 1146.214844 L 840.113281 1142.3125 L 844.675781 1138.339844 L 848.003906 1133.78125 L 850.414062 1128.128906 L 852.214844 1120.867188 L 853.667969 1111.789062 L 854.820312 1101.875 L 855.660156 1092.402344 L 856.1875 1084.660156 L 856.421875 1079.5625 L 856.523438 1076.597656 L 856.691406 1074.886719 L 857.117188 1073.554688 L 857.988281 1071.71875 L 859.417969 1068.726562 L 861.171875 1064.773438 L 862.933594 1060.28125 L 864.375 1055.667969 L 865.183594 1051.347656 L 865.179688 1047.617188 L 864.757812 1044.265625 L 864.453125 1040.945312 L 864.800781 1037.324219 L 866.191406 1033.15625 L 868.398438 1028.578125 L 871.050781 1023.835938 L 873.773438 1019.15625 L 876.199219 1014.78125 L 878.019531 1010.902344 L 879.199219 1007.535156 L 879.765625 1004.648438 L 879.753906 1002.222656 L 879.1875 1000.222656 L 878.160156 998.582031 L 876.992188 997.09375 L 876.054688 995.503906 L 875.730469 993.5625 L 876.265625 991.078125 L 877.421875 988.128906 L 878.828125 984.847656 L 880.125 981.371094 L 880.9375 977.839844 L 881.023438 974.335938 L 880.582031 970.71875 L 879.941406 966.792969 L 879.421875 962.371094 L 879.296875 957.339844 L 879.609375 951.949219 L 880.347656 946.535156 L 881.507812 941.433594 L 883.074219 936.972656 L 885 933.386719 L 887.085938 930.457031 L 889.085938 927.871094 L 890.765625 925.304688 L 891.878906 922.4375 L 892.253906 919.019531 L 891.957031 915.082031 L 891.125 910.71875 L 889.898438 906.03125 L 888.417969 901.140625 L 886.890625 896.285156 L 885.527344 891.730469 L 884.546875 887.738281 L 884.160156 884.578125 L 884.480469 882.351562 L 885.191406 880.53125 L 885.886719 878.429688 L 886.144531 875.363281 L 885.644531 870.863281 L 884.441406 865.320312 L 882.675781 859.355469 L 880.503906 853.582031 L 878.066406 848.617188 L 875.519531 844.859375 L 873.070312 841.894531 L 870.941406 839.089844 L 869.351562 835.816406 L 868.511719 831.441406 L 868.46875 825.570312 L 868.550781 818.734375 L 867.917969 811.699219 L 865.714844 805.226562 L 861.394531 799.902344 L 855.589844 795.617188 L 849.214844 792.066406 L 843.199219 788.957031 L 838.460938 785.996094 L 835.648438 782.976562 L 834.257812 780.023438 L 833.519531 777.371094 L 832.660156 775.230469 L 831.035156 773.75 L 828.558594 772.75 L 825.269531 771.976562 L 821.210938 771.171875 L 816.429688 770.078125 L 810.914062 768.5625 L 804.425781 766.976562 L 796.671875 765.789062 L 787.363281 765.472656 L 776.203125 766.503906 L 763.125 769.179688 L 748.976562 773.152344 L 734.820312 777.882812 L 721.722656 782.851562 L 710.546875 787.628906 L 701.300781 792.203125 L 693.78125 796.65625 L 687.785156 801.070312 L 683.117188 805.53125 L 679.550781 810.097656 L 676.785156 814.710938 L 674.492188 819.28125 L 672.347656 823.726562 L 670.097656 827.976562 L 667.730469 832 L 665.316406 835.796875 L 662.914062 839.347656 L 660.585938 842.652344 L 658.386719 845.707031 L 656.304688 848.554688 L 654.328125 851.246094 L 652.441406 853.839844 L 650.621094 856.382812 L 648.863281 858.917969 L 647.199219 861.421875 L 645.675781 863.863281 L 644.332031 866.199219 L 643.125 868.476562 L 641.667969 871.011719 L 639.480469 874.207031 L 636.089844 878.457031 L 631.019531 884.160156 L 624.117188 891.476562 L 616.53125 899.652344 L 609.734375 907.695312 L 605.191406 914.613281 L 603.917969 919.671875 L 605.0625 923.121094 L 607.3125 925.476562 L 609.351562 927.238281 L 609.867188 928.917969 L 607.933594 930.953125 L 604.191406 933.476562 L 599.65625 936.558594 L 595.359375 940.265625 L 592.042969 944.613281 L 589.347656 949.417969 L 586.644531 954.453125 L 583.289062 959.484375 L 578.65625 964.28125 L 572.351562 968.597656 L 564.988281 972.125 L 557.425781 974.550781 L 550.523438 975.554688 L 545.136719 974.8125 L 541.855469 972.1875 L 540.164062 968.25 L 539.285156 963.746094 L 538.429688 959.429688 L 536.992188 955.988281 L 535.085938 953.871094 L 533.015625 953.46875 L 531.066406 955.167969 L 529.535156 959.359375 L 528.671875 966.152344 L 528.546875 974.546875 L 529.183594 983.265625 L 530.605469 991.023438 L 532.742188 996.875 L 535.183594 1001.1875 L 537.421875 1004.660156 L 538.949219 1007.988281 L 539.261719 1011.878906 L 537.996094 1016.878906 L 535.34375 1022.925781 L 531.640625 1029.8125 L 527.226562 1037.328125 L 522.4375 1045.261719 L 517.589844 1053.371094 L 512.953125 1061.257812 L 508.769531 1068.496094 L 505.289062 1074.652344 L 502.703125 1079.457031 L 500.949219 1083.277344 L 499.917969 1086.632812 L 499.492188 1090.050781 L 499.554688 1094.042969 L 499.933594 1098.933594 L 500.238281 1104.175781 L 500.019531 1109.027344 L 498.832031 1112.746094 L 496.398438 1114.710938 L 493.125 1114.871094 L 489.589844 1113.292969 L 486.378906 1110.058594 L 484.066406 1105.234375 L 483.074219 1098.976562 L 483.214844 1091.714844 L 484.132812 1083.957031 L 485.480469 1076.214844 L 486.902344 1068.988281 L 488.144531 1062.675781 L 489.324219 1057.226562 L 490.648438 1052.46875 L 492.324219 1048.238281 L 494.488281 1044.347656 L 497 1040.511719 L 499.636719 1036.429688 L 502.1875 1031.789062 L 504.433594 1026.289062 L 506.179688 1019.800781 L 507.335938 1012.886719 L 507.820312 1006.292969 L 507.5625 1000.765625 L 506.554688 996.828125 L 505.050781 994.167969 L 503.367188 992.25 L 501.824219 990.546875 L 500.742188 988.523438 L 500.347656 985.753906 L 500.503906 982.222656 L 500.984375 978.027344 L 501.550781 973.253906 L 501.980469 967.988281 L 502.105469 962.382812 L 501.984375 956.769531 L 501.757812 951.550781 L 501.546875 947.121094 L 501.453125 943.738281 L 501.480469 941.15625 L 501.585938 938.984375 L 501.746094 936.839844 L 501.929688 934.339844 L 502.058594 931.210938 L 501.894531 927.648438 L 501.148438 923.960938 L 499.542969 920.457031 L 496.933594 917.351562 L 493.734375 914.5 L 490.515625 911.65625 L 487.832031 908.574219 L 486.253906 905.019531 L 486.160156 900.839844 L 487.234375 896.257812 L 488.980469 891.601562 L 490.90625 887.183594 L 492.511719 883.328125 L 493.433594 880.234375 L 493.792969 877.644531 L 493.84375 875.183594 L 493.835938 872.476562 L 493.957031 869.226562 L 494.085938 865.492188 L 494.042969 861.417969 L 493.644531 857.140625 L 492.703125 852.804688 L 491.140625 848.546875 L 489.3125 844.464844 L 487.675781 840.660156 L 486.691406 837.226562 L 486.699219 834.1875 L 487.535156 831.277344 L 488.925781 828.167969 L 490.582031 824.511719 L 492.222656 819.980469 L 493.609375 814.375 L 494.652344 808.089844 L 495.292969 801.65625 L 495.480469 795.605469 L 495.164062 790.472656 L 494.28125 786.539062 L 492.734375 783.085938 L 490.40625 779.144531 L 487.1875 773.742188 L 483.082031 766.238281 L 478.523438 757.285156 L 474.0625 747.863281 L 470.242188 738.953125 L 467.609375 731.535156 L 466.480469 726.277344 L 466.214844 722.613281 L 465.941406 719.664062 L 464.78125 716.546875 L 461.863281 712.390625 L 456.640625 706.585938 L 449.84375 699.589844 L 442.535156 692.148438 L 435.773438 684.996094 L 430.386719 678.710938 L 426.285156 673.253906 L 423.140625 668.417969 L 420.628906 664.011719 L 418.421875 659.835938 L 416.261719 655.734375 L 414.113281 651.769531 L 412.003906 648.050781 L 409.960938 644.675781 L 407.976562 641.703125 L 405.875 638.957031 L 403.441406 636.195312 L 400.464844 633.195312 L 396.730469 629.714844 L 391.832031 625.566406 L 384.597656 620.738281 L 373.664062 615.246094 L 357.664062 609.121094 L 335.234375 602.390625 L 324.320312 604.449219 "/>
<path style="fill:none;stroke-width:0.75;stroke-linecap:round;stroke-linejoin:round;stroke:rgb(0%,0%,0%);stroke-opacity:1;stroke-miterlimit:10;" d="M 316.792969 606.726562 L 314.988281 608.15625 L 312.445312 609.667969 L 305.546875 611.695312 L 292.054688 614.535156 L 275.292969 618.003906 L 259.972656 621.78125 L 249.710938 625.582031 L 243.691406 629.242188 L 239.996094 632.617188 L 236.964844 635.660156 L 233.929688 638.613281 L 230.488281 641.8125 L 226.394531 645.472656 L 222.089844 649.304688 L 218.171875 652.914062 L 215.003906 656.011719 L 211.996094 658.765625 L 208.304688 661.453125 L 203.460938 664.308594 L 198.449219 667.375 L 194.628906 670.648438 L 192.851562 674.089844 L 191.96875 677.578125 L 190.34375 680.949219 L 186.765625 684.144531 L 181.769531 687.445312 L 176.328125 691.242188 L 171.226562 695.886719 L 166.535156 701.699219 L 162.140625 708.964844 L 158.035156 717.671875 L 154.605469 726.539062 L 152.339844 733.976562 L 151.410156 738.855469 L 150.742188 741.863281 L 148.929688 744.148438 L 145.121094 746.652344 L 140.644531 749.476562 L 137.355469 752.515625 L 136.5 755.65625 L 136.832031 758.773438 L 136.472656 761.730469 L 134.160156 764.453125 L 131.042969 767.113281 L 128.875 769.949219 L 128.933594 773.085938 L 130.605469 776.21875 L 132.808594 778.945312 L 134.546875 781.03125 L 135.183594 782.941406 L 134.179688 785.316406 L 131.320312 788.601562 L 127.691406 792.503906 L 124.699219 796.546875 L 123.332031 800.433594 L 122.882812 804.613281 L 122.226562 809.730469 L 120.511719 816.210938 L 118.039062 823.65625 L 115.382812 831.453125 L 112.980469 839.046875 L 110.714844 846.113281 L 108.332031 852.382812 L 105.679688 857.714844 L 103.0625 862.449219 L 100.882812 867.066406 L 99.53125 871.871094 L 99.367188 876.523438 L 100.71875 880.527344 L 103.5625 883.546875 L 106.402344 885.925781 L 107.363281 888.15625 L 105.253906 890.652344 L 101.511719 893.421875 L 98.246094 896.382812 L 97.09375 899.558594 L 97.808594 903.40625 L 99.65625 908.488281 L 101.90625 915.101562 L 103.75 922.402344 L 104.367188 929.28125 L 103.3125 935.042969 L 101.625 940.695312 L 100.703125 947.648438 L 101.523438 956.78125 L 103.292969 966.78125 L 104.789062 975.789062 L 105.109375 982.464844 L 104.640625 987.5625 L 104.097656 992.351562 L 104.101562 997.867188 L 104.945312 1004.179688 L 106.824219 1011.125 L 109.75 1018.472656 L 112.925781 1025.808594 L 115.367188 1032.652344 L 116.359375 1038.601562 L 116.308594 1043.507812 L 115.878906 1047.304688 L 115.679688 1050.070312 L 116.054688 1052.496094 L 117.273438 1055.433594 L 119.460938 1059.542969 L 122.148438 1064.710938 L 124.71875 1070.632812 L 126.726562 1076.996094 L 128.421875 1083.441406 L 130.238281 1089.597656 L 132.597656 1095.09375 L 135.800781 1099.652344 L 139.671875 1103.378906 L 143.894531 1106.484375 L 148.066406 1109.160156 L 151.363281 1111.597656 L 152.867188 1113.976562 L 152.078125 1116.453125 L 150.175781 1119.078125 L 148.753906 1121.882812 L 149.074219 1124.875 L 151.007812 1128.007812 L 154.101562 1131.203125 L 157.851562 1134.410156 L 161.636719 1137.679688 L 164.789062 1141.089844 L 166.867188 1144.664062 L 168.289062 1148.21875 L 169.679688 1151.519531 L 171.542969 1154.421875 L 173.832031 1157.179688 L 176.367188 1160.128906 L 179.007812 1163.53125 L 181.730469 1167.324219 L 184.5625 1171.363281 L 187.519531 1175.558594 L 190.59375 1180.027344 L 193.789062 1184.941406 L 197.296875 1190.414062 L 202.101562 1196.285156 L 209.371094 1202.332031 L 219.660156 1208.3125 L 231.007812 1213.925781 L 240.816406 1218.84375 L 247.21875 1222.8125 L 251.21875 1225.796875 L 254.542969 1227.839844 L 258.523438 1228.953125 L 262.917969 1229.101562 L 267.097656 1228.222656 L 270.523438 1226.4375 L 272.996094 1224.535156 L 274.414062 1223.476562 L 274.917969 1223.972656 L 275.65625 1225.683594 L 278.023438 1228.019531 L 283.128906 1230.421875 L 290.921875 1232.492188 L 301.0625 1233.863281 L 312.941406 1234.246094 L 324.855469 1233.671875 L 334.839844 1232.257812 L 341.472656 1230.164062 L 345.542969 1227.75 L 348.386719 1225.421875 L 351.136719 1223.492188 L 354.074219 1221.886719 L 357.28125 1220.429688 L 360.769531 1219.003906 L 364.316406 1217.679688 L 367.628906 1216.582031 L 370.609375 1215.710938 L 373.898438 1214.609375 L 378.328125 1212.691406 L 384.4375 1209.566406 L 391.578125 1205.578125 L 398.824219 1201.269531 L 405.367188 1197.085938 L 410.910156 1193.167969 L 415.289062 1189.566406 L 418.4375 1186.28125 L 420.738281 1183.144531 L 422.671875 1179.929688 L 424.671875 1176.613281 L 426.949219 1173.933594 L 429.667969 1172.820312 L 432.914062 1173.785156 L 436.464844 1175.679688 L 440.027344 1176.925781 L 443.371094 1176.320312 L 446.507812 1174.101562 L 449.503906 1170.867188 L 452.378906 1167.171875 L 454.960938 1163.390625 L 457.027344 1159.855469 L 458.476562 1156.785156 L 459.679688 1153.964844 L 461.132812 1151.078125 L 463.167969 1147.878906 L 465.488281 1144.433594 L 467.644531 1140.871094 L 469.292969 1137.28125 L 470.578125 1133.515625 L 471.761719 1129.378906 L 473.046875 1124.71875 L 474.421875 1119.578125 L 475.816406 1114.046875 L 477.167969 1108.261719 L 478.496094 1102.585938 L 479.820312 1097.429688 L 481.160156 1092.957031 L 482.507812 1088.367188 L 483.855469 1082.609375 L 485.195312 1074.914062 L 486.53125 1065.632812 L 487.867188 1055.394531 L 489.210938 1044.835938 L 490.566406 1034.617188 L 491.917969 1025.550781 L 493.253906 1018.480469 L 494.570312 1013.808594 L 495.90625 1010.136719 L 497.316406 1005.621094 L 498.789062 998.9375 L 500.089844 990.808594 L 500.921875 982.476562 L 501.097656 974.914062 L 500.847656 968 L 500.515625 961.347656 L 500.378906 954.648438 L 500.457031 947.882812 L 500.707031 941.101562 L 501.007812 934.4375 L 500.90625 928.347656 L 499.878906 923.367188 L 497.621094 919.824219 L 494.710938 917.21875 L 491.960938 914.835938 L 489.984375 912.078125 L 488.660156 908.785156 L 487.683594 904.902344 L 486.886719 900.457031 L 486.664062 895.785156 L 487.542969 891.300781 L 489.789062 887.332031 L 492.546875 883.886719 L 494.695312 880.894531 L 495.378906 878.167969 L 494.820312 875.085938 L 493.527344 870.902344 L 491.941406 865.121094 L 490.328125 858.207031 L 488.894531 850.871094 L 487.820312 843.679688 L 487.167969 836.597656 L 486.949219 829.453125 L 487.113281 822.160156 L 487.257812 814.953125 L 486.910156 808.160156 L 485.75 802.0625 L 484.078125 796.785156 L 482.359375 792.40625 L 480.941406 788.9375 L 479.738281 786.113281 L 478.554688 783.601562 L 477.242188 781.101562 L 475.839844 778.441406 L 474.429688 775.464844 L 473.074219 772.074219 L 471.753906 768.328125 L 470.441406 764.324219 L 469.105469 760.183594 L 467.753906 756.121094 L 466.402344 752.359375 L 465.0625 749.066406 L 463.726562 746.136719 L 462.382812 743.398438 L 461.027344 740.699219 L 459.667969 737.953125 L 458.332031 735.109375 L 457.027344 732.09375 L 455.75 728.796875 L 454.480469 725.09375 L 453.167969 720.949219 L 451.550781 716.6875 L 449.324219 712.71875 L 446.222656 709.269531 L 442.074219 705.890625 L 436.738281 701.960938 L 430.3125 697.066406 L 423.871094 691.683594 L 418.714844 686.5 L 415.777344 681.996094 L 414.492188 677.773438 L 413.917969 673.21875 L 413.238281 667.914062 L 412.144531 662.203125 L 410.449219 656.625 L 408.03125 651.640625 L 405.054688 647.390625 L 401.742188 643.945312 L 398.300781 641.316406 L 394.839844 639.359375 L 391.4375 637.867188 L 388.144531 636.636719 L 384.855469 635.398438 L 381.410156 633.886719 L 377.707031 631.894531 L 373.808594 629.496094 L 369.824219 626.847656 L 365.832031 624.082031 L 361.808594 621.277344 L 357.699219 618.507812 L 353.464844 615.847656 L 349.121094 613.410156 L 344.691406 611.320312 L 340.203125 609.679688 L 335.679688 608.492188 L 331.140625 607.730469 L 326.65625 607.351562 L 322.511719 607.1875 L 319.042969 607.050781 L 316.585938 606.753906 L 316.792969 606.726562 "/>
<path style="fill:none;stroke-width:0.75;stroke-linecap:round;stroke-linejoin:round;stroke:rgb(0%,0%,0%);stroke-opacity:1;stroke-miterlimit:10;" d="M 793.394531 765.066406 L 784.667969 766.589844 L 753.242188 768.671875 L 743.082031 772.617188 L 741.980469 777.769531 L 729.75 783.128906 L 710.371094 788.246094 L 693.871094 792.824219 L 687.402344 796.742188 L 686.613281 800.632812 L 685.539062 805.113281 L 683.242188 809.992188 L 680.042969 814.886719 L 676.261719 819.484375 L 672.257812 823.820312 L 668.398438 827.976562 L 665.121094 831.949219 L 662.886719 835.71875 L 661.886719 839.257812 L 661.261719 842.558594 L 660.101562 845.632812 L 658.339844 848.578125 L 656.109375 851.492188 L 653.453125 854.378906 L 650.011719 856.816406 L 645.910156 858.554688 L 643.625 860.4375 L 645.074219 863.265625 L 647.585938 866.5625 L 647.359375 869.519531 L 642.132812 871.699219 L 635.847656 874.09375 L 632.574219 877.851562 L 630.6875 883.304688 L 627.140625 890.574219 L 619.96875 899.4375 L 611.574219 908.230469 L 604.96875 915.289062 L 601.269531 920.40625 L 601.117188 923.730469 L 604.542969 925.574219 L 609.09375 926.867188 L 612.046875 928.519531 L 612.035156 930.6875 L 608.023438 933.34375 L 600.003906 936.480469 L 592.054688 940.179688 L 588.089844 944.507812 L 587.296875 949.359375 L 587.597656 954.546875 L 586.617188 959.699219 L 581.925781 964.386719 L 572.378906 968.304688 L 562.105469 971.652344 L 555.269531 974.539062 L 550.96875 976.21875 L 547.042969 975.75 L 542.175781 972.609375 L 538.445312 968.015625 L 537.890625 963.394531 L 538.964844 959.292969 L 539.246094 956.023438 L 537.058594 953.894531 L 533.800781 953.132812 L 531.261719 953.902344 L 529.804688 956.21875 L 529.429688 960.035156 L 529.871094 965.445312 L 529.796875 973.019531 L 528.410156 982.789062 L 528.09375 992.121094 L 531.09375 998.476562 L 535.855469 1002.335938 L 539.875 1004.933594 L 541.210938 1007.472656 L 540.109375 1010.992188 L 537.351562 1016.214844 L 533.625 1022.710938 L 529.582031 1029.765625 L 525.824219 1036.949219 L 522.722656 1044.96875 L 520.464844 1054.15625 L 518.785156 1062.257812 L 517.296875 1066.371094 L 515.742188 1066.121094 L 514.378906 1071.222656 L 513.554688 1090.03125 L 513.457031 1115.375 L 514.21875 1136.203125 L 515.824219 1144.925781 L 517.601562 1147.824219 L 518.925781 1152.648438 L 520.042969 1159.140625 L 521.320312 1165.378906 L 522.730469 1170.8125 L 524.15625 1175.214844 L 525.511719 1178.503906 L 526.804688 1181.097656 L 528.082031 1183.503906 L 529.410156 1186.03125 L 530.851562 1188.941406 L 532.566406 1192.445312 L 535.109375 1196.511719 L 538.898438 1200.984375 L 543.484375 1205.417969 L 548.191406 1209.296875 L 552.5 1212.277344 L 556.476562 1214.699219 L 560.273438 1216.964844 L 563.746094 1219.039062 L 566.683594 1220.765625 L 569.035156 1222.074219 L 571.441406 1223.191406 L 574.492188 1224.390625 L 577.929688 1225.773438 L 581.488281 1227.367188 L 585.789062 1228.957031 L 591.660156 1230.28125 L 599.132812 1230.984375 L 605.027344 1230.328125 L 607.5625 1227.847656 L 613.816406 1224.484375 L 633.0625 1221.546875 L 668.828125 1219.953125 L 701.648438 1219.101562 L 712.71875 1218.148438 L 708.933594 1216.855469 L 703.609375 1215.128906 L 706.570312 1212.882812 L 713.691406 1210.066406 L 719.015625 1206.691406 L 723.226562 1202.960938 L 728.664062 1199.136719 L 736.46875 1195.472656 L 742.996094 1192.199219 L 745.476562 1189.429688 L 749.398438 1186.828125 L 759.953125 1183.996094 L 772.839844 1180.746094 L 781.390625 1176.9375 L 782.03125 1172.546875 L 783.5625 1168.046875 L 794.609375 1163.863281 L 810.683594 1159.808594 L 824.019531 1155.542969 L 829.40625 1150.839844 L 831.816406 1145.910156 L 836.996094 1141.101562 L 843.625 1136.828125 L 848.609375 1133.519531 L 850.03125 1130.777344 L 850.703125 1124.902344 L 853.527344 1113.003906 L 857.109375 1098.742188 L 858.980469 1087.421875 L 857.574219 1082.636719 L 854.96875 1081.140625 L 853.632812 1079.023438 L 854.0625 1076.546875 L 856.082031 1074.59375 L 858.816406 1072.378906 L 861.210938 1068.6875 L 862.558594 1062.992188 L 863.5625 1057.460938 L 864.921875 1054.191406 L 865.949219 1052.261719 L 865.597656 1050.003906 L 863.449219 1046.191406 L 861.496094 1041.386719 L 861.863281 1036.464844 L 864.742188 1031.804688 L 869.835938 1027.652344 L 876.148438 1024.046875 L 879.90625 1020.179688 L 878.148438 1015.382812 L 873.953125 1010.460938 L 871.90625 1006.574219 L 875.046875 1004.429688 L 880.199219 1002.921875 L 883.332031 1000.859375 L 883.230469 998.585938 L 879.894531 996.632812 L 875.367188 994.859375 L 872.203125 992.953125 L 872.375 990.722656 L 875.5 988.4375 L 880.335938 986.273438 L 884.457031 983.496094 L 885.15625 979.148438 L 881.078125 972.941406 L 876.316406 967.222656 L 875.140625 964.144531 L 877.015625 962.378906 L 880.226562 959.722656 L 883.191406 954.628906 L 884.894531 948.136719 L 884.773438 941.742188 L 883.472656 936.109375 L 881.929688 931.703125 L 881.363281 928.78125 L 884.0625 926.742188 L 891.019531 924.886719 L 896.972656 922.894531 L 896.90625 920.492188 L 893.003906 917.164062 L 889.253906 912.335938 L 888.425781 905.859375 L 888.464844 899.359375 L 886.921875 894.4375 L 884.613281 890.882812 L 883.179688 888.023438 L 883.730469 885.332031 L 885.269531 882.847656 L 886.515625 880.640625 L 887.070312 878.335938 L 886.769531 875.441406 L 885.542969 871.496094 L 883.683594 866.117188 L 881.542969 859.292969 L 879.308594 852.40625 L 877.125 847.171875 L 875.199219 844.605469 L 873.964844 842.878906 L 873.554688 839.972656 L 872.644531 835.914062 L 870.046875 831.140625 L 866.640625 825.613281 L 863.808594 819.191406 L 862.625 811.96875 L 862.914062 805.0625 L 863.785156 799.523438 L 862.773438 795.207031 L 857 791.652344 L 845.402344 788.507812 L 834.117188 785.785156 L 829.230469 783.492188 L 829.429688 781.226562 L 831.546875 778.480469 L 832.992188 775.101562 L 833.476562 772.378906 L 832.980469 771.476562 L 830.292969 771.683594 L 823.894531 771.8125 L 813.546875 770.953125 L 804.085938 769.292969 L 799.757812 767.304688 L 797.359375 765.523438 L 791.84375 764.515625 L 793.394531 765.066406 "/>
</g>
</svg>
