<?xml version="1.0" encoding="UTF-8"?>
<svg xmlns="http://www.w3.org/2000/svg" xmlns:xlink="http://www.w3.org/1999/xlink" width="1428pt" height="1605pt" viewBox="0 0 1428 1605" version="1.1">
<g id="surface139">
<rect x="0" y="0" width="1428" height="1605" style="fill:rgb(100%,100%,100%);fill-opacity:1;stroke:none;"/>
<path style="fill:none;stroke-width:0.75;stroke-linecap:round;stroke-linejoin:round;stroke:rgb(0%,0%,0%);stroke-opacity:1;stroke-miterlimit:10;" d="M 329.191406 593.890625 L 325.621094 597.484375 L 319.402344 600.832031 L 311.039062 603.941406 L 301.03125 606.816406 L 289.988281 609.457031 L 278.882812 611.820312 L 268.792969 613.851562 L 260.792969 615.503906 L 255.570312 616.789062 L 252.269531 618.019531 L 249.648438 619.578125 L 246.457031 621.851562 L 241.769531 625.109375 L 235.910156 629.203125 L 229.523438 633.867188 L 223.242188 638.847656 L 217.710938 643.875 L 213.375 648.730469 L 209.863281 653.304688 L 206.617188 657.53125 L 203.070312 661.339844 L 198.828125 664.707031 L 194.160156 667.789062 L 189.496094 670.789062 L 185.269531 673.90625 L 181.785156 677.289062 L 178.804688 680.871094 L 175.953125 684.542969 L 172.863281 688.179688 L 169.273438 691.746094 L 165.347656 695.496094 L 161.363281 699.773438 L 157.589844 704.910156 L 154.3125 711.246094 L 151.675781 718.929688 L 149.347656 727.347656 L 146.867188 735.703125 L 143.777344 743.191406 L 139.8125 749.226562 L 135.46875 754.058594 L 131.445312 758.15625 L 128.425781 761.980469 L 126.90625 765.878906 L 126.59375 769.742188 L 126.996094 773.339844 L 127.628906 776.4375 L 128.0625 778.90625 L 128.167969 781.023438 L 127.878906 783.148438 L 127.136719 785.664062 L 125.878906 788.9375 L 124.078125 793.269531 L 121.871094 798.714844 L 119.421875 805.242188 L 116.902344 812.832031 L 114.445312 821.359375 L 112 830.28125 L 109.488281 838.933594 L 106.820312 846.675781 L 103.980469 853.03125 L 101.230469 858.273438 L 98.898438 862.855469 L 97.316406 867.234375 L 96.695312 871.761719 L 96.789062 876.429688 L 97.222656 881.125 L 97.632812 885.734375 L 97.644531 890.148438 L 97.035156 894.3125 L 96.117188 898.375 L 95.359375 902.542969 L 95.21875 907.019531 L 95.988281 912 L 97.289062 917.667969 L 98.574219 924.191406 L 99.289062 931.734375 L 99.066406 940.3125 L 98.207031 949.28125 L 97.199219 957.835938 L 96.527344 965.175781 L 96.554688 970.753906 L 97.222656 975.09375 L 98.351562 978.972656 L 99.761719 983.167969 L 101.277344 988.460938 L 102.746094 995.347656 L 104.128906 1003.191406 L 105.402344 1011.070312 L 106.546875 1018.066406 L 107.550781 1023.492188 L 108.4375 1027.605469 L 109.238281 1030.90625 L 109.980469 1033.886719 L 110.695312 1036.957031 L 111.449219 1040.160156 L 112.3125 1043.457031 L 113.347656 1046.808594 L 114.59375 1050.195312 L 115.960938 1053.664062 L 117.316406 1057.300781 L 118.539062 1061.175781 L 119.496094 1065.371094 L 120.121094 1069.910156 L 120.53125 1074.65625 L 120.914062 1079.417969 L 121.441406 1084.003906 L 122.296875 1088.273438 L 123.671875 1092.261719 L 125.761719 1096.054688 L 128.757812 1099.730469 L 132.734375 1103.371094 L 137.246094 1107.050781 L 141.734375 1110.839844 L 145.636719 1114.808594 L 148.546875 1119.011719 L 150.707031 1123.398438 L 152.507812 1127.917969 L 154.347656 1132.503906 L 156.625 1137.09375 L 159.613281 1141.644531 L 163.132812 1146.195312 L 166.871094 1150.8125 L 170.527344 1155.554688 L 173.855469 1160.476562 L 176.84375 1165.605469 L 179.539062 1170.957031 L 181.984375 1176.554688 L 184.285156 1182.378906 L 186.734375 1188.246094 L 189.683594 1193.933594 L 193.488281 1199.21875 L 198.488281 1203.878906 L 204.835938 1207.78125 L 211.832031 1211.171875 L 218.585938 1214.378906 L 224.199219 1217.738281 L 228.296875 1221.46875 L 232.597656 1225.324219 L 239.339844 1228.953125 L 250.769531 1231.988281 L 268.226562 1234.125 L 289.441406 1235.265625 L 311.25 1235.355469 L 330.484375 1234.34375 L 344.769531 1232.238281 L 354.890625 1229.257812 L 362.429688 1225.6875 L 368.964844 1221.808594 L 376.074219 1217.90625 L 384.867188 1214.1875 L 394.582031 1210.582031 L 403.996094 1206.941406 L 411.875 1203.125 L 417.351562 1199.066406 L 420.980469 1195.050781 L 423.671875 1191.425781 L 426.339844 1188.5625 L 429.691406 1186.683594 L 433.570312 1185.496094 L 437.617188 1184.582031 L 441.46875 1183.511719 L 444.867188 1181.945312 L 447.945312 1179.878906 L 450.933594 1177.386719 L 454.066406 1174.550781 L 457.574219 1171.441406 L 461.570312 1168.132812 L 465.6875 1164.648438 L 469.4375 1161.007812 L 472.339844 1157.238281 L 474.101562 1153.378906 L 475.238281 1149.601562 L 476.457031 1146.113281 L 478.472656 1143.105469 L 481.742188 1140.773438 L 485.742188 1139.285156 L 489.703125 1138.8125 L 492.84375 1139.511719 L 494.59375 1141.457031 L 495.164062 1144.328125 L 494.964844 1147.707031 L 494.414062 1151.183594 L 493.921875 1154.34375 L 493.800781 1156.984375 L 493.996094 1159.742188 L 494.347656 1163.476562 L 494.699219 1169.035156 L 494.945312 1176.894531 L 495.167969 1186.046875 L 495.507812 1195.097656 L 496.089844 1202.664062 L 497.039062 1207.792969 L 498.371094 1211.28125 L 500.097656 1214.359375 L 502.222656 1218.261719 L 504.734375 1223.867188 L 507.574219 1230.6875 L 510.664062 1237.867188 L 513.921875 1244.5625 L 517.277344 1249.925781 L 520.644531 1253.453125 L 523.921875 1255.988281 L 527.011719 1258.710938 L 529.804688 1262.804688 L 532.246094 1269.058594 L 534.449219 1276.695312 L 536.582031 1284.554688 L 538.804688 1291.457031 L 541.289062 1296.4375 L 544.246094 1299.300781 L 547.902344 1300.042969 L 552.480469 1298.667969 L 558.089844 1295.269531 L 564.410156 1290.316406 L 571 1284.378906 L 577.433594 1278.023438 L 583.269531 1271.8125 L 588.253906 1266.199219 L 592.875 1261.175781 L 597.789062 1256.617188 L 603.664062 1252.390625 L 611.027344 1248.402344 L 619.839844 1244.613281 L 629.929688 1241.019531 L 641.121094 1237.609375 L 653.25 1234.363281 L 666.132812 1231.207031 L 679.597656 1228.042969 L 693.472656 1224.78125 L 707.515625 1221.359375 L 721.230469 1217.792969 L 734.066406 1214.117188 L 745.457031 1210.378906 L 754.851562 1206.613281 L 761.902344 1202.867188 L 767.097656 1199.203125 L 771.144531 1195.703125 L 774.746094 1192.425781 L 778.546875 1189.410156 L 782.964844 1186.496094 L 788.347656 1183.496094 L 795.058594 1180.207031 L 803.242188 1176.503906 L 812.226562 1172.511719 L 821.117188 1168.425781 L 829.042969 1164.433594 L 835.113281 1160.730469 L 838.808594 1157.4375 L 841.039062 1154.398438 L 843.085938 1151.375 L 846.21875 1148.144531 L 851.3125 1144.527344 L 857.613281 1140.585938 L 863.96875 1136.429688 L 869.222656 1132.171875 L 872.496094 1127.882812 L 874.03125 1123.484375 L 874.332031 1118.859375 L 873.921875 1113.878906 L 873.242188 1108.5 L 872.507812 1102.980469 L 871.859375 1097.648438 L 871.4375 1092.824219 L 871.386719 1088.847656 L 871.8125 1085.910156 L 872.644531 1083.664062 L 873.773438 1081.644531 L 875.085938 1079.363281 L 876.46875 1076.472656 L 877.765625 1073.066406 L 878.820312 1069.363281 L 879.476562 1065.582031 L 879.632812 1061.882812 L 879.429688 1058.207031 L 879.066406 1054.441406 L 878.738281 1050.472656 L 878.636719 1046.234375 L 878.921875 1041.84375 L 879.746094 1037.472656 L 881.257812 1033.285156 L 883.613281 1029.453125 L 886.824219 1026.066406 L 890.371094 1022.90625 L 893.601562 1019.671875 L 895.859375 1016.074219 L 896.675781 1011.933594 L 896.304688 1007.542969 L 895.191406 1003.328125 L 893.777344 999.699219 L 892.464844 996.945312 L 891.507812 994.828125 L 891.121094 992.972656 L 891.523438 991.007812 L 892.800781 988.625 L 894.582031 985.738281 L 896.367188 982.328125 L 897.65625 978.367188 L 897.949219 973.84375 L 896.957031 968.789062 L 895.203125 963.503906 L 893.421875 958.351562 L 892.347656 953.695312 L 892.496094 949.792969 L 893.515625 946.515625 L 894.84375 943.628906 L 895.910156 940.894531 L 896.328125 938.136719 L 896.402344 935.351562 L 896.617188 932.601562 L 897.453125 929.933594 L 899.21875 927.355469 L 901.53125 924.667969 L 903.839844 921.632812 L 905.582031 918.003906 L 906.207031 913.53125 L 905.363281 908.082031 L 903.53125 901.964844 L 901.394531 895.597656 L 899.636719 889.398438 L 898.734375 883.65625 L 898.316406 878.1875 L 897.792969 872.675781 L 896.578125 866.804688 L 894.289062 860.355469 L 891.3125 853.457031 L 888.242188 846.332031 L 885.65625 839.191406 L 883.996094 832.242188 L 883.070312 825.628906 L 882.535156 819.480469 L 882.054688 813.914062 L 881.285156 809.066406 L 879.941406 804.976562 L 877.988281 801.351562 L 875.445312 797.816406 L 872.335938 793.996094 L 868.714844 789.582031 L 864.742188 784.53125 L 860.632812 778.867188 L 856.578125 772.617188 L 852.632812 765.886719 L 848.25 759.140625 L 842.738281 752.921875 L 835.394531 747.78125 L 825.839844 744.136719 L 814.9375 741.890625 L 803.859375 740.824219 L 793.789062 740.714844 L 785.902344 741.34375 L 780.964844 742.484375 L 778.128906 743.933594 L 776.140625 745.476562 L 773.738281 746.910156 L 769.945312 748.121094 L 764.882812 749.382812 L 758.960938 751.0625 L 752.574219 753.539062 L 746.070312 757.035156 L 739.566406 761.199219 L 733.113281 765.550781 L 726.769531 769.59375 L 720.550781 772.996094 L 714.316406 776.054688 L 707.882812 779.226562 L 701.066406 782.96875 L 693.691406 787.734375 L 685.734375 793.785156 L 677.796875 800.625 L 670.644531 807.5625 L 665.046875 813.902344 L 661.457031 819.167969 L 659.105469 823.722656 L 656.90625 828.144531 L 653.777344 833.011719 L 648.949219 838.730469 L 642.859375 845.03125 L 636.261719 851.472656 L 629.914062 857.613281 L 624.558594 863.011719 L 620.742188 867.394531 L 618.195312 871.132812 L 616.4375 874.761719 L 614.992188 878.8125 L 613.457031 883.65625 L 611.765625 888.964844 L 609.925781 894.242188 L 607.953125 898.992188 L 605.867188 902.859375 L 603.695312 906.035156 L 601.472656 908.851562 L 599.242188 911.640625 L 597.042969 914.660156 L 594.9375 917.902344 L 592.996094 921.285156 L 591.289062 924.726562 L 589.878906 928.144531 L 588.785156 931.527344 L 587.808594 935.140625 L 586.699219 939.308594 L 585.199219 944.367188 L 583.101562 950.417969 L 580.355469 956.652344 L 576.957031 962.042969 L 572.90625 965.550781 L 568.261719 966.433594 L 563.398438 965.09375 L 558.765625 962.222656 L 554.800781 958.511719 L 551.78125 954.609375 L 549.28125 950.96875 L 546.710938 948.011719 L 543.476562 946.148438 L 538.980469 945.796875 L 532.910156 947.0625 L 526.082031 948.820312 L 519.589844 949.632812 L 514.535156 948.0625 L 511.65625 943.171875 L 510.242188 935.96875 L 509.230469 927.960938 L 507.566406 920.648438 L 504.527344 915.132812 L 500.835938 910.863281 L 497.554688 906.886719 L 495.746094 902.246094 L 496.175781 896.238281 L 498.367188 889.175781 L 501.535156 881.617188 L 504.898438 874.125 L 507.679688 867.257812 L 509.257812 861.449219 L 509.695312 856.585938 L 509.210938 852.429688 L 508.027344 848.742188 L 506.335938 845.3125 L 504.191406 842.046875 L 501.609375 838.882812 L 498.613281 835.753906 L 495.316406 832.621094 L 492.226562 829.507812 L 489.9375 826.46875 L 489.058594 823.550781 L 489.96875 820.757812 L 492.1875 817.886719 L 495.007812 814.699219 L 497.734375 810.941406 L 499.65625 806.367188 L 500.257812 800.863281 L 499.714844 794.847656 L 498.390625 788.863281 L 496.640625 783.464844 L 494.769531 779.058594 L 492.835938 775.5 L 490.84375 772.511719 L 488.796875 769.8125 L 486.695312 767.066406 L 484.550781 763.703125 L 482.382812 759.109375 L 480.195312 752.660156 L 477.960938 743.996094 L 475.433594 733.773438 L 472.332031 722.921875 L 468.363281 712.359375 L 463.246094 703.003906 L 456.871094 695.554688 L 449.84375 689.792969 L 442.941406 685.269531 L 436.957031 681.539062 L 432.476562 678.199219 L 429.304688 675.019531 L 427.058594 671.804688 L 425.347656 668.359375 L 423.832031 664.558594 L 422.328125 660.535156 L 420.707031 656.484375 L 418.824219 652.605469 L 416.59375 649.039062 L 414.101562 645.691406 L 411.476562 642.414062 L 408.855469 639.058594 L 406.363281 635.480469 L 403.953125 631.554688 L 400.820312 627.285156 L 395.984375 622.699219 L 388.460938 617.832031 L 377.757812 612.765625 L 365.335938 607.832031 L 353.152344 603.417969 L 343.15625 599.910156 L 336.773438 597.558594 L 333.296875 596.085938 L 331.496094 595.089844 L 330.132812 594.148438 L 327.972656 592.859375 L 329.191406 593.890625 "/>
<path style="fill:none;stroke-width:0.75;stroke-linecap:round;stroke-linejoin:round;stroke:rgb(0%,0%,0%);stroke-opacity:1;stroke-miterlimit:10;" d="M 326.585938 593.878906 L 325.210938 597.539062 L 322.710938 600.679688 L 314.492188 603.792969 L 302.007812 606.832031 L 288.230469 609.632812 L 275.78125 612.050781 L 265.871094 614.035156 L 259.355469 615.550781 L 256.519531 616.660156 L 255.308594 617.78125 L 253.097656 619.417969 L 247.960938 621.953125 L 240.835938 625.277344 L 233.265625 629.191406 L 226.351562 633.613281 L 221.097656 638.5 L 218.054688 643.734375 L 216.015625 648.964844 L 213.339844 653.777344 L 208.808594 657.863281 L 202.9375 661.355469 L 196.671875 664.492188 L 190.960938 667.5 L 186.785156 670.601562 L 184.722656 673.949219 L 183.667969 677.472656 L 182.097656 681.054688 L 178.839844 684.597656 L 174.089844 688.136719 L 168.410156 691.738281 L 162.46875 695.519531 L 157.484375 699.777344 L 154.789062 704.855469 L 154.992188 711.035156 L 155.746094 718.363281 L 153.976562 726.820312 L 147.898438 736.046875 L 140.941406 744.273438 L 136.75 749.96875 L 134.652344 753.886719 L 132.90625 757.363281 L 130.242188 761.414062 L 127.324219 765.832031 L 125.277344 770.09375 L 124.964844 773.769531 L 126.109375 776.757812 L 128.175781 779.039062 L 130.378906 780.753906 L 130.988281 782.644531 L 128.691406 785.433594 L 124.820312 789.152344 L 121.347656 793.65625 L 119.707031 798.871094 L 119.089844 804.996094 L 118.136719 812.316406 L 115.851562 820.914062 L 112.691406 830.160156 L 109.46875 839.234375 L 106.769531 847.375 L 104.214844 854.054688 L 101.1875 858.8125 L 97.582031 861.722656 L 95.332031 865.070312 L 96.09375 870.855469 L 98.394531 877.785156 L 99.992188 883.738281 L 99.261719 887.253906 L 97.089844 889.464844 L 94.988281 892.15625 L 94.160156 896.644531 L 94.507812 902.320312 L 95.628906 908.117188 L 97.105469 913.265625 L 98.511719 918.269531 L 99.449219 923.882812 L 99.65625 930.644531 L 98.90625 939.039062 L 97.214844 949.117188 L 95.546875 959.199219 L 95.113281 967.175781 L 96.660156 971.65625 L 99.085938 974.160156 L 100.820312 976.925781 L 100.824219 981.710938 L 100.171875 988.351562 L 100.46875 996.207031 L 102.726562 1004.527344 L 105.578125 1012.121094 L 107.460938 1018.039062 L 108.414062 1022.667969 L 108.878906 1026.742188 L 109.25 1030.800781 L 109.707031 1034.613281 L 110.394531 1037.757812 L 111.382812 1040.0625 L 112.476562 1042.3125 L 113.421875 1045.535156 L 114.140625 1050.277344 L 115.277344 1055.128906 L 117.339844 1058.675781 L 119.550781 1061.484375 L 120.820312 1064.605469 L 120.46875 1068.832031 L 119.472656 1073.875 L 119.238281 1079.1875 L 120.722656 1084.28125 L 123.144531 1088.957031 L 125.273438 1093.082031 L 126.382812 1096.601562 L 127.710938 1099.738281 L 130.988281 1102.800781 L 137.066406 1106.101562 L 143.285156 1110.042969 L 146.9375 1114.84375 L 148.625 1119.933594 L 149.800781 1124.542969 L 151.617188 1128.195312 L 154.085938 1131.597656 L 156.933594 1135.75 L 159.953125 1141.273438 L 163.207031 1147.292969 L 166.824219 1152.554688 L 170.765625 1156.289062 L 174.3125 1159.652344 L 176.847656 1163.992188 L 178.839844 1169.460938 L 181.035156 1175.90625 L 183.980469 1183.039062 L 187.480469 1189.992188 L 191.136719 1195.753906 L 194.714844 1199.691406 L 198.636719 1202.6875 L 203.46875 1206.003906 L 209.601562 1210.496094 L 216.671875 1215.332031 L 224.128906 1219.285156 L 231.3125 1221.648438 L 237.089844 1223.875 L 241.253906 1227.414062 L 247.746094 1231.554688 L 261.550781 1235.042969 L 285.417969 1236.847656 L 313.164062 1236.8125 L 336.378906 1234.988281 L 349.027344 1231.601562 L 354.613281 1227.554688 L 359.03125 1223.90625 L 366.730469 1221.328125 L 376.441406 1218.902344 L 385.925781 1215.59375 L 394.832031 1211.511719 L 403.277344 1207.050781 L 411.214844 1202.574219 L 417.929688 1198.339844 L 422.546875 1194.570312 L 424.667969 1191.445312 L 425.796875 1188.9375 L 427.917969 1186.964844 L 432.371094 1185.4375 L 437.976562 1184.191406 L 442.902344 1183.058594 L 445.882812 1181.847656 L 447.832031 1180.277344 L 450.019531 1178.101562 L 452.933594 1175.269531 L 456.871094 1171.773438 L 461.875 1167.707031 L 466.929688 1163.519531 L 470.769531 1159.757812 L 472.566406 1156.78125 L 473.265625 1154.160156 L 474.246094 1151.273438 L 476.460938 1147.75 L 479.089844 1144.199219 L 481.140625 1141.164062 L 482.652344 1137.953125 L 483.914062 1133.550781 L 485.175781 1127.167969 L 486.484375 1118.851562 L 487.851562 1108.878906 L 489.265625 1097.765625 L 490.660156 1087.0625 L 491.953125 1078.574219 L 493.121094 1073.476562 L 494.351562 1070.410156 L 495.875 1067.382812 L 497.742188 1063.082031 L 499.265625 1058.90625 L 499.828125 1056.273438 L 499.917969 1053.953125 L 500.277344 1050.046875 L 501.511719 1043.195312 L 503.605469 1034.160156 L 506.410156 1024.234375 L 509.582031 1014.660156 L 512.109375 1006.457031 L 512.785156 1000.59375 L 511.050781 997.464844 L 508.882812 995.1875 L 508.25 991.820312 L 508.554688 987.480469 L 508.5625 982.808594 L 507.449219 978.308594 L 506.015625 973.996094 L 505.460938 969.757812 L 506.609375 965.433594 L 508.738281 960.699219 L 510.730469 955.175781 L 511.714844 948.613281 L 511.75 941.226562 L 511.144531 933.34375 L 510.050781 925.558594 L 508.007812 919.492188 L 504.691406 916.277344 L 500.882812 914.0625 L 497.660156 910.238281 L 495.90625 903.042969 L 495.839844 894.058594 L 497.492188 885.710938 L 500.710938 879.722656 L 504.609375 874.984375 L 508.097656 869.699219 L 510.253906 862.773438 L 510.742188 856.003906 L 509.5625 851.3125 L 507.449219 848.199219 L 505.320312 845.582031 L 503.785156 842.585938 L 502.222656 839.230469 L 499.703125 835.75 L 495.726562 832.363281 L 491.519531 829.171875 L 488.757812 826.25 L 488.613281 823.609375 L 490.363281 821.003906 L 492.785156 818.113281 L 494.941406 814.6875 L 497.003906 810.710938 L 499.199219 806.214844 L 500.851562 801.140625 L 501.074219 795.410156 L 499.3125 789.113281 L 496.429688 783.054688 L 493.625 778.199219 L 491.785156 775.144531 L 490.515625 772.980469 L 489.117188 770.414062 L 487.097656 766.609375 L 484.859375 762.519531 L 482.835938 758.957031 L 480.765625 754.375 L 478.207031 746.628906 L 474.859375 734.535156 L 470.996094 720.738281 L 467.023438 708.84375 L 463.125 701.4375 L 458.5625 696.976562 L 452.359375 692.902344 L 444.128906 687.34375 L 435.785156 681.207031 L 429.820312 676.085938 L 427.792969 673.046875 L 427.515625 671.019531 L 426.476562 668.671875 L 424.609375 665.691406 L 422.472656 662.027344 L 420.492188 657.703125 L 418.589844 653.03125 L 416.5625 648.398438 L 414.238281 644.160156 L 411.613281 640.582031 L 408.730469 637.902344 L 405.714844 636.035156 L 403.058594 633.5625 L 400.878906 629.195312 L 397.398438 623.445312 L 390.375 617.273438 L 378.515625 611.53125 L 364.347656 606.601562 L 351.351562 602.746094 L 342.253906 600.097656 L 336.71875 598.28125 L 333.660156 596.789062 L 331.964844 595.242188 L 330.445312 593.804688 L 327.886719 592.761719 L 326.585938 593.878906 "/>
<path style="fill:none;stroke-width:0.75;stroke-linecap:round;stroke-linejoin:round;stroke:rgb(0%,0%,0%);stroke-opacity:1;stroke-miterlimit:10;" d="M 792.28125 738.171875 L 791.664062 740.738281 L 787.625 743.148438 L 782.132812 745.21875 L 776.316406 746.738281 L 771.097656 747.496094 L 767.046875 747.515625 L 763.40625 747.8125 L 759.082031 749.628906 L 753.332031 753.675781 L 746.902344 758.457031 L 740.625 762.375 L 734.273438 765.609375 L 727.34375 768.773438 L 719.632812 772.335938 L 712.074219 776.128906 L 705.898438 779.839844 L 701.542969 783.382812 L 696.304688 787.605469 L 687.757812 793.296875 L 677.722656 800.0625 L 669.078125 807.214844 L 663.929688 814.089844 L 661.226562 820.109375 L 659.15625 824.726562 L 656.292969 827.894531 L 652.859375 831.632812 L 649.238281 837.773438 L 644.859375 845.34375 L 638.910156 852.667969 L 631.101562 858.457031 L 623.234375 862.960938 L 617.628906 866.808594 L 615.820312 870.558594 L 616.261719 874.53125 L 616.605469 878.972656 L 615.136719 883.992188 L 612.585938 889.136719 L 610.054688 893.941406 L 607.679688 898.394531 L 605.351562 902.605469 L 603.015625 906.613281 L 600.824219 910.117188 L 598.972656 912.75 L 597.515625 914.449219 L 595.914062 916.386719 L 593.703125 919.671875 L 591.304688 923.953125 L 589.371094 928.496094 L 588.300781 932.722656 L 587.535156 936.65625 L 586.277344 940.464844 L 584.125 944.394531 L 582.265625 948.996094 L 581.617188 954.59375 L 580.433594 960.335938 L 576.300781 965.070312 L 567.945312 967.78125 L 558.628906 968 L 552.757812 965.390625 L 553.097656 960 L 555.835938 953.421875 L 555.523438 947.632812 L 548.753906 944.285156 L 540.328125 943.734375 L 535.507812 945.757812 L 533.273438 949.070312 L 531.015625 952.125 L 526.96875 953.839844 L 522.679688 955.003906 L 520.542969 956.855469 L 521.855469 960.125 L 523.628906 963.460938 L 522.824219 965.609375 L 520.539062 967.824219 L 518.921875 971.988281 L 519.515625 979.273438 L 521.507812 988.027344 L 523.496094 995.898438 L 524.382812 1001.128906 L 524.285156 1004.414062 L 523.566406 1006.9375 L 522.277344 1009.492188 L 520.402344 1012.761719 L 517.980469 1017.273438 L 515.246094 1022.972656 L 512.492188 1029.640625 L 509.984375 1036.925781 L 507.859375 1043.945312 L 506.230469 1049.667969 L 505.109375 1053.511719 L 504.101562 1056.703125 L 502.820312 1060.5625 L 501.34375 1065.082031 L 499.867188 1069.90625 L 498.53125 1074.65625 L 497.277344 1078.832031 L 495.992188 1081.917969 L 494.605469 1083.792969 L 493.214844 1085.992188 L 491.90625 1090.109375 L 490.605469 1096.324219 L 489.191406 1104.457031 L 487.667969 1114.042969 L 486.503906 1123.402344 L 486.285156 1130.558594 L 487.429688 1134.308594 L 489.703125 1136.527344 L 492.59375 1139.335938 L 495.195312 1142.730469 L 496.5 1146.179688 L 495.878906 1149.246094 L 494.242188 1151.851562 L 492.886719 1154.003906 L 492.773438 1155.894531 L 493.570312 1158.390625 L 494.621094 1162.546875 L 495.359375 1169.089844 L 495.589844 1177.46875 L 495.335938 1186.75 L 495.054688 1195.679688 L 495.328125 1202.949219 L 496.578125 1207.703125 L 498.578125 1210.949219 L 500.941406 1214.175781 L 503.304688 1218.554688 L 505.347656 1224.074219 L 506.972656 1230.390625 L 508.859375 1237.070312 L 511.882812 1243.667969 L 516.554688 1249.707031 L 521.910156 1254.652344 L 526.625 1257.953125 L 529.621094 1259.640625 L 530.882812 1262.0625 L 530.882812 1267.433594 L 531.011719 1275.097656 L 532.894531 1283.667969 L 537.539062 1291.769531 L 543.496094 1298.058594 L 548.691406 1301.199219 L 551.6875 1300.40625 L 553.550781 1297.152344 L 555.980469 1293.460938 L 560.359375 1290.578125 L 566.820312 1286.617188 L 575.011719 1279.746094 L 583.855469 1271.460938 L 592.101562 1264.09375 L 598.636719 1259.332031 L 602.898438 1256.273438 L 604.472656 1253.367188 L 604.417969 1249.488281 L 609.769531 1245.175781 L 626.097656 1241.203125 L 647.191406 1237.566406 L 663.890625 1234.0625 L 670.238281 1230.566406 L 673.136719 1227.242188 L 682.695312 1224.324219 L 704.792969 1221.84375 L 728.445312 1218.988281 L 741.949219 1215.042969 L 747.621094 1210.445312 L 751.300781 1205.933594 L 757.460938 1202.074219 L 765.179688 1198.753906 L 772.167969 1195.699219 L 776.78125 1192.6875 L 779.894531 1189.675781 L 783.015625 1186.683594 L 787.472656 1183.671875 L 793.882812 1180.363281 L 802.386719 1176.535156 L 812 1172.363281 L 821.460938 1168.128906 L 829.628906 1164.09375 L 835.914062 1160.453125 L 839.855469 1157.394531 L 841.488281 1154.90625 L 842.820312 1152.230469 L 845.84375 1148.644531 L 850.492188 1144.332031 L 856.195312 1139.707031 L 862.359375 1135.171875 L 868.363281 1131.105469 L 873.574219 1127.886719 L 877.230469 1125.421875 L 878.074219 1121.734375 L 875.40625 1115.171875 L 871.238281 1107.191406 L 868.257812 1100.027344 L 868.410156 1095.34375 L 870.648438 1092.5 L 873.179688 1090.292969 L 874.582031 1087.742188 L 874.941406 1084.796875 L 874.710938 1081.636719 L 874.382812 1078.445312 L 874.585938 1075.449219 L 875.777344 1072.746094 L 877.597656 1069.949219 L 879.488281 1066.550781 L 880.929688 1062.246094 L 881.578125 1057.5625 L 881.125 1053.242188 L 879.519531 1049.753906 L 877.675781 1046.527344 L 876.652344 1042.859375 L 877.097656 1038.679688 L 879.546875 1034.0625 L 884.128906 1029.1875 L 889.316406 1024.695312 L 893.164062 1021.339844 L 894.402344 1019.386719 L 894.445312 1017.164062 L 894.929688 1013.09375 L 895.632812 1007.925781 L 895.890625 1002.992188 L 895.183594 999.320312 L 893.625 996.707031 L 891.472656 994.628906 L 889.242188 992.660156 L 888.429688 990.679688 L 890.78125 988.648438 L 896.734375 986.398438 L 901.457031 983.265625 L 900.503906 978.726562 L 896.246094 973.347656 L 892.765625 967.957031 L 892.933594 963.175781 L 894.851562 958.785156 L 895.40625 954.347656 L 892.851562 949.699219 L 890.890625 945.703125 L 893.109375 943.128906 L 897.25 941.261719 L 899.585938 939.027344 L 897.695312 935.703125 L 894.351562 932 L 893.632812 928.984375 L 898.050781 927.25 L 903.816406 925.472656 L 906.671875 922.269531 L 906.816406 917.867188 L 905.550781 912.902344 L 903.988281 907.839844 L 902.472656 902.484375 L 901.15625 896.460938 L 900.136719 889.636719 L 899.28125 882.773438 L 898.398438 876.863281 L 897.316406 872.375 L 895.976562 867.71875 L 894.3125 861.304688 L 892.21875 853.671875 L 889.566406 845.894531 L 886.398438 838.800781 L 883.382812 832.261719 L 881.355469 825.902344 L 880.863281 819.535156 L 881.273438 813.722656 L 881.710938 808.992188 L 881.46875 805.035156 L 879.894531 801.3125 L 876.582031 797.414062 L 872.183594 793.402344 L 867.613281 789.457031 L 863.503906 785.488281 L 859.421875 780.363281 L 854.964844 773.191406 L 850.945312 765.078125 L 848.480469 757.652344 L 847.546875 752.148438 L 843.570312 748.273438 L 830.847656 745.351562 L 807.652344 742.808594 L 788.253906 740.445312 L 790.90625 738.160156 L 792.28125 738.171875 "/>
</g>
</svg>
