<?xml version="1.0" encoding="UTF-8"?>
<svg xmlns="http://www.w3.org/2000/svg" xmlns:xlink="http://www.w3.org/1999/xlink" width="1428pt" height="1605pt" viewBox="0 0 1428 1605" version="1.1">
<g id="surface144">
<rect x="0" y="0" width="1428" height="1605" style="fill:rgb(100%,100%,100%);fill-opacity:1;stroke:none;"/>
<path style="fill:none;stroke-width:0.75;stroke-linecap:round;stroke-linejoin:round;stroke:rgb(0%,0%,0%);stroke-opacity:1;stroke-miterlimit:10;" d="M 312.808594 594.738281 L 313.984375 597.894531 L 307.757812 600.597656 L 297.832031 602.765625 L 287.910156 604.296875 L 280.882812 605.179688 L 276.363281 605.671875 L 273.144531 606.121094 L 270.027344 606.859375 L 265.800781 608.230469 L 259.609375 610.484375 L 251.957031 613.542969 L 243.699219 617.242188 L 235.683594 621.417969 L 228.574219 625.90625 L 222.28125 630.582031 L 216.519531 635.308594 L 211.015625 639.96875 L 205.488281 644.425781 L 199.769531 648.601562 L 194.179688 652.578125 L 189.144531 656.492188 L 185.101562 660.472656 L 182.289062 664.621094 L 180.203125 668.945312 L 178.152344 673.417969 L 175.445312 678.019531 L 171.390625 682.722656 L 165.621094 687.5 L 159.070312 692.296875 L 153 697.046875 L 148.667969 701.6875 L 146.933594 706.203125 L 147.007812 710.742188 L 147.699219 715.5 L 147.820312 720.671875 L 146.183594 726.453125 L 142.007812 732.953125 L 136.199219 739.90625 L 130.070312 746.96875 L 124.941406 753.789062 L 121.808594 760.078125 L 120.390625 765.773438 L 120.097656 770.867188 L 120.320312 775.355469 L 120.46875 779.226562 L 120.070312 782.5625 L 119.203125 785.757812 L 118.066406 789.296875 L 116.863281 793.664062 L 115.726562 799.210938 L 114.496094 805.824219 L 112.9375 813.253906 L 110.824219 821.25 L 107.917969 829.570312 L 104.148438 837.976562 L 100.082031 846.253906 L 96.457031 854.195312 L 93.992188 861.601562 L 93.183594 868.285156 L 93.59375 874.148438 L 94.542969 879.105469 L 95.351562 883.078125 L 95.347656 885.992188 L 94.089844 887.925781 L 92.074219 889.59375 L 90.035156 891.871094 L 88.707031 895.640625 L 88.625 901.53125 L 89.511719 909.222656 L 90.886719 918.15625 L 92.28125 927.765625 L 93.214844 937.488281 L 93.359375 946.859375 L 92.96875 955.773438 L 92.445312 964.222656 L 92.191406 972.199219 L 92.515625 979.679688 L 93.335938 986.578125 L 94.472656 992.792969 L 95.742188 998.222656 L 96.96875 1002.765625 L 98.019531 1006.390625 L 98.976562 1009.332031 L 99.960938 1011.902344 L 101.101562 1014.410156 L 102.46875 1017.097656 L 103.929688 1019.9375 L 105.285156 1022.847656 L 106.339844 1025.742188 L 106.90625 1028.527344 L 106.898438 1031.167969 L 106.65625 1033.792969 L 106.628906 1036.585938 L 107.269531 1039.726562 L 108.871094 1043.328125 L 111.097656 1047.199219 L 113.46875 1051.078125 L 115.496094 1054.707031 L 116.691406 1057.828125 L 116.734375 1060.273438 L 115.964844 1062.25 L 114.894531 1064.066406 L 114.03125 1066.019531 L 113.789062 1068.375 L 114.179688 1071.1875 L 115.132812 1074.480469 L 116.566406 1078.269531 L 118.398438 1082.574219 L 120.574219 1087.359375 L 123.109375 1092.414062 L 126.042969 1097.464844 L 129.410156 1102.253906 L 133.253906 1106.515625 L 137.53125 1110.109375 L 141.90625 1113.378906 L 145.960938 1116.800781 L 149.28125 1120.851562 L 151.589844 1125.855469 L 153.140625 1131.570312 L 154.324219 1137.613281 L 155.527344 1143.589844 L 157.140625 1149.113281 L 159.441406 1153.898438 L 162.230469 1158.054688 L 165.207031 1161.796875 L 168.050781 1165.335938 L 170.53125 1168.84375 L 172.671875 1172.335938 L 174.570312 1175.777344 L 176.328125 1179.152344 L 178.042969 1182.421875 L 179.816406 1185.59375 L 181.789062 1188.757812 L 184.097656 1192.042969 L 186.890625 1195.5625 L 190.269531 1199.398438 L 194.1875 1203.4375 L 198.554688 1207.519531 L 203.285156 1211.488281 L 208.296875 1215.1875 L 213.480469 1218.507812 L 218.675781 1221.519531 L 223.699219 1224.347656 L 228.378906 1227.117188 L 232.640625 1229.910156 L 236.875 1232.664062 L 241.582031 1235.289062 L 247.257812 1237.679688 L 254.402344 1239.738281 L 263.234375 1241.386719 L 272.824219 1242.589844 L 281.960938 1243.335938 L 289.4375 1243.609375 L 294.398438 1243.433594 L 297.382812 1243.003906 L 299.300781 1242.550781 L 301.050781 1242.3125 L 303.53125 1242.511719 L 307.398438 1243.292969 L 312.328125 1244.394531 L 317.742188 1245.464844 L 323.070312 1246.148438 L 327.859375 1246.15625 L 332.175781 1245.480469 L 336.207031 1244.183594 L 340.132812 1242.324219 L 344.148438 1239.960938 L 348.429688 1237.171875 L 353.171875 1234.109375 L 358.550781 1230.929688 L 364.746094 1227.796875 L 371.882812 1224.820312 L 379.796875 1221.84375 L 388.273438 1218.660156 L 397.085938 1215.0625 L 406.015625 1210.839844 L 414.84375 1205.902344 L 423.371094 1200.644531 L 431.40625 1195.574219 L 438.757812 1191.214844 L 445.277344 1187.910156 L 451.019531 1185.394531 L 456.078125 1183.234375 L 460.554688 1180.992188 L 464.550781 1178.242188 L 468.148438 1174.765625 L 471.375 1171.207031 L 474.25 1168.425781 L 476.78125 1167.289062 L 478.988281 1168.433594 L 480.914062 1171.621094 L 482.59375 1176.394531 L 484.074219 1182.296875 L 485.398438 1188.875 L 486.621094 1195.738281 L 487.882812 1202.785156 L 489.320312 1209.988281 L 491.089844 1217.316406 L 493.28125 1224.730469 L 495.761719 1232.167969 L 498.335938 1239.546875 L 500.816406 1246.792969 L 503.015625 1253.828125 L 504.859375 1260.609375 L 506.78125 1267.214844 L 509.332031 1273.746094 L 513.070312 1280.316406 L 518.390625 1286.933594 L 525.054688 1293.238281 L 532.667969 1298.785156 L 540.835938 1303.113281 L 549.167969 1305.769531 L 557.339844 1306.4375 L 565.324219 1305.308594 L 573.164062 1302.714844 L 580.90625 1298.984375 L 588.585938 1294.445312 L 596.226562 1289.40625 L 603.742188 1284.144531 L 611.03125 1278.902344 L 617.976562 1273.9375 L 624.53125 1269.445312 L 630.84375 1265.429688 L 637.128906 1261.824219 L 643.589844 1258.578125 L 650.4375 1255.625 L 657.859375 1252.917969 L 665.96875 1250.398438 L 674.859375 1248.019531 L 684.625 1245.722656 L 695.183594 1243.464844 L 705.773438 1241.234375 L 715.453125 1239.011719 L 723.285156 1236.796875 L 728.335938 1234.574219 L 730.148438 1232.34375 L 730.242188 1230.140625 L 730.613281 1228.015625 L 733.261719 1226.007812 L 739.613281 1224.160156 L 748.785156 1222.480469 L 759.304688 1220.976562 L 769.71875 1219.652344 L 778.558594 1218.507812 L 784.734375 1217.503906 L 788.648438 1216.402344 L 791.074219 1214.921875 L 792.777344 1212.777344 L 794.417969 1209.785156 L 796.144531 1206.167969 L 797.996094 1202.246094 L 800.007812 1198.34375 L 802.21875 1194.785156 L 804.699219 1191.78125 L 807.695312 1189.125 L 811.488281 1186.492188 L 816.367188 1183.566406 L 822.460938 1180.105469 L 829.304688 1176.195312 L 836.265625 1171.992188 L 842.734375 1167.65625 L 848.082031 1163.355469 L 851.890625 1159.226562 L 854.554688 1155.351562 L 856.675781 1151.78125 L 858.84375 1148.582031 L 861.523438 1145.777344 L 864.621094 1143.25 L 867.914062 1140.855469 L 871.175781 1138.449219 L 874.175781 1135.875 L 876.75 1133.007812 L 878.953125 1129.769531 L 880.90625 1126.109375 L 882.726562 1121.96875 L 884.488281 1117.339844 L 886.089844 1112.417969 L 887.390625 1107.4375 L 888.246094 1102.640625 L 888.507812 1098.273438 L 888.136719 1094.492188 L 887.464844 1091.109375 L 886.929688 1087.863281 L 886.96875 1084.488281 L 887.875 1080.777344 L 889.414062 1076.804688 L 891.214844 1072.691406 L 892.90625 1068.574219 L 894.117188 1064.582031 L 894.609375 1060.800781 L 894.683594 1057.148438 L 894.773438 1053.492188 L 895.3125 1049.707031 L 896.617188 1045.699219 L 898.515625 1041.515625 L 900.726562 1037.234375 L 902.960938 1032.933594 L 904.929688 1028.703125 L 906.429688 1024.617188 L 907.558594 1020.75 L 908.492188 1017.175781 L 909.414062 1013.972656 L 910.441406 1011.1875 L 911.4375 1008.757812 L 912.203125 1006.597656 L 912.542969 1004.625 L 912.261719 1002.753906 L 911.269531 1000.902344 L 909.921875 999.023438 L 908.667969 997.082031 L 907.976562 995.03125 L 908.160156 992.839844 L 908.980469 990.492188 L 910.050781 987.976562 L 910.988281 985.285156 L 911.410156 982.410156 L 911.074219 979.347656 L 910.257812 976.148438 L 909.394531 972.875 L 908.898438 969.589844 L 909.078125 966.324219 L 909.769531 963.027344 L 910.699219 959.605469 L 911.578125 955.984375 L 912.132812 952.074219 L 912.183594 947.828125 L 911.957031 943.339844 L 911.785156 938.722656 L 911.996094 934.109375 L 912.921875 929.621094 L 914.726562 925.300781 L 916.914062 920.894531 L 918.832031 916.066406 L 919.828125 910.476562 L 919.433594 903.929688 L 917.976562 896.789062 L 915.972656 889.546875 L 913.9375 882.707031 L 912.386719 876.761719 L 911.6875 872.046875 L 911.605469 868.21875 L 911.75 864.765625 L 911.730469 861.179688 L 911.253906 857.0625 L 910.351562 852.476562 L 909.160156 847.582031 L 907.796875 842.550781 L 906.398438 837.554688 L 905.101562 832.730469 L 904.105469 828.113281 L 903.625 823.699219 L 903.871094 819.496094 L 904.9375 815.496094 L 906.429688 811.667969 L 907.828125 807.964844 L 908.621094 804.351562 L 908.289062 800.777344 L 906.507812 797.183594 L 903.746094 793.402344 L 900.660156 789.253906 L 897.902344 784.550781 L 895.960938 779.1875 L 894.601562 773.375 L 893.425781 767.40625 L 892.027344 761.574219 L 890.003906 756.167969 L 887.117188 751.414062 L 883.8125 747.242188 L 880.71875 743.511719 L 878.445312 740.089844 L 877.371094 736.84375 L 876.898438 733.679688 L 876.183594 730.515625 L 874.394531 727.261719 L 870.683594 723.839844 L 864.546875 720.21875 L 856.800781 716.617188 L 848.59375 713.316406 L 841.082031 710.59375 L 835.160156 708.648438 L 830.707031 707.378906 L 827.367188 706.613281 L 824.757812 706.167969 L 822.523438 705.863281 L 820.332031 705.566406 L 818.039062 705.304688 L 815.542969 705.132812 L 812.738281 705.125 L 809.546875 705.355469 L 805.992188 705.929688 L 802.125 706.96875 L 797.988281 708.601562 L 793.625 710.9375 L 789.121094 714.003906 L 784.667969 717.394531 L 780.496094 720.609375 L 776.832031 723.144531 L 773.804688 724.644531 L 771.136719 725.351562 L 768.460938 725.65625 L 765.402344 725.941406 L 761.585938 726.601562 L 756.792969 727.933594 L 751.4375 729.890625 L 746.074219 732.339844 L 741.273438 735.140625 L 737.421875 738.179688 L 734.242188 741.402344 L 731.289062 744.773438 L 728.117188 748.257812 L 724.273438 751.820312 L 719.496094 755.421875 L 714.269531 758.992188 L 709.246094 762.460938 L 705.101562 765.746094 L 702.246094 768.820312 L 700.164062 771.765625 L 698.078125 774.722656 L 695.226562 777.808594 L 690.839844 781.160156 L 684.476562 784.851562 L 677.003906 788.765625 L 669.613281 792.71875 L 663.5 796.546875 L 659.515625 800.136719 L 657.183594 803.621094 L 655.695312 807.191406 L 654.238281 811.042969 L 651.992188 815.371094 L 648.351562 820.335938 L 643.476562 825.925781 L 637.746094 832.101562 L 631.523438 838.824219 L 625.175781 846.046875 L 619.050781 853.699219 L 613.414062 861.597656 L 608.519531 869.519531 L 604.609375 877.253906 L 601.820312 884.589844 L 599.84375 891.359375 L 598.265625 897.402344 L 596.667969 902.5625 L 594.628906 906.679688 L 591.894531 909.695312 L 588.828125 911.980469 L 585.957031 914.007812 L 583.808594 916.246094 L 582.734375 919.050781 L 582.402344 922.273438 L 582.316406 925.648438 L 581.976562 928.910156 L 580.878906 931.792969 L 578.609375 934.101562 L 575.082031 935.929688 L 570.300781 937.449219 L 564.265625 938.824219 L 557.085938 940.203125 L 549.300781 941.621094 L 541.558594 943.101562 L 534.507812 944.664062 L 528.796875 946.324219 L 524.902344 947.992188 L 522.605469 949.140625 L 521.515625 949.140625 L 521.242188 947.359375 L 521.40625 943.398438 L 521.65625 937.8125 L 521.65625 931.398438 L 521.066406 924.953125 L 519.546875 919.265625 L 516.910156 914.90625 L 513.570312 911.546875 L 510.089844 908.636719 L 507.035156 905.613281 L 504.886719 902.046875 L 503.804688 897.964844 L 503.867188 893.527344 L 505.152344 888.878906 L 507.738281 884.175781 L 511.511719 879.511719 L 515.589844 874.734375 L 518.902344 869.636719 L 520.382812 864.015625 L 519.28125 857.757812 L 516.140625 851.15625 L 511.820312 844.589844 L 507.195312 838.453125 L 503.125 833.125 L 500.296875 828.828125 L 498.667969 825.09375 L 498.019531 821.289062 L 498.128906 816.785156 L 498.757812 811.117188 L 499.585938 804.527344 L 500.285156 797.429688 L 500.515625 790.238281 L 499.949219 783.367188 L 498.359375 777.148438 L 495.957031 771.554688 L 493.066406 766.46875 L 490.011719 761.78125 L 487.074219 757.339844 L 484.355469 752.871094 L 481.925781 748.058594 L 479.847656 742.59375 L 478.183594 736.15625 L 476.898438 728.605469 L 475.574219 720.476562 L 473.683594 712.460938 L 470.710938 705.265625 L 466.324219 699.398438 L 460.976562 694.660156 L 455.316406 690.644531 L 449.992188 686.96875 L 445.644531 683.238281 L 442.703125 679.136719 L 440.71875 674.644531 L 439.019531 669.832031 L 436.929688 664.761719 L 433.953125 659.511719 L 430.261719 654.230469 L 426.1875 649.082031 L 422.078125 644.226562 L 418.265625 639.835938 L 414.957031 636.007812 L 411.828125 632.5625 L 408.402344 629.265625 L 404.21875 625.875 L 399.023438 622.214844 L 393.398438 618.351562 L 388.140625 614.421875 L 384.042969 610.558594 L 381.898438 606.886719 L 381.65625 603.511719 L 379.847656 600.414062 L 372.144531 597.539062 L 354.234375 594.832031 L 321.796875 592.242188 L 312.808594 594.738281 "/>
<path style="fill:none;stroke-width:0.75;stroke-linecap:round;stroke-linejoin:round;stroke:rgb(0%,0%,0%);stroke-opacity:1;stroke-miterlimit:10;" d="M 313.804688 593.898438 L 309.613281 597.8125 L 308.898438 601.078125 L 301.878906 603.476562 L 290.535156 604.980469 L 279.785156 605.625 L 273.378906 605.554688 L 270.34375 605.417969 L 268.535156 605.984375 L 266.035156 607.808594 L 261.863281 610.640625 L 255.257812 614.015625 L 245.941406 617.574219 L 235.566406 621.371094 L 226.265625 625.566406 L 219.605469 630.234375 L 214.875 635.164062 L 210.792969 640.066406 L 206.3125 644.695312 L 201.304688 648.996094 L 195.871094 652.972656 L 190.21875 656.660156 L 185.015625 660.292969 L 181.050781 664.160156 L 178.761719 668.480469 L 177.246094 673.226562 L 175.261719 678.3125 L 171.777344 683.539062 L 166.617188 688.25 L 160.085938 691.984375 L 153.550781 695.535156 L 148.644531 700.007812 L 146.515625 706.074219 L 146.34375 712.667969 L 146.832031 718.285156 L 146.804688 722.007812 L 145.609375 725.238281 L 142.726562 729.960938 L 137.902344 737.5 L 131.976562 746.5625 L 126.066406 755.203125 L 121.203125 761.917969 L 118.070312 766.996094 L 117.28125 771.171875 L 118.984375 775.0625 L 121.542969 778.792969 L 122.847656 782.355469 L 121.449219 785.816406 L 118.46875 789.464844 L 115.671875 793.65625 L 114.328125 798.722656 L 113.757812 804.921875 L 112.785156 812.480469 L 110.574219 821.363281 L 107.605469 830.429688 L 104.542969 838.605469 L 101.402344 846.105469 L 98.046875 853.484375 L 94.558594 861.085938 L 91.898438 868.464844 L 91.25 874.976562 L 93.210938 880.109375 L 96.019531 883.859375 L 97.332031 886.359375 L 95.539062 887.867188 L 91.976562 889.1875 L 88.726562 891.246094 L 87.425781 894.871094 L 87.953125 900.4375 L 89.765625 908.203125 L 92.203125 918.128906 L 94.203125 928.945312 L 94.59375 939.078125 L 92.761719 947.4375 L 90.296875 954.816406 L 89.34375 962.496094 L 91.292969 971.3125 L 94.558594 980.359375 L 96.800781 988.292969 L 96.441406 994.140625 L 94.9375 998.417969 L 94.511719 1002.011719 L 96.570312 1005.59375 L 99.304688 1009.042969 L 100.714844 1012.089844 L 101.289062 1014.796875 L 102.140625 1017.285156 L 104 1019.703125 L 106.054688 1022.25 L 107.117188 1025.148438 L 106.476562 1028.488281 L 105.296875 1031.890625 L 105.230469 1034.855469 L 107.316406 1037.097656 L 110.164062 1039.234375 L 111.777344 1042.101562 L 110.941406 1046.226562 L 109.550781 1050.9375 L 110.28125 1055.265625 L 114.714844 1058.480469 L 120.035156 1060.800781 L 122.34375 1062.695312 L 119.089844 1064.550781 L 113.1875 1066.410156 L 108.902344 1068.238281 L 109.402344 1070.148438 L 113.410156 1072.820312 L 118.546875 1077.09375 L 122.644531 1083.238281 L 124.390625 1089.335938 L 123.414062 1093.558594 L 122.238281 1096.753906 L 124.105469 1100.417969 L 131.035156 1105.558594 L 140.148438 1111.199219 L 147.335938 1115.863281 L 149.671875 1118.613281 L 148.964844 1120.65625 L 148.191406 1123.738281 L 149.636719 1129.109375 L 152.71875 1136.070312 L 156.144531 1143.429688 L 158.90625 1150.140625 L 161.097656 1155.761719 L 163.082031 1159.992188 L 165.160156 1162.761719 L 167.394531 1164.871094 L 169.765625 1167.351562 L 172.226562 1170.933594 L 174.574219 1175.207031 L 176.554688 1179.449219 L 178.0625 1183.121094 L 179.558594 1186.289062 L 181.628906 1189.191406 L 184.648438 1192.0625 L 188.066406 1195.167969 L 191.121094 1198.78125 L 193.476562 1203.027344 L 196.566406 1207.441406 L 201.738281 1211.527344 L 208.25 1215.265625 L 214.832031 1218.75 L 220.457031 1222.042969 L 225.035156 1225.03125 L 228.707031 1227.5625 L 231.773438 1229.597656 L 235.128906 1231.546875 L 239.828125 1233.941406 L 246.625 1237.074219 L 255.109375 1240.304688 L 264.570312 1242.757812 L 274.226562 1243.800781 L 282.988281 1243.785156 L 289.691406 1243.3125 L 293.625 1242.871094 L 295.824219 1242.53125 L 297.78125 1242.242188 L 300.671875 1242.035156 L 304.425781 1242.160156 L 308.65625 1242.945312 L 313.070312 1244.503906 L 317.722656 1246.132812 L 322.757812 1246.921875 L 328.074219 1246.289062 L 332.632812 1244.957031 L 335.644531 1243.714844 L 338.277344 1242.355469 L 342.203125 1240.417969 L 348.480469 1237.597656 L 355.792969 1234.195312 L 362.207031 1230.65625 L 366.507812 1227.351562 L 370.332031 1224.332031 L 376.019531 1221.558594 L 385.171875 1218.890625 L 396.441406 1215.828125 L 407.730469 1211.757812 L 417.367188 1206.347656 L 425.359375 1200.324219 L 432.148438 1194.699219 L 438.136719 1190.277344 L 443.617188 1187.09375 L 448.859375 1184.992188 L 453.984375 1183.75 L 458.578125 1182.890625 L 462.078125 1181.871094 L 464.144531 1180.273438 L 465.285156 1178.148438 L 466.226562 1175.671875 L 467.523438 1173.003906 L 469.0625 1170.246094 L 470.574219 1167.503906 L 471.859375 1164.832031 L 473.070312 1162.167969 L 474.386719 1159.433594 L 475.78125 1156.703125 L 477.179688 1154.078125 L 478.523438 1151.609375 L 479.828125 1149.132812 L 481.140625 1146.4375 L 482.484375 1143.164062 L 483.851562 1138.382812 L 485.210938 1131.027344 L 486.554688 1120.589844 L 487.882812 1108.808594 L 489.207031 1097.996094 L 490.542969 1089.867188 L 491.890625 1083.796875 L 493.246094 1078.566406 L 494.605469 1073.238281 L 495.960938 1067.960938 L 497.289062 1063.152344 L 498.585938 1059.113281 L 499.890625 1055.652344 L 501.253906 1052.457031 L 502.703125 1049.238281 L 504.125 1045.765625 L 505.382812 1041.835938 L 506.453125 1037.296875 L 507.730469 1032.199219 L 509.507812 1026.425781 L 511.234375 1018.941406 L 512.144531 1008.472656 L 511.78125 994.535156 L 510.902344 979.789062 L 510.566406 967.667969 L 511.523438 960.554688 L 513.285156 956.613281 L 515.054688 952.949219 L 516.25 947.328125 L 517.1875 940.160156 L 518.398438 932.527344 L 520.085938 925.390625 L 521.152344 919.289062 L 520.175781 914.652344 L 516.285156 911.636719 L 510.894531 909.3125 L 505.964844 906.460938 L 503.070312 902.234375 L 502.214844 897.234375 L 503.003906 892.429688 L 505.078125 888.476562 L 508.21875 884.820312 L 512.238281 880.59375 L 516.699219 875.203125 L 520.171875 869.085938 L 520.992188 862.945312 L 518.234375 857.28125 L 514.003906 851.785156 L 510.554688 846.03125 L 507.769531 839.984375 L 504.929688 833.707031 L 501.601562 827.390625 L 498.523438 821.820312 L 496.703125 817.902344 L 496.835938 815.980469 L 498.304688 814.066406 L 500.167969 809.585938 L 501.550781 800.910156 L 501.890625 790.152344 L 500.679688 780.359375 L 497.730469 773.808594 L 494.054688 769.660156 L 490.976562 766.304688 L 489.371094 762.457031 L 488.390625 758.105469 L 486.730469 753.574219 L 483.542969 749 L 479.769531 743.78125 L 476.792969 737.136719 L 475.519531 728.648438 L 474.996094 719.378906 L 473.789062 710.757812 L 470.839844 703.929688 L 466.519531 698.910156 L 461.5 695.296875 L 456.160156 692.171875 L 450.808594 688.492188 L 445.800781 683.554688 L 441.664062 678.027344 L 438.972656 672.921875 L 437.933594 668.914062 L 437.316406 665.308594 L 435.519531 661.0625 L 431.484375 655.488281 L 426.261719 649.285156 L 421.429688 643.496094 L 418.09375 638.914062 L 415.445312 635.332031 L 412.203125 632.292969 L 407.503906 629.375 L 402.199219 626.296875 L 397.574219 622.808594 L 394.417969 618.769531 L 391.613281 614.472656 L 387.558594 610.3125 L 381.484375 606.601562 L 375.933594 603.304688 L 374.296875 600.296875 L 375.847656 597.480469 L 363.4375 594.867188 L 315.8125 592.492188 L 313.804688 593.898438 "/>
<path style="fill:none;stroke-width:0.75;stroke-linecap:round;stroke-linejoin:round;stroke:rgb(0%,0%,0%);stroke-opacity:1;stroke-miterlimit:10;" d="M 806.585938 702.929688 L 804.285156 705.570312 L 799.28125 708.417969 L 793.390625 711.730469 L 787.636719 715.199219 L 782.84375 718.394531 L 779.558594 720.960938 L 777.238281 722.882812 L 775.058594 724.234375 L 772.34375 725.113281 L 769.011719 725.703125 L 765.128906 726.203125 L 760.769531 726.828125 L 756.058594 727.824219 L 751.136719 729.449219 L 746.179688 731.867188 L 741.535156 734.910156 L 737.601562 738.316406 L 734.566406 741.851562 L 731.789062 745.363281 L 728.425781 748.707031 L 723.894531 751.824219 L 718.710938 754.921875 L 713.652344 758.285156 L 709.351562 762.054688 L 705.820312 765.835938 L 702.902344 769.199219 L 700.285156 772.214844 L 697.628906 775.066406 L 694.550781 777.9375 L 690.5 781.007812 L 684.902344 784.457031 L 677.542969 788.390625 L 669.746094 792.570312 L 663.210938 796.675781 L 659.183594 800.46875 L 657.078125 803.992188 L 655.863281 807.371094 L 654.554688 810.796875 L 652.425781 814.734375 L 648.808594 819.71875 L 643.328125 826.0625 L 636.78125 833.136719 L 630.246094 840.089844 L 624.558594 846.363281 L 619.570312 852.609375 L 614.871094 859.761719 L 610.171875 868.398438 L 605.648438 877.574219 L 601.59375 885.972656 L 598.292969 892.609375 L 596.007812 897.828125 L 594.832031 902.21875 L 594.167969 905.988281 L 593.246094 909.25 L 591.460938 912.109375 L 588.84375 914.648438 L 585.585938 916.9375 L 582.03125 919.097656 L 579.164062 921.429688 L 578.109375 924.289062 L 579.441406 927.871094 L 581.449219 931.695312 L 581.867188 935.144531 L 578.945312 937.6875 L 572.980469 939.226562 L 564.78125 939.773438 L 555.277344 939.503906 L 545.863281 939.261719 L 538.046875 940.050781 L 532.890625 942.550781 L 529.648438 946.125 L 527.128906 949.816406 L 524.421875 952.9375 L 521.757812 955.945312 L 519.648438 959.558594 L 518.394531 964.417969 L 517.453125 970.78125 L 516.242188 978.742188 L 514.792969 988.160156 L 513.3125 998.832031 L 511.949219 1010.378906 L 510.667969 1021.742188 L 509.390625 1031.683594 L 508.050781 1039.324219 L 506.671875 1045.246094 L 505.296875 1050.386719 L 503.953125 1055.515625 L 502.636719 1060.652344 L 501.3125 1065.65625 L 499.972656 1070.359375 L 498.621094 1074.582031 L 497.261719 1078.117188 L 495.910156 1080.90625 L 494.570312 1083.441406 L 493.246094 1086.335938 L 491.929688 1090.265625 L 490.605469 1096.050781 L 489.238281 1104.566406 L 487.8125 1116.304688 L 486.367188 1130.230469 L 485 1145.050781 L 484.039062 1159.890625 L 483.859375 1173.996094 L 484.703125 1186.667969 L 486.222656 1197.519531 L 487.945312 1206.234375 L 489.527344 1212.753906 L 491.1875 1218.113281 L 493.273438 1223.617188 L 495.972656 1230.269531 L 498.734375 1237.902344 L 500.839844 1246.054688 L 501.933594 1254.261719 L 503.144531 1262.03125 L 505.980469 1268.863281 L 511.3125 1274.511719 L 517.484375 1279.710938 L 522.214844 1285.4375 L 524.253906 1292.257812 L 526.457031 1299.042969 L 532.71875 1304.242188 L 545.421875 1306.675781 L 560.910156 1306.640625 L 574.007812 1304.792969 L 580.960938 1301.78125 L 583.671875 1298.167969 L 585.332031 1294.355469 L 588.601562 1290.171875 L 596.011719 1285.3125 L 608.769531 1279.652344 L 622.8125 1273.804688 L 632.75 1268.570312 L 635.136719 1264.53125 L 634.285156 1261.398438 L 636.433594 1258.671875 L 645.9375 1255.941406 L 659.515625 1253.222656 L 672 1250.609375 L 679.703125 1248.179688 L 684.890625 1245.847656 L 691.324219 1243.488281 L 701.582031 1241.03125 L 713.527344 1238.597656 L 723.839844 1236.363281 L 729.96875 1234.433594 L 732.378906 1232.652344 L 732.285156 1230.800781 L 731.195312 1228.707031 L 731.714844 1226.398438 L 736.742188 1223.945312 L 747.78125 1221.53125 L 760.804688 1219.746094 L 771.386719 1219.050781 L 779.0625 1218.914062 L 784.351562 1218.558594 L 787.8125 1217.359375 L 790.183594 1215.316406 L 792.246094 1212.574219 L 794.582031 1209.296875 L 797.007812 1205.6875 L 799.152344 1201.960938 L 800.78125 1198.320312 L 802.226562 1194.914062 L 803.964844 1191.871094 L 806.476562 1189.234375 L 810.234375 1186.65625 L 815.714844 1183.710938 L 823.058594 1180.085938 L 831.050781 1176 L 838.136719 1171.796875 L 843.195312 1167.730469 L 846.832031 1163.695312 L 850.085938 1159.492188 L 853.679688 1155.085938 L 857.105469 1151.097656 L 859.773438 1148.109375 L 862.058594 1145.839844 L 864.578125 1143.804688 L 867.738281 1141.574219 L 871.15625 1139.003906 L 874.238281 1136 L 876.589844 1132.542969 L 878.535156 1128.832031 L 880.59375 1125.132812 L 883.070312 1121.597656 L 885.425781 1117.914062 L 886.898438 1113.652344 L 887.035156 1108.5625 L 886.59375 1103.113281 L 886.636719 1097.9375 L 887.839844 1093.550781 L 889.363281 1089.921875 L 889.972656 1086.882812 L 888.914062 1084.21875 L 887.277344 1081.476562 L 886.621094 1078.164062 L 888.070312 1073.941406 L 890.96875 1069.136719 L 894.242188 1064.238281 L 896.859375 1059.703125 L 898.058594 1055.804688 L 897.46875 1052.644531 L 896.042969 1049.765625 L 895.066406 1046.558594 L 895.566406 1042.585938 L 897.566406 1038.019531 L 900.839844 1033.1875 L 904.984375 1028.402344 L 908.9375 1023.925781 L 911.449219 1019.988281 L 911.6875 1016.753906 L 910.429688 1014.039062 L 908.847656 1011.597656 L 907.960938 1009.210938 L 908.171875 1006.886719 L 909.703125 1004.679688 L 912.449219 1002.625 L 914.882812 1000.675781 L 915.136719 998.769531 L 912.101562 996.851562 L 907.714844 994.894531 L 904.6875 992.894531 L 904.972656 990.808594 L 907.554688 988.488281 L 910.667969 985.757812 L 912.804688 982.523438 L 913.46875 978.992188 L 912.597656 975.445312 L 910.832031 972.074219 L 908.980469 969.058594 L 907.761719 966.457031 L 907.523438 963.882812 L 908.523438 960.835938 L 910.746094 956.945312 L 913.136719 952.339844 L 914.375 947.289062 L 913.625 942.089844 L 912.007812 937.167969 L 911.121094 932.984375 L 912.132812 929.761719 L 914.417969 926.703125 L 916.917969 922.777344 L 918.734375 917.222656 L 919.601562 910.421875 L 919.425781 903.023438 L 918.207031 895.636719 L 916.328125 888.644531 L 914.285156 882.378906 L 912.535156 877.078125 L 911.429688 872.625 L 911.160156 868.773438 L 911.375 865.128906 L 911.582031 861.261719 L 911.378906 856.847656 L 910.714844 852.058594 L 909.617188 847.171875 L 908.148438 842.40625 L 906.496094 837.738281 L 904.863281 833.078125 L 903.515625 828.382812 L 902.875 823.761719 L 903.421875 819.371094 L 905.335938 815.324219 L 907.617188 811.546875 L 908.980469 807.941406 L 908.507812 804.402344 L 906.835938 800.835938 L 904.972656 797.164062 L 903.625 793.292969 L 902.277344 789.101562 L 900.105469 784.46875 L 896.664062 779.304688 L 893.050781 773.710938 L 890.742188 767.835938 L 890.539062 761.867188 L 890.546875 756.152344 L 888.777344 751.027344 L 885.589844 746.589844 L 881.929688 742.875 L 878.644531 739.847656 L 876.203125 737.160156 L 874.964844 734.394531 L 874.921875 731.207031 L 874.527344 727.621094 L 871.863281 723.75 L 865.648438 719.746094 L 857.160156 715.984375 L 848.320312 712.867188 L 840.722656 710.679688 L 834.71875 709.148438 L 830.34375 707.871094 L 827.476562 706.578125 L 825.421875 705.542969 L 823.328125 705.171875 L 820.570312 705.683594 L 817.410156 706.484375 L 814.34375 706.792969 L 811.671875 706.058594 L 809.019531 704.625 L 805.820312 703.070312 L 806.585938 702.929688 "/>
</g>
</svg>
