<?xml version="1.0" encoding="UTF-8"?>
<svg xmlns="http://www.w3.org/2000/svg" xmlns:xlink="http://www.w3.org/1999/xlink" width="1428pt" height="1605pt" viewBox="0 0 1428 1605" version="1.1">
<g id="surface149">
<rect x="0" y="0" width="1428" height="1605" style="fill:rgb(100%,100%,100%);fill-opacity:1;stroke:none;"/>
<path style="fill:none;stroke-width:0.75;stroke-linecap:round;stroke-linejoin:round;stroke:rgb(0%,0%,0%);stroke-opacity:1;stroke-miterlimit:10;" d="M 318.609375 587.402344 L 302.597656 591.042969 L 288.515625 593.585938 L 276.652344 595.71875 L 267.289062 598.113281 L 260.5625 601.269531 L 256.015625 604.933594 L 253.054688 608.664062 L 251.074219 612.023438 L 249.480469 614.574219 L 247.730469 616.03125 L 245.578125 616.710938 L 242.828125 617.097656 L 239.296875 617.664062 L 234.882812 618.792969 L 229.851562 620.5 L 224.5625 622.710938 L 219.371094 625.351562 L 214.632812 628.339844 L 210.585938 631.601562 L 206.988281 635.0625 L 203.46875 638.648438 L 199.671875 642.28125 L 195.351562 645.890625 L 190.738281 649.433594 L 186.1875 652.867188 L 182.046875 656.15625 L 178.675781 659.253906 L 176.300781 662.152344 L 174.640625 664.9375 L 173.304688 667.722656 L 171.886719 670.617188 L 169.992188 673.738281 L 167.316406 677.179688 L 163.917969 680.953125 L 159.960938 685.0625 L 155.609375 689.5 L 151.058594 694.246094 L 146.648438 699.183594 L 142.765625 704.175781 L 139.785156 709.089844 L 138.097656 713.789062 L 137.847656 718.203125 L 138.304688 722.503906 L 138.488281 726.933594 L 137.4375 731.730469 L 134.488281 737.066406 L 130.191406 742.8125 L 125.410156 748.777344 L 121.003906 754.753906 L 117.832031 760.550781 L 116.488281 765.980469 L 116.519531 770.914062 L 117.203125 775.226562 L 117.820312 778.792969 L 117.800781 781.574219 L 117.179688 783.820312 L 116.148438 785.851562 L 114.882812 788 L 113.574219 790.59375 L 112.378906 793.871094 L 111.3125 797.769531 L 110.363281 802.132812 L 109.527344 806.8125 L 108.792969 811.65625 L 108.097656 816.566406 L 107.210938 821.664062 L 105.847656 827.125 L 103.71875 833.125 L 100.691406 839.765625 L 97.199219 846.839844 L 93.828125 854.066406 L 91.152344 861.164062 L 89.757812 867.851562 L 89.96875 873.875 L 91.105469 879.074219 L 92.234375 883.320312 L 92.414062 886.488281 L 91 888.570312 L 88.511719 890.085938 L 85.761719 891.679688 L 83.554688 893.996094 L 82.699219 897.683594 L 83.722656 903.148438 L 86.023438 909.855469 L 88.722656 917.03125 L 90.933594 923.910156 L 91.984375 929.878906 L 91.996094 935.019531 L 91.316406 939.566406 L 90.277344 943.761719 L 89.210938 947.847656 L 88.40625 952.046875 L 87.9375 956.515625 L 87.824219 961.402344 L 88.085938 966.84375 L 88.75 972.984375 L 89.816406 979.832031 L 91.203125 986.871094 L 92.808594 993.445312 L 94.53125 998.90625 L 96.273438 1002.824219 L 97.953125 1005.671875 L 99.496094 1008.136719 L 100.824219 1010.917969 L 101.863281 1014.703125 L 102.578125 1019.949219 L 103.105469 1026.175781 L 103.640625 1032.652344 L 104.363281 1038.660156 L 105.410156 1043.628906 L 106.726562 1047.613281 L 108.214844 1050.816406 L 109.769531 1053.453125 L 111.285156 1055.722656 L 112.679688 1057.820312 L 113.902344 1059.894531 L 114.929688 1062.066406 L 115.726562 1064.476562 L 116.261719 1067.25 L 116.546875 1070.46875 L 116.738281 1074.046875 L 117.03125 1077.835938 L 117.621094 1081.707031 L 118.683594 1085.542969 L 120.28125 1089.339844 L 122.46875 1093.117188 L 125.289062 1096.898438 L 128.785156 1100.707031 L 132.941406 1104.605469 L 137.453125 1108.820312 L 141.949219 1113.613281 L 146.0625 1119.25 L 149.519531 1125.882812 L 152.425781 1133.207031 L 154.996094 1140.800781 L 157.425781 1148.246094 L 159.929688 1155.121094 L 162.699219 1161.152344 L 165.878906 1166.679688 L 169.609375 1172.191406 L 174.027344 1178.167969 L 179.171875 1184.9375 L 184.714844 1192.164062 L 190.230469 1199.347656 L 195.296875 1205.996094 L 199.488281 1211.609375 L 202.558594 1215.847656 L 204.976562 1219.011719 L 207.386719 1221.570312 L 210.433594 1223.976562 L 214.769531 1226.699219 L 220.847656 1230.082031 L 228.378906 1233.996094 L 236.886719 1238.207031 L 245.890625 1242.46875 L 254.960938 1246.539062 L 263.859375 1250.15625 L 272.378906 1253.0625 L 280.335938 1254.996094 L 287.523438 1255.6875 L 293.832031 1255.035156 L 299.484375 1253.550781 L 304.777344 1251.894531 L 310.011719 1250.738281 L 315.394531 1250.570312 L 320.722656 1251.167969 L 325.703125 1252.140625 L 330.027344 1253.09375 L 333.40625 1253.625 L 335.769531 1253.386719 L 338.015625 1252.167969 L 341.269531 1249.800781 L 346.660156 1246.109375 L 355.011719 1241.035156 L 365.9375 1234.90625 L 378.734375 1228.167969 L 392.710938 1221.253906 L 407.175781 1214.605469 L 421.445312 1208.589844 L 434.925781 1203.273438 L 447.027344 1198.648438 L 457.175781 1194.71875 L 464.78125 1191.472656 L 469.53125 1188.953125 L 472.148438 1187.371094 L 473.632812 1186.988281 L 474.96875 1188.0625 L 476.925781 1190.726562 L 479.335938 1194.613281 L 481.796875 1199.234375 L 483.914062 1204.097656 L 485.289062 1208.710938 L 485.679688 1212.710938 L 485.429688 1216.207031 L 485.039062 1219.429688 L 485.015625 1222.621094 L 485.730469 1225.976562 L 487.054688 1229.558594 L 488.738281 1233.402344 L 490.527344 1237.539062 L 492.171875 1241.992188 L 493.496094 1246.761719 L 494.625 1251.707031 L 495.773438 1256.640625 L 497.140625 1261.390625 L 498.933594 1265.777344 L 501.292969 1269.691406 L 504.074219 1273.320312 L 507.066406 1276.921875 L 510.058594 1280.761719 L 512.886719 1285.023438 L 515.574219 1289.636719 L 518.195312 1294.453125 L 520.8125 1299.328125 L 523.507812 1304.113281 L 526.390625 1308.636719 L 529.769531 1312.597656 L 533.980469 1315.667969 L 539.378906 1317.511719 L 546.148438 1317.902344 L 553.84375 1317.035156 L 561.863281 1315.1875 L 569.59375 1312.660156 L 576.433594 1309.734375 L 581.949219 1306.679688 L 586.390625 1303.664062 L 590.191406 1300.839844 L 593.765625 1298.347656 L 597.515625 1296.28125 L 601.710938 1294.5 L 606.589844 1292.808594 L 612.390625 1291.015625 L 619.359375 1288.921875 L 627.597656 1286.375 L 636.691406 1283.414062 L 646.078125 1280.113281 L 655.207031 1276.546875 L 663.523438 1272.796875 L 670.609375 1268.960938 L 676.613281 1265.226562 L 681.816406 1261.816406 L 686.492188 1258.9375 L 690.941406 1256.71875 L 695.503906 1254.941406 L 700.535156 1253.292969 L 706.382812 1251.46875 L 713.40625 1249.164062 L 721.785156 1246.15625 L 731.03125 1242.589844 L 740.484375 1238.691406 L 749.480469 1234.699219 L 757.582031 1230.757812 L 765.242188 1226.667969 L 773.121094 1222.15625 L 781.894531 1216.9375 L 792.226562 1210.730469 L 804.46875 1203.398438 L 817.664062 1195.335938 L 830.539062 1187.078125 L 841.824219 1179.164062 L 850.554688 1172.03125 L 857.019531 1165.730469 L 861.816406 1160.214844 L 865.546875 1155.4375 L 868.8125 1151.347656 L 872.109375 1147.859375 L 875.492188 1144.710938 L 878.917969 1141.605469 L 882.335938 1138.238281 L 885.703125 1134.308594 L 888.945312 1129.613281 L 891.886719 1124.300781 L 894.316406 1118.625 L 896.039062 1112.835938 L 896.914062 1107.15625 L 897.117188 1101.730469 L 896.875 1096.667969 L 896.433594 1092.089844 L 896.023438 1088.109375 L 895.871094 1084.757812 L 896.117188 1081.75 L 896.894531 1078.710938 L 898.324219 1075.269531 L 900.4375 1071.171875 L 902.839844 1066.660156 L 905.035156 1062.085938 L 906.523438 1057.808594 L 906.816406 1054.183594 L 905.632812 1051.445312 L 903.59375 1049.3125 L 901.535156 1047.386719 L 900.289062 1045.261719 L 900.703125 1042.53125 L 903.292969 1038.878906 L 907.339844 1034.292969 L 911.804688 1028.851562 L 915.65625 1022.628906 L 918.089844 1015.753906 L 919.277344 1008.582031 L 919.613281 1001.515625 L 919.503906 994.96875 L 919.347656 989.339844 L 919.460938 984.890625 L 919.773438 981.257812 L 920.136719 977.921875 L 920.394531 974.363281 L 920.433594 970.1875 L 920.308594 965.421875 L 920.113281 960.214844 L 919.9375 954.71875 L 919.875 949.082031 L 920.035156 943.464844 L 920.605469 938.105469 L 921.792969 933.253906 L 923.789062 929.167969 L 926.675781 926 L 930 923.515625 L 933.179688 921.394531 L 935.632812 919.308594 L 936.777344 916.929688 L 936.226562 914.007812 L 934.378906 910.578125 L 931.816406 906.757812 L 929.128906 902.660156 L 926.902344 898.402344 L 925.570312 894.09375 L 924.9375 889.847656 L 924.65625 885.769531 L 924.378906 881.972656 L 923.859375 878.535156 L 923.238281 875.421875 L 922.769531 872.558594 L 922.699219 869.878906 L 923.277344 867.320312 L 924.617188 864.800781 L 926.324219 862.222656 L 927.867188 859.484375 L 928.714844 856.480469 L 928.492188 853.113281 L 927.4375 849.308594 L 925.953125 845.015625 L 924.425781 840.167969 L 923.253906 834.707031 L 922.726562 828.636719 L 922.726562 822.226562 L 923.039062 815.800781 L 923.433594 809.691406 L 923.722656 804.15625 L 923.785156 799.140625 L 923.527344 794.515625 L 922.863281 790.15625 L 921.699219 785.933594 L 920.003906 781.75 L 918.003906 777.664062 L 915.988281 773.746094 L 914.242188 770.089844 L 913.050781 766.777344 L 912.609375 763.847656 L 912.691406 761.203125 L 912.984375 758.695312 L 913.164062 756.183594 L 912.945312 753.523438 L 912.148438 750.589844 L 910.628906 747.253906 L 908.242188 743.386719 L 904.839844 738.859375 L 900.378906 733.652344 L 895.230469 728.148438 L 889.855469 722.835938 L 884.730469 718.210938 L 880.199219 714.605469 L 876.097656 711.726562 L 872.140625 709.140625 L 868.039062 706.390625 L 863.507812 703.042969 L 858.382812 698.835938 L 852.988281 694.257812 L 847.773438 689.984375 L 843.183594 686.695312 L 839.667969 685.066406 L 837.523438 685.515625 L 836.46875 687.449219 L 836.0625 690.003906 L 835.871094 692.332031 L 835.503906 693.75 L 834.738281 694.269531 L 833.386719 694.082031 L 831.273438 693.371094 L 828.214844 692.324219 L 824.136719 691.117188 L 819.414062 689.875 L 814.527344 688.710938 L 809.957031 687.734375 L 806.070312 687.046875 L 802.789062 686.722656 L 799.925781 686.832031 L 797.285156 687.441406 L 794.6875 688.617188 L 791.957031 690.367188 L 789.042969 692.460938 L 785.902344 694.605469 L 782.5 696.519531 L 778.824219 697.984375 L 774.957031 699.097656 L 770.996094 700.039062 L 767.042969 700.984375 L 763.207031 702.109375 L 759.554688 703.542969 L 756.039062 705.238281 L 752.574219 707.097656 L 749.089844 709.023438 L 745.5 710.925781 L 741.769531 712.757812 L 738.042969 714.695312 L 734.503906 716.96875 L 731.335938 719.804688 L 728.683594 723.316406 L 726.484375 727.171875 L 724.640625 730.910156 L 723.050781 734.089844 L 721.601562 736.25 L 720.160156 737.136719 L 718.398438 737.253906 L 715.96875 737.289062 L 712.503906 737.9375 L 707.816406 739.734375 L 702.355469 742.558594 L 696.75 746.136719 L 691.617188 750.195312 L 687.582031 754.449219 L 685.058594 758.660156 L 683.664062 762.703125 L 682.804688 766.492188 L 681.894531 769.9375 L 680.441406 773.007812 L 678.355469 775.914062 L 675.644531 778.921875 L 672.3125 782.300781 L 668.375 786.3125 L 663.847656 791.140625 L 658.792969 796.625 L 653.292969 802.511719 L 647.417969 808.550781 L 641.242188 814.496094 L 634.863281 820.15625 L 628.433594 825.609375 L 622.125 830.992188 L 616.105469 836.445312 L 610.53125 842.101562 L 605.488281 848.046875 L 601.046875 854.359375 L 597.277344 861.121094 L 594.242188 868.410156 L 591.949219 876.210938 L 590.097656 884.105469 L 588.324219 891.59375 L 586.269531 898.167969 L 583.664062 903.460938 L 580.652344 907.699219 L 577.46875 911.246094 L 574.359375 914.46875 L 571.554688 917.730469 L 569.222656 921.257812 L 567.191406 924.664062 L 565.222656 927.429688 L 563.074219 929.027344 L 560.496094 928.929688 L 557.324219 926.96875 L 553.71875 924.386719 L 549.910156 922.789062 L 546.128906 923.777344 L 542.582031 928.390625 L 539.335938 935.421875 L 536.421875 943.101562 L 533.878906 949.664062 L 531.746094 953.339844 L 530.019531 952.84375 L 528.582031 948.832031 L 527.277344 942.4375 L 525.953125 934.804688 L 524.480469 926.929688 L 522.882812 919.253906 L 521.203125 912.085938 L 519.488281 905.730469 L 517.78125 900.492188 L 516.183594 896.515625 L 514.945312 893.3125 L 514.386719 890.230469 L 514.804688 886.617188 L 516.347656 881.992188 L 518.542969 876.511719 L 520.738281 870.519531 L 522.300781 864.335938 L 522.585938 858.296875 L 521.160156 852.648438 L 518.421875 847.328125 L 514.984375 842.183594 L 511.445312 837.066406 L 508.417969 831.832031 L 506.363281 826.359375 L 505.183594 820.667969 L 504.636719 814.800781 L 504.476562 808.8125 L 504.472656 802.730469 L 504.425781 796.550781 L 504.136719 790.25 L 503.414062 783.800781 L 502.066406 777.183594 L 499.980469 770.386719 L 497.34375 763.453125 L 494.441406 756.445312 L 491.542969 749.414062 L 488.871094 742.429688 L 486.421875 735.621094 L 484.15625 729.125 L 482.011719 723.078125 L 479.9375 717.628906 L 477.871094 712.84375 L 475.660156 708.550781 L 473.140625 704.515625 L 470.144531 700.492188 L 466.585938 696.296875 L 462.644531 691.929688 L 458.589844 687.441406 L 454.679688 682.890625 L 451.171875 678.328125 L 448.265625 673.800781 L 445.890625 669.339844 L 443.917969 664.960938 L 442.214844 660.691406 L 440.648438 656.554688 L 439.074219 652.570312 L 437.3125 648.769531 L 435.160156 645.167969 L 432.425781 641.804688 L 428.972656 638.664062 L 424.882812 635.648438 L 420.304688 632.617188 L 415.386719 629.433594 L 410.269531 625.964844 L 405.097656 622.125 L 400.003906 618.0625 L 395.109375 613.964844 L 390.546875 610.039062 L 386.347656 606.433594 L 382.15625 603.136719 L 377.539062 600.09375 L 372.042969 597.25 L 365.226562 594.550781 L 356.851562 591.964844 L 347.492188 589.554688 L 337.929688 587.414062 L 328.941406 585.632812 L 321.308594 584.296875 L 318.609375 587.402344 "/>
<path style="fill:none;stroke-width:0.75;stroke-linecap:round;stroke-linejoin:round;stroke:rgb(0%,0%,0%);stroke-opacity:1;stroke-miterlimit:10;" d="M 320.753906 586.289062 L 307.300781 591.042969 L 284.28125 594.75 L 270.324219 597.15625 L 264.90625 598.875 L 262.726562 600.730469 L 259.550781 603.378906 L 255.40625 606.765625 L 251.398438 610.671875 L 248.363281 614.738281 L 246.128906 618.058594 L 244.261719 619.601562 L 242.3125 618.8125 L 239.804688 617.136719 L 236.246094 616.496094 L 231.339844 618.292969 L 225.566406 621.832031 L 219.59375 625.875 L 214.023438 629.449219 L 209.183594 632.5625 L 205.3125 635.484375 L 202.472656 638.464844 L 199.921875 641.695312 L 196.734375 645.347656 L 192.289062 649.445312 L 187.222656 653.371094 L 182.386719 656.550781 L 178.222656 659.222656 L 175.085938 661.828125 L 173.171875 664.707031 L 172.078125 667.796875 L 171.246094 670.945312 L 170.175781 674.046875 L 168.511719 677.222656 L 165.953125 680.640625 L 162.246094 684.46875 L 157.34375 688.855469 L 151.238281 693.925781 L 144.308594 699.664062 L 138.402344 705.414062 L 135.75 710.363281 L 137.605469 714.023438 L 141.328125 717.164062 L 143.304688 720.878906 L 140.992188 725.957031 L 136.058594 731.945312 L 131.25 738.09375 L 128.507812 743.8125 L 126.632812 749.183594 L 123.628906 754.445312 L 118.5 759.804688 L 114.242188 765.308594 L 113.804688 770.847656 L 115.988281 775.886719 L 118.550781 779.785156 L 119.675781 782.148438 L 119.210938 783.605469 L 117.429688 785.023438 L 114.726562 787.140625 L 112.027344 790.085938 L 110.378906 793.855469 L 110.429688 798.351562 L 111.199219 803.132812 L 111.304688 807.675781 L 109.796875 811.664062 L 107.472656 815.667969 L 105.566406 820.46875 L 104.871094 826.59375 L 104.371094 833.558594 L 102.617188 840.621094 L 98.683594 847.242188 L 93.8125 853.675781 L 89.773438 860.371094 L 87.972656 867.550781 L 88.355469 874.441406 L 90.492188 880.046875 L 93.539062 883.695312 L 94.996094 886.09375 L 92.824219 888.125 L 88.492188 890.117188 L 84.339844 892.238281 L 82.230469 894.707031 L 82.121094 897.929688 L 83.492188 902.351562 L 85.804688 908.253906 L 88.464844 915.277344 L 90.863281 922.902344 L 92.472656 930.550781 L 93.09375 937.394531 L 92.621094 942.558594 L 91.078125 945.554688 L 89.085938 947.496094 L 87.394531 949.882812 L 86.613281 953.90625 L 86.742188 959.527344 L 87.632812 966.378906 L 89.097656 974.015625 L 90.769531 981.648438 L 92.234375 988.394531 L 93.257812 993.671875 L 94.34375 998.042969 L 95.964844 1002.171875 L 97.765625 1005.925781 L 99.191406 1008.96875 L 99.917969 1011.257812 L 100.554688 1013.898438 L 101.953125 1018.292969 L 104.542969 1025.25 L 107.070312 1033.269531 L 107.871094 1040.285156 L 105.992188 1044.773438 L 103.347656 1047.5 L 102.566406 1049.78125 L 105.464844 1052.621094 L 110.628906 1055.730469 L 115.824219 1058.492188 L 119.15625 1060.5 L 120.082031 1062.167969 L 118.390625 1064.109375 L 114.425781 1066.804688 L 110.738281 1070.179688 L 110.4375 1074.027344 L 115.300781 1078.117188 L 121.832031 1082.15625 L 125.199219 1085.824219 L 122.597656 1089.003906 L 119.25 1092.382812 L 120.789062 1096.578125 L 126.363281 1101.1875 L 133.496094 1105.550781 L 140.046875 1109.289062 L 145.167969 1113.160156 L 148.34375 1118.199219 L 149.433594 1125.105469 L 149.832031 1133.214844 L 151.308594 1141.515625 L 155.097656 1149.148438 L 160.246094 1155.835938 L 165.277344 1161.4375 L 169.058594 1166.050781 L 171.921875 1170.695312 L 174.554688 1176.628906 L 177.601562 1184.601562 L 181.546875 1193.425781 L 186.828125 1201.414062 L 193.550781 1207.300781 L 200.429688 1211.484375 L 205.84375 1214.789062 L 208.6875 1217.902344 L 209.898438 1220.988281 L 210.941406 1224.0625 L 213.167969 1227.183594 L 217.585938 1230.476562 L 224.816406 1234.058594 L 234.34375 1237.933594 L 245.371094 1242.0625 L 256.984375 1246.335938 L 267.808594 1250.289062 L 276.355469 1253.390625 L 281.753906 1255.210938 L 285.585938 1255.789062 L 290.066406 1255.269531 L 296.742188 1253.882812 L 304.582031 1252.179688 L 311.910156 1250.792969 L 317.457031 1250.21875 L 321.613281 1250.398438 L 325.195312 1251.140625 L 328.84375 1252.222656 L 332.535156 1253.285156 L 336.085938 1253.949219 L 339.464844 1253.738281 L 343.234375 1251.878906 L 348.121094 1247.507812 L 354.757812 1240.363281 L 363.480469 1232.601562 L 374.542969 1226.328125 L 388.191406 1221.054688 L 404.660156 1215.644531 L 423.5 1209.328125 L 441.457031 1202.773438 L 454.574219 1197.023438 L 460.214844 1192.804688 L 460.988281 1189.625 L 460.824219 1186.679688 L 462.71875 1183.328125 L 466.003906 1179.566406 L 469.078125 1175.558594 L 470.78125 1171.4375 L 471.640625 1167.277344 L 472.625 1163.113281 L 474.441406 1159.007812 L 476.796875 1155.082031 L 479.144531 1151.46875 L 481.054688 1148.101562 L 482.585938 1144.082031 L 483.921875 1138.304688 L 485.222656 1130.03125 L 486.523438 1119.972656 L 487.851562 1109.203125 L 489.210938 1098.796875 L 490.578125 1089.898438 L 491.917969 1083.261719 L 493.242188 1078.144531 L 494.570312 1073.414062 L 495.917969 1068.265625 L 497.277344 1063.132812 L 498.628906 1058.78125 L 499.964844 1055.667969 L 501.289062 1053.03125 L 502.625 1049.820312 L 503.972656 1045.359375 L 505.328125 1040.53125 L 506.679688 1036.605469 L 508.015625 1033.929688 L 509.34375 1029.191406 L 510.675781 1018.164062 L 512.023438 998.507812 L 513.375 975.457031 L 514.726562 956.144531 L 516.070312 945.824219 L 517.40625 942.289062 L 518.734375 941.457031 L 520.0625 939.957031 L 521.414062 937.21875 L 522.820312 933.386719 L 524.242188 928.570312 L 525.371094 922.753906 L 525.800781 916.097656 L 524.980469 909.523438 L 522.328125 904.148438 L 517.730469 900.695312 L 512.996094 898.335938 L 510.402344 895.859375 L 511.511719 892.261719 L 514.996094 887.457031 L 518.800781 881.5625 L 521.28125 874.839844 L 522.351562 868.066406 L 522.339844 862.152344 L 521.527344 857.691406 L 520.054688 853.972656 L 518.035156 849.96875 L 515.554688 844.851562 L 512.636719 838.621094 L 509.289062 831.472656 L 505.730469 823.820312 L 503.03125 816.925781 L 502.488281 812.261719 L 504.59375 810.242188 L 506.71875 807.105469 L 506.289062 799.417969 L 504.152344 789.3125 L 501.996094 780.296875 L 501.015625 774.835938 L 500.390625 771.164062 L 498.792969 766.449219 L 495.363281 758.707031 L 491.089844 749.292969 L 487.425781 740.394531 L 485.394531 733.648438 L 484.296875 728.488281 L 483.003906 723.796875 L 480.695312 718.710938 L 477.753906 713.421875 L 474.863281 708.378906 L 472.492188 703.921875 L 470.207031 699.921875 L 467.347656 696.144531 L 463.476562 692.355469 L 459.023438 688.292969 L 454.632812 683.707031 L 450.835938 678.484375 L 447.695312 673.128906 L 445.167969 668.289062 L 443.222656 664.371094 L 441.898438 660.828125 L 441.097656 657.042969 L 440.175781 653.046875 L 438.339844 649.039062 L 435.105469 645.199219 L 431.152344 641.609375 L 427.472656 638.335938 L 424.679688 635.382812 L 421.902344 632.546875 L 417.902344 629.558594 L 411.871094 626.203125 L 404.683594 622.460938 L 397.648438 618.34375 L 391.882812 613.953125 L 387.761719 609.652344 L 385.476562 605.886719 L 384.679688 602.933594 L 382.851562 600.433594 L 376.921875 597.855469 L 365.234375 594.847656 L 351.71875 591.730469 L 341.695312 589.007812 L 338.066406 587.050781 L 333.996094 585.710938 L 320.222656 584.710938 L 320.753906 586.289062 "/>
<path style="fill:none;stroke-width:0.75;stroke-linecap:round;stroke-linejoin:round;stroke:rgb(0%,0%,0%);stroke-opacity:1;stroke-miterlimit:10;" d="M 836.4375 681.5625 L 835.914062 685.566406 L 836.300781 689.476562 L 836.578125 692.816406 L 835.960938 695.160156 L 834.597656 696.265625 L 832.847656 695.929688 L 830.933594 694.15625 L 828.484375 691.699219 L 824.972656 689.507812 L 820.121094 688.296875 L 814.640625 687.882812 L 809.5 687.847656 L 805.433594 687.839844 L 802.269531 687.816406 L 799.621094 687.808594 L 797.144531 687.894531 L 794.707031 688.335938 L 792.226562 689.441406 L 789.597656 691.402344 L 786.617188 693.878906 L 783.050781 696.410156 L 778.796875 698.589844 L 774.257812 700.203125 L 769.953125 701.09375 L 766.269531 701.265625 L 763.058594 701.394531 L 760.019531 702.316406 L 756.890625 704.5625 L 753.507812 707.449219 L 749.722656 709.996094 L 745.5 711.523438 L 741.148438 712.5625 L 737.089844 713.960938 L 733.660156 716.363281 L 730.902344 719.664062 L 728.792969 723.5625 L 727.226562 727.703125 L 725.789062 731.527344 L 723.992188 734.414062 L 721.53125 735.953125 L 718.871094 736.550781 L 716.65625 736.828125 L 715.1875 737.324219 L 713.402344 738.320312 L 709.902344 740.015625 L 703.851562 742.5625 L 696.707031 745.878906 L 690.492188 749.832031 L 686.71875 754.238281 L 684.773438 758.792969 L 683.523438 763.136719 L 682.097656 766.980469 L 680.683594 770.285156 L 679.722656 773.066406 L 679.34375 775.457031 L 678.367188 778.039062 L 675.289062 781.507812 L 669.226562 786.320312 L 661.769531 791.964844 L 655.132812 797.683594 L 650.832031 802.9375 L 647.609375 808.039062 L 643.503906 813.5 L 637.132812 819.65625 L 629.386719 826.0625 L 621.734375 832.085938 L 615.3125 837.304688 L 609.964844 842.125 L 605.207031 847.160156 L 600.707031 852.960938 L 596.757812 859.78125 L 593.804688 867.820312 L 592.066406 877.007812 L 590.882812 886.199219 L 589.367188 893.984375 L 586.855469 899.355469 L 583.597656 902.917969 L 580.054688 905.671875 L 576.648438 908.53125 L 573.632812 912.066406 L 571.210938 916.765625 L 569.457031 922.6875 L 567.945312 928.207031 L 566.109375 931.277344 L 563.53125 930.523438 L 560.347656 927.332031 L 556.828125 923.773438 L 553.214844 921.652344 L 549.609375 921.734375 L 546.078125 924.523438 L 542.695312 930.121094 L 539.574219 937.011719 L 536.832031 943.273438 L 534.488281 947.46875 L 532.183594 950.027344 L 529.449219 951.867188 L 526.035156 953.757812 L 522.5 955.960938 L 519.621094 958.59375 L 517.929688 961.941406 L 517.007812 966.957031 L 516.203125 974.757812 L 515.011719 985.925781 L 513.527344 998.914062 L 511.980469 1011.636719 L 510.566406 1022.421875 L 509.257812 1031.285156 L 508 1038.652344 L 506.722656 1044.960938 L 505.382812 1050.597656 L 503.996094 1055.804688 L 502.613281 1060.773438 L 501.261719 1065.644531 L 499.9375 1070.28125 L 498.621094 1074.503906 L 497.300781 1078.160156 L 495.964844 1081.265625 L 494.597656 1083.894531 L 493.207031 1086.320312 L 491.828125 1089.722656 L 490.519531 1095.484375 L 489.304688 1104.597656 L 488.058594 1116.449219 L 486.628906 1130.011719 L 484.953125 1144.316406 L 483.328125 1158.554688 L 482.132812 1171.96875 L 481.667969 1183.84375 L 481.847656 1193.679688 L 482.492188 1201.027344 L 483.40625 1205.730469 L 484.285156 1208.828125 L 484.804688 1211.644531 L 484.785156 1215.195312 L 484.625 1219.230469 L 484.878906 1223.191406 L 485.9375 1226.679688 L 487.542969 1229.925781 L 489.285156 1233.332031 L 490.832031 1237.222656 L 492.148438 1241.628906 L 493.285156 1246.527344 L 494.324219 1251.808594 L 495.464844 1257.078125 L 496.941406 1261.878906 L 498.925781 1265.890625 L 501.386719 1269.398438 L 504.230469 1272.84375 L 507.332031 1276.585938 L 510.417969 1280.683594 L 513.1875 1285.128906 L 515.464844 1289.875 L 517.578125 1294.769531 L 520 1299.625 L 523.082031 1304.261719 L 526.753906 1308.503906 L 530.835938 1312.183594 L 535.214844 1315.125 L 540.066406 1317.121094 L 545.640625 1317.96875 L 552.140625 1317.511719 L 559.582031 1315.875 L 567.949219 1313.230469 L 576.914062 1309.828125 L 584.945312 1306.203125 L 590.191406 1302.960938 L 591.664062 1300.527344 L 591.738281 1298.621094 L 593.632812 1296.78125 L 599.585938 1294.667969 L 607.867188 1292.425781 L 615.761719 1290.328125 L 621.417969 1288.515625 L 626.4375 1286.636719 L 633.285156 1284.199219 L 643.542969 1280.867188 L 655.285156 1276.875 L 665.699219 1272.601562 L 672.746094 1268.398438 L 677.433594 1264.550781 L 681.546875 1261.316406 L 686.40625 1258.867188 L 691.527344 1257 L 695.964844 1255.433594 L 699.332031 1253.867188 L 703.40625 1251.945312 L 710.507812 1249.300781 L 721.949219 1245.730469 L 734.980469 1241.679688 L 745.832031 1237.757812 L 751.949219 1234.375 L 755.609375 1231.175781 L 760.292969 1227.613281 L 768.683594 1223.191406 L 780.21875 1217.664062 L 793.53125 1210.847656 L 807.324219 1202.738281 L 820.535156 1194.105469 L 832.171875 1185.898438 L 841.527344 1178.835938 L 849.054688 1172.660156 L 855.480469 1166.867188 L 861.347656 1161.117188 L 866.417969 1155.664062 L 870.257812 1150.921875 L 872.695312 1147.15625 L 874.613281 1144.074219 L 877.152344 1141.230469 L 881.09375 1138.203125 L 885.765625 1134.671875 L 890.117188 1130.339844 L 893.316406 1125.03125 L 895.332031 1119.035156 L 896.34375 1112.753906 L 896.527344 1106.59375 L 896.113281 1100.914062 L 895.570312 1095.917969 L 895.414062 1091.753906 L 895.996094 1088.449219 L 896.941406 1085.558594 L 897.714844 1082.5 L 897.972656 1078.855469 L 898.238281 1074.769531 L 899.242188 1070.546875 L 901.429688 1066.433594 L 904.113281 1062.464844 L 906.335938 1058.617188 L 907.300781 1054.910156 L 906.910156 1051.472656 L 905.246094 1048.464844 L 902.601562 1045.996094 L 900.199219 1043.914062 L 899.480469 1042.015625 L 901.476562 1039.949219 L 905.589844 1036.769531 L 910.8125 1031.386719 L 916.09375 1023.25 L 920.234375 1013.921875 L 922.003906 1005.511719 L 920.761719 999.539062 L 918.25 995.234375 L 916.808594 991.25 L 918.03125 986.574219 L 920.527344 981.589844 L 922.15625 977 L 921.441406 973.28125 L 919.597656 969.902344 L 918.496094 966.082031 L 919.410156 961.234375 L 921.164062 955.503906 L 921.988281 949.21875 L 920.765625 942.777344 L 919.023438 936.816406 L 918.957031 932.039062 L 922.074219 928.882812 L 927.113281 926.761719 L 932.128906 924.828125 L 935.507812 922.40625 L 937.046875 919.535156 L 936.867188 916.4375 L 935.21875 913.273438 L 932.785156 909.988281 L 930.371094 906.476562 L 928.601562 902.664062 L 927.410156 898.617188 L 926.546875 894.449219 L 925.808594 890.253906 L 925.089844 886.113281 L 924.335938 882.101562 L 923.515625 878.3125 L 922.777344 874.882812 L 922.300781 871.960938 L 922.273438 869.609375 L 922.917969 867.527344 L 924.441406 865.332031 L 926.824219 862.714844 L 929.085938 859.691406 L 929.992188 856.375 L 928.761719 852.832031 L 926.390625 849.015625 L 924.316406 844.839844 L 923.59375 840.210938 L 923.734375 834.984375 L 923.878906 829 L 923.414062 822.253906 L 922.753906 815.355469 L 922.578125 809.058594 L 923.285156 803.90625 L 924.191406 799.523438 L 924.347656 795.324219 L 923.105469 790.839844 L 921.066406 786.148438 L 919.136719 781.441406 L 917.953125 776.933594 L 917.066406 772.855469 L 915.75 769.445312 L 913.597656 766.824219 L 911.453125 764.601562 L 910.46875 762.273438 L 911.375 759.453125 L 913.15625 756.277344 L 914.375 752.996094 L 913.898438 749.785156 L 911.804688 746.496094 L 908.476562 742.894531 L 904.285156 738.796875 L 899.527344 734.214844 L 894.480469 729.210938 L 889.417969 723.921875 L 884.597656 718.757812 L 880.273438 714.207031 L 876.542969 710.601562 L 872.902344 707.71875 L 868.710938 705.179688 L 863.53125 702.632812 L 857.839844 699.828125 L 852.332031 696.542969 L 847.578125 692.648438 L 843.578125 688.398438 L 840.214844 684.148438 L 837.355469 680.25 L 836.4375 681.5625 "/>
</g>
</svg>
