<?xml version="1.0" encoding="UTF-8"?>
<svg xmlns="http://www.w3.org/2000/svg" xmlns:xlink="http://www.w3.org/1999/xlink" width="1428pt" height="1605pt" viewBox="0 0 1428 1605" version="1.1">
<g id="surface154">
<rect x="0" y="0" width="1428" height="1605" style="fill:rgb(100%,100%,100%);fill-opacity:1;stroke:none;"/>
<path style="fill:none;stroke-width:0.75;stroke-linecap:round;stroke-linejoin:round;stroke:rgb(0%,0%,0%);stroke-opacity:1;stroke-miterlimit:10;" d="M 293.519531 570.039062 L 289.441406 575.585938 L 286.585938 580.777344 L 284.113281 585.183594 L 281.175781 588.382812 L 277.164062 590.113281 L 272.367188 590.789062 L 267.316406 590.976562 L 262.53125 591.253906 L 258.363281 592.105469 L 254.496094 593.65625 L 250.429688 595.941406 L 245.679688 598.996094 L 239.746094 602.859375 L 232.363281 607.492188 L 224.113281 612.609375 L 215.808594 617.851562 L 208.253906 622.863281 L 202.066406 627.367188 L 197.109375 631.40625 L 193.050781 635.101562 L 189.570312 638.585938 L 186.332031 641.972656 L 183.089844 645.382812 L 179.898438 648.867188 L 176.890625 652.480469 L 174.207031 656.265625 L 171.898438 660.261719 L 169.722656 664.460938 L 167.347656 668.855469 L 164.453125 673.429688 L 160.710938 678.171875 L 155.964844 683.035156 L 150.738281 687.820312 L 145.730469 692.296875 L 141.636719 696.226562 L 138.945312 699.5 L 137.339844 702.519531 L 136.292969 705.800781 L 135.285156 709.871094 L 133.785156 715.25 L 131.417969 722.257812 L 128.363281 730.386719 L 124.949219 738.933594 L 121.496094 747.195312 L 118.296875 754.589844 L 115.507812 761.058594 L 113.242188 766.671875 L 111.628906 771.5 L 110.78125 775.617188 L 110.71875 779.140625 L 111.074219 782.398438 L 111.363281 785.761719 L 111.117188 789.613281 L 109.992188 794.226562 L 108.167969 799.460938 L 105.964844 805.082031 L 103.707031 810.847656 L 101.699219 816.523438 L 100.160156 821.96875 L 98.847656 827.449219 L 97.410156 833.324219 L 95.503906 839.964844 L 92.914062 847.558594 L 89.984375 855.652344 L 87.183594 863.605469 L 84.996094 870.789062 L 83.886719 876.574219 L 84.121094 880.546875 L 85.097656 883.199219 L 86.007812 885.234375 L 86.027344 887.363281 L 84.605469 890.132812 L 82.175781 893.425781 L 79.441406 896.960938 L 77.097656 900.460938 L 75.839844 903.648438 L 76.167969 906.359375 L 77.777344 908.90625 L 80.171875 911.71875 L 82.851562 915.230469 L 85.363281 919.714844 L 87.457031 924.871094 L 88.925781 930.238281 L 89.578125 935.359375 L 89.285156 939.886719 L 88.265625 943.90625 L 86.828125 947.613281 L 85.265625 951.199219 L 83.882812 954.863281 L 82.933594 958.761719 L 82.492188 962.921875 L 82.582031 967.339844 L 83.234375 972 L 84.429688 976.871094 L 86.011719 981.78125 L 87.785156 986.542969 L 89.546875 990.960938 L 91.097656 994.84375 L 92.3125 998.089844 L 93.328125 1000.992188 L 94.359375 1003.9375 L 95.613281 1007.308594 L 97.226562 1011.402344 L 99.015625 1016.125 L 100.722656 1021.292969 L 102.082031 1026.714844 L 102.835938 1032.207031 L 102.851562 1037.582031 L 102.519531 1042.640625 L 102.34375 1047.179688 L 102.839844 1051.003906 L 104.363281 1053.984375 L 106.589844 1056.304688 L 109.050781 1058.222656 L 111.261719 1060 L 112.75 1061.894531 L 113.210938 1064.121094 L 113.035156 1066.746094 L 112.789062 1069.800781 L 113.042969 1073.304688 L 114.210938 1077.246094 L 116.136719 1081.441406 L 118.515625 1085.671875 L 121.039062 1089.710938 L 123.398438 1093.34375 L 125.402344 1096.433594 L 127.269531 1099.222656 L 129.347656 1102.03125 L 131.960938 1105.1875 L 135.332031 1108.957031 L 139.175781 1113.339844 L 143.085938 1118.28125 L 146.65625 1123.710938 L 149.484375 1129.578125 L 151.308594 1135.753906 L 152.457031 1141.886719 L 153.398438 1147.546875 L 154.609375 1152.320312 L 156.433594 1155.929688 L 158.714844 1158.703125 L 161.171875 1161.109375 L 163.515625 1163.609375 L 165.472656 1166.683594 L 166.855469 1170.636719 L 167.894531 1175.140625 L 168.925781 1179.703125 L 170.273438 1183.839844 L 172.203125 1187.199219 L 174.675781 1189.992188 L 177.585938 1192.5625 L 180.828125 1195.257812 L 184.289062 1198.429688 L 187.871094 1202.316406 L 191.523438 1206.734375 L 195.195312 1211.40625 L 198.847656 1216.03125 L 202.433594 1220.398438 L 205.9375 1224.546875 L 209.335938 1228.582031 L 212.613281 1232.617188 L 216.003906 1236.703125 L 220.71875 1240.691406 L 228.21875 1244.386719 L 239.96875 1247.585938 L 257.433594 1250.089844 L 281.167969 1251.675781 L 308.132812 1252.039062 L 334.378906 1250.839844 L 355.964844 1247.75 L 370.03125 1242.660156 L 378.058594 1236.339844 L 382.625 1229.78125 L 386.296875 1223.972656 L 391.644531 1219.910156 L 400.542969 1218.21875 L 412.082031 1218.085938 L 424.648438 1218.324219 L 436.640625 1217.757812 L 446.753906 1215.574219 L 454.9375 1212.464844 L 461.445312 1209.480469 L 466.53125 1207.675781 L 470.453125 1208.109375 L 473.449219 1211.464844 L 475.695312 1216.9375 L 477.351562 1223.359375 L 478.574219 1229.546875 L 479.523438 1234.589844 L 480.335938 1238.597656 L 481.148438 1241.945312 L 482.09375 1245.007812 L 483.308594 1248.15625 L 484.867188 1251.65625 L 486.609375 1255.378906 L 488.300781 1259.085938 L 489.71875 1262.535156 L 490.730469 1265.585938 L 491.59375 1268.453125 L 492.652344 1271.441406 L 494.253906 1274.863281 L 496.742188 1279.027344 L 500.316406 1284.117188 L 504.53125 1289.851562 L 508.800781 1295.8125 L 512.527344 1301.601562 L 515.363281 1306.875 L 517.96875 1311.597656 L 521.234375 1315.800781 L 526.0625 1319.507812 L 533.355469 1322.757812 L 543.566406 1325.554688 L 555.40625 1327.824219 L 567.144531 1329.46875 L 577.050781 1330.386719 L 583.824219 1330.511719 L 587.902344 1329.890625 L 590.140625 1328.597656 L 591.410156 1326.710938 L 592.570312 1324.308594 L 594.316406 1321.5 L 596.664062 1318.5625 L 599.453125 1315.800781 L 602.527344 1313.527344 L 605.757812 1311.953125 L 609.152344 1310.914062 L 612.730469 1310.148438 L 616.527344 1309.402344 L 620.570312 1308.410156 L 624.859375 1306.984375 L 629.257812 1305.234375 L 633.605469 1303.339844 L 637.734375 1301.476562 L 641.613281 1299.742188 L 645.738281 1297.902344 L 650.746094 1295.625 L 657.265625 1292.59375 L 665.671875 1288.613281 L 675.324219 1284.023438 L 685.320312 1279.292969 L 694.765625 1274.886719 L 702.765625 1271.28125 L 708.699219 1268.789062 L 713.089844 1267.148438 L 716.738281 1265.945312 L 720.449219 1264.765625 L 724.847656 1263.261719 L 729.859375 1261.375 L 735.238281 1259.105469 L 740.734375 1256.464844 L 746.097656 1253.449219 L 751.128906 1250.121094 L 755.816406 1246.714844 L 760.199219 1243.511719 L 764.324219 1240.800781 L 768.21875 1238.78125 L 771.890625 1237.324219 L 775.324219 1236.214844 L 778.527344 1235.242188 L 781.488281 1234.1875 L 784.28125 1232.84375 L 787.296875 1230.992188 L 791.007812 1228.425781 L 795.886719 1224.929688 L 802.195312 1220.398438 L 809.414062 1215.160156 L 816.808594 1209.640625 L 823.644531 1204.273438 L 829.203125 1199.496094 L 833.019531 1195.605469 L 835.726562 1192.402344 L 838.226562 1189.5625 L 841.429688 1186.75 L 846.027344 1183.683594 L 851.859375 1180.203125 L 858.570312 1176.203125 L 865.789062 1171.566406 L 873.152344 1166.1875 L 880.316406 1160.003906 L 887.03125 1153.203125 L 893.074219 1146.023438 L 898.21875 1138.714844 L 902.292969 1131.476562 L 905.367188 1124.34375 L 907.5625 1117.328125 L 909.011719 1110.421875 L 909.835938 1103.632812 L 910.179688 1096.976562 L 910.257812 1090.523438 L 910.304688 1084.378906 L 910.554688 1078.628906 L 911.1875 1073.332031 L 912.175781 1068.394531 L 913.445312 1063.691406 L 914.914062 1059.097656 L 916.503906 1054.480469 L 918.160156 1049.730469 L 919.902344 1044.804688 L 921.78125 1039.679688 L 923.835938 1034.332031 L 926.074219 1028.757812 L 928.328125 1023.046875 L 930.390625 1017.320312 L 932.046875 1011.6875 L 933.097656 1006.269531 L 933.40625 1001.140625 L 933.175781 996.242188 L 932.683594 991.472656 L 932.203125 986.738281 L 931.972656 981.984375 L 932.03125 977.34375 L 932.375 973.007812 L 933.003906 969.15625 L 933.878906 965.886719 L 934.84375 962.949219 L 935.722656 960.019531 L 936.328125 956.757812 L 936.476562 952.835938 L 936.0625 948.085938 L 935.296875 942.984375 L 934.480469 938.183594 L 933.898438 934.328125 L 933.785156 931.859375 L 934.136719 930.375 L 934.898438 929.28125 L 936 927.964844 L 937.382812 925.828125 L 938.953125 922.402344 L 940.523438 917.789062 L 941.863281 912.226562 L 942.757812 905.949219 L 943.046875 899.238281 L 942.863281 892.53125 L 942.410156 886.300781 L 941.886719 881.027344 L 941.492188 877.1875 L 941.367188 874.898438 L 941.421875 872.824219 L 941.5 869.277344 L 941.445312 862.566406 L 941.132812 851.5625 L 940.566406 837.445312 L 939.78125 821.949219 L 938.800781 806.820312 L 937.660156 793.800781 L 936.390625 784.152344 L 935.023438 777.214844 L 933.585938 771.855469 L 932.105469 766.929688 L 930.613281 761.570312 L 929.152344 755.957031 L 927.769531 750.546875 L 926.507812 745.789062 L 925.414062 742.128906 L 924.46875 739.785156 L 923.371094 738.046875 L 921.765625 735.964844 L 919.289062 732.589844 L 915.707031 727.273438 L 911.28125 720.574219 L 906.414062 713.335938 L 901.5 706.414062 L 896.929688 700.660156 L 892.996094 696.664062 L 889.542969 693.949219 L 886.324219 691.785156 L 883.074219 689.429688 L 879.582031 686.3125 L 875.761719 682.5 L 871.574219 678.222656 L 866.980469 673.71875 L 861.933594 669.210938 L 856.433594 664.949219 L 850.65625 661.238281 L 844.804688 658.390625 L 839.097656 656.726562 L 833.675781 656.449219 L 828.40625 657.269531 L 823.09375 658.789062 L 817.542969 660.609375 L 811.550781 662.324219 L 805.046875 663.636719 L 798.460938 664.636719 L 792.363281 665.523438 L 787.304688 666.488281 L 783.65625 667.691406 L 781.019531 669.167969 L 778.808594 670.910156 L 776.433594 672.917969 L 773.414062 675.171875 L 769.726562 677.582031 L 765.457031 680.050781 L 760.695312 682.476562 L 755.53125 684.753906 L 750.121094 686.839844 L 744.921875 688.929688 L 740.457031 691.28125 L 737.253906 694.144531 L 735.597656 697.679688 L 734.8125 701.625 L 733.972656 705.625 L 732.15625 709.320312 L 728.441406 712.355469 L 722.269531 714.503906 L 714.519531 716.0625 L 706.429688 717.457031 L 699.25 719.117188 L 693.917969 721.375 L 690.199219 724.1875 L 687.5625 727.414062 L 685.46875 730.925781 L 683.394531 734.578125 L 680.945312 738.265625 L 678.316406 741.996094 L 675.839844 745.808594 L 673.855469 749.746094 L 672.550781 753.855469 L 671.53125 758.25 L 670.25 763.054688 L 668.167969 768.394531 L 664.738281 774.390625 L 659.648438 781.066406 L 653.488281 788 L 647.066406 794.683594 L 641.207031 800.589844 L 636.5 805.351562 L 632.671875 809.207031 L 629.21875 812.554688 L 625.648438 815.777344 L 621.453125 819.273438 L 616.328125 823.296875 L 610.738281 827.59375 L 605.335938 831.769531 L 600.773438 835.429688 L 597.527344 838.363281 L 595.355469 841.035156 L 593.835938 844.085938 L 592.550781 848.160156 L 591.074219 853.894531 L 589.070312 861.664062 L 586.507812 870.75 L 583.445312 880.175781 L 579.929688 888.945312 L 575.996094 896.316406 L 571.601562 902.460938 L 566.675781 907.785156 L 561.152344 912.699219 L 554.96875 917.609375 L 548.191406 922.730469 L 541.421875 927.515625 L 535.402344 931.226562 L 530.871094 933.113281 L 528.351562 932.632812 L 527.507812 929.96875 L 527.773438 925.5 L 528.59375 919.597656 L 529.414062 912.644531 L 529.785156 905.003906 L 529.730469 897.019531 L 529.378906 889.011719 L 528.859375 881.320312 L 528.269531 874.203125 L 527.539062 867.671875 L 526.554688 861.667969 L 525.210938 856.128906 L 523.445312 850.988281 L 521.398438 846.15625 L 519.257812 841.527344 L 517.203125 837 L 515.429688 832.472656 L 514.070312 827.824219 L 513.085938 822.875 L 512.382812 817.410156 L 511.867188 811.234375 L 511.453125 804.257812 L 511.078125 796.882812 L 510.679688 789.621094 L 510.191406 783 L 509.558594 777.527344 L 508.71875 773.519531 L 507.597656 770.46875 L 506.132812 767.65625 L 504.246094 764.367188 L 501.917969 760.050781 L 499.328125 754.792969 L 496.703125 748.855469 L 494.265625 742.488281 L 492.246094 735.949219 L 490.777344 729.488281 L 489.644531 723.332031 L 488.539062 717.714844 L 487.15625 712.855469 L 485.25 708.890625 L 482.859375 705.566406 L 480.078125 702.539062 L 477.011719 699.472656 L 473.753906 696.019531 L 470.410156 691.957031 L 467.128906 687.554688 L 464.046875 683.195312 L 461.320312 679.269531 L 459.046875 676.039062 L 457.125 673.308594 L 455.410156 670.753906 L 453.753906 668.050781 L 452.011719 664.875 L 450.082031 661.027344 L 448.078125 656.773438 L 446.15625 652.496094 L 444.476562 648.585938 L 443.070312 645.296875 L 441.476562 642.398438 L 439.113281 639.53125 L 435.394531 636.328125 L 429.734375 632.433594 L 421.882812 627.628906 L 412.9375 622.265625 L 404.320312 616.839844 L 397.460938 611.84375 L 393.296875 607.640625 L 390.765625 604.085938 L 388.328125 600.886719 L 384.421875 597.769531 L 377.507812 594.449219 L 366.628906 590.734375 L 353.261719 586.78125 L 339.464844 582.84375 L 327.320312 579.164062 L 318.355469 575.957031 L 311.996094 573.265625 L 307.117188 571.09375 L 302.609375 569.445312 L 297.355469 568.332031 L 293.519531 570.039062 "/>
<path style="fill:none;stroke-width:0.75;stroke-linecap:round;stroke-linejoin:round;stroke:rgb(0%,0%,0%);stroke-opacity:1;stroke-miterlimit:10;" d="M 293.941406 570.050781 L 289.695312 575.53125 L 286.148438 580.578125 L 283.070312 585.160156 L 280.175781 588.761719 L 277.148438 590.75 L 273.6875 590.839844 L 269.511719 590.136719 L 264.355469 590.09375 L 258.191406 591.761719 L 251.984375 594.570312 L 246.929688 597.546875 L 243.679688 600.03125 L 240.625 602.59375 L 235.605469 606.125 L 227.203125 611.199219 L 217.019531 617.175781 L 207.402344 623.097656 L 200.191406 628.191406 L 195.222656 632.394531 L 191.824219 635.835938 L 189.328125 638.699219 L 187.09375 641.433594 L 184.496094 644.550781 L 181.113281 648.398438 L 177.375 652.652344 L 173.914062 656.820312 L 171.195312 660.582031 L 168.941406 664.273438 L 166.710938 668.390625 L 164.085938 673.265625 L 160.824219 678.5 L 156.714844 683.523438 L 151.71875 687.914062 L 146.488281 691.816406 L 141.855469 695.523438 L 138.46875 699.273438 L 136.269531 703.058594 L 135.019531 706.820312 L 134.40625 710.640625 L 133.8125 715.175781 L 132.539062 721.222656 L 130.058594 729.234375 L 126.496094 738.351562 L 122.136719 747.367188 L 117.4375 755.277344 L 113.503906 761.914062 L 111.3125 767.332031 L 110.671875 771.734375 L 111.109375 775.355469 L 112.09375 778.484375 L 112.933594 781.589844 L 112.898438 785.203125 L 111.484375 789.691406 L 109.144531 794.828125 L 106.574219 800.234375 L 104.363281 805.601562 L 102.707031 810.890625 L 101.699219 816.136719 L 101.28125 821.414062 L 100.734375 827 L 99.183594 833.21875 L 96.0625 840.273438 L 92.058594 847.914062 L 88.171875 855.773438 L 85.277344 863.464844 L 83.75 870.488281 L 83.847656 876.324219 L 85.515625 880.609375 L 87.476562 883.648438 L 88.148438 885.910156 L 86.441406 887.859375 L 83.234375 889.929688 L 79.894531 892.546875 L 77.558594 895.980469 L 76.441406 899.878906 L 76.523438 903.734375 L 77.699219 907.152344 L 79.488281 910.160156 L 81.320312 912.902344 L 82.785156 915.585938 L 84.105469 918.738281 L 85.667969 922.941406 L 87.65625 928.539062 L 89.492188 934.835938 L 90.386719 940.886719 L 89.789062 945.894531 L 88.019531 949.699219 L 85.640625 952.277344 L 83.242188 953.953125 L 81.625 956.394531 L 81.410156 961.035156 L 82.277344 967.078125 L 83.679688 973.171875 L 85.164062 978.261719 L 86.613281 982.488281 L 88.003906 986.300781 L 89.320312 990.070312 L 90.617188 993.894531 L 91.957031 997.796875 L 93.371094 1001.746094 L 94.785156 1005.492188 L 96.09375 1008.71875 L 97.257812 1011.359375 L 98.46875 1014.339844 L 99.988281 1018.8125 L 101.886719 1025.464844 L 103.5 1033.03125 L 103.976562 1039.777344 L 102.890625 1044.417969 L 101.464844 1047.507812 L 101.335938 1050.054688 L 103.609375 1052.84375 L 107.265625 1055.726562 L 110.742188 1058.328125 L 112.785156 1060.398438 L 113.34375 1062.214844 L 112.667969 1064.183594 L 111.203125 1066.644531 L 110.1875 1069.65625 L 111.050781 1073.222656 L 114.601562 1077.28125 L 119.195312 1081.5625 L 122.550781 1085.75 L 123.128906 1089.589844 L 122.285156 1093.09375 L 122.101562 1096.34375 L 124.148438 1099.4375 L 127.96875 1102.5 L 132.585938 1105.679688 L 137.140625 1109.117188 L 141.203125 1112.96875 L 144.457031 1117.398438 L 146.726562 1122.589844 L 148.417969 1128.859375 L 149.996094 1136.257812 L 151.613281 1143.628906 L 153.328125 1149.53125 L 155.1875 1152.988281 L 157.136719 1154.921875 L 159.105469 1156.726562 L 161.03125 1159.511719 L 162.933594 1163.210938 L 164.84375 1167.457031 L 166.757812 1171.910156 L 168.527344 1176.246094 L 169.984375 1180.160156 L 171.050781 1183.449219 L 172.121094 1186.359375 L 173.6875 1189.238281 L 176.160156 1192.367188 L 179.589844 1195.703125 L 183.949219 1199.125 L 189.015625 1202.582031 L 193.855469 1206.296875 L 197.332031 1210.550781 L 198.855469 1215.488281 L 199.980469 1220.679688 L 202.78125 1225.542969 L 208.523438 1229.648438 L 215.210938 1233.167969 L 220.027344 1236.398438 L 221.613281 1239.625 L 224.472656 1242.976562 L 234.570312 1246.550781 L 255.847656 1250.230469 L 284.152344 1253.027344 L 313.304688 1253.738281 L 338.042969 1251.535156 L 356.773438 1247.097656 L 368.820312 1241.488281 L 374.410156 1235.640625 L 377.363281 1230.007812 L 382.402344 1224.917969 L 392.804688 1220.714844 L 406.097656 1217.75 L 418.363281 1216.390625 L 426.601562 1216.738281 L 431.496094 1217.855469 L 434.578125 1218.605469 L 437.105469 1218.039062 L 440.265625 1215.277344 L 444.871094 1209.851562 L 450.222656 1202.972656 L 455.25 1196.277344 L 459.121094 1191.011719 L 462.011719 1186.863281 L 464.34375 1183.136719 L 466.460938 1179.265625 L 468.402344 1175.242188 L 470.117188 1171.179688 L 471.617188 1167.1875 L 473.082031 1163.261719 L 474.746094 1159.390625 L 476.761719 1155.539062 L 478.917969 1151.65625 L 480.933594 1147.679688 L 482.585938 1143.394531 L 483.96875 1137.96875 L 485.242188 1130.417969 L 486.535156 1120.246094 L 487.867188 1108.929688 L 489.214844 1098.441406 L 490.5625 1090.257812 L 491.910156 1083.902344 L 493.25 1078.398438 L 494.589844 1072.992188 L 495.925781 1067.804688 L 497.265625 1063.179688 L 498.609375 1059.328125 L 499.957031 1055.941406 L 501.304688 1052.578125 L 502.644531 1048.929688 L 503.980469 1045.222656 L 505.316406 1041.816406 L 506.660156 1038.675781 L 508.003906 1034.234375 L 509.351562 1026.542969 L 510.699219 1014.148438 L 512.039062 997.617188 L 513.371094 978.480469 L 514.703125 960.195312 L 516.046875 946.6875 L 517.40625 940.609375 L 518.765625 939.464844 L 520.101562 939.492188 L 521.40625 937.671875 L 522.714844 934.007812 L 524.074219 929.253906 L 525.515625 924.070312 L 526.980469 918.695312 L 528.386719 913.265625 L 529.621094 907.84375 L 530.421875 902.171875 L 530.5 895.921875 L 529.710938 888.921875 L 528.519531 881.648438 L 527.542969 874.730469 L 527.171875 868.601562 L 526.878906 862.910156 L 525.910156 857.097656 L 523.773438 850.839844 L 521.042969 844.699219 L 518.550781 839.460938 L 516.90625 835.625 L 515.808594 832.539062 L 514.726562 829.257812 L 513.300781 824.960938 L 511.894531 819.320312 L 511.0625 812.121094 L 511.125 803.449219 L 511.566406 794.53125 L 511.652344 786.890625 L 510.859375 781.628906 L 509.480469 778.164062 L 508.011719 775.5 L 506.816406 772.734375 L 505.683594 769.316406 L 504.253906 764.792969 L 502.277344 758.945312 L 499.878906 752.550781 L 497.269531 746.617188 L 494.671875 741.789062 L 492.269531 737.222656 L 490.25 731.695312 L 488.75 724.558594 L 487.722656 717.445312 L 486.972656 712.066406 L 485.957031 708.222656 L 484.039062 705.234375 L 480.8125 702.472656 L 476.839844 699.558594 L 472.929688 696.175781 L 469.6875 692.121094 L 466.984375 687.707031 L 464.496094 683.363281 L 461.972656 679.445312 L 459.425781 676 L 456.949219 673 L 454.644531 670.355469 L 452.691406 667.757812 L 451.289062 664.835938 L 450.484375 661.320312 L 449.683594 657.328125 L 448.144531 653.089844 L 445.390625 648.839844 L 442.082031 644.875 L 439.148438 641.511719 L 437.101562 638.863281 L 434.777344 636.28125 L 430.605469 632.917969 L 423.53125 628.191406 L 414.648438 622.613281 L 405.570312 616.945312 L 397.726562 611.839844 L 391.773438 607.421875 L 388.183594 603.691406 L 386.808594 600.574219 L 385.007812 597.699219 L 379.511719 594.617188 L 368.1875 591.003906 L 353.410156 587.027344 L 338.683594 582.984375 L 326.839844 579.152344 L 318.019531 575.75 L 311.6875 572.988281 L 307.132812 570.988281 L 302.921875 569.566406 L 297.453125 568.464844 L 293.941406 570.050781 "/>
<path style="fill:none;stroke-width:0.75;stroke-linecap:round;stroke-linejoin:round;stroke:rgb(0%,0%,0%);stroke-opacity:1;stroke-miterlimit:10;" d="M 839.167969 657.832031 L 831.074219 659.214844 L 821.867188 660.785156 L 811.914062 663.109375 L 802.273438 665.703125 L 794.167969 667.839844 L 788.457031 669.03125 L 784.519531 669.792969 L 781.347656 670.890625 L 778.085938 672.871094 L 774.414062 675.390625 L 770.152344 677.898438 L 765.21875 679.984375 L 759.988281 681.90625 L 754.941406 684.058594 L 750.417969 686.695312 L 746.242188 689.429688 L 742.242188 691.90625 L 738.835938 694.566406 L 736.578125 698.042969 L 735.574219 702.6875 L 734.117188 707.773438 L 730.046875 712.296875 L 722.054688 715.480469 L 712.222656 717.496094 L 703.492188 718.730469 L 698.035156 719.621094 L 694.957031 720.738281 L 692.597656 722.6875 L 689.648438 725.90625 L 686.203125 730.109375 L 682.679688 734.816406 L 679.433594 739.503906 L 676.792969 743.625 L 674.984375 746.84375 L 673.855469 749.695312 L 673.160156 752.910156 L 672.554688 757.085938 L 671.382812 762.230469 L 668.878906 768.21875 L 664.550781 774.859375 L 658.878906 781.765625 L 652.605469 788.5 L 646.429688 794.679688 L 640.882812 800.210938 L 636.457031 805.070312 L 633.320312 809.253906 L 630.367188 812.894531 L 626.453125 816.183594 L 621.535156 819.433594 L 615.871094 822.988281 L 609.816406 827.042969 L 604.203125 831.273438 L 599.96875 835.210938 L 597.707031 838.539062 L 596.585938 841.59375 L 595.425781 844.859375 L 593.332031 848.820312 L 590.605469 853.976562 L 587.832031 860.828125 L 585.410156 869.578125 L 582.957031 879.210938 L 579.992188 888.546875 L 576.441406 896.941406 L 572.332031 903.882812 L 567.621094 909.078125 L 562.050781 913.164062 L 555.300781 916.992188 L 547.3125 921.320312 L 539.085938 926.523438 L 531.890625 932.875 L 526.6875 940.367188 L 523.253906 947.878906 L 521.058594 954 L 519.617188 957.882812 L 518.535156 960.902344 L 517.472656 964.984375 L 516.164062 971.832031 L 514.730469 982.28125 L 513.34375 996.3125 L 512.007812 1011.4375 L 510.691406 1024.550781 L 509.359375 1033.40625 L 508.015625 1039.210938 L 506.667969 1044.03125 L 505.320312 1049.488281 L 503.976562 1055.371094 L 502.632812 1061.027344 L 501.296875 1065.960938 L 499.957031 1070.324219 L 498.617188 1074.445312 L 497.269531 1078.453125 L 495.925781 1081.742188 L 494.59375 1083.902344 L 493.261719 1086 L 491.914062 1089.46875 L 490.539062 1095.507812 L 489.171875 1104.332031 L 487.851562 1115.910156 L 486.59375 1129.894531 L 485.3125 1144.6875 L 483.90625 1158.371094 L 482.328125 1169.714844 L 480.789062 1180.265625 L 479.550781 1192.261719 L 478.851562 1207.019531 L 478.792969 1222.183594 L 479.457031 1234.488281 L 480.820312 1241.710938 L 482.453125 1245.863281 L 483.933594 1249.464844 L 485.253906 1252.9375 L 486.527344 1256.152344 L 487.832031 1259.070312 L 489.164062 1261.894531 L 490.492188 1264.90625 L 491.828125 1268.304688 L 493.347656 1271.976562 L 495.261719 1275.726562 L 497.699219 1279.441406 L 500.453125 1283.304688 L 503.238281 1287.578125 L 506.09375 1292.503906 L 510.359375 1298.265625 L 517.015625 1304.808594 L 524.320312 1311.1875 L 529.835938 1316.242188 L 532.101562 1319.199219 L 533.554688 1320.871094 L 537.589844 1322.472656 L 546.574219 1324.832031 L 558.667969 1327.289062 L 571.003906 1328.789062 L 581.167969 1328.550781 L 588.652344 1326.804688 L 593.410156 1324.023438 L 595.683594 1320.730469 L 596.847656 1317.542969 L 598.570312 1315.117188 L 601.996094 1313.832031 L 606.191406 1313.003906 L 609.996094 1311.886719 L 613.402344 1310.5 L 616.691406 1309.070312 L 620.140625 1307.765625 L 623.996094 1306.53125 L 628.5 1305.253906 L 633.707031 1303.820312 L 638.871094 1302.105469 L 643.058594 1299.984375 L 645.875 1297.382812 L 649.101562 1294.492188 L 655.074219 1291.542969 L 665.152344 1288.640625 L 676.824219 1285.28125 L 687.207031 1281.019531 L 695.765625 1276.253906 L 702.558594 1271.570312 L 707.757812 1267.550781 L 712.023438 1264.695312 L 716.128906 1263.488281 L 720.671875 1264.039062 L 725.558594 1264.953125 L 730.496094 1264.46875 L 735.300781 1261.371094 L 740.15625 1256.660156 L 745.328125 1251.875 L 750.9375 1248.21875 L 756.46875 1245.542969 L 761.253906 1243.355469 L 764.871094 1241.285156 L 767.894531 1239.433594 L 771.007812 1237.953125 L 774.363281 1236.695312 L 777.976562 1235.441406 L 781.796875 1234 L 785.503906 1232.308594 L 788.707031 1230.332031 L 791.339844 1227.992188 L 794.609375 1224.996094 L 800.054688 1221.003906 L 808.511719 1215.851562 L 818.023438 1210.058594 L 825.945312 1204.320312 L 830.402344 1199.246094 L 832.597656 1195.070312 L 834.320312 1191.84375 L 836.632812 1189.207031 L 840.410156 1186.699219 L 846.207031 1183.921875 L 853.234375 1180.660156 L 860.394531 1176.757812 L 866.839844 1172.074219 L 872.839844 1166.488281 L 878.921875 1159.890625 L 885.445312 1152.347656 L 892.042969 1144.609375 L 898.171875 1137.601562 L 903.3125 1131.855469 L 907.03125 1126.300781 L 908.921875 1119.460938 L 908.933594 1110.597656 L 908.515625 1101.847656 L 909.027344 1095.351562 L 910.097656 1090.378906 L 910.910156 1085.476562 L 910.941406 1079.59375 L 910.832031 1073.28125 L 911.511719 1067.503906 L 913.550781 1062.925781 L 916.097656 1059.039062 L 917.933594 1055.0625 L 918.296875 1050.375 L 918.265625 1045.09375 L 919.363281 1039.492188 L 922.574219 1033.839844 L 926.742188 1028.304688 L 930.375 1022.980469 L 932.835938 1017.710938 L 933.695312 1012.289062 L 932.816406 1006.597656 L 931.238281 1000.9375 L 930.285156 995.707031 L 930.890625 991.15625 L 932.433594 986.90625 L 933.898438 982.425781 L 934.496094 977.410156 L 934.324219 972.457031 L 933.714844 968.378906 L 933 965.6875 L 932.585938 963.632812 L 932.882812 961.164062 L 934.167969 957.46875 L 936.113281 952.703125 L 938.160156 947.335938 L 939.316406 942.058594 L 938.492188 937.617188 L 935.191406 934.550781 L 931.292969 932.511719 L 929.265625 930.925781 L 930.847656 929.304688 L 934.816406 927.4375 L 939.222656 925.183594 L 942.414062 922.351562 L 943.941406 918.527344 L 943.660156 913.230469 L 941.808594 906.289062 L 940.179688 898.730469 L 940.371094 891.699219 L 941.683594 885.660156 L 942.84375 880.898438 L 942.902344 877.527344 L 942.203125 874.984375 L 941.417969 872.542969 L 941.066406 869.273438 L 941.007812 863.496094 L 940.964844 853.328125 L 940.683594 837.875 L 940.078125 820.164062 L 939.101562 804.199219 L 937.746094 792.96875 L 936.191406 785.410156 L 934.652344 779.445312 L 933.289062 773.367188 L 932.035156 766.972656 L 930.785156 760.496094 L 929.484375 754.429688 L 928.09375 749.328125 L 926.621094 745.566406 L 925.199219 742.855469 L 924.003906 740.742188 L 923.070312 738.726562 L 921.84375 736.15625 L 919.617188 732.34375 L 915.929688 726.847656 L 911.277344 720.246094 L 906.386719 713.359375 L 901.808594 706.914062 L 897.375 701.269531 L 892.878906 696.636719 L 888.671875 693.050781 L 885.25 690.488281 L 882.828125 688.753906 L 880.511719 686.972656 L 877.132812 684.082031 L 871.941406 679.417969 L 865.914062 673.855469 L 860.441406 668.648438 L 856.542969 664.789062 L 853.722656 662.171875 L 851.101562 660.417969 L 847.914062 659.175781 L 843.855469 658.214844 L 838.71875 657.332031 L 839.167969 657.832031 "/>
</g>
</svg>
