<?xml version="1.0" encoding="UTF-8"?>
<svg xmlns="http://www.w3.org/2000/svg" xmlns:xlink="http://www.w3.org/1999/xlink" width="1428pt" height="1605pt" viewBox="0 0 1428 1605" version="1.1">
<g id="surface159">
<rect x="0" y="0" width="1428" height="1605" style="fill:rgb(100%,100%,100%);fill-opacity:1;stroke:none;"/>
<path style="fill:none;stroke-width:0.75;stroke-linecap:round;stroke-linejoin:round;stroke:rgb(0%,0%,0%);stroke-opacity:1;stroke-miterlimit:10;" d="M 288.730469 572.546875 L 278.09375 577.582031 L 267.71875 581.792969 L 258.207031 585.375 L 250.164062 588.519531 L 243.988281 591.410156 L 239.316406 594.1875 L 235.574219 596.984375 L 232.191406 599.933594 L 228.597656 603.167969 L 224.355469 606.769531 L 219.542969 610.601562 L 214.367188 614.488281 L 209.035156 618.242188 L 203.726562 621.742188 L 198.53125 625.109375 L 193.503906 628.535156 L 188.703125 632.199219 L 184.183594 636.289062 L 180 640.921875 L 176.148438 645.945312 L 172.625 651.136719 L 169.417969 656.273438 L 166.523438 661.136719 L 163.886719 665.574219 L 161.289062 669.753906 L 158.464844 673.910156 L 155.144531 678.289062 L 151.164062 683.035156 L 146.753906 687.933594 L 142.238281 692.671875 L 137.949219 696.945312 L 134.214844 700.441406 L 131.292969 702.992188 L 129.148438 704.964844 L 127.679688 706.867188 L 126.785156 709.199219 L 126.347656 712.359375 L 126.164062 716.261719 L 126.015625 720.71875 L 125.691406 725.535156 L 124.96875 730.519531 L 123.691406 735.503906 L 121.925781 740.421875 L 119.800781 745.230469 L 117.4375 749.890625 L 114.964844 754.359375 L 112.519531 758.601562 L 110.304688 762.601562 L 108.535156 766.351562 L 107.429688 769.839844 L 107.105469 773.054688 L 107.335938 776.003906 L 107.792969 778.683594 L 108.144531 781.105469 L 108.066406 783.269531 L 107.339844 785.242188 L 106.160156 787.320312 L 104.828125 789.871094 L 103.644531 793.246094 L 102.820312 797.695312 L 102.222656 803.03125 L 101.617188 808.941406 L 100.78125 815.125 L 99.492188 821.28125 L 97.597656 827.171875 L 95.242188 832.871094 L 92.652344 838.523438 L 90.054688 844.277344 L 87.667969 850.277344 L 85.683594 856.585938 L 84.105469 862.972656 L 82.917969 869.117188 L 82.089844 874.707031 L 81.566406 879.503906 L 81.1875 883.609375 L 80.765625 887.199219 L 80.109375 890.445312 L 79.027344 893.527344 L 77.464844 896.644531 L 75.898438 900.046875 L 74.941406 904.023438 L 75.203125 908.84375 L 77.066406 914.667969 L 79.988281 921.179688 L 83.195312 927.941406 L 85.910156 934.519531 L 87.371094 940.472656 L 87.035156 945.484375 L 85.339844 949.722656 L 82.953125 953.46875 L 80.546875 957.015625 L 78.789062 960.640625 L 78.230469 964.660156 L 78.878906 969.484375 L 80.636719 975.550781 L 83.386719 983.292969 L 86.960938 992.914062 L 90.933594 1003.683594 L 94.804688 1014.628906 L 98.09375 1024.78125 L 100.300781 1033.175781 L 101.144531 1039.121094 L 101.160156 1043.066406 L 101.085938 1045.746094 L 101.660156 1047.890625 L 103.398438 1050.101562 L 105.914062 1052.464844 L 108.597656 1054.945312 L 110.839844 1057.496094 L 112.023438 1060.078125 L 111.765625 1062.65625 L 110.578125 1065.253906 L 109.183594 1067.898438 L 108.324219 1070.621094 L 108.585938 1073.492188 L 110.035156 1076.785156 L 112.578125 1080.816406 L 116.140625 1085.902344 L 120.640625 1092.367188 L 125.9375 1100.355469 L 131.667969 1109.363281 L 137.410156 1118.71875 L 142.742188 1127.753906 L 147.238281 1135.789062 L 150.609375 1142.324219 L 153.070312 1147.535156 L 154.96875 1151.777344 L 156.652344 1155.386719 L 158.398438 1158.675781 L 160.195312 1161.804688 L 161.964844 1164.882812 L 163.628906 1168.035156 L 165.109375 1171.371094 L 166.378906 1174.96875 L 167.625 1178.730469 L 169.078125 1182.511719 L 170.980469 1186.179688 L 173.566406 1189.59375 L 176.976562 1192.675781 L 180.941406 1195.640625 L 185.09375 1198.757812 L 189.0625 1202.3125 L 192.570312 1206.488281 L 195.691406 1211.125 L 198.59375 1215.976562 L 201.4375 1220.796875 L 204.386719 1225.335938 L 207.59375 1229.417969 L 211.167969 1233.140625 L 215.199219 1236.671875 L 219.78125 1240.175781 L 224.949219 1243.773438 L 230.507812 1247.375 L 236.199219 1250.835938 L 241.773438 1254.019531 L 246.96875 1256.789062 L 251.597656 1259.015625 L 255.71875 1260.667969 L 259.445312 1261.730469 L 262.898438 1262.175781 L 266.199219 1261.996094 L 269.441406 1261.238281 L 272.640625 1260.214844 L 275.789062 1259.320312 L 278.878906 1258.929688 L 281.898438 1259.304688 L 284.847656 1260.195312 L 287.734375 1261.222656 L 290.550781 1262.003906 L 293.300781 1262.164062 L 296.03125 1261.484375 L 298.949219 1260.386719 L 302.308594 1259.464844 L 306.359375 1259.300781 L 311.242188 1260.292969 L 316.664062 1262.089844 L 322.214844 1264.132812 L 327.488281 1265.886719 L 332.070312 1266.796875 L 335.710938 1266.457031 L 338.78125 1264.992188 L 341.804688 1262.679688 L 345.304688 1259.78125 L 349.804688 1256.566406 L 355.59375 1253.246094 L 362.015625 1249.816406 L 368.171875 1246.203125 L 373.179688 1242.351562 L 376.554688 1238.242188 L 379.496094 1234.082031 L 383.613281 1230.121094 L 390.519531 1226.617188 L 401.828125 1223.824219 L 418.324219 1222.007812 L 437.496094 1221.46875 L 456 1222.519531 L 470.496094 1225.46875 L 478.566406 1230.476562 L 481.4375 1237.109375 L 481.261719 1244.777344 L 480.191406 1252.882812 L 480.375 1260.84375 L 483.378906 1268.230469 L 488.445312 1275.257812 L 494.222656 1282.300781 L 499.371094 1289.738281 L 502.960938 1297.789062 L 505.75 1306.046875 L 508.902344 1313.945312 L 513.601562 1320.921875 L 521.007812 1326.414062 L 531.863281 1330.015625 L 545.164062 1331.957031 L 559.464844 1332.621094 L 573.328125 1332.398438 L 585.304688 1331.679688 L 594.304688 1330.8125 L 600.601562 1330.007812 L 604.8125 1329.449219 L 607.554688 1329.304688 L 609.367188 1329.660156 L 610.488281 1330.242188 L 611.070312 1330.683594 L 611.273438 1330.613281 L 611.246094 1329.664062 L 611.203125 1327.601562 L 611.597656 1324.738281 L 612.929688 1321.515625 L 615.699219 1318.378906 L 620.257812 1315.671875 L 626.296875 1313.332031 L 633.347656 1311.210938 L 640.9375 1309.140625 L 648.605469 1306.96875 L 655.910156 1304.597656 L 662.535156 1302.183594 L 668.203125 1299.941406 L 672.621094 1298.09375 L 675.507812 1296.855469 L 676.820312 1296.320312 L 677.5 1296.09375 L 678.722656 1295.652344 L 681.664062 1294.480469 L 687.175781 1292.1875 L 694.816406 1288.894531 L 703.796875 1284.867188 L 713.34375 1280.359375 L 722.683594 1275.632812 L 731.203125 1270.898438 L 738.949219 1266.230469 L 746.152344 1261.644531 L 753.023438 1257.171875 L 759.722656 1252.839844 L 766.179688 1248.691406 L 772.253906 1244.785156 L 777.808594 1241.167969 L 782.714844 1237.886719 L 786.921875 1234.96875 L 790.765625 1232.296875 L 794.667969 1229.734375 L 799.050781 1227.140625 L 804.339844 1224.371094 L 810.777344 1221.3125 L 817.867188 1217.964844 L 824.941406 1214.339844 L 831.324219 1210.464844 L 836.546875 1206.351562 L 840.945312 1201.988281 L 845.0625 1197.351562 L 849.445312 1192.421875 L 854.636719 1187.179688 L 860.996094 1181.632812 L 868.171875 1175.878906 L 875.628906 1170.054688 L 882.839844 1164.285156 L 889.261719 1158.703125 L 894.511719 1153.398438 L 898.769531 1148.285156 L 902.367188 1143.246094 L 905.632812 1138.15625 L 908.808594 1132.925781 L 911.773438 1127.628906 L 914.332031 1122.363281 L 916.273438 1117.226562 L 917.398438 1112.328125 L 917.613281 1107.71875 L 917.253906 1103.261719 L 916.773438 1098.777344 L 916.617188 1094.074219 L 917.125 1089.03125 L 918.195312 1083.765625 L 919.605469 1078.449219 L 921.148438 1073.261719 L 922.605469 1068.375 L 923.804688 1063.925781 L 924.730469 1059.863281 L 925.421875 1056.109375 L 925.910156 1052.570312 L 926.222656 1049.167969 L 926.441406 1045.796875 L 926.835938 1042.316406 L 927.722656 1038.558594 L 929.410156 1034.371094 L 932.078125 1029.65625 L 935.296875 1024.570312 L 938.503906 1019.328125 L 941.128906 1014.152344 L 942.609375 1009.253906 L 942.582031 1004.824219 L 941.546875 1000.902344 L 940.199219 997.488281 L 939.25 994.59375 L 939.21875 992.179688 L 939.9375 990.050781 L 941.050781 987.972656 L 942.203125 985.707031 L 943.050781 983.011719 L 943.324219 979.71875 L 943.160156 975.878906 L 942.773438 971.617188 L 942.382812 967.050781 L 942.210938 962.300781 L 942.414062 957.480469 L 942.898438 952.71875 L 943.496094 948.144531 L 944.058594 943.882812 L 944.46875 940 L 944.808594 936.332031 L 945.214844 932.664062 L 945.8125 928.769531 L 946.734375 924.433594 L 948.03125 919.492188 L 949.4375 914.027344 L 950.605469 908.179688 L 951.1875 902.089844 L 950.957031 895.914062 L 950.132812 889.847656 L 949.058594 884.09375 L 948.078125 878.863281 L 947.523438 874.359375 L 947.644531 870.710938 L 948.273438 867.683594 L 949.148438 864.980469 L 950.007812 862.289062 L 950.589844 859.296875 L 950.703125 855.800781 L 950.457031 851.96875 L 950.035156 848.078125 L 949.621094 844.398438 L 949.371094 841.101562 L 949.347656 837.960938 L 949.589844 834.644531 L 950.136719 830.824219 L 951.023438 826.167969 L 952.21875 820.488281 L 953.402344 814.160156 L 954.179688 807.699219 L 954.164062 801.621094 L 953.089844 796.324219 L 951.21875 791.769531 L 948.9375 787.792969 L 946.628906 784.238281 L 944.691406 780.945312 L 943.410156 777.765625 L 942.691406 774.597656 L 942.332031 771.339844 L 942.140625 767.90625 L 941.921875 764.199219 L 941.5 760.160156 L 940.789062 755.859375 L 939.722656 751.398438 L 938.234375 746.878906 L 936.296875 742.382812 L 934.046875 737.878906 L 931.644531 733.308594 L 929.265625 728.625 L 927.074219 723.761719 L 925.167969 718.710938 L 923.335938 713.617188 L 921.28125 708.675781 L 918.71875 704.070312 L 915.453125 699.925781 L 911.65625 696.082031 L 907.589844 692.316406 L 903.527344 688.402344 L 899.734375 684.113281 L 896.367188 679.316406 L 893.179688 674.257812 L 889.8125 669.269531 L 885.90625 664.683594 L 881.214844 660.757812 L 875.910156 657.460938 L 870.269531 654.675781 L 864.582031 652.296875 L 859.125 650.210938 L 854.113281 648.304688 L 849.496094 646.464844 L 845.15625 644.582031 L 840.980469 642.539062 L 836.851562 640.21875 L 832.714844 637.617188 L 828.78125 635.136719 L 825.324219 633.289062 L 822.609375 632.585938 L 820.730469 633.386719 L 819.007812 635.457031 L 816.585938 638.425781 L 812.609375 641.898438 L 806.207031 645.503906 L 796.910156 648.929688 L 785.761719 652.179688 L 774.179688 655.316406 L 763.597656 658.417969 L 755.152344 661.535156 L 748.859375 664.660156 L 744.457031 667.765625 L 741.671875 670.820312 L 740.242188 673.800781 L 739.832031 676.695312 L 739.8125 679.574219 L 739.492188 682.523438 L 738.179688 685.625 L 735.171875 688.972656 L 730.082031 692.578125 L 723.71875 696.195312 L 717.207031 699.503906 L 711.652344 702.183594 L 707.851562 704.042969 L 705.335938 705.375 L 703.296875 706.589844 L 700.941406 708.113281 L 697.46875 710.355469 L 692.355469 713.628906 L 686.171875 717.800781 L 679.75 722.644531 L 673.933594 727.914062 L 669.382812 733.398438 L 666.035156 738.917969 L 663.648438 744.328125 L 661.980469 749.46875 L 660.789062 754.1875 L 659.816406 758.410156 L 658.734375 762.378906 L 657.203125 766.429688 L 654.882812 770.882812 L 651.421875 776.070312 L 646.671875 782.160156 L 641.21875 788.714844 L 635.839844 795.128906 L 631.304688 800.804688 L 628.15625 805.292969 L 625.972656 808.753906 L 624.09375 811.503906 L 621.859375 813.855469 L 618.609375 816.117188 L 613.917969 818.589844 L 608.296875 821.527344 L 602.484375 825.171875 L 597.222656 829.765625 L 593.082031 835.460938 L 589.90625 842.050781 L 587.375 849.25 L 585.15625 856.761719 L 582.921875 864.300781 L 580.410156 871.601562 L 577.601562 878.507812 L 574.53125 884.886719 L 571.242188 890.613281 L 567.773438 895.558594 L 564.160156 899.65625 L 560.433594 903.128906 L 556.617188 906.261719 L 552.730469 909.332031 L 548.828125 912.457031 L 545.09375 915.0625 L 541.730469 916.402344 L 538.945312 915.730469 L 536.949219 912.300781 L 535.878906 905.746094 L 535.570312 897.214844 L 535.800781 888.238281 L 536.335938 880.347656 L 536.945312 874.691406 L 537.429688 870.941406 L 537.574219 868.386719 L 537.183594 866.324219 L 536.046875 864.042969 L 534.042969 860.921875 L 531.363281 856.707031 L 528.289062 851.222656 L 525.09375 844.296875 L 522.050781 835.753906 L 519.390625 825.609375 L 517.160156 814.582031 L 515.351562 803.578125 L 513.972656 793.503906 L 512.976562 785.050781 L 512.175781 778.039062 L 511.335938 772.074219 L 510.234375 766.765625 L 508.644531 761.722656 L 506.421875 756.605469 L 503.8125 751.351562 L 501.144531 745.945312 L 498.757812 740.375 L 496.882812 734.660156 L 495.386719 728.917969 L 494.027344 723.289062 L 492.570312 717.925781 L 490.777344 712.96875 L 488.484375 708.507812 L 485.796875 704.429688 L 482.886719 700.5625 L 479.925781 696.730469 L 477.09375 692.769531 L 474.507812 688.550781 L 472.085938 684.097656 L 469.695312 679.480469 L 467.191406 674.769531 L 464.484375 670.039062 L 461.636719 665.351562 L 458.753906 660.789062 L 455.941406 656.417969 L 453.304688 652.3125 L 450.914062 648.527344 L 448.699219 645.015625 L 446.566406 641.730469 L 444.410156 638.609375 L 442.132812 635.59375 L 439.605469 632.621094 L 436.613281 629.585938 L 432.910156 626.382812 L 428.246094 622.90625 L 422.507812 619.089844 L 416.113281 615.054688 L 409.59375 610.976562 L 403.5 607.023438 L 398.363281 603.363281 L 394.453125 600.097656 L 390.925781 597.0625 L 386.652344 594.019531 L 380.511719 590.734375 L 371.765625 587.0625 L 361.234375 583.234375 L 350.121094 579.570312 L 339.636719 576.394531 L 330.980469 574.027344 L 324.867188 572.660156 L 319.992188 571.96875 L 314.558594 571.5 L 306.769531 570.800781 L 294.832031 569.414062 L 288.730469 572.546875 "/>
<path style="fill:none;stroke-width:0.75;stroke-linecap:round;stroke-linejoin:round;stroke:rgb(0%,0%,0%);stroke-opacity:1;stroke-miterlimit:10;" d="M 288.699219 571.90625 L 277.855469 577.953125 L 268.203125 582.308594 L 258.839844 585.550781 L 250.261719 588.246094 L 243.308594 590.964844 L 238.511719 594.113281 L 235.136719 597.472656 L 232.148438 600.660156 L 228.691406 603.453125 L 224.667969 606.230469 L 220.175781 609.53125 L 215.28125 613.691406 L 209.921875 618.246094 L 204.003906 622.527344 L 197.621094 626.066406 L 191.554688 629.148438 L 186.765625 632.25 L 183.808594 635.796875 L 181.617188 640.019531 L 178.726562 645.09375 L 174.160156 651.015625 L 168.953125 657.039062 L 164.632812 662.246094 L 162.25 666.054688 L 160.929688 669.226562 L 159.316406 672.886719 L 156.335938 677.792969 L 152.066406 683.34375 L 146.855469 688.589844 L 141.253906 692.847656 L 136.539062 696.53125 L 133.746094 700.136719 L 132.15625 703.417969 L 130.617188 705.933594 L 128.355469 707.5 L 126.066406 708.921875 L 124.832031 711.261719 L 125.3125 715.261719 L 126.519531 720.414062 L 127.050781 725.894531 L 125.894531 731.046875 L 123.582031 735.875 L 121.042969 740.535156 L 118.972656 745.160156 L 117.203125 749.742188 L 115.34375 754.234375 L 113.121094 758.585938 L 110.769531 762.707031 L 108.644531 766.503906 L 107.078125 769.910156 L 106.328125 773.003906 L 106.621094 775.890625 L 107.945312 778.644531 L 109.296875 781.183594 L 109.421875 783.390625 L 107.554688 785.253906 L 104.839844 787.253906 L 102.90625 789.964844 L 102.867188 793.785156 L 103.753906 798.296875 L 104.09375 802.890625 L 102.824219 807.320312 L 100.59375 812.835938 L 98.316406 820.453125 L 96.28125 828.796875 L 94.621094 835.914062 L 93.324219 840.503906 L 91.816406 843.90625 L 89.371094 848.140625 L 85.667969 854.617188 L 81.964844 862.351562 L 79.917969 869.769531 L 80.578125 875.640625 L 82.613281 880.171875 L 84.09375 883.921875 L 83.550781 887.355469 L 81.371094 890.570312 L 78.40625 893.582031 L 75.5 896.457031 L 73.460938 899.566406 L 73.085938 903.339844 L 74.867188 908.132812 L 78.101562 914.027344 L 81.777344 921.027344 L 84.972656 928.902344 L 87.078125 936.496094 L 87.578125 942.414062 L 86.214844 945.804688 L 83.757812 947.933594 L 81.253906 950.621094 L 79.570312 955.164062 L 78.941406 960.835938 L 79.371094 966.601562 L 80.574219 972.222656 L 82.207031 977.675781 L 84.027344 983.1875 L 86.21875 989.996094 L 89.070312 999.605469 L 92.714844 1012.644531 L 96.65625 1026.320312 L 100.246094 1036.960938 L 102.890625 1042.007812 L 104.234375 1043.328125 L 103.976562 1043.882812 L 102.222656 1045.996094 L 100.71875 1049.339844 L 101.613281 1052.945312 L 106.140625 1056.023438 L 111.835938 1058.503906 L 115.320312 1060.511719 L 114.28125 1062.222656 L 110.667969 1064.0625 L 107.492188 1066.523438 L 107.035156 1069.933594 L 108.664062 1073.996094 L 111.003906 1078.257812 L 113.09375 1082.4375 L 115.550781 1086.914062 L 119.414062 1092.242188 L 125.292969 1098.894531 L 132.183594 1106.996094 L 138.664062 1116.601562 L 143.632812 1127.359375 L 147.25 1137.308594 L 149.984375 1144.613281 L 152.246094 1149.519531 L 154.4375 1152.792969 L 156.828125 1155.1875 L 159.136719 1157.386719 L 160.957031 1160.054688 L 162.050781 1163.652344 L 162.871094 1167.839844 L 164.050781 1172.070312 L 166.011719 1175.914062 L 168.34375 1179.40625 L 170.429688 1182.703125 L 171.902344 1185.933594 L 173.386719 1189.148438 L 175.765625 1192.390625 L 179.621094 1195.691406 L 184.40625 1199.101562 L 189.28125 1202.683594 L 193.535156 1206.496094 L 196.953125 1210.632812 L 199.441406 1215.199219 L 201.121094 1220.210938 L 202.988281 1225.316406 L 206.25 1230.085938 L 211.546875 1234.179688 L 217.242188 1237.632812 L 221.128906 1240.582031 L 222.460938 1243.25 L 226.296875 1246.171875 L 237.261719 1249.753906 L 252.464844 1253.488281 L 267.125 1256.652344 L 277.558594 1258.683594 L 284.4375 1259.671875 L 289.527344 1259.871094 L 294.378906 1259.589844 L 299.648438 1259.296875 L 305.773438 1259.523438 L 312.886719 1260.5625 L 319.917969 1261.800781 L 325.488281 1262.378906 L 328.699219 1261.742188 L 330.5 1260.480469 L 332.324219 1259.46875 L 335.25 1259.285156 L 339.015625 1259.335938 L 343.007812 1258.730469 L 346.902344 1256.808594 L 351.515625 1253.804688 L 357.945312 1250.1875 L 366.644531 1246.355469 L 375.449219 1242.390625 L 381.566406 1238.296875 L 383.320312 1234.128906 L 383.597656 1230.132812 L 386.414062 1226.597656 L 394.632812 1223.773438 L 406.5 1221.75 L 419.09375 1220.582031 L 429.898438 1220.007812 L 437.929688 1218.5 L 442.96875 1214.707031 L 446.289062 1209.167969 L 449.53125 1202.902344 L 453.871094 1196.804688 L 458.648438 1191.238281 L 462.722656 1186.449219 L 465.289062 1182.550781 L 466.789062 1179.128906 L 467.992188 1175.644531 L 469.503906 1171.699219 L 471.308594 1167.414062 L 473.230469 1163.066406 L 475.125 1158.890625 L 476.988281 1155.003906 L 478.839844 1151.496094 L 480.691406 1148.238281 L 482.457031 1144.253906 L 484.042969 1138.351562 L 485.394531 1129.769531 L 486.601562 1119.484375 L 487.816406 1108.890625 L 489.136719 1099.179688 L 490.53125 1090.691406 L 491.929688 1083.558594 L 493.277344 1077.78125 L 494.59375 1072.859375 L 495.917969 1068.167969 L 497.265625 1063.328125 L 498.621094 1058.984375 L 499.960938 1055.722656 L 501.292969 1052.929688 L 502.628906 1049.679688 L 503.976562 1045.378906 L 505.324219 1040.757812 L 506.675781 1036.863281 L 508.015625 1033.921875 L 509.347656 1028.828125 L 510.683594 1017.652344 L 512.023438 998.25 L 513.371094 975.640625 L 514.71875 956.640625 L 516.074219 946.277344 L 517.417969 942.445312 L 518.75 941.253906 L 520.0625 939.515625 L 521.382812 936.78125 L 522.742188 933.308594 L 524.15625 929.308594 L 525.554688 924.839844 L 526.859375 919.921875 L 528.03125 914.476562 L 529.265625 908 L 530.796875 899.882812 L 532.664062 889.835938 L 534.054688 878.824219 L 533.957031 868.132812 L 531.707031 858.746094 L 528.050781 850.496094 L 524.105469 842.921875 L 520.796875 835.429688 L 518.402344 826.929688 L 516.914062 816.589844 L 515.917969 805.175781 L 514.898438 793.847656 L 513.480469 783.664062 L 511.882812 775.257812 L 510.472656 769.160156 L 509.476562 765.507812 L 508.515625 762.878906 L 507.066406 759.453125 L 504.769531 753.921875 L 501.933594 746.957031 L 499.039062 739.730469 L 496.484375 733.199219 L 494.414062 727.472656 L 492.890625 722.433594 L 491.882812 717.933594 L 490.914062 713.699219 L 489.40625 709.402344 L 486.9375 704.84375 L 483.730469 700.273438 L 480.160156 696.070312 L 476.605469 692.429688 L 473.425781 688.886719 L 470.980469 684.8125 L 469.410156 679.800781 L 467.949219 674.382812 L 465.613281 669.324219 L 461.886719 665.117188 L 458.085938 661.230469 L 455.542969 657.046875 L 453.730469 652.675781 L 451.671875 648.40625 L 448.710938 644.496094 L 445.503906 641.023438 L 443.023438 638.035156 L 441.828125 635.496094 L 440.816406 633.082031 L 438.476562 630.386719 L 433.757812 627.101562 L 427.484375 623.265625 L 420.945312 619.015625 L 415.132812 614.527344 L 409.863281 610.152344 L 404.664062 606.285156 L 399.226562 603.183594 L 393.96875 600.527344 L 389.472656 597.847656 L 385.867188 594.761719 L 381.433594 591.191406 L 373.996094 587.136719 L 362.316406 582.726562 L 348.914062 578.578125 L 337.253906 575.449219 L 329.835938 573.832031 L 325.320312 573.210938 L 321.410156 572.8125 L 315.921875 572.007812 L 307.132812 570.707031 L 293.425781 568.953125 L 288.699219 571.90625 "/>
<path style="fill:none;stroke-width:0.75;stroke-linecap:round;stroke-linejoin:round;stroke:rgb(0%,0%,0%);stroke-opacity:1;stroke-miterlimit:10;" d="M 821.863281 657.921875 L 817.1875 659.476562 L 810 660.917969 L 802.882812 662.3125 L 796.523438 663.667969 L 791.121094 664.980469 L 786.75 666.253906 L 782.972656 667.546875 L 779.226562 668.933594 L 775.128906 670.433594 L 771.015625 671.875 L 767.417969 673.027344 L 764.621094 673.8125 L 762.019531 674.726562 L 758.78125 676.402344 L 754.210938 679.375 L 748.222656 683.71875 L 740.875 689.402344 L 732.433594 696.179688 L 723.929688 702.949219 L 716.609375 708.394531 L 711.402344 711.558594 L 708.023438 712.9375 L 705.882812 713.390625 L 704.289062 713.765625 L 702.15625 714.878906 L 698.285156 717.527344 L 691.945312 722.257812 L 684.175781 728.585938 L 676.464844 735.757812 L 670.019531 743.050781 L 664.914062 749.761719 L 660.9375 755.203125 L 657.980469 759.015625 L 656.355469 762.117188 L 656.101562 765.59375 L 655.773438 769.945312 L 653.53125 775.519531 L 648.203125 782.417969 L 641.222656 789.753906 L 634.667969 796.402344 L 630.160156 801.496094 L 627.457031 805.222656 L 625.847656 808.023438 L 624.582031 810.359375 L 622.761719 812.714844 L 619.449219 815.585938 L 614.09375 819.277344 L 607.695312 823.382812 L 601.632812 827.296875 L 596.964844 830.710938 L 593.425781 834.421875 L 590.417969 839.507812 L 587.480469 846.710938 L 584.675781 855.378906 L 582.195312 864.527344 L 580.121094 873.246094 L 578.054688 880.9375 L 575.496094 887.085938 L 572.082031 891.414062 L 568.015625 894.648438 L 563.664062 897.746094 L 559.367188 901.421875 L 555.4375 905.390625 L 552.167969 909.101562 L 549.660156 912.164062 L 547.21875 914.746094 L 543.945312 917.171875 L 539.441406 919.726562 L 535.3125 922.578125 L 533.097656 925.8125 L 532.148438 929.332031 L 531.25 932.980469 L 529.492188 936.664062 L 527.152344 940.5 L 524.800781 944.652344 L 522.890625 949.160156 L 521.359375 953.558594 L 520.019531 957.261719 L 518.707031 960.15625 L 517.394531 964.082031 L 516.070312 971.359375 L 514.734375 983.410156 L 513.386719 998.027344 L 512.035156 1012.105469 L 510.6875 1023.222656 L 509.339844 1031.722656 L 507.996094 1038.628906 L 506.664062 1044.816406 L 505.332031 1050.519531 L 503.992188 1055.8125 L 502.644531 1060.777344 L 501.289062 1065.5 L 499.941406 1070.082031 L 498.605469 1074.527344 L 497.277344 1078.527344 L 495.941406 1081.683594 L 494.59375 1083.878906 L 493.242188 1086.09375 L 491.890625 1089.589844 L 490.554688 1095.46875 L 489.222656 1104.167969 L 487.882812 1115.972656 L 486.539062 1130.554688 L 485.199219 1145.171875 L 483.875 1157.363281 L 482.523438 1168.222656 L 481.089844 1179.742188 L 479.609375 1193.375 L 478.523438 1208.414062 L 478.367188 1223.636719 L 479.4375 1237.867188 L 481.101562 1250.21875 L 482.472656 1259.855469 L 483.238281 1266.523438 L 485.300781 1272.230469 L 491.121094 1279.542969 L 502.082031 1290.132812 L 515.222656 1302.042969 L 526.503906 1312.402344 L 533 1319.046875 L 536.1875 1322.597656 L 538.664062 1324.375 L 542.316406 1325.542969 L 546.210938 1326.609375 L 548.703125 1327.929688 L 549.042969 1329.679688 L 550.039062 1331.320312 L 555.390625 1332.148438 L 567.40625 1331.710938 L 582.875 1330.585938 L 597.203125 1329.609375 L 606.683594 1329.335938 L 611.21875 1329.222656 L 611.601562 1328.4375 L 609.226562 1326.429688 L 607.917969 1323.722656 L 610.933594 1320.984375 L 616.875 1318.433594 L 623.179688 1316.164062 L 628.023438 1314.195312 L 632.515625 1312.234375 L 638.511719 1309.902344 L 647.140625 1306.980469 L 656.6875 1303.863281 L 664.714844 1301.097656 L 669.46875 1299.105469 L 671.921875 1297.855469 L 673.722656 1297.191406 L 676.132812 1296.910156 L 678.824219 1296.605469 L 681.074219 1295.824219 L 682.660156 1294.222656 L 685.328125 1291.839844 L 691.320312 1288.824219 L 701.917969 1285.273438 L 714.570312 1281.125 L 725.769531 1276.261719 L 733.0625 1270.722656 L 738.171875 1265.113281 L 743.878906 1260.199219 L 752.085938 1256.46875 L 761.148438 1253.375 L 768.554688 1250.105469 L 772.660156 1246.078125 L 775.351562 1241.683594 L 779.394531 1237.546875 L 786.511719 1234.144531 L 794.253906 1231.351562 L 799.140625 1228.90625 L 799.425781 1226.582031 L 800.359375 1224.328125 L 807.089844 1222.0625 L 817.398438 1219.378906 L 827.226562 1215.800781 L 833.515625 1211.050781 L 837.210938 1205.671875 L 840.261719 1200.410156 L 844.242188 1195.808594 L 849.222656 1191.609375 L 854.898438 1187.347656 L 861.042969 1182.621094 L 867.691406 1177.289062 L 874.953125 1171.265625 L 882.722656 1164.613281 L 890.046875 1157.953125 L 895.757812 1152.046875 L 899.144531 1147.382812 L 901.359375 1143.316406 L 904.011719 1138.921875 L 908.171875 1133.554688 L 912.769531 1127.675781 L 916.203125 1122.019531 L 917.332031 1117.109375 L 916.925781 1112.625 L 916.21875 1108.027344 L 916.175781 1102.953125 L 916.703125 1097.769531 L 917.425781 1093.007812 L 918.050781 1088.980469 L 918.609375 1085.058594 L 919.1875 1080.382812 L 919.9375 1074.429688 L 921.1875 1068.03125 L 923.324219 1062.351562 L 926.269531 1058.246094 L 928.128906 1055.269531 L 927.296875 1052.722656 L 925.175781 1050.085938 L 923.921875 1046.898438 L 925.09375 1042.847656 L 927.914062 1038.257812 L 931.011719 1033.609375 L 933.355469 1029.238281 L 935.246094 1024.882812 L 937.316406 1020.128906 L 939.929688 1014.746094 L 942.375 1009.207031 L 943.667969 1004.152344 L 943.140625 1000.089844 L 941.417969 996.929688 L 939.453125 994.433594 L 938.105469 992.367188 L 937.867188 990.488281 L 939.148438 988.546875 L 941.980469 986.304688 L 944.921875 983.496094 L 946.15625 979.871094 L 944.535156 975.320312 L 941.589844 970.378906 L 939.519531 965.730469 L 939.945312 961.847656 L 942.136719 958.335938 L 944.800781 954.582031 L 946.726562 950.105469 L 947.105469 944.96875 L 945.222656 939.378906 L 941.300781 933.746094 L 939.335938 929.347656 L 942.734375 927.082031 L 948.808594 925.515625 L 953.335938 922.613281 L 953.300781 916.933594 L 950.527344 909.378906 L 948.058594 901.425781 L 948.097656 894.304688 L 949.585938 888.175781 L 950.636719 882.953125 L 949.90625 878.53125 L 948.199219 874.757812 L 946.871094 871.457031 L 946.9375 868.460938 L 948.109375 865.542969 L 949.753906 862.46875 L 951.265625 859.066406 L 952.101562 855.402344 L 951.730469 851.613281 L 949.972656 847.828125 L 948.011719 844.226562 L 947.359375 840.980469 L 948.96875 838.128906 L 951.476562 835.152344 L 952.941406 831.390625 L 952.109375 826.371094 L 950.410156 820.375 L 949.96875 813.875 L 952.109375 807.339844 L 955.007812 801.21875 L 956.054688 795.976562 L 953.503906 791.878906 L 949.070312 788.449219 L 945.320312 785.015625 L 944.015625 781.140625 L 943.660156 777.257812 L 942.507812 773.863281 L 941.113281 770.796875 L 940.59375 767.738281 L 941.609375 764.40625 L 943.027344 760.679688 L 943.257812 756.476562 L 941.210938 751.785156 L 937.820312 746.851562 L 934.523438 742 L 932.394531 737.457031 L 931.039062 733.070312 L 929.710938 728.59375 L 927.839844 723.851562 L 925.597656 718.894531 L 923.34375 713.84375 L 921.285156 708.824219 L 919.019531 704.027344 L 915.984375 699.660156 L 911.835938 695.8125 L 907.09375 692.195312 L 902.484375 688.402344 L 898.628906 684.148438 L 895.664062 679.640625 L 893.621094 675.199219 L 892.277344 671.125 L 890.382812 667.644531 L 886.453125 664.949219 L 879.707031 663.136719 L 872.238281 661.902344 L 866.855469 660.835938 L 863.878906 659.625 L 853.648438 658.355469 L 824.019531 657.207031 L 821.863281 657.921875 "/>
</g>
</svg>
