<?xml version="1.0" encoding="UTF-8"?>
<svg xmlns="http://www.w3.org/2000/svg" xmlns:xlink="http://www.w3.org/1999/xlink" width="1428pt" height="1605pt" viewBox="0 0 1428 1605" version="1.1">
<g id="surface164">
<rect x="0" y="0" width="1428" height="1605" style="fill:rgb(100%,100%,100%);fill-opacity:1;stroke:none;"/>
<path style="fill:none;stroke-width:0.75;stroke-linecap:round;stroke-linejoin:round;stroke:rgb(0%,0%,0%);stroke-opacity:1;stroke-miterlimit:10;" d="M 321.554688 558.816406 L 316.484375 562.5625 L 309.71875 566.375 L 302.179688 569.761719 L 294.792969 572.246094 L 288.226562 573.527344 L 282.113281 574.085938 L 275.816406 574.59375 L 268.714844 575.71875 L 260.410156 577.949219 L 251.464844 581.066406 L 242.671875 584.667969 L 234.832031 588.355469 L 228.742188 591.726562 L 224.871094 594.519531 L 222.386719 597.035156 L 220.132812 599.710938 L 216.949219 602.980469 L 212.007812 607.15625 L 205.796875 612.003906 L 199.140625 617.171875 L 192.851562 622.296875 L 187.554688 627.117188 L 183.105469 631.730469 L 179.15625 636.328125 L 175.367188 641.105469 L 171.394531 646.257812 L 167.007812 651.898438 L 162.402344 657.828125 L 157.886719 663.777344 L 153.769531 669.472656 L 150.257812 674.707031 L 147.144531 679.550781 L 144.113281 684.144531 L 140.859375 688.632812 L 137.175781 693.097656 L 133.28125 697.449219 L 129.507812 701.542969 L 126.1875 705.230469 L 123.640625 708.371094 L 122.089844 710.925781 L 121.300781 713.308594 L 120.925781 716.039062 L 120.621094 719.636719 L 120.097656 724.445312 L 119.292969 730.082031 L 118.214844 735.996094 L 116.863281 741.621094 L 115.253906 746.53125 L 113.472656 750.8125 L 111.625 754.6875 L 109.816406 758.371094 L 108.148438 762.082031 L 106.707031 765.976562 L 105.484375 769.984375 L 104.453125 773.964844 L 103.585938 777.785156 L 102.84375 781.402344 L 102.128906 785.164062 L 101.328125 789.503906 L 100.332031 794.859375 L 99.070312 801.492188 L 97.617188 808.921875 L 96.085938 816.492188 L 94.589844 823.550781 L 93.242188 829.429688 L 92.089844 833.734375 L 90.941406 837.046875 L 89.523438 840.210938 L 87.578125 844.070312 L 84.972656 849.230469 L 82.128906 855.332031 L 79.59375 861.78125 L 77.917969 867.992188 L 77.464844 873.484375 L 77.863281 878.234375 L 78.546875 882.335938 L 78.957031 885.886719 L 78.539062 888.976562 L 76.945312 891.734375 L 74.710938 894.414062 L 72.589844 897.300781 L 71.335938 900.683594 L 71.496094 904.757812 L 72.8125 909.382812 L 74.832031 914.320312 L 77.085938 919.332031 L 79.160156 924.222656 L 80.835938 928.894531 L 81.933594 933.292969 L 82.269531 937.351562 L 81.667969 941.015625 L 80.089844 944.292969 L 78.023438 947.496094 L 76.113281 951.007812 L 74.980469 955.214844 L 75.085938 960.359375 L 76.179688 966.125 L 77.835938 972.054688 L 79.621094 977.699219 L 81.199219 982.699219 L 82.578125 987.082031 L 83.859375 990.988281 L 85.140625 994.546875 L 86.519531 997.886719 L 88.050781 1001.140625 L 89.640625 1004.402344 L 91.144531 1007.769531 L 92.425781 1011.335938 L 93.382812 1015.164062 L 94.089844 1019.140625 L 94.652344 1023.121094 L 95.1875 1026.957031 L 95.804688 1030.507812 L 96.582031 1033.675781 L 97.464844 1036.550781 L 98.359375 1039.273438 L 99.175781 1041.988281 L 99.867188 1044.792969 L 100.550781 1047.625 L 101.390625 1050.378906 L 102.542969 1052.945312 L 104.09375 1055.265625 L 105.824219 1057.425781 L 107.425781 1059.5625 L 108.605469 1061.8125 L 109.058594 1064.304688 L 108.652344 1067.152344 L 107.945312 1070.355469 L 107.65625 1073.878906 L 108.503906 1077.699219 L 111.011719 1081.839844 L 114.890625 1086.550781 L 119.65625 1092.125 L 124.824219 1098.859375 L 129.96875 1106.898438 L 134.933594 1115.746094 L 139.625 1124.761719 L 143.945312 1133.296875 L 147.808594 1140.699219 L 151.140625 1146.515625 L 154 1151.035156 L 156.464844 1154.738281 L 158.621094 1158.09375 L 160.539062 1161.5 L 162.234375 1164.980469 L 163.722656 1168.472656 L 165.011719 1171.921875 L 166.148438 1175.28125 L 167.34375 1178.597656 L 168.835938 1181.949219 L 170.882812 1185.394531 L 173.722656 1189.003906 L 177.496094 1192.859375 L 181.917969 1197.066406 L 186.589844 1201.742188 L 191.113281 1207.003906 L 195.207031 1212.871094 L 199.019531 1219 L 202.816406 1224.953125 L 206.859375 1230.285156 L 211.296875 1234.679688 L 215.804688 1238.304688 L 219.941406 1241.441406 L 223.273438 1244.378906 L 225.355469 1247.410156 L 226.261719 1250.726562 L 228.097656 1254.144531 L 233.480469 1257.394531 L 245.035156 1260.207031 L 264.257812 1262.324219 L 288.183594 1263.578125 L 312.730469 1263.828125 L 333.816406 1262.914062 L 348.375 1260.773438 L 357.425781 1257.632812 L 363.003906 1253.792969 L 367.136719 1249.5625 L 371.867188 1245.242188 L 378.78125 1241.117188 L 387.691406 1237.371094 L 397.953125 1234.164062 L 408.933594 1231.660156 L 419.996094 1229.964844 L 430.515625 1228.957031 L 439.867188 1228.460938 L 447.429688 1228.292969 L 452.78125 1228.320312 L 456.351562 1228.546875 L 458.769531 1229.03125 L 460.664062 1229.8125 L 462.667969 1230.945312 L 465.257812 1232.542969 L 468.308594 1234.960938 L 471.53125 1238.617188 L 474.640625 1243.941406 L 477.421875 1251.136719 L 479.929688 1259.550781 L 482.28125 1268.328125 L 484.601562 1276.597656 L 486.972656 1283.6875 L 489.367188 1289.667969 L 491.714844 1294.796875 L 493.953125 1299.328125 L 496.015625 1303.523438 L 497.984375 1307.621094 L 500.492188 1311.804688 L 504.332031 1316.242188 L 510.285156 1321.105469 L 518.882812 1326.433594 L 529.664062 1331.75 L 541.90625 1336.453125 L 554.894531 1339.941406 L 567.914062 1341.601562 L 580.320312 1341.066406 L 591.753906 1338.851562 L 601.933594 1335.703125 L 610.574219 1332.371094 L 617.527344 1329.445312 L 623.140625 1326.871094 L 627.902344 1324.4375 L 632.296875 1321.929688 L 636.699219 1319.222656 L 641.085938 1316.523438 L 645.328125 1314.128906 L 649.296875 1312.324219 L 652.863281 1311.402344 L 655.933594 1311.53125 L 658.566406 1312.339844 L 660.863281 1313.335938 L 662.921875 1314.019531 L 664.871094 1313.996094 L 666.984375 1313.214844 L 669.5625 1311.738281 L 672.914062 1309.609375 L 677.242188 1306.902344 L 682.355469 1303.785156 L 687.960938 1300.433594 L 693.769531 1297.039062 L 699.484375 1293.777344 L 704.894531 1290.796875 L 710.066406 1288.066406 L 715.136719 1285.527344 L 720.253906 1283.109375 L 725.523438 1280.753906 L 730.890625 1278.417969 L 736.273438 1276.082031 L 741.589844 1273.707031 L 746.734375 1271.277344 L 751.554688 1268.816406 L 755.882812 1266.363281 L 759.558594 1263.949219 L 762.40625 1261.621094 L 764.472656 1259.351562 L 766.644531 1256.917969 L 770.007812 1254.039062 L 775.660156 1250.429688 L 784.257812 1245.921875 L 794.679688 1240.820312 L 805.375 1235.539062 L 814.789062 1230.492188 L 821.757812 1226 L 826.667969 1221.976562 L 830.289062 1218.246094 L 833.40625 1214.625 L 836.785156 1210.9375 L 841.003906 1207.058594 L 845.84375 1203.097656 L 850.878906 1199.230469 L 855.691406 1195.621094 L 859.980469 1192.382812 L 863.933594 1189.371094 L 867.847656 1186.394531 L 872.039062 1183.246094 L 876.699219 1179.785156 L 881.605469 1176.058594 L 886.429688 1172.175781 L 890.839844 1168.242188 L 894.507812 1164.363281 L 897.234375 1160.582031 L 899.390625 1156.703125 L 901.476562 1152.480469 L 903.992188 1147.65625 L 907.277344 1142.089844 L 911.035156 1136.0625 L 914.800781 1129.976562 L 918.113281 1124.222656 L 920.632812 1119.042969 L 922.496094 1114.054688 L 923.976562 1108.726562 L 925.328125 1102.515625 L 926.824219 1094.890625 L 928.625 1085.585938 L 930.476562 1075.425781 L 932.03125 1065.507812 L 932.933594 1056.925781 L 932.984375 1050.507812 L 932.574219 1045.964844 L 932.246094 1042.75 L 932.550781 1040.304688 L 933.871094 1038.113281 L 935.992188 1035.800781 L 938.546875 1033.035156 L 941.15625 1029.472656 L 943.453125 1024.777344 L 945.15625 1018.796875 L 946.355469 1012.117188 L 947.21875 1005.511719 L 947.925781 999.742188 L 948.617188 995.335938 L 949.273438 991.792969 L 949.84375 988.359375 L 950.273438 984.289062 L 950.507812 978.828125 L 950.527344 971.546875 L 950.429688 963.234375 L 950.335938 955.011719 L 950.382812 947.988281 L 950.671875 942.921875 L 951.234375 939.167969 L 952.078125 935.726562 L 953.203125 931.59375 L 954.597656 926.011719 L 956.121094 919.144531 L 957.613281 911.398438 L 958.914062 903.171875 L 959.863281 894.875 L 960.339844 886.859375 L 960.398438 879.3125 L 960.121094 872.375 L 959.605469 866.1875 L 958.949219 860.816406 L 958.277344 856.066406 L 957.722656 851.664062 L 957.421875 847.335938 L 957.472656 842.835938 L 957.832031 837.992188 L 958.429688 832.65625 L 959.1875 826.6875 L 960.027344 819.929688 L 960.863281 812.371094 L 961.550781 804.5 L 961.933594 796.945312 L 961.855469 790.324219 L 961.207031 785.039062 L 960.039062 780.609375 L 958.449219 776.320312 L 956.53125 771.46875 L 954.382812 765.546875 L 952.09375 758.867188 L 949.753906 751.941406 L 947.449219 745.277344 L 945.269531 739.390625 L 943.25 734.546875 L 941.203125 730.042969 L 938.890625 724.925781 L 936.070312 718.25 L 932.558594 709.425781 L 928.394531 699.316406 L 923.675781 689.152344 L 918.5 680.164062 L 913.007812 673.273438 L 907.558594 668.175781 L 902.554688 664.265625 L 898.398438 660.929688 L 895.5 657.558594 L 893.910156 653.683594 L 892.296875 649.371094 L 888.980469 644.824219 L 882.277344 640.253906 L 870.949219 635.910156 L 855.523438 632.269531 L 836.972656 629.851562 L 816.269531 629.183594 L 794.507812 630.617188 L 773.234375 633.800781 L 754.109375 638.210938 L 738.796875 643.332031 L 728.96875 648.636719 L 725.542969 653.703125 L 726.503906 658.476562 L 729.089844 663.007812 L 730.539062 667.347656 L 728.761719 671.542969 L 724.285156 675.65625 L 718.308594 679.753906 L 712.027344 683.898438 L 706.417969 688.117188 L 701.59375 692.285156 L 697.433594 696.242188 L 693.835938 699.820312 L 690.683594 702.863281 L 687.835938 705.316406 L 685.039062 707.609375 L 682 710.269531 L 678.4375 713.839844 L 674.164062 718.710938 L 669.4375 724.699219 L 664.609375 731.484375 L 660.039062 738.734375 L 656.027344 746.125 L 652.617188 753.328125 L 649.796875 760.019531 L 647.550781 765.871094 L 645.867188 770.554688 L 644.65625 773.917969 L 643.53125 776.492188 L 642.039062 778.976562 L 639.722656 782.082031 L 636.265625 786.3125 L 631.914062 791.402344 L 627.066406 796.894531 L 622.113281 802.335938 L 617.441406 807.261719 L 613.332031 811.398438 L 609.601562 815.21875 L 605.953125 819.371094 L 602.082031 824.515625 L 597.796875 831.066406 L 593.285156 838.5 L 588.847656 846.042969 L 584.777344 852.941406 L 581.300781 858.617188 L 578.355469 863.273438 L 575.816406 867.296875 L 573.554688 871.078125 L 571.441406 875.007812 L 569.339844 879.382812 L 567.085938 884.121094 L 564.5 889.054688 L 561.414062 894.007812 L 557.75 898.757812 L 553.832031 902.863281 L 550.074219 905.824219 L 546.894531 907.152344 L 544.617188 906.484375 L 543.199219 904.011719 L 542.515625 900.070312 L 542.421875 894.984375 L 542.789062 889.085938 L 543.421875 882.683594 L 543.871094 876.007812 L 543.632812 869.277344 L 542.191406 862.703125 L 539.25 856.488281 L 535.359375 850.785156 L 531.277344 845.734375 L 527.761719 841.480469 L 525.382812 838.027344 L 523.96875 834.828125 L 523.160156 831.203125 L 522.597656 826.46875 L 521.917969 819.9375 L 520.847656 811.238281 L 519.425781 801.195312 L 517.773438 790.945312 L 516.011719 781.617188 L 514.246094 774.070312 L 512.492188 768.046875 L 510.757812 763.007812 L 509.042969 758.421875 L 507.347656 753.859375 L 505.6875 749.320312 L 504.078125 744.917969 L 502.542969 740.75 L 501.097656 736.933594 L 499.75 733.480469 L 498.480469 730.050781 L 497.261719 726.203125 L 496.0625 721.503906 L 494.84375 715.691406 L 493.488281 709.222656 L 491.867188 702.722656 L 489.847656 696.8125 L 487.339844 691.945312 L 484.402344 687.824219 L 481.125 683.980469 L 477.613281 679.945312 L 473.953125 675.238281 L 470.234375 669.554688 L 466.484375 663.195312 L 462.71875 656.628906 L 458.949219 650.320312 L 455.210938 644.625 L 451.605469 639.488281 L 448.238281 634.742188 L 445.230469 630.222656 L 442.59375 625.800781 L 439.96875 621.503906 L 436.886719 617.402344 L 432.894531 613.558594 L 427.523438 610.039062 L 420.535156 606.863281 L 412.566406 603.890625 L 404.472656 600.921875 L 397.101562 597.765625 L 391.125 594.289062 L 386.425781 590.589844 L 382.707031 586.824219 L 379.664062 583.148438 L 376.996094 579.71875 L 374.414062 576.683594 L 371.625 574.195312 L 368.339844 572.40625 L 364.265625 571.46875 L 359.230469 571.40625 L 353.5 571.777344 L 347.445312 572.007812 L 341.453125 571.535156 L 335.84375 569.933594 L 330.722656 567.371094 L 326.128906 564.171875 L 322.121094 560.644531 L 318.734375 557.113281 L 321.554688 558.816406 "/>
<path style="fill:none;stroke-width:0.75;stroke-linecap:round;stroke-linejoin:round;stroke:rgb(0%,0%,0%);stroke-opacity:1;stroke-miterlimit:10;" d="M 320.667969 559.085938 L 316.234375 562.738281 L 310.625 566.078125 L 303.734375 569.085938 L 295.675781 571.707031 L 287.402344 573.765625 L 280.070312 575.046875 L 274.355469 575.523438 L 269 575.953125 L 262.253906 577.285156 L 253.027344 580.171875 L 242.851562 584.09375 L 233.910156 588.238281 L 227.855469 591.9375 L 224.195312 595.097656 L 221.914062 597.769531 L 219.984375 600.121094 L 217.40625 602.75 L 213.183594 606.371094 L 206.746094 611.410156 L 199.222656 617.203125 L 192.175781 622.808594 L 186.78125 627.535156 L 182.699219 631.714844 L 179.207031 635.9375 L 175.660156 640.695312 L 171.765625 646.066406 L 167.316406 652.039062 L 162.265625 658.480469 L 157.25 664.773438 L 153.074219 670.1875 L 150.226562 674.292969 L 147.972656 677.933594 L 145.257812 682.242188 L 141.347656 687.960938 L 136.761719 694.171875 L 132.335938 699.558594 L 128.738281 703.160156 L 125.996094 705.472656 L 123.984375 707.363281 L 122.5625 709.570312 L 121.589844 712.34375 L 120.921875 715.800781 L 120.417969 720.0625 L 119.925781 725.15625 L 119.28125 730.703125 L 118.316406 736.246094 L 116.921875 741.398438 L 115.238281 746.132812 L 113.464844 750.511719 L 111.753906 754.605469 L 110.078125 758.507812 L 108.355469 762.324219 L 106.578125 766.128906 L 104.984375 769.921875 L 103.867188 773.667969 L 103.398438 777.382812 L 103.207031 781.242188 L 102.777344 785.476562 L 101.75 790.277344 L 100.289062 795.679688 L 98.714844 801.6875 L 97.273438 808.261719 L 95.957031 815.183594 L 94.695312 822.191406 L 93.429688 828.957031 L 92.140625 834.882812 L 90.820312 839.308594 L 89.410156 841.957031 L 87.683594 844.117188 L 85.351562 847.460938 L 82.34375 853.164062 L 79.402344 860.417969 L 77.472656 867.925781 L 77.191406 874.570312 L 77.941406 879.96875 L 78.792969 883.917969 L 78.976562 886.410156 L 78.375 888.183594 L 77.023438 890.183594 L 75.050781 893.125 L 72.984375 896.902344 L 71.441406 901.207031 L 71.046875 905.71875 L 72.203125 910.191406 L 74.429688 914.640625 L 77.042969 919.148438 L 79.417969 923.765625 L 81.253906 928.40625 L 82.320312 932.960938 L 82.4375 937.304688 L 81.65625 941.28125 L 80.09375 944.730469 L 77.960938 947.652344 L 75.914062 950.710938 L 74.726562 954.742188 L 74.9375 960.277344 L 76.1875 966.628906 L 77.902344 972.800781 L 79.597656 978.023438 L 81.183594 982.4375 L 82.667969 986.394531 L 84.066406 990.207031 L 85.386719 993.996094 L 86.644531 997.828125 L 87.867188 1001.722656 L 89.164062 1005.476562 L 90.644531 1008.84375 L 92.339844 1011.707031 L 93.890625 1014.507812 L 94.835938 1017.828125 L 94.933594 1022.035156 L 94.761719 1026.652344 L 95.09375 1030.996094 L 96.4375 1034.535156 L 98.15625 1037.375 L 99.347656 1039.785156 L 99.402344 1042.015625 L 98.976562 1044.28125 L 99.039062 1046.773438 L 100.304688 1049.621094 L 102.46875 1052.652344 L 104.976562 1055.609375 L 107.277344 1058.246094 L 108.878906 1060.40625 L 109.539062 1062.304688 L 109.070312 1064.25 L 107.550781 1066.527344 L 106.074219 1069.355469 L 105.996094 1072.941406 L 108.25 1077.394531 L 112.121094 1082.476562 L 116.488281 1087.863281 L 120.5 1093.371094 L 124.453125 1099.359375 L 128.925781 1106.328125 L 134.246094 1114.570312 L 139.796875 1123.527344 L 144.703125 1132.4375 L 148.34375 1140.585938 L 151.09375 1147.472656 L 153.570312 1152.632812 L 156.222656 1155.886719 L 158.796875 1158.105469 L 160.875 1160.433594 L 162.203125 1163.734375 L 163.167969 1167.75 L 164.324219 1171.9375 L 166.0625 1175.855469 L 168.113281 1179.417969 L 170.042969 1182.644531 L 171.621094 1185.613281 L 173.429688 1188.660156 L 176.246094 1192.179688 L 180.582031 1196.480469 L 185.867188 1201.53125 L 191.257812 1207.199219 L 196.082031 1213.304688 L 200.316406 1219.441406 L 204.105469 1225.152344 L 207.589844 1230.085938 L 210.914062 1234.324219 L 214.210938 1238.058594 L 217.625 1241.480469 L 221.300781 1244.746094 L 225.40625 1247.890625 L 230.113281 1250.921875 L 235.417969 1253.804688 L 240.613281 1256.386719 L 244.820312 1258.460938 L 247.496094 1259.863281 L 249.410156 1260.503906 L 251.675781 1260.316406 L 255.160156 1259.355469 L 259.75 1258.128906 L 265.09375 1257.269531 L 270.867188 1257.265625 L 276.875 1258.023438 L 282.953125 1259.308594 L 289.101562 1260.855469 L 295.960938 1262.261719 L 304.347656 1263.101562 L 314.621094 1263.0625 L 325.332031 1262.335938 L 334.59375 1261.234375 L 341.09375 1259.980469 L 345.890625 1258.445312 L 350.609375 1256.410156 L 356.558594 1253.6875 L 363.699219 1250.238281 L 371.652344 1246.046875 L 380.066406 1241.269531 L 388.679688 1236.6875 L 397.25 1233.25 L 405.53125 1231.574219 L 413.25 1230.976562 L 420.128906 1230.445312 L 425.957031 1229.136719 L 430.816406 1226.871094 L 434.84375 1223.644531 L 438.25 1219.480469 L 441.507812 1214.535156 L 445.148438 1208.984375 L 449.523438 1203.046875 L 454.246094 1197.066406 L 458.75 1191.417969 L 462.46875 1186.480469 L 465.019531 1182.476562 L 466.742188 1179.003906 L 468.15625 1175.511719 L 469.695312 1171.582031 L 471.394531 1167.359375 L 473.210938 1163.128906 L 475.085938 1159.121094 L 476.980469 1155.347656 L 478.863281 1151.769531 L 480.691406 1148.191406 L 482.414062 1143.820312 L 483.980469 1137.722656 L 485.359375 1129.304688 L 486.625 1119.394531 L 487.871094 1109.167969 L 489.179688 1099.636719 L 490.535156 1091.121094 L 491.902344 1083.777344 L 493.257812 1077.675781 L 494.597656 1072.523438 L 495.933594 1067.945312 L 497.269531 1063.632812 L 498.609375 1059.542969 L 499.949219 1055.6875 L 501.296875 1052.097656 L 502.644531 1048.792969 L 503.988281 1045.804688 L 505.324219 1042.953125 L 506.664062 1039.25 L 508 1033.492188 L 509.34375 1024.691406 L 510.691406 1012.652344 L 512.035156 997.386719 L 513.378906 979.496094 L 514.722656 961.921875 L 516.0625 948.210938 L 517.398438 940.871094 L 518.734375 938.34375 L 520.074219 938.03125 L 521.421875 937.347656 L 522.773438 934.351562 L 524.125 929.679688 L 525.460938 924.621094 L 526.78125 920.023438 L 528.140625 914.984375 L 529.59375 908.167969 L 531.132812 898.691406 L 532.460938 887.523438 L 533.203125 876.074219 L 533.097656 865.609375 L 532.304688 856.734375 L 531.089844 849.90625 L 529.691406 845.320312 L 528.226562 842.234375 L 526.777344 839.648438 L 525.417969 836.632812 L 524.105469 832.53125 L 522.785156 826.753906 L 521.414062 818.953125 L 520.046875 809.761719 L 518.738281 800.0625 L 517.523438 790.664062 L 516.265625 782.085938 L 514.785156 774.765625 L 512.976562 768.933594 L 510.964844 763.960938 L 508.941406 758.996094 L 507.070312 753.476562 L 505.378906 747.960938 L 503.859375 743.304688 L 502.5 740.042969 L 501.226562 737.542969 L 499.957031 734.859375 L 498.636719 731.230469 L 497.292969 726.609375 L 495.980469 721.117188 L 494.722656 714.941406 L 493.394531 708.507812 L 491.835938 702.304688 L 489.882812 696.816406 L 487.417969 692.339844 L 484.496094 688.429688 L 481.199219 684.4375 L 477.632812 679.855469 L 473.910156 674.707031 L 470.152344 669.140625 L 466.457031 663.285156 L 462.785156 657.210938 L 459.0625 650.953125 L 455.265625 644.644531 L 451.535156 638.691406 L 448.0625 633.59375 L 444.992188 629.632812 L 442.25 626.261719 L 439.71875 622.71875 L 437.144531 618.476562 L 433.703125 613.90625 L 428.433594 609.605469 L 420.796875 606.035156 L 411.945312 603.066406 L 403.464844 600.433594 L 396.59375 597.851562 L 391.214844 594.984375 L 386.871094 591.492188 L 383.160156 587.210938 L 379.886719 582.746094 L 376.902344 578.878906 L 374.058594 576.199219 L 371.148438 574.453125 L 367.957031 573.191406 L 364.261719 572.082031 L 359.832031 571.253906 L 354.441406 570.960938 L 348.03125 571.257812 L 341.277344 571.425781 L 335.042969 570.550781 L 329.976562 568.003906 L 325.894531 564.332031 L 322.410156 560.359375 L 319.140625 556.921875 L 320.667969 559.085938 "/>
<path style="fill:none;stroke-width:0.75;stroke-linecap:round;stroke-linejoin:round;stroke:rgb(0%,0%,0%);stroke-opacity:1;stroke-miterlimit:10;" d="M 822.046875 657.933594 L 816.914062 659.476562 L 809.871094 660.917969 L 802.988281 662.292969 L 796.757812 663.628906 L 791.292969 664.957031 L 786.636719 666.304688 L 782.597656 667.652344 L 778.933594 668.988281 L 775.394531 670.300781 L 771.777344 671.617188 L 767.878906 672.984375 L 763.734375 674.375 L 760.351562 675.496094 L 758.425781 676.226562 L 756.492188 677.457031 L 752.535156 680.335938 L 745.253906 685.566406 L 736.175781 692.136719 L 727.539062 698.609375 L 721.085938 703.796875 L 716.5625 707.578125 L 713.222656 710.09375 L 710.445312 711.535156 L 708.089844 712.3125 L 706.136719 712.886719 L 704.359375 713.726562 L 701.714844 715.320312 L 697.273438 718.089844 L 691.410156 722.21875 L 684.824219 727.824219 L 678.078125 734.894531 L 671.183594 742.90625 L 664.003906 751.195312 L 656.648438 759.132812 L 650.160156 766.21875 L 645.820312 771.992188 L 644.066406 776.425781 L 642.011719 781.28125 L 636.734375 788.289062 L 628.554688 797.234375 L 618.597656 807.4375 L 608.09375 818.164062 L 598.65625 828.476562 L 591.992188 837.402344 L 589.117188 844.25 L 588.234375 849.496094 L 586.835938 853.917969 L 583.167969 858.164062 L 578.433594 862.390625 L 574.566406 866.644531 L 572.84375 870.957031 L 571.847656 875.324219 L 569.917969 879.757812 L 567.136719 884.285156 L 564.007812 888.953125 L 560.925781 893.734375 L 557.875 898.304688 L 554.730469 902.273438 L 551.429688 905.34375 L 548.15625 907.640625 L 545.148438 909.386719 L 542.5625 910.921875 L 540.167969 913.019531 L 537.746094 916.324219 L 535.453125 920.472656 L 533.550781 924.847656 L 532.171875 928.972656 L 530.96875 932.894531 L 529.460938 936.796875 L 527.339844 940.820312 L 524.945312 944.914062 L 522.773438 948.984375 L 521.191406 952.949219 L 519.992188 956.8125 L 518.839844 960.59375 L 517.480469 964.785156 L 516.03125 971.785156 L 514.664062 983.484375 L 513.359375 997.820312 L 512.058594 1011.757812 L 510.71875 1022.921875 L 509.351562 1031.578125 L 507.988281 1038.652344 L 506.644531 1044.929688 L 505.316406 1050.640625 L 503.992188 1055.867188 L 502.65625 1060.722656 L 501.308594 1065.441406 L 499.949219 1070.175781 L 498.59375 1074.628906 L 497.253906 1078.402344 L 495.933594 1081.261719 L 494.613281 1083.699219 L 493.273438 1086.375 L 491.898438 1090.023438 L 490.519531 1095.625 L 489.179688 1104.21875 L 487.902344 1116.316406 L 486.621094 1130.25 L 485.25 1143.824219 L 483.75 1155.664062 L 482.304688 1167.730469 L 481.082031 1182.246094 L 480.027344 1199.179688 L 479.03125 1217.9375 L 478.152344 1237.585938 L 478.132812 1255.8125 L 479.886719 1269.964844 L 484.226562 1278.484375 L 491.5 1284.164062 L 501.945312 1290.886719 L 514.949219 1301.105469 L 526.449219 1311.5625 L 532.855469 1318.566406 L 535.84375 1322.421875 L 538.417969 1324.425781 L 542.671875 1325.71875 L 547.074219 1326.816406 L 549.191406 1328.085938 L 547.996094 1329.726562 L 548.054688 1331.308594 L 555.351562 1332.238281 L 573.503906 1332.046875 L 596.722656 1330.777344 L 616.847656 1328.585938 L 628.035156 1325.679688 L 633.617188 1322.441406 L 638.257812 1319.257812 L 642.652344 1316.390625 L 646.527344 1314.0625 L 649.6875 1312.460938 L 652.34375 1311.613281 L 654.796875 1311.507812 L 657.3125 1312.066406 L 660.023438 1312.964844 L 663.039062 1313.808594 L 666.269531 1314.203125 L 668.910156 1313.742188 L 670.394531 1312.136719 L 671.894531 1309.632812 L 675.003906 1306.601562 L 680.765625 1303.378906 L 688.007812 1300.121094 L 694.984375 1296.949219 L 700.445312 1293.949219 L 705.046875 1291.097656 L 709.925781 1288.335938 L 715.800781 1285.625 L 721.699219 1283.011719 L 726.226562 1280.558594 L 728.839844 1278.296875 L 732.367188 1276.066406 L 739.390625 1273.722656 L 748.070312 1271.292969 L 755.472656 1268.847656 L 759.429688 1266.445312 L 760.839844 1264.066406 L 761.382812 1261.6875 L 762.515625 1259.261719 L 764.832031 1256.675781 L 768.710938 1253.804688 L 774.605469 1250.472656 L 783.234375 1246.308594 L 794.789062 1241.089844 L 807.074219 1235.425781 L 817.304688 1230.128906 L 823.476562 1225.789062 L 826.722656 1222.117188 L 828.960938 1218.597656 L 831.808594 1214.832031 L 835.664062 1210.855469 L 840.632812 1206.820312 L 846.585938 1202.867188 L 852.492188 1199.117188 L 857.105469 1195.679688 L 859.765625 1192.589844 L 862.226562 1189.609375 L 866.296875 1186.484375 L 871.628906 1183.15625 L 877.328125 1179.625 L 882.628906 1175.902344 L 887.269531 1172.085938 L 891.117188 1168.289062 L 894.132812 1164.574219 L 896.675781 1160.777344 L 899.199219 1156.679688 L 902.007812 1152.128906 L 904.765625 1147.203125 L 907.183594 1142.015625 L 909.722656 1136.558594 L 913.035156 1130.804688 L 917.433594 1124.78125 L 921.859375 1118.761719 L 924.910156 1113.089844 L 925.6875 1107.863281 L 925.273438 1102.277344 L 925.257812 1095.285156 L 926.800781 1086.230469 L 929.386719 1075.964844 L 932.066406 1065.734375 L 933.976562 1056.71875 L 934.582031 1049.839844 L 933.714844 1045.597656 L 932.347656 1043.085938 L 931.742188 1041.039062 L 932.824219 1038.457031 L 935.148438 1035.382812 L 937.933594 1032.125 L 940.5625 1028.824219 L 943.105469 1024.917969 L 945.804688 1019.660156 L 948.554688 1012.746094 L 949.859375 1005.609375 L 948.589844 999.734375 L 946.417969 995.101562 L 945.722656 991.328125 L 948.042969 987.941406 L 951.554688 984.117188 L 953.597656 978.949219 L 952.394531 971.875 L 949.683594 963.722656 L 948.097656 955.667969 L 949.402344 948.667969 L 951.921875 942.792969 L 953.128906 937.882812 L 951.613281 933.75 L 950.476562 930.0625 L 952.792969 926.324219 L 957.019531 921.511719 L 960.46875 914.492188 L 961.160156 904.683594 L 959.996094 893.785156 L 958.605469 884.066406 L 958.253906 877.160156 L 958.78125 872.148438 L 959.671875 867.488281 L 960.390625 862.066406 L 960.304688 856.496094 L 959.042969 851.578125 L 957.316406 847.089844 L 956.105469 842.558594 L 956.152344 837.59375 L 957.21875 832.15625 L 958.832031 826.308594 L 960.515625 820.171875 L 961.828125 814.183594 L 962.335938 808.847656 L 961.753906 804.472656 L 960.433594 800.558594 L 958.878906 796.414062 L 957.492188 791.46875 L 956.214844 785.675781 L 954.917969 779.179688 L 953.578125 772.371094 L 952.214844 765.707031 L 950.839844 759.585938 L 949.472656 754.15625 L 948.140625 749.507812 L 946.859375 745.65625 L 945.582031 742.28125 L 944.246094 738.984375 L 942.753906 735.421875 L 940.820312 731.46875 L 938.261719 727.109375 L 935.449219 722.578125 L 932.894531 718.179688 L 930.886719 714.089844 L 928.820312 710.019531 L 925.882812 705.550781 L 921.605469 700.457031 L 916.941406 695.25 L 913.195312 690.613281 L 911.277344 687.03125 L 910.5 684.160156 L 909.761719 681.4375 L 908.1875 678.472656 L 905.746094 675.503906 L 902.664062 672.871094 L 899.375 670.640625 L 896.363281 668.8125 L 893.84375 667.359375 L 890.957031 666.125 L 886.574219 664.929688 L 880.085938 663.628906 L 872.992188 662.257812 L 867.3125 660.882812 L 863.074219 659.570312 L 852.332031 658.34375 L 825.140625 657.207031 L 822.046875 657.933594 "/>
<path style="fill:none;stroke-width:0.75;stroke-linecap:round;stroke-linejoin:round;stroke:rgb(0%,0%,0%);stroke-opacity:1;stroke-miterlimit:10;" d="M 958.238281 740.769531 L 955.554688 743.453125 L 955.554688 751.503906 L 958.238281 754.1875 L 963.605469 754.1875 L 966.289062 751.503906 L 966.289062 743.453125 L 963.605469 740.769531 L 958.238281 740.769531 "/>
</g>
</svg>
