<?xml version="1.0" encoding="UTF-8"?>
<svg xmlns="http://www.w3.org/2000/svg" xmlns:xlink="http://www.w3.org/1999/xlink" width="1428pt" height="1605pt" viewBox="0 0 1428 1605" version="1.1">
<g id="surface169">
<rect x="0" y="0" width="1428" height="1605" style="fill:rgb(100%,100%,100%);fill-opacity:1;stroke:none;"/>
<path style="fill:none;stroke-width:0.75;stroke-linecap:round;stroke-linejoin:round;stroke:rgb(0%,0%,0%);stroke-opacity:1;stroke-miterlimit:10;" d="M 318.914062 542.519531 L 315.941406 552.789062 L 312.835938 560.804688 L 309.800781 566.191406 L 307.039062 568.5625 L 304.707031 567.816406 L 302.753906 564.953125 L 301.09375 561.226562 L 299.628906 557.914062 L 298.261719 556.277344 L 296.871094 557.175781 L 295.164062 559.875 L 292.816406 563.21875 L 289.507812 566.066406 L 285.066406 567.535156 L 279.917969 567.796875 L 274.632812 567.300781 L 269.785156 566.484375 L 265.957031 565.792969 L 263.515625 565.554688 L 262.046875 565.675781 L 260.929688 565.941406 L 259.542969 566.148438 L 257.378906 566.175781 L 254.335938 566.265625 L 250.4375 566.75 L 245.695312 567.96875 L 240.121094 570.246094 L 233.832031 573.785156 L 227.335938 578.214844 L 221.242188 583.035156 L 216.164062 587.734375 L 212.714844 591.8125 L 211.1875 594.933594 L 210.660156 597.441406 L 209.882812 599.835938 L 207.617188 602.640625 L 203.011719 606.226562 L 196.753906 610.472656 L 189.90625 615.125 L 183.546875 619.925781 L 178.746094 624.628906 L 176.21875 629.023438 L 175.242188 633.140625 L 174.730469 637.050781 L 173.609375 640.832031 L 171.050781 644.550781 L 167.277344 648.246094 L 162.757812 651.949219 L 157.96875 655.683594 L 153.390625 659.488281 L 149.386719 663.386719 L 145.925781 667.402344 L 142.867188 671.550781 L 140.074219 675.859375 L 137.40625 680.339844 L 134.75 684.96875 L 132.09375 689.503906 L 129.464844 693.660156 L 126.875 697.148438 L 124.347656 699.800781 L 121.929688 701.921875 L 119.667969 703.9375 L 117.617188 706.269531 L 115.828125 709.347656 L 114.34375 713.457031 L 113.179688 718.359375 L 112.347656 723.671875 L 111.855469 729.023438 L 111.6875 734.082031 L 111.707031 738.746094 L 111.75 742.957031 L 111.640625 746.65625 L 111.21875 749.789062 L 110.363281 752.386719 L 109.125 754.828125 L 107.605469 757.578125 L 105.898438 761.101562 L 104.101562 765.738281 L 102.269531 771.324219 L 100.445312 777.566406 L 98.683594 784.171875 L 97.023438 790.855469 L 95.5 797.371094 L 94.03125 803.707031 L 92.535156 809.890625 L 90.910156 815.960938 L 89.0625 821.953125 L 86.941406 827.921875 L 84.628906 834.019531 L 82.25 840.417969 L 79.925781 847.285156 L 77.765625 854.675781 L 75.839844 862.160156 L 74.207031 869.195312 L 72.921875 875.230469 L 72.039062 879.714844 L 71.578125 882.378906 L 71.367188 884.046875 L 71.195312 885.824219 L 70.84375 888.804688 L 70.199219 893.78125 L 69.496094 900.304688 L 69.074219 907.609375 L 69.257812 914.933594 L 70.378906 921.519531 L 72.613281 926.78125 L 75.464844 930.878906 L 78.285156 934.15625 L 80.421875 936.949219 L 81.21875 939.597656 L 80.257812 942.363281 L 78.039062 945.152344 L 75.289062 947.792969 L 72.738281 950.113281 L 70.984375 952.003906 L 70.058594 953.617188 L 69.855469 955.175781 L 70.28125 956.894531 L 71.230469 958.992188 L 72.578125 961.648438 L 74.113281 964.886719 L 75.617188 968.691406 L 76.851562 973.042969 L 77.675781 977.886719 L 78.28125 983.011719 L 78.953125 988.164062 L 79.960938 993.101562 L 81.589844 997.5625 L 83.992188 1001.40625 L 86.835938 1004.925781 L 89.65625 1008.511719 L 91.996094 1012.5625 L 93.398438 1017.472656 L 93.605469 1023.476562 L 93.164062 1030.136719 L 92.828125 1036.867188 L 93.34375 1043.066406 L 95.222656 1048.261719 L 98.03125 1052.476562 L 101.082031 1055.855469 L 103.707031 1058.542969 L 105.222656 1060.683594 L 105.199219 1062.457031 L 104.230469 1064.203125 L 103.148438 1066.296875 L 102.792969 1069.113281 L 103.804688 1072.910156 L 106.074219 1077.496094 L 109.292969 1082.558594 L 113.15625 1087.796875 L 117.355469 1092.902344 L 121.617188 1097.644531 L 125.75 1102.128906 L 129.59375 1106.539062 L 132.992188 1111.058594 L 135.828125 1115.816406 L 138.160156 1120.730469 L 140.089844 1125.675781 L 141.714844 1130.511719 L 143.144531 1135.109375 L 144.484375 1139.359375 L 145.851562 1143.238281 L 147.375 1146.753906 L 149.175781 1149.914062 L 151.378906 1152.71875 L 154.046875 1155.222656 L 156.960938 1157.664062 L 159.835938 1160.324219 L 162.390625 1163.488281 L 164.414062 1167.335938 L 165.988281 1171.621094 L 167.277344 1175.980469 L 168.429688 1180.058594 L 169.605469 1183.503906 L 170.980469 1186.121094 L 172.773438 1188.351562 L 175.222656 1190.808594 L 178.574219 1194.09375 L 182.953125 1198.652344 L 188.035156 1204.242188 L 193.394531 1210.449219 L 198.605469 1216.863281 L 203.226562 1223.082031 L 206.976562 1228.765625 L 210.117188 1233.902344 L 213.054688 1238.554688 L 216.191406 1242.792969 L 219.9375 1246.675781 L 224.484375 1250.261719 L 229.214844 1253.578125 L 233.289062 1256.636719 L 235.878906 1259.457031 L 236.589844 1262.046875 L 236.789062 1264.386719 L 238.277344 1266.445312 L 242.855469 1268.195312 L 252.332031 1269.605469 L 267.714844 1270.632812 L 286.859375 1271.183594 L 306.835938 1271.144531 L 324.707031 1270.417969 L 338.230469 1268.917969 L 347.929688 1266.707031 L 355.015625 1263.882812 L 360.699219 1260.535156 L 366.195312 1256.761719 L 372.417969 1252.679688 L 379.0625 1248.527344 L 385.535156 1244.570312 L 391.234375 1241.074219 L 395.78125 1238.257812 L 399.695312 1236.160156 L 403.726562 1234.777344 L 408.617188 1234.101562 L 415.109375 1234.128906 L 423.667969 1234.859375 L 433.589844 1236.308594 L 443.902344 1238.503906 L 453.613281 1241.472656 L 461.75 1245.234375 L 467.585938 1249.753906 L 471.460938 1254.710938 L 473.976562 1259.726562 L 475.722656 1264.414062 L 477.214844 1268.507812 L 478.609375 1272.179688 L 479.972656 1275.722656 L 481.375 1279.425781 L 482.882812 1283.570312 L 484.535156 1288.347656 L 486.242188 1293.519531 L 487.882812 1298.738281 L 489.347656 1303.667969 L 490.589844 1308.066406 L 491.910156 1312.113281 L 493.691406 1316.085938 L 496.3125 1320.265625 L 500.152344 1324.929688 L 505.554688 1330.21875 L 512.710938 1335.714844 L 521.78125 1340.851562 L 532.921875 1345.078125 L 546.285156 1347.824219 L 561.769531 1348.699219 L 578.21875 1347.953125 L 594.207031 1345.996094 L 608.320312 1343.25 L 619.503906 1340.074219 L 628.191406 1336.628906 L 635.1875 1333.019531 L 641.28125 1329.351562 L 647.28125 1325.738281 L 653.828125 1322.277344 L 660.957031 1319.054688 L 668.546875 1316.148438 L 676.472656 1313.640625 L 684.589844 1311.578125 L 692.652344 1309.90625 L 700.402344 1308.523438 L 707.566406 1307.34375 L 713.882812 1306.273438 L 719.152344 1305.210938 L 723.472656 1304.023438 L 726.992188 1302.570312 L 729.882812 1300.707031 L 732.296875 1298.292969 L 734.464844 1295.242188 L 736.847656 1291.691406 L 739.992188 1287.828125 L 744.429688 1283.847656 L 750.472656 1279.917969 L 757.542969 1276.136719 L 764.84375 1272.589844 L 771.582031 1269.351562 L 776.949219 1266.503906 L 780.460938 1264.0625 L 782.832031 1261.800781 L 785.09375 1259.429688 L 788.273438 1256.664062 L 793.113281 1253.300781 L 799.226562 1249.476562 L 805.957031 1245.417969 L 812.632812 1241.34375 L 818.59375 1237.488281 L 823.386719 1233.972656 L 827.429688 1230.535156 L 831.355469 1226.816406 L 835.785156 1222.453125 L 841.171875 1217.238281 L 847.210938 1211.5625 L 853.417969 1205.957031 L 859.304688 1200.964844 L 864.386719 1197.121094 L 868.363281 1194.726562 L 871.695312 1193.125 L 875.027344 1191.410156 L 879.003906 1188.691406 L 884.28125 1184.070312 L 891.214844 1177.003906 L 899.039062 1168.359375 L 906.703125 1159.375 L 913.152344 1151.273438 L 917.628906 1144.980469 L 920.507812 1140.203125 L 922.457031 1136.332031 L 924.148438 1132.765625 L 926.238281 1128.910156 L 929.167969 1124.335938 L 932.429688 1119.351562 L 935.289062 1114.445312 L 937.003906 1110.105469 L 937.074219 1106.667969 L 935.945312 1103.886719 L 934.304688 1101.359375 L 932.828125 1098.695312 L 932.199219 1095.5 L 932.898438 1091.453125 L 934.574219 1086.589844 L 936.6875 1081.011719 L 938.675781 1074.835938 L 940 1068.171875 L 940.3125 1061.164062 L 940.140625 1054.097656 L 940.210938 1047.300781 L 941.25 1041.09375 L 943.765625 1035.6875 L 947.316406 1030.851562 L 951.253906 1026.234375 L 954.90625 1021.496094 L 957.617188 1016.289062 L 958.925781 1010.425781 L 959.191406 1004.34375 L 958.96875 998.648438 L 958.824219 993.941406 L 959.179688 990.609375 L 959.949219 988.203125 L 960.898438 986.066406 L 961.808594 983.535156 L 962.453125 979.953125 L 962.660156 974.871094 L 962.488281 968.699219 L 962.050781 962.050781 L 961.457031 955.546875 L 960.824219 949.804688 L 960.257812 945.273438 L 959.875 941.710938 L 959.785156 938.703125 L 960.105469 935.839844 L 960.902344 932.703125 L 962.085938 928.859375 L 963.511719 923.871094 L 965.042969 917.296875 L 966.542969 908.699219 L 967.898438 897.984375 L 969.097656 886.421875 L 970.148438 875.636719 L 971.066406 867.242188 L 971.851562 862.234375 L 972.488281 859.109375 L 972.9375 855.746094 L 973.175781 850.019531 L 973.171875 839.804688 L 972.898438 823.871094 L 972.339844 804.53125 L 971.488281 784.996094 L 970.339844 768.46875 L 968.890625 757.363281 L 967.214844 750.890625 L 965.394531 747.457031 L 963.511719 745.476562 L 961.644531 743.367188 L 959.867188 739.878906 L 958.171875 735.15625 L 956.542969 729.675781 L 954.957031 723.929688 L 953.398438 718.398438 L 951.832031 713.457031 L 950.15625 709.015625 L 948.25 704.890625 L 946 700.878906 L 943.332031 696.824219 L 940.386719 692.691406 L 937.34375 688.476562 L 934.394531 684.171875 L 931.71875 679.777344 L 929.40625 675.300781 L 927.152344 670.773438 L 924.546875 666.234375 L 921.1875 661.726562 L 916.824219 657.289062 L 911.835938 652.941406 L 906.757812 648.695312 L 902.128906 644.574219 L 898.480469 640.585938 L 896.039062 636.738281 L 893.777344 632.976562 L 890.355469 629.246094 L 884.429688 625.484375 L 874.667969 621.625 L 860.363281 617.667969 L 843.355469 613.851562 L 826.117188 610.460938 L 811.121094 607.792969 L 800.261719 606.058594 L 793.054688 605.113281 L 788.433594 604.738281 L 785.335938 604.710938 L 782.695312 604.808594 L 779.632812 604.898438 L 776.042969 605.1875 L 771.996094 605.964844 L 767.578125 607.527344 L 762.859375 610.074219 L 757.894531 613.449219 L 752.734375 617.394531 L 747.433594 621.660156 L 742.035156 625.992188 L 736.628906 630.15625 L 731.445312 633.953125 L 726.75 637.203125 L 722.808594 639.730469 L 719.78125 641.453125 L 717.414062 642.738281 L 715.339844 644.039062 L 713.203125 645.820312 L 710.636719 648.546875 L 707.394531 652.535156 L 703.675781 657.519531 L 699.789062 663.078125 L 696.050781 668.796875 L 692.765625 674.261719 L 690.125 679.164062 L 687.777344 683.605469 L 685.253906 687.800781 L 682.085938 691.953125 L 677.949219 696.226562 L 673.140625 700.621094 L 668.097656 705.070312 L 663.273438 709.527344 L 659.109375 713.9375 L 655.933594 718.253906 L 653.59375 722.453125 L 651.824219 726.527344 L 650.359375 730.460938 L 648.972656 734.277344 L 647.625 738.128906 L 646.324219 742.207031 L 645.066406 746.703125 L 643.867188 751.796875 L 642.667969 757.621094 L 641.222656 764.011719 L 639.226562 770.757812 L 636.375 777.632812 L 632.367188 784.421875 L 627.046875 790.941406 L 620.894531 797.1875 L 614.539062 803.191406 L 608.609375 808.988281 L 603.585938 814.601562 L 599.347656 820.003906 L 595.613281 825.167969 L 592.109375 830.050781 L 588.566406 834.625 L 584.789062 838.886719 L 580.914062 842.972656 L 577.171875 847.050781 L 573.789062 851.285156 L 570.921875 855.808594 L 568.480469 860.566406 L 566.316406 865.480469 L 564.273438 870.460938 L 562.195312 875.421875 L 559.976562 880.214844 L 557.679688 884.449219 L 555.398438 887.679688 L 553.242188 889.453125 L 551.308594 889.320312 L 549.703125 887.023438 L 548.53125 883.097656 L 547.894531 878.261719 L 547.90625 873.234375 L 548.59375 868.613281 L 549.695312 864.464844 L 550.878906 860.730469 L 551.804688 857.34375 L 552.144531 854.246094 L 551.636719 851.363281 L 550.316406 848.554688 L 548.289062 845.664062 L 545.664062 842.535156 L 542.578125 839.066406 L 539.242188 835.347656 L 535.894531 831.53125 L 532.773438 827.753906 L 530.113281 824.160156 L 528.082031 820.824219 L 526.542969 817.523438 L 525.300781 813.953125 L 524.140625 809.820312 L 522.902344 804.886719 L 521.5625 799.164062 L 520.140625 792.714844 L 518.652344 785.613281 L 517.121094 777.921875 L 515.550781 769.753906 L 513.921875 761.390625 L 512.203125 753.152344 L 510.367188 745.363281 L 508.378906 738.34375 L 506.246094 732.320312 L 504.101562 727.148438 L 502.113281 722.574219 L 500.453125 718.355469 L 499.207031 714.257812 L 498.167969 710.125 L 497.054688 705.796875 L 495.574219 701.128906 L 493.449219 695.96875 L 490.519531 690.261719 L 487.152344 684.359375 L 483.839844 678.703125 L 481.082031 673.734375 L 479.21875 669.757812 L 477.945312 666.546875 L 476.8125 663.722656 L 475.363281 660.917969 L 473.144531 657.757812 L 469.855469 653.945312 L 465.804688 649.472656 L 461.445312 644.402344 L 457.242188 638.800781 L 453.652344 632.734375 L 451.003906 626.332031 L 449.101562 620.007812 L 447.613281 614.234375 L 446.207031 609.492188 L 444.527344 606.074219 L 442.109375 603.515625 L 438.464844 601.167969 L 433.101562 598.375 L 425.53125 594.492188 L 415.640625 589.121094 L 404.832031 582.890625 L 394.867188 576.683594 L 387.53125 571.378906 L 383.984375 567.617188 L 382.953125 565.082031 L 382.558594 563.203125 L 380.914062 561.421875 L 376.144531 559.171875 L 367 556.050781 L 354.757812 552.289062 L 341.339844 548.285156 L 328.660156 544.429688 L 318.632812 541.121094 L 318.914062 542.519531 "/>
<path style="fill:none;stroke-width:0.75;stroke-linecap:round;stroke-linejoin:round;stroke:rgb(0%,0%,0%);stroke-opacity:1;stroke-miterlimit:10;" d="M 318.929688 547.710938 L 315.808594 555.9375 L 312.789062 563.074219 L 309.941406 567.707031 L 307.324219 568.851562 L 304.925781 567.242188 L 302.71875 564.050781 L 300.707031 560.433594 L 298.996094 557.492188 L 297.730469 556.320312 L 296.90625 557.625 L 295.925781 560.5625 L 294.035156 563.90625 L 290.496094 566.429688 L 284.941406 567.25 L 278.558594 566.90625 L 272.90625 566.273438 L 269.144531 566.050781 L 266.789062 566.175781 L 264.9375 566.402344 L 262.890625 566.515625 L 260.679688 566.449219 L 258.546875 566.171875 L 256.582031 565.734375 L 254.339844 565.519531 L 251.234375 565.980469 L 246.679688 567.574219 L 240.382812 570.578125 L 233.234375 574.570312 L 226.402344 578.933594 L 220.84375 583.167969 L 216.636719 587.175781 L 213.632812 590.964844 L 211.613281 594.539062 L 210.09375 597.878906 L 208.511719 600.960938 L 206.3125 603.761719 L 203.011719 606.371094 L 198.414062 609.324219 L 192.398438 613.28125 L 185.183594 618.621094 L 178.328125 624.636719 L 173.730469 630.339844 L 172.601562 634.96875 L 173.417969 638.597656 L 173.960938 641.515625 L 172.480469 644.046875 L 169.085938 646.632812 L 164.347656 649.75 L 158.839844 653.867188 L 153.152344 659.199219 L 147.964844 664.925781 L 143.960938 669.96875 L 141.558594 673.582031 L 140.058594 676.398438 L 138.476562 679.382812 L 136.0625 683.265625 L 132.984375 687.808594 L 129.652344 692.535156 L 126.460938 696.972656 L 123.726562 700.710938 L 121.410156 703.640625 L 119.386719 705.71875 L 117.558594 707.097656 L 115.945312 708.703125 L 114.597656 711.644531 L 113.546875 716.660156 L 112.742188 722.976562 L 112.121094 729.4375 L 111.621094 735.09375 L 111.257812 739.824219 L 111.050781 743.710938 L 111.03125 746.835938 L 111.136719 749.34375 L 110.984375 751.636719 L 110.121094 754.183594 L 108.253906 757.367188 L 105.820312 761.3125 L 103.433594 766.058594 L 101.5625 771.605469 L 100.09375 777.730469 L 98.777344 784.164062 L 97.398438 790.675781 L 95.898438 797.183594 L 94.257812 803.648438 L 92.457031 810.023438 L 90.511719 816.261719 L 88.535156 822.300781 L 86.691406 828.066406 L 85.03125 833.609375 L 83.261719 839.46875 L 80.988281 846.316406 L 78.011719 854.492188 L 74.886719 863.089844 L 72.359375 870.875 L 71.179688 876.617188 L 71.738281 879.574219 L 73.0625 880.933594 L 73.832031 882.359375 L 73.070312 885.195312 L 71.242188 889.464844 L 69.164062 894.867188 L 67.585938 901.082031 L 67.027344 907.714844 L 67.941406 914.351562 L 70.539062 920.617188 L 74.0625 926.273438 L 77.511719 931.125 L 79.890625 934.972656 L 80.488281 937.75 L 79.785156 939.886719 L 78.554688 941.953125 L 77.382812 944.375 L 76.097656 947.046875 L 74.351562 949.722656 L 71.980469 952.191406 L 69.628906 954.382812 L 68.132812 956.257812 L 68.328125 957.773438 L 70.648438 959.023438 L 73.898438 960.625 L 76.472656 963.320312 L 77.226562 967.609375 L 76.8125 973.003906 L 76.328125 978.773438 L 76.667969 984.285156 L 77.878906 989.28125 L 79.804688 993.609375 L 82.261719 997.214844 L 84.96875 1000.464844 L 87.632812 1003.824219 L 89.957031 1007.761719 L 91.691406 1012.613281 L 92.777344 1018.222656 L 93.203125 1024.296875 L 93.070312 1030.5625 L 92.976562 1036.753906 L 93.632812 1042.605469 L 95.519531 1047.878906 L 98.183594 1052.410156 L 100.953125 1056.046875 L 103.226562 1058.722656 L 104.753906 1060.722656 L 105.375 1062.414062 L 104.917969 1064.15625 L 103.492188 1066.300781 L 102.269531 1069.101562 L 102.691406 1072.796875 L 105.707031 1077.492188 L 110.289062 1082.753906 L 114.921875 1088.015625 L 118.457031 1092.851562 L 121.222656 1097.367188 L 123.921875 1101.800781 L 127.246094 1106.398438 L 131.613281 1111.308594 L 136.273438 1116.324219 L 140.199219 1121.140625 L 142.59375 1125.570312 L 143.625 1129.847656 L 143.691406 1134.3125 L 143.285156 1139.148438 L 143.246094 1143.867188 L 144.515625 1147.816406 L 147.679688 1150.5625 L 152.003906 1152.53125 L 156.40625 1154.371094 L 159.808594 1156.730469 L 161.480469 1160.066406 L 162.109375 1164.050781 L 162.71875 1168.164062 L 164.097656 1172.011719 L 166.0625 1175.628906 L 168.171875 1179.171875 L 170.105469 1182.738281 L 171.953125 1186.222656 L 173.933594 1189.457031 L 176.242188 1192.28125 L 179.082031 1194.746094 L 182.574219 1197.734375 L 186.835938 1202.347656 L 191.878906 1209.21875 L 197.328125 1217.144531 L 202.703125 1224.457031 L 207.585938 1229.917969 L 211.804688 1234.066406 L 215.246094 1237.859375 L 217.910156 1242.039062 L 220.242188 1246.433594 L 222.792969 1250.644531 L 226.125 1254.265625 L 230.570312 1256.984375 L 235.570312 1258.835938 L 240.347656 1259.9375 L 244.402344 1260.386719 L 248.398438 1260.234375 L 253.285156 1259.5 L 259.636719 1258.320312 L 266.574219 1257.226562 L 272.84375 1256.859375 L 277.632812 1257.660156 L 281.886719 1259.253906 L 287.003906 1261.0625 L 294.367188 1262.511719 L 304.742188 1263.152344 L 316.386719 1263.03125 L 326.925781 1262.324219 L 334.636719 1261.1875 L 340.355469 1259.769531 L 345.5625 1258.207031 L 351.367188 1256.625 L 357.417969 1255.128906 L 362.980469 1253.816406 L 367.332031 1252.78125 L 370.128906 1251.988281 L 372.609375 1250.855469 L 376.390625 1248.671875 L 382.578125 1245.042969 L 390.15625 1240.863281 L 397.589844 1237.339844 L 403.6875 1235.378906 L 408.625 1234.628906 L 412.921875 1234.4375 L 417.007812 1234.199219 L 420.988281 1233.53125 L 424.875 1232.101562 L 428.675781 1229.578125 L 432.445312 1225.730469 L 436.394531 1220.722656 L 440.769531 1214.808594 L 445.683594 1208.308594 L 450.710938 1201.792969 L 455.292969 1195.894531 L 458.992188 1191.09375 L 461.839844 1187.285156 L 463.988281 1184.210938 L 465.589844 1181.613281 L 466.808594 1178.847656 L 467.855469 1173.703125 L 468.949219 1163.582031 L 470.253906 1147.140625 L 471.699219 1128.0625 L 473.160156 1111.289062 L 474.527344 1100.554688 L 475.835938 1094.742188 L 477.128906 1091.535156 L 478.453125 1088.988281 L 479.808594 1086.621094 L 481.167969 1084.335938 L 482.523438 1082.023438 L 483.863281 1079.480469 L 485.191406 1076.070312 L 486.523438 1071.0625 L 487.867188 1064.039062 L 489.21875 1055.886719 L 490.566406 1047.820312 L 491.910156 1040.847656 L 493.25 1035.1875 L 494.585938 1030.859375 L 495.925781 1027.773438 L 497.265625 1025.363281 L 498.609375 1022.96875 L 499.953125 1019.914062 L 501.300781 1015.839844 L 502.644531 1011.671875 L 503.984375 1008.640625 L 505.324219 1007.421875 L 506.664062 1006.46875 L 508.003906 1003.664062 L 509.347656 997.449219 L 510.691406 988.484375 L 512.035156 977.96875 L 513.375 967.105469 L 514.714844 957.046875 L 516.054688 948.691406 L 517.402344 942.886719 L 518.753906 940.039062 L 520.101562 938.75 L 521.4375 937.171875 L 522.75 933.917969 L 524.066406 929.410156 L 525.40625 924.515625 L 526.796875 919.824219 L 528.210938 914.78125 L 529.628906 908.550781 L 531.019531 900.292969 L 532.304688 889.472656 L 533.199219 876.765625 L 533.355469 863.152344 L 532.570312 849.652344 L 531.144531 837.476562 L 529.515625 827.875 L 528.03125 821.632812 L 526.703125 817.695312 L 525.441406 814.558594 L 524.164062 810.699219 L 522.8125 805.039062 L 521.4375 798.175781 L 520.101562 791.152344 L 518.832031 784.683594 L 517.476562 778.257812 L 515.851562 771.046875 L 513.835938 762.539062 L 511.660156 753.5 L 509.636719 745.003906 L 507.972656 737.894531 L 506.515625 732.027344 L 505.011719 727.03125 L 503.210938 722.523438 L 500.980469 718.191406 L 498.722656 714.007812 L 496.945312 710 L 495.949219 706.105469 L 495.167969 701.851562 L 493.800781 696.664062 L 491.292969 690.25 L 488.019531 683.480469 L 484.59375 677.519531 L 481.527344 673.210938 L 478.957031 670.144531 L 476.921875 667.589844 L 475.460938 664.832031 L 474.472656 661.320312 L 473.246094 657.21875 L 470.933594 652.878906 L 467.007812 648.550781 L 462.179688 644.105469 L 457.492188 639.3125 L 453.75 634.058594 L 450.820312 628.644531 L 448.335938 623.46875 L 445.941406 618.945312 L 443.414062 615.335938 L 441.144531 612.371094 L 439.660156 609.632812 L 439.085938 606.78125 L 437.910156 603.734375 L 434.214844 600.496094 L 426.785156 597.03125 L 417.230469 593.265625 L 407.878906 589.101562 L 400.574219 584.507812 L 395.320312 579.753906 L 391.644531 575.1875 L 389.070312 571.148438 L 387.082031 567.875 L 385.003906 565.183594 L 382.105469 562.800781 L 377.753906 560.464844 L 371.695312 558.0625 L 363.761719 555.503906 L 353.964844 552.777344 L 342.945312 550.171875 L 331.523438 548.050781 L 320.507812 546.78125 L 318.929688 547.710938 "/>
<path style="fill:none;stroke-width:0.75;stroke-linecap:round;stroke-linejoin:round;stroke:rgb(0%,0%,0%);stroke-opacity:1;stroke-miterlimit:10;" d="M 776.507812 603.785156 L 770.5 605.535156 L 764.207031 607.554688 L 760.066406 610.257812 L 759.414062 613.910156 L 759.132812 618.125 L 755 622.355469 L 744.445312 626.179688 L 731.515625 629.652344 L 721.910156 632.9375 L 719.65625 636.144531 L 722.070312 639.132812 L 724.789062 641.6875 L 724.347656 643.6875 L 720.886719 645.351562 L 715.441406 646.980469 L 709.085938 648.921875 L 703.027344 651.703125 L 698.507812 655.894531 L 696.347656 661.78125 L 695.65625 668.507812 L 695.125 674.933594 L 693.640625 680.1875 L 690.910156 684.464844 L 686.839844 688.222656 L 681.515625 691.875 L 675.746094 695.683594 L 670.515625 699.867188 L 666.539062 704.546875 L 663.441406 709.464844 L 660.582031 714.285156 L 657.480469 718.726562 L 654.351562 722.8125 L 651.578125 726.648438 L 649.539062 730.328125 L 648.4375 733.976562 L 647.738281 737.804688 L 646.726562 742.050781 L 644.945312 746.894531 L 642.976562 752.257812 L 641.667969 757.988281 L 641.433594 763.988281 L 640.96875 770.289062 L 638.542969 776.96875 L 633.035156 784.019531 L 625.726562 791.132812 L 618.507812 797.910156 L 612.839844 804.046875 L 608.472656 809.566406 L 604.722656 814.570312 L 601.003906 819.21875 L 597.046875 823.855469 L 592.683594 828.886719 L 587.886719 834.503906 L 583.222656 840.078125 L 579.414062 844.785156 L 576.886719 848.128906 L 574.933594 850.957031 L 572.5625 854.457031 L 569.128906 859.449219 L 565.40625 865.308594 L 562.511719 871.039062 L 561.175781 875.859375 L 560.5625 879.878906 L 559.445312 883.414062 L 556.921875 886.761719 L 553.40625 890.101562 L 549.644531 893.589844 L 546.375 897.378906 L 544.140625 901.570312 L 542.675781 906.023438 L 541.503906 910.550781 L 540.246094 914.992188 L 538.890625 919.316406 L 537.511719 923.535156 L 536.167969 927.664062 L 534.847656 931.789062 L 533.523438 935.996094 L 532.175781 940.34375 L 530.816406 944.75 L 529.464844 949.101562 L 528.125 953.292969 L 526.796875 957.320312 L 525.464844 961.203125 L 524.117188 964.953125 L 522.765625 968.605469 L 521.414062 972.191406 L 520.078125 975.738281 L 518.746094 979.257812 L 517.410156 982.75 L 516.066406 986.199219 L 514.714844 989.546875 L 513.367188 992.703125 L 512.023438 995.636719 L 510.6875 998.5 L 509.351562 1001.5 L 508.011719 1004.769531 L 506.671875 1008.175781 L 505.328125 1011.519531 L 503.984375 1014.597656 L 502.636719 1017.292969 L 501.289062 1019.796875 L 499.949219 1022.386719 L 498.613281 1025.304688 L 497.28125 1028.671875 L 495.941406 1032.570312 L 494.589844 1037.109375 L 493.234375 1042.460938 L 491.890625 1048.816406 L 490.558594 1056.160156 L 489.230469 1063.640625 L 487.894531 1070.191406 L 486.539062 1075.066406 L 485.175781 1078.742188 L 483.832031 1082.007812 L 482.511719 1085.429688 L 481.199219 1088.691406 L 479.855469 1091.261719 L 478.472656 1092.980469 L 477.085938 1095.253906 L 475.746094 1099.855469 L 474.484375 1108.203125 L 473.226562 1120.230469 L 471.871094 1135.496094 L 470.375 1153.175781 L 468.867188 1170.863281 L 467.539062 1185.769531 L 466.488281 1195.902344 L 465.476562 1202.492188 L 464.171875 1207.574219 L 462.382812 1212.78125 L 460.417969 1218.152344 L 458.71875 1223.320312 L 457.726562 1227.921875 L 457.8125 1231.71875 L 459.042969 1234.964844 L 461.421875 1238.039062 L 464.792969 1241.292969 L 468.367188 1244.980469 L 471.21875 1249.328125 L 472.703125 1254.417969 L 473.359375 1259.746094 L 474.019531 1264.660156 L 475.332031 1268.703125 L 477.226562 1272.183594 L 479.429688 1275.601562 L 481.695312 1279.378906 L 483.785156 1283.625 L 485.476562 1288.382812 L 486.652344 1293.597656 L 487.621094 1298.878906 L 488.800781 1303.746094 L 490.476562 1307.898438 L 492.433594 1311.722656 L 494.316406 1315.789062 L 496.078125 1320.507812 L 498.84375 1325.65625 L 504.039062 1330.847656 L 512.613281 1335.75 L 523.644531 1340.167969 L 535.726562 1343.960938 L 547.820312 1346.949219 L 560.328125 1348.796875 L 574.019531 1349.136719 L 589.65625 1347.605469 L 607.222656 1344.089844 L 623.601562 1339.515625 L 634.898438 1335.0625 L 638.78125 1331.613281 L 639.175781 1328.871094 L 641.589844 1326.234375 L 649.90625 1323.246094 L 661.617188 1320.027344 L 672.597656 1316.847656 L 679.835938 1313.933594 L 684.773438 1311.363281 L 689.960938 1309.175781 L 697.265625 1307.425781 L 705.832031 1306.222656 L 714.113281 1305.675781 L 720.84375 1305.730469 L 725.832031 1305.625 L 729.15625 1304.421875 L 731.011719 1301.5 L 732.007812 1297.550781 L 732.867188 1293.574219 L 734.351562 1290.316406 L 737.394531 1287.457031 L 742.960938 1284.40625 L 751.4375 1280.75 L 760.847656 1276.746094 L 768.632812 1272.820312 L 772.992188 1269.324219 L 775.15625 1266.300781 L 777.101562 1263.71875 L 780.394531 1261.496094 L 784.894531 1259.316406 L 790.039062 1256.824219 L 795.269531 1253.65625 L 800.203125 1249.625 L 805.214844 1245.199219 L 810.859375 1241.035156 L 817.402344 1237.5625 L 823.949219 1234.378906 L 829.3125 1230.863281 L 832.789062 1226.554688 L 835.613281 1221.667969 L 839.511719 1216.574219 L 845.660156 1211.582031 L 853.015625 1206.800781 L 860 1202.265625 L 865.363281 1198.074219 L 869.257812 1194.476562 L 872.164062 1191.785156 L 874.699219 1190.003906 L 877.945312 1187.960938 L 883.121094 1184.1875 L 890.898438 1177.679688 L 899.828125 1169.300781 L 907.921875 1160.382812 L 913.660156 1152.085938 L 917.386719 1144.898438 L 919.917969 1139.136719 L 921.992188 1134.929688 L 924.058594 1131.679688 L 926.507812 1128.582031 L 929.535156 1124.996094 L 932.628906 1120.851562 L 935.09375 1116.230469 L 936.402344 1111.277344 L 936.65625 1106.417969 L 936.113281 1102.144531 L 935.035156 1098.957031 L 933.734375 1097.058594 L 932.714844 1095.492188 L 932.523438 1093.023438 L 933.542969 1088.683594 L 935.457031 1082.648438 L 937.789062 1075.371094 L 940.046875 1067.363281 L 941.699219 1059.398438 L 942.210938 1052.304688 L 941.421875 1046.640625 L 940.660156 1041.878906 L 941.625 1037.210938 L 945.417969 1032.019531 L 950.78125 1026.433594 L 955.847656 1020.757812 L 959.105469 1015.246094 L 960.410156 1009.878906 L 959.949219 1004.585938 L 958.175781 999.378906 L 956.527344 994.617188 L 956.703125 990.738281 L 959.675781 987.972656 L 963.5625 985.679688 L 965.757812 983.003906 L 964.492188 979.265625 L 961.359375 974.535156 L 958.777344 969.046875 L 958.558594 963.066406 L 960.0625 956.871094 L 962.035156 950.769531 L 963.21875 945.058594 L 962.734375 940.0625 L 961.238281 936.191406 L 959.75 933.890625 L 959.148438 933.117188 L 959.710938 931.914062 L 961.5625 927.847656 L 964.613281 919.25 L 967.878906 907.488281 L 970.160156 894.699219 L 970.648438 882.851562 L 970.136719 873.253906 L 969.808594 867.058594 L 970.53125 864.636719 L 971.917969 863.289062 L 973.246094 859.554688 L 973.9375 850.746094 L 973.917969 837.285156 L 973.238281 820.386719 L 972.015625 801.53125 L 970.605469 783.316406 L 969.421875 768.617188 L 968.703125 759.429688 L 967.996094 754.207031 L 966.671875 750.511719 L 964.339844 746.398438 L 961.511719 741.828125 L 958.933594 737.238281 L 957.167969 732.953125 L 955.992188 728.785156 L 955 724.425781 L 953.847656 719.660156 L 952.410156 714.636719 L 950.625 709.601562 L 948.433594 704.792969 L 945.816406 700.394531 L 942.949219 696.324219 L 940.042969 692.4375 L 937.273438 688.582031 L 934.636719 684.5625 L 932.082031 680.179688 L 929.550781 675.324219 L 926.898438 670.320312 L 923.980469 665.585938 L 920.65625 661.40625 L 916.851562 657.535156 L 912.519531 653.578125 L 907.695312 649.261719 L 902.84375 644.773438 L 898.511719 640.398438 L 895.0625 636.367188 L 892.039062 632.613281 L 888.789062 629 L 884.398438 625.410156 L 876.910156 621.757812 L 864.117188 617.96875 L 845.113281 614.074219 L 824.210938 610.464844 L 807.023438 607.640625 L 797.597656 605.945312 L 793.65625 605.175781 L 791.347656 604.976562 L 787.664062 605.011719 L 782.960938 605.039062 L 778.433594 604.820312 L 775.277344 604.125 L 776.507812 603.785156 "/>
</g>
</svg>
